<?xml version="1.0" encoding="utf-8"?>
<!-- Generator: Adobe Illustrator 26.0.3, SVG Export Plug-In . SVG Version: 6.00 Build 0)  -->
<svg version="1.1" id="Layer_1" xmlns="http://www.w3.org/2000/svg" xmlns:xlink="http://www.w3.org/1999/xlink" x="0px" y="0px"
	 viewBox="0 0 50 50" style="enable-background:new 0 0 50 50;" xml:space="preserve">
<style type="text/css">
	.st0{fill:#434343;}
</style>
<g>
	<g>
		<g>
			<path class="st0" d="M24,6.2c-0.5,0-0.9,0.1-1.4,0.2c-3,0.5-5.9,1.7-8.3,3.6c-4.1,3.1-6.7,7.5-7.4,12.6c-0.7,5,0.6,10,3.7,14.1
				l1.2-0.9l-1.2,0.9c0.4,0.5,0.7,0.9,1.1,1.3l2.2-2c-0.3-0.4-0.6-0.7-0.9-1.1C7.6,27.8,9,17.7,16.1,12.4c2.4-1.8,5.2-2.8,8-3.1
				C24,8.2,24,7.2,24,6.2z"/>
			<polygon class="st0" points="10.6,36.7 10.6,36.7 10.6,36.7 			"/>
		</g>
	</g>
</g>
<g>
	<g>
		<path class="st0" d="M41.5,28.4l2.9,0.6c0.2-1.1,0.3-2.1,0.4-3.2l-3-0.1C41.8,26.6,41.7,27.5,41.5,28.4z"/>
	</g>
</g>
<g>
	<g>
		<path class="st0" d="M41.7,23l2.9-0.4c-0.1-1.1-0.4-2.1-0.7-3.1l-2.8,0.9C41.3,21.2,41.6,22.1,41.7,23z"/>
	</g>
</g>
<g>
	<g>
		<path class="st0" d="M40,17.8l2.6-1.4c-0.5-0.9-1.1-1.9-1.7-2.7l-2.4,1.8C39.1,16.2,39.6,17,40,17.8z"/>
	</g>
</g>
<g>
	<g>
		<path class="st0" d="M39.5,33.4l2.6,1.5c0.6-0.9,1-1.9,1.4-2.9L40.7,31C40.4,31.8,40,32.7,39.5,33.4z"/>
	</g>
</g>
<g>
	<g>
		<path class="st0" d="M14,40.2c0.8,0.7,1.8,1.3,2.7,1.8l1.4-2.6c-0.8-0.4-1.6-0.9-2.3-1.5L14,40.2z"/>
	</g>
</g>
<g>
	<g>
		<path class="st0" d="M26,44.2c1.1,0,2.2-0.1,3.2-0.3L28.7,41c-0.9,0.2-1.8,0.3-2.7,0.3L26,44.2z"/>
	</g>
</g>
<g>
	<g>
		<path class="st0" d="M19.7,43.2c1,0.3,2.1,0.6,3.1,0.8l0.5-2.9c-0.9-0.1-1.8-0.4-2.6-0.6L19.7,43.2z"/>
	</g>
</g>
<g>
	<g>
		<path class="st0" d="M32.4,43.1c1-0.4,2-0.8,2.9-1.4l-1.5-2.6c-0.8,0.5-1.6,0.8-2.5,1.2L32.4,43.1z"/>
	</g>
</g>
<g>
	<g>
		<path class="st0" d="M36,37.5l1.9,2.3c0.8-0.7,1.6-1.4,2.3-2.3L38,35.6C37.4,36.3,36.7,37,36,37.5z"/>
	</g>
</g>
<g>
	<path class="st0" d="M23.5,26.2c0.6,0.6,0.9,1.4,0.9,2.4c0,0.7-0.2,1.3-0.5,1.9s-0.9,1-1.5,1.3c-0.7,0.3-1.5,0.5-2.5,0.5
		c-0.9,0-1.7-0.1-2.5-0.4c-0.8-0.3-1.4-0.6-1.9-1.1l0.8-1.4c0.4,0.4,0.9,0.7,1.6,0.9c0.6,0.2,1.3,0.4,2.1,0.4c0.9,0,1.6-0.2,2.1-0.6
		c0.5-0.4,0.8-0.9,0.8-1.6c0-0.7-0.2-1.2-0.7-1.6c-0.5-0.4-1.2-0.6-2.2-0.6h-1v-1.2l3-3.7H16V20h8v1.2l-3.2,3.9
		C22,25.2,22.9,25.6,23.5,26.2z"/>
	<path class="st0" d="M28.5,31.5c-0.7-0.5-1.3-1.2-1.8-2.1c-0.4-0.9-0.6-2-0.6-3.3c0-1.3,0.2-2.4,0.6-3.3c0.4-0.9,1-1.6,1.8-2.1
		c0.7-0.5,1.6-0.7,2.5-0.7c0.9,0,1.8,0.2,2.5,0.7c0.7,0.5,1.3,1.2,1.8,2.1c0.4,0.9,0.6,2,0.6,3.3c0,1.3-0.2,2.4-0.6,3.3
		c-0.4,0.9-1,1.6-1.8,2.1C32.8,32,32,32.2,31,32.2C30.1,32.2,29.2,32,28.5,31.5z M33.3,29.5c0.6-0.8,0.9-1.9,0.9-3.4
		c0-1.5-0.3-2.7-0.9-3.4c-0.6-0.8-1.4-1.2-2.3-1.2c-1,0-1.8,0.4-2.3,1.2c-0.6,0.8-0.9,1.9-0.9,3.4c0,1.5,0.3,2.7,0.9,3.4
		c0.6,0.8,1.4,1.2,2.3,1.2C32,30.7,32.7,30.3,33.3,29.5z"/>
</g>
<polygon class="st0" points="23.3,3.3 23.3,11.6 29.2,7.4 "/>
<g>
</g>
<g>
</g>
<g>
</g>
<g>
</g>
<g>
</g>
<g>
</g>
</svg>
