<svg width="291" height="291" viewBox="0 0 291 291" fill="none" xmlns="http://www.w3.org/2000/svg">
<circle cx="145.5" cy="145.5" r="145.5" fill="url(#paint0_linear_1_224)"/>
<g clip-path="url(#clip0_1_224)">
<path d="M234.328 242.795V222.237C234.328 222.237 242.377 236.812 234.328 242.795Z" fill="#F1F1F1"/>
<path d="M234.825 242.792L219.609 228.889C219.609 228.889 235.84 232.843 234.825 242.792Z" fill="#F1F1F1"/>
<path d="M181.159 128.711L100.417 175.682C100.135 175.846 99.7983 175.891 99.4819 175.809C99.1655 175.726 98.8949 175.522 98.7295 175.241L46.8074 86.8181C46.6427 86.5368 46.5968 86.202 46.6798 85.887C46.7627 85.5721 46.9678 85.3028 47.25 85.1382L127.992 38.1675C128.274 38.0036 128.611 37.9579 128.927 38.0405C129.243 38.1231 129.514 38.3272 129.679 38.6081L181.602 127.031C181.766 127.312 181.812 127.647 181.729 127.962C181.646 128.277 181.441 128.546 181.159 128.711Z" fill="white"/>
<path d="M181.159 128.711L100.417 175.682C100.135 175.846 99.7983 175.891 99.4819 175.809C99.1655 175.726 98.8949 175.522 98.7295 175.241L46.8074 86.8181C46.6427 86.5368 46.5968 86.202 46.6798 85.887C46.7627 85.5721 46.9678 85.3028 47.25 85.1382L127.992 38.1675C128.274 38.0036 128.611 37.9579 128.927 38.0405C129.243 38.1231 129.514 38.3272 129.679 38.6081L181.602 127.031C181.766 127.312 181.812 127.647 181.729 127.962C181.646 128.277 181.441 128.546 181.159 128.711ZM47.4991 85.5623C47.3297 85.661 47.2067 85.8226 47.1569 86.0116C47.1071 86.2006 47.1347 86.4015 47.2335 86.5702L99.1556 174.993C99.2548 175.162 99.4172 175.284 99.607 175.334C99.7969 175.383 99.9987 175.356 100.168 175.258L180.91 128.287C181.079 128.188 181.202 128.027 181.252 127.838C181.302 127.649 181.274 127.448 181.175 127.279L129.253 38.856C129.154 38.6874 128.992 38.5649 128.802 38.5154C128.612 38.4658 128.41 38.4932 128.241 38.5916L47.4991 85.5623Z" fill="#3F3D56"/>
<path d="M99.4001 94.368L79.3745 106.018C79.0919 106.182 78.7555 106.227 78.4391 106.145C78.1227 106.062 77.8521 105.858 77.6867 105.577L65.9825 85.6449C65.8177 85.3636 65.7718 85.0287 65.8548 84.7138C65.9378 84.3989 66.1429 84.1296 66.4251 83.965L86.4507 72.3152C86.7333 72.1513 87.0697 72.1056 87.3861 72.1882C87.7025 72.2708 87.9731 72.4749 88.1385 72.7558L99.8427 92.6881C100.007 92.9694 100.053 93.3042 99.9704 93.6191C99.8874 93.9341 99.6823 94.2034 99.4001 94.368ZM66.6741 84.3891C66.5048 84.4878 66.3817 84.6494 66.3319 84.8384C66.2821 85.0273 66.3097 85.2282 66.4085 85.397L78.1128 105.329C78.212 105.498 78.3744 105.62 78.5642 105.67C78.7541 105.719 78.9559 105.692 79.1255 105.594L99.1511 93.9439C99.3204 93.8451 99.4435 93.6836 99.4933 93.4946C99.5431 93.3056 99.5155 93.1047 99.4167 92.936L87.7124 73.0037C87.6132 72.8351 87.4508 72.7126 87.261 72.6631C87.0712 72.6135 86.8693 72.6409 86.6998 72.7393L66.6741 84.3891Z" fill="#F2F2F2"/>
<path d="M95.08 100.153L75.0543 111.802C74.8 111.95 74.4972 111.991 74.2125 111.917C73.9277 111.842 73.6842 111.659 73.5354 111.406L61.8311 91.4736C61.6828 91.2205 61.6415 90.9191 61.7162 90.6357C61.7909 90.3522 61.9754 90.1099 62.2294 89.9617L82.2551 78.312C82.5094 78.1644 82.8122 78.1233 83.0969 78.1976C83.3817 78.272 83.6252 78.4557 83.7741 78.7085L95.4783 98.6408C95.6266 98.894 95.6679 99.1953 95.5932 99.4787C95.5185 99.7622 95.334 100.005 95.08 100.153Z" fill="#FF6400"/>
<path d="M143.415 85.1202L80.782 121.557C80.5277 121.704 80.2248 121.746 79.94 121.671C79.6551 121.597 79.4116 121.413 79.263 121.16C79.1144 120.907 79.0729 120.605 79.1476 120.322C79.2223 120.038 79.4071 119.796 79.6613 119.648L142.295 83.2118C142.421 83.1385 142.56 83.0907 142.704 83.071C142.849 83.0513 142.996 83.0601 143.137 83.0969C143.278 83.1337 143.41 83.1978 143.526 83.2856C143.642 83.3733 143.74 83.483 143.814 83.6083C143.887 83.7336 143.935 83.8721 143.955 84.0159C143.975 84.1597 143.966 84.3059 143.929 84.4463C143.892 84.5867 143.828 84.7185 143.74 84.8341C143.651 84.9497 143.541 85.0469 143.415 85.1202Z" fill="#CCCCCC"/>
<path d="M132.149 100.493L84.6419 128.13C84.516 128.203 84.3768 128.251 84.2324 128.271C84.0879 128.29 83.9409 128.282 83.7999 128.245C83.515 128.17 83.2715 127.987 83.1229 127.733C82.9743 127.48 82.9328 127.179 83.0075 126.895C83.0822 126.612 83.267 126.369 83.5213 126.222L131.029 98.5844C131.155 98.5112 131.294 98.4634 131.438 98.4436C131.583 98.4239 131.73 98.4327 131.871 98.4696C132.012 98.5064 132.144 98.5705 132.26 98.6582C132.377 98.746 132.474 98.8556 132.548 98.9809C132.621 99.1062 132.669 99.2448 132.689 99.3886C132.709 99.5324 132.7 99.6786 132.663 99.819C132.626 99.9594 132.562 100.091 132.474 100.207C132.386 100.322 132.275 100.42 132.149 100.493Z" fill="#CCCCCC"/>
<path d="M129.008 61.0709L101.313 77.1822C101.058 77.3301 100.756 77.3715 100.471 77.2971C100.186 77.2227 99.9423 77.0388 99.7937 76.7857C99.6451 76.5326 99.6036 76.2312 99.6783 75.9476C99.753 75.6641 99.9378 75.4217 100.192 75.2738L127.887 59.1625C128.141 59.0146 128.444 58.9733 128.729 59.0476C128.87 59.0844 129.003 59.1486 129.119 59.2363C129.235 59.324 129.333 59.4337 129.406 59.559C129.48 59.6843 129.528 59.8228 129.548 59.9666C129.567 60.1104 129.558 60.2567 129.522 60.3971C129.485 60.5375 129.42 60.6692 129.332 60.7849C129.244 60.9005 129.134 60.9977 129.008 61.0709Z" fill="#CCCCCC"/>
<path d="M125.956 71.6652L105.173 83.7556C105.047 83.8289 104.908 83.8767 104.763 83.8964C104.619 83.9161 104.472 83.9073 104.331 83.8705C104.19 83.8337 104.057 83.7696 103.941 83.6818C103.825 83.5941 103.727 83.4844 103.654 83.3591C103.58 83.2338 103.532 83.0953 103.512 82.9515C103.492 82.8077 103.501 82.6614 103.538 82.521C103.575 82.3807 103.64 82.2489 103.728 82.1333C103.816 82.0177 103.926 81.9205 104.052 81.8472L124.835 69.7567C125.09 69.6088 125.392 69.5675 125.677 69.6419C125.962 69.7162 126.206 69.9002 126.354 70.1532C126.503 70.4063 126.544 70.7078 126.47 70.9913C126.395 71.2749 126.21 71.5172 125.956 71.6652Z" fill="#CCCCCC"/>
<path d="M151.135 98.267L88.5018 134.703C88.2475 134.851 87.9447 134.893 87.6598 134.818C87.3749 134.744 87.1314 134.56 86.9828 134.307C86.8342 134.054 86.7927 133.752 86.8674 133.469C86.9421 133.185 87.1269 132.943 87.3812 132.795L150.015 96.3585C150.269 96.2106 150.572 96.1693 150.857 96.2437C151.141 96.318 151.385 96.502 151.534 96.7551C151.682 97.0081 151.724 97.3096 151.649 97.5931C151.574 97.8767 151.389 98.1191 151.135 98.267Z" fill="#CCCCCC"/>
<path d="M139.869 113.64L92.3617 141.277C92.2358 141.35 92.0966 141.398 91.9522 141.418C91.8077 141.437 91.6608 141.428 91.5197 141.392C91.3787 141.355 91.2463 141.291 91.1301 141.203C91.0139 141.115 90.9163 141.006 90.8427 140.88C90.7691 140.755 90.7211 140.616 90.7013 140.473C90.6815 140.329 90.6903 140.183 90.7273 140.042C90.7643 139.902 90.8287 139.77 90.9169 139.654C91.005 139.539 91.1152 139.442 91.2411 139.368L138.749 111.731C138.875 111.658 139.014 111.61 139.158 111.59C139.303 111.571 139.45 111.58 139.591 111.616C139.732 111.653 139.864 111.717 139.98 111.805C140.096 111.893 140.194 112.002 140.268 112.128C140.341 112.253 140.389 112.392 140.409 112.535C140.429 112.679 140.42 112.825 140.383 112.966C140.346 113.106 140.282 113.238 140.194 113.354C140.105 113.469 139.995 113.566 139.869 113.64Z" fill="#CCCCCC"/>
<path d="M158.855 111.414L96.2216 147.85C96.0957 147.923 95.9566 147.971 95.8121 147.991C95.6676 148.011 95.5207 148.002 95.3796 147.965C95.2386 147.928 95.1062 147.864 94.99 147.776C94.8739 147.689 94.7762 147.579 94.7026 147.454C94.6291 147.328 94.581 147.19 94.5612 147.046C94.5414 146.902 94.5502 146.756 94.5872 146.616C94.6242 146.475 94.6886 146.343 94.7768 146.228C94.8649 146.112 94.9751 146.015 95.101 145.942L157.734 109.505C157.86 109.432 157.999 109.384 158.144 109.365C158.288 109.345 158.435 109.354 158.576 109.391C158.717 109.427 158.85 109.491 158.966 109.579C159.082 109.667 159.18 109.777 159.253 109.902C159.327 110.027 159.375 110.166 159.395 110.31C159.415 110.453 159.406 110.6 159.369 110.74C159.332 110.88 159.267 111.012 159.179 111.128C159.091 111.243 158.981 111.341 158.855 111.414Z" fill="#CCCCCC"/>
<path d="M162.715 117.987L100.082 154.424C99.9556 154.497 99.8165 154.545 99.672 154.564C99.5275 154.584 99.3806 154.575 99.2395 154.538C99.0985 154.502 98.9661 154.438 98.85 154.35C98.7338 154.262 98.6361 154.152 98.5626 154.027C98.489 153.902 98.4409 153.763 98.4211 153.619C98.4013 153.476 98.4102 153.329 98.4471 153.189C98.4841 153.049 98.5485 152.917 98.6367 152.801C98.7249 152.686 98.835 152.588 98.9609 152.515L161.594 116.079C161.72 116.006 161.859 115.958 162.004 115.938C162.148 115.918 162.295 115.927 162.436 115.964C162.577 116.001 162.71 116.065 162.826 116.153C162.942 116.24 163.04 116.35 163.113 116.475C163.187 116.601 163.235 116.739 163.255 116.883C163.274 117.027 163.266 117.173 163.229 117.313C163.192 117.454 163.127 117.586 163.039 117.701C162.951 117.817 162.841 117.914 162.715 117.987Z" fill="#CCCCCC"/>
<path d="M142.461 143.577C143.331 142.557 144.114 141.466 144.802 140.317C145.419 139.28 146.025 138.171 146.161 136.955C146.231 136.437 146.176 135.91 146.003 135.417C145.829 134.924 145.541 134.479 145.162 134.117C144.796 133.781 144.331 133.57 143.836 133.514C143.341 133.458 142.841 133.56 142.408 133.806C141.97 134.056 141.608 134.419 141.36 134.858C141.113 135.296 140.989 135.793 141.002 136.295C141.038 136.849 141.198 137.387 141.472 137.87C141.746 138.353 142.125 138.768 142.583 139.084C144.434 140.419 147.325 140.35 149.299 139.334C151.521 138.189 152.669 135.195 150.923 133.146C150.56 132.72 149.956 133.196 150.047 133.656C150.162 134.277 150.511 134.831 151.023 135.204C151.535 135.578 152.171 135.742 152.801 135.665C153.43 135.587 154.007 135.274 154.412 134.787C154.817 134.301 155.02 133.679 154.98 133.049L154.195 133.506C155.158 133.93 156.215 134.094 157.262 133.983C158.308 133.871 159.307 133.487 160.157 132.869C160.577 132.565 160.953 132.204 161.272 131.796C161.657 131.297 162.302 130.975 162.825 130.615L166.591 128.025C167.145 127.644 166.618 126.736 166.06 127.12L162.649 129.466C162.08 129.857 161.508 130.243 160.943 130.639C160.539 130.922 160.291 131.379 159.924 131.715C159.228 132.338 158.368 132.751 157.446 132.906C156.523 133.062 155.575 132.953 154.712 132.592C154.632 132.549 154.542 132.528 154.45 132.529C154.359 132.531 154.27 132.556 154.191 132.602C154.112 132.647 154.047 132.713 154 132.791C153.954 132.869 153.929 132.958 153.927 133.049C153.969 133.425 153.859 133.802 153.623 134.099C153.386 134.395 153.042 134.586 152.664 134.63C152.287 134.675 151.907 134.569 151.607 134.336C151.307 134.103 151.112 133.762 151.065 133.386L150.188 133.896C151.314 135.218 150.564 137.246 149.267 138.133C147.815 139.125 145.671 139.298 144.035 138.681C143.634 138.543 143.265 138.325 142.953 138.04C142.64 137.754 142.39 137.407 142.218 137.021C142.058 136.672 142.013 136.283 142.088 135.907C142.163 135.531 142.354 135.188 142.635 134.926C142.879 134.686 143.206 134.55 143.549 134.547C143.891 134.543 144.222 134.672 144.47 134.906C144.741 135.182 144.94 135.519 145.049 135.889C145.158 136.258 145.174 136.649 145.096 137.026C144.927 138.076 144.344 139.044 143.801 139.941C143.182 140.963 142.481 141.934 141.707 142.845C141.272 143.356 142.022 144.094 142.461 143.577Z" fill="#FF6400"/>
<path d="M151.809 168.495C151.899 168.588 151.983 168.688 152.058 168.794L163.721 168.51L165.081 166.035L169.102 167.591L167.121 172.205C166.961 172.578 166.684 172.889 166.331 173.091C165.978 173.294 165.569 173.377 165.165 173.328L151.988 171.744C151.677 172.136 151.253 172.424 150.774 172.57C150.295 172.717 149.782 172.714 149.304 172.563C148.826 172.413 148.405 172.121 148.098 171.726C147.791 171.332 147.612 170.853 147.584 170.355C147.557 169.857 147.682 169.362 147.944 168.936C148.206 168.511 148.592 168.174 149.051 167.973C149.51 167.771 150.019 167.713 150.512 167.806C151.004 167.899 151.457 168.14 151.809 168.495Z" fill="#FFB7B7"/>
<path d="M189.829 238.997H185.994L184.17 224.273L189.83 224.274L189.829 238.997Z" fill="#FFB7B7"/>
<path d="M190.807 242.697L178.441 242.696V242.541C178.442 241.27 178.949 240.052 179.851 239.153C180.754 238.255 181.978 237.75 183.254 237.75H183.255L190.807 237.75L190.807 242.697Z" fill="#2F2E41"/>
<path d="M155.006 238.912L151.48 237.412L155.613 223.159L160.818 225.373L155.006 238.912Z" fill="#FFB7B7"/>
<path d="M154.445 242.697L143.074 237.861L143.136 237.718C143.637 236.55 144.584 235.628 145.769 235.155C146.954 234.681 148.278 234.696 149.452 235.195L149.453 235.195L156.398 238.148L154.445 242.697Z" fill="#2F2E41"/>
<path d="M171.189 171.685L170.911 176.157L179.017 177.021L187.499 177.924L185.002 171.132L171.189 171.685Z" fill="#FFB7B7"/>
<path d="M170.656 176.215L167.507 154.364L172.965 152.584L174.568 150.395L182.369 150.855L183.515 153.408L187.675 155.365L187.035 167.182L187.502 177.067L170.656 176.215Z" fill="#2F2E41"/>
<path d="M168.674 170.359L163.122 168.148L163.146 168.05C163.17 167.951 165.532 158.122 165.846 156.543C166.173 154.898 167.367 154.443 167.418 154.424L167.455 154.411L169.652 155.076L170.617 162.623L168.674 170.359Z" fill="#2F2E41"/>
<path d="M157.863 236.324L150.472 234.815L162.284 202.374L166.327 191.308C166.327 191.308 168.891 182.436 170.049 179.003L170.748 174.396L187.298 176.219C187.298 176.219 191.92 182.976 190.516 193.988L191.151 235.381L183.761 235.758L177.57 194.012L166.706 216.897C166.706 216.897 163.281 226.663 160.831 228.78L157.863 236.324Z" fill="#2F2E41"/>
<path d="M180.661 177.756C180.791 177.753 180.921 177.76 181.05 177.777L188.771 169.071L187.873 166.395L191.753 164.519L193.805 169.102C193.971 169.472 194.012 169.886 193.921 170.281C193.831 170.676 193.614 171.031 193.303 171.293L183.176 179.834C183.254 180.327 183.178 180.832 182.96 181.281C182.742 181.731 182.392 182.104 181.955 182.35C181.519 182.596 181.018 182.705 180.519 182.661C180.019 182.617 179.545 182.422 179.159 182.104C178.773 181.785 178.494 181.357 178.359 180.876C178.223 180.395 178.238 179.885 178.401 179.413C178.564 178.941 178.868 178.53 179.272 178.234C179.675 177.938 180.16 177.771 180.661 177.756Z" fill="#FFB7B7"/>
<path d="M188.155 169.918L184.934 162.378L186.19 157.126L187.544 155.424C187.643 155.382 187.75 155.36 187.857 155.361C187.965 155.362 188.072 155.385 188.17 155.43C188.669 155.629 189.094 156.242 189.433 157.251L192.452 165.808L188.155 169.918Z" fill="#2F2E41"/>
<path d="M171.445 147.601V141.916C171.445 139.896 172.252 137.959 173.687 136.53C175.122 135.101 177.069 134.299 179.099 134.299C181.128 134.299 183.075 135.101 184.51 136.53C185.946 137.959 186.752 139.896 186.752 141.916V147.601C186.752 147.873 186.643 148.133 186.45 148.324C186.258 148.516 185.996 148.624 185.724 148.624H172.473C172.201 148.624 171.94 148.516 171.747 148.324C171.554 148.133 171.446 147.873 171.445 147.601Z" fill="#2F2E41"/>
<path d="M177.526 148.492C180.625 148.492 183.137 145.992 183.137 142.907C183.137 139.823 180.625 137.322 177.526 137.322C174.427 137.322 171.915 139.823 171.915 142.907C171.915 145.992 174.427 148.492 177.526 148.492Z" fill="#FFB7B7"/>
<path d="M169.635 142.371C169.637 140.774 170.275 139.242 171.41 138.112C172.545 136.983 174.084 136.347 175.689 136.345H176.831C178.436 136.347 179.975 136.983 181.11 138.112C182.245 139.242 182.883 140.774 182.885 142.371V142.485H180.471L179.648 140.19L179.483 142.485H178.236L177.82 141.327L177.737 142.485H169.635L169.635 142.371Z" fill="#2F2E41"/>
<path d="M176.974 149.264C176.86 149.111 176.793 148.929 176.779 148.74C176.764 148.551 176.804 148.361 176.893 148.193C178.104 145.902 179.799 141.667 177.549 139.056L177.387 138.868H183.918V148.628L177.985 149.67C177.925 149.68 177.864 149.686 177.803 149.686C177.641 149.686 177.482 149.647 177.338 149.574C177.193 149.501 177.069 149.394 176.974 149.264Z" fill="#2F2E41"/>
<path d="M100.789 235.781L104.255 237.013L110.681 224.294L105.566 222.475L100.789 235.781Z" fill="#9F616A"/>
<path d="M98.7042 238.81L100.309 234.34L107.135 236.768C108.287 237.179 109.229 238.029 109.753 239.131C110.277 240.233 110.341 241.496 109.93 242.645L109.879 242.785L98.7042 238.81Z" fill="#2F2E41"/>
<path d="M123.326 239.193L127.006 239.192L128.757 225.063L123.325 225.063L123.326 239.193Z" fill="#9F616A"/>
<path d="M122.387 237.997L129.635 237.996H129.635C130.242 237.996 130.843 238.115 131.403 238.346C131.963 238.577 132.473 238.916 132.902 239.343C133.331 239.77 133.671 240.277 133.903 240.834C134.135 241.392 134.255 241.99 134.255 242.594V242.743L122.387 242.744L122.387 237.997Z" fill="#2F2E41"/>
<path d="M114.938 148.92L116.539 145.772C116.539 145.772 122.501 147.259 123.044 150.699L114.938 148.92Z" fill="#F1F1F1"/>
<path d="M108.334 184.916L112.686 209.093L101.128 229.438L108.033 232.127L119.741 212.406L121.242 207.027L122.143 235.115L128.37 234.927L131.225 208.7L126.646 184.318L108.334 184.916Z" fill="#2F2E41"/>
<path d="M116.596 190.631C110.202 190.631 106.142 189.414 106.051 189.395L105.903 189.364L109.234 173.993L109.384 159.815C109.384 153.806 113.357 149.377 113.908 148.968C114.001 148.603 114.173 148.263 114.411 147.971C114.65 147.68 114.95 147.443 115.29 147.278C116.615 146.68 118.234 147.398 118.302 147.429L123.163 149.243L123.186 149.31C123.244 149.482 129.646 170.401 129.646 170.401C129.646 170.401 129.259 188.679 129.124 189.278C129.124 189.278 120.15 190.631 116.596 190.631Z" fill="#3F3D56"/>
<path d="M121.51 144.781C125.138 144.781 128.08 141.853 128.08 138.242C128.08 134.631 125.138 131.703 121.51 131.703C117.882 131.703 114.941 134.631 114.941 138.242C114.941 141.853 117.882 144.781 121.51 144.781Z" fill="#9F616A"/>
<path opacity="0.2" d="M114.185 160.974L125.679 176.935L127.376 169.481L114.185 160.974Z" fill="black"/>
<path d="M150.219 171.834C149.895 172.089 149.52 172.269 149.119 172.364C148.718 172.458 148.301 172.464 147.897 172.381C147.494 172.298 147.113 172.127 146.783 171.882C146.453 171.637 146.181 171.322 145.986 170.961L136.093 172.537L138.236 167.814L147.302 167.042C147.934 166.756 148.649 166.711 149.312 166.915C149.975 167.119 150.539 167.558 150.899 168.148C151.258 168.739 151.388 169.441 151.262 170.12C151.137 170.799 150.766 171.409 150.219 171.834Z" fill="#9F616A"/>
<path d="M138.746 167.546L142.3 167.199L143.285 172.134L138.813 172.213L138.746 167.546Z" fill="#F1F1F1"/>
<path d="M141.66 173.853L124.251 172.311L115.461 158.396L115.434 158.273C115.185 157.137 115.359 155.949 115.926 154.931C116.492 153.913 117.411 153.135 118.511 152.742C119.611 152.349 120.818 152.369 121.905 152.796C122.992 153.224 123.885 154.031 124.419 155.066L129.579 165.084L139.992 166.651L141.66 173.853Z" fill="#3F3D56"/>
<path d="M115.914 143.919L121.367 144.114C121.699 144.126 122.602 140.556 122.72 139.815C122.813 139.333 123.079 138.901 123.469 138.6C123.859 138.299 124.346 138.15 124.838 138.18C125.246 138.218 126.275 137.459 127.338 136.561C129.354 134.854 129.249 131.65 127.034 130.208C126.973 130.169 126.914 130.133 126.856 130.1C125.458 129.322 123.824 129.06 122.223 129.04C120.771 129.022 119.278 129.204 118 129.888C115.707 131.114 114.487 133.793 114.38 136.381C114.273 138.969 115.106 141.5 116.052 143.913" fill="#2F2E41"/>
<path d="M252.601 243H40.2855C40.2098 243 40.1372 242.97 40.0836 242.917C40.0301 242.863 40 242.791 40 242.716C40 242.64 40.0301 242.568 40.0836 242.515C40.1372 242.462 40.2098 242.432 40.2855 242.432H252.714C252.79 242.432 252.863 242.462 252.916 242.515C252.97 242.568 253 242.64 253 242.716C253 242.873 252.759 243 252.601 243Z" fill="#CBCBCB"/>
</g>
<defs>
<linearGradient id="paint0_linear_1_224" x1="-179" y1="175" x2="291" y2="163" gradientUnits="userSpaceOnUse">
<stop offset="0.285425" stop-color="#324E5E"/>
<stop offset="0.598898" stop-color="#1E9BB3"/>
<stop offset="1" stop-color="#F96600"/>
</linearGradient>
<clipPath id="clip0_1_224">
<rect width="213" height="205" fill="white" transform="translate(40 38)"/>
</clipPath>
</defs>
</svg>
