<svg width="25" height="25" viewBox="0 0 25 25" fill="none" xmlns="http://www.w3.org/2000/svg">
<path d="M11.7573 17.5139C11.634 17.5139 11.5131 17.564 11.4259 17.6513C11.3388 17.7384 11.2886 17.8589 11.2886 17.9827C11.2886 18.1059 11.3387 18.2269 11.4259 18.314C11.5131 18.4012 11.634 18.4514 11.7573 18.4514C11.8806 18.4514 12.0015 18.4013 12.0887 18.314C12.1759 18.2264 12.2261 18.1059 12.2261 17.9827C12.2261 17.8589 12.1759 17.7384 12.0887 17.6513C12.0015 17.5641 11.8806 17.5139 11.7573 17.5139Z" fill="black"/>
<path d="M20.703 16.1138C20.5793 16.1138 20.4583 16.1639 20.3711 16.2511C20.284 16.3383 20.2343 16.4588 20.2343 16.5825C20.2343 16.7058 20.284 16.8267 20.3711 16.9139C20.4583 17.0011 20.5793 17.0513 20.703 17.0513C20.8263 17.0513 20.9468 17.0011 21.0344 16.9139C21.1216 16.8262 21.1718 16.7058 21.1718 16.5825C21.1718 16.4592 21.1216 16.3383 21.0344 16.2511C20.9468 16.1639 20.8262 16.1138 20.703 16.1138Z" fill="black"/>
<path d="M6.83594 13.8582C6.71266 13.8582 6.59172 13.9083 6.50458 13.9955C6.41739 14.0827 6.36719 14.2036 6.36719 14.3269C6.36719 14.4502 6.41734 14.5711 6.50458 14.6583C6.59172 14.7455 6.71266 14.7957 6.83594 14.7957C6.95922 14.7957 7.08016 14.7455 7.16734 14.6583C7.25453 14.5711 7.30469 14.4502 7.30469 14.3269C7.30469 14.2036 7.25458 14.0827 7.16734 13.9955C7.08011 13.9083 6.95922 13.8582 6.83594 13.8582Z" fill="black"/>
<path d="M24.4637 5.4927C24.4637 5.23381 24.2538 5.02395 23.9949 5.02395H23.2731C23.1745 4.69475 23.0431 4.37722 22.8801 4.0745L23.3904 3.56417C23.5734 3.38112 23.5734 3.08431 23.3904 2.90126L21.9675 1.47847C21.7844 1.29542 21.4877 1.29542 21.3046 1.47847L20.7943 1.98875C20.4915 1.82572 20.1741 1.69428 19.8448 1.59565V0.873779C19.8448 0.614936 19.6349 0.405029 19.3761 0.405029H17.3639C17.105 0.405029 16.8951 0.614889 16.8951 0.873779V1.59739C16.5666 1.6962 16.2497 1.82773 15.9477 1.99072L15.4354 1.47842C15.2523 1.29537 14.9556 1.29537 14.7724 1.47842L13.3496 2.90126C13.238 3.01287 13.1949 3.16667 13.2193 3.31123H2.34029C1.30557 3.31128 0.463745 4.15311 0.463745 5.18787V18.1222C0.463745 19.157 1.30557 19.9988 2.34029 19.9988H9.7885V21.5925H8.66518C7.73378 21.5925 6.976 22.3503 6.976 23.2817V23.9363C6.976 24.1951 7.1859 24.405 7.44475 24.405H16.0697C16.3286 24.405 16.5385 24.1951 16.5385 23.9363V23.2817C16.5385 22.3503 15.7808 21.5925 14.8494 21.5925H13.726V19.9988H21.1699C22.2047 19.9988 23.0465 19.157 23.0465 18.1222V10.4401L23.3904 10.0962C23.4782 10.0084 23.5277 9.88911 23.5277 9.7648C23.5277 9.64048 23.4782 9.52123 23.3904 9.43334L22.8781 8.92109C23.0411 8.61898 23.1726 8.3022 23.2714 7.97365H23.995C24.1194 7.97365 24.2386 7.92425 24.3265 7.83636C24.4144 7.74847 24.4638 7.62922 24.4638 7.5049L24.4637 5.4927ZM15.601 23.2817V23.4675H7.9135V23.2817C7.9135 22.8672 8.25067 22.53 8.66518 22.53H14.8494C15.2638 22.53 15.601 22.8672 15.601 23.2817ZM12.7885 21.5925H10.726V19.9988H12.7885V21.5925ZM22.109 18.1222C22.109 18.64 21.6878 19.0613 21.1699 19.0613H2.34029C1.82251 19.0613 1.40125 18.64 1.40125 18.1222V17.0511H18.828C19.0869 17.0511 19.2968 16.8412 19.2968 16.5824C19.2968 16.3235 19.0869 16.1136 18.828 16.1136H1.40125V14.7957H4.97935C5.2382 14.7957 5.4481 14.5857 5.4481 14.3269C5.4481 14.0681 5.2382 13.8582 4.97935 13.8582H1.40125V5.18787C1.40125 4.67004 1.82251 4.24878 2.34029 4.24878H13.7767C13.6544 4.49848 13.5526 4.75733 13.4727 5.02395H12.745C12.6207 5.02395 12.5015 5.07336 12.4136 5.16125C12.3257 5.24914 12.2762 5.36839 12.2762 5.4927L12.2763 7.50486C12.2763 7.76375 12.4862 7.97361 12.745 7.97361H13.4744C13.5729 8.30075 13.7037 8.61626 13.8658 8.91725L13.3497 9.43339C13.1666 9.61644 13.1666 9.91325 13.3497 10.0963L14.7725 11.5191C14.9556 11.7021 15.2523 11.7021 15.4355 11.5191L15.9516 11.003C16.2526 11.1651 16.5681 11.296 16.8952 11.3944L16.8952 12.1238C16.8952 12.3826 17.1051 12.5925 17.3639 12.5925L19.3761 12.5925C19.635 12.5925 19.8449 12.3826 19.8449 12.1237V11.396C20.1727 11.2979 20.4889 11.1671 20.7905 11.005L21.3046 11.5191C21.3925 11.607 21.5117 11.6564 21.6361 11.6564C21.7604 11.6564 21.8796 11.607 21.9675 11.5191L22.109 11.3776V18.1222ZM23.5262 7.03611H22.9095C22.6897 7.03611 22.4994 7.18887 22.4518 7.40351C22.3462 7.88037 22.1591 8.33112 21.8957 8.74311C21.777 8.92822 21.8029 9.17173 21.9589 9.32773L22.396 9.76484L21.6361 10.5247L21.1976 10.0863C21.0549 9.94367 20.8369 9.90823 20.6564 9.99847C20.6418 10.0057 20.6278 10.0137 20.6141 10.0224C20.2022 10.2848 19.7518 10.471 19.2753 10.5759C19.0604 10.6232 18.9073 10.8136 18.9073 11.0337V11.655H17.8326V11.0325C17.8326 10.8126 17.6799 10.6223 17.4652 10.5748C16.9895 10.4695 16.5397 10.2829 16.1283 10.0204C16.0531 9.97226 15.9655 9.94672 15.8762 9.94672C15.7518 9.94672 15.6325 9.99617 15.5446 10.0841L15.1039 10.5247L14.344 9.7648L14.7847 9.32417C14.9407 9.16817 14.9665 8.9247 14.8479 8.73959C14.5856 8.32845 14.3993 7.87897 14.294 7.40351C14.2464 7.18887 14.0561 7.03611 13.8363 7.03611H13.2137L13.2138 5.96145H13.835C14.0551 5.96145 14.2455 5.80836 14.2929 5.59344C14.3976 5.11751 14.5836 4.66751 14.8457 4.25572C14.9643 4.07065 14.9385 3.82714 14.7825 3.67119L14.344 3.23272L15.1039 2.47283L15.541 2.90989C15.7017 3.07058 15.9502 3.09012 16.1322 2.96886C16.5424 2.70767 16.9908 2.522 17.4652 2.417C17.6798 2.36947 17.8326 2.17915 17.8326 1.95936L17.8327 1.34253H18.9074V1.958C18.9074 2.17803 19.0605 2.36848 19.2754 2.41578C19.7531 2.52097 20.2046 2.70786 20.6174 2.97134C20.6312 2.98015 20.6454 2.98817 20.66 2.99548C20.8403 3.08567 21.0586 3.05033 21.2012 2.90764L21.6361 2.47278L22.3959 3.23272L21.9611 3.66753C21.9393 3.68937 21.9197 3.71328 21.9026 3.73897C21.7991 3.89412 21.7976 4.09569 21.898 4.2522C22.1612 4.66475 22.3479 5.11597 22.4529 5.59334C22.5002 5.80826 22.6907 5.96136 22.9108 5.96136H23.5263V7.03611H23.5262Z" fill="black"/>
<path d="M18.37 3.59253C16.7675 3.59253 15.4637 4.89626 15.4637 6.49878C15.4637 8.10129 16.7675 9.40503 18.37 9.40503C19.9725 9.40503 21.2762 8.10129 21.2762 6.49878C21.2762 4.89626 19.9725 3.59253 18.37 3.59253ZM18.37 8.46753C17.2844 8.46753 16.4012 7.58436 16.4012 6.49878C16.4012 5.4132 17.2844 4.53003 18.37 4.53003C19.4556 4.53003 20.3387 5.4132 20.3387 6.49878C20.3387 7.58436 19.4556 8.46753 18.37 8.46753Z" fill="black"/>
<path d="M8.13574 9.18091C8.01195 9.18091 7.89152 9.23106 7.80434 9.31825C7.71668 9.40544 7.66699 9.52638 7.66699 9.65013C7.66699 9.77341 7.71668 9.89435 7.80434 9.98153C7.89152 10.0687 8.01199 10.1184 8.13574 10.1184C8.25902 10.1184 8.37996 10.0687 8.46715 9.98153C8.55429 9.89435 8.60449 9.77341 8.60449 9.65013C8.60449 9.52638 8.55434 9.40544 8.46715 9.31825C8.37996 9.23106 8.25902 9.18091 8.13574 9.18091Z" fill="black"/>
<path d="M11.7944 8.83419C11.8266 8.71409 11.8097 8.58617 11.7476 8.4785L10.9561 7.10769C10.8266 6.88353 10.54 6.80665 10.3158 6.93612L9.86491 7.19642C9.71683 7.0917 9.56018 7.00109 9.39588 6.9252V6.40503C9.39588 6.14614 9.18597 5.93628 8.92713 5.93628H7.34421C7.08536 5.93628 6.87546 6.14614 6.87546 6.40503V6.9252C6.71116 7.00114 6.5545 7.0917 6.40643 7.19642L5.95558 6.93612C5.84791 6.87397 5.71994 6.85719 5.59989 6.88929C5.47975 6.9215 5.37743 7.00001 5.31527 7.10769L4.52383 8.4785C4.39436 8.7027 4.47119 8.98934 4.69539 9.11881L5.14643 9.37925C5.13836 9.46915 5.13429 9.55958 5.13429 9.6499C5.13429 9.74023 5.13836 9.83065 5.14643 9.92056L4.69539 10.181C4.47119 10.3104 4.39436 10.5971 4.52383 10.8213L5.31527 12.1921C5.37743 12.2998 5.4798 12.3784 5.59989 12.4105C5.71994 12.4427 5.84791 12.4259 5.95558 12.3637L6.40643 12.1034C6.5545 12.2081 6.71116 12.2987 6.87546 12.3746V12.8948C6.87546 13.1536 7.08536 13.3635 7.34421 13.3635H8.92713C9.18597 13.3635 9.39588 13.1536 9.39588 12.8948V12.3746C9.56018 12.2987 9.71683 12.2081 9.86491 12.1034L10.3158 12.3637C10.54 12.4931 10.8266 12.4163 10.9561 12.1921L11.7476 10.8213C11.8097 10.7136 11.8266 10.5857 11.7944 10.4656C11.7622 10.3455 11.6837 10.2432 11.576 10.181L11.1249 9.92065C11.133 9.8307 11.1371 9.74028 11.1371 9.65C11.1371 9.55972 11.133 9.4693 11.1249 9.3793L11.576 9.11886C11.6836 9.05665 11.7622 8.95428 11.7944 8.83419ZM10.1563 9.22751C10.185 9.36579 10.1996 9.50792 10.1996 9.64995C10.1996 9.79198 10.185 9.93411 10.1563 10.0724C10.1152 10.2704 10.2057 10.4725 10.3809 10.5736L10.7013 10.7586L10.3785 11.3175L10.0576 11.1323C9.88235 11.0311 9.66175 11.0538 9.51077 11.1889C9.29702 11.38 9.05139 11.522 8.78069 11.611C8.58832 11.6742 8.45833 11.8538 8.45833 12.0563V12.4262H7.81291V12.0563C7.81291 11.8538 7.68293 11.6742 7.49055 11.611C7.21985 11.522 6.97418 11.38 6.76047 11.1889C6.60953 11.0538 6.38899 11.031 6.21363 11.1323L5.89272 11.3175L5.57004 10.7586L5.89038 10.5736C6.0655 10.4725 6.15607 10.2704 6.11496 10.0724C6.08632 9.93425 6.07174 9.79212 6.07174 9.64995C6.07174 9.50778 6.08632 9.3657 6.11496 9.22751C6.15607 9.02947 6.06555 8.82744 5.89038 8.72628L5.57004 8.54131L5.89272 7.98242L6.21363 8.16767C6.38889 8.26892 6.60949 8.24614 6.76047 8.11109C6.97422 7.91994 7.21985 7.7779 7.49055 7.68894C7.68293 7.6257 7.81291 7.44612 7.81291 7.24362V6.87378H8.45833V7.24362C8.45833 7.44612 8.58832 7.6257 8.78069 7.68894C9.05139 7.7779 9.29707 7.91998 9.51077 8.11109C9.66166 8.24604 9.88221 8.26887 10.0576 8.16767L10.3785 7.98237L10.7013 8.54131L10.3809 8.72628C10.2057 8.82744 10.1152 9.02951 10.1563 9.22751Z" fill="black"/>
</svg>
