<svg width="25" height="22" viewBox="0 0 25 22" fill="none" xmlns="http://www.w3.org/2000/svg">
<path d="M4.61743 13.9283C4.61743 15.5451 5.12706 17.0829 6.09113 18.3754C7.02287 19.6244 8.35084 20.5681 9.8304 21.0325C10.0774 21.1101 10.3405 20.9727 10.418 20.7257C10.4956 20.4787 10.3582 20.2156 10.1112 20.138C8.81823 19.7322 7.65746 18.9072 6.84263 17.8149C6.0002 16.6856 5.55493 15.3417 5.55493 13.9284C5.55493 11.0725 7.40424 8.6405 9.96817 7.76675C11.3185 7.30803 12.8068 7.30803 14.157 7.76698C16.7206 8.64092 18.5696 11.0727 18.5696 13.9284C18.5696 15.3614 18.1129 16.7205 17.2488 17.8586C16.4124 18.9604 15.2251 19.7814 13.9058 20.1704C13.6575 20.2437 13.5155 20.5043 13.5887 20.7526C13.661 20.9975 13.9258 21.142 14.1709 21.0697C15.6807 20.6245 17.039 19.6855 17.9956 18.4255C18.9844 17.123 19.5071 15.5679 19.5071 13.9284C19.5071 11.8229 18.6284 9.91911 17.2187 8.56362L18.7757 3.51054C18.8303 3.33317 18.7752 3.14032 18.6351 3.01864C18.495 2.89695 18.2963 2.86934 18.1284 2.94828L16.1838 3.86192C15.1742 4.33629 13.9667 3.93978 13.4348 2.95915L12.4743 1.18812C12.3923 1.037 12.2341 0.942871 12.0622 0.942871C11.8903 0.942871 11.7321 1.037 11.6501 1.18812L10.6896 2.95915C10.1578 3.93978 8.95028 4.33629 7.94059 3.86192L5.99607 2.94828C5.82812 2.86934 5.62942 2.89695 5.48931 3.01864C5.34924 3.14032 5.29412 3.33317 5.34873 3.51054L6.90568 8.56362C5.49615 9.91901 4.61743 11.8229 4.61743 13.9283ZM7.68423 7.90606L6.55698 4.24751L7.54206 4.71036C9.00076 5.39567 10.7454 4.82286 11.5139 3.40601L12.0623 2.39473L12.6107 3.40601C13.3792 4.82281 15.1238 5.39576 16.5825 4.71036L17.5676 4.24751L16.4403 7.90606C15.8315 7.46314 15.1618 7.11767 14.455 6.87795C12.9151 6.3544 11.2097 6.35407 9.66981 6.87786C8.96284 7.11757 8.29309 7.46309 7.68423 7.90606Z" fill="black"/>
<path d="M1.91114 9.00916C1.68422 8.88452 1.39927 8.96744 1.27462 9.19436C0.498938 10.6067 0.0787032 12.2371 0.0592969 13.9092C0.0399375 15.5784 0.420656 17.2182 1.1602 18.6514C1.27725 18.8783 1.56408 18.9705 1.7917 18.853C2.02177 18.7343 2.112 18.4516 1.99331 18.2215C1.32375 16.924 0.979125 15.4366 0.996703 13.9202C1.01428 12.4015 1.39453 10.9235 2.09634 9.64572C2.22098 9.41875 2.13806 9.13375 1.91114 9.00916Z" fill="black"/>
<path d="M3.4638 10.6182C3.22826 10.5106 2.95019 10.6143 2.84266 10.8497C1.97894 12.7398 1.93666 15.0207 2.72955 16.9511C2.82658 17.1875 3.10502 17.3037 3.34123 17.2067C3.58071 17.1083 3.69508 16.8345 3.59674 16.595C2.90055 14.9 2.93744 12.8979 3.69537 11.2394C3.80294 11.0039 3.6993 10.7258 3.4638 10.6182Z" fill="black"/>
<path d="M22.206 18.8473C22.4307 18.9708 22.7197 18.8858 22.8425 18.6621C23.6182 17.2498 24.0385 15.6194 24.0579 13.9473C24.0772 12.2781 23.6965 10.6383 22.9569 9.20506C22.8383 8.97499 22.5555 8.88476 22.3254 9.00345C22.0954 9.12214 22.0051 9.40489 22.1238 9.63495C22.7934 10.9325 23.138 12.4199 23.1204 13.9363C23.1029 15.4549 22.7226 16.933 22.0208 18.2108C21.8962 18.4377 21.9791 18.7227 22.206 18.8473Z" fill="black"/>
<path d="M20.6533 17.2385C20.8859 17.3448 21.1683 17.2393 21.2745 17.007C22.1382 15.1169 22.1805 12.836 21.3876 10.9055C21.2892 10.6661 21.0153 10.5516 20.7759 10.65C20.5364 10.7484 20.422 11.0222 20.5204 11.2617C21.2166 12.9567 21.1797 14.9588 20.4218 16.6173C20.3142 16.8528 20.4179 17.1309 20.6533 17.2385Z" fill="black"/>
<path d="M14.636 17.7063C14.7623 17.6152 14.8352 17.4673 14.8303 17.3116L14.7591 15.0218L16.1522 13.2411C16.2477 13.119 16.2767 12.9576 16.2295 12.8098C16.1824 12.6621 16.0653 12.5473 15.9168 12.503L13.729 11.8515L12.449 9.98399C12.3616 9.85649 12.2169 9.78027 12.0623 9.78027C11.9077 9.78027 11.7631 9.85649 11.6756 9.98399L10.3956 11.8515L8.20783 12.503C8.05924 12.5473 7.94214 12.6621 7.89503 12.8098C7.84792 12.9575 7.87689 13.1189 7.97242 13.2411L9.3655 15.0218L9.29425 17.3115C9.28938 17.4672 9.36222 17.6151 9.4885 17.7063C9.6123 17.7956 9.7811 17.8188 9.92435 17.7661L12.0623 16.9811L14.2002 17.7661C14.3464 17.8199 14.5097 17.7974 14.636 17.7063ZM13.8716 16.6469L12.2238 16.0418C12.1202 16.0037 12.0044 16.0037 11.9007 16.0418L10.2528 16.6469L10.3078 14.8813C10.3112 14.7717 10.276 14.6643 10.2085 14.5779L9.1346 13.2052L10.8221 12.7027C10.925 12.6721 11.0143 12.607 11.075 12.5185L12.0623 11.0781L13.0495 12.5185C13.1102 12.607 13.1995 12.6721 13.3024 12.7027L14.9899 13.2052L13.916 14.5779C13.8485 14.6643 13.8133 14.7717 13.8167 14.8813L13.8716 16.6469Z" fill="black"/>
<path d="M12.4518 20.644C12.3101 20.4313 12.0146 20.3737 11.8022 20.5146C11.5897 20.6556 11.5307 20.9524 11.6723 21.1643C11.8144 21.3769 12.1097 21.4359 12.3225 21.2941C12.5364 21.1517 12.5915 20.8573 12.4518 20.644Z" fill="black"/>
</svg>
