<svg width="25" height="25" viewBox="0 0 25 25" fill="none" xmlns="http://www.w3.org/2000/svg">
<path d="M3.67447 21.3238C4.81993 22.4692 6.15423 23.3687 7.64043 23.9973C9.18008 24.6485 10.8145 24.9786 12.4983 24.9786C14.182 24.9786 15.8165 24.6485 17.3561 23.9973C18.8423 23.3687 20.1766 22.4692 21.3221 21.3238C22.4675 20.1783 23.3671 18.844 23.9956 17.3578C24.6468 15.8181 24.9771 14.1837 24.9771 12.5C24.9771 10.8161 24.6468 9.18174 23.9956 7.64213C23.3671 6.15594 22.4675 4.82164 21.3221 3.67618C20.1766 2.53072 18.8423 1.63122 17.3561 1.00264C15.8164 0.351393 14.182 0.0212402 12.4983 0.0212402C10.8145 0.0212402 9.18008 0.351435 7.64043 1.00264C6.15423 1.63122 4.81993 2.53077 3.67447 3.67618C2.52901 4.82159 1.62951 6.15594 1.00089 7.64209C0.349726 9.18174 0.0195312 10.8161 0.0195312 12.5C0.0195312 14.1837 0.349726 15.8181 1.00093 17.3578C1.62951 18.844 2.52906 20.1783 3.67447 21.3238ZM12.4983 1.84295C18.384 1.84295 23.1553 6.61426 23.1553 12.5C23.1553 18.3857 18.384 23.1569 12.4983 23.1569C6.61255 23.1569 1.84124 18.3857 1.84124 12.5C1.84124 6.61426 6.61255 1.84295 12.4983 1.84295Z" fill="black"/>
<path d="M12.5 24.9999C10.8132 24.9999 9.17606 24.6692 7.63386 24.0169C6.14512 23.3872 4.80852 22.4861 3.66119 21.3388C2.51378 20.1914 1.61275 18.8547 0.983101 17.3661C0.330748 15.8238 0 14.1866 0 12.5C0 10.8134 0.330748 9.17615 0.983059 7.63382C1.6127 6.14516 2.51378 4.80856 3.66115 3.66115C4.80852 2.51374 6.14516 1.6127 7.63382 0.983059C9.17615 0.330748 10.8133 0 12.5 0C14.1867 0 15.8239 0.330748 17.3661 0.983101C18.8548 1.61275 20.1914 2.51382 21.3388 3.66119C22.4863 4.80869 23.3873 6.14529 24.0169 7.63386C24.6693 9.17619 25 10.8134 25 12.5C25 14.1866 24.6693 15.8238 24.0169 17.3661C23.3873 18.8547 22.4863 20.1913 21.3388 21.3389C20.1914 22.4861 18.8548 23.3872 17.3661 24.0169C15.8239 24.6692 14.1867 24.9999 12.5 24.9999ZM12.5 0.0425235C10.8191 0.0425235 9.1875 0.372123 7.65045 1.02222C6.16685 1.64974 4.83475 2.54771 3.69125 3.69121C2.54771 4.83475 1.64974 6.1668 1.02222 7.65036C0.372123 9.18746 0.0425235 10.8191 0.0425235 12.5C0.0425235 14.1808 0.372123 15.8125 1.02222 17.3496C1.64974 18.8332 2.54771 20.1652 3.69125 21.3087C4.83471 22.4522 6.16676 23.3501 7.65045 23.9777C9.18733 24.6278 10.819 24.9574 12.5 24.9574C14.181 24.9574 15.8126 24.6278 17.3496 23.9777C18.8332 23.3501 20.1653 22.4522 21.3087 21.3087C22.4523 20.1651 23.3503 18.833 23.9777 17.3496C24.6278 15.8125 24.9575 14.1809 24.9575 12.5C24.9575 10.8191 24.6278 9.18746 23.9777 7.65045C23.3503 6.16693 22.4523 4.83488 21.3087 3.69125C20.1652 2.54775 18.8331 1.64978 17.3496 1.02227C15.8126 0.372123 14.181 0.0425235 12.5 0.0425235ZM12.5 23.1782C9.64774 23.1782 6.96616 22.0675 4.94931 20.0506C2.93246 18.0338 1.82171 15.3523 1.82171 12.5C1.82171 9.64773 2.93242 6.96616 4.94931 4.94931C6.96616 2.93246 9.64774 1.82171 12.5 1.82171C15.3523 1.82171 18.0338 2.93246 20.0506 4.94931C22.0675 6.9662 23.1782 9.64773 23.1782 12.5C23.1782 15.3523 22.0675 18.0338 20.0506 20.0506C18.0338 22.0675 15.3522 23.1782 12.5 23.1782ZM12.5 1.86423C9.65909 1.86423 6.98823 2.97057 4.97938 4.97938C2.97057 6.98823 1.86423 9.65909 1.86423 12.5C1.86423 15.3409 2.97057 18.0118 4.97938 20.0205C6.98819 22.0294 9.65909 23.1357 12.5 23.1357C15.3409 23.1357 18.0118 22.0294 20.0206 20.0205C22.0294 18.0118 23.1357 15.3409 23.1357 12.5C23.1357 9.65909 22.0294 6.98819 20.0206 4.97938C18.0117 2.97052 15.3409 1.86423 12.5 1.86423Z" fill="black"/>
<path d="M7.86057 17.1365C8.03845 17.3144 8.27152 17.4033 8.50464 17.4033C8.73775 17.4033 8.97086 17.3144 9.1487 17.1365L12.4971 13.7881L15.8455 17.1365C16.0233 17.3144 16.2565 17.4033 16.4896 17.4033C16.7227 17.4033 16.9558 17.3144 17.1336 17.1365C17.4893 16.7809 17.4893 16.2041 17.1336 15.8484L13.7852 12.5L17.1335 9.15158C17.4893 8.79587 17.4893 8.21913 17.1335 7.86346C16.7779 7.50775 16.2012 7.50775 15.8455 7.86346L12.497 11.2119L9.14865 7.86346C8.79294 7.50775 8.2162 7.50775 7.86053 7.86346C7.50482 8.21917 7.50482 8.79587 7.86053 9.15158L11.209 12.5L7.86053 15.8484C7.50487 16.2041 7.50486 16.7809 7.86057 17.1365Z" fill="black"/>
<path d="M16.4913 17.4247C16.2423 17.4247 16.0082 17.3277 15.8322 17.1516L12.4988 13.8182L9.16545 17.1516C8.9894 17.3277 8.75531 17.4247 8.50633 17.4247C8.25736 17.4247 8.02327 17.3277 7.84722 17.1516C7.67117 16.9755 7.57422 16.7415 7.57422 16.4925C7.57422 16.2436 7.67117 16.0095 7.84722 15.8334L11.1806 12.5L7.84722 9.16667C7.48381 8.80322 7.48381 8.21189 7.84722 7.84844C8.02327 7.67239 8.25732 7.57544 8.50633 7.57544C8.75531 7.57544 8.9894 7.67239 9.16545 7.84844L12.4988 11.1818L15.8322 7.84844C16.0083 7.67239 16.2423 7.57544 16.4913 7.57544C16.7402 7.57544 16.9743 7.67239 17.1503 7.84844C17.3264 8.02449 17.4233 8.25858 17.4233 8.50755C17.4233 8.75653 17.3264 8.99062 17.1503 9.16667L13.817 12.5L17.1504 15.8334C17.3265 16.0095 17.4235 16.2436 17.4235 16.4925C17.4235 16.7415 17.3265 16.9755 17.1504 17.1516C16.9743 17.3277 16.7402 17.4247 16.4913 17.4247ZM12.4988 13.7581L15.8622 17.1215C16.0302 17.2896 16.2536 17.3821 16.4913 17.3821C16.7289 17.3821 16.9523 17.2896 17.1203 17.1215C17.2883 16.9535 17.3809 16.7302 17.3809 16.4925C17.3809 16.2549 17.2883 16.0315 17.1203 15.8635L13.7568 12.5L17.1202 9.13661C17.2882 8.96859 17.3808 8.74518 17.3808 8.50755C17.3808 8.26993 17.2882 8.04656 17.1202 7.87855C16.9523 7.71054 16.7289 7.61801 16.4913 7.61801C16.2537 7.61801 16.0302 7.71054 15.8622 7.87855L12.4988 11.242L9.13534 7.87855C8.96733 7.71054 8.74391 7.61801 8.50629 7.61801C8.26867 7.61801 8.04529 7.71054 7.87728 7.87855C7.53046 8.22541 7.53046 8.78974 7.87728 9.13661L11.2407 12.5L7.87728 15.8635C7.70927 16.0315 7.61674 16.2549 7.61674 16.4925C7.61674 16.7302 7.70927 16.9535 7.87728 17.1215C8.04534 17.2896 8.26871 17.3821 8.50633 17.3821C8.74396 17.3821 8.96733 17.2896 9.13538 17.1215L12.4988 13.7581Z" fill="black"/>
</svg>
