<svg width="426" height="223" viewBox="0 0 426 223" fill="none" xmlns="http://www.w3.org/2000/svg">
<path d="M1 162.862C47.4081 135.076 156.139 96.1757 219.8 162.862C283.46 229.548 400.874 136.74 451.623 82M229.177 198.8C292.837 265.486 410.251 172.678 461 117.939M1 196.305C47.4081 168.519 156.139 129.619 219.8 196.305" stroke="#116E66" stroke-opacity="0.5" stroke-width="2"/>
<path d="M13 81.8617C59.4081 54.0759 168.139 15.1757 231.8 81.8617C295.46 148.548 412.874 55.7397 463.623 1M241.177 117.8C304.837 184.486 422.251 91.6783 473 36.9386M13 115.305C59.4081 87.5188 168.139 48.6186 231.8 115.305" stroke="#116E66" stroke-opacity="0.75" stroke-width="2"/>
</svg>
