<svg width="24" height="24" viewBox="0 0 24 24" fill="none" xmlns="http://www.w3.org/2000/svg">
<path d="M13.875 24C12.9445 24 12.1875 23.243 12.1875 22.3125V21.25C12.1875 20.9652 12.4184 20.7344 12.7031 20.7344C12.9879 20.7344 13.2188 20.9652 13.2188 21.25V22.3125C13.2188 22.6744 13.5132 22.9688 13.875 22.9688C14.1598 22.9688 14.3906 23.1996 14.3906 23.4844C14.3906 23.7692 14.1598 24 13.875 24Z" fill="#141414"/>
<path d="M18.4848 3.17147C16.4396 1.12631 13.7204 0 10.8281 0C7.93584 0 5.21667 1.12631 3.17147 3.17147C1.12636 5.21667 0 7.93584 0 10.8281C0 13.7204 1.12631 16.4396 3.17147 18.4848C5.21667 20.5299 7.93584 21.6562 10.8281 21.6562C12.2729 21.6562 13.681 21.3731 15.0135 20.8147C15.2761 20.7046 15.3997 20.4024 15.2897 20.1398C15.1796 19.8771 14.8774 19.7534 14.6148 19.8636C13.4093 20.3688 12.1353 20.625 10.8281 20.625C6.19823 20.625 2.30817 17.3967 1.29075 13.0729H1.71736C2.55797 13.0729 3.24183 12.3891 3.24183 11.5485C3.24183 11.2764 3.46312 11.0551 3.73509 11.0551H5.89388C6.98522 11.0551 7.87308 10.1672 7.87308 9.07584C7.87308 7.98445 6.98522 7.09659 5.89388 7.09659C5.68373 7.09659 5.51278 6.92564 5.51278 6.7155C5.51278 5.93681 4.87922 5.3032 4.10044 5.30306H2.74162C4.5083 2.7255 7.47408 1.03125 10.8281 1.03125C12.9905 1.03125 14.9915 1.73545 16.6139 2.92659H11.0525C9.65555 2.92659 8.51911 4.06308 8.51911 5.46C8.51911 6.85692 9.65559 7.99336 11.0525 7.99336H13.6027C13.8747 7.99341 14.096 8.21475 14.096 8.48672C14.096 9.32733 14.7799 10.0112 15.6205 10.0112C15.8925 10.0112 16.1138 10.2324 16.1138 10.5044C16.1138 10.7764 15.8925 10.9977 15.6205 10.9977H13.6028C12.2059 10.9977 11.0694 12.1342 11.0694 13.5311C11.0694 14.928 12.2059 16.0645 13.6028 16.0645H14.878C15.1628 16.0645 15.3936 15.8336 15.3936 15.5489C15.3936 15.2641 15.1628 15.0332 14.878 15.0332H13.6028C12.7746 15.0332 12.1007 14.3594 12.1007 13.5311C12.1007 12.7028 12.7745 12.0289 13.6028 12.0289H15.6205C16.4611 12.0289 17.145 11.345 17.145 10.5044C17.145 9.6638 16.4611 8.97994 15.6205 8.97994C15.3486 8.97994 15.1273 8.75869 15.1273 8.48672C15.1273 7.6462 14.4434 6.96225 13.6027 6.96211H11.0525C10.2242 6.96211 9.55036 6.28828 9.55036 5.46C9.55036 4.63172 10.2242 3.95784 11.0525 3.95784H17.8058C19.5483 5.72733 20.625 8.15438 20.625 10.8281C20.625 12.0624 20.3956 13.2705 19.9433 14.4188C19.8389 14.6838 19.9691 14.9832 20.2341 15.0876C20.4989 15.1919 20.7984 15.0618 20.9028 14.7968C21.4028 13.5276 21.6562 12.1923 21.6562 10.8281C21.6562 7.93584 20.5299 5.21667 18.4848 3.17147ZM4.10034 6.33436C4.31053 6.33436 4.48153 6.50536 4.48153 6.71555C4.48153 7.49433 5.11514 8.12789 5.89388 8.12789C6.41658 8.12789 6.84183 8.55314 6.84183 9.07589C6.84183 9.59864 6.41658 10.0239 5.89388 10.0239H3.735C2.89444 10.024 2.21058 10.7079 2.21058 11.5485C2.21058 11.8205 1.98933 12.0417 1.71736 12.0417H1.10602C1.0567 11.644 1.03125 11.2389 1.03125 10.8281C1.03125 9.20939 1.42589 7.68108 2.124 6.33436H4.10034Z" fill="black"/>
<path d="M23.4844 14.2969H15.0469C14.7621 14.2969 14.5312 14.5277 14.5312 14.8125V22.3125C14.5312 22.6744 14.2369 22.9688 13.875 22.9688C13.5902 22.9688 13.3594 23.1996 13.3594 23.4844C13.3594 23.7691 13.5902 24 13.875 24H22.3125C23.243 24 24 23.243 24 22.3125V14.8125C24 14.5277 23.7691 14.2969 23.4844 14.2969ZM22.9688 22.3125C22.9688 22.6744 22.6744 22.9688 22.3125 22.9688H15.4297C15.5152 22.7669 15.5625 22.5451 15.5625 22.3125V15.3281H22.9687V22.3125H22.9688Z" fill="#141414"/>
<path d="M17.1562 17.4961H21.375C21.6598 17.4961 21.8906 17.2652 21.8906 16.9805C21.8906 16.6957 21.6598 16.4648 21.375 16.4648H17.1562C16.8715 16.4648 16.6406 16.6957 16.6406 16.9805C16.6406 17.2652 16.8715 17.4961 17.1562 17.4961Z" fill="#141414"/>
<path d="M17.1562 19.6641H21.375C21.6598 19.6641 21.8906 19.4332 21.8906 19.1484C21.8906 18.8637 21.6598 18.6328 21.375 18.6328H17.1562C16.8715 18.6328 16.6406 18.8637 16.6406 19.1484C16.6406 19.4332 16.8715 19.6641 17.1562 19.6641Z" fill="#141414"/>
<path d="M17.1562 21.832H19.2656C19.5504 21.832 19.7812 21.6012 19.7812 21.3164C19.7812 21.0316 19.5504 20.8008 19.2656 20.8008H17.1562C16.8715 20.8008 16.6406 21.0316 16.6406 21.3164C16.6406 21.6012 16.8715 21.832 17.1562 21.832Z" fill="#141414"/>
</svg>
