<svg width="312" height="256" viewBox="0 0 312 256" fill="none" xmlns="http://www.w3.org/2000/svg">
<g filter="url(#filter0_d_1_228)">
<rect x="4" y="6" width="304" height="246" rx="31" fill="#55877E"/>
</g>
<g filter="url(#filter1_d_1_228)">
<rect x="4" y="4" width="304" height="239" rx="31" fill="white"/>
</g>
<g clip-path="url(#clip0_1_228)">
<path d="M78.77 200.693L82.4459 201.691L88.0362 187.955L82.6103 186.482L78.77 200.693Z" fill="#FFB6B6"/>
<path d="M77.6015 204.501L88.9065 207.57L88.9452 207.427C89.2612 206.257 89.1008 205.01 88.4991 203.959C87.8975 202.908 86.9039 202.139 85.737 201.822L85.7367 201.822L84.0961 199.692L79.8189 200.216L78.832 199.948L77.6015 204.501Z" fill="#2F2E41"/>
<path d="M104.153 203.89L107.961 203.89L109.773 189.166L104.152 189.167L104.153 203.89Z" fill="#FFB6B6"/>
<path d="M104.019 207.872L115.731 207.871V207.723C115.731 206.511 115.251 205.349 114.396 204.492C113.541 203.636 112.381 203.154 111.172 203.154H111.172L109.033 201.528L105.041 203.154L104.018 203.154L104.019 207.872Z" fill="#2F2E41"/>
<path d="M105.779 118.992L110.89 191.545L102.659 192.276L91.1759 138.506L92.4484 169.617L87.8908 194.086L80.9236 190.71L81.0394 165.231L71.8923 124.058L74.3269 118.992H105.779Z" fill="#2F2E41"/>
<path d="M73.0595 128.019L73.0085 127.947C70.2806 124.12 74.3833 114.922 75.0021 113.589C74.2673 113.35 73.6379 112.863 73.221 112.211C72.8042 111.56 72.6257 110.783 72.716 110.014L72.9827 107.742L73.2608 105.513L71.2688 103.516L71.2632 103.467L70.1169 93.4141L68.4501 86.7373C67.8221 84.2133 67.8756 81.5672 68.6052 79.0707C69.3347 76.5742 70.7141 74.3173 72.6015 72.5315L76.4542 71.9184L81.1364 67.3972H88.6869L91.2758 69.8761C96.1088 70.7256 96.939 70.4482 101.09 75.4409L99.2041 90.9631L98.7335 93.0985L98.7349 95.9948L99.9313 97.3273C100.362 97.8073 100.675 98.3815 100.846 99.0042C101.016 99.627 101.039 100.281 100.913 100.914L100.755 101.702C101.989 102.232 103.167 111.65 103.448 112.966L103.868 114.931C104.228 115.406 106.601 118.577 106.601 119.444C106.601 119.574 106.505 119.7 106.299 119.84C104.682 120.937 98.2349 128.722 94.2791 127.135C90.0654 125.447 73.3153 127.98 73.1466 128.006L73.0595 128.019Z" fill="#3F3D56"/>
<path d="M72.0451 109.969C72.0451 109.969 73.9841 98.9869 72.0307 94.8567L64.2814 95.4114L65.4607 111.079L72.235 128.475C72.1316 129.011 72.1716 129.565 72.3508 130.08C72.53 130.596 72.8422 131.054 73.2555 131.41C73.6689 131.765 74.1687 132.005 74.7043 132.104C75.2399 132.204 75.7922 132.159 76.3051 131.975C76.818 131.792 77.2732 131.475 77.6246 131.058C77.976 130.641 78.211 130.138 78.3058 129.601C78.4006 129.063 78.3518 128.51 78.1643 127.997C77.9768 127.485 77.6573 127.031 77.2383 126.682L72.0451 109.969Z" fill="#FFB6B6"/>
<path d="M64.2814 89.0319L64.761 83.7976C64.9415 81.8276 65.5089 79.9129 66.4304 78.1634C67.352 76.414 68.6096 74.8644 70.1309 73.6038C71.0761 72.8264 72.2195 72.3294 73.4318 72.169C74.644 72.0086 75.8769 72.1912 76.9911 72.6962C78.4968 73.391 79.6831 74.6328 80.3101 76.1706C80.9372 77.7084 80.9581 79.4275 80.3688 80.9802C78.5778 85.6879 79.2245 90.6663 75.7322 91.2733L76.1116 93.0824L72.6777 104.313L62.8976 103.178L64.2814 89.0319Z" fill="#3F3D56"/>
<path d="M102.69 124.864C102.347 125.288 102.123 125.796 102.039 126.335C101.955 126.875 102.016 127.427 102.214 127.935C102.412 128.444 102.741 128.891 103.167 129.231C103.593 129.571 104.101 129.792 104.64 129.871C105.179 129.951 105.729 129.886 106.235 129.683C106.741 129.481 107.184 129.148 107.52 128.718C107.856 128.288 108.072 127.777 108.147 127.236C108.222 126.696 108.153 126.145 107.947 125.639L111.189 107.25L109.282 91.6548L101.574 92.6326C100.466 97.0664 104.515 107.455 104.515 107.455L102.69 124.864Z" fill="#FFB6B6"/>
<path d="M112.157 98.9988L102.789 102.033L99.1815 96.3935L99.1999 94.5449C95.6565 94.6356 93.3612 84.9273 90.6845 80.6627C89.803 79.2558 89.4875 77.5659 89.8017 75.9348C90.1159 74.3036 91.0364 72.8529 92.3771 71.876C93.3709 71.162 94.5441 70.7408 95.7643 70.66C96.9844 70.5792 98.2028 70.842 99.2817 71.4187C101.02 72.3561 102.556 73.6287 103.802 75.1632C105.048 76.6978 105.978 78.464 106.541 80.3604L108.034 85.399L112.157 98.9988Z" fill="#3F3D56"/>
<path d="M84.4022 65.213C89.0334 65.213 92.7877 61.4504 92.7877 56.8091C92.7877 52.1677 89.0334 48.4052 84.4022 48.4052C79.771 48.4052 76.0168 52.1677 76.0168 56.8091C76.0168 61.4504 79.771 65.213 84.4022 65.213Z" fill="#FFB6B6"/>
<path d="M78.3167 62.7326C78.2435 62.6682 78.1744 62.5995 78.1029 62.5334C78.1003 62.5402 78.0999 62.5472 78.0972 62.5539L78.3167 62.7326Z" fill="#2F2E41"/>
<path d="M91.2741 47.9345C90.8574 47.2624 90.2803 46.7047 89.5949 46.312C89.1264 46.0843 88.6341 45.9095 88.127 45.7908L86.8 45.4279C86.12 45.217 85.4205 45.0759 84.7121 45.0066C83.7284 44.9579 82.7502 45.1812 81.8845 45.6519C81.0188 46.1226 80.2988 46.8226 79.8031 47.6756C79.4022 48.3883 79.0806 49.2764 78.3068 49.5372C77.6828 49.7475 77.0021 49.4509 76.3463 49.5084C75.962 49.5642 75.5974 49.7142 75.2848 49.9449C74.9722 50.1757 74.7212 50.4802 74.5541 50.8315C74.2273 51.5383 74.0664 52.3108 74.0839 53.0896C74.0581 54.8578 74.4025 56.6118 75.0947 58.2384C75.7869 59.865 76.8117 61.3282 78.1029 62.5334C78.3193 61.9617 77.9628 61.3444 77.681 60.7975C77.3959 60.2441 77.2197 59.4726 77.6973 59.074C78.2286 58.6305 79.08 59.0605 79.7084 58.7713C79.9095 58.6556 80.0788 58.4917 80.2013 58.2944C80.3238 58.0971 80.3956 57.8725 80.4103 57.6406C80.4711 57.1811 80.4076 56.714 80.4364 56.2513C80.4648 55.7954 80.5825 55.3495 80.7828 54.9391C80.9831 54.5287 81.2621 54.1619 81.6038 53.8596C81.9456 53.5573 82.3434 53.3254 82.7746 53.1771C83.2058 53.0289 83.6619 52.9672 84.1168 52.9957C84.1273 52.9963 84.1378 52.997 84.1482 52.9978C85.5786 53.1002 86.9668 54.0798 88.3434 53.6768C88.9895 53.4876 89.5406 53.006 90.2089 52.9249C90.949 52.8352 91.6453 53.2538 92.2737 53.6558C92.502 52.684 92.5312 51.6758 92.3594 50.6924C92.1875 49.709 91.8183 48.7707 91.2741 47.9345Z" fill="#2F2E41"/>
<path d="M135.093 203.15L132.959 199.714L132.533 201.677C132.458 202.021 132.383 202.371 132.314 202.718C131.708 202.199 131.063 201.719 130.432 201.259C128.495 199.85 126.558 198.439 124.623 197.026L125.229 200.549C125.602 202.718 125.993 204.931 126.917 206.914C127.019 207.139 127.13 207.361 127.249 207.577H136.255C136.327 207.376 136.378 207.168 136.404 206.956C136.407 206.942 136.408 206.928 136.407 206.914C136.548 205.569 135.807 204.301 135.093 203.15Z" fill="#F0F0F0"/>
<path d="M145.571 207.915L58.2927 208C58.2056 208 58.1222 207.965 58.0607 207.903C57.9993 207.841 57.9648 207.757 57.9648 207.67C57.9648 207.582 57.9993 207.499 58.0607 207.437C58.1222 207.375 58.2056 207.34 58.2927 207.339L145.571 207.254C145.658 207.255 145.741 207.29 145.803 207.352C145.864 207.413 145.899 207.497 145.899 207.584C145.899 207.672 145.864 207.756 145.803 207.817C145.741 207.879 145.658 207.914 145.571 207.915Z" fill="#CACACA"/>
<path d="M235.786 98.6419C235.767 108.351 232.125 117.703 225.575 124.857C219.025 132.011 210.042 136.452 200.392 137.305C190.741 138.158 181.121 135.362 173.423 129.467C165.725 123.571 160.505 115.004 158.791 105.447C157.077 95.8911 158.991 86.0377 164.158 77.8245C169.325 69.6112 177.371 63.6321 186.714 61.0626C196.056 58.4932 206.02 59.5193 214.647 63.9391C223.273 68.359 229.937 75.8529 233.33 84.9476C233.414 85.176 233.497 85.4044 233.577 85.635V85.6371C233.935 86.6507 234.251 87.6832 234.523 88.7345C235.365 91.9694 235.789 95.299 235.786 98.6419Z" fill="#3F3D56"/>
<path d="M192.447 72.227C190.691 71.2755 188.742 70.7384 186.748 70.6566C184.754 70.5749 182.767 70.9506 180.94 71.7552C179.331 72.4569 177.637 73.7157 177.1 75.9889C179.271 74.705 182.081 76.7335 182.64 79.9877L182.509 80.0237C182.214 82.2777 182.873 84.7317 184.148 86.1293C184.243 85.4987 184.476 84.8971 184.832 84.3684C185.188 83.8396 185.657 83.3969 186.204 83.0723C187.141 82.4552 188.178 82.0068 188.893 80.9459C189.74 79.6882 189.956 77.8501 190.292 76.1733C190.629 74.4965 191.268 72.6942 192.447 72.227Z" fill="#FF6400"/>
<path d="M180.296 91.4076C179.695 92.3125 178.892 92.8802 178.171 93.5871C177.34 94.3454 176.794 95.3678 176.626 96.4821C176.535 97.2695 176.676 98.0699 176.657 98.866C176.637 99.662 176.372 100.558 175.832 100.756C174.979 101.065 174.328 99.4772 173.451 99.3662C172.754 99.2792 172.127 100.378 172.329 101.33C172.531 102.283 173.479 102.705 174.024 102.083C174.517 102.912 174.169 104.415 173.429 104.669C173.351 105.191 173.273 105.711 173.197 106.233C171.326 104.921 169.436 103.588 167.845 101.667C166.076 99.5495 164.978 96.95 164.694 94.2026C164.488 91.9949 164.794 89.4696 163.782 87.7709C162.973 86.4115 161.584 86.1113 160.334 86.1961C160.106 86.2113 159.876 86.2375 159.648 86.2657C160.385 84.0466 161.321 81.899 162.445 79.8493C162.7 79.7398 162.936 79.5924 163.146 79.412C164.31 78.4224 164.826 76.4191 165.77 75.0336C165.831 74.9444 165.894 74.8574 165.959 74.7726C166.925 73.5089 168.218 72.8585 169.468 72.2538C172.236 70.9075 175.083 69.5437 178.004 69.7308L177.173 69.8112C176.203 72.5344 175.232 75.2576 174.26 77.9808C174.113 78.3984 173.964 78.8168 173.813 79.2359C173.262 80.7845 172.694 82.4332 172.778 84.1668C172.828 85.1934 173.184 86.2897 173.861 86.642C174.493 86.9683 175.183 86.5681 175.793 86.1722C176.051 86.0069 176.307 85.8416 176.565 85.6741C177.492 85.0759 178.519 84.4626 179.497 84.8628C180.394 85.2282 181.056 86.4484 181.182 87.7643C181.297 89.0435 180.986 90.3249 180.296 91.4076Z" fill="#FF6400"/>
<path d="M185.808 110C183.101 108.329 180.395 106.659 177.688 104.989L177.734 104.871C176.051 105.513 175.352 108.511 175.631 110.962C175.909 113.414 176.852 115.606 177.328 117.995C177.97 121.264 177.728 124.645 176.626 127.789C180.185 123.787 183.335 119.437 186.028 114.805C186.404 114.221 186.691 113.584 186.878 112.915C187.077 112.202 187.006 111.441 186.679 110.777C186.458 110.449 186.158 110.182 185.808 110Z" fill="#FF6400"/>
<path d="M175.126 79.6148C174.808 80.2987 174.759 81.0775 174.989 81.796C175.256 82.3749 175.74 82.8246 176.337 83.0471L177.832 83.79C178.33 84.0372 178.866 84.2868 179.373 84.0835C179.985 83.8382 180.409 82.877 180.299 81.9847C180.182 81.0352 179.585 80.3821 179.033 79.8259C178.26 79.0475 177.487 78.2692 176.714 77.4908L176.279 78.0256C175.807 78.4861 175.418 79.0235 175.126 79.6148Z" fill="#FF6400"/>
<path d="M227.769 89.7655C228.442 89.9242 229.115 90.083 229.788 90.2418C229.671 92.5191 228.544 94.6268 227.034 95.3902C226.404 95.7078 225.703 95.8252 225.182 96.419C224.711 96.9584 224.473 97.798 224.253 98.6006C223.869 100.001 223.485 101.402 223.101 102.803C222.689 104.312 222.159 105.989 221.087 106.533C220.167 107.001 219.114 106.429 218.407 105.469C217.699 104.51 217.267 103.22 216.848 101.963C216.874 103.334 216.239 104.678 215.338 105.154C214.435 105.63 213.337 105.2 212.733 104.136C212.299 103.373 212.119 102.366 211.694 101.591C211.269 100.817 210.377 100.373 209.912 101.1C209.606 101.583 209.645 102.322 209.493 102.936C209.417 103.343 209.216 103.716 208.918 104.003C208.62 104.291 208.24 104.478 207.831 104.539C207.455 104.53 207.084 104.445 206.742 104.288C206.4 104.131 206.093 103.906 205.841 103.627C204.512 102.265 203.646 100.516 203.369 98.631C203.18 97.7273 203.204 96.7921 203.438 95.8991C203.705 95.0531 204.35 94.4006 204.99 94.5615C205.411 93.6697 204.58 92.4864 203.831 92.5909C203.08 92.6953 202.492 93.5022 201.875 94.1221C201.261 94.742 200.402 95.1922 199.783 94.5767C199.797 94.8018 199.721 95.0233 199.572 95.1923C199.423 95.3613 199.213 95.464 198.988 95.4779C198.966 95.4793 198.944 95.4797 198.922 95.4794C198.51 95.361 198.128 95.1581 197.8 94.8834C196.382 93.9981 194.583 94.5854 193.576 96.2602C194.206 93.5761 195.128 90.4962 197.062 89.8655C197.852 89.6066 198.713 89.8198 199.46 89.3717C200.782 88.5778 201.049 85.5784 199.907 84.3408C200.052 85.511 200.024 86.8769 199.408 87.6774C198.791 88.4778 197.498 87.9557 197.576 86.7725C197.559 86.9389 197.489 87.0955 197.377 87.2199C197.265 87.3442 197.117 87.4299 196.954 87.4646C196.791 87.4994 196.62 87.4815 196.468 87.4134C196.315 87.3453 196.188 87.2306 196.105 87.0857C195.694 86.4593 195.729 85.4349 196.02 84.6866C196.32 84.0089 196.75 83.397 197.285 82.8857C198.316 81.7786 199.362 80.6584 200.556 79.9624C201.752 79.2663 203.132 79.0314 204.33 79.7231C204.962 80.0885 205.517 80.6976 206.162 81.0195C206.313 81.1137 206.482 81.177 206.658 81.206C206.834 81.2349 207.014 81.2288 207.187 81.1881C207.361 81.1473 207.524 81.0727 207.669 80.9685C207.814 80.8643 207.937 80.7326 208.031 80.5808C208.038 80.569 208.045 80.5572 208.052 80.5453C208.532 79.7013 208.306 78.4485 208.484 77.3936C208.803 75.5296 210.663 74.6573 211.694 75.8884C210.924 75.6905 210.127 76.604 210.031 77.7112C209.934 78.8183 210.492 79.9363 211.238 80.2712C212.493 80.828 213.721 79.4273 214.669 78.131C215.659 76.7737 216.65 75.4172 217.643 74.0614C217.801 73.8305 217.979 73.6137 218.174 73.4132C218.485 73.1096 218.9 72.9357 219.334 72.9268C219.768 72.9179 220.189 73.0747 220.512 73.3654C221.515 74.1854 221.985 75.8667 222.808 77.0238C224.002 78.7052 225.788 79.1141 227.45 79.4404C228.69 79.6818 229.93 79.9247 231.17 80.169C231.997 81.711 232.719 83.3076 233.33 84.9477C231.055 85.9874 229.125 87.6595 227.769 89.7655Z" fill="#FF6400"/>
<path d="M234.523 88.7345C234.269 89.4856 234.13 90.271 234.111 91.064C233.047 89.7633 232.878 87.325 233.577 85.6371C233.935 86.6507 234.251 87.6832 234.523 88.7345Z" fill="#FF6400"/>
<path d="M231.776 115.936C230.846 117.828 229.764 119.642 228.542 121.358C227.761 121.023 226.921 121.622 226.189 122.183C225.425 122.77 224.507 123.342 223.724 122.807C222.923 122.259 222.665 120.726 222.919 119.51C223.211 118.388 223.721 117.335 224.421 116.412C225.072 115.438 225.768 114.426 226.673 114.048C227.581 113.67 228.746 114.205 229.011 115.497L229.653 115.475C229.293 114.979 229.482 113.952 229.966 113.772C230.523 113.561 231.007 114.329 231.337 115.007C231.485 115.314 231.635 115.623 231.776 115.936Z" fill="#FF6400"/>
<path d="M207.172 106.749C205.791 106.836 204.697 105.132 203.971 103.456C203.244 101.78 202.581 99.8635 201.335 99.0105C200.623 98.523 199.811 98.4562 199.039 98.2199C198.601 98.1091 198.196 97.8952 197.857 97.596C197.518 97.2969 197.255 96.921 197.089 96.4997L196.213 96.1451C194.988 96.7589 193.866 97.5607 192.888 98.5216C191.77 99.7117 191.074 101.237 190.906 102.863C190.739 104.62 191.357 106.58 192.511 107.24C193.424 107.761 194.486 107.433 195.41 107.91C196.564 108.507 197.25 110.239 197.509 111.95C197.768 113.661 197.703 115.44 197.888 117.17C198.074 118.9 198.586 120.701 199.644 121.588C200.969 122.698 202.913 121.775 203.508 119.755C203.799 118.765 203.789 117.646 204.007 116.618C204.391 114.807 205.428 113.463 206.25 111.977C207.072 110.491 207.719 108.473 207.172 106.749Z" fill="#FF6400"/>
<path d="M193.527 88.9496C193.656 89.0684 193.776 89.1963 193.887 89.3322C194.002 89.5301 194.06 89.7555 194.056 89.9842C194.052 90.2129 193.986 90.4363 193.865 90.6301C194.031 90.6206 194.194 90.5767 194.342 90.501C194.491 90.4254 194.622 90.3197 194.728 90.1906C194.98 89.9029 195.201 89.59 195.389 89.2567C195.478 89.1425 195.541 89.0108 195.574 88.8704C195.608 88.7299 195.611 88.5839 195.584 88.442C195.519 88.2554 195.365 88.1758 195.257 88.0355C195.107 87.7612 195.005 87.4633 194.954 87.1546C194.894 86.8653 194.755 86.5985 194.552 86.3841C194.349 86.1698 194.09 86.0164 193.805 85.9412L193.875 85.9545C193.757 86.0245 193.664 86.1298 193.609 86.2554C193.553 86.3811 193.539 86.5209 193.567 86.6552C193.609 86.9266 193.783 87.152 193.766 87.4288C193.741 87.8269 193.344 88.0137 193.319 88.4118C193.315 88.6115 193.39 88.8047 193.527 88.9496Z" fill="#FF6400"/>
<path d="M191.162 82.1851L191.168 82.1839C191.21 82.1451 191.25 82.103 191.286 82.0581L191.162 82.1851Z" fill="#FF6400"/>
<path d="M191.576 84.0536C191.742 83.9077 191.864 83.719 191.93 83.508C191.996 83.2971 192.003 83.0719 191.951 82.8572C191.85 82.4046 191.495 82.1003 191.168 82.1839C191.073 82.2804 190.955 82.3512 190.825 82.3894C190.695 82.4277 190.558 82.4323 190.426 82.4028C190.223 82.3506 190.001 82.216 189.826 82.3689C189.725 82.4831 189.655 82.6206 189.621 82.7691C189.556 82.969 189.491 83.169 189.426 83.3689C189.395 83.4405 189.387 83.5198 189.403 83.5962C189.415 83.6268 189.436 83.6536 189.461 83.6742C189.487 83.6948 189.518 83.7083 189.55 83.7136C189.94 83.8288 190.33 83.944 190.72 84.0592C190.855 84.1212 191.001 84.1528 191.149 84.1519C191.296 84.1509 191.442 84.1173 191.576 84.0536Z" fill="#FF6400"/>
<path d="M221.014 109.85C220.834 109.554 220.654 109.258 220.473 108.962C220.296 108.62 220.054 108.315 219.761 108.066C219.697 108.012 219.624 107.972 219.545 107.947C219.466 107.922 219.382 107.913 219.3 107.921C219.217 107.928 219.137 107.951 219.063 107.99C218.99 108.028 218.924 108.081 218.871 108.145L218.862 108.156L218.884 108.325C219.366 108.844 219.695 109.487 219.834 110.182C219.875 110.484 219.86 110.797 219.896 111.101C219.9 111.242 219.932 111.38 219.989 111.509C220.046 111.637 220.128 111.753 220.23 111.85C220.514 112.04 220.847 111.76 221.049 111.418C221.23 111.137 221.311 110.804 221.279 110.471C221.234 110.248 221.144 110.036 221.014 109.85Z" fill="#FF6400"/>
<path d="M223.842 110.235C223.876 109.958 223.854 109.677 223.776 109.409C223.763 109.046 223.859 108.688 224.051 108.381C224.242 108.091 224.387 107.773 224.48 107.439C224.519 107.286 224.512 107.126 224.459 106.977C224.4 106.843 224.255 106.782 224.172 106.888L224.35 107.003C224.11 106.96 223.864 106.972 223.63 107.038C223.496 107.089 223.377 107.172 223.282 107.279C223.187 107.386 223.119 107.515 223.084 107.654C223.055 107.871 223.007 108.085 222.941 108.294C222.835 108.512 222.63 108.584 222.502 108.775C222.414 108.945 222.37 109.134 222.373 109.325C222.376 109.516 222.426 109.703 222.52 109.87C222.681 110.142 222.938 110.345 223.241 110.438C223.457 110.516 223.743 110.52 223.842 110.235Z" fill="#FF6400"/>
<path d="M228.877 111.757C228.956 111.962 229.061 112.155 229.189 112.331C229.43 112.575 229.758 112.425 230.051 112.366C230.316 112.324 230.588 112.355 230.837 112.455C231.086 112.555 231.304 112.721 231.467 112.935C231.354 112.368 231.106 111.837 230.745 111.386C230.384 110.935 229.921 110.577 229.393 110.343C228.708 110.105 227.986 109.992 227.261 110.008L227.137 110.04C227.453 110.961 228.444 110.94 228.877 111.757Z" fill="#FF6400"/>
<path d="M207.55 113.64L207.551 113.644L207.588 113.575L207.55 113.64Z" fill="#FF6400"/>
<path d="M206.786 115.122C206.619 115.425 206.476 115.741 206.357 116.066C206.2 116.592 206.096 117.133 206.047 117.68C206.008 117.991 205.996 118.389 206.19 118.54C206.246 118.578 206.314 118.593 206.38 118.584C206.446 118.575 206.507 118.542 206.551 118.491C206.659 118.377 206.748 118.245 206.813 118.102C207.195 117.442 207.492 116.736 207.696 116.001C207.909 115.221 207.858 114.392 207.551 113.644C207.296 114.137 207.041 114.63 206.786 115.122Z" fill="#FF6400"/>
<path d="M199.416 75.6412C199.538 75.76 199.691 75.8407 199.857 75.8733C200.024 75.9059 200.196 75.8889 200.353 75.8245C200.679 75.682 200.977 75.4845 201.235 75.2407C201.449 75.082 201.631 74.8836 201.77 74.6562C201.847 74.5203 201.896 74.3706 201.915 74.2156C201.933 74.0606 201.921 73.9035 201.879 73.7532C201.82 73.6091 201.724 73.4828 201.602 73.386C201.48 73.2892 201.335 73.2253 201.182 73.2001C200.749 73.0715 200.316 72.9428 199.883 72.8142L200.196 72.5314C199.874 72.3581 199.518 72.6797 199.317 73.0778C199.187 73.3378 199.097 73.6155 199.049 73.9018C198.981 74.2011 198.978 74.5116 199.042 74.812C199.105 75.1123 199.233 75.3953 199.416 75.6412Z" fill="#FF6400"/>
<path d="M207.058 73.0702C207.18 73.2049 207.348 73.2882 207.529 73.3029C207.71 73.3177 207.89 73.2629 208.032 73.1496C208.155 73.0575 208.256 72.9407 208.33 72.8066C208.405 72.6725 208.45 72.5243 208.463 72.3716C208.494 72.0303 208.326 71.6511 208.085 71.6216L208.14 71.3022C207.677 71.2183 207.107 71.2016 206.859 71.7652C206.775 71.9812 206.749 72.2153 206.784 72.4443C206.819 72.6733 206.913 72.8891 207.058 73.0702Z" fill="#FF6400"/>
<g opacity="0.35">
<path d="M280.331 100.571C282.887 99.4539 277.703 98.8038 271.822 98.59C265.942 98.3762 258.827 98.388 255.069 97.78C251.434 97.1919 251.702 96.1463 251.396 95.199C251.091 94.2516 249.693 93.2802 244.022 93.0696C236.954 92.8072 225.299 93.8173 219.964 93.2109C214.985 92.645 217.945 90.8698 210.685 90.8018C206.539 90.763 201.198 91.3483 196.585 91.4895C193.315 91.6317 190.04 91.4605 186.802 90.9784C184.554 90.6092 182.988 90.1411 180.457 89.815C173.814 88.9589 160.816 89.2467 149.215 90.3439C137.614 91.4412 127.67 93.2394 122.062 95.0204C116.453 96.8014 114.904 98.5549 116.21 100.042C117.045 100.991 119.179 101.879 124.357 102.261C134.043 102.974 151.287 101.746 161.295 102.395C166.873 102.757 169.348 103.654 174.242 104.145C179.5 104.673 187.197 104.701 194.759 104.688C210.505 104.662 226.654 104.5 243.121 104.203C249.999 104.079 257.205 103.917 264.524 103.325C271.842 102.733 279.307 101.591 280.851 100.521" fill="white"/>
</g>
<path d="M235.894 149.902C232.32 149.902 228.403 149.767 224.143 149.496C202.11 148.094 173.569 143.218 143.779 135.768C113.989 128.318 86.5091 119.183 66.401 110.047C56.6058 105.596 49.088 101.383 44.0567 97.5241C38.7299 93.4393 36.3999 89.8787 37.1311 86.9417C38.5559 81.2199 51.1714 79.9681 61.5037 79.9255L61.5072 80.7576C47.3182 80.816 38.9475 83.0839 37.9368 87.1432C36.6494 92.3134 47.1492 100.385 66.7439 109.289C86.8077 118.405 114.237 127.523 143.98 134.961C173.723 142.399 202.211 147.266 224.196 148.665C245.667 150.032 258.72 147.851 260.007 142.68C261.076 138.388 254.03 132.064 240.167 124.874L240.548 124.135C250.621 129.359 262.314 136.853 260.813 142.882C260.082 145.819 256.356 147.865 249.738 148.963C245.966 149.588 241.333 149.902 235.894 149.902Z" fill="#FF6400"/>
<path d="M99.5467 150.985C89.6943 150.986 80.5349 150.647 72.3351 149.963C61.6171 149.069 53.1239 147.632 47.0917 145.693C40.705 143.639 37.3167 141.07 37.0209 138.057C36.4444 132.188 47.907 126.761 57.6244 123.242L57.9065 124.025C44.5621 128.858 37.4382 133.812 37.8471 137.976C38.3679 143.279 50.9634 147.346 72.4038 149.134C94.3579 150.964 123.249 150.316 153.757 147.306C184.264 144.297 212.727 139.288 233.904 133.203C254.585 127.26 266.148 120.81 265.627 115.507C265.194 111.104 256.438 107.521 240.97 105.417L241.081 104.592C252.321 106.121 265.846 109.241 266.453 115.426C266.749 118.438 263.925 121.62 258.061 124.882C252.522 127.963 244.471 131.032 234.133 134.003C212.909 140.102 184.394 145.12 153.838 148.134C134.67 150.025 116.131 150.985 99.5467 150.985Z" fill="#FF6400"/>
<path d="M158.179 168.561C160.851 168.561 163.017 166.39 163.017 163.712C163.017 161.034 160.851 158.862 158.179 158.862C155.506 158.862 153.34 161.034 153.34 163.712C153.34 166.39 155.506 168.561 158.179 168.561Z" fill="#FF6400"/>
<path d="M62.8976 139.931C65.5699 139.931 67.7362 137.76 67.7362 135.082C67.7362 132.404 65.5699 130.233 62.8976 130.233C60.2253 130.233 58.059 132.404 58.059 135.082C58.059 137.76 60.2253 139.931 62.8976 139.931Z" fill="#E6E6E6"/>
<path d="M151.737 65.6015C153.373 65.6015 154.699 64.2724 154.699 62.633C154.699 60.9935 153.373 59.6645 151.737 59.6645C150.101 59.6645 148.775 60.9935 148.775 62.633C148.775 64.2724 150.101 65.6015 151.737 65.6015Z" fill="#FF6584"/>
<path d="M133.816 88.0102C136.488 88.0102 138.655 85.8391 138.655 83.161C138.655 80.4828 136.488 78.3117 133.816 78.3117C131.144 78.3117 128.977 80.4828 128.977 83.161C128.977 85.8391 131.144 88.0102 133.816 88.0102Z" fill="#E6E6E6"/>
</g>
<defs>
<filter id="filter0_d_1_228" x="0" y="2" width="312" height="254" filterUnits="userSpaceOnUse" color-interpolation-filters="sRGB">
<feFlood flood-opacity="0" result="BackgroundImageFix"/>
<feColorMatrix in="SourceAlpha" type="matrix" values="0 0 0 0 0 0 0 0 0 0 0 0 0 0 0 0 0 0 127 0" result="hardAlpha"/>
<feOffset/>
<feGaussianBlur stdDeviation="2"/>
<feComposite in2="hardAlpha" operator="out"/>
<feColorMatrix type="matrix" values="0 0 0 0 0 0 0 0 0 0 0 0 0 0 0 0 0 0 0.25 0"/>
<feBlend mode="normal" in2="BackgroundImageFix" result="effect1_dropShadow_1_228"/>
<feBlend mode="normal" in="SourceGraphic" in2="effect1_dropShadow_1_228" result="shape"/>
</filter>
<filter id="filter1_d_1_228" x="0" y="0" width="312" height="247" filterUnits="userSpaceOnUse" color-interpolation-filters="sRGB">
<feFlood flood-opacity="0" result="BackgroundImageFix"/>
<feColorMatrix in="SourceAlpha" type="matrix" values="0 0 0 0 0 0 0 0 0 0 0 0 0 0 0 0 0 0 127 0" result="hardAlpha"/>
<feOffset/>
<feGaussianBlur stdDeviation="2"/>
<feComposite in2="hardAlpha" operator="out"/>
<feColorMatrix type="matrix" values="0 0 0 0 0 0 0 0 0 0 0 0 0 0 0 0 0 0 0.25 0"/>
<feBlend mode="normal" in2="BackgroundImageFix" result="effect1_dropShadow_1_228"/>
<feBlend mode="normal" in="SourceGraphic" in2="effect1_dropShadow_1_228" result="shape"/>
</filter>
<clipPath id="clip0_1_228">
<rect width="244" height="163" fill="white" transform="translate(37 45)"/>
</clipPath>
</defs>
</svg>
