<svg width="23" height="25" viewBox="0 0 23 25" fill="none" xmlns="http://www.w3.org/2000/svg">
<path d="M12.155 20.2256H9.81921C9.4309 20.2256 9.11609 20.5404 9.11609 20.9287C9.11609 21.317 9.4309 21.6318 9.81921 21.6318H12.155C12.5433 21.6318 12.8581 21.317 12.8581 20.9287C12.8581 20.5404 12.5433 20.2256 12.155 20.2256Z" fill="black"/>
<path d="M22.7187 3.37229L19.9962 0.650258C19.8644 0.518398 19.6855 0.444336 19.4991 0.444336H13.7996C13.4112 0.444336 13.0964 0.759148 13.0964 1.14746V3.25684H5.74784C4.49557 3.25684 3.47675 4.27562 3.47675 5.52793V22.1732C3.47675 23.4256 4.49553 24.4443 5.74784 24.4443H16.2057C17.458 24.4443 18.4767 23.4256 18.4767 22.1732V12.022H22.2216C22.6099 12.022 22.9247 11.7072 22.9247 11.3189V3.86949C22.9247 3.68302 22.8506 3.50415 22.7187 3.37229ZM14.5027 1.85059H19.2079L21.5185 4.16077V6.06934H14.5027V1.85059ZM17.3152 10.6157V7.47559H18.7214V10.6157H17.3152ZM14.5027 7.47559H15.9089V10.6157H14.5027V7.47559ZM5.74784 4.66309H13.0964V6.06934H4.883V5.52793C4.883 5.05102 5.27098 4.66309 5.74784 4.66309ZM17.0705 22.1732C17.0705 22.6501 16.6826 23.0381 16.2057 23.0381H5.74784C5.27098 23.0381 4.883 22.6501 4.883 22.1732V7.47559H13.0964V11.3189C13.0964 11.7072 13.4112 12.022 13.7996 12.022H17.0705V22.1732ZM20.1277 10.6157V7.47559H21.5185V10.6157H20.1277Z" fill="black"/>
<path d="M4.62773 1.90659C5.00738 1.87354 5.29284 1.54293 5.26809 1.16071C5.24302 0.773152 4.90809 0.479012 4.521 0.504465C4.49995 0.505824 4.48027 0.50784 4.45964 0.510418C2.03944 0.808918 0.302859 3.0217 0.588562 5.44307C0.63075 5.80078 0.934453 6.06384 1.28597 6.06384C1.31344 6.06384 1.34128 6.06225 1.36922 6.05896C1.75486 6.01345 2.03058 5.66395 1.98511 5.27831C1.79006 3.62489 2.97441 2.11368 4.62773 1.90659Z" fill="black"/>
<path d="M7.0069 21.6318C7.39522 21.6318 7.71002 21.317 7.71002 20.9287C7.71002 20.5404 7.39522 20.2256 7.0069 20.2256C6.61857 20.2256 6.30377 20.5404 6.30377 20.9287C6.30377 21.317 6.61857 21.6318 7.0069 21.6318Z" fill="black"/>
<path d="M14.9756 21.6318C15.364 21.6318 15.6788 21.317 15.6788 20.9287C15.6788 20.5404 15.364 20.2256 14.9756 20.2256C14.5873 20.2256 14.2725 20.5404 14.2725 20.9287C14.2725 21.317 14.5873 21.6318 14.9756 21.6318Z" fill="black"/>
</svg>
