<svg width="25" height="25" viewBox="0 0 25 25" fill="none" xmlns="http://www.w3.org/2000/svg">
<g clip-path="url(#clip0_250_254)">
<path d="M12.9356 20.5767H10.5998C10.2115 20.5767 9.89667 20.8915 9.89667 21.2798C9.89667 21.6681 10.2115 21.9829 10.5998 21.9829H12.9356C13.3239 21.9829 13.6387 21.6681 13.6387 21.2798C13.6387 20.8915 13.3239 20.5767 12.9356 20.5767Z" fill="black"/>
<path d="M23.4993 3.72336L20.7768 1.00133C20.645 0.869473 20.4661 0.79541 20.2797 0.79541H14.5801C14.1918 0.79541 13.877 1.11022 13.877 1.49854V3.60791H6.52842C5.27615 3.60791 4.25732 4.62669 4.25732 5.879V22.5243C4.25732 23.7766 5.27611 24.7954 6.52842 24.7954H16.9862C18.2385 24.7954 19.2573 23.7766 19.2573 22.5243V12.3731H23.0022C23.3905 12.3731 23.7053 12.0583 23.7053 11.6699V4.22057C23.7053 4.0341 23.6312 3.85522 23.4993 3.72336ZM15.2833 2.20166H19.9884L22.299 4.51185V6.42041H15.2833V2.20166ZM18.0958 10.9668V7.82666H19.502V10.9668H18.0958ZM15.2833 7.82666H16.6895V10.9668H15.2833V7.82666ZM6.52842 5.01416H13.877V6.42041H5.66357V5.879C5.66357 5.4021 6.05156 5.01416 6.52842 5.01416ZM17.8511 22.5243C17.8511 23.0012 17.4631 23.3892 16.9862 23.3892H6.52842C6.05156 23.3892 5.66357 23.0012 5.66357 22.5243V7.82666H13.877V11.6699C13.877 12.0583 14.1918 12.3731 14.5801 12.3731H17.8511V22.5243ZM20.9083 10.9668V7.82666H22.299V10.9668H20.9083Z" fill="black"/>
<path d="M5.40831 2.25766C5.78795 2.22462 6.07342 1.89401 6.04867 1.51179C6.02359 1.12423 5.68867 0.830086 5.30158 0.855539C5.28053 0.856898 5.26084 0.858914 5.24022 0.861492C2.82002 1.15999 1.08344 3.37277 1.36914 5.79415C1.41133 6.15185 1.71503 6.41491 2.06655 6.41491C2.09402 6.41491 2.12186 6.41332 2.1498 6.41004C2.53544 6.36452 2.81116 6.01502 2.76569 5.62938C2.57064 3.97596 3.75498 2.46476 5.40831 2.25766Z" fill="black"/>
<path d="M7.78748 21.9829C8.1758 21.9829 8.4906 21.6681 8.4906 21.2798C8.4906 20.8915 8.1758 20.5767 7.78748 20.5767C7.39915 20.5767 7.08435 20.8915 7.08435 21.2798C7.08435 21.6681 7.39915 21.9829 7.78748 21.9829Z" fill="black"/>
<path d="M15.7562 21.9829C16.1446 21.9829 16.4594 21.6681 16.4594 21.2798C16.4594 20.8915 16.1446 20.5767 15.7562 20.5767C15.3679 20.5767 15.0531 20.8915 15.0531 21.2798C15.0531 21.6681 15.3679 21.9829 15.7562 21.9829Z" fill="black"/>
</g>
<defs>
<clipPath id="clip0_250_254">
<rect width="24" height="24" fill="white" transform="translate(0.521851 0.79541)"/>
</clipPath>
</defs>
</svg>
