<svg width="32" height="31" viewBox="0 0 32 31" fill="none" xmlns="http://www.w3.org/2000/svg">
<g clip-path="url(#clip0_241_433)">
<path d="M16 11.6735C13.822 11.6735 12.05 13.39 12.05 15.5C12.05 17.297 13.3357 18.8079 15.0625 19.2168V30.0918C15.0625 30.5933 15.4823 31 16 31C16.5178 31 16.9375 30.5933 16.9375 30.0918V19.2168C18.6644 18.8079 19.95 17.2971 19.95 15.5C19.95 13.39 18.1781 11.6735 16 11.6735Z" fill="black"/>
<path d="M16 5.83667C10.4998 5.83667 6.02502 10.1716 6.02502 15.4999C6.02502 18.2451 7.23677 20.8704 9.34946 22.7024C9.73521 23.0369 10.3278 23.0052 10.6733 22.6314C11.0185 22.2577 10.9858 21.6835 10.6 21.349C8.88415 19.8611 7.90002 17.7292 7.90002 15.4999C7.90002 11.1732 11.5337 7.65308 16 7.65308C20.4664 7.65308 24.1001 11.1732 24.1001 15.4999C24.1001 17.7292 23.1159 19.8611 21.3999 21.349C21.0141 21.6835 20.9813 22.2577 21.3266 22.6315C21.5118 22.8319 21.768 22.934 22.0255 22.934C22.2481 22.934 22.4715 22.8576 22.6504 22.7025C24.7633 20.8705 25.9751 18.2451 25.9751 15.4999C25.9751 10.1716 21.5003 5.83667 16 5.83667Z" fill="black"/>
<path d="M27.3137 4.53987C24.2917 1.6123 20.2738 0 16 0C11.7262 0 7.70825 1.6123 4.68619 4.53987C1.66431 7.46749 0 11.3598 0 15.4999C0 21.664 3.76812 27.2419 9.59975 29.71C10.0744 29.9108 10.6269 29.701 10.8341 29.2414C11.0414 28.7817 10.8249 28.2463 10.3504 28.0455C5.20181 25.8664 1.875 20.942 1.875 15.4999C1.875 7.95483 8.21144 1.81641 16 1.81641C23.7886 1.81641 30.125 7.95483 30.125 15.4999C30.125 20.9419 26.7983 25.8663 21.6497 28.0456C21.1753 28.2464 20.9588 28.7818 21.1661 29.2414C21.32 29.5827 21.6643 29.7862 22.0256 29.7862C22.1509 29.7862 22.2783 29.7617 22.4005 29.71C28.2319 27.2417 32 21.6639 32 15.4999C32 11.3598 30.3357 7.46749 27.3137 4.53987Z" fill="black"/>
</g>
<defs>
<clipPath id="clip0_241_433">
<rect width="32" height="31" fill="white"/>
</clipPath>
</defs>
</svg>
