<svg width="40" height="40" viewBox="0 0 40 40" fill="none" xmlns="http://www.w3.org/2000/svg">
<g clip-path="url(#clip0_1222_2772)">
<path d="M9.45171 0C6.86618 0 4.76367 2.10251 4.76367 4.68804C4.76367 7.27357 6.86618 9.45421 9.45171 9.45421C12.0372 9.45421 14.1398 7.27357 14.1398 4.68804C14.1398 2.10251 12.0372 0 9.45171 0Z" fill="#004346"/>
<path d="M35.2335 4.68804C35.2335 2.10251 33.131 0 30.5455 0C27.9599 0 25.8574 2.10251 25.8574 4.68804C25.8574 7.27357 27.9599 9.45421 30.5455 9.45421C33.131 9.45421 35.2335 7.27357 35.2335 4.68804Z" fill="#004346"/>
<path d="M13.6855 35.5572C16.4136 37.8463 17.0852 38.4911 17.8153 39.1119C18.5112 39.7036 19.3799 40.0001 20.2486 40.0001C21.1254 40.0001 22.0021 39.6979 22.698 39.0959C23.9693 37.9953 25.347 36.7254 26.5862 35.6391C25.921 35.4156 25.2945 35.0589 24.7719 34.5358C23.3803 33.1458 22.9937 31.0402 23.8734 29.1973C21.4836 27.9322 18.519 27.9355 16.1279 29.2026C17.0034 31.0433 16.6175 33.1465 15.2253 34.5369C14.7739 34.9882 14.2485 35.3287 13.6855 35.5572Z" fill="#004346"/>
<path d="M19.9983 23.5184C21.2929 23.5184 22.3423 22.4689 22.3423 21.1743C22.3423 19.8798 21.2929 18.8303 19.9983 18.8303C18.7038 18.8303 17.6543 19.8798 17.6543 21.1743C17.6543 22.4689 18.7038 23.5184 19.9983 23.5184Z" fill="#004346"/>
<path d="M19.9988 15.0212C18.3942 12.1301 15.6244 9.62703 11.6963 9.62703C6.29406 9.62703 2.2207 14.0061 2.2207 19.8123C2.2207 24.9412 5.709 28.7019 11.222 33.4595C12.0335 33.7034 12.943 33.5025 13.5689 32.8783C14.5293 31.9203 14.4515 30.3606 13.4739 29.4721C8.44244 24.9008 6.90882 22.7733 6.90882 20.3904H9.25284C9.25284 21.867 10.6931 23.734 14.6448 27.3606C17.9045 25.4478 22.0946 25.4519 25.3531 27.3607C29.3047 23.7341 30.7451 21.867 30.7451 20.3904H33.0891C33.0891 22.7733 31.5554 24.9008 26.5241 29.4721C25.5519 30.3557 25.4641 31.9157 26.4279 32.8771C27.2183 33.6653 28.4485 33.7541 29.3745 33.1519C35.2366 27.8112 37.7772 24.498 37.7772 19.8122C37.7772 14.0059 33.7038 9.62695 28.3016 9.62695C24.3721 9.62703 21.6035 12.1301 19.9988 15.0212ZM24.6869 21.1743C24.6869 23.7598 22.5844 25.8623 19.9988 25.8623C17.4133 25.8623 15.3108 23.7598 15.3108 21.1743C15.3108 18.5888 17.4133 16.4863 19.9988 16.4863C22.5844 16.4863 24.6869 18.5888 24.6869 21.1743Z" fill="#004346"/>
</g>
<defs>
<clipPath id="clip0_1222_2772">
<rect width="40" height="40" fill="white"/>
</clipPath>
</defs>
</svg>
