<svg width="31" height="24" viewBox="0 0 31 24" fill="none" xmlns="http://www.w3.org/2000/svg">
<g clip-path="url(#clip0_1406_1272)">
<path d="M9.92708 17.5837C13.8391 17.5837 17.0104 14.4123 17.0104 10.5003C17.0104 6.58831 13.8391 3.41699 9.92708 3.41699C6.01507 3.41699 2.84375 6.58831 2.84375 10.5003C2.84375 14.4123 6.01507 17.5837 9.92708 17.5837Z" stroke="#004346" stroke-width="1.41667" stroke-linecap="round" stroke-linejoin="round"/>
<path d="M9.89974 3.41699C8.08091 5.32677 7.06641 7.86302 7.06641 10.5003C7.06641 13.1376 8.08091 15.6739 9.89974 17.5837C11.7186 15.6739 12.7331 13.1376 12.7331 10.5003C12.7331 7.86302 11.7186 5.32677 9.89974 3.41699Z" stroke="#004346" stroke-width="1.41667" stroke-linecap="round" stroke-linejoin="round"/>
<path d="M2.84375 10.5004H17.0104" stroke="#004346" stroke-width="1.41667" stroke-linecap="round" stroke-linejoin="round"/>
</g>
<defs>
<clipPath id="clip0_1406_1272">
<rect width="20" height="20" fill="white" transform="translate(0.410156)"/>
</clipPath>
</defs>
</svg>
