<svg width="20" height="20" viewBox="0 0 20 20" fill="none" xmlns="http://www.w3.org/2000/svg">
<path d="M16.3333 3.6667C14.8082 2.15079 12.7883 1.23464 10.6432 1.08585C8.49798 0.937066 6.37095 1.56558 4.65117 2.85642C2.9314 4.14727 1.73386 6.01414 1.27763 8.1155C0.821402 10.2169 1.13699 12.4123 2.16665 14.3C2.18571 14.3539 2.18571 14.4128 2.16665 14.4667L1.50832 16.6667C1.43551 16.9192 1.4311 17.1865 1.49552 17.4413C1.55995 17.6961 1.6909 17.9291 1.87498 18.1167C2.06183 18.3045 2.29631 18.4379 2.55325 18.5025C2.81018 18.5671 3.07986 18.5605 3.33332 18.4834L5.54165 17.825C5.56805 17.814 5.59638 17.8084 5.62498 17.8084C5.65359 17.8084 5.68191 17.814 5.70832 17.825C7.01937 18.5613 8.49638 18.9513 9.99998 18.9584C10.6468 18.957 11.2917 18.89 11.925 18.7584C13.4958 18.4138 14.945 17.6527 16.1203 16.5551C17.2956 15.4574 18.1538 14.0635 18.6047 12.5198C19.0556 10.9762 19.0826 9.33955 18.683 7.78181C18.2833 6.22407 17.4717 4.80263 16.3333 3.6667Z" fill="#078972"/>
<path d="M10 8.16671C10.9205 8.16671 11.6667 7.42052 11.6667 6.50004C11.6667 5.57957 10.9205 4.83337 10 4.83337C9.07957 4.83337 8.33337 5.57957 8.33337 6.50004C8.33337 7.42052 9.07957 8.16671 10 8.16671Z" fill="white"/>
<path d="M10 9.02502C9.55801 9.02502 9.13409 9.20062 8.82153 9.51318C8.50897 9.82574 8.33337 10.2497 8.33337 10.6917V13.6584C8.33337 14.1004 8.50897 14.5243 8.82153 14.8369C9.13409 15.1494 9.55801 15.325 10 15.325C10.4421 15.325 10.866 15.1494 11.1786 14.8369C11.4911 14.5243 11.6667 14.1004 11.6667 13.6584V10.6917C11.6667 10.2497 11.4911 9.82574 11.1786 9.51318C10.866 9.20062 10.4421 9.02502 10 9.02502Z" fill="white"/>
</svg>
