<?xml version="1.0" encoding="utf-8"?>
<!-- Generator: Adobe Illustrator 26.0.3, SVG Export Plug-In . SVG Version: 6.00 Build 0)  -->
<svg version="1.1" id="Layer_1" xmlns="http://www.w3.org/2000/svg" xmlns:xlink="http://www.w3.org/1999/xlink" x="0px" y="0px"
	 viewBox="0 0 50 50" style="enable-background:new 0 0 50 50;" xml:space="preserve">
<style type="text/css">
	.st0{fill:#434343;}
</style>
<path class="st0" d="M25,43.1c2.1,0,3.9-1.7,3.9-3.9s-1.7-3.9-3.9-3.9c-2.1,0-3.9,1.7-3.9,3.9C21.1,41.4,22.9,43.1,25,43.1z
	 M25,36.8c1.4,0,2.5,1.1,2.5,2.5s-1.1,2.5-2.5,2.5s-2.5-1.1-2.5-2.5S23.6,36.8,25,36.8z"/>
<path class="st0" d="M14.3,43.1c2.1,0,3.9-1.7,3.9-3.9c0-2.1-1.7-3.9-3.9-3.9c-2.1,0-3.9,1.7-3.9,3.9C10.5,41.4,12.2,43.1,14.3,43.1
	z M14.3,36.8c1.4,0,2.5,1.1,2.5,2.5s-1.1,2.5-2.5,2.5c-1.4,0-2.5-1.1-2.5-2.5S13,36.8,14.3,36.8z"/>
<path class="st0" d="M35.7,32.1c2.1,0,3.9-1.7,3.9-3.9s-1.7-3.9-3.9-3.9c-2.1,0-3.9,1.7-3.9,3.9C31.8,30.3,33.6,32.1,35.7,32.1z
	 M35.7,25.8c1.4,0,2.5,1.1,2.5,2.5s-1.1,2.5-2.5,2.5c-1.4,0-2.5-1.1-2.5-2.5S34.3,25.8,35.7,25.8z"/>
<path class="st0" d="M35.7,43.1c2.1,0,3.9-1.7,3.9-3.9s-1.7-3.9-3.9-3.9c-2.1,0-3.9,1.7-3.9,3.9C31.8,41.4,33.6,43.1,35.7,43.1z
	 M35.7,36.8c1.4,0,2.5,1.1,2.5,2.5s-1.1,2.5-2.5,2.5c-1.4,0-2.5-1.1-2.5-2.5S34.3,36.8,35.7,36.8z"/>
<path class="st0" d="M14.3,32.1c2.1,0,3.9-1.7,3.9-3.9c0-2.1-1.7-3.9-3.9-3.9c-2.1,0-3.9,1.7-3.9,3.9C10.5,30.3,12.2,32.1,14.3,32.1
	z M14.3,25.8c1.4,0,2.5,1.1,2.5,2.5s-1.1,2.5-2.5,2.5c-1.4,0-2.5-1.1-2.5-2.5S13,25.8,14.3,25.8z"/>
<path class="st0" d="M25,32.1c2.1,0,3.9-1.7,3.9-3.9c0-2.1-1.7-3.9-3.9-3.9c-2.1,0-3.9,1.7-3.9,3.9C21.1,30.3,22.9,32.1,25,32.1z
	 M25,25.8c1.4,0,2.5,1.1,2.5,2.5s-1.1,2.5-2.5,2.5s-2.5-1.1-2.5-2.5S23.6,25.8,25,25.8z"/>
<path class="st0" d="M7.4,22.3l7-0.3c1.4-0.1,2.6-1.2,2.8-2.6c0.1-0.7,0.2-1.6,0.3-2.7c0.1-0.8,0.7-1.5,1.5-1.6
	c2.2-0.5,4.2-0.7,6-0.7c1.8,0,3.8,0.3,6,0.8c0.8,0.2,1.4,0.8,1.5,1.7c0.1,1.1,0.2,2,0.3,2.7c0.1,1.4,1.3,2.6,2.7,2.7l7,0.5
	c0.8,0.1,1.6-0.2,2.2-0.8c0.6-0.6,0.9-1.3,0.9-2.2l0-3.7l0,0c0-2.8-2.3-5.2-6.6-6.8c-3.7-1.4-8.6-2.2-13.9-2.3
	c-5.3-0.1-10.2,0.6-14,2C9,9.6,7.4,10.6,6.2,11.7c-1.2,1.1-1.8,2.4-1.8,3.8l-0.1,3.7c0,0.8,0.3,1.6,0.9,2.2
	C5.8,22,6.6,22.3,7.4,22.3L7.4,22.3z M5.4,19.3l0.1-3.7c0.1-3,3.3-4.7,6-5.7c3.6-1.3,8.4-2,13.6-1.9c5.2,0.1,10,0.8,13.5,2.2
	c2.7,1,5.9,2.9,5.9,5.8l0,3.7c0,0.5-0.2,1-0.6,1.4c-0.4,0.4-0.9,0.5-1.4,0.5l-7-0.5c-0.9-0.1-1.7-0.8-1.8-1.7
	c-0.1-0.7-0.2-1.6-0.3-2.7c-0.1-1.3-1-2.3-2.3-2.6c-2.3-0.5-4.3-0.8-6.2-0.8c-1.9,0-3.9,0.2-6.2,0.7c-1.3,0.3-2.2,1.3-2.3,2.5
	c-0.1,1.1-0.2,2-0.3,2.7c-0.1,0.9-0.9,1.6-1.8,1.7l-7,0.3c-0.5,0-1-0.2-1.4-0.5C5.6,20.3,5.4,19.8,5.4,19.3L5.4,19.3z M37,12.1
	c-0.3-0.1-0.4-0.4-0.3-0.7c0-0.1,0.1-0.2,0.1-0.2c0.1-0.1,0.3-0.2,0.5-0.1c1.9,0.6,5.1,2,5.8,4.2c0.1,0.2,0.1,0.5,0.1,0.7
	c0,0.3-0.2,0.5-0.5,0.5c-0.3,0-0.5-0.2-0.5-0.5c0-0.2,0-0.3-0.1-0.4C41.6,13.8,38.1,12.5,37,12.1z"/>
<g>
</g>
<g>
</g>
<g>
</g>
<g>
</g>
<g>
</g>
<g>
</g>
</svg>
