<svg width="18" height="18" viewBox="0 0 18 18" fill="none" xmlns="http://www.w3.org/2000/svg">
<path d="M5.01863 15.3679C6.08914 15.6703 7.50309 15.8368 9 15.8368C10.4969 15.8368 11.9109 15.6703 12.9814 15.3679C14.2911 14.9979 14.9551 14.4623 14.9551 13.7762C14.9551 13.0899 14.2911 12.5544 12.9814 12.1845C12.3829 12.0154 11.6768 11.8891 10.9091 11.8103C12.4124 9.24437 13.9022 6.33902 13.9022 4.90215C13.9022 2.19909 11.7031 0 9 0C6.29691 0 4.09782 2.19909 4.09782 4.90215C4.09782 6.33899 5.58753 9.24427 7.09084 11.8102C6.32317 11.889 5.61716 12.0154 5.01866 12.1845C3.70899 12.5544 3.04492 13.09 3.04492 13.7762C3.04489 14.4623 3.70895 14.9979 5.01863 15.3679ZM9 1.05469C11.1215 1.05469 12.8475 2.78065 12.8475 4.90215C12.8475 5.99186 11.4992 8.84837 9.24082 12.5434C9.16622 12.6654 9.04753 12.6786 8.99997 12.6786C8.95244 12.6786 8.83371 12.6654 8.75911 12.5434C6.50075 8.84837 5.15243 5.99189 5.15243 4.90215C5.1525 2.78065 6.87847 1.05469 9 1.05469ZM5.49686 13.148C6.12563 12.9879 6.87899 12.8755 7.69107 12.817C7.74742 12.91 7.8035 13.0022 7.85922 13.0933C8.10412 13.494 8.53056 13.7332 8.99997 13.7332C9.46941 13.7332 9.89582 13.494 10.1407 13.0933C10.1964 13.0021 10.2526 12.9099 10.3089 12.817C11.121 12.8754 11.8743 12.9879 12.5031 13.148C13.467 13.3935 13.8191 13.6699 13.8915 13.7761C13.819 13.8824 13.467 14.1588 12.5031 14.4042C11.5464 14.6479 10.3023 14.7821 8.99997 14.7821C7.69764 14.7821 6.4535 14.6479 5.49682 14.4042C4.53298 14.1588 4.18089 13.8824 4.1085 13.7761C4.18093 13.6699 4.53302 13.3935 5.49686 13.148Z" fill="white"/>
<path d="M16.4647 12.6201C16.2094 12.4799 15.8888 12.5731 15.7486 12.8284C15.6084 13.0836 15.7016 13.4043 15.9569 13.5445C16.585 13.8896 16.9453 14.2721 16.9453 14.5941C16.9453 14.9879 16.3874 15.5982 14.8214 16.1302C13.2744 16.6559 11.2069 16.9453 9 16.9453C6.79307 16.9453 4.72563 16.6559 3.17858 16.1302C1.61262 15.5982 1.05469 14.9879 1.05469 14.5941C1.05469 14.2721 1.41497 13.8896 2.04314 13.5444C2.29841 13.4042 2.39164 13.0836 2.25141 12.8283C2.11117 12.5731 1.79065 12.4798 1.53531 12.6201C0.834926 13.0048 0 13.6597 0 14.5941C0 15.3104 0.492609 16.3316 2.83929 17.1289C4.49276 17.6906 6.68067 18 9 18C11.3193 18 13.5072 17.6906 15.1607 17.1289C17.5074 16.3316 18 15.3104 18 14.5941C18 13.6597 17.1651 13.0048 16.4647 12.6201Z" fill="white"/>
<path d="M10.9701 4.56555C10.9701 3.47911 10.0862 2.59521 8.9997 2.59521C7.91323 2.59521 7.0293 3.47911 7.0293 4.56555C7.0293 5.65202 7.91323 6.53591 8.9997 6.53591C10.0862 6.53591 10.9701 5.65205 10.9701 4.56555ZM8.08398 4.56555C8.08398 4.06067 8.49479 3.6499 8.9997 3.6499C9.50461 3.6499 9.91541 4.06067 9.91541 4.56555C9.91541 5.07043 9.50461 5.48123 8.9997 5.48123C8.49479 5.48123 8.08398 5.07046 8.08398 4.56555Z" fill="white"/>
</svg>
