<svg width="24" height="24" viewBox="0 0 24 24" fill="none" xmlns="http://www.w3.org/2000/svg">
<g clip-path="url(#clip0_241_649)">
<path d="M6.42023 15.1046C6.64435 14.9753 6.72107 14.6884 6.5918 14.4643C6.46234 14.2404 6.1756 14.1635 5.95148 14.2927C5.72736 14.4222 5.65045 14.7091 5.77991 14.933C5.90918 15.1572 6.19611 15.2341 6.42023 15.1046Z" fill="black"/>
<path d="M4.49926 18.34L6.85986 22.4289C7.36926 23.3122 8.51513 23.6392 9.42132 23.1154C10.318 22.5972 10.6262 21.4515 10.1074 20.5541L8.70117 18.118L9.919 17.4149C10.1431 17.2853 10.22 16.9987 10.0906 16.7746L9.48101 15.7188C9.5537 15.7047 10.0316 15.611 18.4594 13.9577C19.5013 13.9011 20.1255 12.7617 19.5992 11.8507L18.0414 9.15247L19.0369 7.64459C19.1347 7.49628 19.1406 7.30566 19.0518 7.15186L18.1143 5.52808C18.0254 5.37427 17.8568 5.28418 17.6801 5.29462L15.8767 5.40283L14.1473 2.40723C13.8968 1.97327 13.448 1.71051 12.947 1.70428C12.941 1.7041 12.9351 1.7041 12.9291 1.7041C12.4449 1.7041 12.0055 1.94507 11.7451 2.35248L5.6217 10.1531L1.6408 12.4515C0.0750657 13.3551 -0.467293 15.3638 0.439812 16.9337C1.26855 18.3693 3.01574 18.934 4.49926 18.34ZM9.29571 21.023C9.55462 21.4709 9.40136 22.044 8.9522 22.3035C8.50158 22.564 7.92773 22.404 7.67175 21.9603L5.328 17.9003L6.95178 16.9628C9.6643 21.6617 9.25213 20.9478 9.29571 21.023ZM8.23242 17.306L7.76366 16.4941L8.57555 16.0253L9.0443 16.8372L8.23242 17.306ZM17.4472 6.24768L18.095 7.36975L17.5173 8.24463L16.4007 6.31049L17.4472 6.24768ZM12.5292 2.86646C12.655 2.66064 12.8545 2.6394 12.9355 2.6416C13.0155 2.64252 13.2149 2.66742 13.3352 2.87579L18.7873 12.3195C18.965 12.6269 18.7491 13.0134 18.3929 13.0222C18.329 13.0237 18.2996 13.0352 18.1359 13.0658L12.3686 3.07648C12.4896 2.92084 12.5052 2.90582 12.5292 2.86646ZM11.7447 3.87115L17.1634 13.2566L8.98553 14.8606L6.49896 10.5538L11.7447 3.87115ZM1.2517 16.465C1.04589 16.1088 0.937126 15.7045 0.937126 15.2955C0.937126 14.4594 1.38647 13.6808 2.10955 13.2634L5.76305 11.154L8.1068 15.2134L4.4533 17.323C3.33398 17.969 1.89788 17.5841 1.2517 16.465Z" fill="black"/>
<path d="M4.96802 15.4019C4.83856 15.1778 4.55182 15.1009 4.3277 15.2303L3.51581 15.6991C3.29206 15.8284 3.00476 15.7513 2.87549 15.5275C2.74604 15.3034 2.45929 15.2265 2.23517 15.356C2.01105 15.4854 1.93415 15.7722 2.0636 15.9963C2.4494 16.6646 3.31 16.9003 3.98456 16.511L4.79645 16.0422C5.02057 15.9128 5.09748 15.6262 4.96802 15.4019Z" fill="black"/>
<path d="M23.3033 2.70676L20.6913 4.16026C20.4652 4.28623 20.3837 4.57169 20.5097 4.79783C20.6353 5.02378 20.9206 5.10563 21.1473 4.97947L23.7591 3.52598C23.9854 3.4 24.0667 3.11454 23.9407 2.8884C23.8149 2.66209 23.5295 2.58079 23.3033 2.70676Z" fill="black"/>
<path d="M23.0293 7.56163L21.2182 7.0764C20.9681 7.00939 20.711 7.1577 20.644 7.40782C20.577 7.65795 20.7255 7.91484 20.9756 7.98186L22.7869 8.46709C23.0385 8.53465 23.2943 8.38396 23.3609 8.13567C23.428 7.88555 23.2795 7.62847 23.0293 7.56163Z" fill="black"/>
<path d="M18.4781 1.00377L17.9923 2.81505C17.9253 3.06517 18.0736 3.32207 18.3237 3.38927C18.5737 3.4561 18.8307 3.30815 18.8979 3.05785L19.3835 1.24657C19.4505 0.996446 19.3022 0.739366 19.0521 0.672349C18.8022 0.605333 18.5451 0.753648 18.4781 1.00377Z" fill="black"/>
</g>
<defs>
<clipPath id="clip0_241_649">
<rect width="24" height="24" fill="white"/>
</clipPath>
</defs>
</svg>
