<svg width="32" height="40" viewBox="0 0 32 40" fill="none" xmlns="http://www.w3.org/2000/svg">
<path d="M16.0014 25.0877C16.325 25.0877 16.5873 24.8254 16.5873 24.5018V23.824C17.93 23.606 18.6482 22.6269 18.6482 21.6987C18.6482 20.5394 18.0076 19.8071 16.6897 19.4598C15.5 19.1464 14.8775 18.626 14.8775 18.2739C14.8775 17.8146 15.3843 17.3029 16.1117 17.3029C16.8885 17.3029 17.5131 17.9239 17.5268 17.9377C17.7516 18.1688 18.1209 18.1752 18.3534 17.9513C18.5864 17.7269 18.5934 17.356 18.369 17.1229C18.335 17.0876 17.6227 16.3599 16.5873 16.1741V15.4984C16.5873 15.1748 16.325 14.9125 16.0014 14.9125C15.6777 14.9125 15.4154 15.1748 15.4154 15.4984V16.2267C14.4381 16.5 13.7055 17.327 13.7055 18.274C13.7055 19.2981 14.6843 20.1434 16.391 20.5931C17.3925 20.8569 17.4763 21.284 17.4763 21.6988C17.4763 22.1002 17.0875 22.6974 16.0164 22.6974C14.9461 22.6974 14.4565 21.9593 14.4395 21.9332C14.2699 21.6575 13.909 21.5717 13.6334 21.7412C13.3579 21.9108 13.2719 22.2717 13.4415 22.5473C13.4706 22.5946 14.0895 23.575 15.4154 23.8159V24.5019C15.4154 24.8254 15.6777 25.0877 16.0014 25.0877Z" fill="black"/>
<path d="M28.2671 28.2201L21.6335 30.1827C21.5658 29.5021 21.1969 28.7381 20.1512 28.3208C19.7425 28.1576 19.3692 28.0078 19.0252 27.8694C21.7538 26.8261 23.7891 24.4174 24.3036 21.4477C24.3588 21.1288 24.1452 20.8256 23.8264 20.7703C23.5074 20.7152 23.2042 20.9288 23.149 21.2477C22.6237 24.2791 20.2584 26.6332 17.239 27.1509C14.7067 26.1403 14.6556 26.2278 12.3454 26.2688C10.1206 24.9686 8.74526 22.5812 8.74526 20.0002C8.74526 16.4883 11.3219 13.4418 14.7638 12.8494C16.4449 13.5204 17.0222 13.7078 17.7967 13.7404C17.8011 13.7406 17.8057 13.7408 17.81 13.741C18.0666 13.7511 19.3078 13.7379 19.6572 13.7316C21.5018 14.8085 22.7689 16.6169 23.1437 18.7164C23.2006 19.035 23.5049 19.2472 23.8235 19.1902C24.142 19.1333 24.3542 18.829 24.2972 18.5104C23.9538 16.5866 22.9654 14.874 21.5126 13.6223C22.3371 13.5143 22.9583 13.3076 23.8528 12.9073C24.752 12.5049 25.6202 12.011 26.4335 11.4394C26.6483 11.2884 26.8742 11.1558 27.1083 11.042C27.4965 11.7645 28.3868 12.0713 29.1429 11.7247L30.9479 10.8968C31.7567 10.5259 32.1108 9.57136 31.74 8.76255L28.1524 0.939467C27.9731 0.548692 27.6524 0.25104 27.2492 0.101355C26.8461 -0.0483302 26.4088 -0.0319242 26.018 0.147292L24.213 0.975169C23.4269 1.33571 23.0807 2.26859 23.4412 3.05467L23.595 3.38998L22.1839 3.92567C20.7117 4.40277 19.2246 4.41957 18.1019 3.97153C18.0821 3.96364 15.3211 2.861 15.3009 2.85405C14.685 2.64178 13.0757 2.24054 11.4128 3.08521C10.9968 3.2692 2.16349 7.17664 1.74029 7.36374C1.72998 7.36827 1.71983 7.37312 1.70983 7.37827C0.853667 7.81741 -0.399751 9.00544 0.333753 10.6729C0.336253 10.6787 0.338909 10.6844 0.341644 10.6901C0.942103 11.9441 2.24224 12.3616 3.73558 11.78L10.3691 9.81753C10.4367 10.4981 10.8058 11.2622 11.8515 11.6795C12.2611 11.843 12.6353 11.9932 12.9798 12.1319C11.7012 12.6236 10.5496 13.4247 9.63673 14.4754C8.30613 16.0069 7.57333 17.969 7.57333 20.0002C7.57333 22.4737 8.66112 24.7937 10.4927 26.3777C9.66673 26.4856 9.0451 26.6923 8.14965 27.0931C7.25068 27.4954 6.38241 27.9893 5.56883 28.5611C5.35368 28.7123 5.12751 28.845 4.89314 28.959C4.50189 28.2296 3.61409 27.9298 2.85957 28.2758L1.0546 29.1036C0.245942 29.4744 -0.108427 30.429 0.262426 31.2378L3.85034 39.0607C4.22127 39.8694 5.17587 40.2238 5.98476 39.8528L7.78973 39.0249C8.57581 38.6643 8.92198 37.7315 8.56152 36.9454L8.40777 36.6102L9.81892 36.0745C11.2911 35.5974 12.7782 35.5806 13.901 36.0286L16.6755 37.1362C16.6841 37.1397 16.693 37.143 16.7018 37.146C17.9318 37.57 19.3579 37.5406 20.5898 36.9149L23.9741 35.4179C24.27 35.2871 24.4038 34.941 24.2729 34.645C24.142 34.349 23.7957 34.2153 23.5 34.3462L20.1085 35.8465C20.1061 35.8475 20.1025 35.8491 20.1002 35.8502C20.0902 35.8545 20.0805 35.8592 20.0709 35.8642C18.8146 36.508 17.5815 36.2075 17.0964 36.0425L14.3353 34.9403C12.9386 34.3829 11.2009 34.3915 9.44275 34.9646C9.43392 34.9675 9.42502 34.9706 9.41635 34.9739L7.91817 35.5427C7.67036 35.0024 6.06827 31.5093 5.38649 30.0228C5.68406 29.8794 5.97054 29.7112 6.24288 29.5198C6.99521 28.991 7.79786 28.5344 8.62855 28.1627C9.84501 27.6182 10.4099 27.4823 12.2061 27.4435C12.2069 27.4435 12.2077 27.4437 12.2085 27.4436C14.2286 27.3994 14.4293 27.4236 14.8948 27.5463C15.3273 27.6613 15.912 27.8819 16.9541 28.2991C16.9541 28.2991 16.9543 28.2992 16.9544 28.2992C17.658 28.581 18.56 28.9474 19.7168 29.4092C20.1459 29.5804 20.3859 29.8428 20.4502 30.211C20.5045 30.5221 20.4182 30.8004 20.4184 30.8004C20.2453 31.3088 19.9024 31.4877 19.4471 31.3763C18.1714 31.0638 15.1323 30.3319 15.1017 30.3246C14.7869 30.2487 14.4707 30.4424 14.3949 30.757C14.3191 31.0717 14.5128 31.3881 14.8274 31.4638C14.8579 31.4712 17.8948 32.2026 19.1682 32.5145C20.1773 32.7619 21.0045 32.2829 21.4092 31.4712C28.8939 29.2568 28.6193 29.3404 28.6902 29.3131C29.3312 29.0629 30.1816 28.9465 30.5999 29.8078C31.0426 30.8308 30.0194 31.4422 29.7717 31.5721L26.0026 33.2393C25.7066 33.3701 25.5729 33.7161 25.7037 34.0122C25.8347 34.3082 26.1809 34.4418 26.4767 34.311C26.5011 34.3002 30.2686 32.6343 30.2927 32.6219C33.3067 31.0761 31.6475 26.9034 28.2671 28.2201ZM24.7016 2.04047L26.5065 1.21259C26.7262 1.11173 26.9865 1.2086 27.0872 1.42805L30.6751 9.2509C30.7758 9.47043 30.6791 9.73089 30.4596 9.83152L28.6546 10.6594C28.4558 10.7506 28.2201 10.663 28.1289 10.4643C27.9921 10.166 25.7175 5.20659 24.5065 2.56632C24.4153 2.36749 24.5028 2.13164 24.7016 2.04047ZM12.286 10.5911C11.8568 10.4199 11.6169 10.1575 11.5525 9.78917C11.4423 9.15817 11.7973 8.43826 12.5557 8.62396C13.8314 8.93645 16.8705 9.66832 16.9011 9.67566C17.2155 9.75144 17.5321 9.55785 17.6079 9.24317C17.6837 8.92856 17.49 8.61208 17.1754 8.53638C17.1449 8.52904 14.108 7.79764 12.8345 7.48569C11.6797 7.20265 10.9208 7.87342 10.5938 8.52888L3.38035 10.6631C3.36722 10.667 3.35418 10.6713 3.34136 10.6761L3.31253 10.6872C2.67184 10.9374 1.82123 11.0538 1.40288 10.1924C0.960071 9.16942 1.98342 8.5581 2.23107 8.4281C2.837 8.16014 11.7574 4.21426 11.8943 4.15364C11.8967 4.15262 11.9003 4.15106 11.9026 4.14996C11.9126 4.14559 11.9223 4.1409 11.9319 4.13598C13.1879 3.49224 14.4213 3.79255 14.9064 3.95762L17.6675 5.05987C19.0642 5.61721 20.8018 5.60869 22.5601 5.03557C22.569 5.03268 22.5779 5.02956 22.5865 5.02628L24.0846 4.45754L26.6163 9.97745C26.3187 10.1208 26.0323 10.289 25.7599 10.4804C25.0078 11.0091 24.2053 11.4656 23.3743 11.8375C22.1201 12.3989 21.559 12.525 19.642 12.5596C19.0233 12.571 17.9683 12.5731 17.9729 12.5731C17.6651 12.568 17.4153 12.5356 17.0977 12.4512C16.3437 12.249 15.1284 11.7259 12.286 10.5911ZM7.4963 37.4339C7.58747 37.6326 7.49989 37.8685 7.30114 37.9597L5.49617 38.7876C5.27696 38.8883 5.01665 38.7925 4.91548 38.5721L1.32764 30.7493C1.22655 30.5288 1.3235 30.2694 1.54319 30.1687L3.34816 29.3408C3.54855 29.249 3.78315 29.3379 3.87385 29.536C5.04016 32.0786 6.46319 35.1815 7.4963 37.4339Z" fill="black"/>
</svg>
