<svg width="21" height="20" viewBox="0 0 21 20" fill="none" xmlns="http://www.w3.org/2000/svg">
<path d="M7.98448 1C7.84215 1 7.70881 1.06867 7.62615 1.18433L2.85181 7.86834C2.79081 7.954 2.75781 8.05667 2.75781 8.16167C2.75781 8.44067 2.98381 8.66667 3.26281 8.66667H5.75781V19H8.42448V1.44C8.42448 1.197 8.22748 1 7.98448 1Z" fill="#004346"/>
<path d="M12.1978 19C12.3401 19 12.4735 18.9313 12.5561 18.8157L17.3305 12.1317C17.3915 12.046 17.4245 11.9433 17.4245 11.8383C17.4245 11.5593 17.1985 11.3333 16.9195 11.3333H14.4245V1H11.7578V18.56C11.7578 18.803 11.9548 19 12.1978 19Z" fill="#004346"/>
</svg>
