<svg width="25" height="25" viewBox="0 0 25 25" fill="none" xmlns="http://www.w3.org/2000/svg">
<path d="M21.2503 5.9375L13.542 1.5625C12.8128 1.14583 11.8753 1.14583 11.1462 1.5625L3.43783 5.9375C2.70866 6.35417 2.29199 7.1875 2.29199 8.02083V16.875C2.29199 17.7083 2.70866 18.5417 3.43783 18.9583L11.1462 23.4375C11.5628 23.6458 11.9795 23.75 12.3962 23.75C12.8128 23.75 13.2295 23.6458 13.542 23.4375L21.2503 18.9583C21.9795 18.5417 22.3962 17.7083 22.3962 16.875V8.02083C22.3962 7.1875 21.9795 6.35417 21.2503 5.9375ZM10.0003 15.5208C10.0003 16.0417 9.58366 16.4583 9.06283 16.4583H8.12533C7.60449 16.4583 7.18783 16.0417 7.18783 15.5208V14.6875C7.18783 14.1667 7.60449 13.75 8.12533 13.75H8.95866C9.47949 13.75 9.89616 14.1667 9.89616 14.6875V15.5208H10.0003ZM10.0003 12.1875C10.0003 12.7083 9.58366 13.125 9.06283 13.125H8.12533C7.60449 13.125 7.18783 12.7083 7.18783 12.1875V11.3542C7.18783 10.8333 7.60449 10.4167 8.12533 10.4167H8.95866C9.47949 10.4167 9.89616 10.8333 9.89616 11.3542V12.1875H10.0003ZM10.0003 8.75C10.0003 9.27083 9.58366 9.6875 9.06283 9.6875H8.12533C7.70866 9.6875 7.29199 9.27083 7.29199 8.75V7.91667C7.29199 7.39583 7.70866 6.97917 8.22949 6.97917H9.06283C9.58366 6.97917 10.0003 7.39583 10.0003 7.91667V8.75ZM12.3962 19.8958C11.667 19.8958 11.042 19.2708 11.042 18.5417C11.042 17.8125 11.667 17.1875 12.3962 17.1875C13.1253 17.1875 13.7503 17.8125 13.7503 18.5417C13.7503 19.2708 13.1253 19.8958 12.3962 19.8958ZM13.7503 15.5208C13.7503 16.0417 13.3337 16.4583 12.8128 16.4583H11.9795C11.4587 16.4583 11.042 16.0417 11.042 15.5208V14.6875C11.042 14.1667 11.4587 13.75 11.9795 13.75H12.8128C13.3337 13.75 13.7503 14.1667 13.7503 14.6875V15.5208ZM13.7503 12.1875C13.7503 12.7083 13.3337 13.125 12.8128 13.125H11.9795C11.4587 13.125 11.042 12.7083 11.042 12.1875V11.3542C11.042 10.8333 11.4587 10.4167 11.9795 10.4167H12.8128C13.3337 10.4167 13.7503 10.8333 13.7503 11.3542V12.1875ZM13.7503 8.75C13.7503 9.27083 13.3337 9.6875 12.8128 9.6875H11.9795C11.4587 9.6875 11.042 9.27083 11.042 8.75V7.91667C11.042 7.39583 11.4587 6.97917 11.9795 6.97917H12.8128C13.3337 6.97917 13.7503 7.39583 13.7503 7.91667V8.75ZM17.5003 15.5208C17.5003 16.0417 17.0837 16.4583 16.5628 16.4583H15.7295C15.2087 16.4583 14.792 16.0417 14.792 15.5208V14.6875C14.792 14.1667 15.2087 13.75 15.7295 13.75H16.5628C17.0837 13.75 17.5003 14.1667 17.5003 14.6875V15.5208ZM17.5003 12.1875C17.5003 12.7083 17.0837 13.125 16.5628 13.125H15.7295C15.2087 13.125 14.792 12.7083 14.792 12.1875V11.3542C14.792 10.8333 15.2087 10.4167 15.7295 10.4167H16.5628C17.0837 10.4167 17.5003 10.8333 17.5003 11.3542V12.1875ZM17.5003 8.75C17.5003 9.27083 17.0837 9.6875 16.5628 9.6875H15.7295C15.2087 9.6875 14.792 9.27083 14.792 8.75V7.91667C14.792 7.39583 15.2087 6.97917 15.7295 6.97917H16.5628C17.0837 6.97917 17.5003 7.39583 17.5003 7.91667V8.75Z" fill="#004346"/>
</svg>
