<svg width="19" height="25" viewBox="0 0 19 25" fill="none" xmlns="http://www.w3.org/2000/svg">
<path d="M16.987 14.2805C16.1454 13.311 14.9823 12.6772 13.7115 12.4956L10.7942 12.0381V6.9468C10.7942 5.73777 9.81047 4.75415 8.60144 4.75415H8.56862C7.35959 4.75415 6.3759 5.73777 6.3759 6.9468V15.1233L3.35992 13.8307C2.75412 13.5711 2.06358 13.6326 1.51311 13.9956C0.962711 14.3585 0.634155 14.9689 0.634155 15.6281V15.6556C0.634155 16.2135 0.873278 16.7462 1.29021 17.1169L6.37597 21.6393V23.8364C6.37597 24.1504 6.6304 24.4049 6.94441 24.4049C7.25841 24.4049 7.51284 24.1504 7.51284 23.8364V21.3841C7.51284 21.2218 7.44342 21.0671 7.32208 20.9594L2.04562 16.2674C1.87107 16.1122 1.77103 15.8893 1.77103 15.6557V15.6282C1.77103 15.3481 1.90518 15.099 2.13892 14.9448C2.37289 14.7905 2.65483 14.7655 2.91207 14.8757L6.71984 16.5077C6.75485 16.5228 6.79169 16.5346 6.82996 16.5424C6.88688 16.5541 6.94433 16.5567 7.00049 16.551C7.00686 16.5504 7.01308 16.5492 7.01937 16.5484C7.03111 16.5468 7.04294 16.5453 7.05453 16.543C7.06469 16.541 7.07462 16.5382 7.08455 16.5357C7.09213 16.5337 7.09971 16.5322 7.10721 16.5299C7.1185 16.5266 7.12949 16.5225 7.14048 16.5184C7.14654 16.5162 7.15276 16.5141 7.15875 16.5117C7.16951 16.5073 7.17997 16.5023 7.19035 16.4973C7.19649 16.4943 7.20278 16.4916 7.20877 16.4884C7.21809 16.4835 7.22704 16.478 7.23605 16.4727C7.24295 16.4685 7.25 16.4646 7.25675 16.4601C7.26432 16.4551 7.27145 16.4496 7.2788 16.4443C7.28653 16.4386 7.29434 16.4332 7.30184 16.4271C7.30783 16.4223 7.31344 16.417 7.31927 16.4119C7.32731 16.4048 7.33549 16.3977 7.34315 16.3901C7.3483 16.385 7.35308 16.3796 7.358 16.3744C7.36558 16.3663 7.37316 16.3584 7.38021 16.3499C7.38567 16.3434 7.39052 16.3365 7.39567 16.3298C7.40158 16.3221 7.40757 16.3146 7.4131 16.3065C7.42008 16.2963 7.42637 16.2857 7.43266 16.275C7.43569 16.2699 7.43895 16.2651 7.44183 16.26C7.46911 16.2106 7.48943 16.1568 7.5011 16.0998C7.50898 16.0616 7.51262 16.0232 7.51262 15.9852V6.9468C7.51262 6.36465 7.98624 5.89102 8.56847 5.89102H8.60129C9.18352 5.89102 9.65714 6.36465 9.65714 6.9468V12.4057C9.65714 12.4267 9.6585 12.4474 9.6607 12.4678C9.63069 12.7659 9.83798 13.0389 10.1375 13.0858L13.539 13.6192C13.5418 13.6196 13.5444 13.62 13.5471 13.6205C15.6047 13.9128 17.1564 15.7005 17.1564 17.7789V17.8369C17.1564 18.7987 16.9217 19.7582 16.4776 20.6113L14.9356 23.5739C14.7907 23.8524 14.899 24.1956 15.1773 24.3405C15.2612 24.3842 15.3509 24.4049 15.4394 24.4049C15.6445 24.4049 15.8427 24.2934 15.944 24.0988L17.486 21.1363C18.0141 20.1216 18.2932 18.9808 18.2932 17.8369V17.7789C18.2934 16.4937 17.8294 15.2513 16.987 14.2805Z" fill="#222220"/>
<path d="M8.58504 3.26919C8.89904 3.26919 9.15347 3.01476 9.15347 2.70076V0.973466C9.15347 0.659461 8.89904 0.405029 8.58504 0.405029C8.27103 0.405029 8.0166 0.659461 8.0166 0.973466V2.70076C8.0166 3.01476 8.27111 3.26919 8.58504 3.26919Z" fill="#222220"/>
<path d="M12.1058 7.90047C12.1058 8.21447 12.3603 8.4689 12.6743 8.4689H14.4016C14.7156 8.4689 14.97 8.21447 14.97 7.90047C14.97 7.58646 14.7156 7.33203 14.4016 7.33203H12.6743C12.3603 7.33203 12.1058 7.58654 12.1058 7.90047Z" fill="#222220"/>
<path d="M12.2238 4.68484C12.3692 4.68484 12.5147 4.62936 12.6258 4.5184L13.8471 3.29702C14.0691 3.07495 14.0691 2.71509 13.8471 2.4931C13.6251 2.27118 13.2652 2.27118 13.0432 2.4931L11.8218 3.7144C11.5998 3.93647 11.5998 4.29633 11.8218 4.51832C11.9328 4.62928 12.0783 4.68484 12.2238 4.68484Z" fill="#222220"/>
<path d="M4.0971 4.5184C4.20814 4.62936 4.35366 4.68484 4.4991 4.68484C4.64455 4.68484 4.79007 4.62936 4.9011 4.5184C5.12309 4.29633 5.12309 3.93647 4.9011 3.71448L3.67964 2.4931C3.45758 2.27118 3.09772 2.27118 2.87572 2.4931C2.65373 2.71517 2.65373 3.07503 2.87572 3.29702L4.0971 4.5184Z" fill="#222220"/>
<path d="M2.34627 8.4689H4.07356C4.38756 8.4689 4.64199 8.21447 4.64199 7.90047C4.64199 7.58646 4.38756 7.33203 4.07356 7.33203H2.34627C2.03226 7.33203 1.77783 7.58646 1.77783 7.90047C1.77783 8.21447 2.03226 8.4689 2.34627 8.4689Z" fill="#222220"/>
</svg>
