<svg width="312" height="250" viewBox="0 0 312 250" fill="none" xmlns="http://www.w3.org/2000/svg">
<g filter="url(#filter0_d_1_229)">
<rect x="4" y="12" width="304" height="234" rx="31" fill="#55877E"/>
</g>
<g filter="url(#filter1_d_1_229)">
<rect x="4" y="4" width="304" height="234" rx="31" fill="white"/>
</g>
<g clip-path="url(#clip0_1_229)">
<path d="M180.621 172.818C179.12 170.717 177.089 169.179 174.536 168.604C172.309 168.102 170.019 168.187 167.755 168.205L139.134 168.425C136.683 168.444 134.332 170.568 134.446 173.114C134.559 175.638 136.506 177.823 139.134 177.803C147.518 177.738 155.902 177.674 164.286 177.609C166.263 177.594 168.241 177.558 170.217 177.564C170.661 177.566 171.103 177.589 171.547 177.594C171.654 177.596 171.732 177.595 171.786 177.592C171.8 177.596 171.812 177.6 171.83 177.605C172.061 177.669 172.298 177.713 172.531 177.773C172.45 177.775 172.682 177.92 172.799 177.97C172.815 178.001 172.849 178.057 172.906 178.144C172.986 178.293 173.222 178.747 173.231 178.733C173.586 179.629 173.878 180.549 174.106 181.485C174.651 183.551 174.771 183.982 174.849 185.92C174.948 188.367 176.934 190.725 179.537 190.609C181.992 190.499 184.331 188.545 184.224 185.92C184.045 181.497 183.269 176.528 180.621 172.818Z" fill="#E6E6E6"/>
<path d="M140.816 183.399C140.279 180.14 139.752 176.88 139.204 173.623C138.647 170.319 137.512 167.294 134.941 165.126C134.255 164.546 133.542 164.005 132.827 163.466C132.576 163.277 132.325 163.087 132.076 162.893C132.061 162.881 132.052 162.874 132.039 162.864C132.012 162.841 131.979 162.813 131.935 162.775C130.864 161.868 129.828 160.921 128.842 159.914C127.967 159.02 127.129 158.088 126.33 157.117C126.13 156.875 125.933 156.63 125.739 156.384C125.705 156.341 125.525 156.108 125.406 155.956C125.296 155.804 125.094 155.529 125.06 155.481C124.833 155.16 124.61 154.835 124.39 154.508C122.897 152.27 121.604 149.905 120.527 147.441C120.42 147.196 120.316 146.95 120.214 146.703C120.187 146.628 120.151 146.531 120.104 146.402C119.887 145.804 119.67 145.208 119.472 144.603C119.05 143.319 118.687 142.017 118.384 140.695C118.234 140.042 118.099 139.387 117.978 138.727C117.917 138.388 117.859 138.049 117.805 137.708C117.796 137.652 117.743 137.284 117.712 137.077C117.689 136.868 117.647 136.499 117.641 136.442C117.607 136.099 117.576 135.755 117.549 135.412C117.49 134.638 117.449 133.863 117.428 133.087C117.392 131.707 117.417 130.328 117.502 128.948C117.551 128.173 117.62 127.4 117.705 126.629C117.71 126.581 117.714 126.544 117.718 126.51C117.723 126.475 117.729 126.436 117.736 126.387C117.799 125.961 117.866 125.535 117.94 125.111C118.221 123.499 118.587 121.903 119.036 120.33C119.248 119.586 119.479 118.848 119.728 118.116C119.839 117.791 119.953 117.468 120.071 117.145C120.064 117.166 120.418 116.261 120.422 116.231C121.827 112.911 124.125 109.884 124.128 106.113C124.13 103.56 121.971 101.114 119.441 101.232C118.179 101.279 116.985 101.815 116.111 102.725C115.236 103.636 114.75 104.85 114.753 106.113C114.753 106.17 114.753 106.219 114.752 106.267C114.729 106.346 114.709 106.413 114.691 106.471C114.417 107.067 114.082 107.633 113.781 108.213C112.958 109.803 112.255 111.444 111.587 113.11C110.494 115.822 109.658 118.631 109.088 121.499C107.851 127.784 107.755 134.24 108.805 140.559C110.622 151.64 116.616 162.247 124.949 169.377C125.672 169.995 126.413 170.593 127.16 171.179C127.47 171.422 127.782 171.66 128.095 171.896C128.244 172.008 128.858 172.492 128.587 172.257C129.168 172.753 129.413 173.003 129.562 173.368C129.584 173.452 129.613 173.566 129.653 173.723C129.758 174.135 129.858 174.545 129.941 174.963C130.666 178.612 131.17 182.322 131.776 185.994C132.193 188.518 135.298 190.16 137.543 189.404C140.155 188.523 141.263 186.103 140.816 183.399Z" fill="#E6E6E6"/>
<path d="M181.095 192.863C179.126 192.868 177.236 192.092 175.839 190.705C174.442 189.318 173.651 187.433 173.642 185.464V180.115C168.043 180.742 148.873 180.597 143.377 179.714V185.25C143.363 187.217 142.571 189.099 141.175 190.485C139.779 191.871 137.891 192.649 135.924 192.649C133.957 192.649 132.07 191.871 130.673 190.485C129.277 189.099 128.485 187.217 128.471 185.25V174.38C121.028 170.244 114.823 164.197 110.497 156.862C106.171 149.527 103.88 141.17 103.861 132.654C103.861 118.051 110.477 104.429 122.013 95.2804C129.514 89.3119 138.627 85.7224 148.183 84.973C149.48 84.8713 150.784 84.8198 152.061 84.8198C156.559 84.8198 176.852 85.5148 181.944 86.98L193.554 75.4569C193.725 75.2852 193.943 75.1682 194.18 75.1209C194.418 75.0736 194.664 75.098 194.887 75.1912C195.112 75.2808 195.305 75.4364 195.44 75.6375C195.575 75.8387 195.646 76.0761 195.644 76.3184V78.1506L197.905 75.9111C198.075 75.7392 198.293 75.622 198.53 75.5746C198.768 75.5272 199.014 75.5517 199.237 75.6449C199.462 75.7345 199.655 75.8901 199.791 76.0913C199.926 76.2926 199.997 76.5301 199.995 76.7726V97.2462C205.821 102.499 210.261 109.109 212.922 116.489C215.583 123.869 216.383 131.792 215.251 139.556C214.119 147.319 211.09 154.683 206.432 160.996C201.774 167.308 195.632 172.373 188.548 175.743V185.464C188.539 187.433 187.749 189.318 186.351 190.705C184.954 192.092 183.064 192.868 181.095 192.863ZM174.228 179.45V185.464C174.243 187.276 174.973 189.008 176.259 190.285C177.545 191.561 179.283 192.277 181.095 192.277C182.907 192.277 184.645 191.561 185.931 190.285C187.218 189.008 187.948 187.276 187.962 185.464V175.373L188.13 175.294C196.077 171.522 202.824 165.62 207.622 158.244C213.735 148.832 216.277 137.542 214.788 126.417C213.3 115.292 207.879 105.068 199.506 97.595L199.409 97.5076V76.7726C199.411 76.6466 199.375 76.523 199.304 76.4184C199.234 76.3139 199.133 76.2334 199.016 76.1878C198.899 76.1379 198.77 76.1244 198.646 76.1491C198.521 76.1739 198.407 76.2357 198.318 76.3264L195.058 79.556V76.3184C195.06 76.1924 195.024 76.0688 194.954 75.9643C194.883 75.8597 194.783 75.7792 194.665 75.7336C194.548 75.6838 194.419 75.6704 194.294 75.6954C194.17 75.7203 194.055 75.7823 193.966 75.8733L182.108 87.6431L181.939 87.5903C177.206 86.1084 156.593 85.4059 152.061 85.4059C150.8 85.4059 149.51 85.4568 148.229 85.5574C138.789 86.2976 129.787 89.8435 122.377 95.7396C110.982 104.777 104.447 118.231 104.447 132.654C104.466 141.095 106.745 149.376 111.046 156.639C115.347 163.901 121.514 169.879 128.906 173.951L129.057 174.035V185.25C129.072 187.062 129.802 188.794 131.088 190.07C132.374 191.346 134.113 192.062 135.924 192.062C137.736 192.062 139.474 191.346 140.76 190.07C142.046 188.794 142.776 187.062 142.792 185.25V179.012L143.139 179.077C148.077 180.007 168.871 180.153 173.897 179.494L174.228 179.45Z" fill="#3F3D56"/>
<path d="M141.376 52.907L108.932 62.6596C107.9 62.971 107.034 63.6794 106.524 64.6292C106.014 65.579 105.902 66.6925 106.212 67.725C106.522 68.7576 107.229 69.6247 108.178 70.136C109.127 70.6472 110.241 70.7608 111.273 70.4517L139.665 61.9152L140.26 61.7364C140.381 58.6708 141.212 55.6751 142.689 52.9861C142.504 52.9027 142.305 52.8512 142.103 52.8337C141.858 52.81 141.611 52.8349 141.376 52.907Z" fill="#FF6400"/>
<path d="M110.712 72.5309C110.281 72.5299 109.862 72.3935 109.513 72.141C109.164 71.8885 108.903 71.5327 108.767 71.1239L106.739 65.0004C106.654 64.7447 106.62 64.4748 106.64 64.2061C106.659 63.9374 106.732 63.6752 106.853 63.4345C106.973 63.1937 107.141 62.9792 107.344 62.803C107.548 62.6269 107.785 62.4926 108.04 62.4079L134.447 53.6546C134.702 53.5698 134.972 53.5363 135.241 53.5558C135.509 53.5754 135.771 53.6476 136.012 53.7685C136.253 53.8894 136.467 54.0565 136.643 54.2603C136.819 54.4641 136.954 54.7006 137.038 54.9563L139.067 61.0798C139.236 61.5834 139.202 62.133 138.973 62.6121C138.744 63.0913 138.337 63.4623 137.839 63.6467C137.814 63.6558 137.79 63.6644 137.765 63.6726L111.359 72.4256C111.151 72.4952 110.932 72.5307 110.712 72.5309Z" fill="#2F2E41"/>
<path d="M160.165 42.032C154.835 42.0341 149.716 44.1104 145.89 47.8214C142.064 51.5324 139.831 56.587 139.665 61.9152C139.659 62.1233 139.657 62.3343 139.657 62.5453C139.657 66.6024 140.859 70.5684 143.113 73.9418C145.366 77.3152 148.569 79.9444 152.317 81.497C156.064 83.0496 160.188 83.4559 164.166 82.6643C168.144 81.8728 171.798 79.9191 174.666 77.0503C177.535 74.1815 179.488 70.5264 180.279 66.5472C181.07 62.568 180.664 58.4435 179.112 54.6952C177.56 50.9469 174.931 47.7431 171.559 45.4891C168.186 43.2351 164.221 42.032 160.165 42.032ZM160.165 82.4724C154.883 82.4669 149.819 80.3657 146.084 76.6298C142.349 72.8939 140.248 67.8286 140.243 62.5453C140.243 62.2727 140.248 62.0031 140.26 61.7364C140.419 57.833 141.721 54.0623 144.005 50.8933C146.289 47.7242 149.454 45.2966 153.106 43.9123C156.758 42.5279 160.737 42.248 164.547 43.1072C168.357 43.9664 171.831 45.927 174.536 48.745C177.241 51.563 179.058 55.1142 179.761 58.9569C180.465 62.7997 180.024 66.7645 178.492 70.3584C176.961 73.9523 174.407 77.0166 171.149 79.1705C167.89 81.3243 164.071 82.4725 160.165 82.4724Z" fill="#3F3D56"/>
<path d="M177.45 62.5453C177.45 67.1308 175.629 71.5285 172.388 74.771C169.146 78.0134 164.749 79.835 160.165 79.835C155.58 79.835 151.184 78.0134 147.942 74.771C144.7 71.5285 142.879 67.1308 142.879 62.5453C142.879 61.9973 142.906 61.4581 142.955 60.9247C143.372 56.4992 145.477 52.4042 148.832 49.49C152.188 46.5757 156.537 45.0661 160.976 45.2747C165.415 45.4832 169.603 47.3939 172.671 50.6099C175.739 53.8259 177.45 58.1002 177.45 62.5453Z" fill="#E6E6E6"/>
<path d="M165.312 63.694C164.893 63.143 164.342 62.7066 163.71 62.4251C162.93 62.0963 162.125 61.8317 161.302 61.6339V56.9276C162.567 57.1183 163.753 57.6594 164.727 58.4895L165.682 56.4528C165.132 55.9633 164.502 55.5736 163.818 55.3012C163.061 54.9943 162.266 54.7903 161.454 54.6945V52.3091H159.242V54.718C158.388 54.8139 157.564 55.0907 156.825 55.5297C156.157 55.9249 155.596 56.4759 155.187 57.1356C154.798 57.7794 154.596 58.5194 154.604 59.2719C154.566 60.0874 154.802 60.8922 155.275 61.5577C155.71 62.1339 156.285 62.5897 156.945 62.8823C157.737 63.2207 158.557 63.4923 159.394 63.694V68.204C157.902 68.0914 156.479 67.5237 155.319 66.5776L154.364 68.6172C155.013 69.1536 155.751 69.5722 156.544 69.8538C157.413 70.165 158.321 70.3543 159.242 70.4165V72.7814H161.454V70.3725C162.683 70.2382 163.835 69.7098 164.738 68.8663C165.136 68.4846 165.45 68.0245 165.661 67.515C165.872 67.0055 165.975 66.4578 165.963 65.9065C166 65.117 165.771 64.3379 165.312 63.694ZM159.394 61.1357C158.856 60.9723 158.355 60.7033 157.921 60.3445C157.749 60.1915 157.613 60.0023 157.523 59.7905C157.433 59.5787 157.39 59.3496 157.399 59.1195C157.383 58.5976 157.575 58.0906 157.932 57.71C158.329 57.3106 158.84 57.0452 159.394 56.951V61.1357ZM162.69 67.3717C162.317 67.7551 161.83 68.0088 161.302 68.0955V64.2156C161.807 64.3511 162.279 64.5874 162.69 64.9101C162.846 65.0434 162.97 65.21 163.053 65.3977C163.136 65.5855 163.175 65.7894 163.168 65.9944C163.188 66.4973 163.018 66.9894 162.69 67.3717Z" fill="#FF6400"/>
<path d="M111.654 97.3487C111.201 97.3479 110.761 97.1977 110.402 96.9214C110.043 96.645 109.785 96.258 109.669 95.8202L108.564 91.6384C108.426 91.1128 108.502 90.5538 108.775 90.084C109.048 89.6143 109.497 89.2721 110.022 89.1325L144.869 79.9222C145.394 79.7849 145.953 79.8616 146.423 80.1354C146.892 80.4091 147.234 80.8578 147.374 81.3831L148.309 84.926L148.134 84.9396C139.197 85.6347 130.646 88.8757 123.493 94.2793L123.442 94.3039L112.174 97.2812C112.004 97.326 111.829 97.3487 111.654 97.3487Z" fill="#2F2E41"/>
<path d="M105.882 118.004C101.795 117.4 97.8852 115.922 94.4205 113.67C92.704 112.555 91.115 111.255 89.6819 109.793C88.2675 108.35 86.9143 106.71 86.2137 104.788C85.5397 103.01 85.5744 101.041 86.3108 99.2879C87.0371 97.5455 88.4246 96.1622 90.1689 95.4415C91.9237 94.7415 94.0439 94.6666 95.7517 95.4332C96.5655 95.79 97.2697 96.357 97.7921 97.076C98.0349 97.4075 98.2147 97.7808 98.3225 98.1773C98.4225 98.5366 98.4316 98.9152 98.3489 99.2789C98.2488 99.642 98.0722 99.9795 97.831 100.269C97.5897 100.558 97.2895 100.792 96.9503 100.956C96.2038 101.339 95.395 101.586 94.5619 101.685C93.724 101.799 92.5203 101.903 91.8466 101.23C91.708 101.097 91.5989 100.936 91.5265 100.758C91.4759 100.622 91.4586 100.475 91.476 100.331C91.4662 100.394 91.5167 100.192 91.5138 100.2C91.5031 100.23 91.457 100.303 91.5226 100.191C91.5431 100.154 91.5659 100.119 91.5909 100.085C91.5686 100.114 91.5197 100.162 91.607 100.079C91.6792 100 91.772 99.9429 91.8749 99.9138C91.9154 99.902 91.9566 99.8926 91.9972 99.8815C92.1006 99.8533 91.8942 99.883 92 99.8796C92.0408 99.8783 92.0821 99.8793 92.1227 99.8775C92.2264 99.8728 92.0204 99.8492 92.1198 99.8742C92.1584 99.8839 92.1966 99.8934 92.2346 99.9054C92.3173 99.9314 92.1761 99.8447 92.2321 99.9096C92.2977 99.9856 92.1632 99.8357 92.2378 99.9093C92.2749 99.9457 92.3099 99.9843 92.3426 100.025C92.472 100.153 92.6464 100.224 92.8282 100.224C93.01 100.224 93.1844 100.153 93.3138 100.025C93.4388 99.894 93.5085 99.72 93.5085 99.5391C93.5085 99.3582 93.4388 99.1842 93.3138 99.0534C92.6366 98.2137 91.299 98.4212 90.614 99.1308C89.7403 100.036 90.0863 101.47 90.9361 102.26C91.8981 103.154 93.2607 103.216 94.4982 103.066C95.544 102.966 96.5632 102.678 97.5068 102.216C98.4444 101.755 99.1777 100.963 99.5647 99.9921C99.7394 99.4741 99.8022 98.925 99.7488 98.381C99.6955 97.8369 99.5272 97.3104 99.2552 96.8363C98.1626 94.7817 95.9002 93.7283 93.6639 93.5459C92.5126 93.4557 91.3548 93.5947 90.2576 93.955C89.1603 94.3153 88.1454 94.8897 87.2715 95.6449C85.5872 97.1616 84.5501 99.2678 84.3745 101.528C84.1793 103.871 85.0882 106.147 86.4134 108.038C87.8007 109.959 89.4562 111.672 91.3294 113.123C94.9914 116.047 99.2869 118.074 103.872 119.04C104.418 119.152 104.966 119.249 105.517 119.329C105.693 119.372 105.878 119.346 106.035 119.257C106.192 119.167 106.309 119.022 106.362 118.849C106.409 118.674 106.385 118.487 106.295 118.329C106.206 118.17 106.057 118.054 105.882 118.004Z" fill="#3F3D56"/>
<path d="M171.329 88.15C165.34 88.0654 159.37 88.2175 153.418 88.6061C151.384 88.7389 149.624 89.4581 149.624 90.6668C149.624 91.6774 151.37 92.8613 153.418 92.7275C159.367 92.339 165.337 92.1869 171.329 92.2714C176.214 92.3404 176.211 88.2189 171.329 88.15Z" fill="#CCCCCC"/>
<path d="M162.477 92.0673C161.83 92.0673 146.625 92.0431 146.625 89.9424C146.625 87.8418 161.83 87.8177 162.477 87.8177C163.124 87.8177 178.329 87.8418 178.329 89.9424C178.329 92.0431 163.124 92.0673 162.477 92.0673ZM147.22 89.9424C147.636 90.5793 153.225 91.4812 162.477 91.4812C171.729 91.4812 177.318 90.5793 177.734 89.9424C177.318 89.3056 171.729 88.4038 162.477 88.4038C153.225 88.4038 147.636 89.3056 147.22 89.9424Z" fill="#3F3D56"/>
<path d="M210.717 147.292C214.082 147.198 218.271 147.082 221.498 144.724C222.459 143.993 223.249 143.061 223.812 141.992C224.374 140.924 224.697 139.745 224.756 138.539C224.822 136.677 224.15 135.052 222.862 133.964C221.177 132.539 218.716 132.205 216.063 132.985L218.811 112.897L216.794 112.62L213.563 136.236L215.248 135.463C217.201 134.567 219.882 134.111 221.548 135.519C221.957 135.887 222.276 136.345 222.479 136.856C222.683 137.368 222.766 137.919 222.722 138.468C222.672 139.365 222.43 140.242 222.012 141.038C221.593 141.833 221.009 142.529 220.297 143.079C217.786 144.914 214.447 145.15 210.66 145.256L210.717 147.292Z" fill="#3F3D56"/>
<path d="M205.139 114.629H194.172V116.666H205.139V114.629Z" fill="#3F3D56"/>
<path d="M116.616 106.716C116.128 106.715 115.656 106.539 115.286 106.221C114.915 105.904 114.67 105.464 114.594 104.982L113.924 100.709C113.841 100.172 113.973 99.6229 114.294 99.1834C114.614 98.7439 115.096 98.4495 115.633 98.3648L151.239 92.7844C151.776 92.7008 152.324 92.8338 152.764 93.1542C153.203 93.4746 153.497 93.9563 153.582 94.4935L154.251 98.7667C154.335 99.3041 154.202 99.8527 153.882 100.292C153.562 100.732 153.08 101.026 152.543 101.111L116.937 106.691C116.831 106.708 116.724 106.716 116.616 106.716Z" fill="#2F2E41"/>
<path d="M101.881 56.6395C110.133 56.6395 116.823 49.9483 116.823 41.6942C116.823 33.4401 110.133 26.7488 101.881 26.7488C93.6287 26.7488 86.939 33.4401 86.939 41.6942C86.939 49.9483 93.6287 56.6395 101.881 56.6395Z" fill="#FF6400"/>
<path d="M110.341 45.5612C110.818 45.3941 111.254 45.1267 111.62 44.777C111.862 44.5276 112.046 44.2284 112.16 43.9002C112.275 43.572 112.316 43.2229 112.281 42.8772C112.26 42.6308 112.183 42.3924 112.056 42.1807C111.928 41.9691 111.753 41.7898 111.545 41.6569C111.004 41.3243 110.289 41.3368 109.568 41.6713L109.485 35.8374L108.899 35.8457L108.997 42.7041L109.443 42.4116C109.96 42.0728 110.703 41.8272 111.238 42.1561C111.37 42.2432 111.48 42.3596 111.56 42.4963C111.64 42.633 111.687 42.7863 111.698 42.9443C111.723 43.2018 111.692 43.4617 111.607 43.7061C111.522 43.9505 111.386 44.1738 111.207 44.3608C110.572 44.9912 109.632 45.2024 108.559 45.3956L108.663 45.9723C109.233 45.8857 109.795 45.7481 110.341 45.5612Z" fill="#2F2E41"/>
<path d="M115.518 35.4279L112.398 35.9006L112.486 36.48L115.606 36.0073L115.518 35.4279Z" fill="#2F2E41"/>
<path d="M105.669 36.9195L102.549 37.3922L102.637 37.9716L105.757 37.4989L105.669 36.9195Z" fill="#2F2E41"/>
<path d="M111.755 106.455C111.218 106.454 110.693 106.289 110.252 105.982C109.81 105.676 109.473 105.242 109.284 104.739L98.9819 77.1432C97.7228 73.7588 97.8572 70.0129 99.3558 66.7275C100.854 63.4421 103.595 60.8854 106.976 59.6184L115.352 56.4898C115.676 56.368 116.021 56.3114 116.367 56.3234C116.713 56.3355 117.053 56.4158 117.367 56.5597C117.681 56.7 117.964 56.9015 118.199 57.1524C118.434 57.4032 118.617 57.6985 118.737 58.0208L137.821 94.0608C137.944 94.3858 138.003 94.7321 137.992 95.0797C137.982 95.4274 137.903 95.7695 137.76 96.0865C137.617 96.4035 137.412 96.689 137.158 96.9267C136.905 97.1643 136.606 97.3494 136.28 97.4713L112.676 106.287C112.382 106.398 112.07 106.455 111.755 106.455Z" fill="#2F2E41"/>
<path d="M112.811 57.4389L131.745 82.7656L118.933 57.7047C118.827 57.4123 118.665 57.1436 118.455 56.914C118.246 56.6844 117.993 56.4983 117.711 56.3664C117.43 56.2346 117.125 56.1595 116.814 56.1454C116.504 56.1314 116.193 56.1787 115.901 56.2846L112.811 57.4389Z" fill="#E6E6E6"/>
<path d="M142.792 76.673L108.984 74.4948C108.451 74.4605 107.93 74.3215 107.451 74.0858C106.971 73.8501 106.543 73.5223 106.191 73.1211C105.838 72.7199 105.568 72.2532 105.396 71.7476C105.224 71.242 105.153 70.7075 105.187 70.1744C105.221 69.6414 105.36 69.1204 105.596 68.6411C105.832 68.1618 106.159 67.7336 106.56 67.3809C106.961 67.0283 107.428 66.7582 107.933 66.5859C108.439 66.4136 108.973 66.3426 109.506 66.377L143.314 68.5551C143.564 68.5711 143.808 68.6362 144.032 68.7466C144.257 68.8569 144.457 69.0104 144.622 69.1983C144.787 69.3862 144.914 69.6048 144.995 69.8415C145.075 70.0783 145.108 70.3287 145.092 70.5783L144.814 74.8946C144.782 75.3988 144.551 75.8693 144.171 76.2028C143.792 76.5364 143.296 76.7055 142.792 76.673Z" fill="#FF6400"/>
<path d="M133.758 78.0694C133.713 78.0694 133.668 78.068 133.623 78.0652L105.862 76.2765C105.593 76.2593 105.33 76.1892 105.089 76.0703C104.847 75.9515 104.631 75.7862 104.453 75.5838C104.276 75.3815 104.139 75.1461 104.052 74.8911C103.966 74.6362 103.93 74.3666 103.947 74.0977L104.422 66.7252C104.439 66.4564 104.509 66.1936 104.628 65.9518C104.747 65.7101 104.912 65.4942 105.115 65.3163C105.317 65.1385 105.552 65.0022 105.807 64.9154C106.062 64.8285 106.332 64.7928 106.6 64.8101L134.362 66.5986C134.904 66.6341 135.411 66.8835 135.769 67.292C136.128 67.7004 136.311 68.2346 136.276 68.7774L135.802 76.15C135.776 76.5451 135.636 76.9242 135.4 77.2418C135.163 77.5595 134.841 77.8022 134.47 77.9408C134.242 78.026 134.001 78.0696 133.758 78.0694Z" fill="#2F2E41"/>
<path d="M101.709 31.7558C103.675 30.0648 106.374 31.5775 108.629 31.3127C110.785 31.0593 112.488 29.1243 112.923 27.0687C113.431 24.6704 112.186 22.2676 110.352 20.7723C108.343 19.1346 105.678 18.6645 103.153 18.9675C100.259 19.3147 97.6128 20.664 95.238 22.2961C92.9458 23.8226 90.8378 25.6093 88.9561 27.6205C87.2712 29.4818 85.8436 31.7005 85.3878 34.2051C84.9735 36.4814 85.2898 39.0038 86.6351 40.9321C87.3485 41.9204 88.3045 42.7082 89.4108 43.2194C90.5644 43.786 91.7949 44.191 92.9125 44.8316C94.6023 45.8002 96.2447 47.8086 95.7153 49.8987C95.6019 50.3552 95.3779 50.7769 95.0632 51.1265C94.6851 51.5464 94.003 50.9916 94.3821 50.5706C95.048 49.8312 95.0218 48.8452 94.6669 47.9624C94.2449 46.9677 93.4977 46.1458 92.5477 45.6315C91.3778 44.9624 90.0863 44.5495 88.8872 43.9401C87.7396 43.3835 86.7434 42.5577 85.9834 41.5331C84.5484 39.5383 84.1191 36.9423 84.4446 34.5407C84.7968 31.9418 86.1317 29.5802 87.8052 27.6012C89.6264 25.4475 91.8635 23.6244 94.1488 21.9867C96.6011 20.2293 99.3103 18.7436 102.308 18.2062C104.907 17.7404 107.724 18.0272 109.996 19.4437C112.118 20.766 113.744 23.0405 113.906 25.5821C113.964 26.7385 113.713 27.8895 113.179 28.9166C112.644 29.9438 111.846 30.8099 110.866 31.426C109.86 32.028 108.691 32.2989 107.523 32.2006C106.275 32.1207 105.025 31.7383 103.768 31.8445C103.2 31.879 102.658 32.098 102.225 32.4682C101.795 32.8377 101.284 32.1222 101.709 31.7558Z" fill="#2F2E41"/>
<path d="M273.651 193H57.3488C57.2565 193 57.168 192.963 57.1028 192.897C57.0376 192.832 57.001 192.743 57.001 192.651C57.001 192.559 57.0376 192.47 57.1028 192.405C57.168 192.339 57.2565 192.302 57.3488 192.302H273.651C273.744 192.302 273.832 192.339 273.898 192.404C273.963 192.47 274 192.559 274 192.651C274 192.744 273.963 192.832 273.898 192.898C273.832 192.963 273.744 193 273.651 193Z" fill="#3F3D56"/>
</g>
<defs>
<filter id="filter0_d_1_229" x="0" y="8" width="312" height="242" filterUnits="userSpaceOnUse" color-interpolation-filters="sRGB">
<feFlood flood-opacity="0" result="BackgroundImageFix"/>
<feColorMatrix in="SourceAlpha" type="matrix" values="0 0 0 0 0 0 0 0 0 0 0 0 0 0 0 0 0 0 127 0" result="hardAlpha"/>
<feOffset/>
<feGaussianBlur stdDeviation="2"/>
<feComposite in2="hardAlpha" operator="out"/>
<feColorMatrix type="matrix" values="0 0 0 0 0 0 0 0 0 0 0 0 0 0 0 0 0 0 0.25 0"/>
<feBlend mode="normal" in2="BackgroundImageFix" result="effect1_dropShadow_1_229"/>
<feBlend mode="normal" in="SourceGraphic" in2="effect1_dropShadow_1_229" result="shape"/>
</filter>
<filter id="filter1_d_1_229" x="0" y="0" width="312" height="242" filterUnits="userSpaceOnUse" color-interpolation-filters="sRGB">
<feFlood flood-opacity="0" result="BackgroundImageFix"/>
<feColorMatrix in="SourceAlpha" type="matrix" values="0 0 0 0 0 0 0 0 0 0 0 0 0 0 0 0 0 0 127 0" result="hardAlpha"/>
<feOffset/>
<feGaussianBlur stdDeviation="2"/>
<feComposite in2="hardAlpha" operator="out"/>
<feColorMatrix type="matrix" values="0 0 0 0 0 0 0 0 0 0 0 0 0 0 0 0 0 0 0.25 0"/>
<feBlend mode="normal" in2="BackgroundImageFix" result="effect1_dropShadow_1_229"/>
<feBlend mode="normal" in="SourceGraphic" in2="effect1_dropShadow_1_229" result="shape"/>
</filter>
<clipPath id="clip0_1_229">
<rect width="217" height="175" fill="white" transform="translate(57 18)"/>
</clipPath>
</defs>
</svg>
