<svg width="312" height="256" viewBox="0 0 312 256" fill="none" xmlns="http://www.w3.org/2000/svg">
<g filter="url(#filter0_d_3_8)">
<rect x="4" y="6" width="304" height="246" rx="31" fill="#55877E"/>
</g>
<g filter="url(#filter1_d_3_8)">
<rect x="4" y="4" width="304" height="239" rx="31" fill="white"/>
</g>
<g clip-path="url(#clip0_3_8)">
<path d="M144.025 66.106C143.981 66.106 143.937 66.1044 143.893 66.1016C140.981 65.9134 131.017 64.4956 125.066 54.1462C124.627 53.3822 124.714 52.4102 125.283 51.728C130.252 47.6627 134.134 43.2628 136.425 38.3739C136.839 37.878 137.46 37.6068 138.088 37.618C138.733 37.6334 139.328 37.939 139.72 38.4565C142.545 42.1907 148.122 48.8012 153.734 51.1188C154.365 51.3796 154.822 51.9086 154.987 52.5713C155.152 53.2284 155 53.9057 154.571 54.4296L145.644 65.3325C145.243 65.8229 144.645 66.106 144.025 66.106Z" fill="#E6E6E6"/>
<path d="M127.125 52.3847C126.973 52.5673 126.945 52.8276 127.056 53.0334C132.439 63.0045 142.063 63.7867 143.938 63.8421C144.118 63.8525 144.287 63.7708 144.402 63.6308L153.264 52.8065C153.39 52.653 153.428 52.4572 153.371 52.2683C153.312 52.0785 153.169 51.9369 152.978 51.8811C146.959 50.1117 140.644 41.916 138.852 39.446C138.747 39.3017 138.585 39.2152 138.408 39.2092C138.226 39.2074 138.06 39.2794 137.944 39.4181C135.379 44.4475 131.789 48.7805 127.125 52.3847Z" fill="white"/>
<path d="M131.587 54.7203L139.621 46.4812C140.17 45.918 139.309 45.0512 138.76 45.6151L130.726 53.8542C130.177 54.4174 131.038 55.2842 131.587 54.7203Z" fill="#E6E6E6"/>
<path d="M136.436 57.0415C138.653 55.0427 140.58 52.7282 142.157 50.1886C142.574 49.5182 141.521 48.9027 141.106 49.5704C139.581 52.0257 137.718 54.2432 135.575 56.1755C134.99 56.7027 135.854 57.5665 136.436 57.0415Z" fill="#E6E6E6"/>
<path d="M140.806 59.821C142.824 57.5717 144.543 55.0615 145.895 52.3536C146.246 51.6512 145.196 51.0303 144.844 51.7355C143.537 54.3517 141.896 56.7813 139.945 58.9549C139.421 59.5387 140.279 60.4076 140.806 59.821Z" fill="#E6E6E6"/>
<path d="M151.33 69.3721C151.286 69.3721 151.242 69.3705 151.198 69.3677C148.286 69.1795 138.323 67.7617 132.372 57.4123C131.932 56.6484 132.019 55.6763 132.588 54.9941C137.309 50.8752 140.864 46.3711 143.731 41.6401C144.145 41.1441 144.766 40.873 145.394 40.8841C146.039 40.8995 146.634 41.2051 147.025 41.7226C149.85 45.4568 155.428 52.0673 161.04 54.3849C161.671 54.6457 162.128 55.1748 162.293 55.8374C162.457 56.4945 162.305 57.1719 161.876 57.6957L152.95 68.5986C152.549 69.089 151.951 69.3721 151.33 69.3721Z" fill="#E6E6E6"/>
<path d="M134.43 55.6508C134.278 55.8334 134.251 56.0937 134.361 56.2995C139.745 66.2706 149.369 67.0528 151.243 67.1083C151.424 67.1186 151.593 67.0369 151.708 66.8969L160.57 56.0726C160.695 55.9191 160.734 55.7234 160.676 55.5344C160.618 55.3446 160.475 55.203 160.284 55.1472C154.265 53.3778 147.949 45.1821 146.157 42.7121C146.052 42.5678 145.891 42.4813 145.713 42.4753C145.531 42.4735 145.365 42.5455 145.249 42.6842C142.178 47.8187 138.722 52.3702 134.43 55.6508Z" fill="white"/>
<path d="M138.893 57.9864L146.926 49.7473C147.476 49.1841 146.615 48.3173 146.065 48.8812L138.032 57.1203C137.483 57.6835 138.343 58.5503 138.893 57.9864Z" fill="#E6E6E6"/>
<path d="M143.742 60.3077C145.959 58.3088 147.885 55.9943 149.463 53.4547C149.879 52.7843 148.826 52.1688 148.412 52.8365C146.886 55.2918 145.024 57.5093 142.881 59.4416C142.296 59.9688 143.159 60.8326 143.742 60.3077Z" fill="#E6E6E6"/>
<path d="M148.112 63.0871C150.13 60.8379 151.848 58.3276 153.201 55.6198C153.552 54.9173 152.502 54.2964 152.15 55.0016C150.843 57.6178 149.201 60.0474 147.251 62.221C146.727 62.8048 147.585 63.6737 148.112 63.0871Z" fill="#E6E6E6"/>
<path d="M231.288 145.31C231.244 145.31 231.2 145.309 231.156 145.306C228.244 145.118 218.28 143.7 212.329 133.35C211.89 132.587 211.977 131.615 212.546 130.932L223.688 117.578C224.102 117.082 224.723 116.811 225.351 116.822C225.997 116.838 226.825 117.03 226.983 117.661C228.266 122.786 233.795 129.44 240.997 130.323C241.674 130.406 242.085 131.113 242.25 131.776C242.415 132.433 242.263 133.11 241.834 133.634L232.907 144.537C232.506 145.027 231.908 145.31 231.288 145.31Z" fill="#E6E6E6"/>
<path d="M214.388 131.589C214.236 131.772 214.208 132.032 214.319 132.238C219.702 142.209 229.326 142.991 231.201 143.046C231.381 143.057 231.551 142.975 231.665 142.835L240.527 132.011C240.653 131.857 240.691 131.662 240.634 131.473C240.576 131.283 240.44 131.095 240.241 131.085C232.58 130.724 226.426 122.39 226.115 118.65C226.1 118.472 225.848 118.42 225.671 118.414C225.489 118.412 225.323 118.484 225.207 118.622L214.388 131.589Z" fill="white"/>
<path d="M218.85 133.925L226.884 125.686C227.433 125.122 226.573 124.256 226.023 124.819L217.989 133.059C217.44 133.622 218.301 134.489 218.85 133.925Z" fill="#E6E6E6"/>
<path d="M223.699 136.246C225.916 134.247 227.843 131.933 229.42 129.393C229.837 128.723 228.784 128.107 228.369 128.775C226.844 131.23 224.981 133.448 222.838 135.38C222.253 135.907 223.117 136.771 223.699 136.246Z" fill="#E6E6E6"/>
<path d="M228.069 139.025C230.087 136.776 231.806 134.266 233.158 131.558C233.509 130.856 232.459 130.235 232.107 130.94C230.8 133.556 229.159 135.986 227.208 138.159C226.684 138.743 227.542 139.612 228.069 139.025Z" fill="#E6E6E6"/>
<path d="M197.907 216.493L193.094 216.493L190.804 197.817L197.908 197.818L197.907 216.493Z" fill="#FFB6B6"/>
<path d="M181.416 216.383C181.266 216.637 181.187 217.457 181.187 217.752C181.187 218.66 181.919 219.395 182.821 219.395H197.727C198.343 219.395 198.842 218.893 198.842 218.274V217.65C198.842 217.65 199.579 215.774 198.061 213.461C198.061 213.461 196.174 215.272 193.354 212.436L192.523 210.921L186.504 215.348L183.168 215.761C182.439 215.852 181.792 215.747 181.416 216.383Z" fill="#2F2E41"/>
<path d="M242.354 206.938L238.254 209.475L226.576 194.775L232.627 191.031L242.354 206.938Z" fill="#FFB6B6"/>
<path d="M228.251 215.537C228.256 215.832 228.615 216.572 228.769 216.823C229.242 217.596 230.248 217.837 231.016 217.362L243.713 209.505C244.237 209.181 244.4 208.49 244.078 207.963L243.753 207.431C243.753 207.431 243.403 205.444 240.906 204.275C240.906 204.275 240.242 206.812 236.363 205.882L234.866 205.03L232.046 211.973L229.42 214.083C228.845 214.545 228.24 214.797 228.251 215.537Z" fill="#2F2E41"/>
<path d="M212.101 129.145C211.863 128.099 211.881 127.085 212.105 126.244L209.204 116.434L213.926 115.146L216.36 125.236C216.924 125.89 217.379 126.793 217.618 127.838C218.162 130.227 217.368 132.455 215.845 132.816C214.322 133.177 212.646 131.533 212.101 129.145Z" fill="#FFB6B6"/>
<path d="M185.234 63.7554C185.234 63.7554 192.844 60.4236 197.093 65.2383C200.96 69.6208 208.812 82.8081 208.005 84.0911L215.735 120.829L210.006 122.604L194.808 80.3474L185.234 63.7554Z" fill="#FF6400"/>
<path d="M176.853 118.2L180.774 164.213L190.249 206.94L200.378 205.954L195.477 159.283L198.477 117.807L176.853 118.2Z" fill="#2F2E41"/>
<path d="M177.664 128.184L202.085 167.29L229.949 200.918L238.506 195.378L212.915 156.138C208.998 138.853 204.66 122.853 196.711 117.88L177.664 128.184Z" fill="#2F2E41"/>
<path d="M179.089 128.375C177.943 128.375 176.834 127.969 175.93 127.198C174.716 126.163 174.084 124.653 174.195 123.057L176.325 102.497L175.512 80.0461L175.517 80.0217L178.046 67.8215C178.071 67.4338 178.152 67.0233 178.282 66.6292L182.018 55.3312C182.69 53.299 184.571 51.9337 186.7 51.9337H190.004C191.658 51.9337 193.193 52.76 194.11 54.1443L197.002 58.5076C197.194 58.7975 197.356 59.1087 197.484 59.4326L203.868 75.6404C204.071 76.1549 204.186 76.6962 204.211 77.249L206.191 122.23C206.257 123.724 205.66 125.153 204.553 126.151C203.453 127.144 201.985 127.583 200.529 127.357C192.192 126.062 184.896 127.121 180.243 128.237C179.858 128.33 179.471 128.375 179.089 128.375Z" fill="#FF6400"/>
<path d="M178.16 83.6898L172.605 79.4171C172.605 79.4171 175.219 56.0818 182.081 56.0818C188.942 56.0818 192.536 52.1378 192.536 52.1378C192.536 52.1378 217.042 86.6478 210.18 90.5918C203.319 94.5358 193.843 92.5638 193.843 92.5638L190.506 63.0831C190.096 61.5247 187.964 61.356 187.316 62.8307L178.16 83.6898Z" fill="#3F3D56"/>
<path d="M187.298 50.9281C192.543 50.9281 196.795 46.6508 196.795 41.3745C196.795 36.0982 192.543 31.8209 187.298 31.8209C182.052 31.8209 177.8 36.0982 177.8 41.3745C177.8 46.6508 182.052 50.9281 187.298 50.9281Z" fill="#FFB6B6"/>
<path d="M194.819 48.5967C193.962 48.9185 192.649 49.4188 191.792 49.7406C190.993 48.1384 191.972 47.307 192.074 45.5174C192.107 44.9202 192.193 44.3224 192.144 43.7262C192.095 43.1301 191.891 42.5182 191.444 42.1237C190.76 41.5203 189.621 41.6184 188.959 42.246C188.297 42.8736 188.108 43.9105 188.379 44.7842C185.775 43.6518 184.092 40.6811 184.452 37.8504C183.674 37.5437 182.877 37.2329 182.042 37.2094C181.207 37.186 180.313 37.5065 179.868 38.2176C179.556 38.7163 179.493 39.3492 179.143 39.8216C178.574 40.589 177.345 40.6485 176.589 40.0663C175.834 39.4842 175.545 38.4262 175.706 37.4827C175.867 36.5392 174.694 34.6137 175.351 33.9204C175.798 33.4474 178.021 34.1176 178.52 33.7004C178.976 33.3197 179.433 32.9378 179.936 32.6221C180.573 32.2212 181.279 31.931 182.014 31.7679C182.708 31.6136 183.422 31.5731 184.132 31.533C184.853 31.4924 185.85 30.0484 186.571 30.0078C188.694 29.8881 190.591 31.1774 192.627 31.7912C194.663 32.405 195.945 34.1676 197.072 35.9807C198.677 38.5633 198.132 41.3931 197.026 43.8625C196.753 44.4729 197.67 45.1144 197.534 45.7697C197.408 46.3789 196.84 46.8202 196.708 47.428C196.594 47.9477 195.924 47.3456 195.764 47.8528C195.626 48.2904 195.219 48.5994 194.784 48.7391C194.349 48.8788 193.884 48.876 193.427 48.8718" fill="#2F2E41"/>
<path d="M192.78 51.8926L193.115 52.1378L193.959 52.7558C196.496 54.6139 196.26 58.4927 193.517 60.0258L190.086 54.5135" fill="#3F3D56"/>
<path d="M247.978 212.923C248.816 212.976 249.28 211.928 248.645 211.318L248.582 211.065C248.59 211.045 248.599 211.025 248.607 211.005C249.455 208.971 252.329 208.985 253.17 211.022C253.916 212.83 254.866 214.641 255.1 216.552C255.205 217.396 255.158 218.256 254.972 219.084C256.72 215.242 257.64 211.046 257.64 206.827C257.64 205.767 257.583 204.707 257.465 203.649C257.368 202.785 257.234 201.925 257.061 201.073C256.125 196.469 254.099 192.084 251.176 188.421C249.771 187.648 248.599 186.441 247.891 184.993C247.637 184.471 247.437 183.909 247.343 183.337C247.503 183.358 247.946 180.908 247.825 180.758C248.048 180.418 248.447 180.249 248.69 179.917C249.901 178.266 251.569 178.554 252.439 180.798C254.299 181.742 254.317 183.308 253.176 184.814C252.45 185.772 252.35 187.068 251.713 188.094C251.779 188.178 251.847 188.26 251.912 188.345C253.114 189.895 254.154 191.562 255.03 193.313C254.782 191.367 255.148 189.022 255.771 187.511C256.481 185.789 257.811 184.339 258.982 182.851C260.389 181.063 263.273 181.843 263.521 184.11C263.524 184.132 263.526 184.154 263.528 184.175C263.354 184.274 263.184 184.379 263.017 184.49C262.068 185.122 262.396 186.602 263.521 186.777L263.547 186.781C263.484 187.411 263.376 188.036 263.219 188.65C264.721 194.495 261.478 196.624 256.846 196.72C256.744 196.772 256.644 196.825 256.542 196.875C257.011 198.204 257.386 199.567 257.664 200.949C257.913 202.17 258.086 203.404 258.183 204.644C258.304 206.207 258.293 207.779 258.162 209.34L258.17 209.285C258.503 207.565 259.431 205.959 260.778 204.847C262.786 203.188 265.621 202.577 267.787 201.244C268.829 200.602 270.165 201.432 269.983 202.647L269.974 202.705C269.652 202.837 269.337 202.99 269.033 203.162C268.859 203.26 268.689 203.365 268.522 203.476C267.573 204.108 267.901 205.588 269.026 205.763L269.052 205.767C269.07 205.77 269.086 205.772 269.104 205.775C268.551 207.096 267.78 208.322 266.816 209.38C265.876 214.482 261.841 214.966 257.525 213.48H257.522C257.05 215.547 256.361 217.567 255.475 219.492H248.161C248.135 219.411 248.111 219.326 248.088 219.244C248.764 219.287 249.445 219.247 250.111 219.123C249.569 218.453 249.026 217.778 248.483 217.109C248.47 217.095 248.46 217.082 248.449 217.069C248.174 216.726 247.896 216.386 247.621 216.043L247.621 216.043C247.604 214.99 247.729 213.941 247.978 212.923Z" fill="#F2F2F2"/>
<path d="M121.527 219.514C121.527 219.784 121.742 220 122.01 220H269.46C269.728 220 269.943 219.784 269.943 219.514C269.943 219.245 269.728 219.028 269.46 219.028H122.01C121.742 219.028 121.527 219.245 121.527 219.514Z" fill="#CCCCCC"/>
<path d="M144.882 63.2626C145.739 63.8311 146.396 64.5471 146.797 65.2776L155.296 70.1754L152.861 74.1754L144.501 68.7764C143.676 68.6936 142.763 68.3668 141.906 67.7983C139.95 66.4994 139.03 64.4311 139.851 63.1786C140.673 61.9261 142.925 61.9637 144.882 63.2626Z" fill="#FFB6B6"/>
<path d="M184.872 58.0996C190.292 54.7559 195.738 62.413 190.919 66.585L190.903 66.5992L171.647 84.8168L148.602 73.3699L150.881 67.1893L168.735 74.3035L182.128 60.3179C183.06 59.3789 183.977 58.6512 184.872 58.0996Z" fill="#FF6400"/>
<path d="M70.7192 88.5179C70.2715 88.5179 69.9075 88.8842 69.9075 89.3345V101.991C69.9075 102.441 70.2715 102.807 70.7192 102.807C71.1669 102.807 71.531 102.441 71.531 101.991V89.3345C71.531 88.8842 71.1669 88.5179 70.7192 88.5179Z" fill="#3F3D56"/>
<path d="M78.6748 100.713C81.4686 100.713 83.7333 98.4833 83.7333 95.7323C83.7333 92.9812 81.4686 90.7511 78.6748 90.7511C75.8811 90.7511 73.6163 92.9812 73.6163 95.7323C73.6163 98.4833 75.8811 100.713 78.6748 100.713Z" fill="#FF6400"/>
<path d="M119.227 94.0282H91.9988C91.0647 94.0282 90.3047 93.2637 90.3047 92.3241C90.3047 91.3845 91.0647 90.62 91.9988 90.62H119.227C120.161 90.62 120.921 91.3845 120.921 92.3241C120.921 93.2637 120.161 94.0282 119.227 94.0282Z" fill="#55877E"/>
<path d="M140.476 99.7959H91.9988C91.0647 99.7959 90.3047 99.0314 90.3047 98.0918C90.3047 97.1522 91.0647 96.3877 91.9988 96.3877H140.476C141.41 96.3877 142.17 97.1522 142.17 98.0918C142.17 99.0314 141.41 99.7959 140.476 99.7959Z" fill="#55877E"/>
<path d="M48.0585 127.651C50.8523 127.651 53.1171 125.421 53.1171 122.67C53.1171 119.919 50.8523 117.689 48.0585 117.689C45.2648 117.689 43 119.919 43 122.67C43 125.421 45.2648 127.651 48.0585 127.651Z" fill="#FF6400"/>
<path d="M88.6106 120.966H61.3826C60.4485 120.966 59.6885 120.201 59.6885 119.262C59.6885 118.322 60.4485 117.558 61.3826 117.558H88.6106C89.5447 117.558 90.3047 118.322 90.3047 119.262C90.3047 120.201 89.5447 120.966 88.6106 120.966Z" fill="#55877E"/>
<path d="M95.5694 143.986C98.3632 143.986 100.628 141.756 100.628 139.005C100.628 136.254 98.3632 134.024 95.5694 134.024C92.7757 134.024 90.5109 136.254 90.5109 139.005C90.5109 141.756 92.7757 143.986 95.5694 143.986Z" fill="#FF6400"/>
<path d="M157.37 143.068H108.893C107.959 143.068 107.199 142.304 107.199 141.364C107.199 140.425 107.959 139.66 108.893 139.66H157.37C158.305 139.66 159.065 140.425 159.065 141.364C159.065 142.304 158.304 143.068 157.37 143.068Z" fill="#55877E"/>
<path d="M145.394 50.8465C148.188 50.8465 150.452 48.6163 150.452 45.8653C150.452 43.1143 148.188 40.8842 145.394 40.8842C142.6 40.8842 140.335 43.1143 140.335 45.8653C140.335 48.6163 142.6 50.8465 145.394 50.8465Z" fill="#FF6400"/>
<path d="M238.506 134.353C241.3 134.353 243.565 132.123 243.565 129.372C243.565 126.621 241.3 124.391 238.506 124.391C235.713 124.391 233.448 126.621 233.448 129.372C233.448 132.123 235.713 134.353 238.506 134.353Z" fill="#FF6400"/>
</g>
<defs>
<filter id="filter0_d_3_8" x="0" y="2" width="312" height="254" filterUnits="userSpaceOnUse" color-interpolation-filters="sRGB">
<feFlood flood-opacity="0" result="BackgroundImageFix"/>
<feColorMatrix in="SourceAlpha" type="matrix" values="0 0 0 0 0 0 0 0 0 0 0 0 0 0 0 0 0 0 127 0" result="hardAlpha"/>
<feOffset/>
<feGaussianBlur stdDeviation="2"/>
<feComposite in2="hardAlpha" operator="out"/>
<feColorMatrix type="matrix" values="0 0 0 0 0 0 0 0 0 0 0 0 0 0 0 0 0 0 0.25 0"/>
<feBlend mode="normal" in2="BackgroundImageFix" result="effect1_dropShadow_3_8"/>
<feBlend mode="normal" in="SourceGraphic" in2="effect1_dropShadow_3_8" result="shape"/>
</filter>
<filter id="filter1_d_3_8" x="0" y="0" width="312" height="247" filterUnits="userSpaceOnUse" color-interpolation-filters="sRGB">
<feFlood flood-opacity="0" result="BackgroundImageFix"/>
<feColorMatrix in="SourceAlpha" type="matrix" values="0 0 0 0 0 0 0 0 0 0 0 0 0 0 0 0 0 0 127 0" result="hardAlpha"/>
<feOffset/>
<feGaussianBlur stdDeviation="2"/>
<feComposite in2="hardAlpha" operator="out"/>
<feColorMatrix type="matrix" values="0 0 0 0 0 0 0 0 0 0 0 0 0 0 0 0 0 0 0.25 0"/>
<feBlend mode="normal" in2="BackgroundImageFix" result="effect1_dropShadow_3_8"/>
<feBlend mode="normal" in="SourceGraphic" in2="effect1_dropShadow_3_8" result="shape"/>
</filter>
<clipPath id="clip0_3_8">
<rect width="227" height="190" fill="white" transform="translate(43 30)"/>
</clipPath>
</defs>
</svg>
