<svg width="25" height="24" viewBox="0 0 25 24" fill="none" xmlns="http://www.w3.org/2000/svg">
<path d="M15.3344 11.25H9.70935C9.32104 11.25 9.00623 11.5648 9.00623 11.9531V23.2969C9.00623 23.6852 9.32104 24 9.70935 24H15.3344C15.7227 24 16.0375 23.6852 16.0375 23.2969V11.9531C16.0375 11.5648 15.7227 11.25 15.3344 11.25ZM14.6312 22.5938H10.4125V12.6562H14.6312V22.5938Z" fill="black"/>
<path d="M23.7719 16.875H18.1469C17.7585 16.875 17.4437 17.1898 17.4437 17.5781V23.2969C17.4437 23.6852 17.7585 24 18.1469 24H23.7719C24.1602 24 24.475 23.6852 24.475 23.2969V17.5781C24.475 17.1898 24.1602 16.875 23.7719 16.875ZM23.0687 22.5938H18.85V18.2812H23.0687V22.5938Z" fill="black"/>
<path d="M6.89685 14.0625H1.27185C0.883538 14.0625 0.568726 14.3773 0.568726 14.7656V23.2969C0.568726 23.6852 0.883538 24 1.27185 24H6.89685C7.28516 24 7.59998 23.6852 7.59998 23.2969V14.7656C7.59998 14.3773 7.28516 14.0625 6.89685 14.0625ZM6.19373 22.5938H1.97498V15.4688H6.19373V22.5938Z" fill="black"/>
<path d="M14.427 4.3133C14.8448 3.85491 15.1 3.24577 15.1 2.57812C15.1 1.15655 13.9434 0 12.5219 0C11.1003 0 9.94373 1.15655 9.94373 2.57812C9.94373 3.24577 10.1989 3.85491 10.6167 4.3133C9.64865 4.94016 9.00623 6.02892 9.00623 7.26562V8.67188C9.00623 9.06019 9.32104 9.375 9.70935 9.375H15.3344C15.7227 9.375 16.0375 9.06019 16.0375 8.67188V7.26562C16.0375 6.02892 15.3951 4.94016 14.427 4.3133ZM11.35 2.57812C11.35 1.93195 11.8757 1.40625 12.5219 1.40625C13.168 1.40625 13.6937 1.93195 13.6937 2.57812C13.6937 3.2243 13.168 3.75 12.5219 3.75C11.8757 3.75 11.35 3.2243 11.35 2.57812ZM14.6312 7.96875H10.4125V7.26562C10.4125 6.10252 11.3587 5.15625 12.5219 5.15625C13.685 5.15625 14.6312 6.10252 14.6312 7.26562V7.96875Z" fill="black"/>
<path d="M5.98949 7.1258C6.40733 6.66741 6.66248 6.05827 6.66248 5.39062C6.66248 3.96905 5.50593 2.8125 4.08435 2.8125C2.66277 2.8125 1.50623 3.96905 1.50623 5.39062C1.50623 6.05827 1.76137 6.66741 2.17921 7.1258C1.21115 7.75266 0.568726 8.84142 0.568726 10.0781V11.4844C0.568726 11.8727 0.883538 12.1875 1.27185 12.1875H6.89685C7.28516 12.1875 7.59998 11.8727 7.59998 11.4844V10.0781C7.59998 8.84142 6.95755 7.75266 5.98949 7.1258ZM2.91248 5.39062C2.91248 4.74445 3.43818 4.21875 4.08435 4.21875C4.73052 4.21875 5.25623 4.74445 5.25623 5.39062C5.25623 6.0368 4.73052 6.5625 4.08435 6.5625C3.43818 6.5625 2.91248 6.0368 2.91248 5.39062ZM6.19373 10.7812H1.97498V10.0781C1.97498 8.91502 2.92124 7.96875 4.08435 7.96875C5.24746 7.96875 6.19373 8.91502 6.19373 10.0781V10.7812Z" fill="black"/>
<path d="M22.8645 9.9383C23.2823 9.47991 23.5375 8.87077 23.5375 8.20312C23.5375 6.78155 22.3809 5.625 20.9594 5.625C19.5378 5.625 18.3812 6.78155 18.3812 8.20312C18.3812 8.87077 18.6364 9.47991 19.0542 9.9383C18.0861 10.5652 17.4437 11.6539 17.4437 12.8906V14.2969C17.4437 14.6852 17.7585 15 18.1469 15H23.7719C24.1602 15 24.475 14.6852 24.475 14.2969V12.8906C24.475 11.6539 23.8326 10.5652 22.8645 9.9383ZM19.7875 8.20312C19.7875 7.55695 20.3132 7.03125 20.9594 7.03125C21.6055 7.03125 22.1312 7.55695 22.1312 8.20312C22.1312 8.8493 21.6055 9.375 20.9594 9.375C20.3132 9.375 19.7875 8.8493 19.7875 8.20312ZM23.0687 13.5938H18.85V12.8906C18.85 11.7275 19.7962 10.7812 20.9594 10.7812C22.1225 10.7812 23.0687 11.7275 23.0687 12.8906V13.5938Z" fill="black"/>
</svg>
