<svg width="22" height="22" viewBox="0 0 22 22" fill="none" xmlns="http://www.w3.org/2000/svg">
<path d="M10.355 18.3994H2.45841C2.30623 18.3994 2.18248 18.2757 2.18248 18.1232V3.12312C2.18248 2.97055 2.30623 2.84685 2.45841 2.84685H13.7228C13.8754 2.84685 13.9991 2.97059 13.9991 3.12312V5.11053H16.0078V2.21108C16.0078 1.48056 15.4155 0.888184 14.6849 0.888184H1.49707C0.76647 0.888226 0.174133 1.48061 0.174133 2.21108V20.6769C0.174133 21.4075 0.76647 21.9999 1.49707 21.9999H10.664C10.4732 21.6373 10.355 21.2309 10.355 20.7934V18.3994ZM8.09094 21.0323C7.62959 21.0323 7.25532 20.6581 7.25532 20.1966C7.25532 19.7351 7.62955 19.3609 8.09094 19.3609C8.55243 19.3609 8.92666 19.7351 8.92666 20.1966C8.92666 20.658 8.55243 21.0323 8.09094 21.0323Z" fill="#1D1C1C"/>
<path d="M20.102 6.51807H12.9689C12.3026 6.51807 11.7625 7.05823 11.7625 7.72454V20.7935C11.7625 21.4598 12.3026 21.9999 12.9689 21.9999H14.6849H20.1021C20.7682 21.9999 21.3085 21.4598 21.3085 20.7935V7.72454C21.3085 7.05828 20.7682 6.51807 20.102 6.51807ZM16.5353 21.3179C16.1143 21.3179 15.7735 20.9767 15.7735 20.5557C15.7735 20.1348 16.1143 19.7936 16.5353 19.7936C16.9559 19.7936 17.2975 20.1348 17.2975 20.5557C17.2974 20.9767 16.9559 21.3179 16.5353 21.3179ZM19.9591 19.0205C19.9591 19.1597 19.8463 19.2723 19.7072 19.2723H13.3638C13.2245 19.2723 13.1119 19.1597 13.1119 19.0205V8.05333C13.1119 7.91416 13.2246 7.80147 13.3638 7.80147H19.7072C19.8463 7.80147 19.9591 7.91416 19.9591 8.05333V19.0205Z" fill="#1D1C1C"/>
</svg>
