<svg width="29" height="29" viewBox="0 0 29 29" fill="none" xmlns="http://www.w3.org/2000/svg">
<path d="M14.5005 22.958C14.2605 22.9594 14.0255 22.8893 13.8255 22.7566C13.6255 22.6239 13.4696 22.4347 13.3775 22.213C13.2855 21.9914 13.2616 21.7473 13.3088 21.512C13.356 21.2767 13.4722 21.0608 13.6426 20.8918L20.0468 14.4997L13.6426 8.10758C13.4446 7.87643 13.3412 7.57909 13.3529 7.27498C13.3647 6.97087 13.4908 6.68239 13.706 6.46719C13.9212 6.252 14.2096 6.12593 14.5137 6.11418C14.8179 6.10244 15.1152 6.20588 15.3463 6.40383L22.5964 13.6538C22.8214 13.8802 22.9477 14.1865 22.9477 14.5057C22.9477 14.8249 22.8214 15.1312 22.5964 15.3576L15.3463 22.6076C15.1213 22.8308 14.8175 22.9567 14.5005 22.958Z" fill="#FFFFFF"/>
<path d="M7.25052 22.9582C7.01051 22.9596 6.77553 22.8895 6.57553 22.7568C6.37552 22.6242 6.21956 22.4349 6.12753 22.2133C6.03549 21.9916 6.01155 21.7476 6.05876 21.5122C6.10597 21.2769 6.22219 21.061 6.3926 20.892L12.7968 14.4999L6.3926 8.10782C6.16507 7.88028 6.03724 7.57168 6.03724 7.2499C6.03724 6.92812 6.16507 6.61952 6.3926 6.39198C6.62013 6.16445 6.92874 6.03662 7.25052 6.03662C7.5723 6.03662 7.8809 6.16445 8.10843 6.39198L15.3584 13.642C15.5835 13.8684 15.7098 14.1746 15.7098 14.4939C15.7098 14.8131 15.5835 15.1193 15.3584 15.3457L8.10843 22.5957C7.99652 22.7099 7.86307 22.8007 7.7158 22.863C7.56854 22.9252 7.41039 22.9576 7.25052 22.9582Z" fill="#FFFFFF"/>
</svg>
