<svg width="37" height="31" viewBox="0 0 37 31" fill="none" xmlns="http://www.w3.org/2000/svg">
<path d="M17.6619 12.1403C22.6402 10.4337 27.0964 7.96957 30.9067 4.81624L33.0253 3.06285V5.35055H35.1933V0H28.7281V1.79418H31.4924L29.3737 3.54757C25.7657 6.53339 21.5462 8.86672 16.8323 10.4826C12.1183 12.0985 7.14102 12.9179 2.0387 12.9179H1.80695V14.7121H2.0387C7.42719 14.7121 12.6836 13.8468 17.6619 12.1403Z" fill="black"/>
<path d="M35.1932 28.8256V10.6326H26.5209V28.8256H22.8362V15.8352H14.1638V28.8256H10.4791V21.0386H1.80679V28.8256H0V30.6197H37V28.8256H35.1932ZM28.6889 12.4267H33.0252V28.8256H28.6889V12.4267ZM16.3318 17.6294H20.6682V28.8256H16.3318V17.6294ZM3.97475 22.8328H8.31112V28.8256H3.97475V22.8328Z" fill="black"/>
</svg>
