<svg width="25" height="25" viewBox="0 0 25 25" fill="none" xmlns="http://www.w3.org/2000/svg">
<path d="M21.0052 4.31206C16.3168 -0.376431 8.72764 -0.377184 4.03849 4.31206C-0.650009 9.00047 -0.650714 16.5896 4.03849 21.2787C8.72689 25.9672 16.316 25.968 21.0052 21.2787C25.6937 16.5903 25.6944 9.00122 21.0052 4.31206ZM23.0837 12.0897H19.5791V13.1482C19.5791 13.7319 19.1043 14.2068 18.5205 14.2068C17.9368 14.2068 17.462 13.7319 17.462 13.1482V12.0897H13.2276V9.24163C14.4231 9.06991 15.3448 8.03889 15.3448 6.79673C15.3448 5.55456 14.4231 4.52359 13.2276 4.35182V2.23362C18.5035 2.58262 22.7346 6.81385 23.0837 12.0897ZM11.8161 2.23362V5.73814H12.8747C13.4584 5.73814 13.9333 6.21305 13.9333 6.79673C13.9333 7.38041 13.4584 7.85531 12.8747 7.85531H11.8161V12.0897H8.9681C8.79638 10.8943 7.76536 9.97248 6.5232 9.97248C5.28103 9.97248 4.25006 10.8943 4.07829 12.0897H1.96013C2.30914 6.81385 6.54028 2.58262 11.8161 2.23362ZM1.96013 13.5011H5.46466V12.4425C5.46466 11.8588 5.93952 11.3839 6.52324 11.3839C7.10697 11.3839 7.58183 11.8588 7.58183 12.4425V13.5011H11.8162V16.3491C10.6207 16.5208 9.699 17.5519 9.699 18.794C9.699 20.0362 10.6207 21.0672 11.8162 21.2389V23.3571C6.54028 23.0082 2.30914 18.7769 1.96013 13.5011ZM13.2276 23.3572V19.8527H12.169C11.5853 19.8527 11.1104 19.3778 11.1104 18.7941C11.1104 18.2104 11.5853 17.7355 12.169 17.7355H13.2276V13.5011H16.0756C16.2473 14.6965 17.2783 15.6183 18.5205 15.6183C19.7627 15.6183 20.7936 14.6965 20.9654 13.5011H23.0836C22.7346 18.7769 18.5035 23.0082 13.2276 23.3572Z" fill="black"/>
</svg>
