<svg width="25" height="21" viewBox="0 0 25 21" fill="none" xmlns="http://www.w3.org/2000/svg">
<path d="M20.9039 0.0791016H3.21328C1.47375 0.0791016 0.0585938 1.49426 0.0585938 3.23379V13.3307C0.0585938 15.034 1.41577 16.4254 3.10547 16.4826V19.0096C3.10547 19.6855 3.65531 20.2354 4.3312 20.2354H10.036C10.7119 20.2354 11.2617 19.6855 11.2617 19.0096V16.4854H20.9039C22.6434 16.4854 24.0586 15.0702 24.0586 13.3307V3.23379C24.0586 1.49426 22.6434 0.0791016 20.9039 0.0791016ZM3.21328 1.48535H20.9039C21.868 1.48535 22.6523 2.26966 22.6523 3.23379V3.8291H1.46484V3.23379C1.46484 2.26966 2.24916 1.48535 3.21328 1.48535ZM8.73047 13.2041H5.63672V12.4072C5.63672 11.7611 6.16242 11.2354 6.80859 11.2354H7.55859C8.20477 11.2354 8.73047 11.7611 8.73047 12.4072V13.2041ZM9.85547 18.8291H4.51172V14.6104H9.85547V18.8291ZM20.9039 15.0791H11.2617V14.4298C11.2617 13.7879 10.7656 13.26 10.1367 13.2086V12.4072C10.1367 10.9856 8.98017 9.8291 7.55859 9.8291H6.80859C5.38702 9.8291 4.23047 10.9856 4.23047 12.4072V13.2086C3.60159 13.26 3.10547 13.7879 3.10547 14.4299V15.0754C2.19141 15.0196 1.46484 14.2586 1.46484 13.3307V5.23535H22.6523V13.3307C22.6523 14.2948 21.868 15.0791 20.9039 15.0791Z" fill="black"/>
<path d="M11.3086 6.8291H3.80859C3.42028 6.8291 3.10547 7.14391 3.10547 7.53223C3.10547 7.92054 3.42028 8.23535 3.80859 8.23535H11.3086C11.6969 8.23535 12.0117 7.92054 12.0117 7.53223C12.0117 7.14391 11.6969 6.8291 11.3086 6.8291Z" fill="black"/>
<path d="M19.2923 6.8291H15.3248C14.3768 6.8291 13.6055 7.60043 13.6055 8.54852V9.51598C13.6055 10.464 14.3768 11.2354 15.3249 11.2354H19.2923C20.2404 11.2354 21.0117 10.464 21.0117 9.51593V8.54848C21.0117 7.60043 20.2404 6.8291 19.2923 6.8291ZM19.6055 9.51593C19.6055 9.68862 19.465 9.8291 19.2923 9.8291H15.3248C15.1522 9.8291 15.0117 9.68862 15.0117 9.51593V8.54848C15.0117 8.37579 15.1522 8.2353 15.3248 8.2353H19.2923C19.465 8.2353 19.6055 8.37579 19.6055 8.54848V9.51593Z" fill="black"/>
</svg>
