<svg width="25" height="25" viewBox="0 0 25 25" fill="none" xmlns="http://www.w3.org/2000/svg">
<path d="M23.3576 3.49886C23.3127 3.17652 23.0808 2.91138 22.7672 2.82424L12.7193 0.029902C12.5761 -0.00996732 12.4248 -0.00996732 12.2814 0.029902L2.23348 2.82424C1.91997 2.91138 1.68805 3.17642 1.64317 3.49886C1.58489 3.91792 0.255373 13.8194 3.6655 18.7452C7.0716 23.665 12.0963 24.9258 12.3085 24.9771C12.3716 24.9923 12.4359 24.9998 12.5004 24.9998C12.5649 24.9998 12.6291 24.9922 12.6922 24.9771C12.9045 24.9258 17.9292 23.665 21.3352 18.7452C24.7454 13.8196 23.4158 3.91803 23.3576 3.49886ZM18.98 9.27946L12.1263 16.1332C11.9668 16.2926 11.7577 16.3725 11.5486 16.3725C11.3396 16.3725 11.1304 16.2928 10.971 16.1332L6.73337 11.8956C6.5801 11.7424 6.49404 11.5346 6.49404 11.3179C6.49404 11.1013 6.58021 10.8934 6.73337 10.7402L7.57476 9.89886C7.89383 9.5799 8.41115 9.57979 8.7301 9.89886L11.5486 12.7174L16.9833 7.28263C17.1364 7.12936 17.3443 7.0433 17.5609 7.0433C17.7776 7.0433 17.9854 7.12936 18.1386 7.28263L18.98 8.12402C19.2991 8.44308 19.2991 8.9604 18.98 9.27946Z" fill="#004346"/>
</svg>
