<svg width="23" height="25" viewBox="0 0 23 25" fill="none" xmlns="http://www.w3.org/2000/svg">
<path d="M22.0177 3.49886C21.9728 3.17652 21.7409 2.91138 21.4274 2.82424L11.3795 0.029902C11.2362 -0.00996732 11.0849 -0.00996732 10.9416 0.029902L0.893634 2.82424C0.580126 2.91138 0.348209 3.17642 0.303329 3.49886C0.24505 3.91792 -1.08447 13.8194 2.32566 18.7452C5.73176 23.665 10.7565 24.9258 10.9687 24.9771C11.0318 24.9923 11.096 24.9998 11.1605 24.9998C11.225 24.9998 11.2893 24.9922 11.3523 24.9771C11.5647 24.9258 16.5894 23.665 19.9954 18.7452C23.4055 13.8196 22.076 3.91803 22.0177 3.49886ZM17.6401 9.27946L10.7864 16.1332C10.627 16.2926 10.4178 16.3725 10.2088 16.3725C9.99973 16.3725 9.79058 16.2928 9.63111 16.1332L5.39353 11.8956C5.24026 11.7424 5.1542 11.5346 5.1542 11.3179C5.1542 11.1013 5.24037 10.8934 5.39353 10.7402L6.23492 9.89886C6.55398 9.5799 7.0713 9.57979 7.39026 9.89886L10.2088 12.7174L15.6434 7.28263C15.7966 7.12936 16.0044 7.0433 16.2211 7.0433C16.4377 7.0433 16.6456 7.12936 16.7988 7.28263L17.6401 8.12402C17.9592 8.44308 17.9592 8.9604 17.6401 9.27946Z" fill="#004346"/>
</svg>
