<svg width="21" height="24" viewBox="0 0 21 24" fill="none" xmlns="http://www.w3.org/2000/svg">
<path d="M20.0688 3.88621L10.8813 0.071666C10.6512 -0.0238652 10.3925 -0.0239121 10.1624 0.071666L0.974866 3.88621C0.624944 4.03153 0.396851 4.37315 0.396851 4.75204V9.38915C0.396851 15.7741 4.25602 21.5176 10.1676 23.9305C10.3946 24.0232 10.649 24.0232 10.8761 23.9305C16.7876 21.5176 20.6469 15.7742 20.6469 9.38915V4.75204C20.6469 4.37315 20.4188 4.03153 20.0688 3.88621ZM18.7719 9.38915C18.7719 14.817 15.5844 19.8138 10.5219 22.0442C5.59463 19.8734 2.27185 14.9641 2.27185 9.38915V5.37792L10.5219 1.95257L18.7719 5.37792V9.38915ZM9.48563 12.5492L13.5152 8.51967C13.8813 8.15357 14.4749 8.15353 14.841 8.51967C15.2071 8.88581 15.2071 9.47939 14.841 9.84548L10.1485 14.5379C9.78235 14.9041 9.18877 14.9039 8.82273 14.5379L6.20269 11.9179C5.83655 11.5517 5.83655 10.9582 6.20269 10.5921C6.56884 10.226 7.16241 10.2259 7.52851 10.5921L9.48563 12.5492Z" fill="black"/>
</svg>
