<svg width="24" height="18" viewBox="0 0 24 18" fill="none" xmlns="http://www.w3.org/2000/svg">
<path d="M11.55 6.98625C11.5237 6.7425 11.5087 6.49125 11.5087 6.24C11.5087 5.985 11.5237 5.73375 11.55 5.48625H4.66875L4.0875 3.2775C4.00125 2.9475 3.70125 2.71875 3.36375 2.71875H0.75C0.3375 2.71875 0 3.05625 0 3.46875C0 3.88125 0.3375 4.21875 0.75 4.21875H2.78625L3.3675 6.43125C3.3675 6.435 3.37125 6.435 3.37125 6.435L5.19375 13.4625C5.28 13.7925 5.58 14.0213 5.92125 14.0213H6.01125C5.9025 14.2913 5.8425 14.5838 5.8425 14.8913C5.8425 16.1963 6.90375 17.2575 8.20875 17.2575C9.51375 17.2575 10.575 16.1963 10.575 14.8913C10.575 14.5838 10.515 14.2913 10.4062 14.0213H12.1912C12.0825 14.2913 12.0225 14.5838 12.0225 14.8913C12.0225 16.1963 13.0837 17.2575 14.3888 17.2575C15.6937 17.2575 16.755 16.1963 16.755 14.8913C16.755 14.5838 16.695 14.2913 16.5863 14.0213H16.6763C17.0175 14.0213 17.3175 13.7925 17.4037 13.4625L17.4825 13.1588C16.755 13.0538 16.065 12.8325 15.4275 12.5213C13.32 11.4863 11.8088 9.42 11.55 6.98625ZM9.075 14.8913C9.075 15.3675 8.68875 15.7575 8.20875 15.7575C7.7325 15.7575 7.3425 15.3675 7.3425 14.8913C7.3425 14.4113 7.7325 14.0213 8.20875 14.0213C8.68875 14.0213 9.075 14.4113 9.075 14.8913ZM15.255 14.8913C15.255 15.3675 14.865 15.7575 14.3888 15.7575C13.9087 15.7575 13.5225 15.3675 13.5225 14.8913C13.5225 14.4113 13.9087 14.0213 14.3888 14.0213C14.865 14.0213 15.255 14.4113 15.255 14.8913Z" fill="#004346"/>
<path d="M18.5016 0.742432C15.4716 0.742432 13.0078 3.20993 13.0078 6.23993C13.0078 9.26993 15.4716 11.7337 18.5016 11.7337C21.5353 11.7337 23.9991 9.26993 23.9991 6.23993C23.9991 3.20993 21.5353 0.742432 18.5016 0.742432ZM20.1328 6.98993H19.2516V7.87118C19.2516 8.28368 18.9178 8.62118 18.5016 8.62118C18.0891 8.62118 17.7516 8.28368 17.7516 7.87118V6.98993H16.8741C16.4578 6.98993 16.1241 6.65243 16.1241 6.23993C16.1241 5.82368 16.4578 5.48993 16.8741 5.48993H17.7516V4.60868C17.7516 4.19243 18.0891 3.85868 18.5016 3.85868C18.9178 3.85868 19.2516 4.19243 19.2516 4.60868V5.48993H20.1328C20.5491 5.48993 20.8828 5.82368 20.8828 6.23993C20.8828 6.65243 20.5491 6.98993 20.1328 6.98993Z" fill="#004346"/>
</svg>
