<svg width="157" height="21" viewBox="0 0 157 21" fill="none" xmlns="http://www.w3.org/2000/svg">
<path d="M11.2002 16.9473L16.3156 20.0049C17.2522 20.5657 18.3985 19.7371 18.1518 18.6897L16.7963 12.9387L21.3191 9.0644C22.1452 8.35794 21.7015 7.01759 20.617 6.93248L14.6639 6.43278L12.3338 0.999324C11.9155 0.0119442 10.485 0.0119442 10.0667 0.999324L7.73663 6.42077L1.78345 6.91995C0.698988 7.00558 0.255273 8.34541 1.0809 9.05239L5.60468 12.9267L4.24871 18.6771C4.00255 19.7246 5.14829 20.5532 6.08537 19.9929L11.2002 16.9473Z" fill="#E1E1E1"/>
<path d="M45.0071 16.9473L50.1225 20.0049C51.0591 20.5657 52.2054 19.7371 51.9587 18.6897L50.6032 12.9387L55.126 9.0644C55.9521 8.35794 55.5084 7.01759 54.4239 6.93248L48.4708 6.43278L46.1407 0.999324C45.7224 0.0119442 44.2919 0.0119442 43.8735 0.999324L41.5435 6.42077L35.5903 6.91995C34.5059 7.00558 34.0622 8.34541 34.8878 9.05239L39.4116 12.9267L38.0556 18.6771C37.8094 19.7246 38.9552 20.5532 39.8923 19.9929L45.0071 16.9473Z" fill="#E1E1E1"/>
<path d="M78.814 16.9473L83.9294 20.0049C84.8659 20.5657 86.0122 19.7371 85.7655 18.6897L84.4101 12.9387L88.9328 9.0644C89.759 8.35794 89.3152 7.01759 88.2308 6.93248L82.2776 6.43278L79.9476 0.999324C79.5292 0.0119442 78.0988 0.0119442 77.6804 0.999324L75.3504 6.42077L69.3972 6.91995C68.3127 7.00558 67.869 8.34541 68.6946 9.05239L73.2184 12.9267L71.8624 18.6771C71.6163 19.7246 72.762 20.5532 73.6991 19.9929L78.814 16.9473Z" fill="#E1E1E1"/>
<path d="M112.621 16.9473L117.736 20.0049C118.673 20.5657 119.819 19.7371 119.572 18.6897L118.217 12.9387L122.74 9.0644C123.566 8.35794 123.122 7.01759 122.038 6.93248L116.084 6.43278L113.754 0.999324C113.336 0.0119442 111.906 0.0119442 111.487 0.999324L109.157 6.42077L103.204 6.91995C102.12 7.00558 101.676 8.34541 102.502 9.05239L107.025 12.9267L105.669 18.6771C105.423 19.7246 106.569 20.5532 107.506 19.9929L112.621 16.9473Z" fill="#E1E1E1"/>
<path d="M146.428 16.9473L151.543 20.0049C152.48 20.5657 153.626 19.7371 153.379 18.6897L152.024 12.9387L156.547 9.0644C157.373 8.35794 156.929 7.01759 155.845 6.93248L149.891 6.43278L147.561 0.999324C147.143 0.0119442 145.713 0.0119442 145.294 0.999324L142.964 6.42077L137.011 6.91995C135.926 7.00558 135.483 8.34541 136.308 9.05239L140.832 12.9267L139.476 18.6771C139.23 19.7246 140.376 20.5532 141.313 19.9929L146.428 16.9473Z" fill="#E1E1E1"/>
<path d="M11.2002 16.9473L16.3156 20.0049C17.2522 20.5657 18.3985 19.7371 18.1518 18.6897L16.7963 12.9387L21.3191 9.0644C22.1452 8.35794 21.7015 7.01759 20.617 6.93248L14.6639 6.43278L12.3338 0.999324C11.9155 0.0119442 10.485 0.0119442 10.0667 0.999324L7.73663 6.42077L1.78345 6.91995C0.698988 7.00558 0.255273 8.34541 1.0809 9.05239L5.60468 12.9267L4.24871 18.6771C4.00255 19.7246 5.14829 20.5532 6.08537 19.9929L11.2002 16.9473Z" fill="#FFC107"/>
<path d="M45.0071 16.9473L50.1225 20.0049C51.0591 20.5657 52.2054 19.7371 51.9587 18.6897L50.6032 12.9387L55.126 9.0644C55.9521 8.35794 55.5084 7.01759 54.4239 6.93248L48.4708 6.43278L46.1407 0.999324C45.7224 0.0119442 44.2919 0.0119442 43.8735 0.999324L41.5435 6.42077L35.5903 6.91995C34.5059 7.00558 34.0622 8.34541 34.8878 9.05239L39.4116 12.9267L38.0556 18.6771C37.8094 19.7246 38.9552 20.5532 39.8923 19.9929L45.0071 16.9473Z" fill="#FFC107"/>
<path d="M78.814 16.9473L83.9294 20.0049C84.8659 20.5657 86.0122 19.7371 85.7655 18.6897L84.4101 12.9387L88.9328 9.0644C89.759 8.35794 89.3152 7.01759 88.2308 6.93248L82.2776 6.43278L79.9476 0.999324C79.5292 0.0119442 78.0988 0.0119442 77.6804 0.999324L75.3504 6.42077L69.3972 6.91995C68.3127 7.00558 67.869 8.34541 68.6946 9.05239L73.2184 12.9267L71.8624 18.6771C71.6163 19.7246 72.762 20.5532 73.6991 19.9929L78.814 16.9473Z" fill="#FFC107"/>
<path d="M112.621 16.9473L117.736 20.0049C118.673 20.5657 119.819 19.7371 119.572 18.6897L118.217 12.9387L122.74 9.0644C123.566 8.35794 123.122 7.01759 122.038 6.93248L116.084 6.43278L113.754 0.999324C113.336 0.0119442 111.906 0.0119442 111.487 0.999324L109.157 6.42077L103.204 6.91995C102.12 7.00558 101.676 8.34541 102.502 9.05239L107.025 12.9267L105.669 18.6771C105.423 19.7246 106.569 20.5532 107.506 19.9929L112.621 16.9473Z" fill="#FFC107"/>
<path d="M146.428 16.9473L151.543 20.0049C152.48 20.5657 153.626 19.7371 153.379 18.6897L152.024 12.9387L156.547 9.0644C157.373 8.35794 156.929 7.01759 155.845 6.93248L149.891 6.43278L147.561 0.999324C147.143 0.0119442 145.713 0.0119442 145.294 0.999324L142.964 6.42077L137.011 6.91995C135.926 7.00558 135.483 8.34541 136.308 9.05239L140.832 12.9267L139.476 18.6771C139.23 19.7246 140.376 20.5532 141.313 19.9929L146.428 16.9473Z" fill="#FFC107"/>
</svg>
