<?xml version="1.0" encoding="utf-8"?>
<!-- Generator: Adobe Illustrator 26.0.3, SVG Export Plug-In . SVG Version: 6.00 Build 0)  -->
<svg version="1.1" id="Layer_1" xmlns="http://www.w3.org/2000/svg" xmlns:xlink="http://www.w3.org/1999/xlink" x="0px" y="0px"
	 viewBox="0 0 293 400" style="enable-background:new 0 0 293 400;" xml:space="preserve">
<style type="text/css">
	.st0{fill:#161616;}
	.st1{fill:#31125E;}
	.st2{opacity:0.3;fill:#582382;enable-background:new    ;}
	.st3{opacity:0.3;fill:#6F59D1;enable-background:new    ;}
	.st4{opacity:0.3;fill:#9D8FFF;enable-background:new    ;}
	.st5{opacity:0.3;fill:#8C38A8;enable-background:new    ;}
	.st6{opacity:0.3;fill:#CD5EDD;enable-background:new    ;}
	.st7{fill:#FFFFFF;enable-background:new    ;}
	.st8{fill:#DDDDE2;}
	.st9{fill:#FFFFFF;}
	.st10{fill:#858585;}
	.st11{fill:#C7B9B9;}
	.st12{fill:#444444;}
	.st13{fill:url(#SVGID_1_);}
	.st14{opacity:0.5;fill:#C7B9B9;enable-background:new    ;}
	.st15{fill:url(#SVGID_00000010310365182755494820000011134004401367214482_);}
	.st16{fill:url(#SVGID_00000146499256146432897690000012651042290812096440_);}
	.st17{fill:#3A3A3A;}
	.st18{fill:url(#SVGID_00000031198620834387003490000015379627326225363858_);}
	.st19{fill:#B9B9B9;}
	.st20{fill:#4D4D4D;}
</style>
<g>
	<path d="M165.6,29.1h-39.4c-4.5,0-8.1-3.6-8.1-8.1l0,0c0-4.5,3.6-8.1,8.1-8.1h39.4c4.5,0,8.1,3.6,8.1,8.1l0,0
		C173.7,25.4,170.1,29.1,165.6,29.1z"/>
	<g>
		<circle class="st0" cx="164" cy="21" r="4.4"/>
		<path class="st1" d="M167.2,21c0,0.2,0,0.4,0,0.5c-0.2,1.5-1.6,2.7-3.1,2.7c-1.6,0-2.9-1.1-3.1-2.7c0-0.2,0-0.3,0-0.5
			c0-1.8,1.4-3.2,3.2-3.2S167.2,19.2,167.2,21z"/>
		<path class="st2" d="M167.2,21.5c-0.2,1.5-1.6,2.7-3.1,2.7c-1.6,0-2.9-1.1-3.1-2.7c0.8-0.6,1.9-1,3.1-1
			C165.2,20.5,166.4,20.9,167.2,21.5z"/>
		<path class="st3" d="M166.2,20c-0.3,0.2-1.1-0.5-2.2-0.5c-1-0.1-1.9,0.6-2.2,0.5c-0.4-0.1,0.3-1.8,2.2-1.8S166.6,19.8,166.2,20z"
			/>
		<path class="st4" d="M165.5,19.3c-0.2,0.1-0.8-0.3-1.5-0.3s-1.3,0.4-1.5,0.3c-0.3-0.1,0.2-1,1.5-1S165.7,19.3,165.5,19.3z"/>
		<path class="st5" d="M161.3,21.3c0.4-0.2,1.4,0.8,2.7,0.7c1.3,0.1,2.3-0.9,2.7-0.7c0.5,0.2-0.4,2.5-2.7,2.5S160.8,21.4,161.3,21.3
			z"/>
		<path class="st6" d="M162.4,22.5c0.2-0.1,0.9,0.3,1.7,0.3s1.4-0.4,1.7-0.3s-0.3,1-1.7,1C162.6,23.6,162.1,22.6,162.4,22.5z"/>
	</g>
	<path class="st7" d="M60,370.8V26.2c0-6.8,5.5-12.3,12.3-12.3h148.6c6.8,0,12.3,5.5,12.3,12.3v344.6c0,6.8-5.5,12.3-12.3,12.3H72.2
		C65.5,383,60,377.6,60,370.8z"/>
</g>
<path class="st8" d="M170.5,98.3h-56.9c-2,0-3.6-1.6-3.6-3.6l0,0c0-2,1.6-3.6,3.6-3.6h56.9c2,0,3.6,1.6,3.6,3.6l0,0
	C174.1,96.7,172.5,98.3,170.5,98.3z"/>
<path class="st8" d="M170.5,111.5h-56.9c-2,0-3.6-1.6-3.6-3.6l0,0c0-2,1.6-3.6,3.6-3.6h56.9c2,0,3.6,1.6,3.6,3.6l0,0
	C174.1,109.9,172.5,111.5,170.5,111.5z"/>
<path class="st9" d="M209.1,384.3H82.4c-12.9,0-23.4-10.5-23.4-23.4l0,0c0-0.9,0.7-1.6,1.6-1.6h170.3c0.9,0,1.6,0.7,1.6,1.6l0,0
	C232.6,373.8,222.1,384.3,209.1,384.3z"/>
<g>
	<g>
		<path class="st10" d="M93.4,370.6h-1.7c-0.5,0-0.9,0.4-0.9,0.9v1.3c0,0.5,0.4,0.9,0.9,0.9h1.7c0.5,0,0.9-0.4,0.9-0.9v-1.3
			C94.2,371,93.9,370.6,93.4,370.6z M93.6,372.8c0,0.1-0.1,0.2-0.2,0.2h-1.7c-0.1,0-0.2-0.1-0.2-0.2v-1.3c0-0.1,0.1-0.2,0.2-0.2h1.7
			c0.1,0,0.2,0.1,0.2,0.2V372.8z"/>
		<path class="st10" d="M97.1,368.2c0-0.1,0-0.1,0-0.1c-0.2-0.4-1.6-2.8-1.9-3.4c-0.1-0.1-0.2-0.2-0.3-0.2h-8.4
			c-0.1,0-0.2,0.1-0.3,0.2l-1.9,3.4c0,0.1,0,0.1,0,0.2c0,0.8,0.5,1.4,1.1,1.7v5.5c0,0.2,0.1,0.3,0.3,0.3h1.7l0,0h2.4l0,0h5.8
			c0.2,0,0.3-0.1,0.3-0.3V370l0,0C96.6,369.6,97.1,368.9,97.1,368.2z M86.6,365.1h8l1.5,2.6h-11L86.6,365.1z M93.4,368.4
			c-0.1,0.6-0.6,1-1.2,1s-1.1-0.4-1.2-1H93.4z M90.3,368.4c-0.1,0.6-0.6,1-1.2,1s-1.1-0.4-1.2-1H90.3z M84.9,368.4h2.4
			c-0.1,0.6-0.6,1-1.2,1C85.5,369.4,85,369,84.9,368.4z M89.5,375.1h-1.8v-3.4c0-0.2,0.2-0.4,0.4-0.4H89c0.2,0,0.4,0.2,0.4,0.4
			L89.5,375.1L89.5,375.1z M95.4,375.1h-5.2v-3.4c0-0.6-0.5-1.1-1.1-1.1h-0.9c-0.6,0-1.1,0.5-1.1,1.1v3.4H86V370h0.1
			c0.6,0,1.2-0.3,1.5-0.8c0.3,0.5,0.9,0.8,1.5,0.8s1.2-0.3,1.5-0.8c0.3,0.5,0.9,0.8,1.5,0.8s1.2-0.3,1.5-0.8
			c0.3,0.5,0.9,0.8,1.5,0.8h0.1v5.1H95.4z M95.3,369.4c-0.6,0-1.1-0.4-1.2-1h2.4C96.4,369,95.9,369.4,95.3,369.4z"/>
	</g>
</g>
<path class="st10" d="M150.7,373.7c0-0.1,0.1-0.2,0.2-0.2h1.3V372h-1.3c-0.1,0-0.2-0.1-0.2-0.2s0.1-0.2,0.2-0.2h1.3V370h-1.3
	c-0.1,0-0.2-0.1-0.2-0.2s0.1-0.2,0.2-0.2h1.3V368h-1.3c-0.1,0-0.2-0.1-0.2-0.2s0.1-0.2,0.2-0.2h1.3V366c0-0.1-0.1-0.1-0.1-0.1h-12.4
	c-0.1,0-0.1,0.1-0.1,0.1v1.6h1.3c0.1,0,0.2,0.1,0.2,0.2s-0.1,0.2-0.2,0.2h-1.3v1.6h1.3c0.1,0,0.2,0.1,0.2,0.2s-0.1,0.2-0.2,0.2h-1.3
	v1.6h1.3c0.1,0,0.2,0.1,0.2,0.2s-0.1,0.2-0.2,0.2h-1.3v1.6h1.3c0.1,0,0.2,0.1,0.2,0.2s-0.1,0.2-0.2,0.2h-1.3v1.6
	c0,0.1,0.1,0.1,0.1,0.1h12.4c0.1,0,0.1-0.1,0.1-0.1V374h-1.3C150.8,373.9,150.7,373.8,150.7,373.7z M149.7,373.7H142V368h5.8
	l1.9,1.9V373.7z"/>
<g id="Layer_2_00000012451525386078886930000003118465700616366464_">
	<path class="st10" d="M201.1,370.5c-1.2,0-2.2-1-2.2-2.2s1-2.2,2.2-2.2s2.2,1,2.2,2.2S202.3,370.5,201.1,370.5z M201.1,366.8
		c-0.8,0-1.5,0.7-1.5,1.5s0.7,1.5,1.5,1.5s1.5-0.7,1.5-1.5S201.9,366.8,201.1,366.8z"/>
	<path class="st10" d="M198.4,374.9c-0.6-0.3-1.1-0.8-1.5-1.3l-0.2-0.2l0.1-0.1c1-1.2,2.5-2.1,4.1-2.1c1.8,0,3.4,0.7,4.4,2l0.2,0.2
		l-0.2,0.2C203.7,375.6,200.9,376.2,198.4,374.9z M197.7,373.4c1.9,2,5,2,6.9,0l0,0C202.7,371.4,199.6,371.3,197.7,373.4
		L197.7,373.4z"/>
	<path class="st10" d="M201.1,375.6c-3.4,0-6.1-3.1-5.4-6.6c0.4-2.1,2.1-3.7,4.2-4.2c3.5-0.7,6.7,1.9,6.7,5.3c0,1.3-0.4,2.5-1.2,3.5
		C204.3,374.9,202.8,375.6,201.1,375.6z M201.1,365.4c-2.6,0-4.7,2.1-4.7,4.7s2.1,4.7,4.7,4.7c2.6,0,4.7-2.1,4.7-4.7
		C205.9,367.5,203.7,365.4,201.1,365.4z"/>
	<path class="st10" d="M197.2,373.4c0,0,3.7,4.1,7.4,0.4l0.5-0.4c0,0-3.1-3.2-6.3-1.3L197.2,373.4z"/>
	<circle class="st10" cx="201.1" cy="368.3" r="1.8"/>
</g>
<path class="st11" d="M214.6,6.4H79.5c-15.4,0-28,12.2-28,27.1v333.3c0,14.9,12.6,27.1,28,27.1h135.1c15.4,0,28-12.2,28-27.1V33.5
	C242.6,18.5,230,6.4,214.6,6.4z M234.6,366.8c0,10.7-9,19.4-20,19.4H79.5c-11.1,0-20-8.7-20-19.4V33.5c0-10.7,9-19.4,20-19.4h18.9
	c1.3,0,2.4,1.1,2.4,2.4v6.3c0,3.5,3.3,6.4,7.5,6.4h77.6c4.1,0,7.5-2.9,7.5-6.4v-6.3c0-1.3,1.1-2.4,2.4-2.4h18.9
	c11.1,0,20,8.7,20,19.4L234.6,366.8L234.6,366.8z"/>
<path class="st12" d="M163.3,18.5h-32.5c-0.8,0-1.5,0.7-1.5,1.5s0.7,1.5,1.5,1.5h32.5c0.8,0,1.5-0.7,1.5-1.5S164.1,18.5,163.3,18.5z
	"/>
<linearGradient id="SVGID_1_" gradientUnits="userSpaceOnUse" x1="50.4" y1="71.1395" x2="50.4" y2="51.9026" gradientTransform="matrix(1 0 0 1 0 2)">
	<stop  offset="0" style="stop-color:#6D6F71"/>
	<stop  offset="1.000000e-02" style="stop-color:#7B7D7F"/>
	<stop  offset="5.000000e-02" style="stop-color:#9B9C9E"/>
	<stop  offset="8.000000e-02" style="stop-color:#B6B7B8"/>
	<stop  offset="0.12" style="stop-color:#CCCDCE"/>
	<stop  offset="0.17" style="stop-color:#DDDDDE"/>
	<stop  offset="0.23" style="stop-color:#E9E9EA"/>
	<stop  offset="0.32" style="stop-color:#F0F0F1"/>
	<stop  offset="0.55" style="stop-color:#F2F2F3"/>
	<stop  offset="0.74" style="stop-color:#F0F0F1"/>
	<stop  offset="0.81" style="stop-color:#E9E9EA"/>
	<stop  offset="0.86" style="stop-color:#DDDDDE"/>
	<stop  offset="0.9" style="stop-color:#CCCDCE"/>
	<stop  offset="0.93" style="stop-color:#B6B7B8"/>
	<stop  offset="0.96" style="stop-color:#9B9C9E"/>
	<stop  offset="0.99" style="stop-color:#7B7D7F"/>
	<stop  offset="1" style="stop-color:#6D6F71"/>
</linearGradient>
<path class="st13" d="M49.3,56v15c0,1.2,1,2.1,2.2,2.1l0,0V53.9l0,0C50.2,53.9,49.3,54.8,49.3,56L49.3,56z"/>
<path class="st14" d="M49.3,56v15c0,1.2,1,2.1,2.2,2.1l0,0V53.9l0,0C50.2,53.9,49.3,54.8,49.3,56L49.3,56z"/>
<linearGradient id="SVGID_00000023260461548135683530000014583633337676388543_" gradientUnits="userSpaceOnUse" x1="50.5" y1="123.9" x2="50.5" y2="91.1" gradientTransform="matrix(1 0 0 1 0 2)">
	<stop  offset="0" style="stop-color:#6D6F71"/>
	<stop  offset="1.000000e-02" style="stop-color:#7B7D7F"/>
	<stop  offset="5.000000e-02" style="stop-color:#9B9C9E"/>
	<stop  offset="8.000000e-02" style="stop-color:#B6B7B8"/>
	<stop  offset="0.12" style="stop-color:#CCCDCE"/>
	<stop  offset="0.17" style="stop-color:#DDDDDE"/>
	<stop  offset="0.23" style="stop-color:#E9E9EA"/>
	<stop  offset="0.32" style="stop-color:#F0F0F1"/>
	<stop  offset="0.55" style="stop-color:#F2F2F3"/>
	<stop  offset="0.74" style="stop-color:#F0F0F1"/>
	<stop  offset="0.81" style="stop-color:#E9E9EA"/>
	<stop  offset="0.86" style="stop-color:#DDDDDE"/>
	<stop  offset="0.9" style="stop-color:#CCCDCE"/>
	<stop  offset="0.93" style="stop-color:#B6B7B8"/>
	<stop  offset="0.96" style="stop-color:#9B9C9E"/>
	<stop  offset="0.99" style="stop-color:#7B7D7F"/>
	<stop  offset="1" style="stop-color:#6D6F71"/>
</linearGradient>
<path style="fill:url(#SVGID_00000023260461548135683530000014583633337676388543_);" d="M49.3,95.3v28.4c0,1.2,1,2.2,2.2,2.2h0.2
	V93.1h-0.2C50.3,93.1,49.3,94.1,49.3,95.3z"/>
<path class="st14" d="M49.3,95.3v28.4c0,1.2,1,2.2,2.2,2.2h0.2V93.1h-0.2C50.3,93.1,49.3,94.1,49.3,95.3z"/>
<linearGradient id="SVGID_00000055697141203149960990000012883575463734066834_" gradientUnits="userSpaceOnUse" x1="50.5" y1="165.3386" x2="50.5" y2="132.5386" gradientTransform="matrix(1 0 0 1 0 2)">
	<stop  offset="0" style="stop-color:#6D6F71"/>
	<stop  offset="1.000000e-02" style="stop-color:#7B7D7F"/>
	<stop  offset="5.000000e-02" style="stop-color:#9B9C9E"/>
	<stop  offset="8.000000e-02" style="stop-color:#B6B7B8"/>
	<stop  offset="0.12" style="stop-color:#CCCDCE"/>
	<stop  offset="0.17" style="stop-color:#DDDDDE"/>
	<stop  offset="0.23" style="stop-color:#E9E9EA"/>
	<stop  offset="0.32" style="stop-color:#F0F0F1"/>
	<stop  offset="0.55" style="stop-color:#F2F2F3"/>
	<stop  offset="0.74" style="stop-color:#F0F0F1"/>
	<stop  offset="0.81" style="stop-color:#E9E9EA"/>
	<stop  offset="0.86" style="stop-color:#DDDDDE"/>
	<stop  offset="0.9" style="stop-color:#CCCDCE"/>
	<stop  offset="0.93" style="stop-color:#B6B7B8"/>
	<stop  offset="0.96" style="stop-color:#9B9C9E"/>
	<stop  offset="0.99" style="stop-color:#7B7D7F"/>
	<stop  offset="1" style="stop-color:#6D6F71"/>
</linearGradient>
<path style="fill:url(#SVGID_00000055697141203149960990000012883575463734066834_);" d="M49.3,136.7v28.4c0,1.2,1,2.2,2.2,2.2h0.2
	v-32.8h-0.2C50.3,134.6,49.3,135.5,49.3,136.7z"/>
<path class="st14" d="M49.3,136.7v28.4c0,1.2,1,2.2,2.2,2.2h0.2v-32.8h-0.2C50.3,134.6,49.3,135.5,49.3,136.7z"/>
<path class="st17" d="M238.8,33.5v330.4c0,12.9-10.9,23.4-24.2,23.4H79.5c-13.3,0-24.2-10.5-24.2-23.4V33.5
	c0-12.9,10.8-23.4,24.2-23.4h135.1C227.9,10.1,238.8,20.6,238.8,33.5L238.8,33.5z M214.6,14.2h-18.9c-1.3,0-2.3,1-2.3,2.2v6.3
	c0,3.6-3.4,6.5-7.6,6.5h-77.6c-4.2,0-7.6-2.9-7.6-6.5v-6.3c0-1.2-1-2.2-2.3-2.2H79.5c-11,0-19.9,8.6-19.9,19.3v330.4
	c0,10.7,8.9,19.3,19.9,19.3h135.1c11,0,19.9-8.6,19.9-19.3V33.5C234.5,22.8,225.6,14.2,214.6,14.2L214.6,14.2z M234.6,33.5v330.4
	c0,10.7-9,19.4-20,19.4H79.5c-11.1,0-20-8.7-20-19.4V33.5c0-10.7,9-19.4,20-19.4h18.9c1.3,0,2.4,1.1,2.4,2.4v6.3
	c0,3.5,3.3,6.4,7.5,6.4h77.6c4.1,0,7.5-2.9,7.5-6.4v-6.3c0-1.3,1.1-2.4,2.4-2.4h18.9C225.6,14.1,234.6,22.8,234.6,33.5L234.6,33.5z
	 M234.4,33.5c0-10.6-8.9-19.2-19.8-19.2h-18.9c-1.2,0-2.2,1-2.2,2.1v6.3c0,3.7-3.5,6.7-7.7,6.7h-77.6c-4.2,0-7.7-3-7.7-6.7v-6.3
	c0-1.2-1-2.1-2.2-2.1H79.5c-10.9,0-19.8,8.6-19.8,19.2v330.4c0,10.6,8.9,19.2,19.8,19.2h135.1c10.9,0,19.8-8.6,19.8-19.2L234.4,33.5
	L234.4,33.5z"/>
<linearGradient id="SVGID_00000176761982571419482060000016742834770128620204_" gradientUnits="userSpaceOnUse" x1="243.45" y1="152.7" x2="243.45" y2="103.8" gradientTransform="matrix(1 0 0 1 0 2)">
	<stop  offset="0" style="stop-color:#6D6F71"/>
	<stop  offset="1.000000e-02" style="stop-color:#7B7D7F"/>
	<stop  offset="5.000000e-02" style="stop-color:#9B9C9E"/>
	<stop  offset="8.000000e-02" style="stop-color:#B6B7B8"/>
	<stop  offset="0.12" style="stop-color:#CCCDCE"/>
	<stop  offset="0.17" style="stop-color:#DDDDDE"/>
	<stop  offset="0.23" style="stop-color:#E9E9EA"/>
	<stop  offset="0.32" style="stop-color:#F0F0F1"/>
	<stop  offset="0.55" style="stop-color:#F2F2F3"/>
	<stop  offset="0.74" style="stop-color:#F0F0F1"/>
	<stop  offset="0.81" style="stop-color:#E9E9EA"/>
	<stop  offset="0.86" style="stop-color:#DDDDDE"/>
	<stop  offset="0.9" style="stop-color:#CCCDCE"/>
	<stop  offset="0.93" style="stop-color:#B6B7B8"/>
	<stop  offset="0.96" style="stop-color:#9B9C9E"/>
	<stop  offset="0.99" style="stop-color:#7B7D7F"/>
	<stop  offset="1" style="stop-color:#6D6F71"/>
</linearGradient>
<path style="fill:url(#SVGID_00000176761982571419482060000016742834770128620204_);" d="M242.6,105.8v48.9c0.9,0,1.7-1,1.7-2.1V108
	C244.3,106.7,243.5,105.8,242.6,105.8z"/>
<path class="st14" d="M242.6,105.8v48.9c0.9,0,1.7-1,1.7-2.1V108C244.3,106.7,243.5,105.8,242.6,105.8z"/>
<g>
	<circle class="st0" cx="178.8" cy="20.1" r="6.2"/>
	<path class="st1" d="M183.3,20.1c0,0.3,0,0.5-0.1,0.7c-0.3,2.1-2.2,3.8-4.4,3.8s-4.1-1.6-4.4-3.8c0-0.2-0.1-0.5-0.1-0.7
		c0-2.5,2-4.5,4.5-4.5S183.3,17.6,183.3,20.1z"/>
	<path class="st2" d="M183.2,20.8c-0.3,2.1-2.2,3.8-4.4,3.8s-4.1-1.6-4.4-3.8c1.1-0.9,2.7-1.4,4.4-1.4S182.1,20,183.2,20.8z"/>
	<path class="st3" d="M181.8,18.7c-0.4,0.2-1.6-0.7-3.1-0.7c-1.4-0.1-2.6,0.9-3.1,0.7c-0.5-0.2,0.5-2.5,3.1-2.5
		C181.4,16.2,182.4,18.5,181.8,18.7z"/>
	<path class="st4" d="M180.8,17.8c-0.3,0.1-1.1-0.4-2.1-0.4s-1.8,0.5-2.1,0.4c-0.4-0.1,0.3-1.4,2.1-1.4S181.2,17.7,180.8,17.8z"/>
	<path class="st5" d="M174.9,20.5c0.5-0.3,2,1.1,3.8,1c1.8,0.1,3.3-1.3,3.8-1c0.7,0.2-0.6,3.6-3.8,3.6S174.3,20.8,174.9,20.5z"/>
	<path class="st6" d="M176.4,22.3c0.3-0.1,1.2,0.4,2.3,0.4s2-0.5,2.3-0.4c0.4,0.1-0.4,1.4-2.3,1.4C176.8,23.8,176,22.4,176.4,22.3z"
		/>
</g>
<circle class="st19" cx="85.9" cy="94.7" r="5.3"/>
<circle class="st9" cx="212.9" cy="94.7" r="5.3"/>
<circle class="st9" cx="212.9" cy="107.9" r="5.3"/>
<circle class="st19" cx="85.9" cy="107.9" r="5.3"/>
<path class="st20" d="M209.1,300.1H79.6c-2.1,0-3.7-1.7-3.7-3.7v-29.5c0-2.1,1.7-3.7,3.7-3.7h51.1h78.5c2.1,0,3.7,1.7,3.7,3.7v29.5
	C212.9,298.4,211.2,300.1,209.1,300.1z"/>
<path class="st8" d="M213.8,359.2H76.5c-1.5,0-2.6-1.2-2.6-2.6v-12.2c0-1.5,1.2-2.6,2.6-2.6h137.3c1.5,0,2.6,1.2,2.6,2.6v12.2
	C216.4,358.1,215.2,359.2,213.8,359.2z"/>
<polygon class="st20" points="146.5,245.3 158.7,263.1 134.3,263.1 "/>
<g>
	<g>
		<rect x="112.2" y="152.8" width="7.6" height="7.6"/>
	</g>
</g>
<g>
	<g>
		<path d="M157.9,145.2v3.8h-3.8v3.8h3.8V168h3.8v3.8h-3.8v3.8h3.8h3.8V168H177v3.8h3.8V168v-22.9L157.9,145.2L157.9,145.2z
			 M177,164.2h-15.2V149H177V164.2z"/>
	</g>
</g>
<g>
	<g>
		<rect x="165.6" y="152.8" width="7.6" height="7.6"/>
	</g>
</g>
<g>
	<g>
		<rect x="112.2" y="206.1" width="7.6" height="7.6"/>
	</g>
</g>
<g>
	<g>
		<rect x="157.9" y="198.5" width="3.8" height="3.8"/>
	</g>
</g>
<g>
	<g>
		<rect x="138.9" y="217.6" width="3.8" height="3.8"/>
	</g>
</g>
<g>
	<g>
		<rect x="142.7" y="202.3" width="3.8" height="3.8"/>
	</g>
</g>
<g>
	<g>
		<rect x="142.7" y="209.9" width="3.8" height="3.8"/>
	</g>
</g>
<g>
	<g>
		<rect x="177" y="190.9" width="3.8" height="3.8"/>
	</g>
</g>
<g>
	<g>
		<rect x="104.6" y="190.9" width="3.8" height="3.8"/>
	</g>
</g>
<g>
	<g>
		<rect x="104.6" y="171.8" width="3.8" height="3.8"/>
	</g>
</g>
<g>
	<g>
		<polygon points="146.5,149 146.5,152.8 138.9,152.8 138.9,156.6 150.3,156.6 150.3,152.8 150.3,149 		"/>
	</g>
</g>
<g>
	<g>
		<path d="M177,175.6v3.8h-7.6v3.8H158v-3.8h-3.8v3.8h-7.6v3.8H158v3.8h-7.6h-3.8V187h-3.8v3.8H139V187h-3.8v3.8h-3.8v3.8h7.6v3.8
			h3.8v-3.8h7.6v3.8h-3.8v3.8h3.8v7.6h3.8v3.8h3.8v-3.8h11.4v-7.6h3.8v-3.8h-3.8v-7.6h-7.6V187h7.6v3.8h3.8V187h3.8v-3.8h3.8v-3.8
			v-3.8H177L177,175.6z M165.6,194.7v11.4h-11.4v-11.4H165.6z"/>
	</g>
</g>
<g>
	<g>
		<polygon points="154.1,168 150.3,168 150.3,171.8 146.5,171.8 146.5,175.6 146.5,179.4 150.3,179.4 150.3,175.6 154.1,175.6 
			154.1,171.8 157.9,171.8 157.9,168 		"/>
	</g>
</g>
<g>
	<g>
		<rect x="146.5" y="217.6" width="7.6" height="3.8"/>
	</g>
</g>
<g>
	<g>
		<rect x="135.1" y="149" width="3.8" height="3.8"/>
	</g>
</g>
<g>
	<g>
		<rect x="165.6" y="175.6" width="3.8" height="3.8"/>
	</g>
</g>
<g>
	<g>
		<rect x="169.4" y="171.8" width="3.8" height="3.8"/>
	</g>
</g>
<g>
	<g>
		<rect x="119.8" y="190.9" width="3.8" height="3.8"/>
	</g>
</g>
<g>
	<g>
		<path d="M127.5,217.6v-15.2h3.8v-3.8v-3.8h-3.8v3.8H116v-3.8h-3.8h-3.8v3.8h-3.8v22.9h22.9h7.6v-3.8L127.5,217.6L127.5,217.6z
			 M123.7,217.6h-15.2v-15.2h15.2V217.6z"/>
	</g>
</g>
<g>
	<g>
		<rect x="127.5" y="168" width="3.8" height="3.8"/>
	</g>
</g>
<g>
	<g>
		<path d="M131.3,145.2h-3.8h-22.9V168h3.8v3.8h3.8V168h3.8v3.8h3.8V168h7.6v-7.6h3.8v-3.8h-3.8V149h3.8h3.8v-3.8H131.3z
			 M123.7,164.2h-15.2V149h15.2V164.2z"/>
	</g>
</g>
<g>
	<g>
		<rect x="150.3" y="156.6" width="3.8" height="3.8"/>
	</g>
</g>
<g>
	<g>
		<rect x="142.7" y="145.2" width="3.8" height="3.8"/>
	</g>
</g>
<g>
	<g>
		<path d="M150.3,168v-3.8h-3.8v-3.8h-3.8v3.8h-7.6v-3.8h-3.8v3.8v3.8h3.8v7.6h-11.4v-3.8h-3.8v3.8h-11.4v3.8h7.6v3.8h-11.4v3.8H116
			v3.8h3.8V187h3.8v3.8h3.8V187h7.6v-3.8h-3.8v-3.8h3.8h3.8v3.8h3.8h3.8v-3.8h-3.8v-3.8h-3.8V168H150.3L150.3,168z M127.5,183.3
			h-7.6v-3.8h7.6V183.3z"/>
	</g>
</g>
<g>
	<g>
		<polygon points="138.9,206.1 138.9,202.3 138.9,198.5 135.1,198.5 135.1,202.3 131.3,202.3 131.3,206.1 135.1,206.1 135.1,209.9 
			131.3,209.9 131.3,213.7 138.9,213.7 138.9,209.9 142.7,209.9 142.7,206.1 		"/>
	</g>
</g>
<g>
	<g>
		<polygon points="173.2,213.7 173.2,209.9 169.4,209.9 169.4,213.7 157.9,213.7 157.9,217.6 165.6,217.6 165.6,221.4 169.4,221.4 
			169.4,217.6 177,217.6 177,221.4 180.8,221.4 180.8,217.6 180.8,213.7 		"/>
	</g>
</g>
<g>
	<g>
		<polygon points="177,198.5 177,202.3 173.2,202.3 173.2,206.1 180.8,206.1 180.8,202.3 180.8,198.5 		"/>
	</g>
</g>
<g id="BLACK_LOGO">
	<path d="M167,137.5c0.2,0.1,0.4,0.1,0.5,0.2c0.7,0.3,1.1,0.8,1.1,1.5c0.1,0.8-0.2,1.5-0.9,1.9c-0.6,0.4-1.2,0.5-1.8,0.5
		c-1.1,0-2.3,0-3.4,0c-0.5,0-0.8-0.3-0.8-0.8c0-2.1,0-4.3,0-6.4c0-0.5,0.3-0.8,0.8-0.8c1.1,0,2.1,0,3.2,0c0.5,0,1.1,0.1,1.6,0.3
		c0.8,0.4,1.1,1,1.1,1.8s-0.4,1.3-1.2,1.6C167.1,137.4,167.1,137.4,167,137.5z M163.6,138.2c0,0.7,0,1.4,0,2c0.7,0,1.5,0,2.2,0
		s1-0.5,1-1.1c0-0.5-0.4-0.9-1.1-0.9C165,138.2,164.3,138.2,163.6,138.2z M163.6,136.9c0.7,0,1.3,0,2,0c0.4,0,0.8-0.2,0.9-0.7
		c0.2-0.6-0.2-1.2-0.9-1.2c-0.3,0-0.7,0-1,0s-0.6,0-1,0C163.6,135.6,163.6,136.2,163.6,136.9z"/>
	<path d="M134.6,138.6c0,0.7,0,1.4,0,2.1c0,0.6-0.4,0.9-1,0.9c-0.5,0-0.8-0.4-0.8-0.8c0-0.1,0-0.2,0-0.3c0-2,0-4,0-6
		c0-0.7,0.2-0.9,0.9-0.9c1,0,2,0,3.1,0c0.4,0,0.7,0.1,1.1,0.1c1.4,0.3,1.9,1.4,1.8,2.7c-0.1,0.9-0.6,1.5-1.4,1.9
		c-0.1,0-0.1,0.1-0.2,0.1l0,0c0,0.1,0.1,0.1,0.1,0.2c0.5,0.6,0.9,1.1,1.4,1.7c0.3,0.4,0.3,0.7,0,1.1c-0.3,0.3-0.7,0.4-1.1,0.2
		c-0.1-0.1-0.3-0.2-0.4-0.3c-0.7-0.8-1.3-1.6-2-2.4c-0.1-0.1-0.2-0.2-0.4-0.2C135.3,138.6,134.9,138.6,134.6,138.6z M134.6,137.1
		c0.5,0,1,0,1.4,0c0.3,0,0.6,0,0.9-0.1c0.6-0.1,0.8-0.4,0.8-1c0-0.5-0.3-0.9-0.8-1c-0.2,0-0.3-0.1-0.5-0.1c-0.6,0-1.2,0-1.9,0
		C134.6,135.7,134.6,136.4,134.6,137.1z"/>
	<path d="M144,136.8c1.2,0,2.3,0,3.5,0c0-0.1,0-0.2,0-0.3c0-0.7,0-1.4,0-2c0-0.5,0.3-0.9,0.8-0.9c0.6-0.1,1,0.3,1,0.9
		c0,0.4,0,0.9,0,1.3c0,1.6,0,3.3,0,4.9c0,0.6-0.3,1-0.8,1c-0.6,0-1-0.3-1-0.9c0-0.7,0-1.4,0-2.1c0-0.1,0-0.2,0-0.3
		c-1.2,0-2.3,0-3.5,0c0,0.1,0,0.2,0,0.3c0,0.7,0,1.4,0,2.1c0,0.6-0.4,0.9-0.9,0.9s-0.9-0.4-0.9-0.9c0-2.1,0-4.2,0-6.2
		c0-0.6,0.4-0.9,0.9-0.9s0.9,0.4,0.9,0.9C144,135.2,144,136,144,136.8z"/>
	<path d="M159.4,136.6c0,0.7,0,1.3,0,2c-0.1,1.8-1.1,2.9-2.9,3c-0.6,0-1.2,0-1.8-0.1c-1.6-0.3-2.5-1.3-2.5-3c0-1.4,0-2.8,0-4.2
		c0-0.5,0.4-0.9,0.9-0.9s0.9,0.4,0.9,0.9c0,1.2,0,2.5,0,3.7c0,0.2,0,0.4,0,0.6c0.1,1.1,0.7,1.6,1.8,1.6s1.7-0.6,1.7-1.7
		c0-1.3,0-2.6,0-3.9c0-0.1,0-0.3,0-0.4c0.1-0.5,0.5-0.7,1-0.7c0.4,0,0.8,0.3,0.8,0.8C159.4,135.1,159.4,135.9,159.4,136.6
		L159.4,136.6z"/>
	<path d="M122.3,133.4c0.8,0,1.4,0.4,1.7,1.1c0.7,1.6,1.3,3.3,2,4.9c0.1,0.3,0.3,0.7,0.4,1c0.2,0.5,0,1-0.5,1.2s-1,0-1.2-0.6
		c-0.2-0.4-0.3-0.8-0.5-1.2c-0.1-0.1-0.1-0.2-0.3-0.2c-1.1,0-2.1,0-3.2,0c-0.2,0-0.2,0.1-0.3,0.2c-0.2,0.4-0.3,0.8-0.5,1.2
		c-0.2,0.5-0.6,0.7-1.1,0.5c-0.4-0.2-0.7-0.7-0.5-1.1c0.8-2,1.6-4.1,2.5-6.1C121.3,133.7,121.8,133.4,122.3,133.4z M123.7,138.2
		c-0.4-1.1-0.8-2.1-1.2-3.2c-0.4,1.1-0.8,2.1-1.3,3.2C122.1,138.2,122.9,138.2,123.7,138.2z"/>

</g>
<path class="st8" d="M193.9,284.2h-95c-1.5,0-2.8-1.2-2.8-2.8v-1.6c0-1.5,1.2-2.8,2.8-2.8h95c1.5,0,2.8,1.2,2.8,2.8v1.6
	C196.7,283,195.5,284.2,193.9,284.2z"/>
</svg>
