<?xml version="1.0" encoding="utf-8"?>
<!-- Generator: Adobe Illustrator 26.0.3, SVG Export Plug-In . SVG Version: 6.00 Build 0)  -->
<svg version="1.1" id="Layer_1" xmlns="http://www.w3.org/2000/svg" xmlns:xlink="http://www.w3.org/1999/xlink" x="0px" y="0px"
	 viewBox="0 0 293 400" style="enable-background:new 0 0 293 400;" xml:space="preserve">
<style type="text/css">
	.st0{fill:#FFFFFF;}
	.st1{opacity:0.3;fill:#FFFFFF;enable-background:new    ;}
	.st2{fill:#FFFFFF;enable-background:new    ;}
	.st3{fill:#B9B9B9;}
	.st4{fill:#DDDDE2;}
	.st5{fill:#858585;}
	.st6{fill:#F5F5F5;}
	.st7{opacity:0.36;}
	.st8{fill:#CFFFFF;}
	.st9{fill:#FF4B55;}
	.st10{fill:#41479B;}
	.st11{fill-rule:evenodd;clip-rule:evenodd;fill:#B9B9B9;}
	.st12{fill:#C7B9B9;}
	.st13{fill:#444444;}
	.st14{fill:url(#SVGID_1_);}
	.st15{opacity:0.5;fill:#C7B9B9;enable-background:new    ;}
	.st16{fill:url(#SVGID_00000122685035350211081350000010567358408117105068_);}
	.st17{fill:url(#SVGID_00000100349937601733383150000015270006107864384137_);}
	.st18{fill:#3A3A3A;}
	.st19{fill:url(#SVGID_00000078730213599380855140000005517855245978781350_);}
	.st20{fill:#161616;}
	.st21{fill:#31125E;}
	.st22{opacity:0.3;fill:#582382;enable-background:new    ;}
	.st23{opacity:0.3;fill:#6F59D1;enable-background:new    ;}
	.st24{opacity:0.3;fill:#9D8FFF;enable-background:new    ;}
	.st25{opacity:0.3;fill:#8C38A8;enable-background:new    ;}
	.st26{opacity:0.3;fill:#CD5EDD;enable-background:new    ;}
</style>
<g>
	<path class="st0" d="M171.6,31.2h-39.4c-4.5,0-8.1-3.6-8.1-8.1l0,0c0-4.5,3.6-8.1,8.1-8.1h39.4c4.5,0,8.1,3.6,8.1,8.1l0,0
		C179.8,27.6,176.1,31.2,171.6,31.2z"/>
	<g>
		<circle class="st0" cx="170.1" cy="23.1" r="4.4"/>
		<path class="st0" d="M173.3,23.1c0,0.2,0,0.4,0,0.5c-0.2,1.5-1.6,2.7-3.1,2.7c-1.6,0-2.9-1.1-3.1-2.7c0-0.2,0-0.3,0-0.5
			c0-1.8,1.4-3.2,3.2-3.2S173.3,21.3,173.3,23.1z"/>
		<path class="st1" d="M173.2,23.6c-0.2,1.5-1.6,2.7-3.1,2.7c-1.6,0-2.9-1.1-3.1-2.7c0.8-0.6,1.9-1,3.1-1S172.4,23,173.2,23.6z"/>
		<path class="st1" d="M172.2,22.1c-0.3,0.2-1.1-0.5-2.2-0.5c-1-0.1-1.9,0.6-2.2,0.5c-0.4-0.1,0.3-1.8,2.2-1.8
			C171.9,20.3,172.6,22,172.2,22.1z"/>
		<path class="st1" d="M171.5,21.4c-0.2,0.1-0.8-0.3-1.5-0.3s-1.3,0.4-1.5,0.3c-0.3-0.1,0.2-1,1.5-1S171.8,21.4,171.5,21.4z"/>
		<path class="st1" d="M167.3,23.4c0.4-0.2,1.4,0.8,2.7,0.7c1.3,0.1,2.3-0.9,2.7-0.7c0.5,0.2-0.4,2.5-2.7,2.5
			C167.8,25.9,166.9,23.6,167.3,23.4z"/>
		<path class="st1" d="M168.4,24.7c0.2-0.1,0.9,0.3,1.7,0.3s1.4-0.4,1.7-0.3s-0.3,1-1.7,1S168.1,24.7,168.4,24.7z"/>
	</g>
	<path class="st2" d="M66,372.9V28.3C66,21.5,71.5,16,78.3,16h148.6c6.8,0,12.3,5.5,12.3,12.3v344.6c0,6.8-5.5,12.3-12.3,12.3H78.3
		C71.5,385.2,66,379.7,66,372.9z"/>
</g>
<path class="st3" d="M183.6,48.4h-63.2c-3,0-5.4-2.4-5.4-5.4l0,0c0-3,2.4-5.4,5.4-5.4h63.2c3,0,5.4,2.4,5.4,5.4l0,0
	C189,46,186.6,48.4,183.6,48.4z"/>
<path class="st3" d="M213.4,76.9H90.5c-2.9,0-5.2-2.3-5.2-5.2l0,0c0-2.9,2.3-5.2,5.2-5.2h122.9c2.9,0,5.2,2.3,5.2,5.2l0,0
	C218.6,74.6,216.3,76.9,213.4,76.9z"/>
<path class="st4" d="M191,95.5h-76.8c-2.3,0-4.1-1.9-4.1-4.1v-2.1c0-2.3,1.9-4.1,4.1-4.1H191c2.3,0,4.1,1.9,4.1,4.1v2.1
	C195.1,93.6,193.3,95.5,191,95.5z"/>
<path class="st4" d="M111.4,147H77.9c-3,0-5.5-2.5-5.5-5.5v-24c0-3,2.5-5.5,5.5-5.5h33.5c3,0,5.5,2.5,5.5,5.5v24
	C116.9,144.6,114.5,147,111.4,147z"/>
<path class="st4" d="M129.7,193.6H79.1c-3.7,0-6.7-3-6.7-6.7v-4c0-3.7,3-6.7,6.7-6.7h50.6c3.7,0,6.7,3,6.7,6.7v4
	C136.5,190.6,133.5,193.6,129.7,193.6z"/>
<path class="st0" d="M230.6,235.7h-160c-1.8,0-3.2-1.4-3.2-3.2v-18.7c0-1.8,1.4-3.2,3.2-3.2h160c1.8,0,3.2,1.4,3.2,3.2v18.7
	C233.8,234.3,232.4,235.7,230.6,235.7z"/>
<path class="st0" d="M215.2,386.4H88.4C75.5,386.4,65,375.9,65,363l0,0c0-0.9,0.7-1.6,1.6-1.6H237c0.9,0,1.6,0.7,1.6,1.6l0,0
	C238.6,375.9,228.1,386.4,215.2,386.4z"/>
<path class="st3" d="M198.5,193.6H148c-3.7,0-6.7-3-6.7-6.7v-4c0-3.7,3-6.7,6.7-6.7h50.6c3.7,0,6.7,3,6.7,6.7v4
	C205.3,190.6,202.3,193.6,198.5,193.6z"/>
<path class="st3" d="M238.6,193.6h-15.1c-4.8,0-8.7-3.9-8.7-8.7l0,0c0-4.8,3.9-8.7,8.7-8.7h15.1V193.6z"/>
<path class="st4" d="M167.5,147H134c-3,0-5.5-2.5-5.5-5.5v-24c0-3,2.5-5.5,5.5-5.5h33.5c3,0,5.5,2.5,5.5,5.5v24
	C173,144.6,170.6,147,167.5,147z"/>
<path class="st4" d="M223.6,147h-33.5c-3,0-5.5-2.5-5.5-5.5v-24c0-3,2.5-5.5,5.5-5.5h33.5c3,0,5.5,2.5,5.5,5.5v24
	C229.1,144.6,226.6,147,223.6,147z"/>
<g>
	<g>
		<path class="st5" d="M99.4,372.7h-1.7c-0.5,0-0.9,0.4-0.9,0.9v1.3c0,0.5,0.4,0.9,0.9,0.9h1.7c0.5,0,0.9-0.4,0.9-0.9v-1.3
			C100.3,373.1,99.9,372.7,99.4,372.7z M99.7,375c0,0.1-0.1,0.2-0.2,0.2h-1.7c-0.1,0-0.2-0.1-0.2-0.2v-1.3c0-0.1,0.1-0.2,0.2-0.2
			h1.7c0.1,0,0.2,0.1,0.2,0.2V375z"/>
		<path class="st5" d="M103.1,370.3c0-0.1,0-0.1,0-0.1c-0.2-0.4-1.6-2.8-1.9-3.4c-0.1-0.1-0.2-0.2-0.3-0.2h-8.4
			c-0.1,0-0.2,0.1-0.3,0.2l-1.9,3.4c0,0.1,0,0.1,0,0.2c0,0.8,0.5,1.4,1.1,1.7v5.5c0,0.2,0.1,0.3,0.3,0.3h1.7l0,0h2.4l0,0h5.8
			c0.2,0,0.3-0.1,0.3-0.3V372l0,0C102.7,371.7,103.1,371.1,103.1,370.3z M92.7,367.3h8l1.5,2.6h-11L92.7,367.3z M99.4,370.5
			c-0.1,0.6-0.6,1-1.2,1s-1.1-0.4-1.2-1H99.4z M96.4,370.5c-0.1,0.6-0.6,1-1.2,1s-1.1-0.4-1.2-1H96.4z M90.9,370.5h2.4
			c-0.1,0.6-0.6,1-1.2,1C91.5,371.5,91,371.1,90.9,370.5z M95.6,377.2h-1.8v-3.4c0-0.2,0.2-0.4,0.4-0.4h0.9c0.2,0,0.4,0.2,0.4,0.4
			L95.6,377.2L95.6,377.2z M101.4,377.2h-5.2v-3.4c0-0.6-0.5-1.1-1.1-1.1h-0.9c-0.6,0-1.1,0.5-1.1,1.1v3.4H92v-5.1h0.1
			c0.6,0,1.2-0.3,1.5-0.8c0.3,0.5,0.9,0.8,1.5,0.8s1.2-0.3,1.5-0.8c0.3,0.5,0.9,0.8,1.5,0.8s1.2-0.3,1.5-0.8
			c0.3,0.5,0.9,0.8,1.5,0.8h0.1v5.1H101.4z M101.3,371.5c-0.6,0-1.1-0.4-1.2-1h2.4C102.4,371.1,101.9,371.5,101.3,371.5z"/>
	</g>
</g>
<path class="st5" d="M156.8,375.9c0-0.1,0.1-0.2,0.2-0.2h1.3v-1.6H157c-0.1,0-0.2-0.1-0.2-0.2s0.1-0.2,0.2-0.2h1.3v-1.6H157
	c-0.1,0-0.2-0.1-0.2-0.2s0.1-0.2,0.2-0.2h1.3v-1.6H157c-0.1,0-0.2-0.1-0.2-0.2s0.1-0.2,0.2-0.2h1.3v-1.6c0-0.1-0.1-0.1-0.1-0.1
	h-12.4c-0.1,0-0.1,0.1-0.1,0.1v1.6h1.3c0.1,0,0.2,0.1,0.2,0.2s-0.1,0.2-0.2,0.2h-1.3v1.6h1.3c0.1,0,0.2,0.1,0.2,0.2
	s-0.1,0.2-0.2,0.2h-1.3v1.6h1.3c0.1,0,0.2,0.1,0.2,0.2s-0.1,0.2-0.2,0.2h-1.3v1.6h1.3c0.1,0,0.2,0.1,0.2,0.2s-0.1,0.2-0.2,0.2h-1.3
	v1.6c0,0.1,0.1,0.1,0.1,0.1h12.4c0.1,0,0.1-0.1,0.1-0.1V376H157C156.8,376,156.8,376,156.8,375.9z M155.8,375.9h-7.7v-5.8h5.8
	l1.9,1.9V375.9z"/>
<g id="Layer_2_00000012451525386078886930000003118465700616366464_">
	<path class="st5" d="M207.2,372.6c-1.2,0-2.2-1-2.2-2.2s1-2.2,2.2-2.2s2.2,1,2.2,2.2S208.4,372.6,207.2,372.6z M207.2,369
		c-0.8,0-1.5,0.7-1.5,1.5s0.7,1.5,1.5,1.5s1.5-0.7,1.5-1.5C208.6,369.6,208,369,207.2,369z"/>
	<path class="st5" d="M204.4,377c-0.6-0.3-1.1-0.8-1.5-1.3l-0.2-0.2l0.1-0.1c1-1.2,2.5-2.1,4.1-2.1c1.8,0,3.4,0.7,4.4,2l0.2,0.2
		l-0.2,0.2C209.8,377.7,206.9,378.4,204.4,377z M203.7,375.5c1.9,2,5,2,6.9,0l0,0C208.8,373.5,205.6,373.5,203.7,375.5L203.7,375.5z
		"/>
	<path class="st5" d="M207.2,377.7c-3.4,0-6.1-3.1-5.4-6.6c0.4-2.1,2.1-3.7,4.2-4.2c3.5-0.7,6.7,1.9,6.7,5.3c0,1.3-0.4,2.5-1.2,3.5
		C210.4,377,208.8,377.7,207.2,377.7z M207.2,367.5c-2.6,0-4.7,2.1-4.7,4.7s2.1,4.7,4.7,4.7c2.6,0,4.7-2.1,4.7-4.7
		S209.8,367.5,207.2,367.5z"/>
	<path class="st5" d="M203.2,375.5c0,0,3.7,4.1,7.4,0.4l0.5-0.4c0,0-3.1-3.2-6.3-1.3L203.2,375.5z"/>
	<circle class="st5" cx="207.2" cy="370.4" r="1.8"/>
</g>
<path class="st6" d="M91.7,248.5h-17c-0.8,0-1.5,0.7-1.5,1.5v10.1c0,0.8,0.7,1.5,1.5,1.5h17c0.8,0,1.5-0.7,1.5-1.5V250
	C93.2,249.2,92.5,248.5,91.7,248.5z"/>
<g class="st7">
	<path class="st8" d="M232.2,268.2H69c-0.9,0-1.6-0.7-1.6-1.6v-21.8c0-0.9,0.7-1.6,1.6-1.6h163.2c0.9,0,1.6,0.7,1.6,1.6v21.8
		C233.8,267.5,233.1,268.2,232.2,268.2z"/>
	<path class="st8" d="M232.2,299.5H69c-0.9,0-1.6-0.7-1.6-1.6v-21.8c0-0.9,0.7-1.6,1.6-1.6h163.2c0.9,0,1.6,0.7,1.6,1.6v21.8
		C233.8,298.8,233.1,299.5,232.2,299.5z"/>
	<path class="st8" d="M232.2,330.8H69c-0.9,0-1.6-0.7-1.6-1.6v-21.8c0-0.9,0.7-1.6,1.6-1.6h163.2c0.9,0,1.6,0.7,1.6,1.6v21.8
		C233.8,330.1,233.1,330.8,232.2,330.8z"/>
</g>
<g>
	<path class="st9" d="M73.3,260.1c0,0.8,0.7,1.5,1.5,1.5h17c0.8,0,1.5-0.7,1.5-1.5v-0.6h-20V260.1z"/>
	<path class="st9" d="M91.7,248.5h-17c-0.8,0-1.5,0.7-1.5,1.5v0.6h19.9V250C93.2,249.2,92.5,248.5,91.7,248.5z"/>
</g>
<rect x="73.3" y="252.7" class="st10" width="19.9" height="4.8"/>
<path class="st10" d="M79.9,293h-6.3c-0.2,0-0.3-0.2-0.3-0.3v-12.4c0-0.2,0.2-0.3,0.3-0.3h6.3V293z"/>
<rect x="79.9" y="279.9" class="st6" width="6.6" height="13.1"/>
<path class="st9" d="M92.9,293h-6.3v-13.1h6.3c0.2,0,0.3,0.2,0.3,0.3v12.4C93.2,292.9,93.1,293,92.9,293z"/>
<path class="st6" d="M92.9,324H73.6c-0.2,0-0.3-0.2-0.3-0.3v-12.4c0-0.2,0.2-0.3,0.3-0.3h19.2c0.2,0,0.3,0.2,0.3,0.3v12.4
	C93.2,323.8,93.1,324,92.9,324z"/>
<g>
	<path class="st9" d="M93.2,311.9H73.3v-0.7c0-0.2,0.2-0.3,0.3-0.3h19.2c0.2,0,0.3,0.2,0.3,0.3L93.2,311.9L93.2,311.9z"/>
	<rect x="73.3" y="314.9" class="st9" width="19.9" height="1"/>
	<rect x="73.3" y="312.9" class="st9" width="19.9" height="1"/>
	<path class="st9" d="M93.2,317.9H73.6c-0.2,0-0.3-0.2-0.3-0.3v-0.7h19.9V317.9z"/>
	<rect x="73.3" y="320.9" class="st9" width="19.9" height="1"/>
	<path class="st9" d="M92.9,324H73.6c-0.2,0-0.3-0.2-0.3-0.3V323h19.9v0.7C93.2,323.8,93.1,324,92.9,324z"/>
	<rect x="73.3" y="318.9" class="st9" width="19.9" height="1"/>
</g>
<path class="st10" d="M82.2,310.9h-8.6c-0.2,0-0.3,0.2-0.3,0.3v6.3c0,0.2,0.2,0.3,0.3,0.3h8.6c0.2,0,0.3-0.2,0.3-0.3v-6.3
	C82.6,311,82.4,310.9,82.2,310.9z"/>
<g>
	<path class="st6" d="M74.2,311.7l0.1,0.2h0.2c0,0,0,0,0,0.1l-0.2,0.1l0.1,0.2c0,0,0,0.1,0,0l-0.2-0.1l-0.2,0.1c0,0-0.1,0,0,0
		l0.1-0.2l-0.2-0.1v-0.1h0.2L74.2,311.7L74.2,311.7z"/>
	<path class="st6" d="M74.2,312.9l0.1,0.2h0.2c0,0,0,0,0,0.1l-0.2,0.1l0.1,0.2c0,0,0,0.1,0,0l-0.2-0.1l-0.2,0.1c0,0-0.1,0,0,0
		l0.1-0.2l-0.2-0.1v-0.1h0.2L74.2,312.9C74.2,312.8,74.2,312.8,74.2,312.9z"/>
	<path class="st6" d="M74.2,314.1l0.1,0.2h0.2c0,0,0,0,0,0.1l-0.2,0.1l0.1,0.2c0,0,0,0.1,0,0l-0.2-0.1l-0.2,0.1c0,0-0.1,0,0,0
		l0.1-0.2l-0.2-0.1v-0.1h0.2L74.2,314.1C74.2,314,74.2,314,74.2,314.1z"/>
	<path class="st6" d="M74.2,315.3l0.1,0.2h0.2c0,0,0,0,0,0.1l-0.2,0.1l0.1,0.2c0,0,0,0.1,0,0l-0.2-0.1L74,316c0,0-0.1,0,0,0l0.1-0.2
		l-0.2-0.1v-0.1h0.2L74.2,315.3C74.2,315.2,74.2,315.2,74.2,315.3z"/>
	<path class="st6" d="M74.2,316.5l0.1,0.2h0.2c0,0,0,0,0,0.1l-0.2,0.1l0.1,0.2c0,0,0,0.1,0,0l-0.2-0.1l-0.2,0.1c0,0-0.1,0,0,0
		l0.1-0.2l-0.2-0.1v-0.1h0.2L74.2,316.5C74.2,316.4,74.2,316.4,74.2,316.5z"/>
	<path class="st6" d="M75.2,312.3l0.1,0.2h0.2c0,0,0,0,0,0.1l-0.2,0.1l0.1,0.2c0,0,0,0.1,0,0l-0.2-0.1l-0.2,0.1c0,0-0.1,0,0,0
		l0.1-0.2l-0.2-0.1v-0.1h0.2L75.2,312.3C75.1,312.2,75.2,312.2,75.2,312.3z"/>
	<path class="st6" d="M75.2,313.5l0.1,0.2h0.2c0,0,0,0,0,0.1l-0.2,0.1l0.1,0.2c0,0,0,0.1,0,0l-0.2-0.1l-0.2,0.1c0,0-0.1,0,0,0
		l0.1-0.2l-0.2-0.1v-0.1h0.2L75.2,313.5C75.1,313.4,75.2,313.4,75.2,313.5z"/>
	<path class="st6" d="M75.2,314.7l0.1,0.2h0.2c0,0,0,0,0,0.1l-0.2,0.1l0.1,0.2c0,0,0,0.1,0,0l-0.2-0.1l-0.2,0.1c0,0-0.1,0,0,0
		l0.1-0.2l-0.2-0.1v-0.1h0.2L75.2,314.7C75.1,314.6,75.2,314.6,75.2,314.7z"/>
	<path class="st6" d="M75.2,315.8l0.1,0.2h0.2c0,0,0,0,0,0.1l-0.2,0.1l0.1,0.2c0,0,0,0.1,0,0l-0.2-0.1l-0.2,0.1c0,0-0.1,0,0,0
		l0.1-0.2l-0.2-0.1V316h0.2L75.2,315.8C75.1,315.8,75.2,315.8,75.2,315.8z"/>
	<path class="st6" d="M76.1,311.7l0.1,0.2h0.2c0,0,0,0,0,0.1l-0.2,0.1l0.1,0.2c0,0,0,0.1,0,0l-0.2-0.1l-0.2,0.1c0,0-0.1,0,0,0
		l0.1-0.2l-0.2-0.1v-0.1H76L76.1,311.7C76,311.7,76.1,311.7,76.1,311.7z"/>
	<path class="st6" d="M76.1,312.9l0.1,0.2h0.2c0,0,0,0,0,0.1l-0.2,0.1l0.1,0.2c0,0,0,0.1,0,0l-0.2-0.1l-0.2,0.1c0,0-0.1,0,0,0
		l0.1-0.2l-0.2-0.1v-0.1H76L76.1,312.9C76,312.8,76.1,312.8,76.1,312.9z"/>
	<path class="st6" d="M76.1,314.1l0.1,0.2h0.2c0,0,0,0,0,0.1l-0.2,0.1l0.1,0.2c0,0,0,0.1,0,0l-0.2-0.1l-0.2,0.1c0,0-0.1,0,0,0
		l0.1-0.2l-0.2-0.1v-0.1H76L76.1,314.1C76,314,76.1,314,76.1,314.1z"/>
	<path class="st6" d="M76.1,315.3l0.1,0.2h0.2c0,0,0,0,0,0.1l-0.2,0.1l0.1,0.2c0,0,0,0.1,0,0l-0.2-0.1l-0.2,0.1c0,0-0.1,0,0,0
		l0.1-0.2l-0.2-0.1v-0.1H76L76.1,315.3C76,315.2,76.1,315.2,76.1,315.3z"/>
	<path class="st6" d="M76.1,316.5l0.1,0.2h0.2c0,0,0,0,0,0.1l-0.2,0.1l0.1,0.2c0,0,0,0.1,0,0l-0.2-0.1l-0.2,0.1c0,0-0.1,0,0,0
		l0.1-0.2l-0.2-0.1v-0.1H76L76.1,316.5C76,316.4,76.1,316.4,76.1,316.5z"/>
	<path class="st6" d="M77,312.3l0.1,0.2h0.2c0,0,0,0,0,0.1l-0.2,0.1l0.1,0.2c0,0,0,0.1,0,0l-0.2-0.1l-0.2,0.1c0,0-0.1,0,0,0l0.1-0.2
		l-0.2-0.1v-0.1h0.2L77,312.3C77,312.2,77,312.2,77,312.3z"/>
	<path class="st6" d="M77,313.5l0.1,0.2h0.2c0,0,0,0,0,0.1l-0.2,0.1l0.1,0.2c0,0,0,0.1,0,0L77,314l-0.2,0.1c0,0-0.1,0,0,0l0.1-0.2
		l-0.2-0.1v-0.1h0.2L77,313.5C77,313.4,77,313.4,77,313.5z"/>
	<path class="st6" d="M77,314.7l0.1,0.2h0.2c0,0,0,0,0,0.1l-0.2,0.1l0.1,0.2c0,0,0,0.1,0,0l-0.2-0.1l-0.2,0.1c0,0-0.1,0,0,0l0.1-0.2
		l-0.2-0.1v-0.1h0.2L77,314.7C77,314.6,77,314.6,77,314.7z"/>
	<path class="st6" d="M77,315.8l0.1,0.2h0.2c0,0,0,0,0,0.1l-0.2,0.1l0.1,0.2c0,0,0,0.1,0,0l-0.2-0.1l-0.2,0.1c0,0-0.1,0,0,0l0.1-0.2
		l-0.2-0.1V316h0.2L77,315.8L77,315.8z"/>
	<path class="st6" d="M78,311.7l0.1,0.2h0.2c0,0,0,0,0,0.1l-0.2,0.1l0.1,0.2c0,0,0,0.1,0,0l-0.2-0.1l-0.2,0.1c0,0-0.1,0,0,0l0.1-0.2
		l-0.2-0.1v-0.1h0.2L78,311.7C77.9,311.7,77.9,311.7,78,311.7z"/>
	<path class="st6" d="M78,312.9l0.1,0.2h0.2c0,0,0,0,0,0.1l-0.2,0.1l0.1,0.2c0,0,0,0.1,0,0l-0.2-0.1l-0.2,0.1c0,0-0.1,0,0,0l0.1-0.2
		l-0.2-0.1v-0.1h0.2L78,312.9C77.9,312.8,77.9,312.8,78,312.9z"/>
	<path class="st6" d="M78,314.1l0.1,0.2h0.2c0,0,0,0,0,0.1l-0.2,0.1l0.1,0.2c0,0,0,0.1,0,0l-0.2-0.1l-0.2,0.1c0,0-0.1,0,0,0l0.1-0.2
		l-0.2-0.1v-0.1h0.2L78,314.1C77.9,314,77.9,314,78,314.1z"/>
	<path class="st6" d="M78,315.3l0.1,0.2h0.2c0,0,0,0,0,0.1l-0.2,0.1l0.1,0.2c0,0,0,0.1,0,0l-0.2-0.1l-0.2,0.1c0,0-0.1,0,0,0l0.1-0.2
		l-0.2-0.1v-0.1h0.2L78,315.3C77.9,315.2,77.9,315.2,78,315.3z"/>
	<path class="st6" d="M78,316.5l0.1,0.2h0.2c0,0,0,0,0,0.1l-0.2,0.1l0.1,0.2c0,0,0,0.1,0,0L78,317l-0.2,0.1c0,0-0.1,0,0,0l0.1-0.2
		l-0.2-0.1v-0.1h0.2L78,316.5C77.9,316.4,77.9,316.4,78,316.5z"/>
	<path class="st6" d="M78.9,312.3l0.1,0.2h0.2c0,0,0,0,0,0.1l-0.2,0.1l0.1,0.2c0,0,0,0.1,0,0l-0.2-0.1l-0.2,0.1c0,0-0.1,0,0,0
		l0.1-0.2l-0.2-0.1v-0.1h0.2L78.9,312.3C78.8,312.2,78.9,312.2,78.9,312.3z"/>
	<path class="st6" d="M78.9,313.5l0.1,0.2h0.2c0,0,0,0,0,0.1l-0.2,0.1l0.1,0.2c0,0,0,0.1,0,0l-0.2-0.1l-0.2,0.1c0,0-0.1,0,0,0
		l0.1-0.2l-0.2-0.1v-0.1h0.2L78.9,313.5C78.8,313.4,78.9,313.4,78.9,313.5z"/>
	<path class="st6" d="M78.9,314.7l0.1,0.2h0.2c0,0,0,0,0,0.1l-0.2,0.1l0.1,0.2c0,0,0,0.1,0,0l-0.2-0.1l-0.2,0.1c0,0-0.1,0,0,0
		l0.1-0.2l-0.2-0.1v-0.1h0.2L78.9,314.7C78.8,314.6,78.9,314.6,78.9,314.7z"/>
	<path class="st6" d="M78.9,315.8L79,316h0.2c0,0,0,0,0,0.1l-0.2,0.1l0.1,0.2c0,0,0,0.1,0,0l-0.2-0.1l-0.2,0.1c0,0-0.1,0,0,0
		l0.1-0.2l-0.2-0.1V316h0.2L78.9,315.8C78.8,315.8,78.9,315.8,78.9,315.8z"/>
	<path class="st6" d="M79.8,311.7l0.1,0.2h0.2c0,0,0,0,0,0.1l-0.2,0.1l0.1,0.2c0,0,0,0.1,0,0l-0.2-0.1l-0.2,0.1c0,0-0.1,0,0,0
		l0.1-0.2l-0.2-0.1v-0.1h0.2L79.8,311.7L79.8,311.7z"/>
	<path class="st6" d="M79.8,312.9l0.1,0.2h0.2c0,0,0,0,0,0.1l-0.2,0.1l0.1,0.2c0,0,0,0.1,0,0l-0.2-0.1l-0.2,0.1c0,0-0.1,0,0,0
		l0.1-0.2l-0.2-0.1v-0.1h0.2L79.8,312.9C79.8,312.8,79.8,312.8,79.8,312.9z"/>
	<path class="st6" d="M79.8,314.1l0.1,0.2h0.2c0,0,0,0,0,0.1l-0.2,0.1l0.1,0.2c0,0,0,0.1,0,0l-0.2-0.1l-0.2,0.1c0,0-0.1,0,0,0
		l0.1-0.2l-0.2-0.1v-0.1h0.2L79.8,314.1C79.8,314,79.8,314,79.8,314.1z"/>
	<path class="st6" d="M79.8,315.3l0.1,0.2h0.2c0,0,0,0,0,0.1l-0.2,0.1l0.1,0.2c0,0,0,0.1,0,0l-0.2-0.1l-0.2,0.1c0,0-0.1,0,0,0
		l0.1-0.2l-0.2-0.1v-0.1h0.2L79.8,315.3C79.8,315.2,79.8,315.2,79.8,315.3z"/>
	<path class="st6" d="M79.8,316.5l0.1,0.2h0.2c0,0,0,0,0,0.1l-0.2,0.1l0.1,0.2c0,0,0,0.1,0,0l-0.2-0.1l-0.2,0.1c0,0-0.1,0,0,0
		l0.1-0.2l-0.2-0.1v-0.1h0.2L79.8,316.5C79.8,316.4,79.8,316.4,79.8,316.5z"/>
	<path class="st6" d="M80.7,312.3l0.1,0.2H81c0,0,0,0,0,0.1l-0.2,0.1l0.1,0.2c0,0,0,0.1,0,0l-0.2-0.1l-0.2,0.1c0,0-0.1,0,0,0
		l0.1-0.2l-0.2-0.1v-0.1h0.2L80.7,312.3C80.7,312.2,80.7,312.2,80.7,312.3z"/>
	<path class="st6" d="M80.7,313.5l0.1,0.2H81c0,0,0,0,0,0.1l-0.2,0.1l0.1,0.2c0,0,0,0.1,0,0l-0.2-0.1l-0.2,0.1c0,0-0.1,0,0,0
		l0.1-0.2l-0.2-0.1v-0.1h0.2L80.7,313.5C80.7,313.4,80.7,313.4,80.7,313.5z"/>
	<path class="st6" d="M80.7,314.7l0.1,0.2H81c0,0,0,0,0,0.1l-0.2,0.1l0.1,0.2c0,0,0,0.1,0,0l-0.2-0.1l-0.2,0.1c0,0-0.1,0,0,0
		l0.1-0.2l-0.2-0.1v-0.1h0.2L80.7,314.7C80.7,314.6,80.7,314.6,80.7,314.7z"/>
	<path class="st6" d="M80.7,315.8l0.1,0.2H81c0,0,0,0,0,0.1l-0.2,0.1l0.1,0.2c0,0,0,0.1,0,0l-0.2-0.1l-0.2,0.1c0,0-0.1,0,0,0
		l0.1-0.2l-0.2-0.1V316h0.2L80.7,315.8L80.7,315.8z"/>
	<path class="st6" d="M81.7,311.7l0.1,0.2H82c0,0,0,0,0,0.1l-0.2,0.1l0.1,0.2c0,0,0,0.1,0,0l-0.2-0.1l-0.2,0.1c0,0-0.1,0,0,0
		l0.1-0.2l-0.2-0.1v-0.1h0.2L81.7,311.7C81.6,311.7,81.6,311.7,81.7,311.7z"/>
	<path class="st6" d="M81.7,312.9l0.1,0.2H82c0,0,0,0,0,0.1l-0.2,0.1l0.1,0.2c0,0,0,0.1,0,0l-0.2-0.1l-0.2,0.1c0,0-0.1,0,0,0
		l0.1-0.2l-0.2-0.1v-0.1h0.2L81.7,312.9C81.6,312.8,81.6,312.8,81.7,312.9z"/>
	<path class="st6" d="M81.7,314.1l0.1,0.2H82c0,0,0,0,0,0.1l-0.2,0.1l0.1,0.2c0,0,0,0.1,0,0l-0.2-0.1l-0.2,0.1c0,0-0.1,0,0,0
		l0.1-0.2l-0.2-0.1v-0.1h0.2L81.7,314.1C81.6,314,81.6,314,81.7,314.1z"/>
	<path class="st6" d="M81.7,315.3l0.1,0.2H82c0,0,0,0,0,0.1l-0.2,0.1l0.1,0.2c0,0,0,0.1,0,0l-0.2-0.1l-0.2,0.1c0,0-0.1,0,0,0
		l0.1-0.2l-0.2-0.1v-0.1h0.2L81.7,315.3C81.6,315.2,81.6,315.2,81.7,315.3z"/>
	<path class="st6" d="M81.7,316.5l0.1,0.2H82c0,0,0,0,0,0.1l-0.2,0.1l0.1,0.2c0,0,0,0.1,0,0l-0.2-0.1l-0.2,0.1c0,0-0.1,0,0,0
		l0.1-0.2l-0.2-0.1v-0.1h0.2L81.7,316.5C81.6,316.4,81.6,316.4,81.7,316.5z"/>
</g>
<g id="Icon">
	<g>
		<path class="st11" d="M87.8,213.4c-3.9,0-7.1,3.2-7.1,7.1s3.2,7.1,7.1,7.1s7.1-3.2,7.1-7.1S91.7,213.4,87.8,213.4z M87.8,214.5
			c3.3,0,6,2.7,6,6s-2.7,6-6,6s-6-2.7-6-6S84.5,214.5,87.8,214.5z"/>
		<path class="st11" d="M99.1,231l-6.3-6.3c-0.2-0.2-0.6-0.2-0.8,0c-0.2,0.2-0.2,0.6,0,0.8l6.3,6.3c0.2,0.2,0.6,0.2,0.8,0
			S99.3,231.2,99.1,231z"/>
	</g>
</g>
<path class="st12" d="M220.6,8.5H85.5c-15.4,0-28,12.2-28,27.1v333.3c0,14.9,12.6,27.1,28,27.1h135.1c15.4,0,28-12.2,28-27.1V35.6
	C248.6,20.7,236.1,8.5,220.6,8.5z M240.7,368.9c0,10.7-9,19.4-20,19.4H85.5c-11.1,0-20-8.7-20-19.4V35.6c0-10.7,9-19.4,20-19.4h18.9
	c1.3,0,2.4,1.1,2.4,2.4v6.3c0,3.5,3.3,6.4,7.5,6.4h77.6c4.1,0,7.5-2.9,7.5-6.4v-6.3c0-1.3,1.1-2.4,2.4-2.4h18.9
	c11.1,0,20,8.7,20,19.4L240.7,368.9L240.7,368.9z"/>
<path class="st13" d="M169.3,20.7h-32.5c-0.8,0-1.5,0.7-1.5,1.5s0.7,1.5,1.5,1.5h32.5c0.8,0,1.5-0.7,1.5-1.5S170.2,20.7,169.3,20.7z
	"/>
<linearGradient id="SVGID_1_" gradientUnits="userSpaceOnUse" x1="56.4" y1="73.2581" x2="56.4" y2="54.0212" gradientTransform="matrix(1 0 0 1 0 2)">
	<stop  offset="0" style="stop-color:#6D6F71"/>
	<stop  offset="1.000000e-02" style="stop-color:#7B7D7F"/>
	<stop  offset="5.000000e-02" style="stop-color:#9B9C9E"/>
	<stop  offset="8.000000e-02" style="stop-color:#B6B7B8"/>
	<stop  offset="0.12" style="stop-color:#CCCDCE"/>
	<stop  offset="0.17" style="stop-color:#DDDDDE"/>
	<stop  offset="0.23" style="stop-color:#E9E9EA"/>
	<stop  offset="0.32" style="stop-color:#F0F0F1"/>
	<stop  offset="0.55" style="stop-color:#F2F2F3"/>
	<stop  offset="0.74" style="stop-color:#F0F0F1"/>
	<stop  offset="0.81" style="stop-color:#E9E9EA"/>
	<stop  offset="0.86" style="stop-color:#DDDDDE"/>
	<stop  offset="0.9" style="stop-color:#CCCDCE"/>
	<stop  offset="0.93" style="stop-color:#B6B7B8"/>
	<stop  offset="0.96" style="stop-color:#9B9C9E"/>
	<stop  offset="0.99" style="stop-color:#7B7D7F"/>
	<stop  offset="1" style="stop-color:#6D6F71"/>
</linearGradient>
<path class="st14" d="M55.3,58.1v15c0,1.2,1,2.1,2.2,2.1l0,0V56l0,0C56.3,56,55.3,57,55.3,58.1L55.3,58.1z"/>
<path class="st15" d="M55.3,58.1v15c0,1.2,1,2.1,2.2,2.1l0,0V56l0,0C56.3,56,55.3,57,55.3,58.1L55.3,58.1z"/>
<linearGradient id="SVGID_00000160165052045104000610000002237198758338546867_" gradientUnits="userSpaceOnUse" x1="56.5" y1="126" x2="56.5" y2="93.2" gradientTransform="matrix(1 0 0 1 0 2)">
	<stop  offset="0" style="stop-color:#6D6F71"/>
	<stop  offset="1.000000e-02" style="stop-color:#7B7D7F"/>
	<stop  offset="5.000000e-02" style="stop-color:#9B9C9E"/>
	<stop  offset="8.000000e-02" style="stop-color:#B6B7B8"/>
	<stop  offset="0.12" style="stop-color:#CCCDCE"/>
	<stop  offset="0.17" style="stop-color:#DDDDDE"/>
	<stop  offset="0.23" style="stop-color:#E9E9EA"/>
	<stop  offset="0.32" style="stop-color:#F0F0F1"/>
	<stop  offset="0.55" style="stop-color:#F2F2F3"/>
	<stop  offset="0.74" style="stop-color:#F0F0F1"/>
	<stop  offset="0.81" style="stop-color:#E9E9EA"/>
	<stop  offset="0.86" style="stop-color:#DDDDDE"/>
	<stop  offset="0.9" style="stop-color:#CCCDCE"/>
	<stop  offset="0.93" style="stop-color:#B6B7B8"/>
	<stop  offset="0.96" style="stop-color:#9B9C9E"/>
	<stop  offset="0.99" style="stop-color:#7B7D7F"/>
	<stop  offset="1" style="stop-color:#6D6F71"/>
</linearGradient>
<path style="fill:url(#SVGID_00000160165052045104000610000002237198758338546867_);" d="M55.3,97.4v28.4c0,1.2,1,2.2,2.2,2.2h0.2
	V95.2h-0.2C56.3,95.2,55.3,96.2,55.3,97.4z"/>
<path class="st15" d="M55.3,97.4v28.4c0,1.2,1,2.2,2.2,2.2h0.2V95.2h-0.2C56.3,95.2,55.3,96.2,55.3,97.4z"/>
<linearGradient id="SVGID_00000083780188497990499150000011170833205341708194_" gradientUnits="userSpaceOnUse" x1="56.5" y1="167.4572" x2="56.5" y2="134.6572" gradientTransform="matrix(1 0 0 1 0 2)">
	<stop  offset="0" style="stop-color:#6D6F71"/>
	<stop  offset="1.000000e-02" style="stop-color:#7B7D7F"/>
	<stop  offset="5.000000e-02" style="stop-color:#9B9C9E"/>
	<stop  offset="8.000000e-02" style="stop-color:#B6B7B8"/>
	<stop  offset="0.12" style="stop-color:#CCCDCE"/>
	<stop  offset="0.17" style="stop-color:#DDDDDE"/>
	<stop  offset="0.23" style="stop-color:#E9E9EA"/>
	<stop  offset="0.32" style="stop-color:#F0F0F1"/>
	<stop  offset="0.55" style="stop-color:#F2F2F3"/>
	<stop  offset="0.74" style="stop-color:#F0F0F1"/>
	<stop  offset="0.81" style="stop-color:#E9E9EA"/>
	<stop  offset="0.86" style="stop-color:#DDDDDE"/>
	<stop  offset="0.9" style="stop-color:#CCCDCE"/>
	<stop  offset="0.93" style="stop-color:#B6B7B8"/>
	<stop  offset="0.96" style="stop-color:#9B9C9E"/>
	<stop  offset="0.99" style="stop-color:#7B7D7F"/>
	<stop  offset="1" style="stop-color:#6D6F71"/>
</linearGradient>
<path style="fill:url(#SVGID_00000083780188497990499150000011170833205341708194_);" d="M55.3,138.8v28.4c0,1.2,1,2.2,2.2,2.2h0.2
	v-32.8h-0.2C56.3,136.7,55.3,137.6,55.3,138.8z"/>
<path class="st15" d="M55.3,138.8v28.4c0,1.2,1,2.2,2.2,2.2h0.2v-32.8h-0.2C56.3,136.7,55.3,137.6,55.3,138.8z"/>
<path class="st18" d="M244.8,35.6V366c0,12.9-10.9,23.4-24.2,23.4H85.5c-13.3,0-24.2-10.5-24.2-23.4V35.6
	c0-12.9,10.8-23.4,24.2-23.4h135.1C234,12.2,244.8,22.7,244.8,35.6L244.8,35.6z M220.6,16.3h-18.9c-1.3,0-2.3,1-2.3,2.2v6.3
	c0,3.6-3.4,6.5-7.6,6.5h-77.6c-4.2,0-7.6-2.9-7.6-6.5v-6.3c0-1.2-1-2.2-2.3-2.2H85.5c-11,0-19.9,8.6-19.9,19.3V366
	c0,10.7,8.9,19.3,19.9,19.3h135.1c11,0,19.9-8.6,19.9-19.3V35.6C240.5,25,231.6,16.3,220.6,16.3L220.6,16.3z M240.7,35.6V366
	c0,10.7-9,19.4-20,19.4H85.5c-11.1,0-20-8.7-20-19.4V35.6c0-10.7,9-19.4,20-19.4h18.9c1.3,0,2.4,1.1,2.4,2.4v6.3
	c0,3.5,3.3,6.4,7.5,6.4h77.6c4.1,0,7.5-2.9,7.5-6.4v-6.3c0-1.3,1.1-2.4,2.4-2.4h18.9C231.7,16.2,240.7,24.9,240.7,35.6L240.7,35.6z
	 M240.4,35.6c0-10.6-8.9-19.2-19.8-19.2h-18.9c-1.2,0-2.2,1-2.2,2.1v6.3c0,3.7-3.5,6.7-7.7,6.7h-77.6c-4.2,0-7.7-3-7.7-6.7v-6.3
	c0-1.2-1-2.1-2.2-2.1H85.5c-10.9,0-19.8,8.6-19.8,19.2V366c0,10.6,8.9,19.2,19.8,19.2h135.1c10.9,0,19.8-8.6,19.8-19.2L240.4,35.6
	L240.4,35.6z"/>
<linearGradient id="SVGID_00000075843703545958773670000017242426847877142185_" gradientUnits="userSpaceOnUse" x1="249.45" y1="154.8" x2="249.45" y2="105.9" gradientTransform="matrix(1 0 0 1 0 2)">
	<stop  offset="0" style="stop-color:#6D6F71"/>
	<stop  offset="1.000000e-02" style="stop-color:#7B7D7F"/>
	<stop  offset="5.000000e-02" style="stop-color:#9B9C9E"/>
	<stop  offset="8.000000e-02" style="stop-color:#B6B7B8"/>
	<stop  offset="0.12" style="stop-color:#CCCDCE"/>
	<stop  offset="0.17" style="stop-color:#DDDDDE"/>
	<stop  offset="0.23" style="stop-color:#E9E9EA"/>
	<stop  offset="0.32" style="stop-color:#F0F0F1"/>
	<stop  offset="0.55" style="stop-color:#F2F2F3"/>
	<stop  offset="0.74" style="stop-color:#F0F0F1"/>
	<stop  offset="0.81" style="stop-color:#E9E9EA"/>
	<stop  offset="0.86" style="stop-color:#DDDDDE"/>
	<stop  offset="0.9" style="stop-color:#CCCDCE"/>
	<stop  offset="0.93" style="stop-color:#B6B7B8"/>
	<stop  offset="0.96" style="stop-color:#9B9C9E"/>
	<stop  offset="0.99" style="stop-color:#7B7D7F"/>
	<stop  offset="1" style="stop-color:#6D6F71"/>
</linearGradient>
<path style="fill:url(#SVGID_00000075843703545958773670000017242426847877142185_);" d="M248.6,107.9v48.9c0.9,0,1.7-1,1.7-2.1V110
	C250.3,108.8,249.5,107.9,248.6,107.9z"/>
<path class="st15" d="M248.6,107.9v48.9c0.9,0,1.7-1,1.7-2.1V110C250.3,108.8,249.5,107.9,248.6,107.9z"/>
<g>
	<circle class="st20" cx="184.8" cy="22.2" r="6.2"/>
	<path class="st21" d="M189.3,22.2c0,0.3,0,0.5-0.1,0.7c-0.3,2.1-2.2,3.8-4.4,3.8s-4.1-1.6-4.4-3.8c0-0.2-0.1-0.5-0.1-0.7
		c0-2.5,2-4.5,4.5-4.5S189.3,19.7,189.3,22.2z"/>
	<path class="st22" d="M189.2,22.9c-0.3,2.1-2.2,3.8-4.4,3.8s-4.1-1.6-4.4-3.8c1.1-0.9,2.7-1.4,4.4-1.4S188.1,22.1,189.2,22.9z"/>
	<path class="st23" d="M187.9,20.8c-0.4,0.2-1.6-0.7-3.1-0.7c-1.4-0.1-2.6,0.9-3.1,0.7c-0.5-0.2,0.5-2.5,3.1-2.5
		S188.4,20.6,187.9,20.8z"/>
	<path class="st24" d="M186.9,19.9c-0.3,0.1-1.1-0.4-2.1-0.4s-1.8,0.5-2.1,0.4c-0.4-0.1,0.3-1.4,2.1-1.4
		C186.6,18.5,187.2,19.8,186.9,19.9z"/>
	<path class="st25" d="M181,22.7c0.5-0.3,2,1.1,3.8,1c1.8,0.1,3.3-1.3,3.8-1c0.7,0.2-0.6,3.6-3.8,3.6
		C181.6,26.2,180.3,22.9,181,22.7z"/>
	<path class="st26" d="M182.5,24.4c0.3-0.1,1.2,0.4,2.3,0.4s2-0.5,2.3-0.4c0.4,0.1-0.4,1.4-2.3,1.4
		C182.8,25.9,182.1,24.5,182.5,24.4z"/>
</g>
</svg>
