<svg width="24" height="24" viewBox="0 0 24 24" fill="none" xmlns="http://www.w3.org/2000/svg">
<g clip-path="url(#clip0_241_666)">
<path d="M13.4062 7.07812H12.6324C12.5411 6.62991 12.3637 6.21281 12.1192 5.84391L12.6678 5.29528C12.9424 5.02069 12.9424 4.57552 12.6678 4.30092C12.3933 4.02633 11.9481 4.02633 11.6735 4.30092L11.1248 4.84955C10.756 4.60495 10.3388 4.42767 9.89062 4.33636V3.5625C9.89062 3.17419 9.57581 2.85938 9.1875 2.85938C8.79919 2.85938 8.48438 3.17419 8.48438 3.5625V4.33636C8.03616 4.42767 7.61906 4.605 7.25016 4.84955L6.70153 4.30092C6.42698 4.02628 5.98177 4.02637 5.70717 4.30092C5.43258 4.57552 5.43258 5.02069 5.70717 5.29528L6.2558 5.84391C6.0112 6.21277 5.83392 6.62991 5.74261 7.07812H4.96875C4.58044 7.07812 4.26562 7.39294 4.26562 7.78125C4.26562 8.16956 4.58044 8.48438 4.96875 8.48438H5.74261C5.83392 8.93259 6.01125 9.34969 6.2558 9.71859L5.70717 10.2672C5.43258 10.5418 5.43258 10.987 5.70717 11.2616C5.98172 11.5362 6.42694 11.5362 6.70153 11.2616L7.25016 10.713C7.61902 10.9575 8.03616 11.1348 8.48438 11.2261V12C8.48438 12.3883 8.79919 12.7031 9.1875 12.7031C9.57581 12.7031 9.89062 12.3883 9.89062 12V11.2261C10.3388 11.1348 10.7559 10.9575 11.1248 10.713L11.6735 11.2616C11.948 11.5362 12.3932 11.5362 12.6678 11.2616C12.9424 10.987 12.9424 10.5418 12.6678 10.2672L12.1192 9.71859C12.3638 9.34973 12.5411 8.93259 12.6324 8.48438H13.4062C13.7946 8.48438 14.1094 8.16956 14.1094 7.78125C14.1094 7.39294 13.7946 7.07812 13.4062 7.07812ZM9.1875 9.89062C8.02439 9.89062 7.07812 8.94436 7.07812 7.78125C7.07812 6.61814 8.02439 5.67188 9.1875 5.67188C10.3506 5.67188 11.2969 6.61814 11.2969 7.78125C11.2969 8.94436 10.3506 9.89062 9.1875 9.89062Z" fill="black"/>
<path d="M9.1875 8.48438C9.57583 8.48438 9.89062 8.16958 9.89062 7.78125C9.89062 7.39292 9.57583 7.07812 9.1875 7.07812C8.79917 7.07812 8.48438 7.39292 8.48438 7.78125C8.48438 8.16958 8.79917 8.48438 9.1875 8.48438Z" fill="black"/>
<path d="M17.3312 11.3065C17.983 10.23 18.3281 9.02934 18.3281 7.78125C18.3281 3.49064 14.2276 0 9.1875 0C6.77002 0 4.48284 0.797719 2.7473 2.24616C0.975656 3.72478 0 5.69048 0 7.78125C0 9.82355 0.996187 11.798 2.75011 13.2652L1.48364 17.42C1.39645 17.706 1.49977 18.016 1.74117 18.1925C1.98244 18.369 2.30911 18.3736 2.55544 18.2038L6.82945 15.2557C7.59623 15.4283 8.38791 15.5156 9.1875 15.5156C9.50288 15.5156 9.81581 15.5019 10.1255 15.4754C9.97069 15.945 9.89062 16.4317 9.89062 16.9219C9.89062 18.4583 10.6453 19.8914 12.0155 20.9572C13.3335 21.9823 15.076 22.5469 16.9219 22.5469C17.6615 22.5469 18.4202 22.4494 19.1363 22.2637L21.4935 23.8771C21.7421 24.0472 22.0714 24.0402 22.3125 23.8594C22.5535 23.6787 22.6526 23.3644 22.5589 23.0782L21.8587 20.9394C23.2262 19.8801 24 18.4404 24 16.9219C24 13.9295 21.0443 11.4756 17.3312 11.3065ZM9.1875 14.1094C8.39587 14.1094 7.61433 14.0113 6.86456 13.8178C6.66708 13.7669 6.45741 13.8041 6.28964 13.9199L3.41663 15.9015L4.23506 13.2165C4.32145 12.933 4.22081 12.6258 3.98339 12.4483C2.34558 11.2242 1.40625 9.52317 1.40625 7.78125C1.40625 4.26605 4.89689 1.40625 9.1875 1.40625C13.4522 1.40625 16.9219 4.26605 16.9219 7.78125C16.9219 11.2706 13.4522 14.1094 9.1875 14.1094ZM20.6439 20.0798C20.3785 20.2541 20.2628 20.5846 20.3616 20.8863L20.5776 21.5461L19.6597 20.9178C19.4836 20.7973 19.2623 20.7632 19.0582 20.8252C18.3785 21.0316 17.6398 21.1407 16.9219 21.1407C13.8202 21.1407 11.2969 19.2481 11.2969 16.9219C11.2969 16.32 11.463 15.7416 11.7907 15.1991C13.5651 14.7561 15.0799 13.8794 16.21 12.737C16.4453 12.7146 16.6838 12.7031 16.9219 12.7031C19.6301 12.7031 22.5938 14.3374 22.5938 16.9219C22.5938 18.1151 21.8831 19.2661 20.6439 20.0798Z" fill="black"/>
</g>
<defs>
<clipPath id="clip0_241_666">
<rect width="24" height="24" fill="white"/>
</clipPath>
</defs>
</svg>
