<svg width="372" height="298" viewBox="0 0 372 298" fill="none" xmlns="http://www.w3.org/2000/svg">
<g filter="url(#filter0_d_3_4)">
<rect x="5" y="14.5262" width="362" height="278.645" rx="36.9145" fill="#55877E"/>
</g>
<g filter="url(#filter1_d_3_4)">
<rect x="5" y="5" width="362" height="278.645" rx="36.9145" fill="white"/>
</g>
<g clip-path="url(#clip0_3_4)">
<path d="M95.1504 99.3437C97.9788 97.4106 101.619 101.671 99.6388 104.323C97.6371 107.005 93.2609 106.245 91.754 103.507C89.8314 100.014 91.746 95.8586 94.8446 93.8307C98.3644 91.5271 102.678 91.3975 106.742 91.6134C110.847 91.8314 114.853 92.1209 118.943 91.5328C122.405 91.0264 125.787 90.0785 129.008 88.7123C135.629 85.9329 141.443 81.5317 145.914 75.9148C148 73.2703 149.949 70.2981 151.143 67.1323C152.063 64.6938 152.499 61.4869 151.195 59.1001C150.912 58.5631 150.512 58.0959 150.026 57.7324C149.539 57.369 148.977 57.1184 148.382 56.9988C147.786 56.8792 147.171 56.8937 146.582 57.0412C145.992 57.1887 145.443 57.4654 144.974 57.8514C142.802 59.6294 142.216 62.9309 143.876 65.2315C145.658 67.7002 149.021 68.5464 151.916 68.0969C155.939 67.4722 159.197 64.6339 162.278 62.1903L185.09 44.0932C188.851 41.109 192.574 38.067 196.384 35.1449C199.483 32.7686 203.264 30.4645 207.299 31.7338C208.926 32.2454 210.565 33.4571 210.972 35.1979C211.124 35.995 211.055 36.8184 210.773 37.5794C210.491 38.3404 210.007 39.0101 209.372 39.5162C209.082 39.7623 208.744 39.9454 208.38 40.054C208.015 40.1625 207.632 40.1942 207.255 40.1469C206.877 40.0996 206.514 39.9744 206.187 39.7793C205.861 39.5841 205.579 39.3233 205.358 39.0134C204.508 37.8282 204.438 36.1384 204.928 34.7992C206.237 31.2202 211.04 30.8458 214.245 31.1368C218.027 31.5198 221.681 32.7213 224.951 34.6578C231.725 38.5893 236.735 44.9847 239.673 52.1742C242.929 60.1403 243.932 68.9552 243.799 77.5069C243.772 79.251 243.651 81.1803 242.668 82.6842C241.706 84.157 240.027 84.6028 238.522 83.6179C238.031 83.2971 237.401 82.6722 237.529 82.0131C237.689 81.1856 239.34 81.1792 240.001 81.2108C241.81 81.2975 243.52 82.2088 244.816 83.4374C247.896 86.3573 248.136 90.825 247.734 94.7976C247.293 99.1586 246.035 103.496 246.535 107.911C247.353 115.144 253.293 119.163 259.126 122.488C262.114 124.191 265.166 125.818 267.853 127.985C270.591 130.201 272.988 132.808 274.967 135.721C278.877 141.47 281.183 148.157 281.645 155.092C281.878 158.557 281.604 162.038 280.832 165.424C280.065 168.737 278.856 172.912 275.671 174.691C274.912 175.125 274.038 175.315 273.167 175.237C272.297 175.159 271.471 174.816 270.801 174.254C269.511 173.219 268.88 171.383 270.213 170.09C271.318 169.018 273.085 169.244 274.418 169.68C276.022 170.204 277.271 171.183 278.467 172.338C280.747 174.542 283.415 177.247 286.884 176.543C287.524 176.413 287.253 175.433 286.613 175.563C282.426 176.413 279.902 171.55 276.814 169.678C274.579 168.323 270.761 167.315 269.014 169.958C267.128 172.811 270.16 175.888 272.976 176.256C276.639 176.733 279.178 173.155 280.407 170.202C283.259 163.352 283.348 155.32 281.603 148.187C279.86 140.943 276.089 134.345 270.733 129.162C268.029 126.587 264.93 124.613 261.696 122.776C258.432 120.921 255.031 119.142 252.238 116.596C250.691 115.233 249.46 113.549 248.632 111.662C247.803 109.774 247.396 107.729 247.44 105.669C247.47 100.923 248.997 96.3175 248.901 91.5625C248.822 87.62 247.482 83.7703 244.049 81.5507C242.635 80.5919 240.946 80.1208 239.239 80.2091C238.545 80.2661 237.57 80.3829 236.998 80.8173C236.537 81.167 236.45 81.9858 236.543 82.5151C236.763 83.7724 237.953 84.6455 239.109 84.9955C239.812 85.2211 240.566 85.2302 241.274 85.0215C241.982 84.8128 242.611 84.3959 243.078 83.8252C244.19 82.5425 244.576 80.8319 244.733 79.1848C244.946 76.9532 244.828 74.6609 244.73 72.4257C244.33 63.3417 242.533 54.0403 237.809 46.1509C233.793 39.4447 227.547 33.8216 220.058 31.3339C216.529 30.1617 212.343 29.4591 208.702 30.5253C205.569 31.4426 203.168 34.019 203.685 37.4314C204.123 40.32 207.119 42.3179 209.758 40.4947C210.381 40.0645 210.903 39.505 211.29 38.8546C211.677 38.2041 211.918 37.478 211.998 36.7257C212.078 35.9734 211.995 35.2128 211.754 34.4956C211.513 33.7785 211.119 33.1218 210.601 32.5704C208.049 29.9003 203.889 29.9195 200.705 31.2765C198.787 32.0936 197.09 33.318 195.452 34.5899C193.365 36.2113 191.308 37.8715 189.237 39.5139L164.296 59.3002C162.327 60.8618 160.391 62.4806 158.356 63.9567C156.458 65.3342 154.364 66.6101 152.027 67.0524C148.736 67.6752 143.527 66.0419 143.926 61.8714C144.081 60.2518 145.155 58.4629 146.796 57.9984C148.405 57.5432 149.923 58.5772 150.521 60.041C151.84 63.2681 150.291 66.9595 148.752 69.7924C144.939 76.8069 138.925 82.5194 131.878 86.2364C128.35 88.1012 124.57 89.4419 120.655 90.216C116.258 91.0792 111.943 90.9103 107.497 90.6408C103.188 90.3796 98.662 90.4063 94.8207 92.6505C91.671 94.4906 89.5698 97.8276 90.0747 101.546C90.5132 104.775 93.105 107.243 96.4477 106.971C99.2535 106.742 102.072 104.348 101.077 101.307C100.253 98.7887 97.0708 96.803 94.6371 98.4663C94.1002 98.8333 94.6083 99.7142 95.1504 99.3437Z" fill="#3F3D56"/>
<path d="M310.65 172.705H286.013C285.628 172.706 285.259 172.859 284.987 173.13C284.714 173.402 284.561 173.771 284.561 174.156V189.483C284.561 189.868 284.714 190.237 284.987 190.509C285.259 190.781 285.628 190.934 286.013 190.934H310.65C311.035 190.934 311.404 190.781 311.676 190.509C311.949 190.237 312.102 189.868 312.102 189.483V174.156C312.102 173.771 311.949 173.402 311.676 173.13C311.404 172.858 311.035 172.706 310.65 172.705Z" fill="#F2F2F2"/>
<path d="M310.65 172.705H286.013C285.628 172.706 285.259 172.859 284.987 173.13C284.714 173.402 284.561 173.771 284.561 174.156V189.483C284.561 189.868 284.714 190.237 284.987 190.509C285.259 190.781 285.628 190.934 286.013 190.934H310.65C311.035 190.934 311.404 190.781 311.676 190.509C311.949 190.237 312.102 189.868 312.102 189.483V174.156C312.102 173.771 311.949 173.402 311.676 173.13C311.404 172.858 311.035 172.706 310.65 172.705ZM311.127 183.715C311.121 185.275 310.503 186.771 309.406 187.882C308.309 188.993 306.82 189.629 305.259 189.656C302.759 189.688 306.642 189.701 303.627 189.701C296.732 189.701 289.543 189.635 286.861 189.592C286.508 189.585 286.172 189.44 285.924 189.189C285.677 188.937 285.538 188.599 285.536 188.246V174.157C285.536 174.031 285.587 173.91 285.676 173.82C285.765 173.731 285.886 173.68 286.013 173.68H310.649C310.776 173.68 310.897 173.73 310.986 173.819C311.076 173.908 311.126 174.029 311.127 174.156L311.127 183.715Z" fill="#E6E6E6"/>
<path d="M307.617 163.879H288.846C288.68 163.879 288.518 163.931 288.382 164.026C288.247 164.122 288.144 164.257 288.088 164.413L285.189 172.541C285.145 172.662 285.132 172.792 285.149 172.92C285.167 173.047 285.215 173.169 285.289 173.274C285.363 173.379 285.461 173.465 285.576 173.525C285.69 173.584 285.817 173.615 285.946 173.615L311.121 173.66H311.122C311.256 173.66 311.387 173.627 311.504 173.564C311.621 173.501 311.721 173.41 311.795 173.298C311.868 173.187 311.912 173.06 311.924 172.927C311.936 172.794 311.915 172.661 311.862 172.539L308.357 164.367C308.295 164.222 308.192 164.098 308.061 164.012C307.929 163.925 307.775 163.879 307.617 163.879Z" fill="#E6E6E6"/>
<path d="M311.928 172.715C311.928 172.824 311.905 172.932 311.862 173.032L308.358 179.323C308.295 179.467 308.192 179.59 308.06 179.677C307.929 179.763 307.775 179.809 307.617 179.81H288.847C288.68 179.81 288.518 179.758 288.382 179.663C288.247 179.567 288.144 179.432 288.087 179.276L285.189 173.03C285.153 172.93 285.138 172.825 285.143 172.719C285.148 172.614 285.175 172.51 285.22 172.415C285.265 172.32 285.329 172.234 285.407 172.163C285.486 172.092 285.577 172.038 285.677 172.002C285.763 171.971 285.854 171.955 285.946 171.955L289.021 171.949L290.276 171.947L306.793 171.918L308.048 171.916L311.122 171.91H311.122C311.336 171.91 311.541 171.995 311.692 172.146C311.843 172.297 311.928 172.502 311.928 172.715Z" fill="#E6E6E6"/>
<path d="M287.86 184.203C288.232 184.203 293.344 184.515 293.344 184.887C293.344 185.259 288.232 185.549 287.86 185.549C287.681 185.549 287.51 185.479 287.383 185.352C287.257 185.226 287.186 185.055 287.186 184.876C287.186 184.697 287.257 184.526 287.383 184.4C287.51 184.273 287.681 184.203 287.86 184.203Z" fill="#E6E6E6"/>
<path d="M306.448 158.935H290.621C290.197 158.935 289.79 159.104 289.49 159.404C289.19 159.703 289.022 160.11 289.021 160.534V179.81H307.617C307.77 179.81 307.92 179.767 308.048 179.685V160.534C308.048 160.11 307.879 159.703 307.579 159.404C307.279 159.104 306.873 158.935 306.448 158.935Z" fill="#F2F2F2"/>
<path d="M300.407 160.231H291.733C291.347 160.231 290.977 160.385 290.704 160.658C290.431 160.931 290.277 161.3 290.276 161.686V179.81H306.793V166.611C306.791 164.92 306.117 163.298 304.92 162.102C303.723 160.906 302.1 160.233 300.407 160.231Z" fill="white"/>
<path d="M303.979 178.2H293.09C292.996 178.2 292.906 178.238 292.839 178.304C292.773 178.371 292.735 178.461 292.735 178.555C292.735 178.649 292.773 178.739 292.839 178.806C292.906 178.872 292.996 178.909 293.09 178.909H303.979C304.073 178.909 304.163 178.872 304.23 178.806C304.296 178.739 304.334 178.649 304.334 178.555C304.334 178.461 304.296 178.371 304.23 178.304C304.163 178.238 304.073 178.2 303.979 178.2Z" fill="#E4E4E4"/>
<path d="M303.979 176.798H293.09C292.996 176.798 292.905 176.835 292.839 176.902C292.772 176.968 292.735 177.058 292.735 177.153C292.735 177.247 292.772 177.337 292.839 177.404C292.905 177.47 292.996 177.508 293.09 177.508H303.979C304.025 177.508 304.072 177.498 304.115 177.481C304.158 177.463 304.197 177.437 304.23 177.404C304.263 177.371 304.289 177.332 304.307 177.288C304.325 177.245 304.334 177.199 304.334 177.153C304.334 177.106 304.325 177.06 304.307 177.017C304.289 176.974 304.263 176.935 304.23 176.902C304.197 176.869 304.158 176.842 304.115 176.825C304.072 176.807 304.025 176.798 303.979 176.798Z" fill="#E4E4E4"/>
<path d="M297.81 175.396H293.09C292.996 175.396 292.906 175.433 292.839 175.5C292.773 175.566 292.735 175.656 292.735 175.75C292.735 175.844 292.773 175.935 292.839 176.001C292.906 176.068 292.996 176.105 293.09 176.105H297.81C297.904 176.105 297.994 176.068 298.061 176.001C298.128 175.935 298.165 175.844 298.165 175.75C298.165 175.656 298.128 175.566 298.061 175.5C297.994 175.433 297.904 175.396 297.81 175.396Z" fill="#E4E4E4"/>
<path d="M303.979 172.459H293.09C292.996 172.459 292.906 172.497 292.84 172.563C292.773 172.63 292.736 172.72 292.736 172.814C292.736 172.908 292.773 172.998 292.84 173.065C292.906 173.131 292.996 173.169 293.09 173.169H303.979C304.025 173.169 304.072 173.16 304.115 173.142C304.158 173.124 304.198 173.098 304.231 173.065C304.264 173.032 304.29 172.993 304.308 172.95C304.326 172.907 304.335 172.861 304.335 172.814C304.335 172.767 304.326 172.721 304.308 172.678C304.29 172.635 304.264 172.595 304.231 172.563C304.198 172.53 304.158 172.503 304.115 172.486C304.072 172.468 304.025 172.459 303.979 172.459Z" fill="#E4E4E4"/>
<path d="M303.979 171.057H293.09C292.996 171.057 292.906 171.094 292.839 171.161C292.773 171.227 292.735 171.318 292.735 171.412C292.735 171.506 292.773 171.596 292.839 171.662C292.906 171.729 292.996 171.766 293.09 171.766H303.979C304.073 171.766 304.163 171.729 304.23 171.662C304.296 171.596 304.334 171.506 304.334 171.412C304.334 171.318 304.296 171.227 304.23 171.161C304.163 171.094 304.073 171.057 303.979 171.057Z" fill="#E4E4E4"/>
<path d="M297.81 169.655H293.09C292.996 169.655 292.905 169.692 292.839 169.759C292.772 169.825 292.735 169.915 292.735 170.01C292.735 170.104 292.772 170.194 292.839 170.261C292.905 170.327 292.996 170.365 293.09 170.365H297.81C297.904 170.365 297.995 170.327 298.061 170.261C298.128 170.194 298.165 170.104 298.165 170.01C298.165 169.915 298.128 169.825 298.061 169.759C297.995 169.692 297.904 169.655 297.81 169.655Z" fill="#E4E4E4"/>
<path d="M303.979 166.718H293.09C292.996 166.718 292.906 166.756 292.84 166.822C292.773 166.889 292.736 166.979 292.736 167.073C292.736 167.167 292.773 167.257 292.84 167.323C292.906 167.39 292.996 167.427 293.09 167.428H303.979C304.025 167.428 304.072 167.419 304.115 167.401C304.158 167.383 304.198 167.357 304.231 167.324C304.264 167.291 304.29 167.252 304.308 167.209C304.326 167.166 304.335 167.119 304.335 167.073C304.335 167.026 304.326 166.98 304.308 166.937C304.29 166.893 304.264 166.854 304.231 166.821C304.198 166.788 304.158 166.762 304.115 166.744C304.072 166.727 304.025 166.718 303.979 166.718Z" fill="#E4E4E4"/>
<path d="M303.979 165.316H293.09C292.996 165.316 292.906 165.354 292.84 165.42C292.773 165.487 292.736 165.577 292.736 165.671C292.736 165.765 292.773 165.855 292.84 165.921C292.906 165.988 292.996 166.026 293.09 166.026H303.979C304.025 166.026 304.072 166.017 304.115 165.999C304.158 165.981 304.198 165.955 304.231 165.922C304.264 165.889 304.29 165.85 304.308 165.807C304.326 165.764 304.335 165.718 304.335 165.671C304.335 165.624 304.326 165.578 304.308 165.535C304.29 165.492 304.264 165.452 304.231 165.419C304.198 165.386 304.158 165.36 304.115 165.343C304.072 165.325 304.025 165.316 303.979 165.316Z" fill="#E4E4E4"/>
<path d="M297.81 163.913H293.09C292.996 163.913 292.905 163.951 292.839 164.017C292.772 164.084 292.735 164.174 292.735 164.268C292.735 164.362 292.772 164.453 292.839 164.519C292.905 164.586 292.996 164.623 293.09 164.623H297.81C297.857 164.623 297.903 164.614 297.946 164.596C297.989 164.578 298.028 164.552 298.061 164.519C298.094 164.486 298.12 164.447 298.138 164.404C298.156 164.361 298.165 164.315 298.165 164.268C298.165 164.222 298.156 164.175 298.138 164.132C298.12 164.089 298.094 164.05 298.061 164.017C298.028 163.984 297.989 163.958 297.946 163.94C297.903 163.922 297.857 163.913 297.81 163.913Z" fill="#E4E4E4"/>
<path d="M180.545 97.4449C186.348 97.4449 191.052 92.7443 191.052 86.9459C191.052 81.1475 186.348 76.447 180.545 76.447C174.742 76.447 170.038 81.1475 170.038 86.9459C170.038 92.7443 174.742 97.4449 180.545 97.4449Z" fill="#FFB6B6"/>
<path d="M192.539 80.9345C191.434 79.226 189.359 78.0873 187.349 78.4072C187.162 77.1251 186.626 75.9188 185.8 74.9197C184.975 73.9206 183.89 73.1671 182.666 72.7411C181.441 72.3151 180.123 72.233 178.855 72.5038C177.587 72.7745 176.417 73.3877 175.474 74.2766C175.164 74.0583 174.802 73.9238 174.425 73.886C174.047 73.8483 173.666 73.9086 173.319 74.0611C172.627 74.3755 172.025 74.8583 171.568 75.4654C170.414 76.9031 169.672 78.6265 169.421 80.4521C169.169 82.2777 169.418 84.1373 170.141 85.8328C169.895 84.9402 170.79 84.1004 171.695 83.9001C172.599 83.6998 173.548 83.8893 174.465 83.7589C175.641 83.5918 176.698 82.9103 177.875 82.7569C178.865 82.628 179.86 82.8816 180.825 83.1357C181.79 83.3898 182.782 83.6489 183.773 83.5313C184.764 83.4138 186.041 87.1666 186.024 89.8098C186.021 90.3107 186.124 90.9538 186.614 91.0601C187.217 91.191 187.567 90.3589 188.141 90.1322C188.406 90.0564 188.689 90.0863 188.932 90.2154C189.176 90.3446 189.359 90.563 189.444 90.8246C189.516 91.0906 189.524 91.37 189.467 91.6396C189.409 91.9092 189.288 92.1611 189.113 92.3745C188.76 92.7974 188.341 93.1606 187.872 93.4501L188.109 93.6466C188.502 94.1659 189.318 94.1884 189.885 93.8671C190.428 93.5002 190.867 93.0006 191.161 92.416C192.21 90.6725 193.13 88.8148 193.5 86.8144C193.87 84.8139 193.644 82.6431 192.539 80.9345Z" fill="#2F2E41"/>
<path d="M192.87 270.8L187.196 270.8L184.496 248.929L192.871 248.929L192.87 270.8Z" fill="#FFB6B6"/>
<path d="M193.07 276.715L175.62 276.715V276.494C175.62 274.694 176.336 272.968 177.61 271.695C178.883 270.423 180.611 269.708 182.412 269.707H182.413L185.6 267.291L191.547 269.708L193.07 269.708L193.07 276.715Z" fill="#2F2E41"/>
<path d="M203.103 260.789L198.651 264.304L182.959 248.821L189.53 243.631L203.103 260.789Z" fill="#FFB6B6"/>
<path d="M206.931 265.305L193.241 276.118L193.105 275.945C191.988 274.533 191.478 272.735 191.687 270.948C191.896 269.16 192.808 267.528 194.221 266.412L194.221 266.412L195.222 262.541L201.387 260.751L202.582 259.808L206.931 265.305Z" fill="#2F2E41"/>
<path d="M163.527 168.283L163.181 174.666L164.866 176.699L164.672 183.083L166.307 187.261L167.457 200.554L183.56 256.018L198.07 251.368L182.225 199.665L201.289 199.189L201.935 170.035L198.556 163.509L163.527 168.283Z" fill="#2F2E41"/>
<path d="M199.456 194.794L201.289 199.189L194.2 261.077L184.253 261.802L179.958 192.614L199.456 194.794Z" fill="#2F2E41"/>
<path d="M189.707 103.593L186.441 99.075L175.895 99.4973L175.692 102.976L168.686 169.099L175.567 168.944L184.107 170.937L200.535 165.192L189.707 103.593Z" fill="#FF6400"/>
<path d="M171.392 170.321H155.217L159.437 140.558L161.148 128.494C161.148 128.494 159.937 119.872 159.351 115.368C159.296 114.887 159.379 114.4 159.591 113.965C159.783 113.557 160.033 113.18 160.334 112.845C162.302 110.578 166.727 108.612 169.501 107.536C170.931 106.986 171.924 106.669 171.924 106.669L175.692 102.977C181.1 109.729 171.392 170.321 171.392 170.321Z" fill="#3F3D56"/>
<path d="M187.659 101.134L192.79 104.073C192.79 104.073 207.986 106.567 209.464 112.27L203.87 129.142V164.602L190.31 170.035C190.31 170.035 178.612 112.748 187.659 101.134Z" fill="#3F3D56"/>
<path opacity="0.4" d="M182.465 191.181L179.958 220.198L184.226 253.968" fill="black"/>
<path d="M121.937 137.127C122.355 136.826 122.834 136.621 123.339 136.526C123.845 136.431 124.366 136.448 124.864 136.575C125.363 136.703 125.828 136.938 126.225 137.264C126.623 137.591 126.945 138 127.167 138.464L139.599 137.059L136.653 142.85L125.298 143.296C124.494 143.618 123.599 143.633 122.784 143.34C121.969 143.046 121.289 142.464 120.875 141.703C120.461 140.943 120.34 140.057 120.536 139.213C120.731 138.37 121.23 137.627 121.937 137.127Z" fill="#FFB6B6"/>
<path d="M174.116 111.77L177.674 113.893L157.749 141.941L133.429 144.006L132.46 137.068L150.379 131.696L159.236 114.541L174.116 111.77Z" fill="#3F3D56"/>
<path d="M246.633 134.756C246.215 134.456 245.736 134.251 245.23 134.155C244.725 134.06 244.204 134.077 243.705 134.204C243.207 134.332 242.742 134.567 242.344 134.893C241.946 135.22 241.625 135.629 241.403 136.093L228.971 134.688L231.917 140.479L243.271 140.925C244.076 141.247 244.971 141.262 245.786 140.969C246.601 140.675 247.28 140.093 247.695 139.333C248.109 138.572 248.23 137.686 248.034 136.843C247.838 135.999 247.34 135.256 246.633 134.756Z" fill="#FFB6B6"/>
<path d="M194.453 109.399L190.896 111.522L210.821 139.571L235.141 141.635L236.109 134.697L218.191 129.325L209.334 112.171L194.453 109.399Z" fill="#3F3D56"/>
<path d="M146.011 102.799V102.428H139.792V93.7805H139.422V102.428H132.294V95.7499C132.17 95.8478 132.046 95.9485 131.925 96.0522V102.428H127.218C127.165 102.551 127.115 102.674 127.067 102.799H131.925V110.065H125.893C125.899 110.19 125.908 110.312 125.918 110.436H131.925V116.233H127.425C127.48 116.357 127.538 116.48 127.599 116.602H131.925V121.475H132.294V116.602H139.422V121.475H139.792V116.602H146.011V116.233H139.792C139.791 115.471 139.941 114.718 140.233 114.014C140.524 113.311 140.952 112.672 141.49 112.133C142.029 111.595 142.669 111.168 143.373 110.877C144.077 110.586 144.831 110.436 145.593 110.436H146.011V110.065H139.792V102.799H146.011ZM139.422 116.233H132.294V110.436H139.422V116.233ZM139.422 110.065H132.294V109.92C132.294 108.985 132.479 108.058 132.837 107.194C133.195 106.33 133.72 105.545 134.382 104.884C135.044 104.223 135.829 103.698 136.694 103.341C137.559 102.983 138.486 102.799 139.422 102.799V110.065Z" fill="#E6E6E6"/>
<path d="M200.043 51.4926C199.994 51.5126 199.94 51.5126 199.891 51.4925C199.843 51.4724 199.804 51.4339 199.784 51.3854L199.269 50.142C199.249 50.0935 199.249 50.039 199.269 49.9905C199.289 49.942 199.328 49.9035 199.377 49.8834C199.425 49.8634 199.48 49.8634 199.528 49.8835C199.577 49.9036 199.615 49.9421 199.635 49.9906L200.15 51.2341C200.17 51.2826 200.17 51.337 200.15 51.3855C200.13 51.434 200.092 51.4725 200.043 51.4926Z" fill="#3F3D56"/>
<path d="M210.43 42.2811L208.893 38.5695C208.776 38.2874 208.605 38.0311 208.389 37.8151C208.173 37.5992 207.917 37.4279 207.634 37.3109C207.352 37.194 207.05 37.1338 206.744 37.1337C206.438 37.1336 206.136 37.1936 205.854 37.3103L197.984 40.5644C197.702 40.6812 197.445 40.8523 197.229 41.0681C197.013 41.2839 196.842 41.5402 196.725 41.8222C196.608 42.1042 196.547 42.4065 196.547 42.7118C196.547 43.0171 196.607 43.3194 196.724 43.6015L205.157 63.9633C205.274 64.2454 205.445 64.5017 205.661 64.7177C205.877 64.9336 206.133 65.1049 206.416 65.2219C206.698 65.3388 207 65.399 207.306 65.3991C207.611 65.3992 207.914 65.3392 208.196 65.2225L216.066 61.9684C216.348 61.8516 216.604 61.6805 216.821 61.4647C217.037 61.2489 217.208 60.9926 217.325 60.7106C217.442 60.4286 217.503 60.1263 217.503 59.821C217.503 59.5157 217.443 59.2134 217.326 58.9313L211.524 44.923C211.542 44.9156 211.558 44.9048 211.572 44.8912C211.586 44.8776 211.596 44.8615 211.604 44.8437C211.611 44.8259 211.615 44.8068 211.615 44.7876C211.615 44.7683 211.611 44.7492 211.604 44.7314L210.622 42.3605C210.614 42.3427 210.604 42.3265 210.59 42.3129C210.576 42.2993 210.56 42.2885 210.542 42.2811C210.525 42.2737 210.506 42.2699 210.486 42.2699C210.467 42.2699 210.448 42.2737 210.43 42.2811Z" fill="#3F3D56"/>
<path d="M208.441 38.773L216.862 59.1055C217.037 59.5278 217.038 60.0021 216.865 60.4253C216.692 60.8485 216.359 61.1864 215.939 61.3656C215.933 61.369 215.928 61.3717 215.922 61.374L208.014 64.6439C207.588 64.8199 207.11 64.8197 206.684 64.6433C206.258 64.4669 205.92 64.1288 205.743 63.7032L197.323 43.3707C197.236 43.16 197.191 42.9342 197.191 42.7062C197.191 42.4782 197.236 42.2524 197.324 42.0418C197.411 41.8313 197.539 41.64 197.701 41.4788C197.862 41.3177 198.054 41.19 198.265 41.1029L199.224 40.7064C199.224 40.8418 199.258 40.9749 199.323 41.0941C199.387 41.2133 199.48 41.3148 199.592 41.3898C199.705 41.4647 199.835 41.5107 199.97 41.5238C200.105 41.5368 200.241 41.5165 200.366 41.4646L204.874 39.6003C204.973 39.5595 205.062 39.4996 205.137 39.4241C205.214 39.3481 205.276 39.2576 205.318 39.1578C205.36 39.0581 205.382 38.9509 205.383 38.8426C205.383 38.7343 205.363 38.6269 205.322 38.5266C205.281 38.4264 205.22 38.3351 205.144 38.2582L206.172 37.833C206.598 37.6571 207.076 37.6572 207.502 37.8335C207.927 38.0098 208.265 38.3477 208.441 38.773Z" fill="#FF6400"/>
<path d="M199.165 49.3714C199.116 49.3914 199.062 49.3914 199.013 49.3713C198.965 49.3512 198.926 49.3127 198.906 49.2643L198.391 48.0208C198.371 47.9723 198.371 47.9178 198.391 47.8694C198.411 47.8209 198.45 47.7824 198.498 47.7623C198.547 47.7422 198.601 47.7422 198.65 47.7623C198.698 47.7824 198.737 47.821 198.757 47.8695L199.272 49.1129C199.292 49.1614 199.292 49.2159 199.272 49.2643C199.252 49.3128 199.213 49.3513 199.165 49.3714Z" fill="#3F3D56"/>
<path d="M198.128 46.9729C198.08 46.9929 198.025 46.9928 197.977 46.9727C197.928 46.9526 197.89 46.9141 197.87 46.8657L197.355 45.6222C197.345 45.5982 197.339 45.5724 197.339 45.5464C197.339 45.5203 197.344 45.4945 197.354 45.4705C197.364 45.4464 197.379 45.4245 197.397 45.4061C197.416 45.3877 197.438 45.373 197.462 45.3631C197.486 45.3531 197.512 45.348 197.538 45.3481C197.564 45.3481 197.59 45.3533 197.614 45.3633C197.638 45.3733 197.659 45.3879 197.678 45.4064C197.696 45.4249 197.711 45.4468 197.721 45.4709L198.236 46.7143C198.256 46.7628 198.256 46.8173 198.235 46.8657C198.215 46.9142 198.177 46.9527 198.128 46.9729Z" fill="#3F3D56"/>
<path d="M201.027 40.2057C201.007 40.1572 201.007 40.1027 201.027 40.0543C201.047 40.0058 201.086 39.9673 201.134 39.9472L202.379 39.4326C202.427 39.4125 202.482 39.4125 202.53 39.4326C202.579 39.4527 202.617 39.4913 202.638 39.5398C202.658 39.5883 202.658 39.6427 202.637 39.6912C202.617 39.7397 202.579 39.7782 202.53 39.7983L201.286 40.3129C201.237 40.3329 201.183 40.3328 201.134 40.3127C201.086 40.2926 201.047 40.2541 201.027 40.2057Z" fill="white"/>
<path d="M203.15 39.5258C203.259 39.5258 203.348 39.4372 203.348 39.3279C203.348 39.2186 203.259 39.13 203.15 39.13C203.041 39.13 202.952 39.2186 202.952 39.3279C202.952 39.4372 203.041 39.5258 203.15 39.5258Z" fill="white"/>
<path d="M246.103 127.336C246.078 127.336 246.053 127.336 246.028 127.335C245.734 127.324 245.447 127.242 245.191 127.097C244.935 126.952 244.718 126.747 244.559 126.5C243.364 124.715 241.898 123.128 240.213 121.796C239.193 120.982 238.128 120.224 237.097 119.492C234.438 117.603 231.935 115.824 230.545 113.366C227.514 108.005 231.083 100.539 236.181 97.1908C241.899 93.4355 249.421 92.8465 256.697 92.7693C257.453 92.7613 258.21 92.7573 258.967 92.7574C272.077 92.7624 285.159 93.9577 298.053 96.3285C302.34 97.1189 306.828 98.0872 310.434 100.437C314.019 102.773 316.198 106.451 315.986 109.809C315.675 114.71 310.476 118.372 305.741 119.329C301.229 120.241 296.541 119.625 291.577 118.972C290.482 118.828 289.349 118.679 288.228 118.55C276.053 117.144 253.18 121.478 252.213 121.663L251.253 121.847L247.528 126.637C247.36 126.855 247.144 127.032 246.897 127.153C246.65 127.274 246.378 127.337 246.103 127.336Z" fill="#FF6400"/>
<path d="M300.322 103.427H248.86C248.563 103.427 248.278 103.309 248.068 103.099C247.858 102.889 247.74 102.605 247.74 102.308C247.74 102.011 247.858 101.727 248.068 101.517C248.278 101.307 248.563 101.189 248.86 101.189H300.322C300.619 101.189 300.904 101.307 301.114 101.517C301.324 101.727 301.442 102.011 301.442 102.308C301.442 102.605 301.324 102.889 301.114 103.099C300.904 103.309 300.619 103.427 300.322 103.427Z" fill="white"/>
<path d="M300.322 110.295H248.86C248.563 110.294 248.279 110.177 248.069 109.967C247.859 109.758 247.741 109.473 247.741 109.177C247.741 108.88 247.858 108.596 248.067 108.386C248.277 108.176 248.561 108.058 248.858 108.057H300.322C300.619 108.057 300.903 108.175 301.112 108.385C301.322 108.595 301.44 108.879 301.44 109.176C301.44 109.472 301.322 109.756 301.112 109.966C300.903 110.176 300.619 110.294 300.322 110.295Z" fill="white"/>
<path d="M254.857 117.162H248.86C248.564 117.161 248.279 117.043 248.07 116.834C247.86 116.624 247.742 116.339 247.742 116.043C247.742 115.747 247.86 115.462 248.07 115.253C248.279 115.043 248.564 114.925 248.86 114.924H254.857C255.154 114.925 255.438 115.043 255.648 115.253C255.857 115.462 255.975 115.747 255.975 116.043C255.975 116.339 255.857 116.624 255.648 116.834C255.438 117.043 255.154 117.161 254.857 117.162Z" fill="white"/>
<path d="M246.739 135.136C249.744 135.136 252.181 132.701 252.181 129.698C252.181 126.694 249.744 124.259 246.739 124.259C243.733 124.259 241.296 126.694 241.296 129.698C241.296 132.701 243.733 135.136 246.739 135.136Z" fill="white"/>
<path d="M246.739 135.203C245.649 135.203 244.584 134.88 243.678 134.275C242.772 133.67 242.066 132.81 241.649 131.804C241.232 130.799 241.123 129.692 241.335 128.624C241.548 127.556 242.073 126.575 242.843 125.805C243.613 125.035 244.595 124.511 245.664 124.299C246.732 124.086 247.84 124.195 248.847 124.612C249.853 125.029 250.714 125.734 251.319 126.639C251.925 127.545 252.248 128.609 252.248 129.698C252.246 131.157 251.665 132.556 250.632 133.588C249.599 134.62 248.199 135.201 246.739 135.203Z" fill="#3F3D56"/>
<path d="M246.331 131.871C246.319 131.871 246.308 131.871 246.296 131.87C246.194 131.865 246.094 131.838 246.002 131.791C245.911 131.744 245.832 131.677 245.769 131.596L244.859 130.428C244.802 130.354 244.759 130.27 244.735 130.18C244.71 130.09 244.703 129.996 244.714 129.903C244.726 129.81 244.756 129.721 244.802 129.639C244.848 129.558 244.91 129.487 244.984 129.429L245.017 129.404C245.09 129.346 245.175 129.304 245.265 129.279C245.355 129.255 245.449 129.248 245.542 129.259C245.635 129.271 245.725 129.301 245.806 129.347C245.887 129.393 245.959 129.455 246.016 129.529C246.062 129.588 246.12 129.636 246.187 129.67C246.253 129.705 246.326 129.725 246.401 129.728C246.475 129.732 246.55 129.719 246.619 129.691C246.689 129.664 246.751 129.621 246.803 129.567L248.65 127.619C248.78 127.482 248.959 127.402 249.147 127.397C249.336 127.392 249.519 127.462 249.656 127.591L249.687 127.62C249.755 127.685 249.809 127.762 249.847 127.847C249.885 127.932 249.906 128.024 249.909 128.118C249.911 128.211 249.895 128.304 249.862 128.391C249.828 128.479 249.778 128.558 249.714 128.626L246.848 131.649C246.781 131.719 246.701 131.775 246.612 131.813C246.524 131.852 246.428 131.871 246.331 131.871Z" fill="white"/>
<path d="M145.113 59.397L141.783 39.388C141.716 38.9829 141.812 38.5678 142.051 38.2339C142.29 37.8999 142.652 37.6742 143.057 37.6064L158.18 35.0936C158.586 35.0267 159.001 35.1233 159.335 35.362C159.669 35.6008 159.895 35.9622 159.963 36.3671L163.293 56.3762C163.36 56.7812 163.263 57.1963 163.024 57.5303C162.785 57.8643 162.424 58.0899 162.018 58.1577L146.896 60.6705C146.49 60.7374 146.075 60.6409 145.741 60.4021C145.406 60.1634 145.181 59.8019 145.113 59.397Z" fill="#3F3D56"/>
<path d="M145.267 53.1607L143.126 40.297C143.064 39.9177 143.154 39.529 143.378 39.2162C143.602 38.9034 143.94 38.6921 144.32 38.6286L157.317 36.469C157.696 36.4064 158.085 36.4968 158.398 36.7204C158.711 36.9439 158.923 37.2825 158.986 37.6617L161.95 55.467C162.012 55.8464 161.922 56.2351 161.698 56.5479C161.474 56.8607 161.135 57.072 160.756 57.1355L152.705 58.4733C151.014 58.7523 149.281 58.3497 147.886 57.3537C146.492 56.3578 145.55 54.8498 145.267 53.1607Z" fill="white"/>
<path d="M145.828 43.5366C145.767 43.1659 145.855 42.786 146.074 42.4804C146.292 42.1747 146.623 41.9682 146.994 41.9062L156.01 40.4081C156.194 40.3776 156.382 40.3835 156.563 40.4256C156.745 40.4676 156.916 40.545 157.068 40.6532C157.219 40.7614 157.348 40.8984 157.446 41.0563C157.545 41.2142 157.611 41.39 157.642 41.5736C157.672 41.7572 157.666 41.945 157.624 42.1263C157.582 42.3075 157.505 42.4788 157.397 42.6302C157.288 42.7816 157.151 42.9102 156.993 43.0086C156.835 43.1071 156.659 43.1735 156.475 43.204L147.46 44.7021C147.089 44.7633 146.708 44.675 146.403 44.4565C146.097 44.238 145.89 43.9072 145.828 43.5366Z" fill="#FF6400"/>
<path d="M146.552 47.8857C146.49 47.515 146.579 47.1352 146.797 46.8295C147.016 46.5239 147.347 46.3174 147.718 46.2553L156.734 44.7572C157.105 44.6956 157.485 44.7837 157.791 45.0023C158.097 45.2209 158.304 45.552 158.366 45.9227C158.427 46.2935 158.339 46.6735 158.12 46.9793C157.902 47.2851 157.57 47.4915 157.199 47.5531L148.183 49.0512C147.812 49.1124 147.432 49.0241 147.126 48.8056C146.82 48.5871 146.614 48.2563 146.552 47.8857Z" fill="#FF6400"/>
<path d="M147.275 52.2349C147.214 51.8642 147.303 51.4843 147.521 51.1787C147.74 50.873 148.071 50.6665 148.442 50.6045L157.458 49.1064C157.641 49.0759 157.829 49.0818 158.011 49.1238C158.192 49.1659 158.364 49.2432 158.515 49.3515C158.667 49.4597 158.795 49.5967 158.894 49.7546C158.992 49.9125 159.059 50.0883 159.089 50.2719C159.12 50.4554 159.114 50.6432 159.072 50.8245C159.03 51.0058 158.952 51.1771 158.844 51.3285C158.736 51.4798 158.599 51.6084 158.441 51.7069C158.283 51.8054 158.107 51.8717 157.923 51.9023L148.907 53.4004C148.536 53.4616 148.156 53.3733 147.85 53.1548C147.544 52.9363 147.337 52.6054 147.275 52.2349Z" fill="#FF6400"/>
<path d="M224.126 262.891L224.366 257.506C226.865 256.171 229.652 255.466 232.485 255.452C228.586 258.638 229.073 264.778 226.429 269.062C225.594 270.392 224.471 271.517 223.142 272.354C221.813 273.191 220.312 273.718 218.751 273.897L215.488 275.893C215.04 273.399 215.139 270.837 215.778 268.385C216.416 265.932 217.579 263.647 219.186 261.687C220.099 260.596 221.145 259.625 222.301 258.795C223.082 260.855 224.126 262.891 224.126 262.891Z" fill="#F2F2F2"/>
<path d="M267.392 276.474C267.393 276.543 267.379 276.612 267.353 276.676C267.326 276.739 267.288 276.798 267.239 276.846C267.19 276.895 267.132 276.934 267.068 276.96C267.004 276.987 266.935 277 266.866 277H125.163C125.023 277 124.889 276.945 124.79 276.846C124.692 276.747 124.636 276.613 124.636 276.474C124.636 276.334 124.692 276.201 124.79 276.102C124.889 276.003 125.023 275.948 125.163 275.948H266.866C266.935 275.948 267.004 275.961 267.068 275.988C267.132 276.014 267.19 276.053 267.239 276.101C267.288 276.15 267.326 276.208 267.353 276.272C267.379 276.336 267.393 276.405 267.392 276.474Z" fill="#CCCCCC"/>
<path d="M125.504 134.416C122.991 134.366 109.492 133.979 107.278 134.074C107.153 133.636 102.956 139.01 102.854 139.044C102.786 139.115 102.736 139.202 102.709 139.297C102.682 139.393 102.679 139.493 102.699 139.589C102.719 139.686 102.762 139.777 102.825 139.853C102.888 139.93 102.968 139.99 103.059 140.028C103.306 140.178 125.068 139.776 125.332 139.828C125.446 139.826 125.557 139.793 125.653 139.73C125.749 139.668 125.825 139.58 125.872 139.477L126.018 139.151C126.033 138.594 126.215 135.748 126.052 135.261C126.092 135.17 126.109 135.07 126.101 134.97C126.093 134.871 126.06 134.775 126.006 134.691C125.951 134.607 125.877 134.539 125.79 134.491C125.702 134.443 125.604 134.417 125.504 134.416Z" fill="#3F3D56"/>
<path opacity="0.17" d="M126.018 139.151C125.89 139.457 125.727 139.843 125.332 139.828L103.289 140.076C103.185 140.074 103.082 140.047 102.992 139.994C102.902 139.942 102.826 139.868 102.773 139.779C102.72 139.689 102.69 139.587 102.688 139.483C102.685 139.379 102.71 139.276 102.758 139.184L126.018 139.151Z" fill="black"/>
<path d="M107.381 134.009C107.144 133.599 101.25 104.461 100.758 104.217L96.7349 99.2987L96.3753 99.0285C95.8752 98.754 94.6756 98.9396 94.7836 99.7028C95.7289 104.231 101.809 130.023 101.942 134.044L102.674 139.167C102.687 139.254 102.718 139.337 102.765 139.412C102.813 139.486 102.875 139.55 102.949 139.599C103.022 139.647 103.105 139.68 103.192 139.695C103.279 139.71 103.368 139.706 103.453 139.685C103.663 139.662 103.863 139.585 104.035 139.462C104.206 139.338 104.341 139.173 104.429 138.981C104.484 138.8 107.656 134.113 107.381 134.009Z" fill="#3F3D56"/>
<path opacity="0.17" d="M96.7339 99.299L104.429 138.982C104.172 139.633 102.968 140.089 102.687 139.235C102.682 139.234 94.7926 99.7273 94.7846 99.7037C94.7005 98.7529 96.2728 98.7227 96.7339 99.299Z" fill="black"/>
<path d="M96.9657 100.922L100.874 106.365L105.261 127.183L103.222 128.961L96.9657 100.922Z" fill="#FF6400"/>
<path d="M122.981 137.223L124.062 137.268C124.079 136.951 124.132 136.638 124.218 136.333C124.381 135.56 124.527 134.643 123.852 134.646C123.395 134.602 123.239 135.181 123.157 135.811C123.136 136.286 123.078 136.758 122.981 137.223Z" fill="#2F2E41"/>
<path d="M116.778 135.77L117.507 135.798L117.859 135.811C117.853 135.425 118.032 134.629 117.595 134.433C117.526 134.403 117.45 134.388 117.375 134.389C116.965 134.365 116.843 134.676 116.805 135.035C116.782 135.252 116.792 135.483 116.785 135.662C116.785 135.699 116.782 135.737 116.778 135.77Z" fill="#2F2E41"/>
<path d="M114.619 135.682L115.351 135.713L115.7 135.726C115.693 135.283 115.927 134.314 115.216 134.301C114.558 134.263 114.643 135.1 114.626 135.574C114.626 135.611 114.622 135.649 114.619 135.682Z" fill="#2F2E41"/>
<path d="M112.46 135.598L113.189 135.625L113.541 135.638C113.534 135.198 113.768 134.229 113.056 134.216C112.399 134.175 112.484 135.012 112.467 135.489C112.467 135.527 112.463 135.564 112.46 135.598Z" fill="#2F2E41"/>
<path d="M110.301 135.51L111.033 135.54L111.382 135.554C111.375 135.11 111.609 134.145 110.897 134.128C110.24 134.091 110.324 134.927 110.307 135.401C110.307 135.439 110.304 135.476 110.301 135.51Z" fill="#2F2E41"/>
<path d="M108.141 135.425L108.87 135.452L109.223 135.466C109.216 135.059 109.413 134.209 108.891 134.063H108.887C108.839 134.049 108.788 134.042 108.738 134.043C108.676 134.038 108.614 134.043 108.555 134.06H108.552C108.097 134.179 108.162 134.89 108.148 135.317C108.148 135.354 108.145 135.391 108.141 135.425Z" fill="#2F2E41"/>
<path d="M120.802 135.195L121.883 135.239C121.883 135.198 121.883 135.154 121.886 135.103C121.913 134.846 121.918 134.586 121.9 134.328C121.863 134.043 121.741 133.82 121.398 133.813C121.049 133.792 120.91 134.016 120.856 134.304C120.843 134.353 120.834 134.403 120.829 134.453V134.456C120.802 134.72 120.819 135.005 120.802 135.195Z" fill="#2F2E41"/>
<path d="M118.642 135.107L119.724 135.151C119.747 134.86 119.754 134.568 119.744 134.277C119.714 133.979 119.595 133.735 119.239 133.728C118.88 133.704 118.741 133.948 118.687 134.25C118.636 134.541 118.663 134.89 118.642 135.107Z" fill="#2F2E41"/>
<path d="M116.483 135.022L116.805 135.035L117.565 135.066C117.561 134.903 117.592 134.666 117.595 134.433C117.598 134.363 117.596 134.292 117.588 134.223C117.561 133.908 117.449 133.647 117.08 133.64C116.704 133.62 116.571 133.881 116.524 134.199C116.476 134.483 116.504 134.812 116.483 135.022Z" fill="#2F2E41"/>
<path d="M120.822 137.139L121.903 137.179C121.9 136.739 122.13 135.77 121.419 135.757C120.707 135.713 120.863 136.695 120.822 137.139Z" fill="#2F2E41"/>
<path d="M118.663 137.051L119.744 137.095C119.741 136.651 119.971 135.682 119.259 135.669C118.548 135.628 118.703 136.61 118.663 137.051Z" fill="#2F2E41"/>
<path d="M116.504 136.966L117.585 137.007C117.582 136.692 117.7 136.109 117.507 135.798C117.465 135.729 117.405 135.672 117.333 135.635C117.261 135.597 117.181 135.58 117.1 135.584C116.989 135.572 116.878 135.6 116.785 135.662C116.439 135.889 116.538 136.607 116.504 136.966Z" fill="#2F2E41"/>
<path d="M114.344 136.878L115.426 136.922C115.422 136.607 115.538 136.028 115.351 135.713C115.309 135.643 115.249 135.586 115.176 135.547C115.104 135.509 115.023 135.491 114.941 135.496C114.83 135.484 114.718 135.512 114.626 135.574C114.28 135.808 114.378 136.522 114.344 136.878Z" fill="#2F2E41"/>
<path d="M112.185 136.793L113.267 136.834C113.263 136.519 113.382 135.936 113.189 135.625C113.146 135.556 113.086 135.5 113.015 135.462C112.943 135.424 112.863 135.407 112.782 135.411C112.671 135.4 112.559 135.427 112.467 135.489C112.121 135.716 112.219 136.434 112.185 136.793Z" fill="#2F2E41"/>
<path d="M110.026 136.705L111.107 136.749C111.104 136.434 111.219 135.855 111.033 135.54C110.991 135.47 110.931 135.412 110.858 135.374C110.786 135.336 110.704 135.318 110.623 135.323C110.512 135.311 110.4 135.339 110.307 135.401C109.962 135.635 110.06 136.35 110.026 136.705Z" fill="#2F2E41"/>
<path d="M107.867 136.621L108.948 136.661C108.945 136.346 109.06 135.767 108.87 135.452C108.828 135.383 108.768 135.326 108.697 135.289C108.625 135.251 108.544 135.234 108.463 135.239C108.352 135.227 108.241 135.255 108.148 135.317C107.802 135.547 107.901 136.262 107.867 136.621Z" fill="#2F2E41"/>
</g>
<defs>
<filter id="filter0_d_3_4" x="0.236842" y="9.76309" width="371.526" height="288.171" filterUnits="userSpaceOnUse" color-interpolation-filters="sRGB">
<feFlood flood-opacity="0" result="BackgroundImageFix"/>
<feColorMatrix in="SourceAlpha" type="matrix" values="0 0 0 0 0 0 0 0 0 0 0 0 0 0 0 0 0 0 127 0" result="hardAlpha"/>
<feOffset/>
<feGaussianBlur stdDeviation="2.38158"/>
<feComposite in2="hardAlpha" operator="out"/>
<feColorMatrix type="matrix" values="0 0 0 0 0 0 0 0 0 0 0 0 0 0 0 0 0 0 0.25 0"/>
<feBlend mode="normal" in2="BackgroundImageFix" result="effect1_dropShadow_3_4"/>
<feBlend mode="normal" in="SourceGraphic" in2="effect1_dropShadow_3_4" result="shape"/>
</filter>
<filter id="filter1_d_3_4" x="0.236842" y="0.236842" width="371.526" height="288.171" filterUnits="userSpaceOnUse" color-interpolation-filters="sRGB">
<feFlood flood-opacity="0" result="BackgroundImageFix"/>
<feColorMatrix in="SourceAlpha" type="matrix" values="0 0 0 0 0 0 0 0 0 0 0 0 0 0 0 0 0 0 127 0" result="hardAlpha"/>
<feOffset/>
<feGaussianBlur stdDeviation="2.38158"/>
<feComposite in2="hardAlpha" operator="out"/>
<feColorMatrix type="matrix" values="0 0 0 0 0 0 0 0 0 0 0 0 0 0 0 0 0 0 0.25 0"/>
<feBlend mode="normal" in2="BackgroundImageFix" result="effect1_dropShadow_3_4"/>
<feBlend mode="normal" in="SourceGraphic" in2="effect1_dropShadow_3_4" result="shape"/>
</filter>
<clipPath id="clip0_3_4">
<rect width="226" height="247" fill="white" transform="translate(90 30)"/>
</clipPath>
</defs>
</svg>
