<svg width="372" height="298" viewBox="0 0 372 298" fill="none" xmlns="http://www.w3.org/2000/svg">
<g filter="url(#filter0_d_3_6)">
<rect x="5" y="14.5264" width="362" height="278.645" rx="36.9145" fill="#55877E"/>
</g>
<g filter="url(#filter1_d_3_6)">
<rect x="5" y="5" width="362" height="278.645" rx="36.9145" fill="white"/>
</g>
<g clip-path="url(#clip0_3_6)">
<path d="M184.199 79.2201C188.438 79.2201 191.874 75.7766 191.874 71.5288C191.874 67.2809 188.438 63.8374 184.199 63.8374C179.96 63.8374 176.524 67.2809 176.524 71.5288C176.524 75.7766 179.96 79.2201 184.199 79.2201Z" fill="#FD6584"/>
<path d="M201.377 67.8868C201.16 67.1755 200.741 66.5433 200.17 66.0678C199.6 65.5923 198.903 65.2944 198.166 65.2107C198.149 65.2093 198.131 65.2093 198.114 65.2107C198.093 65.2042 198.072 65.1994 198.051 65.1963C195.481 64.8622 192.624 65.6745 190.701 67.4432C189.987 68.0894 189.416 68.8783 189.025 69.7592C188.668 69.2712 188.199 68.8777 187.656 68.6127C187.114 68.3477 186.515 68.2191 185.912 68.2382C185.134 68.2898 184.391 68.5805 183.784 69.0707C183.177 69.5609 182.736 70.2269 182.52 70.9776C182.496 71.0694 182.503 71.1663 182.539 71.254C182.574 71.3418 182.637 71.4156 182.718 71.4645C182.95 71.6626 183.224 71.8028 183.52 71.8735C184.156 72.0089 184.797 72.1328 185.438 72.2451C186.691 72.464 187.951 72.6417 189.218 72.778C190.054 72.8673 190.892 72.9384 191.733 72.9912C193.469 73.1006 195.214 73.1266 196.953 73.0718C197.815 73.043 198.643 73.0142 199.431 72.634C200.005 72.3511 200.495 71.9232 200.853 71.3925C201.191 70.8819 201.413 70.3035 201.503 69.6978C201.593 69.0921 201.55 68.4739 201.377 67.8868Z" fill="#E6E6E6"/>
<path d="M185.587 79.0923C185.573 78.77 185.518 78.4508 185.426 78.1417C185.209 77.4305 184.789 76.7985 184.218 76.3231C183.647 75.8477 182.95 75.5497 182.212 75.4657C182.196 75.4642 182.18 75.4642 182.164 75.4657C182.142 75.4595 182.12 75.4547 182.097 75.4513C180.675 75.2767 179.232 75.4253 177.875 75.8862C175.788 76.5862 173.957 77.9977 173.075 80.0141C172.718 79.5258 172.247 79.1321 171.704 78.8671C171.161 78.6021 170.562 78.4737 169.959 78.4931C169.181 78.5447 168.438 78.8354 167.831 79.3256C167.224 79.8159 166.782 80.4818 166.567 81.2326C166.544 81.3243 166.551 81.4208 166.587 81.5082C166.623 81.5956 166.685 81.6696 166.765 81.7194C166.997 81.917 167.271 82.0571 167.567 82.1284C168.205 82.2638 168.843 82.3877 169.487 82.5C170.74 82.719 171.999 82.8966 173.264 83.0329C175.834 83.3094 178.419 83.4075 181.002 83.3267C181.862 83.2979 182.692 83.2691 183.48 82.8889C184.053 82.606 184.543 82.178 184.9 81.6474C185.404 80.8949 185.646 79.9966 185.587 79.0923Z" fill="#E6E6E6"/>
<path d="M285.547 172.42C285.657 177.664 284.935 182.893 283.407 187.91C283.354 188.092 283.29 188.274 283.226 188.456H251.734C252.184 186.235 252.899 184.075 253.863 182.025C256.484 176.45 260.762 171.68 264.988 166.942C270.807 160.414 276.487 153.939 277.385 145.45C279.692 148.973 281.533 152.782 282.862 156.78C281.235 157.384 279.741 158.302 278.466 159.481C278.113 159.814 277.738 160.296 277.92 160.757C278.091 161.143 278.562 161.272 278.979 161.357C279.984 161.55 280.99 161.743 281.995 161.926C282.787 162.086 283.589 162.236 284.392 162.386C285.097 165.686 285.484 169.046 285.547 172.42Z" fill="#F2F2F2"/>
<path d="M312 168.947C306.951 172.023 303.742 176.783 301.121 182.11C298.841 182.631 296.735 183.74 295.013 185.326C294.65 185.659 294.275 186.141 294.468 186.602C294.628 186.988 295.11 187.116 295.527 187.202C296.522 187.395 297.538 187.588 298.533 187.77C298.436 187.995 298.34 188.231 298.244 188.456H264.87C266.385 186.409 268.063 184.487 269.887 182.711C270.283 182.314 270.689 181.939 271.106 181.553C275.361 177.7 280.246 174.61 285.547 172.42C293.898 168.921 303.031 167.722 312 168.947Z" fill="#F2F2F2"/>
<path d="M270.432 188.456H240.717C240.554 186.072 240.569 183.678 240.759 181.296C241.947 166.578 249.937 152.557 261.993 144.067C260.452 149.566 261.244 155.033 262.848 160.521C262.624 160.596 262.399 160.661 262.196 160.746C260.568 161.35 259.075 162.268 257.799 163.448C257.446 163.78 257.072 164.262 257.254 164.723C257.414 165.109 257.896 165.238 258.313 165.324C259.318 165.517 260.324 165.709 261.319 165.892C262.121 166.052 262.923 166.203 263.725 166.363C264.1 166.428 264.474 166.503 264.849 166.578C264.902 166.706 264.934 166.824 264.988 166.942C266.87 172.141 268.924 177.383 269.887 182.711C270.125 184.048 270.289 185.397 270.379 186.752C270.411 187.32 270.432 187.888 270.432 188.456Z" fill="#F2F2F2"/>
<path d="M108.479 172.42C108.589 177.664 107.867 182.893 106.34 187.91C106.286 188.092 106.222 188.274 106.158 188.456H74.6665C75.1167 186.235 75.8313 184.075 76.7952 182.025C79.4159 176.45 83.6946 171.68 87.9198 166.942C93.7389 160.414 99.4189 153.939 100.317 145.45C102.624 148.973 104.465 152.782 105.794 156.78C104.167 157.384 102.673 158.302 101.398 159.481C101.045 159.814 100.67 160.296 100.852 160.757C101.023 161.143 101.494 161.272 101.911 161.357C102.917 161.55 103.922 161.743 104.928 161.926C105.719 162.086 106.522 162.236 107.324 162.386C108.029 165.686 108.416 169.046 108.479 172.42Z" fill="#F2F2F2"/>
<path d="M134.932 168.947C129.883 172.023 126.674 176.783 124.054 182.11C121.773 182.631 119.668 183.74 117.946 185.326C117.582 185.659 117.208 186.141 117.4 186.602C117.561 186.988 118.042 187.116 118.459 187.202C119.454 187.395 120.47 187.588 121.465 187.77C121.369 187.995 121.272 188.231 121.176 188.456H87.8022C89.3172 186.409 90.9949 184.487 92.819 182.711C93.2148 182.314 93.6213 181.939 94.0384 181.553C98.2928 177.7 103.178 174.61 108.479 172.42C116.831 168.921 125.963 167.722 134.932 168.947Z" fill="#F2F2F2"/>
<path d="M93.3645 188.456H63.6488C63.4865 186.072 63.5009 183.678 63.6917 181.296C64.879 166.578 72.8694 152.557 84.9247 144.067C83.3844 149.566 84.1759 155.033 85.7805 160.521C85.5559 160.596 85.3312 160.661 85.128 160.746C83.5006 161.35 82.007 162.268 80.7316 163.448C80.3786 163.78 80.0043 164.262 80.1861 164.723C80.3465 165.109 80.8279 165.238 81.245 165.324C82.2505 165.517 83.256 165.709 84.2508 165.892C85.0531 166.052 85.8554 166.203 86.6576 166.363C87.032 166.428 87.4064 166.503 87.7808 166.578C87.8342 166.706 87.8664 166.824 87.9198 166.942C89.8025 172.141 91.8562 177.383 92.819 182.711C93.0573 184.048 93.2215 185.397 93.3111 186.752C93.3431 187.32 93.3645 187.888 93.3645 188.456Z" fill="#F2F2F2"/>
<path d="M203.991 175.954L230.543 178.316L230.828 178.342V64.8067C230.733 64.7404 230.638 64.6742 230.543 64.6079C225.009 60.7291 219.023 57.5426 212.718 55.1193L211.362 73.8719L211.238 75.5887L209.896 94.1857L209.482 99.9066L204.04 175.291L203.991 175.954Z" fill="#E6E6E6"/>
<path d="M138.33 62.6923C138.14 62.8133 137.95 62.9343 137.761 63.061V178.342L138.33 178.29L164.594 175.954L164.545 175.291L159.104 99.9066L158.69 94.1857L157.347 75.5887L157.224 73.8719L155.801 54.2061C149.665 56.3376 143.801 59.1859 138.33 62.6923Z" fill="#E6E6E6"/>
<path d="M137.761 63.061C137.378 63.3087 136.996 63.5622 136.62 63.8186V179.915C136.62 182.815 138.336 185.247 140.629 185.866C141.004 185.968 141.391 186.019 141.779 186.019H227.094C227.481 186.019 227.867 185.968 228.241 185.866C229.093 185.629 229.866 185.165 230.477 184.524C231.642 183.276 232.279 181.624 232.253 179.915V65.8379C231.782 65.4893 231.308 65.1436 230.828 64.8066C230.733 64.7404 230.638 64.6741 230.543 64.6079V179.915C230.544 180.288 230.499 180.661 230.411 181.024C230.006 182.738 228.669 183.994 227.094 183.994H141.779C139.876 183.994 138.33 182.164 138.33 179.915V62.6923C138.14 62.8132 137.95 62.9342 137.761 63.061Z" fill="#E6E6E6"/>
<path d="M231.398 73.873H137.474V75.5895H231.398V73.873Z" fill="#E6E6E6"/>
<path d="M202.632 51.9765C202.063 51.8354 201.494 51.7028 200.919 51.579V98.1897H202.632V51.9765Z" fill="#E6E6E6"/>
<path d="M167.954 51C167.382 51.1066 166.81 51.216 166.241 51.3341V98.1897H167.954V51Z" fill="#E6E6E6"/>
<path d="M119.059 183.014C119.059 183.999 119.247 184.975 119.614 185.889C119.755 186.243 119.923 186.586 120.117 186.915C120.368 187.343 120.658 187.746 120.985 188.119C121.707 188.943 122.597 189.604 123.594 190.057C124.592 190.509 125.674 190.743 126.769 190.743H239.25C241.294 190.743 243.255 189.929 244.701 188.48C246.147 187.031 246.959 185.066 246.959 183.017C246.959 180.968 246.147 179.003 244.701 177.554C243.255 176.105 241.294 175.291 239.25 175.291H126.769C124.725 175.293 122.766 176.108 121.321 177.555C119.875 179.003 119.062 180.966 119.059 183.014Z" fill="#E6E6E6"/>
<path d="M137.474 99.9072L230.827 99.9072V94.1854L137.474 94.1854V99.9072Z" fill="#E6E6E6"/>
<path d="M188.147 95.6158H180.154C180.154 94.7812 180.485 93.9808 181.074 93.3906C181.662 92.8004 182.461 92.4689 183.294 92.4689H185.007C185.419 92.4689 185.828 92.5503 186.209 92.7084C186.59 92.8666 186.936 93.0984 187.228 93.3906C187.519 93.6828 187.75 94.0297 187.908 94.4115C188.066 94.7934 188.147 95.2026 188.147 95.6158Z" fill="#E6E6E6"/>
<path d="M59 187.427C61.4971 190.392 64.1981 193.179 67.083 195.767H298.933C301.818 193.179 304.518 190.392 307.016 187.427H59Z" fill="#3F3D56"/>
<path d="M173.028 159.54V189.084H193.681V159.54C193.681 159.328 193.613 159.121 193.488 158.95C193.362 158.779 193.185 158.653 192.982 158.59C192.887 158.558 192.787 158.543 192.686 158.544H174.025C173.894 158.543 173.765 158.569 173.644 158.619C173.523 158.669 173.413 158.742 173.32 158.835C173.228 158.927 173.154 159.037 173.104 159.158C173.054 159.28 173.028 159.409 173.028 159.54ZM181.088 169.692C181.093 169.109 181.328 168.553 181.741 168.143C182.154 167.733 182.711 167.503 183.292 167.503C183.874 167.503 184.431 167.733 184.844 168.143C185.257 168.553 185.492 169.109 185.497 169.692V173.119C185.494 173.703 185.261 174.263 184.847 174.674C184.434 175.086 183.875 175.318 183.292 175.318C182.71 175.318 182.151 175.086 181.737 174.674C181.324 174.263 181.091 173.703 181.088 173.119V169.692Z" fill="#2F2E41"/>
<path d="M172.964 188.139V190.988C172.965 191.135 173.023 191.277 173.127 191.381C173.231 191.486 173.372 191.545 173.519 191.547H193.189C193.337 191.546 193.478 191.487 193.582 191.382C193.686 191.277 193.744 191.135 193.744 190.988V188.139H172.964Z" fill="#3F3D56"/>
<path d="M140.537 115.03V168.971C140.538 169.659 140.811 170.318 141.296 170.804C141.781 171.29 142.438 171.563 143.124 171.564H222.891C223.577 171.563 224.235 171.29 224.72 170.804C225.205 170.318 225.478 169.659 225.478 168.971V115.03C225.477 114.343 225.203 113.685 224.719 113.199C224.234 112.714 223.577 112.441 222.891 112.44H143.124C142.439 112.441 141.782 112.714 141.297 113.199C140.812 113.685 140.539 114.343 140.537 115.03Z" fill="#3F3D56"/>
<path d="M142.409 115.701V168.306C142.409 168.673 142.555 169.025 142.814 169.285C143.074 169.545 143.425 169.691 143.791 169.692H222.227C222.594 169.691 222.945 169.545 223.204 169.285C223.463 169.025 223.609 168.673 223.61 168.306V115.701C223.61 115.333 223.464 114.98 223.205 114.72C222.946 114.46 222.594 114.313 222.227 114.312H143.791C143.424 114.313 143.073 114.46 142.814 114.72C142.554 114.98 142.409 115.333 142.409 115.701Z" fill="#FF6400"/>
<path d="M158.402 192.218C158.482 192.318 158.584 192.399 158.699 192.454C158.815 192.51 158.941 192.538 159.069 192.537H205.733C205.861 192.537 205.987 192.509 206.102 192.454C206.217 192.398 206.319 192.318 206.399 192.219C206.48 192.12 206.537 192.004 206.567 191.879C206.597 191.755 206.599 191.626 206.573 191.5L205.848 188.052C205.818 187.912 205.754 187.781 205.66 187.672C205.567 187.563 205.448 187.479 205.314 187.427C205.217 187.389 205.113 187.37 205.009 187.37H159.791C159.686 187.37 159.583 187.389 159.486 187.427C159.352 187.479 159.233 187.563 159.139 187.672C159.046 187.781 158.981 187.912 158.951 188.052L158.227 191.5C158.201 191.626 158.204 191.755 158.234 191.879C158.264 192.003 158.322 192.119 158.402 192.218Z" fill="#2F2E41"/>
<path d="M203.381 188.855H204.537C204.615 188.855 204.678 188.792 204.678 188.714V188.131C204.678 188.054 204.615 187.991 204.537 187.991H203.381C203.303 187.991 203.24 188.054 203.24 188.131V188.714C203.24 188.792 203.303 188.855 203.381 188.855Z" fill="#3F3D56"/>
<path d="M200.506 188.855H201.663C201.74 188.855 201.803 188.792 201.803 188.714V188.131C201.803 188.054 201.74 187.991 201.663 187.991H200.506C200.429 187.991 200.366 188.054 200.366 188.131V188.714C200.366 188.792 200.429 188.855 200.506 188.855Z" fill="#3F3D56"/>
<path d="M197.632 188.855H198.788C198.866 188.855 198.929 188.792 198.929 188.714V188.131C198.929 188.054 198.866 187.991 198.788 187.991H197.632C197.554 187.991 197.491 188.054 197.491 188.131V188.714C197.491 188.792 197.554 188.855 197.632 188.855Z" fill="#3F3D56"/>
<path d="M194.757 188.855H195.914C195.991 188.855 196.054 188.792 196.054 188.714V188.131C196.054 188.054 195.991 187.991 195.914 187.991H194.757C194.68 187.991 194.617 188.054 194.617 188.131V188.714C194.617 188.792 194.68 188.855 194.757 188.855Z" fill="#3F3D56"/>
<path d="M191.883 188.855H193.039C193.117 188.855 193.18 188.792 193.18 188.714V188.131C193.18 188.054 193.117 187.991 193.039 187.991H191.883C191.805 187.991 191.742 188.054 191.742 188.131V188.714C191.742 188.792 191.805 188.855 191.883 188.855Z" fill="#3F3D56"/>
<path d="M189.008 188.855H190.165C190.242 188.855 190.305 188.792 190.305 188.714V188.131C190.305 188.054 190.242 187.991 190.165 187.991H189.008C188.931 187.991 188.868 188.054 188.868 188.131V188.714C188.868 188.792 188.931 188.855 189.008 188.855Z" fill="#3F3D56"/>
<path d="M186.134 188.855H187.29C187.368 188.855 187.431 188.792 187.431 188.714V188.131C187.431 188.054 187.368 187.991 187.29 187.991H186.134C186.056 187.991 185.994 188.054 185.994 188.131V188.714C185.994 188.792 186.056 188.855 186.134 188.855Z" fill="#3F3D56"/>
<path d="M183.259 188.855H184.416C184.493 188.855 184.556 188.792 184.556 188.714V188.131C184.556 188.054 184.493 187.991 184.416 187.991H183.259C183.182 187.991 183.119 188.054 183.119 188.131V188.714C183.119 188.792 183.182 188.855 183.259 188.855Z" fill="#3F3D56"/>
<path d="M180.385 188.855H181.541C181.619 188.855 181.682 188.792 181.682 188.714V188.131C181.682 188.054 181.619 187.991 181.541 187.991H180.385C180.307 187.991 180.245 188.054 180.245 188.131V188.714C180.245 188.792 180.307 188.855 180.385 188.855Z" fill="#3F3D56"/>
<path d="M177.51 188.855H178.667C178.745 188.855 178.807 188.792 178.807 188.714V188.131C178.807 188.054 178.745 187.991 178.667 187.991H177.51C177.433 187.991 177.37 188.054 177.37 188.131V188.714C177.37 188.792 177.433 188.855 177.51 188.855Z" fill="#3F3D56"/>
<path d="M174.636 188.855H175.793C175.87 188.855 175.933 188.792 175.933 188.714V188.131C175.933 188.054 175.87 187.991 175.793 187.991H174.636C174.558 187.991 174.496 188.054 174.496 188.131V188.714C174.496 188.792 174.558 188.855 174.636 188.855Z" fill="#3F3D56"/>
<path d="M171.761 188.855H172.918C172.996 188.855 173.058 188.792 173.058 188.714V188.131C173.058 188.054 172.996 187.991 172.918 187.991H171.761C171.684 187.991 171.621 188.054 171.621 188.131V188.714C171.621 188.792 171.684 188.855 171.761 188.855Z" fill="#3F3D56"/>
<path d="M168.887 188.855H170.044C170.121 188.855 170.184 188.792 170.184 188.714V188.131C170.184 188.054 170.121 187.991 170.044 187.991H168.887C168.809 187.991 168.747 188.054 168.747 188.131V188.714C168.747 188.792 168.809 188.855 168.887 188.855Z" fill="#3F3D56"/>
<path d="M166.012 188.855H167.169C167.247 188.855 167.309 188.792 167.309 188.714V188.131C167.309 188.054 167.247 187.991 167.169 187.991H166.012C165.935 187.991 165.872 188.054 165.872 188.131V188.714C165.872 188.792 165.935 188.855 166.012 188.855Z" fill="#3F3D56"/>
<path d="M163.138 188.855H164.295C164.372 188.855 164.435 188.792 164.435 188.714V188.131C164.435 188.054 164.372 187.991 164.295 187.991H163.138C163.061 187.991 162.998 188.054 162.998 188.131V188.714C162.998 188.792 163.061 188.855 163.138 188.855Z" fill="#3F3D56"/>
<path d="M160.264 188.855H161.42C161.498 188.855 161.56 188.792 161.56 188.714V188.131C161.56 188.054 161.498 187.991 161.42 187.991H160.264C160.186 187.991 160.123 188.054 160.123 188.131V188.714C160.123 188.792 160.186 188.855 160.264 188.855Z" fill="#3F3D56"/>
<path d="M203.415 190.295H204.571C204.649 190.295 204.712 190.232 204.712 190.155V189.572C204.712 189.494 204.649 189.431 204.571 189.431H203.415C203.337 189.431 203.274 189.494 203.274 189.572V190.155C203.274 190.232 203.337 190.295 203.415 190.295Z" fill="#3F3D56"/>
<path d="M200.54 190.295H201.697C201.774 190.295 201.837 190.232 201.837 190.155V189.572C201.837 189.494 201.774 189.431 201.697 189.431H200.54C200.463 189.431 200.4 189.494 200.4 189.572V190.155C200.4 190.232 200.463 190.295 200.54 190.295Z" fill="#3F3D56"/>
<path d="M197.666 190.295H198.822C198.9 190.295 198.963 190.232 198.963 190.155V189.572C198.963 189.494 198.9 189.431 198.822 189.431H197.666C197.588 189.431 197.525 189.494 197.525 189.572V190.155C197.525 190.232 197.588 190.295 197.666 190.295Z" fill="#3F3D56"/>
<path d="M194.791 190.295H195.948C196.025 190.295 196.088 190.232 196.088 190.155V189.572C196.088 189.494 196.025 189.431 195.948 189.431H194.791C194.714 189.431 194.651 189.494 194.651 189.572V190.155C194.651 190.232 194.714 190.295 194.791 190.295Z" fill="#3F3D56"/>
<path d="M191.917 190.295H193.073C193.151 190.295 193.214 190.232 193.214 190.155V189.572C193.214 189.494 193.151 189.431 193.073 189.431H191.917C191.839 189.431 191.776 189.494 191.776 189.572V190.155C191.776 190.232 191.839 190.295 191.917 190.295Z" fill="#3F3D56"/>
<path d="M189.042 190.295H190.199C190.276 190.295 190.339 190.232 190.339 190.155V189.572C190.339 189.494 190.276 189.431 190.199 189.431H189.042C188.965 189.431 188.902 189.494 188.902 189.572V190.155C188.902 190.232 188.965 190.295 189.042 190.295Z" fill="#3F3D56"/>
<path d="M186.168 190.295H187.324C187.402 190.295 187.465 190.232 187.465 190.155V189.572C187.465 189.494 187.402 189.431 187.324 189.431H186.168C186.09 189.431 186.027 189.494 186.027 189.572V190.155C186.027 190.232 186.09 190.295 186.168 190.295Z" fill="#3F3D56"/>
<path d="M183.293 190.295H184.45C184.527 190.295 184.59 190.232 184.59 190.155V189.572C184.59 189.494 184.527 189.431 184.45 189.431H183.293C183.216 189.431 183.153 189.494 183.153 189.572V190.155C183.153 190.232 183.216 190.295 183.293 190.295Z" fill="#3F3D56"/>
<path d="M180.419 190.295H181.575C181.653 190.295 181.716 190.232 181.716 190.155V189.572C181.716 189.494 181.653 189.431 181.575 189.431H180.419C180.341 189.431 180.279 189.494 180.279 189.572V190.155C180.279 190.232 180.341 190.295 180.419 190.295Z" fill="#3F3D56"/>
<path d="M177.544 190.295H178.701C178.778 190.295 178.841 190.232 178.841 190.155V189.572C178.841 189.494 178.778 189.431 178.701 189.431H177.544C177.467 189.431 177.404 189.494 177.404 189.572V190.155C177.404 190.232 177.467 190.295 177.544 190.295Z" fill="#3F3D56"/>
<path d="M174.67 190.295H175.826C175.904 190.295 175.967 190.232 175.967 190.155V189.572C175.967 189.494 175.904 189.431 175.826 189.431H174.67C174.592 189.431 174.53 189.494 174.53 189.572V190.155C174.53 190.232 174.592 190.295 174.67 190.295Z" fill="#3F3D56"/>
<path d="M171.795 190.295H172.952C173.03 190.295 173.092 190.232 173.092 190.155V189.572C173.092 189.494 173.03 189.431 172.952 189.431H171.795C171.718 189.431 171.655 189.494 171.655 189.572V190.155C171.655 190.232 171.718 190.295 171.795 190.295Z" fill="#3F3D56"/>
<path d="M168.921 190.295H170.078C170.155 190.295 170.218 190.232 170.218 190.155V189.572C170.218 189.494 170.155 189.431 170.078 189.431H168.921C168.843 189.431 168.781 189.494 168.781 189.572V190.155C168.781 190.232 168.843 190.295 168.921 190.295Z" fill="#3F3D56"/>
<path d="M166.046 190.295H167.203C167.281 190.295 167.343 190.232 167.343 190.155V189.572C167.343 189.494 167.281 189.431 167.203 189.431H166.046C165.969 189.431 165.906 189.494 165.906 189.572V190.155C165.906 190.232 165.969 190.295 166.046 190.295Z" fill="#3F3D56"/>
<path d="M163.172 190.295H164.329C164.406 190.295 164.469 190.232 164.469 190.155V189.572C164.469 189.494 164.406 189.431 164.329 189.431H163.172C163.095 189.431 163.032 189.494 163.032 189.572V190.155C163.032 190.232 163.095 190.295 163.172 190.295Z" fill="#3F3D56"/>
<path d="M160.298 190.295H161.454C161.532 190.295 161.594 190.232 161.594 190.155V189.572C161.594 189.494 161.532 189.431 161.454 189.431H160.298C160.22 189.431 160.157 189.494 160.157 189.572V190.155C160.157 190.232 160.22 190.295 160.298 190.295Z" fill="#3F3D56"/>
<path d="M179.557 192.023H190.774C190.851 192.023 190.914 191.961 190.914 191.883V191.3C190.914 191.222 190.851 191.159 190.774 191.159H179.557C179.479 191.159 179.416 191.222 179.416 191.3V191.883C179.416 191.961 179.479 192.023 179.557 192.023Z" fill="#3F3D56"/>
<path d="M147.733 121.559H221.125C221.201 121.557 221.274 121.526 221.327 121.471C221.381 121.416 221.41 121.343 221.41 121.266C221.41 121.19 221.381 121.117 221.327 121.062C221.274 121.007 221.201 120.976 221.125 120.974H147.733C147.656 120.976 147.584 121.007 147.531 121.062C147.477 121.117 147.447 121.19 147.447 121.266C147.447 121.343 147.477 121.416 147.531 121.471C147.584 121.526 147.656 121.557 147.733 121.559Z" fill="#3F3D56"/>
<path d="M216.129 119.481C217.074 119.481 217.839 118.696 217.839 117.728C217.839 116.761 217.074 115.976 216.129 115.976C215.184 115.976 214.419 116.761 214.419 117.728C214.419 118.696 215.184 119.481 216.129 119.481Z" fill="#3F3D56"/>
<path d="M210.22 119.481C211.165 119.481 211.931 118.696 211.931 117.728C211.931 116.761 211.165 115.976 210.22 115.976C209.276 115.976 208.51 116.761 208.51 117.728C208.51 118.696 209.276 119.481 210.22 119.481Z" fill="#3F3D56"/>
<path d="M204.311 119.481C205.256 119.481 206.022 118.696 206.022 117.728C206.022 116.761 205.256 115.976 204.311 115.976C203.367 115.976 202.601 116.761 202.601 117.728C202.601 118.696 203.367 119.481 204.311 119.481Z" fill="#3F3D56"/>
<path d="M150.978 116.729C150.977 116.771 150.985 116.812 151.001 116.85C151.017 116.888 151.04 116.923 151.069 116.953C151.098 116.982 151.132 117.005 151.17 117.021C151.209 117.038 151.249 117.046 151.291 117.046H155.488C155.571 117.044 155.649 117.01 155.707 116.95C155.765 116.891 155.798 116.811 155.798 116.728C155.798 116.645 155.765 116.565 155.707 116.505C155.649 116.446 155.571 116.411 155.488 116.409H151.291C151.207 116.41 151.127 116.445 151.068 116.505C151.01 116.564 150.977 116.645 150.978 116.729Z" fill="#3F3D56"/>
<path d="M150.978 117.925C150.977 117.966 150.985 118.007 151.001 118.045C151.017 118.084 151.04 118.119 151.069 118.148C151.098 118.178 151.132 118.201 151.17 118.217C151.209 118.233 151.249 118.241 151.291 118.241H155.488C155.571 118.24 155.65 118.205 155.708 118.146C155.766 118.086 155.798 118.006 155.798 117.923C155.798 117.84 155.766 117.76 155.708 117.701C155.65 117.641 155.571 117.607 155.488 117.605H151.291C151.207 117.606 151.127 117.64 151.068 117.7C151.01 117.76 150.977 117.841 150.978 117.925Z" fill="#3F3D56"/>
<path d="M150.978 119.117C150.977 119.201 151.01 119.282 151.068 119.342C151.127 119.402 151.207 119.436 151.291 119.437H155.488C155.571 119.435 155.649 119.401 155.707 119.341C155.765 119.282 155.798 119.202 155.798 119.119C155.798 119.035 155.765 118.956 155.707 118.896C155.649 118.837 155.571 118.802 155.488 118.8H151.291C151.249 118.8 151.209 118.809 151.17 118.825C151.132 118.841 151.098 118.864 151.069 118.894C151.04 118.923 151.017 118.958 151.001 118.996C150.985 119.035 150.977 119.076 150.978 119.117Z" fill="#3F3D56"/>
<path d="M152.274 128.356H150.766C150.309 128.356 149.939 128.728 149.939 129.186C149.939 129.644 150.309 130.015 150.766 130.015H152.274C152.732 130.015 153.102 129.644 153.102 129.186C153.102 128.728 152.732 128.356 152.274 128.356Z" fill="#E6E6E6"/>
<path d="M169.521 128.356H168.013C167.556 128.356 167.186 128.728 167.186 129.186C167.186 129.644 167.556 130.015 168.013 130.015H169.521C169.979 130.015 170.349 129.644 170.349 129.186C170.349 128.728 169.979 128.356 169.521 128.356Z" fill="#E6E6E6"/>
<path d="M174.408 128.356H172.9C172.443 128.356 172.072 128.728 172.072 129.186C172.072 129.644 172.443 130.015 172.9 130.015H174.408C174.865 130.015 175.236 129.644 175.236 129.186C175.236 128.728 174.865 128.356 174.408 128.356Z" fill="#E6E6E6"/>
<path d="M164.83 128.218H155.458C155.001 128.218 154.63 128.589 154.63 129.047C154.63 129.506 155.001 129.877 155.458 129.877H164.83C165.287 129.877 165.658 129.506 165.658 129.047C165.658 128.589 165.287 128.218 164.83 128.218Z" fill="#E6E6E6"/>
<path d="M187.826 128.218H178.454C177.996 128.218 177.626 128.589 177.626 129.047C177.626 129.506 177.996 129.877 178.454 129.877H187.826C188.283 129.877 188.654 129.506 188.654 129.047C188.654 128.589 188.283 128.218 187.826 128.218Z" fill="#E6E6E6"/>
<path d="M156.874 132.101H155.366C154.908 132.101 154.538 132.472 154.538 132.93C154.538 133.389 154.908 133.76 155.366 133.76H156.874C157.331 133.76 157.702 133.389 157.702 132.93C157.702 132.472 157.331 132.101 156.874 132.101Z" fill="#E6E6E6"/>
<path d="M174.121 132.101H172.613C172.155 132.101 171.785 132.472 171.785 132.93C171.785 133.389 172.155 133.76 172.613 133.76H174.121C174.578 133.76 174.948 133.389 174.948 132.93C174.948 132.472 174.578 132.101 174.121 132.101Z" fill="#E6E6E6"/>
<path d="M179.007 132.101H177.499C177.042 132.101 176.671 132.472 176.671 132.93C176.671 133.389 177.042 133.76 177.499 133.76H179.007C179.464 133.76 179.835 133.389 179.835 132.93C179.835 132.472 179.464 132.101 179.007 132.101Z" fill="#E6E6E6"/>
<path d="M169.429 131.963H160.057C159.6 131.963 159.229 132.334 159.229 132.792C159.229 133.25 159.6 133.622 160.057 133.622H169.429C169.887 133.622 170.257 133.25 170.257 132.792C170.257 132.334 169.887 131.963 169.429 131.963Z" fill="#E6E6E6"/>
<path d="M192.425 131.963H183.053C182.595 131.963 182.225 132.334 182.225 132.792C182.225 133.25 182.595 133.622 183.053 133.622H192.425C192.882 133.622 193.253 133.25 193.253 132.792C193.253 132.334 192.882 131.963 192.425 131.963Z" fill="#E6E6E6"/>
<path d="M161.473 135.846H159.965C159.508 135.846 159.137 136.217 159.137 136.675C159.137 137.133 159.508 137.505 159.965 137.505H161.473C161.93 137.505 162.301 137.133 162.301 136.675C162.301 136.217 161.93 135.846 161.473 135.846Z" fill="#E6E6E6"/>
<path d="M178.72 135.846H177.212C176.754 135.846 176.384 136.217 176.384 136.675C176.384 137.133 176.754 137.505 177.212 137.505H178.72C179.177 137.505 179.548 137.133 179.548 136.675C179.548 136.217 179.177 135.846 178.72 135.846Z" fill="#E6E6E6"/>
<path d="M183.606 135.846H182.098C181.641 135.846 181.27 136.217 181.27 136.675C181.27 137.133 181.641 137.505 182.098 137.505H183.606C184.064 137.505 184.434 137.133 184.434 136.675C184.434 136.217 184.064 135.846 183.606 135.846Z" fill="#E6E6E6"/>
<path d="M174.028 135.707H164.656C164.199 135.707 163.828 136.079 163.828 136.537C163.828 136.995 164.199 137.367 164.656 137.367H174.028C174.486 137.367 174.856 136.995 174.856 136.537C174.856 136.079 174.486 135.707 174.028 135.707Z" fill="#E6E6E6"/>
<path d="M197.024 135.707H187.652C187.195 135.707 186.824 136.079 186.824 136.537C186.824 136.995 187.195 137.367 187.652 137.367H197.024C197.481 137.367 197.852 136.995 197.852 136.537C197.852 136.079 197.481 135.707 197.024 135.707Z" fill="#E6E6E6"/>
<path d="M166.072 139.59H164.564C164.107 139.59 163.736 139.962 163.736 140.42C163.736 140.878 164.107 141.25 164.564 141.25H166.072C166.529 141.25 166.9 140.878 166.9 140.42C166.9 139.962 166.529 139.59 166.072 139.59Z" fill="#E6E6E6"/>
<path d="M183.319 139.59H181.811C181.354 139.59 180.983 139.962 180.983 140.42C180.983 140.878 181.354 141.25 181.811 141.25H183.319C183.776 141.25 184.147 140.878 184.147 140.42C184.147 139.962 183.776 139.59 183.319 139.59Z" fill="#E6E6E6"/>
<path d="M188.205 139.59H186.697C186.24 139.59 185.87 139.962 185.87 140.42C185.87 140.878 186.24 141.25 186.697 141.25H188.205C188.663 141.25 189.033 140.878 189.033 140.42C189.033 139.962 188.663 139.59 188.205 139.59Z" fill="#E6E6E6"/>
<path d="M178.628 139.452H169.255C168.798 139.452 168.427 139.824 168.427 140.282C168.427 140.74 168.798 141.111 169.255 141.111H178.628C179.085 141.111 179.455 140.74 179.455 140.282C179.455 139.824 179.085 139.452 178.628 139.452Z" fill="#E6E6E6"/>
<path d="M169.521 154.481H168.013C167.556 154.481 167.186 154.853 167.186 155.311C167.186 155.769 167.556 156.14 168.013 156.14H169.521C169.979 156.14 170.349 155.769 170.349 155.311C170.349 154.853 169.979 154.481 169.521 154.481Z" fill="#E6E6E6"/>
<path d="M174.408 154.481H172.9C172.443 154.481 172.072 154.853 172.072 155.311C172.072 155.769 172.443 156.14 172.9 156.14H174.408C174.865 156.14 175.236 155.769 175.236 155.311C175.236 154.853 174.865 154.481 174.408 154.481Z" fill="#E6E6E6"/>
<path d="M187.826 154.619H178.454C177.996 154.619 177.626 154.991 177.626 155.449C177.626 155.907 177.996 156.279 178.454 156.279H187.826C188.283 156.279 188.654 155.907 188.654 155.449C188.654 154.991 188.283 154.619 187.826 154.619Z" fill="#E6E6E6"/>
<path d="M152.274 154.481H150.766C150.309 154.481 149.939 154.853 149.939 155.311C149.939 155.769 150.309 156.14 150.766 156.14H152.274C152.732 156.14 153.102 155.769 153.102 155.311C153.102 154.853 152.732 154.481 152.274 154.481Z" fill="#E6E6E6"/>
<path d="M164.83 154.619H155.458C155.001 154.619 154.63 154.991 154.63 155.449C154.63 155.907 155.001 156.279 155.458 156.279H164.83C165.287 156.279 165.658 155.907 165.658 155.449C165.658 154.991 165.287 154.619 164.83 154.619Z" fill="#E6E6E6"/>
<path d="M156.874 150.736H155.366C154.908 150.736 154.538 151.108 154.538 151.566C154.538 152.024 154.908 152.396 155.366 152.396H156.874C157.331 152.396 157.702 152.024 157.702 151.566C157.702 151.108 157.331 150.736 156.874 150.736Z" fill="#E6E6E6"/>
<path d="M174.121 150.736H172.613C172.155 150.736 171.785 151.108 171.785 151.566C171.785 152.024 172.155 152.396 172.613 152.396H174.121C174.578 152.396 174.948 152.024 174.948 151.566C174.948 151.108 174.578 150.736 174.121 150.736Z" fill="#E6E6E6"/>
<path d="M179.007 150.736H177.499C177.042 150.736 176.671 151.108 176.671 151.566C176.671 152.024 177.042 152.396 177.499 152.396H179.007C179.464 152.396 179.835 152.024 179.835 151.566C179.835 151.108 179.464 150.736 179.007 150.736Z" fill="#E6E6E6"/>
<path d="M169.429 150.875H160.057C159.6 150.875 159.229 151.246 159.229 151.704C159.229 152.162 159.6 152.534 160.057 152.534H169.429C169.887 152.534 170.257 152.162 170.257 151.704C170.257 151.246 169.887 150.875 169.429 150.875Z" fill="#E6E6E6"/>
<path d="M161.473 146.992H159.965C159.508 146.992 159.137 147.363 159.137 147.821C159.137 148.279 159.508 148.651 159.965 148.651H161.473C161.93 148.651 162.301 148.279 162.301 147.821C162.301 147.363 161.93 146.992 161.473 146.992Z" fill="#E6E6E6"/>
<path d="M178.72 146.992H177.212C176.754 146.992 176.384 147.363 176.384 147.821C176.384 148.279 176.754 148.651 177.212 148.651H178.72C179.177 148.651 179.548 148.279 179.548 147.821C179.548 147.363 179.177 146.992 178.72 146.992Z" fill="#E6E6E6"/>
<path d="M183.606 146.992H182.098C181.641 146.992 181.27 147.363 181.27 147.821C181.27 148.279 181.641 148.651 182.098 148.651H183.606C184.064 148.651 184.434 148.279 184.434 147.821C184.434 147.363 184.064 146.992 183.606 146.992Z" fill="#E6E6E6"/>
<path d="M174.028 147.13H164.656C164.199 147.13 163.828 147.501 163.828 147.96C163.828 148.418 164.199 148.789 164.656 148.789H174.028C174.486 148.789 174.856 148.418 174.856 147.96C174.856 147.501 174.486 147.13 174.028 147.13Z" fill="#E6E6E6"/>
<path d="M166.072 143.247H164.564C164.107 143.247 163.736 143.618 163.736 144.076C163.736 144.535 164.107 144.906 164.564 144.906H166.072C166.529 144.906 166.9 144.535 166.9 144.076C166.9 143.618 166.529 143.247 166.072 143.247Z" fill="#E6E6E6"/>
<path d="M183.319 143.247H181.811C181.354 143.247 180.983 143.618 180.983 144.076C180.983 144.535 181.354 144.906 181.811 144.906H183.319C183.776 144.906 184.147 144.535 184.147 144.076C184.147 143.618 183.776 143.247 183.319 143.247Z" fill="#E6E6E6"/>
<path d="M188.205 143.247H186.697C186.24 143.247 185.87 143.618 185.87 144.076C185.87 144.535 186.24 144.906 186.697 144.906H188.205C188.663 144.906 189.033 144.535 189.033 144.076C189.033 143.618 188.663 143.247 188.205 143.247Z" fill="#E6E6E6"/>
<path d="M178.628 143.385H169.255C168.798 143.385 168.427 143.757 168.427 144.215C168.427 144.673 168.798 145.044 169.255 145.044H178.628C179.085 145.044 179.455 144.673 179.455 144.215C179.455 143.757 179.085 143.385 178.628 143.385Z" fill="#E6E6E6"/>
<path d="M159.581 208.266C159.518 208.298 159.455 208.329 159.392 208.358C158.992 208.557 158.59 208.753 158.184 208.946C156.971 209.525 155.743 210.075 154.499 210.596C151.227 211.968 147.869 213.126 144.447 214.062C143.872 210.47 143.315 201.998 142.78 195.767C142.679 194.595 142.579 193.503 142.478 192.538C142.383 191.271 142.201 190.012 141.935 188.77C141.909 188.673 141.871 188.579 141.823 188.491C141.877 188.989 141.935 190.476 141.99 192.538C142.018 193.503 142.044 194.595 142.073 195.767C142.208 201.765 142.349 209.925 142.49 214.572C142.09 214.67 141.688 214.768 141.285 214.86C141.032 214.92 140.777 214.978 140.521 215.033C140.21 215.102 139.9 215.171 139.589 215.234C139.265 215.303 138.94 215.37 138.615 215.433C133.307 216.478 127.91 217.003 122.501 217C122.141 217 121.785 216.997 121.426 216.994C121.316 216.994 121.207 216.991 121.095 216.988C120.779 216.983 120.451 216.977 120.118 216.968C113.725 216.791 107.374 215.874 101.192 214.235L101.442 195.767L101.485 192.538L101.503 191.314C101.36 191.708 101.275 192.12 101.25 192.538C101.149 193.324 101.046 194.439 100.942 195.767C100.548 200.883 100.143 209.136 99.7233 213.831C94.7533 212.414 91.12 211.121 86.5783 208.845C86.4029 208.759 86.2247 208.669 86.0494 208.58C86.081 208.358 86.1155 208.136 86.1471 207.909C86.6616 204.325 86.0551 199.662 86.6243 195.767C87.0583 192.763 87.5067 189.876 87.958 187.428C88.5042 184.481 89.0589 182.165 89.608 181.039C90.2404 179.74 90.8728 178.461 91.485 177.236C91.7495 176.709 92.0091 176.192 92.264 175.684C92.402 175.41 92.5399 175.139 92.675 174.874C93.2902 173.667 93.8708 172.553 94.4026 171.565C94.7763 170.87 95.1212 170.242 95.4374 169.692C95.8082 169.044 96.1359 168.508 96.4061 168.102C98.4019 165.07 101.371 162.813 104.823 161.704L104.909 161.681L104.992 161.716L105.087 161.759L110.566 159.751L113.012 153.849L125.576 153.074L127.606 154.621L128.643 155.413L129.75 156.257L131.785 157.81L132.363 157.988L133.222 158.253L139.101 160.062L139.161 160.036L139.247 160.06C142.388 161.067 145.137 163.03 147.112 165.677C147.307 165.93 147.488 166.192 147.664 166.457C148.141 167.166 148.785 168.286 149.544 169.692C149.857 170.271 150.188 170.899 150.535 171.565C150.745 171.965 152.556 177.628 154.318 183.412C155.965 188.828 157.569 194.35 157.779 195.767C157.816 196.029 157.857 196.294 157.894 196.557C158.133 198.196 158.368 199.846 158.595 201.456C158.932 203.844 159.259 206.149 159.573 208.208C159.576 208.229 159.578 208.246 159.581 208.266Z" fill="#3F3D56"/>
<path opacity="0.2" d="M146.266 187.415L143.824 177.969L141.667 186.12L146.266 187.415Z" fill="black"/>
<path d="M63.5501 187.305C63.6767 187.675 63.917 187.994 64.2363 188.219C64.5556 188.443 64.9376 188.56 65.3274 188.553L72.9424 188.356C73.3351 188.349 73.7147 188.214 74.0246 187.972C74.3345 187.73 74.558 187.394 74.6616 187.015L75.7392 175.467C76.1215 175.641 76.5378 175.727 76.9574 175.718C77.6937 175.7 78.3925 175.389 78.9001 174.854C79.4077 174.319 79.6824 173.604 79.664 172.866C79.6455 172.128 79.3353 171.428 78.8015 170.919C78.2678 170.411 77.5543 170.135 76.818 170.154C76.6503 170.153 76.483 170.171 76.319 170.206C76.1406 170.013 75.9237 169.859 75.6824 169.754C75.4411 169.65 75.1807 169.597 74.9179 169.6L63.2043 169.903C63.1071 169.907 63.0104 169.919 62.9153 169.939C62.6585 169.987 62.4148 170.09 62.2008 170.24C61.9868 170.39 61.8074 170.585 61.6747 170.81C61.542 171.036 61.459 171.287 61.4314 171.548C61.4038 171.808 61.4321 172.071 61.5146 172.32L63.5501 187.305ZM75.9602 174.683L76.727 171.932C76.8142 171.614 76.8163 171.278 76.7329 170.959C76.7701 170.959 76.8029 170.942 76.8401 170.942C77.3659 170.931 77.8745 171.129 78.2545 171.494C78.6344 171.858 78.8547 172.358 78.867 172.885C78.8794 173.412 78.6827 173.922 78.3202 174.304C77.9576 174.686 77.4588 174.908 76.9331 174.922C76.5932 174.932 76.2568 174.85 75.9602 174.683Z" fill="#2F2E41"/>
<path d="M62.9153 169.939C63.1649 171.369 65.9706 172.374 69.3444 172.2C72.4467 172.056 74.9834 170.965 75.4481 169.671C75.2761 169.62 75.0972 169.596 74.9179 169.6L63.2043 169.903C63.1071 169.907 63.0104 169.919 62.9153 169.939Z" fill="#3F3D56"/>
<path d="M69.9627 180.96C69.9781 180.956 69.9928 180.949 70.006 180.941L71.6598 179.856C71.6798 179.843 71.6962 179.825 71.7076 179.804C71.7189 179.783 71.7249 179.759 71.7249 179.735C71.7249 179.711 71.719 179.688 71.7076 179.667C71.6963 179.646 71.6798 179.628 71.6599 179.615L69.941 178.487C69.9252 178.476 69.9075 178.469 69.889 178.465C69.8704 178.462 69.8513 178.462 69.8328 178.466C69.8142 178.47 69.7966 178.477 69.781 178.488C69.7654 178.498 69.752 178.512 69.7416 178.528C69.7312 178.544 69.7241 178.561 69.7206 178.58C69.7171 178.599 69.7173 178.618 69.7212 178.636C69.725 178.655 69.7326 178.672 69.7433 178.688C69.754 178.704 69.7676 178.717 69.7835 178.727L71.3187 179.735L69.8487 180.7C69.8203 180.718 69.7993 180.746 69.7896 180.779C69.7799 180.812 69.7821 180.847 69.7958 180.878C69.8094 180.909 69.8337 180.934 69.8643 180.949C69.8948 180.964 69.9297 180.968 69.9627 180.96Z" fill="#FF6400"/>
<path d="M67.3507 181.08C67.3784 181.073 67.4035 181.058 67.4226 181.037C67.4416 181.015 67.4539 180.989 67.4578 180.96C67.4617 180.932 67.457 180.903 67.4444 180.877C67.4318 180.851 67.4118 180.83 67.3869 180.816L65.8626 179.94L67.3359 178.843C67.3511 178.832 67.3638 178.818 67.3735 178.802C67.3832 178.785 67.3896 178.767 67.3923 178.749C67.3951 178.73 67.3941 178.711 67.3895 178.693C67.3849 178.674 67.3768 178.657 67.3655 178.642C67.3543 178.627 67.3402 178.614 67.324 178.604C67.3078 178.595 67.2899 178.588 67.2712 178.585C67.2525 178.583 67.2335 178.584 67.2152 178.588C67.1969 178.593 67.1797 178.601 67.1646 178.612L65.515 179.84C65.4959 179.854 65.4806 179.873 65.4705 179.895C65.4604 179.917 65.4558 179.94 65.4572 179.964C65.4586 179.988 65.4659 180.011 65.4785 180.032C65.4911 180.052 65.5085 180.069 65.5292 180.081L67.2439 181.066C67.2762 181.084 67.3145 181.09 67.3507 181.08Z" fill="#FF6400"/>
<path d="M69.7982 181.91C69.8121 181.907 69.8254 181.901 69.8376 181.894C69.8537 181.884 69.8678 181.871 69.8789 181.856C69.8901 181.84 69.8981 181.823 69.9026 181.805C69.9071 181.786 69.9079 181.767 69.905 181.748C69.9021 181.73 69.8955 181.712 69.8857 181.696L67.5414 177.833C67.5215 177.801 67.4896 177.778 67.4526 177.769C67.4156 177.76 67.3766 177.766 67.3442 177.786C67.3117 177.806 67.2884 177.837 67.2793 177.874C67.2703 177.912 67.2762 177.951 67.2958 177.983L69.6401 181.846C69.6561 181.872 69.6801 181.892 69.7085 181.904C69.737 181.916 69.7684 181.918 69.7982 181.91Z" fill="#FF6400"/>
<path d="M284.689 208.579C284.514 208.669 284.336 208.758 284.16 208.844C279.619 211.12 275.985 212.413 271.015 213.831C270.596 209.135 270.19 200.883 269.797 195.767C269.693 194.439 269.59 193.324 269.489 192.537C269.464 192.119 269.378 191.707 269.236 191.313L269.253 192.537L269.296 195.767L269.547 214.234C263.364 215.873 257.014 216.791 250.621 216.968C250.288 216.976 249.96 216.982 249.644 216.988C249.532 216.991 249.422 216.994 249.313 216.994C248.954 216.997 248.597 216.999 248.238 216.999C241.501 217.004 234.789 216.189 228.249 214.571C228.39 209.925 228.531 201.764 228.666 195.767C228.694 194.594 228.72 193.502 228.749 192.537C228.804 190.475 228.861 188.989 228.916 188.49C228.867 188.579 228.83 188.672 228.804 188.77C228.537 190.012 228.356 191.271 228.26 192.537C228.16 193.502 228.059 194.594 227.959 195.767C227.424 201.997 226.866 210.469 226.291 214.061C222.869 213.125 219.512 211.967 216.239 210.596C214.515 209.876 212.821 209.099 211.157 208.265C211.473 206.191 211.804 203.867 212.143 201.456C212.408 199.586 212.681 197.665 212.96 195.767C213.391 192.834 228.039 161.168 231.491 160.059L231.578 160.036L231.638 160.062L237.516 158.253L238.376 157.988L238.953 157.809L240.989 156.257L242.095 155.413L243.133 154.62L245.162 153.073L257.727 153.848L260.173 159.751L265.652 161.758L265.746 161.715L265.83 161.681L265.916 161.704C269.367 162.813 272.337 165.07 274.333 168.101C274.603 168.508 274.93 169.043 275.301 169.692C275.617 170.242 275.962 170.87 276.336 171.564C276.868 172.552 277.448 173.667 278.064 174.874C278.199 175.139 278.337 175.41 278.475 175.683C278.73 176.19 278.99 176.708 279.254 177.236C279.866 178.46 280.498 179.739 281.131 181.038C281.68 182.164 282.234 184.48 282.781 187.427C283.232 189.876 283.68 192.762 284.114 195.767C284.684 199.661 284.077 204.325 284.592 207.908C284.623 208.136 284.658 208.358 284.689 208.579Z" fill="#3F3D56"/>
<path d="M247.84 150.955C255.91 150.955 262.453 144.398 262.453 136.311C262.453 128.223 255.91 121.667 247.84 121.667C239.77 121.667 233.227 128.223 233.227 136.311C233.227 144.398 239.77 150.955 247.84 150.955Z" fill="#FFB6B6"/>
<path opacity="0.2" d="M224.472 187.415L226.914 177.969L229.071 186.12L224.472 187.415Z" fill="black"/>
<path d="M289.467 181.26C288.593 193.324 289.498 198.636 284.675 208.582C280.286 210.735 275.715 212.491 271.015 213.831C270.527 213.969 270.037 214.103 269.547 214.234C263.364 215.873 257.014 216.791 250.621 216.968C250.288 216.976 249.96 216.982 249.644 216.988C249.532 216.991 249.422 216.994 249.313 216.994C248.954 216.996 248.597 216.999 248.238 216.999C241.501 217.004 234.789 216.189 228.249 214.571C227.594 214.41 226.941 214.24 226.291 214.061C222.87 213.125 219.512 211.967 216.239 210.596C214.515 209.876 212.821 209.099 211.157 208.265C210.781 208.075 210.404 207.885 210.033 207.689C208.128 204.331 207.044 200.246 207.021 195.337C208.34 186.88 286.552 173.966 289.467 181.26Z" fill="#2F2E41"/>
<path opacity="0.2" d="M289.464 183.326C289.509 182.579 289.559 181.808 289.617 181.004C286.702 173.711 208.491 186.624 207.171 195.082C207.175 195.857 207.208 196.61 207.264 197.344C210.459 188.997 284.761 176.723 289.464 183.326Z" fill="black"/>
<path d="M205.076 181.829L211.496 178.612L206.146 164.137L204.736 156.837C204.553 155.889 204.124 155.005 203.494 154.275C202.863 153.544 202.052 152.992 201.142 152.674C200.232 152.356 199.254 152.283 198.307 152.462C197.36 152.641 196.476 153.067 195.744 153.695C194.659 154.627 193.978 155.944 193.845 157.369C193.711 158.795 194.135 160.216 195.027 161.334L200.261 167.89L205.076 181.829Z" fill="#FFB6B6"/>
<path d="M211.496 175.932L202.936 180.221L209.432 200.618C209.898 202.082 210.734 203.402 211.859 204.447C212.984 205.493 214.36 206.229 215.852 206.585C217.692 207.024 219.625 206.865 221.368 206.129C223.112 205.394 224.577 204.121 225.55 202.496L242.775 172.908C243.996 170.869 244.373 168.433 243.825 166.12C243.277 163.806 241.849 161.799 239.844 160.527C238.766 159.843 237.557 159.394 236.294 159.209C235.031 159.024 233.744 159.108 232.516 159.455C231.288 159.802 230.146 160.404 229.165 161.222C228.185 162.04 227.387 163.056 226.824 164.204L216.31 186.654L211.496 175.932Z" fill="#3F3D56"/>
<path d="M119.222 149.944C128.102 149.944 135.301 142.73 135.301 133.832C135.301 124.933 128.102 117.719 119.222 117.719C110.343 117.719 103.144 124.933 103.144 133.832C103.144 142.73 110.343 149.944 119.222 149.944Z" fill="#A0616A"/>
<path d="M103.337 122.728C104.644 120.963 106.523 119.707 107.961 118.046C108.749 117.134 109.404 116.102 110.291 115.286C111.938 113.77 114.241 113.148 116.477 113.071C118.926 113.008 121.356 113.524 123.57 114.577C125.784 115.629 127.719 117.19 129.219 119.131C130.388 118.445 131.556 117.758 132.724 117.072C133.186 118.289 133.648 119.507 134.109 120.724C134.488 120.394 134.971 120.21 135.473 120.202C135.975 120.195 136.463 120.367 136.851 120.686C137.239 121.005 137.502 121.452 137.592 121.946C137.683 122.441 137.596 122.952 137.347 123.388C137.625 122.527 138.899 122.345 139.601 122.913C140.304 123.482 140.492 124.494 140.377 125.392C140.233 126.377 139.799 127.296 139.13 128.031C138.46 128.767 137.587 129.285 136.622 129.519C135.097 129.859 133.322 129.502 132.102 130.479C131.124 131.262 130.829 132.689 129.83 133.446C128.6 134.379 126.861 133.948 125.332 134.154C122.656 134.515 120.538 137.257 120.859 139.943C120.617 139.096 120.363 138.224 119.813 137.535C119.264 136.847 118.338 136.381 117.496 136.634C116.103 137.053 115.875 138.955 116.212 140.373C117.108 144.132 120.501 150.208 120.501 150.208C116.095 151.95 110.846 150.303 107.447 146.998C104.047 143.693 102.277 139.013 101.505 134.33C100.851 130.359 100.944 125.961 103.337 122.728Z" fill="#2F2E41"/>
<path d="M266.153 144.383C269.211 137.355 267.479 130.888 263.75 127.457V127.454C262.284 124.162 260.335 121.621 258.104 121.025C257.026 120.331 255.98 119.515 254.819 119.101C254.278 118.898 253.701 118.806 253.124 118.833C252.547 118.859 251.982 119.002 251.461 119.253L250.869 119.095C250.366 117.807 249.777 117.781 249.121 118.628C246.598 117.45 244.324 116.923 242.3 116.923C235.7 116.923 231.797 122.523 230.762 129.292L236.278 130.764L238.195 127.702L237.31 131.041L240.354 131.85C244.988 137.896 239.443 151.844 232.415 159.604C234.088 159.141 235.754 158.749 237.414 158.429L243.444 149.568L239.707 157.634C241.648 157.349 244.123 157.623 246.827 158.173C247.739 156.98 248.219 155.39 247.747 153.973C248.518 155.468 249.05 157.074 249.323 158.734C255.031 160.132 262.818 160.849 267.015 161.379C270.406 160.27 270.415 147.742 266.153 144.383Z" fill="#2F2E41"/>
<path d="M268.143 120.477C270.383 125.504 265.862 127.667 261.721 127.606C257.978 127.551 254.798 124.916 254.607 121.17C254.515 119.372 255.14 117.61 256.345 116.273C257.549 114.936 259.234 114.133 261.029 114.041C264.767 113.85 266.616 117.052 268.143 120.477Z" fill="#2F2E41"/>
<path d="M164.201 202.32L160.51 196.151L172.781 186.821L177.884 181.423C178.547 180.721 179.381 180.206 180.305 179.93C181.229 179.653 182.208 179.624 183.147 179.846C184.085 180.068 184.949 180.532 185.652 181.193C186.354 181.854 186.872 182.689 187.152 183.613C187.568 184.982 187.436 186.46 186.785 187.734C186.134 189.008 185.014 189.979 183.662 190.442L175.734 193.154L164.201 202.32Z" fill="#A0616A"/>
<path d="M166.868 202.116L161.122 206.915L159.573 208.208L159.392 208.358C158.992 208.557 158.59 208.753 158.184 208.946C156.971 209.525 155.743 210.075 154.499 210.596C151.227 211.968 147.869 213.126 144.447 214.062C143.798 214.24 143.145 214.41 142.49 214.572C142.09 214.67 141.688 214.768 141.285 214.86C141.032 214.92 140.777 214.978 140.521 215.033C140.21 215.102 139.9 215.171 139.589 215.234C139.265 215.303 138.94 215.37 138.615 215.433C137.741 214.6 137.045 213.597 136.57 212.486C136.094 211.374 135.849 210.178 135.85 208.969C135.85 208.891 135.85 208.81 135.853 208.73L136.775 185.014L137.183 174.503C137.246 172.126 138.234 169.868 139.937 168.211C141.639 166.554 143.92 165.63 146.293 165.636C146.569 165.636 146.842 165.651 147.112 165.677C147.307 165.93 147.488 166.192 147.664 166.457C148.141 167.166 148.785 168.286 149.544 169.692C149.857 170.271 150.188 170.899 150.535 171.565C150.745 171.965 152.556 177.628 154.318 183.412L153.542 189.453L152.139 200.342L157.894 196.557L161.947 193.889L162.427 194.693L163.678 196.784L166.092 200.817L166.868 202.116Z" fill="#3F3D56"/>
<path d="M163.718 195.338C163.715 195.828 163.703 196.309 163.678 196.784C163.618 198.095 163.466 199.4 163.223 200.69C162.827 202.856 162.119 204.953 161.122 206.915C160.99 207.177 160.849 207.437 160.705 207.69C160.334 207.886 159.958 208.076 159.581 208.266C159.518 208.298 159.455 208.329 159.392 208.358C157.791 209.156 156.16 209.902 154.499 210.596C151.227 211.968 147.869 213.126 144.447 214.062C143.798 214.24 143.145 214.41 142.49 214.572C141.211 214.889 139.919 215.176 138.615 215.433C133.307 216.478 127.91 217.003 122.501 217C122.141 217 121.785 216.997 121.426 216.994C121.316 216.994 121.207 216.991 121.095 216.988C120.779 216.983 120.451 216.977 120.118 216.968C113.725 216.791 107.374 215.874 101.192 214.235C100.701 214.105 100.211 213.971 99.7233 213.831C95.0236 212.492 90.4523 210.736 86.0638 208.583C81.2404 198.636 82.1458 193.325 81.272 181.261C83.0657 176.77 113.412 179.941 136.775 185.014C143.116 186.391 148.94 187.909 153.542 189.453C158.296 191.046 161.743 192.665 163.094 194.186C163.41 194.501 163.627 194.901 163.718 195.338Z" fill="#2F2E41"/>
<path opacity="0.2" d="M81.2737 183.326C81.2291 182.579 81.1792 181.808 81.121 181.004C84.0357 173.711 162.247 186.624 163.567 195.082C163.563 195.857 163.53 196.61 163.474 197.344C160.279 188.997 85.9771 176.723 81.2737 183.326Z" fill="black"/>
</g>
<defs>
<filter id="filter0_d_3_6" x="0.236842" y="9.76321" width="371.526" height="288.171" filterUnits="userSpaceOnUse" color-interpolation-filters="sRGB">
<feFlood flood-opacity="0" result="BackgroundImageFix"/>
<feColorMatrix in="SourceAlpha" type="matrix" values="0 0 0 0 0 0 0 0 0 0 0 0 0 0 0 0 0 0 127 0" result="hardAlpha"/>
<feOffset/>
<feGaussianBlur stdDeviation="2.38158"/>
<feComposite in2="hardAlpha" operator="out"/>
<feColorMatrix type="matrix" values="0 0 0 0 0 0 0 0 0 0 0 0 0 0 0 0 0 0 0.25 0"/>
<feBlend mode="normal" in2="BackgroundImageFix" result="effect1_dropShadow_3_6"/>
<feBlend mode="normal" in="SourceGraphic" in2="effect1_dropShadow_3_6" result="shape"/>
</filter>
<filter id="filter1_d_3_6" x="0.236842" y="0.236842" width="371.526" height="288.171" filterUnits="userSpaceOnUse" color-interpolation-filters="sRGB">
<feFlood flood-opacity="0" result="BackgroundImageFix"/>
<feColorMatrix in="SourceAlpha" type="matrix" values="0 0 0 0 0 0 0 0 0 0 0 0 0 0 0 0 0 0 127 0" result="hardAlpha"/>
<feOffset/>
<feGaussianBlur stdDeviation="2.38158"/>
<feComposite in2="hardAlpha" operator="out"/>
<feColorMatrix type="matrix" values="0 0 0 0 0 0 0 0 0 0 0 0 0 0 0 0 0 0 0.25 0"/>
<feBlend mode="normal" in2="BackgroundImageFix" result="effect1_dropShadow_3_6"/>
<feBlend mode="normal" in="SourceGraphic" in2="effect1_dropShadow_3_6" result="shape"/>
</filter>
<clipPath id="clip0_3_6">
<rect width="253" height="166" fill="white" transform="translate(59 51)"/>
</clipPath>
</defs>
</svg>
