<svg width="307" height="291" viewBox="0 0 307 291" fill="none" xmlns="http://www.w3.org/2000/svg">
<circle cx="157.5" cy="145.5" r="145.5" fill="#268F7C"/>
<g clip-path="url(#clip0_1_446)">
<path d="M51.5165 234.139C51.2705 234.151 51.027 234.086 50.8189 233.954C50.6109 233.823 50.4484 233.63 50.3534 233.403C50.2584 233.176 50.2355 232.925 50.2879 232.685C50.3402 232.444 50.4653 232.226 50.6461 232.059L50.7284 231.732C50.7176 231.706 50.7067 231.679 50.6957 231.653C50.4479 231.068 50.0327 230.569 49.5022 230.22C48.9716 229.87 48.3495 229.684 47.7139 229.687C47.0783 229.689 46.4575 229.879 45.9296 230.233C45.4017 230.587 44.9902 231.089 44.7468 231.675C43.7738 234.018 42.535 236.364 42.23 238.841C42.0957 239.935 42.1523 241.045 42.3975 242.12C40.1122 237.138 38.9256 231.722 38.9179 226.241C38.9175 224.865 38.9939 223.491 39.1469 222.124C39.2734 221.003 39.4489 219.891 39.6733 218.786C40.8982 212.792 43.528 207.174 47.3468 202.394C49.1951 201.386 50.6898 199.836 51.6296 197.952C51.97 197.275 52.2106 196.553 52.3439 195.807C52.1354 195.834 51.5578 192.66 51.715 192.466C51.4245 192.025 50.9044 191.806 50.5871 191.376C49.0088 189.237 46.8344 189.61 45.6993 192.517C43.2744 193.74 43.2509 195.769 44.7388 197.72C45.6854 198.961 45.8155 200.641 46.6461 201.97C46.5606 202.08 46.4718 202.185 46.3863 202.295C44.8243 204.302 43.4628 206.458 42.3215 208.731C42.5991 206.185 42.2678 203.609 41.355 201.215C40.4298 198.984 38.6958 197.106 37.1688 195.177C35.3346 192.861 31.5734 193.872 31.2502 196.808C31.2471 196.837 31.244 196.865 31.2411 196.893C31.4679 197.021 31.6899 197.157 31.9071 197.301C32.1801 197.483 32.3915 197.743 32.5138 198.048C32.6362 198.352 32.6636 198.686 32.5926 199.007C32.5216 199.327 32.3555 199.618 32.116 199.843C31.8765 200.067 31.5748 200.214 31.2504 200.264L31.2172 200.269C31.298 201.086 31.4408 201.896 31.6444 202.691C29.6854 210.264 33.9147 213.022 39.9536 213.145C40.0869 213.214 40.2168 213.282 40.3501 213.347C39.2034 216.595 38.4842 219.978 38.2104 223.412C38.0554 225.438 38.0646 227.472 38.2378 229.497L38.2275 229.425C37.7899 227.174 36.5887 225.143 34.8265 223.675C32.2093 221.526 28.5117 220.735 25.6882 219.007C25.3881 218.815 25.0392 218.712 24.6826 218.711C24.326 218.71 23.9766 218.811 23.6756 219.002C23.3746 219.194 23.1345 219.467 22.9838 219.79C22.833 220.113 22.7777 220.472 22.8246 220.825C22.8284 220.851 22.8322 220.876 22.8361 220.901C23.257 221.072 23.6668 221.27 24.0632 221.492C24.29 221.62 24.512 221.756 24.7293 221.899C25.0022 222.081 25.2136 222.342 25.3359 222.646C25.4582 222.951 25.4857 223.285 25.4147 223.605C25.3437 223.925 25.1776 224.217 24.9381 224.441C24.6986 224.665 24.3969 224.812 24.0725 224.862L24.0392 224.867C24.0153 224.871 23.9948 224.874 23.9709 224.878C24.6901 226.594 25.6995 228.174 26.9548 229.548C28.1797 236.158 33.4407 236.785 39.0683 234.86H39.0717C39.6892 237.542 40.5838 240.153 41.7412 242.65H51.2775C51.3117 242.544 51.3424 242.435 51.3732 242.329C50.4905 242.384 49.6043 242.332 48.7345 242.172C49.442 241.304 50.1495 240.429 50.8571 239.561C50.8729 239.545 50.8877 239.528 50.9015 239.51C51.2604 239.066 51.6228 238.625 51.9816 238.181L51.9818 238.181C52.0009 236.819 51.8443 235.461 51.5165 234.139Z" fill="#F2F2F2"/>
<path d="M62.4849 242.436H77.8734C80.5054 233.579 77.8875 212.645 81.3566 204.089C88.0122 187.683 96.5149 170.373 112.385 162.362C119.161 158.942 126.549 157.606 134.094 157.679C144.517 157.778 155.233 160.574 165.044 164.281C169.057 165.793 173.034 167.457 176.995 169.156C191.917 175.566 206.678 182.547 222.726 184.434C243.033 186.82 266.908 177.739 272.455 158.178C276.688 143.202 269.064 127.654 261.069 114.279C253.074 100.904 244.137 86.593 245.597 71.1075C245.602 71.0556 245.607 70.9983 245.618 70.9464C246.167 65.3843 249.49 61.3869 254.131 58.8242H233.923C233.656 73.2701 242.018 86.0212 249.542 98.6113C257.537 111.981 265.161 127.534 260.928 142.51C255.381 162.066 209.455 139.143 189.148 136.751C183.413 136.081 192.523 138.467 187.055 136.751C178.479 134.064 177.528 158.713 169.183 155.095C163.987 152.839 158.786 150.599 153.517 148.608C151.335 147.781 149.106 147.007 146.851 146.289C146.849 146.289 146.847 146.289 146.845 146.288C146.843 146.287 146.842 146.286 146.84 146.284C131.698 141.491 115.137 139.625 101.146 146.555C101.051 146.601 100.952 146.648 100.858 146.695C84.9879 154.7 76.4852 172.01 69.8296 188.416C64.3303 201.978 65.1953 228.131 62.4849 242.436Z" fill="#F2F2F2"/>
<path d="M153.704 241.983C78.6023 243.573 76.9555 210.69 76.9555 171.579C76.9555 132.468 111.203 101.872 153.641 101.872C196.08 101.872 229.785 132.456 229.785 171.567C229.785 210.677 196.143 241.983 153.704 241.983Z" fill="white"/>
<path d="M153.277 242.41C78.1746 244 76.5278 211.118 76.5278 172.007C76.5278 132.895 111.054 101.077 153.493 101.077C195.932 101.077 230.459 132.896 230.459 172.007C230.459 211.117 195.715 242.41 153.277 242.41ZM153.493 103.029C112.222 103.029 79.3406 133.978 78.6456 172.007C77.9991 207.379 118.773 251.518 153.493 240.985C172.113 222.087 224.755 201.733 228.341 172.007C232.902 134.205 194.765 103.029 153.493 103.029Z" fill="#3F3D56"/>
<path d="M2.25349e-06 242.491C-0.000197119 242.558 0.0128346 242.624 0.0383478 242.686C0.0638609 242.748 0.101352 242.804 0.148664 242.851C0.195976 242.899 0.252176 242.936 0.314029 242.962C0.375883 242.987 0.442171 243 0.509078 243H306.491C306.626 243 306.755 242.946 306.851 242.851C306.946 242.756 307 242.626 307 242.491C307 242.356 306.946 242.227 306.851 242.131C306.755 242.036 306.626 241.982 306.491 241.982H0.509078C0.442171 241.982 0.375884 241.995 0.314031 242.021C0.252178 242.046 0.19598 242.084 0.148668 242.131C0.101356 242.178 0.063865 242.234 0.0383512 242.296C0.0128375 242.358 -0.000195415 242.424 2.25349e-06 242.491Z" fill="#CCCCCC"/>
<path d="M206.176 235.979H200.892L198.378 215.607L206.177 215.607L206.176 235.979Z" fill="#A0616A"/>
<path d="M206.362 241.489L190.113 241.488V241.283C190.113 239.606 190.779 237.998 191.966 236.813C193.152 235.627 194.76 234.961 196.437 234.961L199.406 232.711L204.943 234.962L206.362 234.962L206.362 241.489Z" fill="#2F2E41"/>
<path d="M198.147 188.757C192.113 182.901 185.179 178.049 177.608 174.387L173.747 178.743L176.206 173.724C166.073 169.099 155.073 166.677 143.934 166.618C132.795 166.559 121.77 168.865 111.589 173.383L113.595 177.738L110.514 173.867C102.562 177.565 95.2838 182.566 88.9822 188.664C88.3343 189.268 87.9341 190.09 87.8593 190.972C87.827 191.451 87.8979 191.932 88.0674 192.381C88.2369 192.831 88.501 193.238 88.8417 193.577C89.8127 194.036 91.1962 195.091 93.2519 197.985C93.8823 198.606 94.7306 198.957 95.616 198.962C96.5014 198.968 97.354 198.627 97.992 198.014C110.2 186.202 126.525 179.598 143.517 179.598C160.508 179.598 176.833 186.202 189.041 198.014C189.679 198.627 190.532 198.968 191.417 198.962C192.302 198.957 193.151 198.606 193.781 197.985C195.85 196.125 196.333 193.496 198.11 193.657C198.736 193.053 199.116 192.237 199.176 191.369C199.203 190.886 199.124 190.402 198.947 189.951C198.769 189.5 198.496 189.093 198.147 188.757Z" fill="#FF6400"/>
<path d="M157.862 195.097L152.578 195.097L150.064 174.725L157.862 174.726L157.862 195.097Z" fill="#A0616A"/>
<path d="M158.048 200.607L141.799 200.606V200.401C141.799 198.724 142.465 197.116 143.651 195.931C144.837 194.745 146.446 194.079 148.123 194.079L151.092 191.828L156.629 194.079L158.048 194.08L158.048 200.607Z" fill="#2F2E41"/>
<path d="M212.217 120.094L174.718 124.01L165.505 133.109L150.848 137.893C149.003 138.495 147.386 139.646 146.213 141.192C145.04 142.738 144.367 144.605 144.285 146.543C143.903 155.478 143.149 170.312 142.354 170.156C141.215 169.934 143.49 175.493 145.084 175.17C146.677 174.847 148.334 178.472 147.232 179.116C146.131 179.761 147.966 185.274 147.966 185.274L159.444 183.425C160.881 172.593 166.128 161.175 159.944 153.205C170.417 149.808 179.645 146.967 186.429 145.216L190.099 143.694L197.717 224.606L208.491 224.783C211.464 209.497 212.957 195.739 210.634 185.924C210.634 185.924 210.967 156.44 212.242 156.762C213.516 157.085 212.436 153.244 212.436 153.244C212.436 153.244 211.32 149.972 212.691 148.615C214.062 147.258 213.206 139.276 213.206 139.276C215.471 131.723 214.789 125.486 212.217 120.094Z" fill="#2F2E41"/>
<path d="M216.65 103.584C217.022 101.919 217.393 100.254 217.764 98.5888C218.808 93.9264 219.849 89.2661 220.889 84.6078C222.254 78.5044 223.625 72.1884 222.451 66.0466C222.275 65.1229 222.028 64.214 221.713 63.3279C219.955 58.3001 216.071 53.8945 210.921 52.9667L210.08 49.8329L198.589 48.4191L196.414 51.4171C191.732 51.043 188.954 55.7021 185.724 59.5415L184.441 60.8242C183.506 61.9934 183.314 66.3857 182.73 67.6655C180.133 73.3564 183.712 67.8258 183.586 74.0791C183.455 80.5592 182.18 86.8472 182.05 93.3269C182.036 94.0221 180.539 94.5522 180.281 95.7711C180.142 96.429 181.302 97.6495 181.126 98.385C180.976 99.0128 181.725 101.536 181.565 102.185C180.819 105.195 179.129 106.38 179.055 107.864C179.021 108.436 178.936 109.003 178.801 109.559C178.708 109.953 177.413 109.48 177.287 109.881C177.075 110.554 178.007 112.105 177.752 112.778C177.257 114.083 177.59 116.386 177.287 117.578C176.015 122.581 176.504 120.595 173.747 124.961C180.803 127.093 183.85 134.233 191.108 135.518C191.435 134.461 191.761 133.402 192.086 132.339C193.048 132.401 194.016 132.459 194.984 132.512C195.039 133.434 195.093 134.357 195.148 135.274C202.505 135.748 209.884 135.788 217.246 135.394C216.999 134.655 216.802 133.9 216.656 133.134C216.252 131.005 217.12 128.696 217.213 126.588C217.279 125.027 216.536 123.701 216.558 122.019C216.563 121.708 218.311 121.446 218.305 121.129C218.278 118.334 216.689 114.595 217.213 111.849C217.759 109.027 216.028 106.39 216.65 103.585L216.65 103.584Z" fill="#3F3D56"/>
<path d="M162.898 36.0696C161.924 36.0707 160.99 36.4581 160.301 37.1467C159.612 37.8353 159.225 38.7689 159.223 39.7428V61.8757C159.225 62.8496 159.612 63.7832 160.301 64.4718C160.99 65.1604 161.924 65.5478 162.898 65.5489H169.749C170.723 65.5478 171.657 65.1604 172.346 64.4718C173.035 63.7832 173.423 62.8496 173.424 61.8757C174.516 50.7545 174.114 44.7526 173.424 39.7428C173.423 38.7689 173.035 37.8353 172.346 37.1467C171.657 36.4581 170.723 36.0707 169.749 36.0696L162.898 36.0696Z" fill="#FF6400"/>
<path d="M162.043 36.0696C161.068 36.0707 160.134 36.4581 159.445 37.1467C158.757 37.8353 158.369 38.7689 158.368 39.7427C157.974 48.4429 157.701 56.7401 158.368 61.8757C158.369 62.8495 158.756 63.7832 159.445 64.4718C160.134 65.1605 161.068 65.5478 162.043 65.5489H168.893C169.868 65.5478 170.802 65.1604 171.491 64.4718C172.179 63.7832 172.567 62.8496 172.568 61.8757V39.7428C172.567 38.7689 172.179 37.8353 171.491 37.1467C170.802 36.4581 169.868 36.0707 168.893 36.0696L162.043 36.0696Z" fill="#3F3D56"/>
<path d="M179.678 68.2818C179.678 68.2818 186.158 68.0192 182.86 70.8155C180.714 72.6352 175.881 85.3032 170.861 86.8357C170.269 87.0159 169.647 87.0713 169.034 86.9985C168.42 86.9258 167.828 86.7264 167.295 86.413C166.763 86.0997 166.301 85.6792 165.94 85.1782C165.578 84.6772 165.325 84.1066 165.195 83.5025L160.644 62.2992L166.589 61.3954L170.212 78.1769L179.678 68.2818Z" fill="#A0616A"/>
<path d="M163.946 63.8478C166.268 63.8478 168.15 61.9662 168.15 59.645C168.15 57.3239 166.268 55.4423 163.946 55.4423C161.623 55.4423 159.741 57.3239 159.741 59.645C159.741 61.9662 161.623 63.8478 163.946 63.8478Z" fill="#A0616A"/>
<path d="M188.467 56.6954C192.319 59.5867 193.453 69.0679 191.033 73.2307C186.406 81.1882 177.284 87.3148 176.895 86.4639C176.363 85.2987 175.435 86.8633 175.466 87.3755C175.498 87.8877 173.74 87.735 173.945 88.277C174.15 88.819 172.763 88.9368 172.161 89.251C172.161 89.251 166.649 89.3442 164.91 86.83C163.171 84.3158 162.938 80.8414 162.938 80.8414L160.779 78.3024L172.225 71.6146L171.281 76.1287L176.991 69.4832L178.2 66.817L180.128 65.833L180.766 63.824L182.544 63.0207L189.574 54.8381L188.467 56.6954Z" fill="#3F3D56"/>
<path d="M220.094 134.583C220.574 134.266 220.979 133.848 221.281 133.357C221.582 132.867 221.772 132.317 221.837 131.745C221.903 131.174 221.842 130.595 221.66 130.049C221.477 129.504 221.177 129.005 220.781 128.588L221.589 92.6351L214.482 93.7403L214.983 128.612C214.326 129.324 213.954 130.252 213.936 131.221C213.918 132.189 214.256 133.13 214.885 133.866C215.515 134.602 216.394 135.082 217.354 135.214C218.313 135.346 219.289 135.121 220.094 134.583Z" fill="#A0616A"/>
<path d="M220.404 61.989C220.404 61.989 219.932 62.3452 222.35 66.0273C222.829 66.7575 223.154 69.7019 223.382 73.5442C223.456 74.7959 224.169 75.6753 224.224 77.0722C224.271 78.2576 223.663 79.9466 223.699 81.1759C223.718 81.8316 224.207 82.4022 224.224 83.0582C224.231 83.3317 223.767 83.6923 223.773 83.9648C223.78 84.2586 223.787 84.5516 223.794 84.8437C223.96 92.1463 223.995 98.7418 224.16 98.6304C224.512 98.3929 223.638 99.6206 224.075 99.8256C224.512 100.031 223.702 101.048 223.911 101.575C224.165 102.217 223.849 102.926 223.649 103.57C223.073 105.432 222.948 107.031 222.447 107.915C223.042 108.256 223.507 108.786 223.768 109.421C224.029 110.055 224.071 110.759 223.888 111.42L213.871 109.61C212.65 107.654 212.826 105.602 213.659 105.244L213.411 98.8806L210.558 65.9578L218.919 62.2265L220.404 61.989Z" fill="#3F3D56"/>
<path d="M158.232 41.7461C158.089 41.7461 157.972 41.8146 157.972 41.8988V43.1203C157.972 43.2046 158.089 43.273 158.232 43.273C158.376 43.273 158.493 43.2045 158.493 43.1203V41.8988C158.493 41.8146 158.376 41.7461 158.232 41.7461Z" fill="#3F3D56"/>
<path d="M158.232 44.9832C158.089 44.9832 157.972 45.0516 157.972 45.1358V47.5026C157.972 47.5868 158.089 47.6553 158.232 47.6553C158.376 47.6553 158.493 47.5868 158.493 47.5026V45.1358C158.493 45.0516 158.376 44.9832 158.232 44.9832Z" fill="#3F3D56"/>
<path d="M172.777 45.4108C172.7 45.4195 172.63 45.4579 172.581 45.5178C172.532 45.5776 172.509 45.6541 172.516 45.731V50.6944C172.508 50.7331 172.509 50.7731 172.518 50.8115C172.527 50.8499 172.545 50.8857 172.57 50.9164C172.595 50.9471 172.627 50.9718 172.662 50.9888C172.698 51.0057 172.737 51.0146 172.777 51.0146C172.816 51.0146 172.855 51.0057 172.891 50.9888C172.927 50.9718 172.958 50.9471 172.983 50.9164C173.008 50.8857 173.026 50.8499 173.035 50.8115C173.045 50.7731 173.046 50.7331 173.037 50.6944V45.731C173.044 45.6541 173.021 45.5776 172.972 45.5178C172.924 45.4579 172.853 45.4195 172.777 45.4108Z" fill="#3F3D56"/>
<path d="M157.805 48.77C157.661 48.77 157.544 48.8385 157.544 48.9227V51.2895C157.544 51.3737 157.661 51.4421 157.805 51.4421C157.949 51.4421 158.065 51.3737 158.065 51.2895V48.9227C158.065 48.8385 157.949 48.77 157.805 48.77Z" fill="#3F3D56"/>
<path d="M203.53 47.3088C209.46 47.3088 214.268 42.5031 214.268 36.5749C214.268 30.6467 209.46 25.8409 203.53 25.8409C197.599 25.8409 192.791 30.6467 192.791 36.5749C192.791 42.5031 197.599 47.3088 203.53 47.3088Z" fill="#A0616A"/>
<path d="M215.52 41.5069C214.682 43.1839 213.884 44.2328 212.434 45.1702C212.361 44.9565 212.301 44.7382 212.256 44.5166C212.102 44.8613 211.951 45.2052 211.794 45.5507C210.877 46.0625 211.866 45.2729 210.365 45.8452L209.102 43.6792C208.757 42.6511 209.247 41.5313 209.87 40.6415C210.494 39.7554 211.27 38.943 211.608 37.9128C211.946 36.8826 211.646 35.5178 210.633 35.1343C209.634 34.7514 208.531 35.4779 207.47 35.3517C206.245 35.2073 205.411 33.9262 205.345 32.6938C205.279 31.4613 205.782 30.278 206.274 29.1502C204.79 30.2128 200.195 32.1165 197.694 32.2075C197.626 31.4275 197.265 30.7021 196.684 30.1773C196.786 30.8873 196.613 31.6095 196.201 32.1965C193.752 32.0709 193.291 35.6267 192.027 34.3391C192.421 34.1406 190.967 29.7217 191.361 29.5231C191.057 28.6912 190.754 27.8617 190.451 27.0346C191.014 27.1763 191.581 27.321 192.148 27.4619C192.183 27.1595 192.275 26.8664 192.419 26.5981C192.823 26.368 193.252 26.1867 193.699 26.058C193.843 26.0196 193.99 25.9804 194.139 25.9485C194.36 25.8994 194.583 25.863 194.808 25.8395C194.482 25.6508 194.154 25.4665 193.827 25.2741C193.788 25.2521 193.753 25.2292 193.714 25.2071C194.173 24.8921 194.652 24.608 195.148 24.3566C197.24 23.2624 199.412 22.1475 201.771 22.0111C203.304 21.9136 204.823 22.3506 206.069 23.2478C207.144 24.0192 208.445 24.4105 209.767 24.3597C210.41 24.3548 211.046 24.4963 211.626 24.7735C211.36 25.0411 211.069 25.2828 210.758 25.4953C211.439 25.513 212.116 25.5315 212.797 25.5528C213.56 26.247 214.204 27.062 214.702 27.9651C217.089 32.0415 217.634 37.2838 215.52 41.5069Z" fill="#2F2E41"/>
<path d="M181.034 208.734C180.953 208.198 180.745 207.69 180.427 207.25C180.109 206.811 179.691 206.454 179.207 206.209C174.667 203.887 169.909 202.018 165.002 200.63L160.41 206.681L163.804 200.296C151.243 196.927 138.039 196.74 125.387 199.751L127.153 204.618L124.268 200.03C118.571 201.462 113.055 203.535 107.826 206.209C107.344 206.456 106.928 206.812 106.61 207.25C106.293 207.688 106.084 208.195 105.999 208.729C105.915 209.263 105.958 209.809 106.125 210.324C106.293 210.838 106.579 211.305 106.961 211.688C108.946 211.81 110.257 213.654 111.566 216.291C112.067 216.785 112.709 217.113 113.404 217.228C114.099 217.344 114.813 217.242 115.447 216.937C124.217 212.768 133.806 210.604 143.517 210.604C153.227 210.604 162.816 212.768 171.586 216.937C172.22 217.242 172.934 217.344 173.629 217.229C174.323 217.113 174.965 216.785 175.467 216.291C176.253 214.159 177.875 212.898 180.072 211.688C180.456 211.308 180.744 210.841 180.911 210.328C181.079 209.814 181.121 209.268 181.034 208.734Z" fill="#FF6400"/>
<path d="M155.664 229.572C154.658 229.414 153.647 229.276 152.629 229.159L148.64 235.504L151.612 229.05C146.782 228.557 141.917 228.506 137.078 228.898L140.12 235.504L136.024 228.989C134.461 229.137 132.909 229.331 131.369 229.572C130.842 229.65 130.347 229.875 129.942 230.222C129.537 230.568 129.237 231.022 129.079 231.53C128.91 232.043 128.886 232.593 129.012 233.119C129.137 233.644 129.407 234.124 129.789 234.505C131.437 236.118 133.253 238.358 136.238 240.951C136.529 241.246 136.881 241.474 137.269 241.62C137.657 241.766 138.072 241.826 138.485 241.796C140.14 241.673 141.832 241.611 143.516 241.611C145.201 241.611 146.893 241.673 148.547 241.796C148.961 241.825 149.376 241.765 149.764 241.619C150.152 241.473 150.504 241.245 150.795 240.951C153.878 238.321 155.435 235.909 157.244 234.505C157.627 234.124 157.896 233.644 158.021 233.119C158.147 232.593 158.123 232.043 157.954 231.53C157.796 231.022 157.496 230.568 157.091 230.221C156.686 229.875 156.191 229.65 155.664 229.572Z" fill="#FF6400"/>
</g>
<defs>
<clipPath id="clip0_1_446">
<rect width="307" height="221" fill="white" transform="translate(0 22)"/>
</clipPath>
</defs>
</svg>
