<svg width="25" height="26" viewBox="0 0 25 26" fill="none" xmlns="http://www.w3.org/2000/svg">
<g clip-path="url(#clip0_1229_1189)">
<path d="M12.5 25.5C5.60741 25.5 0 19.8926 0 13C0 6.10741 5.60741 0.5 12.5 0.5C19.3926 0.5 25 6.10741 25 13C25 19.8926 19.3926 25.5 12.5 25.5ZM12.5 2.28566C6.59218 2.28566 1.78566 7.09218 1.78566 13C1.78566 18.9078 6.59218 23.7143 12.5 23.7143C18.4078 23.7143 23.2143 18.9078 23.2143 13C23.2143 7.09218 18.4078 2.28566 12.5 2.28566Z" fill="#3B686A"/>
<path d="M16.964 18.3573C16.7355 18.3573 16.507 18.2701 16.3327 18.0956L7.40422 9.16711C7.05536 8.81826 7.05536 8.2533 7.40422 7.90464C7.75288 7.55597 8.31803 7.55578 8.66669 7.90464L17.5952 16.8331C17.944 17.182 17.944 17.7469 17.5952 18.0956C17.4209 18.2701 17.1925 18.3573 16.964 18.3573Z" fill="#3B686A"/>
<path d="M8.03536 18.3571C7.80686 18.3571 7.57855 18.2699 7.40422 18.0954C7.05536 17.7468 7.05536 17.1816 7.40422 16.833L16.3327 7.90446C16.6816 7.55561 17.2465 7.55561 17.5952 7.90446C17.9438 8.25313 17.944 8.81827 17.5952 9.16694L8.66669 18.0954C8.49236 18.2699 8.26386 18.3571 8.03536 18.3571Z" fill="#3B686A"/>
</g>
<defs>
<clipPath id="clip0_1229_1189">
<rect width="25" height="25" fill="white" transform="translate(0 0.5)"/>
</clipPath>
</defs>
</svg>
