<svg id="svg29881" height="512" width="512" xmlns="http://www.w3.org/2000/svg" xmlns:xlink="http://www.w3.org/1999/xlink" xmlns:cc="http://creativecommons.org/ns#" xmlns:dc="http://purl.org/dc/elements/1.1/" xmlns:inkscape="http://www.inkscape.org/namespaces/inkscape" xmlns:rdf="http://www.w3.org/1999/02/22-rdf-syntax-ns#" xmlns:sodipodi="http://sodipodi.sourceforge.net/DTD/sodipodi-0.dtd" xmlns:svg="http://www.w3.org/2000/svg"><clipPath id="clipPath29920"><path id="path29922" d="m-254.28571 506.64789a260 248.57143 0 1 1 -520 0 260 248.57143 0 1 1 520 0z" transform="matrix(.685 0 0 .716 705.099 116.389)"/></clipPath><clipPath id="clipPath3468"><rect id="rect3470" height="480" ry="48" width="480" x="16" y="556.362"/></clipPath><clipPath id="clipPath3058"><path id="path3060" d="m-360 118a208 208 0 1 1 -416 0 208 208 0 1 1 416 0z" transform="matrix(1.154 0 0 1.154 911.385 660.208)"/></clipPath><g id="layer1" transform="translate(0 -540.362)"><g id="g3457" clip-path="url(#clipPath3058)"><path id="rect3261" d="m16 556.362h480v480h-480z" fill="#e74c3c"/><path id="path7428" d="m255.98632 921.36218c-4.46867-5.3517-11.26532-11.2683-9.34764-19.1177l4.44787-6.89775.39555-6.06526c-3.44888 3.65698-6.538 8.11673-11.53292 9.90063-3.35671 1.36767-7.31697.3877-9.97795-1.93136l-.28828-3.65819c3.56483-2.40826 8.7203-1.90282 11.66076-5.32196 3.13372-3.15156 3.73727-7.84916 3.23779-12.07106-5.25954 2.70557-8.80059 9.12762-15.23749 9.39521-4.58463 1.07034-9.75496-1.93375-10.31095-6.77882 4.73626-2.76505 10.52204-2.40827 15.4575-4.60842 3.06534-1.57458 4.21595-5.05438 3.48455-8.3546-4.51921 1.6959-8.59543 5.70849-13.79846 4.72734-4.1.44479-8.4438-2.88397-8.11675-7.1356 3.10101-.62555 6.17825-1.07034 9.2079-1.60551 5.7739-1.45804 10.29013-5.82741 13.6944-10.43583 4.80761-7.16532 8.18811-15.46046 8.83923-24.11238l-2.08122-6.12473c-4.11189-.62555-6.06229 3.59754-8.16431 6.1842-5.14358 7.55184-9.79065 15.60913-12.69245 24.35024-4.21595.0237-7.77187-2.25961-11.23263-4.51923l-6.42204.71358c-5.81848 2.55692-11.89267 4.40027-17.75576 7.01667l6.47853 2.58665 7.38832 1.01088 4.3438 4.40029.59154 6.39231-2.96126-3.03263c-2.38152-2.5272-6.63315 1.01088-8.8987-1.81245-2.72937-3.657-7.0702-5.41116-11.14938-6.98695l-3.84431-.2973c-3.68078 1.93374-7.40913 4.01377-10.21876 7.1356l-4.37949 5.05438-6.41015 1.07034-3.52023 6.63017c-2.55395-3.89485-.64815-8.56274.4788-12.6657.98709-3.65699 5.20304-3.68672 8.30407-3.95431 4.26055.35677 7.69752-2.61639 10.89367-4.93546-7.15641 0-14.23849.44478-21.34734 1.3962l-6.78178-2.46654-7.43293.50662 3.91269-4.37055c2.77694-.97995 5.78281-1.36765 8.65191-2.08121 3.41618-.9205 6.04148 1.96229 9.16331 2.58665 4.75112.83249 9.58252.97996 14.36634.83249-3.96026-3.21103-8.30406-6.21393-13.5517-6.45178-2.83342-.0951-3.93647-3.15155-6.38932-3.98405l-6.98993-.59462 3.46078-4.34083c3.00883-.29731 6.06228.68264 9.1633.4757l6.981 2.40828c3.00586 5.17331 8.19701 8.3546 13.296 11.03045l3.50833-.44718c6.85315-2.7353 13.72712-5.2625 20.32457-8.53298l-5.0068-6.27219c8.30405-4.37056 16.99165-9.09789 22.29875-17.12545 2.80072-4.22189 5.92255-9.00869 5.319-14.24148-3.8681 5.61929-6.90965 13.11168-14.27419 14.95504l-3.63321-4.0435c1.4747-2.438 3.9127-4.2219 4.86708-6.98695 1.49538-2.76505 1.49538-6.0058 1.92662-9.0979l-4.80762.53518c-2.1942 3.62727-3.1248 7.96808-5.21493 11.71427-3.03264 5.47064-5.8066 11.80349-11.6013 14.74691-3.25265 1.01089-9.419-.89195-7.9681-5.3517 3.27346-3.71646 8.42001-5.73821 10.6261-10.52501 2.42611-4.66787 5.84228-10.7034 2.62531-15.78751-4.94735 4.25162-7.50426 10.46555-11.95213 15.25235-5.81848 6.4815-10.8818 14.12254-18.99853 17.98766-3.8681 1.81244-8.24758 3.15156-12.48434 2.37853-4.07919-.50663-8.2-2.64613-10.15336-6.33284l2.31312-4.48949c2.98506-1.15835 6.02661.11888 9.08005.21406 5.13466.44718 9.88578-2.10976 13.73009-5.14357 7.56076-6.95721 12.71624-16.11456 16.28106-25.56924l-1.40334-1.72444c-5.54198 6.09499-11.14937 12.42784-18.282 16.67948-4.72733 2.8245-10.45068 5.05437-16.00456 3.50832-4.27244-.83247-8.97599-3.92457-8.97599-8.65191.33608-2.94344 3.92458-3.0921 6.15445-2.76505 5.66687.6541 11.857 1.21781 17.03923-1.66496 6.59449-3.71646 11.11369-9.87093 15.64184-15.75779 2.06931-3.2705 5.42602-6.42205 4.93545-10.7034-7.314 3.74619-12.5646 10.49528-19.84589 14.36039-5.47063 3.80566-12.93923 4.84626-19.08179 2.02176-2.96127-1.18927-5.13466-4.48949-4.65896-7.73025l3.17237-4.5192c6.14257.29731 12.25243 3.12181 18.45445 1.30819 6.68963-2.43799 11.77672-7.67078 16.29297-12.96301l2.69368-6.24365c-7.20993 1.54605-13.44763 5.85713-20.02131 8.9195-3.76402 1.69352-8.03647 1.81245-12.10079 1.33673-4.33191-.56608-8.38731-3.95431-9.01167-8.38432l3.1694-4.63814c5.70254-1.18927 9.81442 4.25163 15.4129 3.3894 9.57954-.21406 20.13726-5.14357 23.73776-14.53879l-1.33482-1.45566c-4.94735.80156-9.32684 3.53806-14.17013 4.84626-9.33871 1.7839-19.91724-.19027-26.60687-7.31398l.9871-7.58158c4.35568-.77302 8.01268 2.28815 11.7886 4.01378 6.73422 3.5678 15.67751 4.31108 22.07577-.44479 3.70754-2.58666 7.80456-6.15446 7.63213-11.08991-5.5747.83247-10.42988 3.98403-15.99268 4.66787-6.68962.68264-14.15822.50663-19.91725-3.47861-4.543-2.79479-8.88679-7.84916-7.60832-13.58738l5.91065-2.1716c2.84532 2.05268 4.7987 5.2625 7.8997 7.07614 4.8195 3.4786 11.16127 3.95431 16.9203 3.53806 3.76402-.4757 8.58353.2664 10.96505-3.4786l-4.07623-5.38737c-11.25641-1.84338-22.23037-6.03554-31.46502-12.81435-3.44888-2.46774-6.51422-5.76795-7.58158-9.93039-.87126-3.92457 1.55508-9.06815 5.89876-9.27629 2.84532 0 4.51922 2.67587 5.78282 4.84628 6.90071 11.53589 19.95292 17.69034 32.68402 20.36619l2.61044-6.00579c6.70152 3.09209 13.63495 5.50036 20.56837 8.02755 2.72937 1.1298 5.762 2.31906 7.35265 4.99491 3.93647 4.876.94262 11.74401 2.74127 17.33358l5.7947 4.0435c4.2873.44478 8.39621-2.67585 8.863-7.01668.7433-10.16822-4.31109-21.16895-13.73008-25.7179-5.6074-3.41914-12.26432-3.77591-18.61501-4.81652-4.2992-.29733-5.45873-6.12473-9.75496-6.39232-3.50834-.23785-7.1802-1.22018-9.74604-3.74618l-2.56584-4.40029 3.30913-.89195c2.71748 1.7839 4.20406 5.08411 7.2367 6.60042 3.76105 1.16074 7.7451 1.42713 11.5894.59464v-2.58665l-4.64409-1.07035-5.29819 3.0921 2.33691-6.77882c3.01777-1.75537 6.79369-1.39858 10.05527-2.11214 2.75315.0237 4.70355-2.22869 7.31695-2.58665 5.20305-.47571 10.19797 1.33672 14.90152 3.50834 5.70253 3.12182 12.36838.59462 18.43066.14271-2.01866 3.12181-5.03952 5.41116-8.45271 6.83827l-.33894 1.33674c3.02073 2.20015 6.36555 3.89485 9.76685 5.47064l-5.3071 3.24075c2.21798 3.30021 5.98202 5.14357 9.76685 5.97606l-4.98005 2.76505 3.6451 3.44888 4.70355.53517-1.81078 4.57866 3.40131.19029 3.17237-.19029-1.80173-4.57866 4.68272-.53517 3.68079-3.44888-5.0306-2.76505c3.83241-.83249 7.59644-2.67585 9.79064-5.97606l-5.28332-3.23244c3.38049-1.57459 6.71342-3.27047 9.75497-5.47062l-.38367-1.33673c-3.34481-1.42712-6.39825-3.71646-8.42001-6.8383 6.09798.4448 12.75193 2.97318 18.44256-.1427 4.69463-2.16922 9.69847-3.98405 14.88962-3.50835 2.60152.35679 4.57571 2.6164 7.30508 2.58666 3.28832.71357 7.04047.35679 10.0939 2.11214l2.32217 6.77883-5.3071-3.0921-4.62329 1.07033v2.58667c3.84431.83248 7.79267.56608 11.59239-.59463 2.98505-1.51751 4.51623-4.81654 7.22182-6.60045l3.3121.89195-2.5807 4.4003c-2.58962 2.5272-6.23474 3.50834-9.73117 3.74619-4.29624.2664-5.42307 6.095-9.75497 6.39231-6.36556 1.0418-12.99572 1.39858-18.62987 4.81653-9.38331 4.54895-14.43473 15.54967-13.71521 25.7179.45191 4.34082 4.55191 7.46265 8.83921 7.01667l5.8066-4.0435c1.82244-5.58955-1.219-12.45757 2.72937-17.33357 1.61455-2.67585 4.64409-3.86512 7.36157-4.99493 6.92152-2.52719 13.87875-4.93545 20.56836-8.02755l2.61342 6.0058c12.71623-2.67585 25.7833-8.8303 32.68105-20.3662 1.27848-2.16921 2.94047-4.84625 5.78579-4.84625 4.30814.21406 6.79368 5.3517 5.94633 9.27628-1.10602 4.16243-4.20405 7.46265-7.644 9.93037-9.2198 6.77883-20.20862 10.971-31.47395 12.81435l-4.06433 5.3743c2.36974 3.7462 7.2367 3.0029 10.97693 3.47861 5.74714.41624 12.1008-.0714 16.93218-3.53806 3.08914-1.81245 5.0514-5.02466 7.88484-7.07615l5.91066 2.1716c1.26658 5.73821-3.06535 10.7926-7.62912 13.58738-5.73823 3.98405-13.21574 4.16243-19.89347 3.47861-5.57468-.68503-10.41798-3.83539-15.99268-4.66788-.1879 4.93547 3.92458 8.50327 7.65293 11.08992 6.38637 4.75707 15.32965 4.01377 22.06685.44478 3.77295-1.72443 7.43292-4.7868 11.8005-4.01377l.9752 7.58157c-6.67772 7.1356-17.2949 9.09789-26.61877 7.31399-4.84329-1.30819-9.22276-4.0435-14.14633-4.84625l-1.35862 1.45565c3.60051 9.39521 14.15525 14.33068 23.76156 14.5388 5.58658.86103 9.71036-4.57869 15.37721-3.38941l3.20508 4.63814c-.61533 4.43002-4.70355 7.81942-9.03545 8.38432-4.04054.47571-8.35163.35679-12.07998-1.33672-6.5945-3.06238-12.8322-7.37347-20.0451-8.91952l2.68477 6.24367c4.52813 5.29222 9.61523 10.52501 16.30486 12.96301 6.20202 1.81244 12.3208-1.01089 18.46634-1.3082l3.18128 4.51921c.45502 3.24075-1.6947 6.54096-4.67976 7.73024-6.12175 2.82451-13.59927 1.7839-19.08179-2.02175-7.28128-3.86513-12.55568-10.61421-19.83697-14.3604-.53518 4.28136 2.881 7.43291 4.92357 10.7034 4.543 5.88686 9.03545 12.04132 15.6448 15.75779 5.16737 2.88397 11.38129 2.31907 17.03922 1.66497 2.20608-.32824 5.83931-.19029 6.15446 2.76505 0 4.72733-4.70355 7.81943-8.97896 8.65191-5.5628 1.54604-11.26534-.68263-16.01349-3.50833-7.15642-4.25163-12.70731-10.58448-18.28201-16.67948l-1.39452 1.72445c3.56779 9.45466 8.71138 18.61201 16.28403 25.56924 3.87999 3.03262 8.60732 5.58955 13.7509 5.14357 3.05345-.0951 6.07417-1.36766 9.05924-.21406l2.31027 4.48948c-1.9385 3.68672-6.06229 5.82741-10.16229 6.33285-4.26055.77302-8.61623-.56609-12.47243-2.37854-8.10783-3.86511-13.19492-11.50615-19.01342-17.98766-4.42406-4.7868-6.97801-11.00073-11.93725-15.25235-3.19318 5.08412.19742 11.11965 2.63422 15.78752 2.20918 4.7868 7.34075 6.80855 10.64097 10.525 1.45091 4.45975-4.73924 6.36259-7.97999 5.3517-5.7947-2.94342-8.60731-9.27627-11.5894-14.7469-2.10191-3.7462-3.02075-8.08701-5.23872-11.71429l-4.80761-.53041c.41623 3.0921.41623 6.33285 1.91472 9.0979.98709 2.76505 3.39238 4.54895 4.87896 6.98695l-3.64807 4.0435c-7.34968-1.84336-10.40609-9.33575-14.25039-14.95504-.63935 5.23279 2.53314 10.01959 5.3071 14.24148 5.31008 8.02756 13.98578 12.75489 22.28984 17.12545l-4.99493 6.27337c6.58557 3.2705 13.47143 5.79769 20.32458 8.533l3.50536.44717c5.08709-2.67585 10.30203-5.85714 13.2752-11.03045l7.01666-2.40827c3.08913.21407 6.11879-.77302 9.1752-.47571l3.43699 4.34083-7.0137.59463c-2.4053.83249-3.54402 3.89485-6.37745 3.98405-5.25061.23785-9.57062 3.24075-13.54279 6.45177 4.80763.14271 9.6182 0 14.37824-.83249 3.13669-.62555 5.7501-3.50834 9.13952-2.58665 2.91668.71356 5.90173 1.10126 8.66679 2.08121l3.91269 4.37056-7.42104-.50663c-2.24176.83248-4.09999 3.03263-6.79368 2.46773-7.08506-.95141-14.21769-1.3962-21.34735-1.3962 3.1694 2.31907 6.64206 5.29224 10.89369 4.93545 3.08912.26878 7.31696.29733 8.30406 3.95432 1.12671 4.10297 3.02072 8.77085.46381 12.6657l-3.50536-6.63137-6.43394-1.07033-4.35568-5.05438c-2.82451-3.12184-6.56178-5.20305-10.22175-7.1356l-3.8443.29731c-4.1 1.57459-8.40812 3.32995-11.1375 6.98695-2.26555 2.8245-6.5261-.71356-8.88381 1.81244l-3.00885 3.03263.63911-6.39232 4.30812-4.40028 7.40913-1.01087 6.43394-2.58666c-5.7947-2.61639-11.89267-4.45975-17.72305-7.01669l-6.42204-.71355c-3.46077 2.2596-7.0137 4.54895-11.22966 4.51922-2.88099-8.74112-7.54887-16.7984-12.71624-24.35024-2.04553-2.58666-4.00782-6.80856-8.1435-6.18419l-2.09002 6.12471c.65101 8.65193 4.06432 16.94707 8.86302 24.1124 3.3894 4.6084 7.89673 8.97897 13.66765 10.43582 3.0564.53517 6.13364.97996 9.22275 1.60551.30018 4.25162-4.01971 7.58157-8.11971 7.1356-5.21196.97996-9.29115-3.03263-13.80739-4.72733-.7195 3.3002.40745 6.77882 3.50834 8.3546 4.92356 2.20014 10.70638 1.84335 15.44561 4.6084-.56776 4.84627-5.73822 7.84917-10.27825 6.77883-6.4815-.26878-10.03443-6.68963-15.27317-9.39521-.51139 4.2219.1165 8.9195 3.26455 12.07106 2.90181 3.41914 8.07215 2.9137 11.63697 5.32197l-.30325 3.65699c-2.63423 2.31906-6.58557 3.30021-9.97498 1.93136-4.97114-1.7839-8.06027-6.24365-11.49724-9.90063l.39246 6.06526 4.42705 6.89775c1.90281 7.8494-4.85519 13.766-9.3744 19.1177" fill="#222"/></g></g></svg>