<svg height="180" viewBox="0 0 180 180" width="180" xmlns="http://www.w3.org/2000/svg" xmlns:sketch="http://www.bohemiancoding.com/sketch/ns"><g id="Page-1" fill="none" fill-rule="evenodd"><g id="Flat"><g id="Slice"/><g id="circle_antigua_and_barbuda"><path id="Oval-1" d="m162.002641 35.9947389c-16.419956-21.8570487-42.56028-35.9947389-72.002641-35.9947389-29.4423606 0-55.5826848 14.1376902-72.0026408 35.9947389l72.0026408 144.0052611 72.002635-144.0052693z" fill="#262626"/><path id="Triangle-1" d="m91 28 5.5407002 20.5005908 13.9668158-15.9969259-3.919452 20.3994522 18.994932-8.4078745-12.445076 17.2073725 21.221548.787063-18.728775 10.0103219 18.728775 10.0103219-21.221548.787063 12.445076 17.2073721-18.994932-8.4078741 3.919452 20.3994521-13.9668158-15.9969258-5.5407002 20.5005908-5.5407001-20.5005908-13.9668159 15.9969258 3.9194515-20.3994521-18.9949307 8.4078741 12.4450756-17.2073721-21.2215483-.787063 18.7287756-10.0103219-18.7287756-10.0103219 21.2215483-.787063-12.4450756-17.2073725 18.9949307 8.4078745-3.9194515-20.3994522 13.9668159 15.9969259z" fill="#e5b731"/><path id="Oval-1" d="m9 82 81 98 83-98z" fill="#4086cd"/><path id="Oval-1" d="m31.2734375 113 58.7265625 67 55.767578-67z" fill="#fff"/><path id="Oval-1" d="m162.002641 35.9947389c11.300792 15.0427905 17.997359 33.7419918 17.997359 54.0052611 0 49.70563-40.29437 90-90 90-49.7056299 0-90-40.29437-90-90 0-20.2632693 6.69656732-38.9624706 17.9973592-54.0052611l72.0026408 144.0052611 72.002635-144.0052693z" fill="#ca4638"/></g></g></g><path id="overlay" d="m153.63961 26.3603897c16.286797 16.2867966 26.36039 38.7867966 26.36039 63.6396103 0 49.705627-40.294373 90-90 90-24.8528137 0-47.3528137-10.073593-63.6396103-26.36039z" fill-opacity=".2"/></svg>