<svg xmlns="http://www.w3.org/2000/svg" version="1.1" xmlns:xlink="http://www.w3.org/1999/xlink" width="512" height="512" x="0" y="0" viewBox="0 0 512 512" style="enable-background:new 0 0 512 512" xml:space="preserve" class=""><g><path fill="#0052b4" d="M512 256c0-31.314-5.632-61.311-15.923-89.043L256 155.826l-240.077 11.13C5.633 194.689 0 224.686 0 256s5.633 61.311 15.923 89.043L256 356.174l240.077-11.13C506.368 317.311 512 287.314 512 256z" opacity="1" data-original="#0052b4" class=""></path><path fill="#ff9811" d="M256 512c110.071 0 203.906-69.472 240.077-166.957H15.923C52.094 442.528 145.929 512 256 512z" opacity="1" data-original="#ff9811"></path><path fill="#d80027" d="M15.923 166.957h480.155C459.906 69.472 366.071 0 256 0S52.094 69.472 15.923 166.957z" opacity="1" data-original="#d80027"></path></g></svg>