<svg id="svg2" height="512" width="512" xmlns="http://www.w3.org/2000/svg" xmlns:xlink="http://www.w3.org/1999/xlink" xmlns:cc="http://creativecommons.org/ns#" xmlns:dc="http://purl.org/dc/elements/1.1/" xmlns:inkscape="http://www.inkscape.org/namespaces/inkscape" xmlns:rdf="http://www.w3.org/1999/02/22-rdf-syntax-ns#" xmlns:sodipodi="http://sodipodi.sourceforge.net/DTD/sodipodi-0.dtd" xmlns:svg="http://www.w3.org/2000/svg"><defs id="defs4"><path id="pt" d="m0-.5.16245985.5h-.3249197z" fill="#fff" transform="scale(.062)"/><g id="star"><use id="use8" height="650" transform="matrix(-.809 -.588 .588 -.809 0 0)" width="1235" xlink:href="#pt"/><use id="use10" height="650" transform="matrix(.309 -.951 .951 .309 0 0)" width="1235" xlink:href="#pt"/><use id="use12" height="650" width="1235" xlink:href="#pt"/><use id="use14" height="650" transform="matrix(.309 .951 -.951 .309 0 0)" width="1235" xlink:href="#pt"/><use id="use16" height="650" transform="matrix(-.809 .588 -.588 -.809 0 0)" width="1235" xlink:href="#pt"/></g><g id="s5"><use id="use19" height="650" width="1235" x="-.252" xlink:href="#star"/><use id="use21" height="650" width="1235" x="-.126" xlink:href="#star"/><use id="use23" height="650" width="1235" xlink:href="#star"/><use id="use25" height="650" width="1235" x=".126" xlink:href="#star"/><use id="use27" height="650" width="1235" x=".252" xlink:href="#star"/></g><g id="s6"><use id="use30" height="650" width="1235" x="-.063" xlink:href="#s5"/><use id="use32" height="650" width="1235" x=".315" xlink:href="#star"/></g><g id="x4"><use id="use35" height="650" width="1235" xlink:href="#s6"/><use id="use37" height="650" width="1235" xlink:href="#s5" y=".054"/><use id="use39" height="650" width="1235" xlink:href="#s6" y=".108"/><use id="use41" height="650" width="1235" xlink:href="#s5" y=".162"/></g><g id="u"><use id="use44" height="650" width="1235" xlink:href="#x4" y="-.216"/><use id="use46" height="650" width="1235" xlink:href="#x4"/><use id="use48" height="650" width="1235" xlink:href="#s6" y=".216"/></g><path id="stripe" d="m0 0h1235v50h-1235z" fill="#b22234"/><linearGradient id="linearGradient3908" gradientUnits="userSpaceOnUse" x1="-.344" x2=".344" y1="-.003" y2="-.003"><stop id="stop3904" offset="0" stop-color="#2c3c51"/><stop id="stop3906" offset="1" stop-color="#2c3c51" stop-opacity="0"/></linearGradient><path id="star-6" d="m0-50.0808 29.4368 90.597-77.0665-55.992h95.2594l-77.0665 55.993z" fill="#ffce00" transform="matrix(.809 .588 -.588 .809 0 0)"/><clipPath id="c"><path id="path7" d="m0 0v150h700v150h-100zm0 300v100h300v-400h300z"/></clipPath><path id="Star5" d="m0-9 2.351141 5.763932 6.2083676.4549151-4.7552825 4.0172209 1.4858412 6.0450849-5.2900673-3.2811529-5.2900673 3.2811529 1.4858412-6.0450849-4.7552825-4.0172209 6.2083676-.4549151z"/><path id="Star7" d="m0-9 1.735535 5.3961245 5.3009483-2.0075327-3.1367717 4.72132446 4.8746396 2.89277214-5.6470253.4912708.7776278 5.6147606-3.9049537-4.1087198-3.9049537 4.1087198.7776278-5.6147606-5.6470253-.4912708 4.8746396-2.89277214-3.1367717-4.72132446 5.3009483 2.0075327z"/><g id="Pentagram"><g id="Arm" transform="translate(0 -.325)"><path id="path14" d="m0 0v.5l1-.5z"/><path id="path16" d="m0 0v-.5l1 .5z" transform="matrix(.809 -.588 .588 .809 .191 .588)"/></g><use id="use18" transform="scale(-1 1)" xlink:href="#Arm"/><use id="use20" transform="matrix(.309 .951 -.951 .309 0 0)" xlink:href="#Arm"/><use id="use22" transform="matrix(.309 -.951 .951 .309 0 0)" xlink:href="#Arm"/><use id="use24" transform="matrix(-.309 .951 .951 .309 0 0)" xlink:href="#Arm"/></g><clipPath id="Diagonals"><path id="path10" d="m0 0 300 150h-300zm300 0h300l-300 150zm0 150h300v150zm0 0v150h-300z"/></clipPath><clipPath id="Canton"><path id="path7-1" d="m0 0h600v300h-600z"/></clipPath><linearGradient id="grad1" x1="826.45" x2="786.124" xlink:href="#gradbase" y1="419.932" y2="396.11"/><linearGradient id="gradbase" gradientUnits="userSpaceOnUse"><stop id="stop7" offset="0" stop-color="#a43907" stop-opacity=".996"/><stop id="stop9" offset="1" stop-color="#fff"/></linearGradient><linearGradient id="grad2" x1="851.569" x2="763.033" xlink:href="#gradbase" y1="436.067" y2="419.673"/><linearGradient id="grad3" x1="1016.15" x2="974.919" xlink:href="#gradbase" y1="398.539" y2="400.941"/><linearGradient id="grad4" x1="1033.335" x2="945.904" xlink:href="#gradbase" y1="421.219" y2="428.645"/><linearGradient id="grad5" x1="1023.357" x2="776.646" xlink:href="#gradbase" y1="445.132" y2="445.132"/><linearGradient id="grad6" x1="783.43" x2="1144.088" xlink:href="#gradbase" y1="462.503" y2="465.421"/><linearGradient id="grad7" x1="1032.128" x2="1002.941" xlink:href="#gradbase" y1="442.287" y2="444.033"/><linearGradient id="grad8" x1="775.747" x2="803.908" xlink:href="#gradbase" y1="471.718" y2="476.185"/><linearGradient id="grad9" x1="803.177" x2="755.308" xlink:href="#gradbase" y1="466.888" y2="440.32"/><clipPath id="clipPath4412"><path id="path4414" d="m-660.3735 151.04739a157.29831 157.29831 0 1 1 -.008 1.60731" transform="matrix(1.551 0 0 1.551 1037.232 15.288)"/></clipPath><clipPath id="clipPath5778"><path id="rect5780" d="m930.011-79.228h480v480h-480z"/></clipPath></defs><g id="g4194" transform="translate(731.59)"><path id="rect4257-9" d="m256 16a240 240 0 0 0 -240 240 240 240 0 0 0 240 240 240 240 0 0 0 240-240 240 240 0 0 0 -240-240z" fill="#e32d3c" transform="translate(-731.59)"/><g id="g3760" transform="matrix(.505 0 0 .508 -802.753 89.306)"><path id="path3762" d="m767.32 145.154v253.639c3.0024 36.3156 78.6864 59.178 131.454 97.7484 69.2124-46.422 136.34-55.812 139.039-107.858l.8424-243.529h-271.33z" fill="#fff"/><g id="g3764" fill="none"><path id="path3766" d="m767.292 395.158 2.8344 14.4852 9.4464 11.3376 68.34 44.0856 50.0724 31.1796 97.626-53.2224 33.6972-25.8252 6.6144-33.696-4.0956-7.872.9456 8.1876-2.5212 6.6132-2.832-1.8912-1.8888-12.2808-.3168 9.1308-4.7232 5.3568-.9444-6.6168 1.26-4.722-1.89-5.3532-.63 10.7064-2.5188 4.7256-2.2056-3.1512.9456-4.7256-.3144-4.4064-1.5756-2.2068-.3168 4.7256-.9432 1.5732.3156 2.8332-1.89 1.8912-1.26-3.7776.6312-3.4668-.6312-3.1464-1.26-3.4668.3168 5.67-3.15 6.9276-2.52 1.5744-1.5744-1.89.3168-6.6132-2.2056-3.7776.6288 8.1876-3.1476 7.2444-1.8888-2.2068-.948-2.2032v-3.4668l3.4668-8.8164-3.4668 3.15-2.832 7.5564-1.26 2.2032-1.5744-3.7776 2.2056-8.5032-1.2612-1.572-2.8332 10.3908-2.5212 1.5744-1.8888-.6312-1.2588.6312-152.425 8.5032-4.0944-5.9844-.9432 5.9844-2.5212 2.2032-2.5176-11.0232-1.89 11.6544-2.5212-5.6688 1.2612-12.9144-1.2612-.9432-1.8876 6.9276v9.7632l-.9456 6.6132-1.89-1.26-2.5188-5.9832-.3144-9.7644.9432-6.9276-2.5188 8.1876v10.0788l-.3144 5.0364-3.1512-6.9276-1.5744-5.67-3.1488-6.612 1.89 8.5032v4.41l-5.3544-4.7256-2.8332-13.2252-.63 9.7632 1.26 4.722-1.5744 1.8912-3.1488-5.67-1.8888-7.5564-2.2044-7.2444v11.6508l1.5744 6.3-1.26 1.5756-2.5188-1.26-.9456-6.9312-.6312-10.0752-2.5176 6.9276-.6312 7.2408-.9444 5.67-1.5744 3.7812-4.4088.3228z" fill="#2f8f22"/><path id="path3768" d="m876.022 472.104c-.8184-14.8848 12.6432-29.772-23.5932-44.6604" stroke="#4dcf4a" strokeWidth="1.803"/><path id="path3770" d="m910.572 463.678c0-19.662-11.2356-28.0872-33.7068-25.2792" stroke="#38bb26" strokeWidth="2.253"/><path id="path3772" d="m922.368 472.104c-11.8752-14.298-27.7368-12.642-46.3464 0" stroke="#51c757" strokeWidth="1.803"/><path id="path3774" d="m951.86 453.566c-4.5108-8.406-20.9736-2.8692-38.7612 4.2168" stroke="#51c757" strokeWidth="1.803"/><path id="path3776" d="m1011.69 426.602c-4.494-12.9204-12.3576-20.2248-23.5944-21.9096" stroke="#7acb73" strokeWidth="1.623"/><path id="path3778" d="m1026.86 406.376c-2.9808-6.6744-6.1008-13.0752-13.482-10.9548" stroke="#4cb135" strokeWidth="2.253"/><path id="path3780" d="m845.686 459.466c3.9252-13.476-.3324-18.7692-7.5828-21.0672" stroke="#60c85a" strokeWidth="2.524"/><g stroke="#71ce5b" strokeWidth="2.344"><path id="path3782" d="m781.645 409.747c7.5-3.2556 13.4892-9.5316 24.4356-5.8956"/><path id="path3784" d="m772.375 401.323c6.1248.1284 10.4016 2.5188 11.796 8.4252"/></g></g><g id="g3786" stroke="#000" strokeWidth=".901"><path id="path3788" d="m905.36 150.642c-3.54226 3.25938-7.17643 6.25083-12.2809 4.95671-3.49269 1.43202-.1051 9.6721-5.79256 7.97449-5.51847-4.36808-4.05772 5.21006-7.59441 7.21367-3.23212 1.03309-9.23263 2.62193-4.48171 6.4602 2.90371 2.83623 5.69451 7.76316.94071 10.2349-2.75484 5.18425-3.34176-4.77529-7.4259 1.07401-1.32405 5.91639 8.79055 4.62676 4.08827 9.21187-.78856 2.74357-3.59803-6.76192-6.44736.79472-2.21447 3.12776-2.29966 7.74438 1.95225 9.14175 3.62127 2.07886 11.2149-1.08347 6.69187 5.02064.00071 3.60178-5.94797 9.58271-3.68958 2.80003 4.0639-4.71862-1.8354-6.02381-4.50767-2.80487-5.48606 3.74093-3.207 12.0658 2.15222 14.4675 1.58725 3.3247 3.19831 4.20255-.81863 8.20386.54947 4.0071-.28217 7.45192-5.56777 7.20054-2.95045 2.79703-4.93387 7.46347-10.5468 6.75851-5.38845 2.17173-6.74333-1.37286-7.75895-5.64889-1.74428-4.24891-8.86625-6.67841-11.4651-1.98322-3.11881-1.26246-7.17118-7.18853-10.3691-1.35643-2.84405 3.89495-7.34196-2.27757-10.3462 2.78933-3.49352 3.83808 2.17437 7.42167 2.99352 10.3485 4.67277 3.76705 2.15916 5.99326 1.16127 10.8641-1.69545 4.41349 6.18471 7.14548 3.74513 10.6827-3.50124 2.73566-9.13569 5.89127-7.78267 11.1306-4.96442 1.74934-4.29305 7.44363-2.75561 11.3861 2.50006 5.62804 13.0832 4.98976 12.577-1.90098 2.80156-.3991 6.09545 5.68243 8.1378 8.63606-1.9793 2.07989-8.40314-.42696-11.9477 1.37249-4.64835-.47891-8.63578 4.57286-13.2739 5.25391-3.36265 1.9929-7.8415 4.58416-6.7234 9.42037.8343 4.06606 2.37229 8.11037 1.7734 12.29-2.22903 3.69492-4.13929 7.61192-3.95762 12.0699-1.96561 6.51342 2.42679 14.3677-3.14518 19.6989-1.57378 4.81798 2.70258 4.79602 4.60869 1.72367 2.58216 1.13252 4.21461-3.2789 3.97188-5.18394 2.26039 4.12424 3.04019-1.12915 5.08565 2.74261 4.13911-1.37458-.94111-13.3054 1.65159-8.31367 1.97682 2.89796 3.02284 9.05703 5.87021 9.48817 3.1671-1.25364 1.55632-12.9016 3.84451-3.84111 2.47079 8.07865 3.75238 16.6026 7.83058 24.029 2.3965 6.98672 8.71819 13.5099 16.7166 12.1469 2.26668 2.14863-3.51443 6.58908-4.62453 9.62413-3.57381 2.7051-7.98711-.78552-11.767-.93801-3.78981 1.47298-8.14276 2.27747-10.8382 5.53593-1.72713 3.79253-3.04612 7.09939-3.4332 10.8552-.88863 5.31036.13036 11.4231 5.4288 14.0472 1.32615-4.06475.32208-7.52903 5.988-7.1808 3.96282 2.27349-.43644 8.10318 3.08723 11.6783 1.78178 3.71091 6.91704 8.34229 5.22056 1.031-2.01613-5.74223 3.3569-5.79493 6.61661-8.16246 4.29542-4.53022 4.97256-.12594 4.39461 4.3024 2.40725 3.14858 7.21565-2.9313 8.38176-5.643 1.66418-3.14588.0985-9.92787 3.0556-8.5594 3.80813-.98073 6.27449-4.46801 9.26253-6.94112 2.69313-5.24053 7.73558-.0687 11.7046.68887 4.94459 2.13323 11.5753 1.37682 13.8037 7.37185-3.80873-1.882-8.25871 1.64004-6.864 6.3864 1.9254 4.86856 7.80907 3.45041 11.3493 2.75596 3.56187 1.46818 7.57486-3.00643 11.4073.29753 3.75006-.8166 7.88442-.30457 11.4062-2.17749 3.4679-2.8491 2.0463-9.28119-3.0312-8.2992 2.32392-3.43251 7.59164-4.39502 11.094-6.786 4.02682-.36578 7.52934-4.83217 11.0583-4.16909 5.02567 3.47708 7.52356 9.09418 11.8431 13.1088 4.23568.49022.3119 6.3769.76513 9.97366-1.13344 4.34512 1.29721 10.359 4.92686 4.42063 2.18556-3.95092 8.19703-2.82151 8.52258-8.00637 1.67796-4.37996 2.81142 6.40087 7.104 5.8248.28878 3.34521-.97692 11.5345 4.0692 6.1476 4.42932-4.06469 5.16729-10.2904 3.5904-15.8052.71023-4.51311 7.2393 2.71525 6.05479 5.95468 1.00747 4.16725 6.17809-3.60099 6.90937-5.97298.56765-6.08552.74611-13.2759-3.86336-17.9397-3.49944-1.73665-4.94891-7.1766-9.95409-6.97476-3.44514 1.89486-7.37505 5.50514-8.84411-.82243-4.5437-4.03599 3.08055-4.31882 5.6258-6.17201 5.12321-3.23731 7.92808-8.79362 8.96725-14.5657 1.86359-5.29724 3.46296-10.6852 4.68515-16.1675 4.00765-1.44117 7.76437-4.3775 9.99505-6.80623 4.55378-8.55582.19862 6.4166-1.41842 9.93834 3.47934 1.53958 8.0268-1.24501 9.5168-4.9319 2.2413-2.48392 2.7348-12.2521 3.9023-4.42962.5192 2.70794-4.3038 10.7481-.3951 9.32604 4.04-1.29321 7.2811-5.17916 9.1374-8.91988 1.6184-5.0203 3.2276-11.1261 1.1868-15.964 3.2478-2.22444-.2354-11.5228-3.7512-6.4668-4.5133-.851-3.2152-7.41982-4.0384-10.661 3.6967-5.2321.613-15.3666-6.5792-15.1198-3.63522-2.08391-6.53503-3.01516-10.26223-4.42079-4.84246 1.51061-8.30162-3.06667-13.1193-2.27392-7.27824.36128.6124-7.96674 3.43543-5.09674 3.30081 4.25235 10.2938 6.27454 13.6909 1.07153-.16107-3.9225-.15243-9.32357-3.65476-12.394-.69406-4.38556-1.86451-8.53282-4.88218-11.951-3.70561-5.44536 3.10924-6.71299 5.35331-10.1034.99678-4.38737-1.66522-9.19954-4.29157-12.7821 2.82357-2.82577 5.6705-8.06344 2.6352-11.652 1.12886-3.42185-6.57321-4.017-9.06677-3.68003-4.99081-.33128-9.18147 4.22055-14.1507 4.56182-4.25118 3.46864-9.40421 5.39471-14.8732 4.01385-3.86818-.96115-6.90044-5.20991-8.97502-7.73471-5.04291 2.76035-.91474-5.44702-5.01013-7.84979-2.83276-3.88498-8.69936-3.05119-6.57192 2.6488-3.70572 4.52734-.47388-6.08652-2.79033-8.26063-3.01597-7.27229-1.7811-2.05451 2.29253-.0649 4.52782 3.1003 11.1217 1.2253 12.2539-4.33848-2.22247-3.30433.26012-9.82401-4.75208-9.3564-3.6689.56032-3.85351 9.49795-5.90822 2.19016-.55728-4.03175-2.83103-7.38551-4.8648-10.8465 2.73143 4.79514 8.02254 9.97456 13.8913 7.01852 3.14999-2.05918 4.26721-7.17898 2.3745-10.2464.17684-10.6094-5.94865 5.63578-8.76097-2.75775-6.501-1.92597 12.4594-8.92611 4.68272-11.2458-2.64508 3.68241-8.39049 1.94873-8.9959-1.91707 3.27961-1.83593 6.40279-8.91899 4.23398-11.2631-4.73233-2.68508-6.56446-6.73855-5.5068-12.1777-2.7735-2.96986-9.86367 2.25059-10.2761-4.42963-.23117-6.20499-5.88188.81895-8.98114-1.4233-2.33726-1.38202-4.71261-2.75526-6.92316-4.47896z" stroke="none"/><g strokeWidth=".901"><g id="g3790" fill="#d40000"><path id="path3792" d="m904.106 194.538c-.3108 6.8796-6.2196 5.4348-7.908 3.5532-1.6236-6.2904 7.8012-8.0148 7.908-3.5532z" strokeWidth=".901"/><path id="path3794" d="m907.309 194.143c.6156 5.4336 6.8472 6.1884 8.0268 3.912 2.0592-5.1888-5.6772-8.4852-8.0268-3.912z" strokeWidth=".901"/><path id="path3796" d="m903.481 188.9v1.1904l-.6552.12-.2376-.2976-.1776-1.8468-.3576-.1776v-.834l.8328-.0588v-.7752h-1.0116l-.3588.7752-.18 1.0716.42.894-.42.7152-.7728.4164-1.0728 1.014-.7164.3564-1.668.1788-1.3692-.6564-1.3728-1.3104s-.5952-.9528-.6552-1.1916c-.0588-.2376-.4176-1.0716-.4176-1.0716l-.3588-.894-.6552-.7152-1.0128-.12-.2976 1.2516-.3564.4764-.8352.1188-.8916-.774-.5964-1.0128-.6564-1.3116-.5364-.894-.774-1.1304-.3588-.6552-.3564-1.5504-.8952-1.1316-.5952-.9528-.9516-.774-1.014-.7752h-1.1916l-.7752-.5952-1.1292-1.0728-.8352-1.1316-.534-.6552.1188-.5964.4164-.5376.894-.5352.8928-.06 1.014-.2376 1.0128-.5364.1788-.7152.1788-1.1916 1.0716-1.9068.4764-1.3704.06-1.0716 1.5492-.2388 1.4904.1788 1.0716.2988 1.1316.3564 1.3104-.6552 1.0728-1.3716.3564-2.382.4764-2.2044.5376-1.2504h2.742l.9504.6552.7752-.3564.714-.3576 1.7292.1776h.8928s.7152-1.1316 1.014-1.3104c.2964-.1788 1.7268-2.0856 1.7268-2.0856l1.8468-.4764.9528.12 1.3116 1.4904 1.0716.6552.954.06 2.2644 1.4892s.7152.5952.954.4752c.2376-.1188 2.2656-1.0128 2.2656-1.0128l1.7844-.1188 1.908-.6552.6552 1.488s.954 2.2644 1.2516 2.5032c.2988.2376 1.4892 2.5008 1.4892 2.5008s.5964-.2976.8952-.3576c.2964-.0588 1.6668.2988 1.6668.2988l3.9324.1788.5364-.5964.4152.7152-.534 2.7408.2376 2.0856.7152 2.8008.8928 1.3104 1.1928.0588 1.5492 1.3116.06 1.3104-1.1916.4176-1.0728-.3576-1.3728.774-2.1432 1.2504-1.7892 1.788-1.5468 2.2032-1.014 2.2044-1.0116.7152-.8952-.3576-.894.0588-.4164 1.0728-.894 1.0716-.7752 2.7408-1.668 1.8468-1.728.834-1.2504.954h-.8328l-1.4304-1.3716-.6552-.5952-.1776-2.1444-1.3728-1.074h-1.014l1.4904 1.1928.06 1.608-.8328.714-.4188-.1188-.4152-.834h-.4788l-.06 1.608-1.7868 2.0856-1.7868-1.4892-.06-1.9068-.8916-.1752z" stroke="none"/><path id="path3798" d="m874.307 173.86 2.6616.0852 1.3752 2.0628 1.2024 1.2876 1.2012.9456 1.032.1704 1.9752 2.9208v.3444l1.5444 1.374.4308 1.8024.1716.6012-.0864.7728-.8592.516-1.0308-.1728-.6012-.4296-1.8876 1.632-1.2036 1.632-.7728.1728-2.0628 2.232-1.0296.3444-1.632 1.2024-2.5764-.0864-1.6308-1.9752-.342-.774-.0864-1.5456 1.4604-1.0308.6864.7728-.342.7728.084.9456.8604.3432.858-.0864 3.0924-2.6628.7728-.4296 1.8036-1.8024 1.1172-.6012-.0852-1.116-1.2888-1.9752-.4284-1.374-.3432-1.2888-.342-.9456-1.2036-1.3728-.6876-.774-.258-.7728-1.2012-.9456-.3432-.1728v-.5988h-.005z" strokeWidth=".901"/><path id="path3800" d="m926.009 183.908h1.3752l1.4604-.6876 1.1172-.9444h1.0296l.6876.6864 1.1172-.0852.6864-.8592.258-1.0308.9444-1.2876.258-1.2888.8592-1.8036.258-1.2888-2.1468-.0852-2.4912 2.148-1.89.0852-1.5456 1.632-1.2012.1704-1.2888 1.89-.4284 1.1172.1716 1.1172z" fill="#a00" strokeWidth=".901"/><path id="path3802" d="m899.472 201.173-1.6332 1.632-.4284 1.4592.6864 1.4592 1.5468.258 1.1172-.6 1.0296 1.2012.1716 2.0616 2.0616 2.232.9444.258.774-.8592.858-.8592.0864-.858 1.3752-.6012.3432-2.5764.774.9432 1.2864-.7728 1.6332-.1704v-2.148l-.6012-1.4592-1.29-.9456-1.974-.8592-2.1468-.7728-1.0308.0864-1.8924 1.1184-2.0604.6852z" strokeLinejoin="round" strokeWidth=".901"/><path id="path3804" d="m912.4 200.641 3.1008-.1416c2.1276-1.38 3.048-6.9996 4.512-10.7136 2.2716-2.9448 5.0604-3.8256 8.46-2.256l1.974.564 2.5368 1.9728h1.8312l1.2708.282 1.974.1416 3.5256-2.82-.1404 2.9604-2.3976 2.1144-4.9344 1.8336-3.8076-2.2548-.1404.564 8.178 9.0216h.7044l1.41 1.41.7044-.564.1416-2.3964 2.8212-2.5368.2808 3.6648.9864 1.8324v3.5244l-2.6784 3.384-4.2288.564-4.9344-3.1008-.1404-1.41-4.5132-5.2164v2.256l2.6796 5.4984.4224 2.1144.9876.9876.7056 1.6932v2.1144l1.2672 2.9604 2.256.2808.5664-1.4088v-1.974l2.3964-2.3976 1.5516-.1404.564.846-.7056.7044-.282 1.5516v.9864l1.974 2.6784.5652 1.692-2.9616 4.5108-1.9752.5652-3.5232-.5652-2.1156-1.4088h-1.128l-3.2436-4.9356-.4212-2.3964-4.3716-6.9084-.1428 1.41 1.6944 2.1156.8448 3.2424.8448 5.7804 2.538 4.9344.1404 9.1644.8472.9864h1.1256l1.4112-1.1268 1.1268-1.5504-.282-5.358h1.5516l2.6784 1.5516 1.974 3.2424.7044 1.41v2.9604l-.9852.1404-1.9752 2.1156-3.2436 1.4088h-5.6376l-1.2684-1.1268h-1.128l-.8448-.846h-1.5516l-4.3728-6.2028-.1392-10.2924.564-2.2548v-3.102h-.7044v3.102l-.7068 1.9752-.1404 2.8188.1404 7.7544 4.6524 7.4724 3.384 1.692.9876 1.128h-1.551l.1416 1.128-1.2708-.282-.2808.564-.7044-.282-1.2708-.8472-1.692.2832-1.1256.564h-2.9604l-1.2708-2.538-.9852-1.974-3.384-3.102h-2.538l-.564-1.8324.4236-3.2424.7068-2.9604v-7.896l-.5664 9.024-1.5492 5.0748-.5652.4236-.1416 5.7792.9876 2.6796 3.9468 4.3704-2.6784.282-1.974-.8448-2.1156.4212-3.2412-.7044-3.6672-1.2684-2.3964-2.3964-1.128-2.6796-.4236-2.6772-.564-2.82.564-2.2548.282-2.256-1.1268 2.5368v6.0624l-1.5516-.4224v-1.692l-1.2684-1.692-.2808-2.256-.4236-3.3828-.1428-5.4984.1428-3.384.7044-3.8064-.564-.1416-.4248 4.7952-.2808 9.4452-.9864.2832-2.2548 3.1008h-5.078l-1.974-1.6908 3.8076-4.0896-.4224-3.2424-.4248-3.8052-.4224-6.486-4.3716 4.6524-4.9332 3.5256h-4.23l-2.3964-2.9616-.4248-3.3828.2832-2.3976 2.5368-3.384 1.8312-.2808.7068-.7056.4224.564-.9852 2.82-.9876 2.1144.8448 1.974 2.3988.282 3.1008-4.7928 2.3964-5.64 1.8324-2.82v-1.5504l-1.6896 1.2684-1.9752.4236-5.7792.1416-3.3828-2.1156-.5652-1.692.1404-1.5504.1428-2.1144 3.6648-2.3976.1404 5.0748 2.3988-1.974v-.982l3.1008-4.0896 7.4724-6.6252h4.512l2.6772 1.974 1.1268.282 3.2436 3.102.1404 3.9468 3.8076 3.102-2.256 2.6784.138 1.4112 2.118 1.5504 1.9728-.564.846 5.2164 2.3964 1.41 1.2684.1404 4.7952-5.64 2.1156-.2808 1.2684-2.82-.5664-2.256-.5616-1.2768z" stroke="none"/><path id="path3806" d="m858.209 249.643v.8268l1.6572 2.2476-.1188 2.3664-8.4 4.2588-3.6648.2376-1.8948 1.7736-4.8504 1.5384-2.1276-.474.354-1.182.2364-2.0112-.2364-1.1832-1.5372-.828v-1.8948l1.8924-.5904-.5928-.8268-1.0644-.12.2376-2.4828.4728-.9456.1188-.5928-.1188-1.1832-.4728-1.0644-1.302-.3564-3.7848 1.5396-.5916-.5928-1.7748 1.8924-.9468.1188-.1176-1.5384-1.8924-2.4852v-.474l-3.5484-.5904-2.4852 3.1944h-1.7748l-1.2996-.9456h-1.0668l-1.1808.708-.7116-.2352-1.0644 1.8936h-.5904l-.7116-1.5396-.9456-1.5372-.354-.948.474-1.8912 1.5372-.9468 1.89-.948 1.4232-.2352 1.6548.9468.7104 1.536 2.13-2.01 2.1276-2.3664 1.7736-.7092 2.2488.354 2.4852 3.3132 2.364.2352 2.8404-2.0112 1.0644-.5916 2.604.3552 2.6028 1.4196 2.7204 4.0212.474 3.9036.5904 1.0656 4.7316-.3564 4.968-.9456z" stroke="none"/><path id="path3808" d="m861.049 244.319-1.302 5.7972 1.5372 1.656-.1188 1.8924.8268.828 1.5384-.828 1.5372-1.0644 1.5372-.5928 1.7748-.9456.2352-1.0656 1.8924-.9456 2.0124-.5928 2.6016-.7092 2.604-.3552-1.8924-1.302-5.442-3.5472-2.2488-.2376-.828.7092-3.192.1188-1.7736.4728z" stroke="none"/><g strokeWidth=".901"><path id="path3810" d="m887.192 238.523-3.7848-.1188h-2.4864l-2.01-.8268-1.656-1.656-.2364-1.5384-1.182-1.8924-1.1832-1.1832h-1.7748l-2.4828 1.656-1.0656 2.1288-.2352 3.4308 1.4184 2.9568 4.7316 3.5496 2.7216.5904 1.8948-.8256 4.2564-1.8936 2.7216-1.7736.9492-1.5384z"/><path id="path3812" d="m878.083 233.08 2.1276-2.2464.1188-5.088-.5916-.4728.5916-2.0112.2364-1.656h-.828l-4.614 4.3764-3.1944.4728-1.6536.948-.12 1.182 1.302.828 2.3664-.2364 1.2996.1188z"/><path id="path3814" d="m879.976 246.448 4.1388-.3552 3.3132.2376 1.656.474 3.3132 1.7736 1.8936.948 3.6672-.2376-1.4196-1.7736-1.4208-1.7748-.948-1.7748-.2352-1.7736-.8256.2364-.948-.2364-1.182-1.5372-.7092-2.2488-.4752-2.9568-.9444-.12-.7116 1.4196.7116.7092.708 1.4196-1.1832 1.5372-.1176 1.1844-1.5372 1.1832-2.13.9468-2.0112.8268-2.2476.828z"/><path id="path3816" d="m910.26 241.006.1188 5.0868 1.7748 1.5384h1.6548l1.302-.7092.3552-1.0644-1.1832-.7092-.474-1.4196-2.484-2.7216h-1.065v-.001z"/><path id="path3818" d="m929.543 245.028 5.0856 3.4308 1.5384.474 1.4196-.474 2.3652-1.8924 1.182-2.6028.12-1.8912-1.182-.1188-1.8924 1.302-2.7216.2364-2.1288.354h-1.6572l-1.6572.3552z"/><path id="path3820" d="m944.21 241.126-.9444 1.5384-.9468 2.3652-2.13 2.2488.1188 1.6548h-.948l.1212 1.302 1.6536 1.2996 4.6152.7092 3.6684-4.7304v-1.302l-2.0124-2.3664-1.4208-.354z"/></g><path id="path3822" d="m965.74 254.375 2.3676 1.1832v.828l-.9468 1.302-.5904 2.4828-.2376 1.5384-2.8392.1188-2.9568-1.0644-1.6572-1.0644h-1.5372l-.828-.7092-1.4184-.9468-1.776-1.1844-1.8912-2.4828-1.3008-1.656v-1.1832l1.7748-2.2476 1.7748-.5904h7.926l3.666-1.302 2.9568-2.484 3.5496-.7092.828-.9468 2.3664-.474 5.9148-3.0756 3.312.5904 3.3132-.1176 2.838.8268 1.0656.9468-.5916.3552-1.5372-.1188-1.7748.9468-.2376 3.1944 1.4196 2.6016-.354.7104-1.7748-.1188-1.182-.5928-.5928-1.0644v-1.0644l-1.1808-1.656-.9468-.354h-2.1276l-.7104 4.494h-1.0668l-2.0088-1.7736-2.9592-.3564-2.0112 1.7748.7092 2.3664 2.9592 2.8392h1.5372l1.4196 1.6548-.12 1.3008-2.1276-.474-2.13-.4716-1.7736-.8304-1.4208.2376-1.656-.948-1.656-.708-1.0644-.474z" stroke="none"/><path id="path3824" d="m973.724 307.228-1.8816 1.7052-1.2552 2.4192-.4476 2.508-.8064 3.1368-.3588 2.4192.3588 5.2872.18 2.8668 1.7016 2.6904.8952.2676 1.0752 2.1492 1.5228-4.2108.7188.5376.4476 3.1356 2.5092 2.1504s-2.3304-1.164-2.868-1.164-.6264.6252-.6264.6252l.6264 1.344 1.4328 1.434 2.5104.984 4.6596.09-1.0752 1.0752h-3.2256l-.8088.6264 1.1664 1.7028 1.4328 2.2392 2.6004 1.2552 2.6856-.7164h.8964l-.4476 1.0752 1.344.984 1.164 1.0752 1.0764 1.1652.8952.1788v1.344l-1.6128 4.0332-.36 1.8804-.894 1.524-.5376 2.328-1.6128 2.778-.1788.9864h.8064l1.164-1.5252 1.704-.7164 2.0616-2.688s1.164.36 1.434-.18c.2676-.5376 1.5228-4.3008 1.5228-4.3008l1.254-.2688.6276-3.942 1.0752 3.6744.8976 4.6596-.36 3.9432-2.3304 4.2996-.6252.72.3576 1.4316h1.7028l1.9716-2.0628 3.4044-4.5696 1.3464-4.5696.7164-8.8716 1.5228 4.1232 1.434 4.0308.7188 3.1356-1.0764 4.122-1.344 4.8408 1.7928-1.2564 3.7644-4.212 2.9556-4.3884.8076-3.2256.7176-6.1836-.4488-4.8384.1776-1.7928.6276-.9852-.09-3.2256-.6264-1.344-2.1492 2.8668-.8964.18-2.5104-1.7028-.6252-.18-1.434-2.0616-.984-3.3156.088-3.7632h-.5364s.2688-3.1368.5364-3.9432c.27-.8064.6276-2.328.6276-2.328l-.4488-3.3168-1.7016-3.1368-2.0616-1.7904-3.3144-.9852-3.8556-1.0764-2.2392-1.7904-4.212-.4476-2.1504.2688-4.032-1.8816-2.5992-.9864-3.3144-.0876-3.1368-.36-1.6164.0936z" stroke="none"/><path id="path3826" d="m829.548 307.424-8.2644-.1644-1.3224-.6612-1.9824 1.6512h-3.8016l-4.1328 2.3148-2.8092 2.148-1.4868-.1644-5.7864 5.2896.8268 4.296.66 1.158.3312 4.1328.1644 5.9484-1.3212.9936-1.9836 4.9596-1.158 4.296-.9912 8.43.8268 6.2796-1.158 3.306-2.3136 3.6372-.4956 1.818 1.9824-1.3236-.3288-.6612.9912 1.4868 2.4768-4.4628.9936 1.6536.99.1644v-5.6196l-1.1556-8.76 2.8092 9.0924.6624 3.3048.4956-.1668.33-7.4376 1.8168 4.1328.1668 3.6348.8256.6624.498-.9924v-5.454l-2.9772-8.76-1.4868-8.1012 3.9672 10.5792 2.3148 2.148 2.148 5.7864 1.8204 3.3048.3288 2.148 1.3224-.8256.498-.8256-1.158-.8268.8256-.66-.1668-2.9748-.99-6.9396h-.9912l-3.4716-7.2732 3.1404 4.464h1.3224l.1656-1.1592-1.4868-2.9748-.33-3.4716 2.9748 4.2984.99-.4956-1.6524-4.7952-.3288-5.454.9912 2.3136-.1656 2.6448 2.1492 2.646 2.148 1.1556 1.6524-1.9812-1.158-.828-.4944-2.3124-1.6548-1.9836v-2.646l2.3172 4.1328 2.1468 1.488 2.1492.4956 2.1492-1.4868 3.6348-4.1328-.4932-.4968-3.804.1668-2.9748-1.9836-2.6436-2.478v-2.1492l.4956.3288 1.1556 2.316 2.1492 2.1492 2.4792.3288 3.1416.1668 3.4692-3.1404 1.8204-5.9508.4956-3.306-.6612-4.1316-2.1504-4.794-1.3224-2.1492z" stroke="none"/><path id="path3828" d="m951.204 398.996-8.7624 9.0876-1.1568-.3288-3.1404 2.6448-.1644 2.8104 2.9748 2.316 1.158 2.148.8268-.1668 2.9736 3.636 2.8116 3.9684 1.158.6624.8244 1.8168-1.4856 2.148.4956 1.3248 2.3136-.3324 2.646.1668 1.6512.9912.6624 2.976v1.1544l1.818-.99 1.488-2.1492.1656-5.2884-.3288-1.4868.4932-3.9684.4956 5.2884 1.158 1.6536.8256-.6624.9912 3.4728 2.1492 2.1492 1.158 1.9812.1668-1.32-.1668-2.6448 1.158-2.976 1.3224-3.4704 1.3224-.828 1.1556.4992 1.656 1.65-.1668.6624 1.488-.1668-.3324-3.966-2.1468-2.976-3.3072-2.1456-1.6524-1.6524-1.4868-2.6448 2.3136 1.3212 2.4792 2.3148 2.3136 1.158 1.6536.3288 2.8116 5.4552 1.818 2.6448.33-3.636 1.3224-4.134 1.3236-1.8168 1.6524-.1668 2.1492.6624-.4968-2.4804-1.6524-3.1404-3.306-2.9736-3.4716-2.6448-2.9736-1.3248-2.6472 2.316-.8256.3288-1.488 1.3248-1.1556-.4956-3.8028-3.6396-.9912-.6588-1.6524-3.9684-2.4804-1.158-3.8016.3324z" stroke="none"/><path id="path3830" d="m851.863 396.848 1.158 1.9812.9924 3.1404 1.6512 1.8204-.1644.99 2.3136 1.9824 2.3136 3.636 3.8028 3.1392-2.8104 2.4816-6.612 4.9596-2.1492.6624-2.8092-1.6572.33 3.9684 1.1568 1.8204-2.9748-.6624-3.4728.3288-2.148 1.8204-.4968 1.8168-.8256-1.3212-1.158-1.8204-.33-.3288-.66.4956.4956.3288.1644 3.306-.8256.6624-.1668.9912-3.8004 2.478-.9912-2.478-1.3248-2.8104-2.3136-1.158-2.478.3324-2.8104 1.6524.8256-2.3148 1.6536-2.6448 3.1392-2.6436 3.1404-1.9824 2.4792-.9912.6624-.3324-.828-.8256-4.626 1.3212-3.3072 2.1492-3.4716 2.4804-2.6436 3.7992-1.3224.9912v-2.808l-1.4892-3.8016-.4956-2.4816-1.488-1.8168h-1.8168l-2.4792.4956 1.8192-3.1392 3.6348-1.9824 1.6536-2.8104 2.9748-2.4816 2.4792-.4956 3.6372.4956 1.8156.9948 3.474.1632 2.1468-.1632 2.646-1.3248 2.1492-3.9684 2.9736-4.2948 3.474-1.8192z" stroke="none"/></g><path id="path3832" d="m892.877 173.292v2.0844l-.7752 1.2504h-1.3704l-.8328.894-.2388.7152 1.5492 1.4292 1.4292 1.0128.5952.7164.3588.1776 5.958-.06.714.7152 1.3116-.9528 1.6104-2.4432 5.064.06 2.6796 1.9656.1788 1.6092.5964.2388 1.428-1.2504 1.1916-.0588.5952.774h1.074l3.5148-3.1584.5964-.834 1.3104-.06-.1776-1.0128-1.4292-.3576-1.2504-1.2504-.3588-2.0856-1.1316-.1776-1.9656 1.0128-3.396 1.668-1.1328.834-1.0128.0588s-.4164-.3564-.6552-.3564h-1.3104l-1.074.894h-.834l-.2976-.2988-4.5876-.3576-3.8124-.9528-1.968-1.3104-1.2504-1.0128-.3588-.3564z"/><g id="g3834" fill="#fff"><path id="path3836" d="m895.739 178.772h2.6208l.6552.5364v.714l-1.2504.5364-2.2056.1188-1.5492-.2376-1.074-.954-.2364-1.9056 1.428-1.6092h1.3716l.12.5364z"/><path id="path3838" d="m913.254 178.654-.4164.3564v.7152l.534.3576 2.6232.12 2.8596-2.2632.06-.8952-1.7256-1.4892h-1.4904l-.2388.4164.3588.7752.4752.7152-.4752.9528z"/></g><g id="g3840" fill="#48489c"><g stroke="none"><path id="path3842" d="m819.408 249.526 1.5384 2.7192-.1176 4.8504-.5928.5928-2.2464-1.8936-1.1844-1.6548-1.1832-2.0112v-1.7736l1.1832-.9468 1.5372-.354z" fill="#5656a6"/><path id="path3844" d="m824.141 257.33 3.4296-7.0968v-1.8924l-1.302-1.8948h-1.7748l-1.8912 1.7748v6.27z" fill="#5656a6"/><path id="path3846" d="m830.054 257.33 1.8936-.8268 4.614-4.3776.7092-1.3008-.3564-1.0644-1.2996-.9468-.8268-.2364-1.8936.828-1.0644 1.0644-2.13 3.7848z" fill="#5656a6"/><path id="path3848" d="m838.219 260.406-1.6572 1.1844-1.8936-.1188-3.4284-2.3664.1176-.474 2.1288-.3552 1.8924-.828 1.8924.1176 1.0668.9468.3528 1.0656z" fill="#5656a6"/><path id="path3850" d="m970 256.975h2.7216l1.5372.828h3.0756v1.1844l-1.7748 1.2996-3.4308.9468-1.5384.7092-1.182-.1188-.828-1.0644v-1.656l.7092-1.4196z"/><path id="path3852" d="m988.808 253.31s1.8936-1.0668 2.2464-1.8924c.3564-.828 1.1832-2.604 1.1832-2.604l.7116-3.0756-.9456-2.6016-1.7748-.4728-1.5372.1176-.828.8268-.2352 2.2488.8268 1.8924.7104 1.0644-.1188 2.0112z"/><path id="path3854" d="m981.71 254.255 1.8936-.9456 1.1808-2.2476.1212-2.4852-.9468-1.8936-1.302-1.4172h-1.7748l-.474 3.3108 1.3008 1.302v4.3764h.001z"/><path id="path3856" d="m979.463 256.385.7092-.828.3576-1.7748-.7104-2.6016-1.0668-1.1832-1.2996-1.1832-1.4208-.9456h-2.0124l-1.2996 1.0644.3528 2.13 2.3688 1.7736 1.8924.3552z"/></g><path id="path3858" d="m988.106 250.757v2.1336l-2.1324.306-.1524-2.8956z" strokeWidth=".901"/><path id="path3860" d="m971.699 428.416-1.818 2.4804v4.1316l.8256 1.9848-.8256 7.7676 4.1328-5.784 1.4856-2.9772-.1644-3.9648-1.158-1.8204-1.3224-1.1568z" fill="#4f4d9f" strokeWidth=".901"/><path id="path3862" d="m985.418 419.824-1.3224.3288-1.488 3.1392-.3288 4.1316.8256 2.148v2.9772l.3312 1.8168 1.4856-2.1456 2.1492-3.6384.3288-2.6448v-3.6348l-.9912-1.6536z" fill="#4f4d9f" strokeWidth=".901"/><path id="path3864" d="m949.384 441.308 2.1492-1.4868 1.6536-1.158 2.1504-2.808-.3324-2.148-1.3236-.9912-1.6524-.6624-1.4868.1668-1.6536 2.3124.1668 4.6296z" fill="#4f4d9f" strokeWidth=".901"/><path id="path3866" d="m848.724 426.766 1.6524.6588v4.464l-2.8092 3.1404-3.1392 2.3148.1632-2.976-.8256-.9876v-3.144l.6624-.8256v-1.4856l2.8092-1.4904z" fill="#4748a5" strokeWidth=".901"/><path id="path3868" d="m827.234 429.409 2.3136-.1656 2.4792 1.4856.9912 2.8116-1.4868 1.3236-.8256 1.3212-.4956 2.1492.33 3.4728.1656 3.1404-2.8092-3.474-2.3136-3.6348-.1668-3.6348.8256-3.1404z" fill="#4748a5" strokeWidth=".901"/><path id="path3870" d="m819.3 425.278-.6612 2.3124-.8256.4956-.9912 1.3236v4.9572l-1.6536-.9876-1.818-2.316-.9912-2.4804.3312-6.2796.8256-2.6448 1.9836-.6624 1.9836.6624 1.6512 3.8016z" fill="#4748a5" strokeWidth=".901"/><path id="path3872" d="m819.468 409.246-.9924 2.4768-2.6448 1.9824c-.4044-2.64.9552-4.026 3.6372-4.4592z" fill="#4748a5" strokeWidth=".901"/></g></g></g><g id="g3874" stroke="#000" strokeWidth=".901"><g id="g3876" strokeWidth=".901"><path id="path3878" d="m825.559 261.236 3.1932 2.9568 2.3676 1.5372 1.8924.7092 2.3664 1.302h4.9692l4.494-.474 2.2476-.828 4.3764-.1188 3.5496-1.656 2.6016-1.7736 2.6016-.1176 1.4232-1.4208h1.8912l3.7836-2.8392 5.3256-2.364 5.5596-2.0112 6.0348-1.1832 2.4828.1176.9456.7092 1.1844 2.0112.4716.9468-.5904 2.0112-2.2464 1.302-.474-1.4208 1.4184-1.1832-.354-.7092-2.2488-.3552h-1.5384l-1.4172 1.4196-.2376 3.1944 1.8924 1.6548 2.0112 1.302 1.7748.1188 2.13-1.2996 2.8392-2.4852 1.6548-2.8392-.474-4.14-.9456-2.604-2.8392-2.1288-3.5484-1.4208-6.1512.12-3.6672.9456-1.4208.474-3.9024 2.6016-1.7748.1188-3.9036 2.6016-1.5396.5904-1.7748.7092-2.7204 1.1844-5.2068 2.364-3.5472 2.13-1.7748.2376-4.1388 2.6016-5.916.474-1.0644-.5928-2.7216-.354-1.7748-.7116-1.7736-.9456-2.4828-2.9568-.7116-.474h-2.2476l-.7092.948z" fill="#dfda4d" stroke="none"/><path id="path3880" d="m894.408 251.299.7104 5.9148-1.3008 3.666 2.7216.1188h3.192l2.8392-.5928 2.7216-.2364 2.4852.1188 2.0112.2364 2.4828-.9456.1188-1.8924-.5916-1.656 1.182-3.6684-.474-.828z" fill="#d9d24d" stroke="none"/><path id="path3882" d="m922.444 257.804-.7092.474-1.0644-.474-.5928-1.6548 1.1832-1.0656 2.6016.1188 2.3664 2.1288v3.0756l-3.1944 1.5396-3.3108.828-3.6684-1.0656-2.2476-3.0756-.5916-2.1288.474-3.6684.5916-2.3664 3.1944-2.3664 3.4296-1.0644 4.0212-.5928 4.6164 1.1832 9.3432 3.5496 6.27 2.8392 6.9792 3.6684 4.1412 1.8924 5.442 2.6016 3.3132 1.1832 3.7848-.474 1.656.1188 3.312-1.0644 2.2476-.2376 4.968-5.7972 2.0112-1.1832-.2352 2.6016-3.3132 3.6684-2.838 3.1944-1.182.1188-1.5384 1.2996-2.9568-.1188-6.8616.3564-3.312-1.0644-5.2056-1.0656-6.1512-2.7204-4.8516-2.4852-2.3664-.3528-3.6684-1.8936-2.2464-.2364-1.3008-.9468-4.0236-1.182-3.3132-1.1844-3.192-.3552-2.4852-.354-1.182.7092-1.1832 1.656-.5904 2.2476.828 2.7216 1.4196.2376 1.302-.5904.4716-.9468z" fill="#d9d34a" stroke="none"/><g strokeWidth=".901"><path id="path3884" d="m852.564 388.192-1.5108 1.5072-2.3736-1.5072 1.0776-2.8044 3.8832-.648 2.1576 3.2352-.864 3.234-3.0204 3.018-3.6672 1.08-3.666.4296-4.3128-.2136-5.8248-1.2972-4.5276-5.3904-3.4512-6.9012-2.586-5.8224-3.0204-11.862-1.5108-4.9608-.6468-4.5288-3.234-6.2544 1.2924-1.0776 11.2152-9.9204h.648l2.3736-2.1576 4.0956-7.764.432-.4308 1.2936-4.7436-.216-8.1948-1.0776-3.882-2.5872-4.314s-.8628-1.5096 0-1.2936c.8616.216-2.3724-3.6672-2.3724-3.6672l-3.884-4.1v-.86l-2.802-2.8044-1.9416-1.0776h-1.5096l-.648-.864-2.8044-.8616-1.2924 1.2936-.8628 2.8044v1.0788l1.9392.8616.6468-.4308-.6468-1.08.216-1.2936 1.512-1.0776 1.7244 1.2912-.216 3.2352-1.2936 1.5108-3.234.2172-2.5884-1.2948-1.0776-2.1576-.8616-3.2328.8616-1.9416 1.2948-1.0776 2.1564.4308 3.45-.864 1.0776-.4308 2.8044.4308 1.9416 1.9416 2.1552 1.2936 5.3928 6.0396 1.5084 1.5084 2.8044 4.0992 3.4512 7.764.8616 5.3904-.4296 5.3928-2.8044 7.764-3.2352 4.9596-4.5276 5.6076-7.764 6.4716-1.0776.2148-1.7256 2.1576 3.0204 6.4692 4.7436 19.842 3.882 8.1948 5.6076 5.8224 4.3128 2.3736 5.6088.648 4.9596-1.296 2.1576-1.938-.864-1.2948z" fill="#ddd457"/><path id="path3886" d="m861.622 392.72-.6468 1.0764.8628 1.7268 2.1576.4308 1.5084-1.9416v-2.1588l-1.2948-2.37-1.7244-.4344-1.9404.2172-2.8044 1.9416-1.5108 1.7256-.8628 4.0968 2.1576 6.6876 3.4512 4.5276 8.6256 5.6076 9.2748 3.45 5.8212.8616 4.3152 4.3152 2.1564 5.1744-1.9404 3.2376-2.5884.2148v-1.2936l1.0776-.2172 1.2948-1.2936-.6468-1.2936-2.5872-1.5108-2.1564 1.7256-.2172 3.8832 1.9392 1.9416 2.8044.6444 2.1576-.8628 2.1552-2.3736.2184-2.8032-.8628-4.098-3.6684-5.1732-3.8796-1.9416-9.7056-3.4524-6.2544-2.37-4.53-3.2388-4.0968-4.3116-2.3724-6.252 1.0776-4.098 2.3736-1.7268 1.2936.4308-.432 1.2984z" fill="#dbd45d"/><path id="path3888" d="m939.906 392.934 1.7256 1.0788.2172 1.7244-1.9416.8628-2.5872-.4308v-2.586l1.5084-3.2352 4.3152-.2172 1.9404 2.3736 1.2948 4.5276-1.2948 4.746-4.9608 4.0968-6.9012 4.746-7.548 3.234-11.214 5.3904-3.2352 2.37-2.8044 5.1768 1.7268 3.0216 2.1564.4308v-1.0788l-.648-.8628.4308-2.3736 1.2948-1.2924 2.586 1.5108.6492 3.234-2.3736 2.3736-2.5884.4308-4.0968-1.9416-1.2948-2.1552-.2148-3.0228 1.7256-2.8032 3.45-3.4488 5.3928-3.0228 7.764-3.234 11.4288-5.6052 7.9788-8.628v-3.4488l-1.7256-2.1564z" fill="#e5dc5e"/><path id="path3890" d="m949.826 386.681v1.938h1.5096l1.5108-.2148.6468-2.586-1.2936-1.7244-1.7256-.2184-2.1576.4308-2.3712 1.7256-.216 3.4524 1.0764 2.37 2.1576 3.234 3.882 1.9416 3.8808 1.0788 5.8248-.4308 6.6852-3.234 6.2544-4.5288 2.5872-6.2556 3.234-11.43 4.0968-14.448 2.5884-5.3904 2.1564-1.9428-.6468-.8616h-1.9404l-4.9608-3.666-5.1744-3.2352-6.6864-7.9788-3.45-6.6864-1.0788-9.4884 1.9416-9.2748 4.0968-6.9012 6.6852-5.6076 6.0396-4.3128 6.0384-.2136.8604 2.3712-.8604 1.9416-1.2948-1.0788-1.9404-.216-.8616 3.2352 2.154 1.0776 3.882-.4308 1.08-2.5872-.4308-3.666-2.8044-2.5884-4.962.4308-3.666.4308-4.53 2.5884-4.7424 4.9596-3.234 4.7448-4.0992 6.6852-1.2936 6.0384.216 10.5684 5.3928 11.4288 4.7436 6.0396 9.2724 6.2532 1.5108 1.0788-2.8032 6.2544-4.098 13.1556-2.5872 10.5672-2.1564 4.5288-6.9012 6.0384-7.7652 3.018-6.684-.2136-3.2352-2.3736-.864-2.1564-.216-3.234z" fill="#d7d643"/></g></g><g id="g3892" fill="#5db7d2" strokeWidth=".901"><g strokeWidth=".901"><path id="path3894" d="m890.873 284.615-.33 3.3048.9912 7.2732 3.636 19.9992h1.8192l.1644-3.1392z" fill="#44b3cc"/><path id="path3896" d="m900.127 313.706-6.6108-28.926 4.9572 29.4216z" fill="#50aece"/><path id="path3898" d="m901.285 313.375 2.3136-.8256-8.5956-27.7692z" fill="#50afce"/><path id="path3900" d="m897.484 283.127 10.0824 28.926-1.9836.66z" fill="#50abce"/><path id="path3902" d="m909.054 311.39-9.7524-29.2548 12.3972 28.926z" fill="#50b0ce"/><path id="path3904" d="m912.69 309.904-11.5704-27.9348 14.3796 28.266z" fill="#50b3ce"/></g><path id="path3906" d="m822.091 258.767-1.56.2388-1.9176 1.56-.84 2.0388.1212 3.7176 1.3188 2.2776 2.2788 2.4 1.0788 1.7988-.6 3.2364-3.2364 2.0388-3.4776 2.5188-1.32 2.0388-.48 2.2776.1212 2.3988.4788.5988 2.6388-.1212 1.5588-.4776 2.3976-.24 2.2776.36 3.4776 2.3988 4.9176 4.4376 2.1564 2.5188-1.5576-3.7188-.8388-4.4376-.6-4.4364.7212-2.6376 1.1988-1.68 1.3188.7212 1.0788-.6 1.44.72 1.2-.72 1.9176.6 2.3964-1.2 3.5988-2.7576h2.5176l.7212.5988 1.4376-.5988.84 1.2 2.9988-2.28 2.3976-1.1988 2.3976.9588 3.1188.72 1.2-1.0788 2.5176-.1212 3.4764-.4788 1.68 1.1988 1.6764 4.0764 1.2 1.3212 1.8.3576.9588.48 1.6776 4.1976 1.2 3.3576.6 4.0764-.2412 1.0788 1.0788-.1188 1.68 1.6764 1.4388.7212 1.1988 1.3188.3576 2.1576.9612-.1188.84-1.0788 1.6788.36 1.4388 1.5576 1.4376.1212-2.52-16.6692-2.3976-1.3188-.12-3.8364 5.6364-2.04.12-1.4376-.8388-2.4-1.0788-2.1576-2.1588.2388 1.6776-5.3952 4.1976 4.3164-1.9188.2412 1.6764 6.594 7.1976-1.1988 1.3188 1.8-.48 1.5576.6012 1.0788.3576 1.92 2.16 2.7564 5.6364 12.2304 5.3952 11.0328 2.3988-2.5176 2.5188-.5988 2.7588-1.92 1.6776-.6 1.1988-1.5576 3.1188-.1212 4.6752 4.1976.7212-1.0788 4.4352-.2412 1.4388 2.8776.2412 1.2 1.7988-.72 4.9164 1.0776 2.9976 2.4 2.2764.9576.6012 1.2012 1.3188-1.56.96.1212 1.56.36 4.9152-.36 2.52-5.0376s2.2764-4.6752 3.3588-5.8752c1.0776-1.1988 5.5152-5.9952 5.5152-5.9952l5.3952-3.5988 4.0764-2.2776 3.8376-.48 3.5988-.12-.12-3.2376-1.4388-3.1176-3.5988-4.6752-.72-3.7176v-2.28l3.1188-2.0388 3.7176-2.9976.1212-3.1188-1.0788-3.8376-2.16-3.2364-.72-.6-1.2-.2388-1.6776 1.0776-3.3576 4.6764-3.7176 3.7188-4.5564 2.7588-5.2764.5988-8.3928-1.3188-5.8752-1.8-7.3164-2.7576-7.6752-3.5976-4.1964-.8412-6.3564-3.1164-2.3976-.1212-.1212 1.08 1.9176 1.9176-.4776 3.3588-1.6788 1.7976-3.1176.1212s.36.2412-1.4388.72c-1.8.48-3.3576 0-3.3576 0l-2.9976-1.7988-2.8788-.48h-5.7552l-6.3552.6012-7.1964.5988-3.5964 3.1188-3.1188.48-3.3576-.84-3.4764-4.0764.12-2.2776 2.5176-3.1188-1.3188-.12-7.9152 2.8788-4.9176 2.7564-2.6364 1.68-1.9188-.1212-2.52 2.2788-3.1176.24-1.8 1.9176-.5988-.2388-5.0352 1.3188-4.5576.8388s-5.7564.84-6.3552.84c-.6012 0-6.1152-.72-6.1152-.72l-4.0788-2.0388-1.9176-2.1576-1.8-1.2-2.3976-2.5164.1212-1.92z" fill="#64b4d1" stroke="none"/><path id="path3908" d="m893.774 318.595-.1704 3.7428 2.7228-.678-.3408-3.5736z" strokeWidth=".901"/><path id="path3910" d="m897.348 317.575v3.0624h1.1916v-3.2328z" strokeWidth=".901"/><path id="path3912" d="m900.071 316.895v3.4032l1.7004-.5112-.1704-3.0624z" strokeWidth=".901"/><path id="path3914" d="m903.643 316.213.1716 2.5524h1.5288l.1716-3.0624z" strokeWidth=".901"/><path id="path3916" d="m907.046 315.533v2.724h2.3808l-.3396-3.0648z" strokeWidth=".901"/><path id="path3918" d="m910.788 314.683v2.5524l2.0424-.5112-.51-2.7228z" strokeWidth=".901"/></g><g id="g3920" fill="#ccc" strokeWidth=".901"><path id="path3922" d="m973.633 345.67v2.6904l.6276.3588.18.8952 2.7756.4488-.27-.8964-1.7928-1.7028-.4476-1.2552z" fill="#fffcfc"/><path id="path3924" d="m916.933 309.892-.4596-.9156 1.5264-1.6764 2.8932-.6072 2.286-1.83 2.8956-1.8288 3.048-.762 3.9636 3.3516-1.3716 1.0704-1.374-.1536-2.5896 1.6752-1.98 1.2204-1.6764-.3048-1.5252-.4572-.9132.762h-1.374l-1.068.6096z"/><path id="path3926" d="m935.527 305.623 1.5228-.6072h2.286l1.2204 3.3516v1.068l1.98-.6096h3.6588l2.5896 1.2192 2.286 2.286 2.4384 1.3728h1.98v-1.068h1.9812l.4584.6108 2.1324.3036 1.5252-.456.4572 1.3716-.3048 1.8276-.4584 1.374.6096 5.7888 2.7444 9.9072 5.1816 8.3832-1.98-.9156-4.4208-.6096-1.3728.6096-1.8276-.1524-2.1336 1.9812-1.068.1512-.9132.7632-1.6764-2.286-6.4008-8.5344-1.6764-1.8288-3.6576-7.9236-5.0292-10.8228-.306-4.4208-1.218-1.2192-.6096-.1524v-.7632h.001z"/><path id="path3928" d="m933.697 364.607 2.592 1.2192-.1524-1.2192 1.8288 1.2192s1.6752.306 2.5896.1524c.9132-.1524 2.8956-2.1324 2.8956-2.1324l.6096-4.1148 3.9636-6.8592 2.8932-1.6764.918-.1524 2.7408-3.0492 5.1816-2.742 2.4384-.9156 3.9636.762 2.8956 1.3728.6096 2.4384.4584 6.5532 1.8276 1.374 1.5252-.7644 1.3716-1.6752 3.3516-1.2216 2.4396.3036-.1536 3.0504-1.0656 5.6388-1.6764 5.9436-2.7432 9.4476-2.5896 6.708-6.402 4.878-5.0292 3.198h-8.0784l-2.4372-2.2848 3.048-.7644 1.0668-1.8252.3048-3.2016-2.742-1.9812-2.7432.1524-3.6576 2.1348-1.374 1.8252-.762 2.136h-1.3704l-3.0504-.1536-2.286 1.5252-1.6752 2.1312-.4584 3.2016.7644 2.2872 1.6752 1.0668 3.048-.1536.7632-.6072h.6096l-2.7444 3.0444-3.504 3.66-4.5732 3.048-3.048.9132-5.0292 1.83-3.6576 1.6764-4.116.1524-4.2672 3.8088-2.8956 2.2884-1.9812 2.742-.9144 4.7256v3.5028l2.2836 3.048-.3036.9168-1.3716-.156-.7632-.6072h-3.3516l-.9156-1.3728-1.6764.306-2.4372.7608-1.068 1.0692-1.8288-.9168 1.068-2.742.1524-2.5896-.762-3.5076-2.286-4.5732-1.98-2.1312-3.5076-2.1348-6.7056-1.9824-7.314-2.7384-5.334-2.5944-1.9812-3.048-.7632-3.8088 1.2204 1.2192-1.068-4.2672 1.524 1.9788 1.0692.1524 3.048 3.8124 2.4384.4584.6096.3024h.7608l.1524-.3024 2.286 1.2192 2.592.7608h3.6564l-3.1992-.7608-3.9636-1.8288-4.1148-2.2884-2.286-3.0444-.306-1.3728-1.2192-.1524.1536-.9168.9144-1.0668 1.2192.1536.306.9132 1.2192-.4584 1.98 1.5264 3.354.3024 2.4372.306-2.1312-1.2192-3.354-1.8288-3.3528-3.0492-1.068-.1524-3.354-5.1792-1.8276-5.0304-1.524-5.3328v-6.2508l1.98-5.0268 2.8956-4.5732 1.6764-1.5252 1.3716.4572 3.5052-2.5896 2.4384-.762 3.2016.15 2.4384.7632 3.5052 1.068 1.6752 2.1324 1.6764.1536.456 1.2192-.9132.3048 1.2192 1.6764-.4572 1.0668 1.068 1.3716-.1524 1.98-1.98 2.2872 1.3704 2.2848-.1536.7644 1.6764 1.8288 1.5252 2.2836 2.5908.4584 6.096.1536 4.4184-.4584 2.592-.1536-1.068-1.2192 1.8288-.4584 2.286-.4584 4.1148-3.1968s3.2016-5.4888 3.8112-6.2508c.6096-.7608 1.8276-3.3528 1.8276-3.3528l5.1816-5.334 1.98-.762 4.5732-2.2848h4.7256l1.2216 1.3728 1.98.3048 1.8288 2.2848.9132 6.2496-2.8956 1.98h-2.436l-1.6764-1.0668-.4584.9144z"/><path id="path3930" d="m859.741 387.068s.3588-.7164.7188-.7164c.3588 0 1.1652-.0876 1.1652-.0876l.0888-4.662s-.6264-.3564-.7176-.7164c-.0888-.3564-.0888-2.0604-.0888-2.0604l-.6264-.6276-.09-18.8184-1.7928-4.8384-1.5228-2.598-1.254-.9864-1.9728-.1776-2.2404 1.434-1.344.7164-2.868-.6252-1.074-.7188-1.7052-.0876-1.5228-2.778-3.1356-.9864-1.4328-.4476-4.3008-.3588-1.254-.09-1.6152 1.0764-1.8816 2.2404-1.3428 2.5968-.1788 4.2132.9852 1.344v1.9704l.4488.8064v1.7028l-1.434-1.7028-1.434-3.4944-.7164-2.1504-.6276.8964.1788 2.868.0888 2.328.8076 2.1528.8064 3.0444 1.344 3.8532 1.0752 4.1244.9864 3.9408 1.8816 3.5844 1.6128 2.2404 3.6744 3.6732 2.3292 1.6128 3.5844 1.2564 4.032-.0876 1.2528-.9-1.6128-1.5216s-.2676-.984-.2676-1.344.5364-2.1516.5364-2.1516l1.7028-1.7928 4.9284-.8952 1.7028 1.2552 2.2404 2.5092z"/><path id="path3932" d="m913.682 313.831v2.5524l1.53-.3408-.3384-2.2116z"/><path id="path3934" d="m916.234 313.151v2.0412h1.0224v-2.2116z"/><path id="path3936" d="m918.448 312.98.1692 1.8708 1.7016-.3384-.1704-2.2128z"/><path id="path3938" d="m921.848 311.62v2.5536h1.0224l.3396-2.5536z"/><path id="path3940" d="m924.743 311.11v2.2128l1.3608.1704-.3408-2.382h-1.02v-.001z"/><path id="path3942" d="m927.466 310.429v2.5512l1.3608.1704v-2.2116z"/><path id="path3944" d="m930.187 309.577-.5112 2.892h1.5324l-.1716-2.2116z"/><path id="path3946" d="m932.228 309.577v2.3832l2.2128-1.0224-.342-2.5536z"/></g><path id="path3948" d="m890.046 266.598-1.488 4.4628 5.1252-.8268z" fill="#76401b" stroke="none"/><g strokeWidth=".901"><g id="g3950" fill="#784421"><path id="path3952" d="m932.194 351.556-4.7916 1.3248-3.306 2.6448-4.2984 4.4616-3.4716 6.282-3.966 4.794-7.2744 2.9736-6.612.1668-5.124-1.4856-1.818-2.8128-.4956-3.6348-.6612-4.464-1.488-2.8092-2.3136-2.8116-2.6448-1.818 2.8116-11.9016.8256-2.6448v-3.4716l.4956-4.626 2.4792-4.1328 2.4792-2.3136 4.2972-1.9836 7.602-1.9824 7.6044-2.4792 7.9344-1.818 8.9256-2.1492 3.8016-.33-.33 4.9584.9924 1.8192-.1668 12.8916-.8256 11.406z"/><path id="path3954" d="m934.014 351.391 4.6272.9924 3.636 2.1492 1.4868 2.148 1.9836-1.6524.8256-2.8116 3.4716-1.9812 5.2908-4.6284-4.4652-6.7776-2.3148-3.306-3.1404-3.6348-3.8016-6.942-4.2972-9.4224h-2.3148l-.33 18.6768.1668 6.7764z"/><path id="path3956" d="m886.904 279.325.1668 3.4716 14.2152-4.4628v-1.3224z" fill="#a05a2c"/></g><g id="g3958" fill="none"><path id="path3960" d="m846.526 359.353.6396 3.21 2.1408 3.852 4.0632 3.528-3.4224-2.46 2.5668 3.4236-4.3836-2.7804 4.2768 2.7804-4.4928-6.4188z"/><path id="path3962" d="m841.285 373.577-1.6044 1.7112-2.7816-.4272.1068 3.5304 3.8496 5.67-3.8496-5.3472.108-3.6348 2.6748.21z"/><path id="path3964" d="m836.686 383.419-.856-2.461v-2.7792l.8556 5.2404z"/></g><g id="g3966" fill="#666"><g strokeWidth=".901"><path id="path3968" d="m887.275 369.728-1.2828 1.2816-2.1384.5364s-2.1384-.2136-2.5668-.5364c-.4272-.3192-2.7816-1.71-2.7816-1.71l2.7816 1.4964h4.9188z"/><path id="path3970" d="m890.698 374.756.534 3.102 2.1384 3.7404 1.3896 1.8204z"/><path id="path3972" d="m898.078 383.525-2.034-.6384-1.818-1.7148-2.5668-4.596 2.6736 3.4224z" fill="#808080"/></g><path id="path3974" d="m880.217 371.011.3216 9.0912.8556 3.5304 1.2804 2.5668 1.7136 2.6748.4272-1.0692 1.818 1.2828.5364-.5364-1.8204-1.8168-1.818-2.4612-1.0716-2.5668-1.1748-4.3848-.4272-4.7052h1.4952l-.4272-.8556z" strokeWidth=".27"/><path id="path3976" d="m920.644 385.344 3.4224-.3204 3.21-2.6748.534-1.8204 1.4964-1.0704-.2136 3.1032.7476 1.6056 2.0316.642 1.2828 1.1748 2.2476.2148 3.2076-2.0304 2.3532-2.4612 2.0328-1.8192 1.4964-.642.5352-2.994h.9624l.2136-1.392-.4272-2.6712-.9624-2.568-1.2828-1.7112-2.1396-1.9248-.9612.4284 2.352 2.2452 1.9248 2.46.1068 3.8496-.534 1.4976-2.8884 3.3168-3.7428 4.0632-1.818.8556-3.8496-.5328-1.392-1.8192-.3204-1.2828-.4284-1.2828v-1.4976l.5352-1.0692-3.9564 4.4904-1.6044.1056z" fill="#808080" strokeWidth=".27"/><path id="path3978" d="m972.088 357.323.8556-.7488.9624 1.392.216 3.8484.1056.108v2.5668l-1.4952 2.7816-3.21 3.4224-3.7428 1.602-3.4236.4272-2.3532-.5316-.8556-1.392-.534-1.3896v-3.2076l.642-1.284.2136.6408-.1068 3.5304 1.1748 1.3908 2.46.7464 2.2452-.7464 2.6748-.75 2.2452-1.2828.108-.7488-.8556-.1068.2136-.3204h1.2828l1.6044-3.21.534-2.6748v-2.1384l-.6396-.6408-.3228-.534v-.75h.001z" fill="#808080" strokeWidth=".451"/><path id="path3980" d="m887.381 406.842-5.3484 2.5668-4.9188 1.4964-2.6748-.4272 5.2392 1.9248 2.034-1.6032 3.2076-1.6056z" strokeWidth=".901"/><path id="path3982" d="m891.553 417.643 2.8872.8556 1.3896.5364 2.9952.4272-2.2464 1.3884 2.886.6408s-2.778.3228-3.2064.3228-1.926.9612-1.926.9612-.3204 1.7148.642 1.6056c.9648-.108 2.352-.3228 2.8872-.3228s2.2464.3228 2.2464.3228l1.0704.8556-.642.9648-4.4928.1056.6432.5364h3.636l-3.528 2.352 4.2756-.1092 3.4224 1.392v.8556l-3.3144.75-.7488-1.2864-4.278 1.1772-.8556 1.0704-1.6044-1.0704 1.2828-2.7792-.1068-2.8884-.642-2.2476-1.4964-3.3132z" fill="#999" strokeWidth=".36"/></g><g id="g3984" fill="#e2d67e"><path id="path3986" d="m868.889 274.852-3.4452.4164-2.436.2976-1.6044.9516-1.3068-.774-.7728.4752-2.9112-1.5444-3.3876 1.8432-1.6044 1.4244h-1.008l-.774-1.0092-1.5444 1.0716-.8916-.8928-.9504-.534-6.4164 4.6344-2.3172-.7728-1.0104.8916-.4176.3564-.2352 1.0092-.9528-2.4972-.8304.594-1.4256-.4752-1.0104 1.4268-.2376 3.7428.594 4.6932 1.5468 5.1696 1.4244 2.1384 1.188.2376.3576-1.4856.654 2.7924.9504.9492.2976 5.0508 3.8616 8.6748.3564 4.4556.1776 7.7232-1.4256 1.7256-1.8408 2.7924.0588.8292-1.9008 3.6252.1176 5.526.4176.4752.12 5.2872 1.4844.1188 1.188 1.3068 2.6148-.2364v-1.6044l.3564 1.8408 2.0784 2.7348 1.7832 1.4244 1.2456.06.654-.9504-.06-5.9412.4164 6.5352 1.3068-.06 1.6656-1.4844 2.1984-.2976.7128.06s.594.3564.8916.8904c.2964.534 1.3668 1.0116 1.3668 1.0116l.7728 1.6044.9504.3564.4752-1.0116-.6528-12.6552-.654-10.3368-.7128-13.1292-.714-16.7568-.1188-5.346-.8316-.7128.06-1.7232 2.0208-.594 1.1868-.3564-.5352-1.6032-.5928-5.3472v-2.0196l.714-.594 1.4256-.0588 1.0104 1.188 1.9608 8.1384 1.0104.3564 3.564-.06 8.0808 12.7752 2.8512 4.278 3.9216 7.3068 5.1108 7.308 1.6044 2.1384 1.0692.1212.3564-7.7844 2.2596-1.9608-1.902-13.4268-1.5444-.2964-2.1384-1.9608-1.188.1776-1.188 1.9608-1.4844-1.6632-.18-1.902-1.3668-.8892h-1.008l-1.3092-1.782-.7116-.18-.8316.7728-.1788-6.0588-1.3068-2.8512-.2376-1.7232-2.436-3.4464-2.5536-.594s-1.128-2.556-1.128-2.9124-.4776-1.6044-.4776-1.6044l-1.7904-1.8456z" fill="#e4cb5e" strokeWidth=".451"/><g strokeWidth=".901"><path id="path3988" d="m871.027 356.128-1.722-2.1972-.594-2.3172-.2376-4.9908-.534-4.7544-.9516-7.3668-1.5444-9.09-1.2468-7.3668-.4764-4.3368-1.0092-5.1108-.4164-3.5052-.4164-2.9112-.3564-4.158 1.188 3.7428 1.962 8.7336 2.196 6.06.8916 4.0992v2.3172l1.5456 3.3252 1.0104 4.2204 2.0784 8.9112 2.1984 7.3092 1.128 5.286.1776 2.0208-2.3172.774-1.128.5328z" fill="#dcc56a"/><path id="path3990" d="m882.613 354.348 1.2492-6.0012 1.4856-4.5744.6528-3.09.4752-2.4948-.12-3.7428-1.0092-2.1984-4.6332-9.3276-2.7936-5.6436-1.1292-2.9124-2.0784-3.6252-2.7924-5.8224-2.496-4.3356-2.0784-3.5652-1.9608-2.616-.5928.5364 1.7808 6.654 1.4844 5.7024 1.4268 6.2976 2.376 8.2584 1.3668 5.7048 1.3668 3.5052 1.3068 4.9308 3.624 11.7648.714 3.0888 1.7832 3.5664z" fill="#e2cc75"/><path id="path3992" d="m863.999 357.562-1.8732 1.8708.1704.6816h2.2116l.6828-1.5324z" fill="#ddd690"/><path id="path3994" d="m861.785 355.008.3408 2.0424 1.5312-.1704.8496-1.53-.1692-1.1916-1.5312.3408z" fill="#ddd690"/><path id="path3996" d="m865.528 354.158.5112 1.3608h2.8932v-1.02l-1.1904-.5112z" fill="#ddd690"/><path id="path3998" d="m865.19 351.607.168 1.53h2.0436l1.02-1.3632-1.1904-1.02z" fill="#ddd690"/><path id="path4000" d="m861.104 352.116-.3408 1.0224 1.0224.51 2.214-.51v-.852z" fill="#ddd690"/><path id="path4002" d="m861.104 349.564v1.1916l2.2128.1704.6816-1.0212-.852-.6804z" fill="#ddd690"/><path id="path4004" d="m865.528 348.544-.3372 1.02 2.04.5112 1.02-.8508-1.5288-1.0224z" fill="#ddd690"/><path id="path4006" d="m861.276 345.821-.3408 1.5312 1.3608.1704 1.1916-.8508.1704-1.1892-1.362-.1728z" fill="#ddd690"/><path id="path4008" d="m865.019 345.14v1.53l2.2128.5088v-2.2116l-1.0212-.3384z" fill="#ddd690"/><path id="path4010" d="m862.976 342.587h-2.0412l-.1728 2.3808 2.3832-1.02z" fill="#ddd690"/><path id="path4012" d="m864.677 341.906-.8496 1.7016h2.382l1.0212-2.2104-1.362-.3408z" fill="#ddd690"/><path id="path4014" d="m864.167 339.014.1728 1.362 2.2128-.3408-.8532-1.7004z" fill="#ddd690"/><path id="path4016" d="m861.955 339.526-1.53-.3408.1716 1.8732 2.2116-.3396z" fill="#ddd690"/><path id="path4018" d="m860.425 336.462-.1704 1.7028h2.7228l-.5112-1.7028z" fill="#ddd690"/><path id="path4020" d="m863.658 335.611v2.0424h2.5524l-.5124-2.0424z" fill="#ddd690"/><path id="path4022" d="m862.296 334.08-1.7004 2.04-.6816-1.7004 1.1904-2.0424z" fill="#ddd690"/><path id="path4024" d="m863.827 332.548-.3396 1.7028h2.2104v-1.7028l-.8484-.51z" fill="#ddd690"/><path id="path4026" d="m861.104 330.508h-1.1904l-.1704 1.362h2.0412z" fill="#ddd690"/><path id="path4028" d="m863.488 329.996-.3408 1.5312h1.7028v-1.5312z"/><path id="path4030" d="m862.976 326.933-.3396 1.53h2.3808l.1728-1.3596z"/><path id="path4032" d="m860.255 327.614-.3408 2.2116 2.0412-.8484v-1.1916z"/><path id="path4034" d="m860.084 324.552-.6804 1.3608 1.0212.5112.852-1.1916-.3408-1.02z"/><path id="path4036" d="m862.894 323.405-.5376 1.128.882 1.5204 1.2264-.2952.0516-1.7172-1.3764-.6876z"/><path id="path4038" d="m860 321.684-.444 1.2276.8844.7848s.7344-.2928.7344-.5412c0-.2436.246-1.0296.246-1.0296l-.9804-.5892z"/><path id="path4040" d="m862.356 321.047-.2952 1.3752.6876.4416 1.2264.0984s.0492-.9336.0492-1.2768c0-.342-.8844-.7356-.8844-.7356z"/><path id="path4042" d="m859.754 319.181-.0996 1.374 1.032.246s.54-.5376.54-.7344c0-.1956-.492-1.08-.492-1.08z"/><path id="path4044" d="m862.061 318.788-.1968 1.1292s.3936.5388.8844.5388c.4896 0 .6864-.4896.6864-.6852 0-.198-.1968-1.032-.1968-1.032z"/><path id="path4046" d="m859.655 317.267-.342 1.1304.9804.4404.7368-.9816-.786-.5376z"/><path id="path4048" d="m861.962 316.58-.1464 1.0296s.6852.4908.9324.3432c.246-.1464.5388-.7836.5388-.7836l-.8844-.5892z"/><path id="path4050" d="m858.968 314.371-.2448 1.2756s.7344.6876.9312.5904c.198-.0996 1.2276-.3936 1.2276-.3936l-.54-1.2756s-.6372-.1476-.8328-.1476c-.1968 0-.5904 0-.5412-.0492z"/><path id="path4052" d="m861.521 313.733-.2928 1.2264 1.6668.2952s.246-1.3752-.096-1.3752c-.3468.001-1.1808-.0972-1.278-.1464z"/><path id="path4054" d="m859.116 312.065-.294.7368.8328.6372.6876-.3912-.4428-.9336z"/><path id="path4056" d="m861.618 311.574-.636.9828 1.0296.4392.882-.6852z"/><path id="path4058" d="m859.165 309.415-.4416.7368.4908.7836.786-.6384z"/><path id="path4060" d="m860.932 308.924-.3924.54.5892.7836.9804-.5388.0984-.4416-.4416-.54z"/><path id="path4062" d="m858.919 307.402-.4416 1.0296.9804.54.5424-.6852-.3456-.786z"/><path id="path4064" d="m860.784 306.42-.54.6888.7368.7356.9312-.5412-.636-.7848z"/><path id="path4066" d="m858.919 305.683h-.3924v.834l1.128-.0984-.1968-.834z"/><path id="path4068" d="m860.441 304.702-.0492.9324 1.0296-.1476-.0492-.8328z"/><path id="path4070" d="m858.674 303.967-.342.4896.5868.786.5904-.5412s.1956-.7344 0-.7344z"/><path id="path4072" d="m858.772 302.347-.4392.3924.5376.5388.6864-.342z"/><path id="path4074" d="m858.919 301.121-.54.7836h.9336z"/><path id="path4076" d="m860.146 301.561.0984.786h.786z"/><path id="path4078" d="m860.195 302.838s-.1944 1.0296 0 1.0296c.1968 0 .7368-.1476.7368-.1476z"/><path id="path4080" d="m886.307 326.544-1.0776 1.4724.0972 1.5228 1.4244 1.3248 1.3248-1.866z" fill="#d3c55f"/><path id="path4082" d="m888.222 324.432-1.3248 1.9164 1.2756 2.0124 1.3248-.8328s.1968-1.6716-.0492-1.9668c-.246-.2928-1.2756-1.1784-1.2264-1.1292z" fill="#d3c75f"/><path id="path4084" d="m885.767 321.733s-.588.8832-.588 1.0812c0 .1956.3444 1.6176.3444 1.6176l.834 1.0812s.93-.2952 1.0284-.5904c.0984-.2916.4428-1.4232.4428-1.4232l-1.128-1.4736z"/><path id="path4086" d="m883.706 323.844-.246.4896s-.1452 1.1796.1476 1.3752c.294.1968 1.1772 1.1304 1.1772 1.1304s.7836-.4908.7836-.7368-.588-1.7688-.588-1.7688l-.6852-.6852z" fill="#d3c95f"/><path id="path4088" d="m881.693 320.458-.3912.9312.4896 1.2768.9336.9324s1.0296-.1944 1.0296-.3936v-1.374l-.6396-1.0788-1.0788-.4896z"/><path id="path4090" d="m883.902 319.574-.2448.7356s.0984 1.032.294 1.128c.1968.0984.9816.492.9816.492l.6852-1.1292-.6852-1.4232z"/><path id="path4092" d="m882.824 317.22-.492 1.0788.2952.7836.6876.3444s.7836-.3924.7836-.5892v-1.0296l-.882-.5412z"/><path id="path4094" d="m880.565 318.004-.6372.834.246 1.032 1.0788.3432.7356-.8844-.5904-1.1772z"/><path id="path4096" d="m879.728 315.794-.5376.4908v.6384l.834.6396.7836-.3936-.1956-.8844-.3912-.5892z"/><path id="path4098" d="m881.89 315.157-.3444.7848.4908 1.0308.7872-.4416-.15-.8844z"/><path id="path4100" d="m880.417 313.048-.1944 1.7664 1.2252-.1968.2952-.9312-.4404-.6888z"/><path id="path4102" d="m879.14 313.439c-.1956.048-.882.0984-.882.0984l.1968 1.7652.7836-.096.2952-.6384-.0984-.7848z"/><path id="path4104" d="m877.669 311.672-.588.7368.588.9804.54-.0984.342-.7344z"/><path id="path4106" d="m879.581 311.179-.4896.5412.3936.5892.4908.0492.4896-.5904-.4404-.5376z"/><path id="path4108" d="m876.442 309.906-.3444.9312.9336.246.2436-.5892-.2928-.5412z"/><path id="path4110" d="m878.062 309.415-.0972 1.0788 1.0296-.0984-.0984-.882z"/><path id="path4112" d="m875.264 308.188.0492.9312h1.0296s.3444-1.0788-.0984-1.0296c-.4416.0492-.882.1452-.9804.0984z"/><path id="path4114" d="m877.228 307.745v.9324l1.0788-.1476-.2448-.8328z"/><path id="path4116" d="m875.803 306.764h-1.0788l.1476.9324.9804-.0984z"/><path id="path4118" d="m876.491 306.125-.1476.8844 1.1304-.0492v-.8352z"/><path id="path4120" d="m875.412 304.702-.0492 1.0308s1.2264.1956 1.2264 0c0-.1968-.246-.8832-.246-.8832z"/><path id="path4122" d="m874.724 304.8h-.9816l.0996 1.128h1.1772l.1464-.7836z"/><path id="path4124" d="m872.418 301.463-.492.4908 1.5228 2.4048h.9312l-.882-1.2264s.1464-.588-.0984-.6852c-.2436-.0984-.4404-.0984-.4404-.0984z"/><path id="path4126" d="m872.612 300.53-.342.4416 1.8168 1.2264v1.0296l.834.786.6852.1944-.2436-.8328-.3432-.9312-.6888-.5412-.4884-.882s-.246-.0492-.4428-.0984c-.1944-.0492-.3912-.3444-.3912-.3444z"/></g></g><g id="g4128" fill="none"><path id="path4130" d="m851.578 283.375-.1728 7.9956.5112 2.5524v4.4256l.1704 6.8064v4.5936l-3.9144-4.7664 4.0836 5.106.6804 4.9332 1.0224 1.8732-.6804 2.5524.1704 4.2528v12.0804l-3.9144-9.528.3408 19.7376.3408-11.3988 1.362-2.0436 2.2116 5.6172.3396 2.5524-.5112-9.5304" fill="#000"/><path id="path4132" d="m835.582 282.694-.6804 5.106 1.362 3.5712.1716 4.9356-.1716-5.4444-1.362-2.7228z"/><path id="path4134" d="m840.517 285.757v6.4656l1.1904 1.5312-.3384 6.8064 1.02 2.0412v11.2296"/><path id="path4136" d="m847.492 278.101-1.3608 2.5512.5112 4.5948.3396 3.2328-.51 5.1024"/><path id="path4138" d="m878.462 290.52-.1728 7.8276.8508 4.2528.6816 4.5936"/><path id="path4140" d="m885.776 301.921 1.5312 17.016"/><path id="path4142" d="m842.047 327.275.3408 9.8688.6804 4.2552.1704 4.5924"/></g><g id="g4144" fill="#d38d5f"><path id="path4146" d="m893.264 345.481v-1.7028l7.4868-1.7028-1.1916.852.1704 5.1048"/><path id="path4148" d="m913.682 341.226v-2.2128l7.4868-1.3608-1.7028.3408.3408 5.274"/><path id="path4150" d="m897.518 357.731v-1.7028l6.2964-1.1892-.1716 6.2952"/><path id="path4152" d="m912.491 355.35v-2.724l6.8052-1.1904.3408 5.9532"/><path id="path4154" d="m890.372 333.059v4.254l-1.5312.3408v-2.0424z"/><path id="path4156" d="m893.946 332.377.1692 4.2552h-1.1916l-.3396-3.744z"/><path id="path4158" d="m896.665 331.528-1.1892.6792v3.4032l1.7028-.3408z"/><path id="path4160" d="m899.9 330.337-1.1916 1.0212v3.0624l1.8708-.1704z"/><path id="path4162" d="m903.643 329.485-1.7028.6804v3.4032l1.8744-.3396z"/><path id="path4164" d="m907.217 328.464-1.5312.1716v4.254l1.8732-.3408z"/><path id="path4166" d="m911.81 327.614-1.7004.6792.1704 2.892 1.7004-.5088z"/><path id="path4168" d="m916.064 326.424-1.7004.8508v2.892h1.53z"/><path id="path4170" d="m919.468 325.402-1.362.6804v3.2328h1.7028z"/><path id="path4172" d="m923.21 325.063-1.362.8496v2.5512h1.8744z"/><path id="path4174" d="m927.295 323.7-1.5324.6816.1716 2.5512 1.5312-.3396z"/><path id="path4176" d="m931.718 322.679-1.7016.8508v2.7228l2.0436-.1704z"/></g></g><g id="g4178" strokeWidth="1.803"><path id="path4180" d="m891.564 368.79 26.3712-5.9544" fill="#fffcfc" strokeWidth="1.803"/><path id="path4182" d="m885.096 352.285 2.7252.3408 44.9184-10.2096" fill="#c87137" strokeWidth="1.803"/><path id="path4184" d="m887.65 340.717 6.9756-1.0236 38.7948-10.2084" fill="#c87137" strokeWidth="1.713"/><path id="path4186" d="m935.122 327.955 6.6348-1.1916" fill="none" strokeWidth="2.344"/><path id="path4188" d="m935.122 341.906 14.6328-3.912" fill="#fffcfc" strokeWidth="2.614"/></g></g><path id="path4190" d="m759.20703 136.41797v8.73633 253.97265l.0293.33399c.97542 11.79829 7.75339 21.7884 16.91015 30.4082 9.15677 8.6198 20.985 16.29363 34.15625 23.96289 26.34251 15.33852 58.17502 30.61235 83.6836 49.25781l4.58789 3.35352 4.71875-3.16406c33.80876-22.67615 67.43367-36.42411 93.95312-51.50586 13.25971-7.54088 24.83541-15.44617 33.56051-25.48828 8.7252-10.04212 14.3433-22.44596 15.1075-37.18164l.01-.19532.8711-251.86523h-279.1699l-8.41797-.625zm16.22461 16.84765h255.08396l-.8125 235.06446c-.5974 11.25127-4.3754 19.52361-11.1445 27.31445-6.7833 7.80714-16.8209 14.91027-29.33204 22.02539-23.90898 13.59716-56.52647 27.22657-90.26562 49.11914-26.25745-18.37198-56.45339-32.98024-80.49414-46.97851-12.721-7.40709-23.67378-14.66792-31.20118-21.75391-7.47686-7.03842-11.26794-13.4842-11.83398-19.80273z" text-indent="0" text-align="start" text-decoration-line="none" text-decoration-style="solid" text-decoration-color="#000000" text-transform="none" block-progression="tb" white-space="normal" isolation="auto" mix-blend-mode="normal" solid-color="#000000" solid-opacity="1"/></g><g transform="translate(-731.59)"><path id="rect5713-4" d="m256 16a240 240 0 0 0 -240 240h240z" fill="#2b4896"/><path id="rect5715-1" d="m104.78516 69.785156a240 240 0 0 0 -34.960941 35.039064l151.175781 151.17578h35v-35z" fill="#fff"/><path id="rect5748-0" d="m256 16a240 240 0 0 0 -38.17383 3.173828l-198.449217 198.449222a240 240 0 0 0 -3.376953 38.37695h35.001953l204.998047-204.998047z" fill="#fff"/><path id="rect5717-8" d="m92.363281 80.695312a240 240 0 0 0 -11.589843 11.746094l163.558592 163.558594h11.66797v-11.66797z" fill="#e32d3c"/><path id="rect5750-4" d="m256 16a240 240 0 0 0 -12.0957.427734l-227.289066 227.289066a240 240 0 0 0 -.615234 12.2832h11.667969l228.332031-228.332031z" fill="#e32d3c"/><path id="rect5725-4" d="m64.941406 111.25a240 240 0 0 0 -29.130859 49.5h220.189453v-49.5z" fill="#fff"/><path id="rect5735-6" d="m160.75 36.017578a240 240 0 0 0 -49.5 28.8125v191.169922h49.5z" fill="#fff"/><path id="rect5737-9" d="m144.25 43.765625a240 240 0 0 0 -16.5 9.464844v202.769531h16.5z" fill="#e32d3c"/><path id="rect5727-2" d="m53.466797 127.75a240 240 0 0 0 -9.685547 16.5h212.21875v-16.5z" fill="#e32d3c"/></g></g></svg>