<svg height="180" viewBox="0 0 180 180" width="180" xmlns="http://www.w3.org/2000/svg" xmlns:sketch="http://www.bohemiancoding.com/sketch/ns"><g id="Page-1" fill="none" fill-rule="evenodd"><g id="Material"><g id="Slice"/><g id="circle_cayman_islands"><circle id="Oval-15-copy-4" cx="90" cy="90" fill="#2b98f0" r="90"/><g id="UK"><g fill="#fff"><path id="Oval-15-copy-5" d="m22.034956 31c-7.7812533 8.9559217-13.82159657 19.4648712-17.59418132 31h89.55922532v-31z"/><path id="Oval-15-copy-5" d="m13.4345337 42.6717104c-3.2539454 5.2529104-5.98240557 10.8655595-8.11198119 16.7645478l67.82571059 33.5637418h20.8517369v-10.3187479z"/><path id="Oval-15-copy-5" d="m94.0000386.08730029c-1.3260986-.05799832-2.6596467-.08730029-4.0000386-.08730029-7.8009504 0-15.370091.99249479-22.5880377 2.85810017l-32.9810752 16.34101123c-11.0285314 8.6679558-19.9818157 19.8571686-25.99138421 32.6991697l85.56049711-41.5836228v-10.2273597z"/><path id="Oval-15-copy-5" d="m16 38.7607807c-10.08814617 14.5419105-16 32.2001708-16 51.2392193 0 1.0039293.01643764 2.0040194.04905846 3.0000158l15.95094154-.0000158z"/></g><path id="Oval-15-copy-5" d="m17.2529958 37c-4.262172 5.8401877-7.83813364 12.2130514-10.60929234 18.9999986l87.35629654.0000014v-19z" fill="#f1453d"/><path id="Oval-15-copy-5" d="m10.9999966 46.8485332c-7.01291363 12.8117538-10.9999966 27.5159934-10.9999966 43.1514668 0 1.0039293.01643764 2.0040194.04905846 3.0000158l10.95094154-.0000158v-46.1514729z" fill="#f1453d"/><path id="Oval-15-copy-5" d="m93.8389177.08039628c-1.2729817-.05341919-2.5527993-.08039628-3.8389177-.08039628-3.8254491 0-7.5951537.23867012-11.2950356.70193202l-53.2507563 26.57764568c-1.1738609 1.207808-2.3141147 2.4484519-3.4192521 3.7204223h9.8533216z" fill="#f1453d"/><path id="Oval-15-copy-5" d="m94 93-62-31h13.8636683l48.1363317 24.0681243z" fill="#f1453d"/></g><g id="Cayman_Islands" transform="translate(93 55)"><g id="motto" transform="translate(0 58.339)"><g id="motto1" fill="#fee94e" stroke="#000" strokeWidth=".1" transform="translate(1.974 .219)"><path id="Shape" d="m.53009922 16.3532428c.63062506 1.681702 5.15020887 3.8889368 10.40553838 1.0510637 3.5736188-1.9970221 5.8859655-4.8348908 8.0931916-9.88000102.6306229-1.26127645.9459344-2.83788407-.5255483-3.78383812-1.1561711-.84085096-3.0480814-1.78681159-3.8889368-2.62766475-.4204145-.42042548-.8408597-.73574569-1.1561711-1.0510659.2102083.21021494.4204167.42042768.630625.73574569 2.102134 2.52254413-.1051053 6.20128355-2.4174454 8.40850966-1.68169098 1.57659444-4.72979218 5.46552694-9.1442444 1.78680724-.94596282-.840851-3.15320209 2.6276647-1.99703092 5.3604282z"/><path id="Shape" d="m64.4343603 16.3532428c-.7357566 1.681702-5.2553295 3.8889368-10.4055384 1.0510637-3.5736188-1.9970221-5.8859655-4.8348908-8.1983122-9.88000102-.5255483-1.26127645-.8408598-2.83788407.6306228-3.78383812 1.1561712-.84085096 3.0481034-1.78681159 3.8889368-2.62766475.4204431-.42042548.7357545-.73574569 1.1561712-1.0510659-.2102083.21021494-.4204167.42042768-.630625.73574569-2.102134 2.52254413.1051052 6.20128355 2.3123467 8.40850966 1.6816866 1.57659444 4.8348909 5.46552694 9.249365 1.78680724.945976-.840851 3.0480815 2.6276647 1.9970287 5.3604282z"/><path id="Shape" d="m32.4825587 25.392564c8.4085097 0 21.3366141-3.7838382 28.2735666-17.02723867 1.1561734-2.20722611 0-3.36339948-1.3663707-4.09915614-1.4714914-.63063822-3.2583227-2.10212961-4.2042549-3.04808146 1.6816888 1.68170632 1.3663927 2.83788407.2102194 4.72979217-5.3604502 8.934047-12.7178852 13.4536198-22.9131384 13.4536198-10.195341 0-17.552776-4.5195728-22.9131384-13.4536198-1.15617118-1.89191906-1.47151113-3.04808147.10510308-4.72979217-.84085974.94595843-2.73278538 2.41744543-4.20427676 3.04808146-1.36637953.73574569-2.52254413 1.89191467-1.36637953 4.09915614 6.93701831 13.24342247 19.97022141 17.02723867 28.37884071 17.02723867z"/></g><g id="motto2" fill="#f1453d" stroke="#000" strokeWidth=".1"><path id="Shape" d="m15.0116554 7.84884595c-.2102128-1.0510637-1.5765967-.63063822-1.9970222.63063823-.5255307-.7357435-1.0510637-1.47148919-1.4714892-2.31234674-1.2612786-1.89191467-1.4714914-3.15320209.315318-4.94001149.8408532-.84085096 2.5225442-1.7868094 3.6787175-.7357435 2.4174455 1.99702215 1.1561712 5.25532951-.5255329 7.35745692z"/><path id="Shape" d="m53.7959687 7.84884595c.2102127-1.0510637 1.6817019-.63063822 2.1021274.63063823.5255285-.7357435 1.0510659-1.47148919 1.4714826-2.31234674 1.261294-1.89191467 1.4714914-3.15320209-.4204167-4.94001149-.7357457-.84085096-2.4174454-1.7868094-3.6787175-.7357435-2.3123467 1.99702215-1.1561712 5.25532951.5255329 7.35745692z"/><path id="Shape" d="m2.50398956 16.572564c-1.0510659-1.5765967-1.89191687-5.6757462-2.10212961-6.72682092-.31532021-.94595843-.42042549-1.7868094.73574569-2.20722611 1.15617117-.42042548 2.20722611 1.05106371 2.73276345 2.31234674.52553075 1.26127649 1.36638391 3.15320209 2.31234673 5.46552689-2.31234673-1.3663839-4.20425483-.4204277-3.67871749 1.156169z"/><path id="Shape" d="m66.4082507 16.572564c.945954-1.5765967 1.7868094-5.6757462 2.1021274-6.72682092.2102193-.94595843.4204167-1.7868094-.7357567-2.20722611-1.1561514-.42042548-2.2072261 1.05106371-2.7327634 2.31234674-.5255374 1.26127649-1.3663708 3.15320209-2.3123468 5.46552689 2.3123468-1.3663839 4.0991562-.4204277 3.6787395 1.156169z"/></g><g id="Group" fill="#00493d" transform="translate(7.018 5.264)"><path id="Shape" d="m1.58196345 1.84931593-.84085316.42042548c-.21021274.10510747-.21021274.31532021-.21021274.42042768h-.10510528l-.42042548-.94595844h.10510527c0 .10510528.10510747.21021274.31532021.10510528l1.7868094-.94595844c.21021274-.10510527.21021274-.21021274.10510528-.31531801l.10510746-.10510747.52553295 1.0510659h-.10510746c-.10510528-.10510747-.21021275-.21021274-.42042549-.10510747l-.73574569.42042549.31532021.63064041.84085097-.3153202c.21021274-.10510747.10510746-.31532021.10510746-.42042549h.10510528l.42042548.94595844c-.10510527-.10510747-.21021274-.21021275-.42042548-.10510747l-1.7868094.94595843c-.21021274.10510528-.21021274.21021274-.10510528.31531802l-.10510746.10510747-.52553295-.94595844.10510746-.10510527c.10510528.10510527.21021275.21021274.42042549.10510527l.84085096-.42042548z"/><path id="Shape" d="m3.36877285 3.21568668c.21021274-.10510527.21021274-.21021274.10510527-.42042548h.10510747l1.05106371 1.57659666-.7357457.52553295v-.10510747c.42042768-.31531801.42042768-.7357435.31532021-.84085096-.10510527-.10510747-.21021274-.21021275-.21021274-.31532021-.10510747 0-.10510747-.10510528-.31532021.10510746-.10510527.10510528-.7357435.52553295-.7357435.52553295.10510528.10510528.21021274.42042549.7357435.10510528h.10510747l-1.15617118.84085097v-.10510528c.52553295-.42042548.31532021-.73574569.21021275-.84085097l-.7357457.52553076c-.21021274.10510747-.21021274.21021274-.21021274.31532021.10510747 0 .10510747.10510528.21021274.21021274.10510747.21021274.42042768.42042549.94595844.21021274l.10510746.10510747-.84085315.31531802-1.05106371-1.68170194h.10510746c.10510528.10510528.21021275.21021275.42042549.10510528z"/><path id="Shape" d="m5.05030809 7.20974413-.73574349.63063822c-.10510747.10510527-.10510747.31531802 0 .42042548h-.10510747l-.73574569-.73574569.10510746-.10510527c.10510528.10510527.21021274.21021274.42042549 0l1.36638391-1.36638392c.21021274-.10510747.21021274-.21021274.10510747-.42042548l.7357435.84085096c-.10510528-.10510746-.31531802-.10510746-.42042548 0l-.63063823.63063823.52553295.52553295.63063823-.52553295c.21021274-.21021274.10510527-.31532021 0-.42042549l.10510527-.10510746.73574569.84085316h-.10510527c-.10510747 0-.21021494-.10510747-.42042768.10510527l-1.36638391 1.26127864c-.21021275.21021274-.21021275.31531802-.10510528.42042549v.10510527l-.73574569-.84085097c.10510747 0 .31532021.10510747.42042548 0l.73574569-.73574569z"/><path id="Shape" d="m6.94232804 9.73231018.42042548-.94595624s-.31531801.10510528-.84085096.42042549l.10510527.21021274-.10510527.10510527-.21021274-.21021274c-.10510747.10510747-.21021274.10510747-.31532021.21021274-.31531802.21021274-.21021274.31532021-.10510528.42042548v.10510748l-.52553295-.52553296h.10510747l.42042548-.10510527 2.10212742-1.15617118.10510747.10510528s-.10510747.10510746-1.05106371 2.20724803c0 .2102127-.10510747.315318 0 .5255308l-.84085316-.7357435.10510747-.1051075c.10510527.2102127.31531801.2102127.42042548 0 0-.1051053.10510527-.31532021.10510527-.42042548l-.31531801-.31532021.10510527-.10510528z"/><path id="Shape" d="m7.46788512 11.5191854.10510527-.1051075c.10510747.1051075.21021274.1051075.42042548 0l1.36638392-1.78680939-.10510527-.10510747c-.21021274-.10510527-.52553295-.10510527-.84085097.21021275v-.10510528l.42042548-.52553295 1.57659667 1.15617114-.52553296.6306383h-.10510747c.31532023-.3153181.21021494-.7357435 0-.840851v-.10510747l-1.36638172 1.78681157c-.21021493.1051053-.10510747.315318 0 .4204255h-.10510747z"/><path id="Shape" d="m10.2006266 11.939624-.52553292.7357435c-.10510747.2102128 0 .3153202.10510528.4204277l-.10510528.1051053-.84085096-.6306383v-.1051074c.21021274.1051074.31531801.1051074.42042548-.1051053l1.1561712-1.5765967c.1051052-.2102127 0-.3153202-.1051075-.4204254l.1051075-.1051075.8408509.6306382v.1051075c-.2102127-.1051075-.3153202-.1051075-.4204254.1051053l-.525533.7357457.6306382.4204254.525533-.7357435c.1051074-.2102149 0-.3153202-.1051075-.4204276l.1051075-.1051053.8408509.6306382v.1051075c-.1051052-.1051075-.315318-.1051075-.4204254.1051053l-1.0510637 1.6817041c-.2102128.1051053-.1051075.2102127 0 .315318v.1051075l-.94595848-.6306383h.10510747c.10510531 0 .21021271 0 .31531801-.1051074l.525533-.840851z"/><path id="Shape" d="m12.3028198 14.8824752.1051075-.1051075c.1051053.1051075.315318.1051075.4204255-.1051052l.840851-1.7868116c.1051074-.2102128 0-.3153181-.1051053-.4204255l1.7868094.8408531-.4204255.840851-.1051075-.1051075c.3153202-.4204254 0-.8408509-.1051052-.9459562-.1051075 0-.2102128-.1051075-.3153202-.1051075-.1051075 0-.1051075 0-.2102128.2102128-.1051075.1051074-.4204255.7357457-.4204255.7357457.1051053.1051052.315318.315318.7357457-.2102128h.1051053l-.6306382 1.2612765-.1051075-.1051053c.3153202-.6306404-.1051053-.7357457-.2102127-.7357457l-.4204255.840851c-.1051053.2102127 0 .3153202.1051074.3153202v.1051053z"/><path id="Shape" d="m15.3507258 16.3541201c-.3153202-.2102127-.3153202-.840851 0-1.4714892.2102128-.6306404.6306383-1.1561712 1.0510638-.9459584.3153202.1051053.2102127.7357457 0 1.3663839-.3153181.7357457-.7357457 1.1561712-1.0510638 1.0510637h-.1051074c.7357457.3153202 1.2612786-.1051053 1.5765966-.840851.3153202-.6306382.2102128-1.3663839-.4204254-1.6817041-.6306383-.315318-1.2612765.1051075-1.5765967.8408532-.315318.7357435-.2102127 1.4714892.4204255 1.6817019z"/><path id="Shape" d="m18.6091802 16.5642298.4204276-1.2612765c.1051053-.2102127 0-.3153202-.1051074-.4204255l.5255329.1051053v.1051075c-.1051075 0-.2102127 0-.3153202.2102127l-.4204255 1.2612765c-.2102127.5255329-.5255329.9459584-1.1561712.7357457-.4204254-.1051075-.7357456-.6306383-.5255329-1.1561712l.5255329-1.3663839c.1051075-.2102128 0-.3153181-.1051052-.4204255v-.1051075l.9459562.4204277v.1051053c-.1051053-.1051053-.315318-.1051053-.315318.1051074l-.525533 1.3663839c-.1051052.4204255-.1051052.840851.2102128.9459563.3153202.1051075.6306382-.1051053.840851-.6306382z"/><path id="Shape" d="m19.5551123 15.197859c0-.1051053 0-.1051053-.1051053-.1051053l.7357435.1051053.6306404 1.9970221.315318-1.2612764c.1051075-.2102127 0-.3153202-.1051052-.4204255l.6306382.1051053-.1051075.1051075c-.1051053 0-.2102127 0-.315318.2102127l-.525533 2.3123467h-.1051052l-.8408532-2.5225441-.5255307 1.6817019c0 .3153203.1051052.3153203.2102127.4204277v.1051053l-.6306404-.2102127v-.1051053c.1051074.1051053.3153202 0 .3153202-.210215l.5255329-1.8919146-.1051074-.3153202z"/><path id="Shape" d="m22.2878801 18.4562234s-.1421139.0680988-.2102127 0-.1051053-.1051075 0-.2102127l.3153202-2.1021297c.1051052-.1051052.1051052-.2102127.2102127-.1051052h.2102128c.2102127 0 .4204254.4204255.315318 1.2612764l.3153202.1051053c.2102127-1.0510637-.2102128-1.4714892-.7357457-1.5765967-.4204255-.1051052-1.0510637-.2102127-1.0510637-.2102127v.1051075c.1051053.1051052.3153202.1051052.2102127.4204254l-.3153202 1.8919169c-.1051053.2102128-.2102127.315318-.315318.315318h-.1051075l1.0510659.2102128c.5255308.1051074 1.0510637 0 1.2612765-1.1561712l-.3153202-.1051053c-.2102128.9459585-.6306383 1.1561712-.840851 1.1561712z"/><path id="Shape" d="m24.0746632 16.4591749c0-.2102127-.2102128-.3153202-.315318-.3153202v-.1051052l1.8919146.2102127-.1051052.840851c0-.525533-.3153202-.7357457-.525533-.7357457-.1051053-.1051053-.2102127-.1051053-.3153202-.1051053-.1051053 0-.1051053 0-.1051053.315318 0 .1051075-.1051074.840851-.1051074.840851.1051074 0 .4204276.1051074.6306404-.5255308l-.1051075 1.3663839h-.1051053c0-.6306382-.3153202-.6306382-.4204276-.6306382l-.1051053.9459562c0 .2102128 0 .2102128.1051053.2102128l.2102127.1051075c.3153202 0 .6306404-.1051075.8408532-.7357457h.1051052l-.2102127.8408531-1.9970221-.2102149c.2102127 0 .3153202-.1051053.4204254-.315318z"/><path id="Shape" d="m27.5432272 17.7204909c0 .9459584-.3153203 1.2612786-.6306383 1.2612786-.1051074-.1051075-.1051074-.1051075-.2102127-.1051075l-.1051075-.1051074.1051075-2.2072261c0-.1051053 0-.1051053.1051053-.1051053h.2102127c.2102127 0 .525533.315318.525533 1.2612764h.4204254c0-1.0510637-.5255329-1.3663839-1.0510637-1.3663839-.4204255-.1051053-1.0510659-.1051053-1.0510659-.1051053v.1051053c.1051075 0 .3153202.1051075.3153202.3153202l-.1051074 1.9970222c0 .2102127-.1051053.3153202-.2102128.3153202v.1051053h.9459585c.5255329 0 1.0510637-.2102128 1.1561711-1.366384h-.4204254z"/><path id="Shape" d="m30.5913525 18.5613681c0 .2102128.1051074.2102128.3153202.2102128v.1051075l-1.1561712.1051074c.1051075-.1051074.3153202-.2102149.3153202-.4204277l-.2102127-1.9970221c-.1051075-.2102127-.2102128-.2102127-.4204255-.2102127v-.1051053l1.156169-.1051075c-.1051053.1051075-.315318.2102128-.2102128.4204255z"/><path id="Shape" d="m31.6423394 18.7714778v-.1051053c.1051053 0 .2102128-.1051074.2102128-.3153202l-.4204255-2.2072261h-.1051075c-.2102127.1051075-.4204255.3153202-.315318.7357457h-.1051075l-.1051074-.7357457 1.8919168-.3153202.1051075.7357457h-.1051075c0-.4204255-.3153202-.5255308-.6306382-.5255308h-.1051075l.4204255 2.2072261c0 .2102128.1051075.3153181.3153202.3153181v.1051074z"/><path id="Shape" d="m36.1618903 16.6692846-.4204254-1.2612786c0-.2102128-.2102128-.2102128-.3153203-.2102128v-.1051053l.525533-.2102127v.1051053c-.1051075.1051074-.1051075.1051074-.1051075.3153202l.4204255 1.3663839c.1051075.4204255.1051075 1.0510637-.5255307 1.2612764-.4204277.1051075-.9459585-.1051052-1.0510659-.7357456l-.4204255-1.366384c-.1051053-.2102127-.2102128-.2102127-.315318-.2102127l-.1051075-.1051053 1.0510637-.3153202v.1051075c-.1051053.1051053-.2102127.2102127-.1051053.4204255l.315318 1.3663839c.1051075.4204255.4204277.6306382.7357457.6306382.3153202-.1051053.4204255-.5255329.3153202-1.0510637z"/><path id="Shape" d="m37.3181514 15.9336815c.5255308-.2102128.4204255-.525533.3153181-.840851-.1051053-.3153202-.3153181-.525533-.5255308-.4204255-.1051075 0-.2102149.1051053-.1051075.2102128l.3153202 1.0510637.1051053.1051074.2102128.840851c.1051074.2102127.3153202.2102127.4204254.1051053v.1051074l-.9459562.4204255-.1051075-.1051074c.2102128-.1051053.2102128-.2102128.2102128-.4204255l-.7357457-1.7868094c-.1051053-.315318-.2102128-.2102128-.4204255-.2102128v-.1051052l1.0510659-.4204255c.4204255-.1051075.840851 0 1.0510637.4204255.1051053.5255307-.1051075.8408509-.5255329 1.0510637-.1051053 0-.2102128.1051074-.2102128.1051074z"/><path id="Shape" d="m39.9458381 16.248846c-.3153202.1051052-.7357457-.3153203-1.0510637-1.0510659-.3153202-.6306383-.3153202-1.2612765 0-1.366384.315318-.1051052.7357435.3153202 1.0510637.9459585.3153202.6306382.3153202 1.2612786 0 1.4714914.6306382-.2102128.840851-.9459585.525533-1.6817042-.3153202-.6306382-.9459585-1.0510637-1.5765967-.8408509-.6306404.315318-.8408531 1.0510637-.5255329 1.6817019.3153202.7357457.9459584 1.1561712 1.5765966.8408532z"/><path id="Shape" d="m40.050893 13.3059948h-.1051075-.1051075l.6306404-.4204277 1.8919147 1.0510659-.6306382-1.1561712c-.1051053-.2102127-.3153202-.2102127-.4204255-.2102127v-.1051075l.5255329-.2102127c-.1051074.1051074-.2102127.2102127 0 .4204255l1.0510638 2.1021296-.1051075.1051074-2.3123467-1.2612786.8408509 1.5765967c.1051053.2102127.3153202.2102127.4204255.1051074v.1051053l-.5255329.3153202v-.1051075c.1051074-.1051052.1051074-.2102127 0-.4204254l-.840851-1.681702-.315318-.2102127z"/><path id="Shape" d="m44.7805535 13.6213786v-.1051053c0-.1051075.1051053-.2102127 0-.4204255l-1.2612786-1.7868116h-.1051053c-.2102127.1051075-.3153202.525533 0 .8408532l-.1051075.1051053-.4204254-.7357435 1.5765966-1.0510659.4204255.6306382c-.315318-.315318-.6306382-.315318-.840851-.2102127l-.1051074.1051074 1.2612786 1.7868094c.1051053.2102128.315318.2102128.4204255.1051053v.1051075z"/><path id="Shape" d="m45.9368146 11.0987467.6306382.7357457c.1051053.1051075.3153181.1051075.4204255 0v.1051075l-.8408509.7357435v-.1051053c.1051052-.1051074.1051052-.2102127 0-.4204255l-1.2612787-1.5765966c-.1051053-.2102128-.2102127-.1051075-.4204255-.1051075l.840851-.73574568v.10510747c0 .10510527-.1051053.21021271 0 .42042551l.525533.6306382.6306382-.4204255-.5255308-.73574568c-.1051074-.21021274-.3153202-.10510527-.4204277-.10510527l.8408532-.7357457v.10510747c-.1051075.10510528-.1051075.21021274 0 .42042548l1.2612765 1.5765967c.1051074.1051052.2102127.1051052.3153202 0l.1051052.1051052-.8408509.7357457-.1051075-.1051052c.1051075-.1051075.2102127-.2102128.1051075-.4204277l-.6306383-.7357435z"/><path id="Shape" d="m46.8827467 8.89149869c-.1051052-.10510527-.315318-.10510527-.4204254 0v-.10510527l1.3663839-1.26127864.6306382.63063822h-.1051053c-.3153202-.42042548-.7357457-.21021274-.9459584-.10510527 0 .10510527-.1051075.10510527-.2102128.21021274 0 0 0 .10510527.1051053.31532021.1051075.10510527.6306404.63063822.6306404.63063822.1051053-.10510746.4204255-.31532021 0-.84085316h.1051053l.840851.94595844v.10510746c-.5255308-.52553295-.7357435-.21021274-.840851-.10510746l.6306382.63063822c.1051075.2102149.2102128.2102149.2102128.2102149.1051074-.1051074.2102149-.2102149.3153202-.31532017.1051075-.10510747.2102083-.42042549 0-1.05106371h.1051075l.4204189.7357435-1.3663774 1.36638388-.1051074-.1051052c.1051074-.1051075.2102127-.2102128 0-.4204255z"/><path id="Shape" d="m49.404282 5.9484282c-.1051009.10510747-.1051009.31532021.1051206.42042548.2101974.21021274.4204167.21021274.8408334 0 .2102194-.10510527.630658-.21021274.945976.10510747.5255154.52553295.315318.94595843.2101974 1.15617117-.1050987.10510528-.315318.21021275-.4204167.31531802-.1050987 0-.1050987 0-.1050987.10510747v.10510527l-.7357567-.63063822h.1050987c.4204387.21021274.8408554.31532021 1.0510747 0 .2102193-.21021275 0-.42042549-.1050987-.52553076-.2102193-.21021494-.4204386-.21021494-.7357566 0-.3153181.10510527-.7357348.10510527-1.0510528-.10510747-.4204342-.42042548-.4204342-.73574569-.2102215-1.05106371.1051009-.10510746.3153202-.21021274.4204189-.3153202.1051206 0 .1051206 0 0-.21021275l.7357567.52553295h-.1051207c-.5255154-.21021274-.8408334-.10510746-.945954.10510528z"/><path id="Shape" d="m50.3517493 5.10755091c-.2101973-.10510746-.315318 0-.4204167.10510528h-.1050987l1.1561734-1.68170193.7357347.52553295-.1050987.10510527c-.4204386-.31532021-.8408553-.10510527-.9459759 0 0 .10510747-.1050987.21021274-.1050987.31532021-.1050987 0-.1050987.10510527.1050987.21021274.1051206.10510527.7357566.52553076.7357566.52553076.1050987-.10510528.315318-.31531802-.1050987-.7357435v-.10510747l1.0510528.84085097c-.6306361-.31531802-.7357348 0-.8408554.10510747l.7357567.52553295c.2101974.10510527.315318.10510527.315318.10510527 0-.10510527.1050987-.21021274.2102193-.31531802.1050987-.21021493.2101974-.52553295-.2102193-.94595843l.1050987-.10510747.5255373.63063823-1.0510747 1.57659666h-.1050986c.1050986-.21021275.1050986-.31531802-.1050987-.52553076z"/><path id="Shape" d="m53.189765 3.21568668-.315318.52553295c-.4204386-.42042548-.630636-.73574569-.630636-.73574569l.945954.21021274h.2102193c.1050987 0 .315318.10510747.4204167.10510747.3153181.10510528.2102194.21021274.1050987.42042548h.1051207l.5255373-.94595843c-.2102193.21021274-.3153399.10510747-.5255373.10510747-2.2072481-.42042548-2.4174455-.52553295-2.4174455-.52553295v.10510747l1.6816888 1.89191467c.1051206.10510747.1051206.31532021.1051206.42042548h.1050987l.315318-.52553076-.1050987-.10510746c-.1051206.21021274-.2102193.31532021-.4204386 0-.1050987-.10510528-.2101974-.21021274-.2101974-.21021274l.315318-.7357457z"/><path id="Shape" d="m52.5581201.90338381c-.1051206.10510747-.1051206.31532021.2102193.42042768.315318.10510527.4204167 0 .7357348-.21021274.315318-.21021494.630636-.42042768 1.0510746-.21021494.6306361.31532021.5255154.84085316.4204167 1.0510659-.1050987.10510528-.2102193.31531802-.315318.42042549v.10510746.10510528l-.8408553-.42042549c.5255373.10510528.945954 0 1.0510746-.3153202.1050987-.21021275-.1051206-.42042549-.2102193-.52553076-.2102193-.10510747-.4204386 0-.7357566.21021274-.3153181.31531802-.6306361.42042548-1.0510528.21021274-.4204386-.21021274-.630636-.52553295-.4204386-.84085316 0-.21021274.2102193-.31531801.3153399-.42042548 0-.10510527 0-.10510527-.1051206-.21021274v-.10510528l.8408554.42042549h-.1050987c-.5255374-.10510747-.8408554.10510527-.8408554.31531801z"/></g></g><g id="crest" transform="translate(17.984)"><g id="rope" stroke="#000" strokeWidth=".1" transform="translate(4.167 21.493)"><g fill="#fff"><path id="Shape" d="m4.21162402 5.80543081c-1.36638392.31532021-2.31234674.42042548-3.5736188-.73574569-.84085096-.84085097-.63063822-2.31234674.21021274-2.83788408.94595844-.63063822 1.7868094-1.0510637 2.94298277-.73574569 1.15617118.31532021 4.20425483 3.15320209 3.46852011 3.25830079-.7357457 0-1.89191687.73574349-3.04808147 1.0510637z"/><path id="Shape" d="m7.47007833.7601671c.42042548-.31531801.94595843-.52553075 2.31234674-.63063822 1.26127643-.10510528 2.20722613-.10510528 2.52254413.84085096.4204255 1.15617118.7357457 2.52254413 1.5765966 3.15320209-.5255307.31531802-3.153202.63063823-4.09915609.10510528-1.26127864-.63063823-1.57659885-3.04808147-2.31234673-3.46852011z"/><path id="Shape" d="m16.5091802.86544125c.4204254-.31532021.9459584-.31532021 2.3123467-.21021274 1.3663817.10510528 1.8919147.21021274 2.2072261 1.15617118.315318 1.0510637 0 2.41744543.6306382 3.36339947-.6306382.21021275-2.7327634.21021275-3.4685201-.52553295-1.1561712-.84085096-1.0510637-3.25830078-1.6817019-3.78383812z"/></g><path id="Shape" d="m22.8155405 1.49598956c-.9459585-.21021275-1.5765967-.31531802-1.9970222 0 .5255308.63063822.1051053 3.15320208 1.1561712 3.99403551.7357435.52553295 2.6276648.63064041 3.0480815-.52553076.5255329-1.0510659.5255329-2.62766475-2.2072261-3.46852011z" fill="#073163"/><path id="Shape" d="m11.9896292.44500261c.3153181-.31532021.9459585-.42042548 2.2072262-.42042548 1.3663839 0 2.2072261.21021274 2.6276647 1.05106371.4204255 1.0510637.3153202 2.41744543 1.0510659 3.25830078-.3153202.42042548-3.1532021.42042548-3.9940574-.21021274-1.1561712-.73574569-1.2612765-3.15320209-1.8919147-3.6787175z" fill="#073163"/><path id="Shape" d="m3.05558225 1.39093473c0-.52553295.73574569-.63064042 2.62766475-.7357457 1.89191467-.21021274 1.99702214-.10510746 2.62766475 1.26127645.31532021.73574569.73574569 1.99702214 1.57659666 2.41744543-2.31234674.52553076-3.04808146.84085097-4.30935353.10510528-.94595843-.52553295-1.99702214-1.7868094-2.20722611-2.31234674-.10510746-.31531801-.10510746-.63063822-.31532021-.7357435z" fill="#073163"/></g><g id="pineapple" stroke="#000" strokeWidth=".1" transform="translate(4.825)"><path id="Shape" d="m7.44266319 12.1635509c-2.20722611-1.6817041-4.83489087-3.25830077-7.2523363-3.57361879 1.57659666.94595844 5.99106423 4.41447419 7.1472376 5.57064749" fill="#fee94e"/><path id="Shape" d="m8.70397911 10.5868512c-2.62766475-1.78680942-5.67574621-3.78383815-8.61872898-3.99403553 2.20724804 1.15617117 5.46552689 3.88893683 7.25233629 6.09616293" fill="#fee94e"/><path id="Shape" d="m12.0672689 7.644c1.4714914-3.25830078 3.0480815-5.04511018 5.1502089-7.0421389-1.0510659 2.20722611-2.207248 6.72682088-2.7327634 8.51363028" fill="#fee94e"/><path id="Shape" d="m14.3797911 7.11850653c1.0510659-2.31234674 2.6276648-4.30935353 5.3604282-5.57064752-1.3663839 1.36638391-3.4685201 5.46552689-3.9940574 7.67277493" fill="#fee94e"/><path id="Shape" d="m15.3257232 9.22048042c1.2612765-1.7868094 3.7838382-5.15020888 8.303411-6.93701828-2.6276647 2.62766475-6.5166016 7.46255561-7.4625556 9.35446366" fill="#fee94e"/><path id="Shape" d="m16.7971488 11.5327833c1.8919147-1.0510659 5.6757462-2.73276346 8.4085097-2.20722612-1.6817019.63063822-6.7268209 2.94298272-8.934047 5.04511022" fill="#fee94e"/><path id="Shape" d="m16.3767102 10.7971802c1.7868116-1.89191691 5.0451102-4.72979221 8.5136303-5.88596558-2.5225442 2.41744543-7.8829724 7.88297228-8.618729 8.72382768" fill="#fee94e"/><path id="Shape" d="m11.3316658 9.64091906c-1.2612786-3.88893681-3.15320209-7.56765431-5.99106423-8.72382768 1.57659665 2.31234674 3.5736188 5.67574622 4.62469347 10.72085642" fill="#fee94e"/><path id="Shape" d="m8.91408877 9.53586423c-2.10212741-2.52254413-4.94001149-5.04511018-8.19831227-5.57064752 2.20722611 1.26127864 5.88596554 4.94001149 7.25233629 8.51363029" fill="#fee94e"/><path id="Shape" d="m10.0703499 9.4308094c-2.62766478-4.72979217-4.6246935-5.57064752-5.78084494-6.51660157.94595843 1.7868094 3.25830078 6.51660157 4.62469347 8.51363027" fill="#fee94e"/><path id="Shape" d="m4.8149765 9.11542559c1.26127645.7357435 3.15320209 2.52254411 3.78383812 3.67871751"/><path id="Shape" d="m4.8149765 11.3226736c.63063823.5255308 1.7868094 1.1561712 2.83788407 2.1021274" fill="#f9d050"/><path id="Shape" d="m17.3226423 12.899154c1.0510659-.8408509 3.3633995-2.2072261 4.5195728-2.6276647" fill="#f9d050"/><path id="Shape" d="m16.5870392 12.1635509c1.0510659-1.3663839 3.1532021-3.25830077 3.8889368-3.8889368" fill="#f9d050"/><path id="Shape" d="m19.5298903 5.64686162c-.9459562 1.05106371-3.153202 3.67871749-3.9940355 4.94001148" fill="#f9d050"/><path id="Shape" d="m16.7971488 4.7009295c-.7357457.94595844-2.207248 3.6787175-2.6276647 4.62469348" fill="#f9d050"/><path id="Shape" d="m8.49365013 4.91125849c.63064042 1.68170412 1.78680937 4.51957284 2.20724807 5.67574621" fill="#f9d050"/><path id="Shape" d="m7.54771802 6.69806789c.42042767.63063822 1.26127864 2.1021296 1.57659885 3.15320208" fill="#f9d050"/><g fill="#fee94e"><path id="Shape" d="m11.1213368 6.17235509c0-.94595843.6306382-1.99702433 1.2612765-1.99702433.7357457 0 1.2612786 1.26127864 1.2612786 1.99702433 0 .84085097-.6306404 1.57659666-1.2612786 1.57659666-.6306383 0-1.2612765-.63064042-1.2612765-1.57659666z"/><path id="Shape" d="m9.75496606 7.01323238c.10510527-1.0510659.84085094-1.89191687 1.47148914-1.7868094.6306383.10510527.9459585 1.36638391.840851 2.10212741-.1051053.84085316-.840851 1.47149139-1.3663817 1.36638392-.525533 0-1.05106591-.7357435-.94595844-1.68170193z"/><path id="Shape" d="m12.5929817 7.32861619c-.2102127-.94595624.2102128-1.99702214.840851-2.10212742.6306404-.10510746 1.2612786.94595844 1.3663839 1.7868094.2102127.84085097-.315318 1.68170193-.840851 1.68170193-.5255329.10510747-1.2612764-.42042548-1.3663839-1.36638391z"/><path id="Shape" d="m11.016282 8.16949347c0-1.0510659.6306382-1.99702214 1.2612786-1.99702214.7357435 0 1.2612765 1.15616898 1.2612765 1.99702214 0 .84085097-.6306382 1.57659666-1.2612765 1.57659666-.6306404 0-1.2612786-.63063822-1.2612786-1.57659666z"/><path id="Shape" d="m9.12441775 8.69498695c0-.94595625.7357435-1.99702215 1.36638175-1.99702215.6306404 0 1.2612786 1.26127865 1.2612786 1.99702215 0 .84085315-.7357457 1.57659665-1.2612786 1.57659665-.63063825 0-1.36638175-.63063822-1.36638175-1.57659665z"/><path id="Shape" d="m13.0134204 8.2745483c0-.94595843.6306404-1.99702214 1.2612786-1.99702214.7357435 0 1.2612765 1.26127864 1.2612765 1.99702214 0 .84085316-.6306383 1.57659666-1.2612765 1.57659666s-1.2612786-.63063822-1.2612786-1.57659666z"/><path id="Shape" d="m12.5929817 9.11542559c0-1.0510659.7357457-1.99702434 1.3663839-1.99702434.6306383 0 1.2612787 1.15617118 1.2612787 1.99702434 0 .84085096-.6306404 1.57659661-1.2612787 1.57659661-.6306382 0-1.3663839-.6306404-1.3663839-1.57659661z"/><path id="Shape" d="m10.9112272 10.0613577c0-1.05106371.6306382-1.99702214 1.2612764-1.99702214.7357457 0 1.2612765 1.26127864 1.2612765 1.99702214 0 .8408532-.6306383 1.5765967-1.2612765 1.5765967s-1.2612764-.6306383-1.2612764-1.5765967z"/><path id="Shape" d="m8.28354047 10.0613577c0-1.05106371.52553295-1.99702214 1.0510659-1.99702214.52553076 0 .94595623 1.26127864.94595623 1.99702214 0 .8408532-.52553075 1.5765967-.94595623 1.5765967-.52553295 0-1.0510659-.6306383-1.0510659-1.5765967z"/><path id="Shape" d="m14.1694621 9.85124804c0-.94595843.525533-1.89191467 1.0510659-1.89191467.5255308 0 1.0510637 1.15617117 1.0510637 1.89191467 0 .94595846-.6306382 1.57659666-1.0510637 1.57659666-.5255329 0-1.0510659-.6306382-1.0510659-1.57659666z"/><path id="Shape" d="m14.8002298 11.6380574c.2102127-1.0510637.8408531-1.89191463 1.2612786-1.78680936.4204255.10510747.5255308 1.36638396.315318 2.10212966-.1051053.9459584-.7357435 1.4714891-1.156169 1.3663839-.4204276-.1051075-.6306404-.840851-.4204276-1.6817042z"/><path id="Shape" d="m12.8030914 11.3226736c.1051075-.9459584.7357457-1.89191684 1.2612786-1.78680937.6306383 0 .9459563 1.26127647.840851 1.99702217-.1051075.9459584-.6306382 1.5765966-1.1561712 1.4714892-.5255329 0-1.0510637-.7357435-.9459584-1.681702z"/><path id="Shape" d="m9.86024021 11.6380574c-.31531802-1.0510637-.94595843-1.78680936-1.36638392-1.68170189-.42042548.10510529-.52553075 1.36638389-.31531801 2.10212959.21021274.840851.84085096 1.3663817 1.26127645 1.2612765.3153202-.1051075.63063827-.840851.42042548-1.6817042z"/><path id="Shape" d="m9.12441775 11.4277285c0-.9459585.52553076-1.89191471 1.05106375-1.89191471.6306382 0 1.0510637 1.15617121 1.0510637 1.89191471 0 .9459584-.5255308 1.5765966-1.0510637 1.5765966-.42042552 0-1.05106375-.6306382-1.05106375-1.5765966z"/><path id="Shape" d="m10.7008982 11.8481671c0-1.0510637.6306382-1.99702214 1.2612764-1.99702214.7357457 0 1.2612765 1.15617114 1.2612765 1.99702214 0 .8408532-.6306383 1.5765967-1.2612765 1.5765967s-1.2612764-.6306383-1.2612764-1.5765967z"/><path id="Shape" d="m11.226611.28643342c-.2102128.84085097-.9459585 1.57659666-.4204255 2.73276345-.94595845-.31532021-1.78680942-.42042768-2.52254414.42042548.94595843-.10510747 1.78680944.21021274 2.20722614.84085097-.840851-.10510747-1.26127648.3153202-1.47148922.84085096.73574569-.21021274 1.47148922-.42042548 1.78680942-.31531801-.3153202.31531801-.84085099.84085096-.94595846 1.26127645.63063826-.52553295 1.36638396-.42042549 1.78680936-.7357457-.315318.7357457.3153203 1.47149139.8408532 2.20724805-.1051075-1.05106591.5255308-1.7868116.2102127-2.31234674.9459585.21021274 1.0510638 1.05106371 2.4174455 1.05106371-.525533-.31532021-.840851-1.36638392-1.4714892-1.36638392.315318-.10510527 1.5765966-.21021274 1.7868094 0-.2102128-.42042548-.9459585-.84085097-1.3663839-.84085097.4204254-.42042548 1.1561711-1.26127864 1.6817019-1.47149138-.7357457.10510747-1.8919147.21021274-2.3123467.84085316 1.0510659-.84085316.8408531-2.41744543 1.9970243-2.62766475-.6306404-.10510528-1.5765967.31532021-2.3123467 1.0510659.315318-.63064042.315318-1.47149138.7357457-1.68170413-.8408532.21021275-1.7868116 1.26127645-2.1021297 1.7868094 0-.52553295-.3153202-1.36638391-.5255329-1.68170193z"/></g><path id="Shape" d="m11.7521044 1.96818799c0 .31532021 0 .94595843-.1051074 1.15617117" fill="#f9d050"/><path id="Shape" d="m13.1184752 1.86313316c-.2102127.21021274-.6306382.94595624-.6306382 1.57659666" fill="#f9d050"/><path id="Shape" d="m13.7490235 3.12444909c-.3153202.21021274-.6306382.52553295-.7357457.94595843"/></g><g id="turtle" transform="translate(0 11.185)"><g stroke="#000" strokeWidth=".1"><path id="Shape" d="m7.43279373 2.34454308c-.7357435 0-1.36638391-.31532021-1.7868094-.84085097-.73574569-.94595843-2.73276344-1.36638391-3.57361879-.52553295-.31532021.21021275-.7357457.21021275-1.05106371.31532021-.52553295 0-1.15617118.52553076-.94595844 1.57659666.42042549-.31532021.52553296 0 .84085097 0 .21021274-.10510747.10510747.10510528.10510747.31531802 0 .52553295 1.15617117 1.57659665 2.20722611 1.47149138 1.15617117 0 1.68170193.42042548 1.89191686.63063823.31531802.3153202.10510528.21021274.31531802.73574569.31532021.31531801.42042548.42042548-.10510527.84085096-.7357457.63063823-1.26127865 2.10212961 0 3.25830079 1.36638391 1.0510637 4.83489085 2.6276647 8.72382765-.42042768 3.7838381-2.94298277 9.6697817-1.26127645 10.0902204-.21021274.5255329 1.05106592.7357457 1.68170412.8408531 2.20724802.1051053.4204255.6306383.840851 1.366384.7357435.7357435 0 1.5765966.3153202 1.9970221.6306404.5255308.3153181 1.2612765.2102128 1.0510637-.7357457-.4204255-2.94298272-2.2072261-3.36339943-2.4174454-4.72979212 1.0510637.10510527 1.7868094.10510527 2.2072261-.31532021.3153202-.42042548.7357457-1.15617118 1.1561712-1.36638392.3153202-.21021274.3153202-.42042548-.1051075-.31531801-.5255308.10510527-.840851.31531801-1.7868094.21021274-4.8348909-.52553295-18.3936313-4.20425483-21.02129608-3.46852011z" fill="#4eab53"/><path id="Shape" d="m28.8745065 5.91816188c-.5255307.31532021-1.0510637.84085097-1.9970221 2.10212961-1.0510637 1.36638391-4.2042548 2.73276341-8.0931917 2.73276341-3.7838381 0-6.0961629-.6306382-7.7778736-1.99702211-.9459584-.73574569-1.68170411-1.15617117-2.31234672-1.47149138-1.15617118-.52553295-1.36638392-1.68170193-1.0510659-2.62766475-.31531802.52553076-.52553076 1.05106371-1.15616899.94595843-.42042767 0-1.26127864 0-1.0510659.42042548-.10510527-.21021274-.10510527-.52553295-.21021274-.63063822-.10510527-.10510747-.21021274-.21021493-.21021274-.21021493.31532021.21021493 1.05106371-.42042549 1.57659666-.42042549.42042548.10510747.94595843-.42042548.84085096-1.05106371-.10510527-.52553295-.21021274-.94595843-.31531801-1.36638391.84085096-.42042548 11.87702978 1.57659666 14.08425588 1.7868094 2.207248.10510746 8.5136303 1.05106371 7.6727749 1.7868094z" fill="#000"/><path id="Shape" d="m8.90443864 1.92410444c1.05106371-1.05106371 2.31234676-1.57659666 3.57361876-1.26127864h.3153203c.6306382-.52553076 2.1021274-.63063823 2.9429827-.21021274h.4204255c1.2612764-.42042549 3.6787175 0 4.5195728.84085315l.3153181.21021275c2.837884-.21021275 4.5195728 1.0510637 6.5166015 3.04808146.2102128.21021274.5255308.63063822 1.0510637.73574569.6306383.10510747.7357457.42042548.2102128.73574569-.6306382.31531802-1.1561712.84085097-2.2072261 1.99702214-.9459585 1.26127645-3.9940575 2.52254416-7.7778737 2.52254416-3.6787175 0-5.8859655-.63063826-7.5676543-1.8919169-.9459584-.73574569-1.68170409-1.15617117-2.20724801-1.47148919-.63063823-.21021274-1.47148919-1.0510659-1.15617118-1.89191687.21021494-.84085096-.31531801-1.89191686-.73574349-2.94298276.31531801-.21021275 1.15617117-.52553295 1.57659665-.31532021l.21021275-.10510528z" fill="#4eab53"/><g id="Group" fill="#00493d" transform="translate(8.554)"><path id="Shape" d="m18.954611 4.55179112c-1.9970244-1.99702214-3.6787175-3.25830078-6.5166016-3.04808146 0 .10510527 0 .42042548-.1051053.63063823 1.681702.63063822 4.0991562 2.52254412 5.1502089 3.88893681.4204255-.42042548 1.1561712-.94595843 1.4714914-1.47149138z"/><path id="Shape" d="m12.1227572 1.29355614c-.8408532-.84085316-3.2583008-1.26127865-4.51957287-.84085316 0 .42042767 0 1.0510659-.21021274 1.47149138.7357435.31531802 1.36638392 1.05106371 1.99702214 1.7868094.42042549-.10510747 1.47148917-.42042548 1.99702217-.52553295.2102127-.42042548.6306382-1.36638392.7357457-1.89191467z"/><path id="Shape" d="m7.18276762.45267885c-.84085316-.42042548-2.31234673-.31531801-2.94298276.21021274-.21021275.42042768-.31532021 1.26127864-.31532021 1.68170413.42042548 0 1.05106371.31532021 1.26127645.52553295.63064041-.21021274 1.47149138-.63064042 1.78681159-.94595844.10510527-.42042548.31531801-1.0510637.21021274-1.47149138z"/><path id="Shape" d="m.35091384 1.92410444c1.05106371-1.05106371 2.31234673-1.57659666 3.5736188-1.26127864-.21021274.31532021-.31532021.94595843-.31532021 1.57659665-1.15616898-.10510527-2.62766475.21021494-3.25830078.63064042v-.94595843z"/><path id="Shape" d="m17.0627467 6.23354569c-.9459584-1.36638391-3.2583007-2.94298277-4.8348908-3.67871749 0 .10510747-.2102128.52553295-.315318.84085096.6306382.94595844 1.8919146 3.04808147 2.4174454 4.20425483.5255329-.21021274 1.9970221-.84085315 2.7327634-1.36638391z"/><path id="Shape" d="m9.07463185 8.54584856c.21021275-1.47149138.31532021-3.57361879.31532021-4.30935352.52553295-.10510747 1.57659664-.42042548 1.99702214-.52553295.525533.84085096 1.7868094 3.04808146 2.3123467 4.09915613-1.2612786.31531802-3.3633994.84085097-4.62469343.7357457z"/><path id="Shape" d="m5.39595822 3.50058486c.52553076-.21021275 1.26127645-.63063823 1.7868094-1.05106371.42042549.31531801 1.26127645 1.05106371 1.57659666 1.47148919 0 .94595843-.31532021 3.67871749-.42042767 4.62469347-.84085097 0-2.20722611-.21021274-2.94298277-.63064042.10510527-1.57659665.21021274-3.36339947 0-4.41447415z"/><path id="Shape" d="m.14058486 4.76190078c.10510527-.21021274.21021274-.94595624.21021274-1.26127645.84085096-.52553295 2.94298277-1.0510637 4.51957284-.21021274.10510528 1.05106371 0 3.6787175-.10510746 4.30935353-1.36638392-1.0510659-3.5736188-2.52254413-4.62469348-2.83788408z"/></g></g><g id="Group" transform="translate(.877 .877)"><path id="Shape" d="m2.5614517 1.99275196c-.21021274 0-.31532021-.63064042-.73574569-.63064042-.10510528 0-.42042549.10510747-.52553076 0 0 .21021494.10510527.42042768.21021274.52553295.10510527.31532021.63063822.10510747 1.05106371.10510747z" fill="#000"/><g stroke="#000" strokeWidth=".1"><path id="Shape" d="m2.5614517 3.77956136c1.26127645 0 1.47148919-1.57659666 2.10212961-1.68170413"/><path id="Shape" d="m3.29727415 3.88461619c.94595843.42042548 1.68170193-1.7868094 2.41744543-1.68170193"/><path id="Shape" d="m1.40540992 1.15187467c.31532021 0 .52553295-.42042548 1.05106371.10510747.21021493.21021274.52553295.31532021.73574569.31532021"/><path id="Shape" d="m2.98189034 2.72857441c-.42042548.63064042-1.15617118 1.0510659-1.57659666.84085316"/><path id="Shape" d="m1.19508094.10088773c-.31532021.21021274-.52553295.63063822-.73574569.94595843"/><path id="Shape" d="m0 1.67736815v.52553295"/></g></g></g></g><g id="shield" transform="translate(14.475 27.196)"><path d="m39.6361567.20813577v20.49575873c0 17.7629953-8.4085097 23.8590705-19.6549034 28.6940052-11.24637184-4.8348908-19.76000212-10.9310757-19.76000212-28.6940052v-20.49575873h39.41486162z" fill="#fff"/><path id="Shape" d="m19.9812533 17.5507363c.945965 0 2.4174454-.840851 3.6787175-2.1021274 1.3663795-1.4714892 3.6787175-1.9970222 6.0962067 0 2.4174455 1.9970243 3.8889369 1.1561712 5.1502089 0 1.2612765-1.156169 2.3123468-1.5765967 4.7297922-1.5765967v-13.66383914h-39.41486163v13.66383914c2.41744543 0 3.46852011.4204277 4.72979217 1.5765967 1.26127645 1.1561712 2.73278538 1.9970243 5.15023076 0 2.5225442-1.9970222 4.7297922-1.4714892 6.2012617 0 1.1561711 1.2612764 2.6276428 2.1021274 3.6787175 2.1021274z" fill="#f1453d"/><g id="Group" fill="#0b50a0" transform="translate(.219 19.3)"><path id="Shape" d="m19.7619321 8.76100261c1.2612787 0 3.7838381-1.36638392 4.4144742-1.68170193 2.3123467-1.36638392 3.9940355-.10510747 5.3604282.52553295 1.4714913.63063822 4.2042548 1.36638172 5.8859655 0 1.6817041-1.36638392 2.6276648-1.26127864 3.7838381-1.26127864.2102128-1.57659666.2102128-3.15320209.2102128-4.94001149v-1.26127645c-1.4714892-.31532021-2.2072261.10510527-3.7838382 1.47148919-1.5765966 1.36638392-3.3633994 1.05106371-5.6757462.21021274-2.2072261-.94595843-4.4144741-2.62766475-6.6217002 0-.6306405.73574569-2.1021296 1.7868094-3.5736188 1.7868094-1.5765967 0-2.9429828-1.05106371-3.5736188-1.7868094-2.3123468-2.62766475-4.4144742-.94595843-6.62170029 0-2.31234674.84085097-4.20425483 1.15617118-5.78084491-.21021274-1.47148919-1.36638392-2.20722611-1.7868094-3.78383812-1.47148919v1.26127645c0 1.7868094.10510527 3.36339948.31531801 4.94001149 1.15617118 0 1.99702434-.10510528 3.6787175 1.26127864 1.68170412 1.36638172 4.51957284.63063822 5.88596553 0 1.47149138-.63064042 3.15320208-1.89191687 5.46552688-.52553295.6306382.31531801 3.0480815 1.68170193 4.4144742 1.68170193z"/><path id="Shape" d="m19.7619321 13.2805535c1.5765967 0 3.4685201-.6306382 5.1502089-1.5765966 2.1021274-1.156169 3.5736188-.6306383 5.6757462.4204276 2.207248 1.0510638 3.9940574.7357435 5.2553295 0 .6306382-.4204276 1.1561712-1.2612786 2.5225441-.9459584-.6306382 2.6276648-1.5765966 4.9400115-2.7327634 6.8319196-2.1021296.5255329-3.2583008.5255329-5.4655269-.4204255-2.2072261-1.0510637-4.9400115-1.6817019-6.4115029-.7357435-1.3663839.840851-2.837884 1.2612765-3.9940574 1.2612765-1.1561712 0-2.6276648-.4204255-3.9940355-1.2612765-1.4714892-.9459584-4.2042549-.3153202-6.4115029.7357435-2.20722611.9459584-3.36339948.9459584-5.46552689.4204255-1.15617118-1.8919147-2.10212961-4.2042548-2.73276345-6.8319196 1.36638392-.3153202 1.89191468.5255308 2.52254413.9459584 1.15617117.7357435 3.04808146 1.0510638 5.15020887 0 2.20722614-1.0510659 3.67871754-1.5765966 5.78084494-.4204276 1.6817041.9459584 3.5736188 1.5765966 5.1502089 1.5765966z"/><path id="Shape" d="m19.7619321 30.0976606c4.2042548-1.7868094 8.0931917-3.7838381 11.2463937-6.5166016-.8408531-.3153202-1.3663839-.1051075-2.1021296-.6306382-.7357457-.525533-2.9429827-.7357457-4.8348908.315318-1.9970222.9459584-2.8378841 1.1561712-4.3093535 1.1561712-1.4714892 0-2.3123468-.2102128-4.3093536-1.1561712-1.8919146-1.0510637-4.0991561-.840851-4.8348908-.315318-.73574572.5255307-1.26127867.315318-2.10212964.6306382 3.15320204 2.7327635 6.93701824 4.7297922 11.24639374 6.5166016z"/></g><g id="lion" transform="translate(1.632 .877)"><path id="Shape" d="m15.6164386 4.48116971c.1051075.21021274-.1051052.73574569 0 .94595844.210215.42042548.210215.63063822.525533.84085096h.7357457c2.3123467 0 5.0451102-.94595843 7.3574569-.94595843 2.207248 0 3.5736188.73574569 4.8348909.73574569.7357457 0 1.3663839-.52553295 1.3663839-1.05106371 0-.52553295-.840851-.84085316-2.6276648-.84085316-2.5225441 0-3.8889368.63063823-5.9910642.63063823-3.1532021 0-3.6787175-1.15616898-3.6787175-1.68170193s.525533-1.26127865 2.207248-1.26127865c.5255308 0 .9459563-.10510527 1.156169-.31531801.1051075-.21021274.4204277-.63063823 1.0510659-.94595843.7357435-.42042549 2.2072261 0 2.9429828-.52553296 0 .42042768-.6306382 1.05106591-1.1561712 1.26127865 1.0510637-.31532021 2.2072261-.31532021 2.4174455.52553075-.525533-.31531801-1.366384-.10510527-1.681702 0-.4204277.10510747-.6306404.21021494-1.0510659.31532021.4204255-.10510527.6306382.73574569 1.2612787.73574569-.6306405.52553076-1.6817042.52553076-2.7327635.10510528-.3153202-.10510528-1.1561712-.42042548-1.6817041-.42042548-1.0510637 0-1.6817019.21021274-1.6817019.63063822 0 .52553295.6306382.84085316 2.5225441.84085316 1.8919169 0 2.9429828-.52553295 5.7808668-.52553295-.2102127-.31532021.1051053-.63063823-.3153202-.94595843 1.0510659 0 2.2072481.3153202 2.6276648 1.0510659-.1051075-.7357457.5255307-1.36638392.315318-1.99702434.6306382.10510747 1.1561712.73574569 1.2612786 1.26127864 0-.3153202.4204255-.3153202.4204255-.63063822.6306382.31531802.9459584 1.05106371.840851 1.68170193.3153202-.52553295.6306382-.31531801.8408509-.94595843.2102128.42042548.1051075 1.68170412-.6306382 2.10212961.6306382-.42042549 1.5765967-.42042549 2.2072261.31532021-.6306382-.10510747-.9459562.21021274-1.2612764.31531801-1.2612765.73574569-3.3633995 1.15617118-4.9400115 1.0510659-1.6817041-.10510746-1.8919169-.42042767-2.9429828-.42042767.6306382.10510746 1.8919147 1.36638391 3.0480815 1.36638391.7357457 0 1.2612786 0 1.5765966-.10510527.3153203-.10510747.8408532 0 1.2612787.21021274.315318.31532021.9459584.63063822 1.3663839.52553295-.1051075.42042548-.3153202.63063823-.6306382.7357435.5255307.31532021.2102127.52553295.7357435.94595848-.2102128 0-.4204255.2102127-.7357435.1051074.315318.315318.315318.7357435.6306382.9459585-.1051075 0-.4204255.1051052-.6306382 0 .315318.4204254 0 .9459562.315318 1.1561689.3153202.4204277-.315318.9459585-.840851.525533.1051053.3153202-.2102127.6306382-.5255329.5255329-.315318-.1051074-.5255308-.4204254-.4204255-.5255329 0-.1051053 0-.1051053.1051075-.2102128-.2102128.3153203-.6306405.3153203-.8408532.2102128-.1051053-.1051053-.2102127-.2102128-.2102127-.315318-.7357435.2102127-1.0510637-.4204277-.9459585-.7357457.1051075-.3153202.7357457-.4204255.9459585-.3153202.2102127.1051074.4204254.2102127.6306382 0 .2102149-.1051053.3153202-.315318.3153202-.525533 0-.315318-.3153202-1.26127643-1.6817019-1.15616896-1.5765989.10510527-4.0991562-.31532021-5.3604282-.73574569-.1051053-.10510747-.2102128-.10510747-.3153181-.21021275 0 .42042549-.4204276.63063823-.4204276 1.05106371 0 .52553299.2102149.94595839.8408531 1.15617119-.3153202.5255329-.8408531.4204255-1.0510659.1051075 0 .315318-.4204255.5255307-.4204255.9459562-.1051052-.2102127-.2102127-.315318-.315318-.5255308-.3153202.7357435-1.1561711 1.1561712-1.5765966.9459585-.525533.4204255-1.1561712.315318-1.3663839-.1051075-.3153203.2102127-.7357457.2102127-.9459585 0 0 .3153202-.2102127.2102127-.3153202.6306382 0 .2102128-.4204255.3153202-.6306382.2102128-.2102128-.1051053-.3153202-.5255308-.1051053-.7357435-.3153202.2102127-.6306404.2102127-.8408531 0 0-.210215 0-.525533.2102127-.6306404h.2102127c-.2102127-.1051053-.5255307 0-.7357435-.1051053-.2102127-.2102128-.2102127-.4204255-.1051074-.6306382.1051074-.1051075.4204255-.3153203.6306382-.1051075l.1051075.1051075c0-.210215.1051052-.4204277.2102127-.4204277.2102127-.1051053.525533-.1051053.840851.2102127.2102127.3153202.4204255.3153202 1.0510659.210215.5255307 0 1.3663839-.525533 1.9970221-1.0510659-1.7868094-.31531806-.7357457-1.47148924-.2102127-1.89191472-.4204255-.10510747-1.0510659-.10510747-1.4714914.10510527-2.2072261 1.15617118-4.5195729 2.52254415-5.9910642 2.10212965 0 .2102127.1051052.4204254.2102127.6306382-.3153202 0-.9459584 0-1.1561712-.3153202-.1051074.2102127-.3153202.7357457-.1051074 1.1561712-.2102128-.2102128-.840851-.4204255-1.1561712-.5255308.2102127.2102127 0 .6306382.1051075.9459562-.3153203-.315318-.840851-.5255307-1.0510638-.315318-.2102127.2102128-.63064038.315318-.94595839.2102128-.21021274.3153202-.52553295.5255329-.84085097.6306382 0-.2102128 0-.525533-.10510746-.6306382-.10510747.3153202-.42042549.7357457-.84085097.9459584 0-.2102127 0-.525533-.10510747-.7357457 0 .4204255-.84085096.6306382-.94595843.9459584.10510747-.3153202.10510747-.6306382.10510747-.8408509-.21021275.315318-.52553295.6306382-1.05106371.7357435.10510527-.2102128.21021274-.4204255.10510527-.6306383-.10510527.4204255-.73574569.6306383-1.26127645.525533 0 .2102127-.42042548.5255308-.94595843.2102127-.31532021-.1051074-.52553295-.4204254-.31532021-.6306382-.42042548 0-.84085096-.4204277-.63063822-.7357457 0-.1051074.10510746-.2102127.10510746-.3153202-.3153202-.2102127-.42042767-.6306382-.10510746-.9459584.10510746-.1051053.42042548-.1051053.63063822-.1051053 0-.84085096.73574569-.84085096 1.0510659-.2102127.21021274.315318.84085097.8408509 1.36638392.7357457.21021274 0 .31531801-.1051075.52553076-.1051075.63063822-.2102128 1.89191686-.7357457 2.62766475-1.36638393.10510527-.31532021.10510527-.52553295.10510527-.73574569-.42042548.21021274-.84085096.42042548-1.05106371.73574569v-.31532021c-.3153202 0-.84085315-.10510527-1.0510659-.10510527.10510747-.10510747.21021275-.63063823.42042768-.7357457-.52553295.10510747-1.0510659 0-1.47149138-.10510527.21021274-.21021274.21021274-.52553295.3153202-.84085316-.21021274.10510747-.73574569-.10510527-1.15617117 0 .10510527-.31531801.21021274-.7357435.52553076-.84085096-.42042549.10510746-.94595624 0-1.47148919-.21021275.42042548 0 .63063822-.52553295.94595843-.52553295-.84085097 0-1.0510659-.42042548-1.47149138-.63063822.31532021.10510747.52553295-.21021274.84085316-.21021274-.31532021-.10510528-.84085316-.63063823-.63064042-.94595844-.10510528.10510747-.21021274.31532021-.42042549.42042549-.21021274.10510746-.63063822 0-.94595843-.31531802-.21021274-.42042548-.10510527-.94595843.31532021-1.0510659-.52553295-.10510527-.52553295-.63063822-.31532021-.84085097.10510747-.21021274.52553295-.52553295.73574569-.21021274.10510747.10510747.21021274.31532021.31532021.42042549-.10510747-.21021275-.10510747-.63063823-.10510747-.94595844.10510747-.31531801.31532021-.31531801.63063823-.42042548.31532021 0 .52553295.31532021.52553295.63063822 0 .31532021.10510747.52553295.21021274.94595844 0-.10510528.10510747-.31531802.10510747-.42042549 0-.42042548.52553076-.31531801.84085096-.21021274.31532021.10510747.42042549.73574569 0 1.05106371-.21021274.21021274-.10510746.52553295.10510747.73574569.7357435 1.15617118 1.99702214 2.10212961 3.04808146 2.20722611 0-.42042548.21021275-.84085096.52553295-1.15616898 0-.21021493.10510528-.52553295.21021275-.73574569.10510527-.63063823.42042548-.94595843.84085098-.73574569-.10510529-.10510747-.21021276-.21021274-.21021276-.31532021-.31532021-.31531802-.63063822-.84085097-.42042548-1.26127645s.84085094-.31532021 1.05106374-.10510747c-.1051053-.63063822.6306382-1.15616898.6306382-1.47148919.1051075.31532021.3153202.73574569.2102127 1.05106371.1051075-.42042548.8408532-.94595624 1.3663839-1.15617118-.2102127.31532021.4204277.84085316.3153203 1.15617118.2102127-.52553076 1.0510637-.84085097 1.6817041-.84085097-.2102128.21021274-.2102128.63063823-.2102128.84085097.3153181 0 .840851-.10510528 1.0510637-.42042548 0 .42042548-.2102127.84085096-.4204254 1.0510659.1051052-.10510747.5255307-.10510747.8408509-.10510747-.3153202.31532021-.2102127.63063822-.5255329.84085096.4204277-.21021274.9459584-.21021274 1.0510659.21021275.2102127.31532021-.1051075.84085316-.3153202 1.15617117-.2102128.10510747-.4204255.31532021-.525533.31532021z" fill="#fee94e" stroke="#000" strokeWidth=".1"/><g id="Group" stroke="#000" strokeWidth=".1" transform="translate(2.316 1.535)"><g id="Shape"><path d="m6.78404178 4.20701828c-.7357435.31532021-.94595844 1.0510659-1.05106371 1.47149138"/><path d="m6.67898695 4.94284073c-1.05106591.63063823-1.47149139 1.15617118-1.26127865 2.31234674"/><path d="m7.20448042 8.09602089c.63064042-.21021274 1.0510659-.42042549 1.57659666-1.36638392"/><path d="m8.46579634 7.15008877c-.21021274.42042549 0 1.15617118-.3153202 1.47149139.52553295-.31532021.94595843-.7357457 1.0510659-1.47149139"/><path d="m8.67590601 8.30613055c.42042548-.21021274 1.0510637-.84085097 1.36638389-1.57659666-.10510745.31532021 0 .84085097-.21021272 1.15617118.52553072-.52553296.73574572-.84085097.84085092-1.36638392 0 .10510747.1051075.31532021.1051075.42042548.2102128-.21021274.4204255-.42042548.4204255-.84085096"/><path d="m11.1985379 6.41426632v.52553076c.4204254-.31531802.5255307-.7357457.5255307-1.26127645"/><path d="m11.6189765 6.30921149c.6306382-.42042548.7357457-1.05106371.7357457-1.99702214"/><path d="m12.3545796 5.36327937c.4204255-.31531801.5255308-.52553295.5255308-1.47148919"/><path d="m11.5137023 1.05383812c-.2102127 0-.4204254.10510747-.4204254.42042548 0 .21021274-.315318.52553295-.315318.84085316-.1051075.42042549-.3153203.52553076-.6306405.42042549-.31531798-.21021275-.31531798-.21021275-.31531798-.52553295 0-.42042549.52553078-.52553296.52553078-.94595844.1051074-.21021274.2102149-.52553076.3153202-.52553076-.525533.31531802-1.26127647.10510528-1.36638393-.52553295"/><path d="m12.4598538 1.36922193c-.2102128.10510528-.4204255-.21021274-.7357457-.10510747-.1051053 0-.4204255.10510747-.5255308 0"/><path d="m10.9882089 1.8947154c.1051053.10510747.6306382.31532021 1.1561712.10510747-.4204277.10510747-.7357457-.42042548-.3153203-.73574569"/><path d="m10.0422768.84372846c-.42042552 0-.73574573.31532021-.63063826.63063822.10510527.31532021.52553076.31532021.84085096.10510747"/><path d="m9.30645431 6.09910183c.10510747-.10510747.21021274-.31532021.21021274-.42042549.21021274 0 .42042548-.10510746.52553295-.21021274.4204255 0 .7357457-.31532021.840851-.63064041.2102127 0 .3153202-.52553076.4204254-.7357435.1051075.10510527.3153203 0 .4204255-.42042549.2102128.10510528.525533 0 .6306404-.31532021"/><path d="m8.0453577 2.63053786c0 .10510747-.21021274.31532021-.42042548.42042548.10510527.21021274 0 .73574569-.21021494.84085316.10510747.21021274 0 .52553076-.10510527.7357435 0 .10510747.10510527.42042768.10510527.52553295"/><path d="m8.46579634.52834465c-.21021274.52553075-.10510746 1.15616898.31531802 1.26127645"/><path d="m8.67590601 2.21009922c-.10510747.52553295-.10510747 1.26127864-.21021275 1.57659665-.10510746.21021275-.31532021.94595844.52553076 1.15617118.94595843.21021274 1.47149138.10510747 1.99702438-1.47148919"/><path d="m12.5649086 7.57052742c0 .10510746-.1051075.3153202-.3153202.3153202"/><path d="m13.3005117 7.36019843c0 .21021274-.2102127.52553295-.315318.63064042"/><path d="m14.0363342 7.15008877c0 .21021274 0 .52553295-.2102127.63063823"/><path d="m7.62491906.63339948c.10510527 0 .21021274.21021274.31531802.42042548-.31531802-.21021274-.63063823.31532021-.42042549.63063823"/><path d="m7.30953525 2.42020888c-.10510747.10510746-.31532021.21021274-.42042548.31532021"/><path d="m6.99415144 3.36614099c-.10510528 0-.21021275.10510747-.31531802.10510747"/><path d="m1.94910705 1.47427676c0-.10510527 0-.10510527.10510527-.21021274"/><path d="m1.00317493 1.15889295c-.10510746 0-.10510746 0-.21021274-.10510747"/><path d="m1.10822977 2.41253264h.21021274"/><path d="m.68779112 1.99977023c-.21021274-.21021274-.52553075-.3153202-.63063822-.3153202"/></g><path id="Shape" d="m6.46865796 5.88877285c-.73574569.63063822-1.0510659 1.15617117-1.15617117 1.89191467"/><path id="Shape" d="m7.20448042 6.41426632c-.21021274.42042548-.52553076.7357435-.84085097.94595624"/><path id="Shape" d="m3.10536815 9.56744648c-.84085316.21021274-1.47149139.10510527-2.10212961-.31532021-.10510747-.10510747-.21021274-.10510747-.31532021-.21021275"/><path id="Shape" d="m6.2585483 8.09602089c-.10510746.42042548-.21021274.94595843-.42042767 1.05106371.84085316-.42042549 1.57659665-1.05106371 1.68170412-1.99702215"/><path id="Shape" d="m.16229765 10.0931593c.31531802-.10510531.63063823.1051074.84085097-.10510531"/><path id="Shape" d="m18.4508303 6.6245953c.2102127.10510527.5255307.21021274.6306382.31531802.1051053-.21021275.525533-.52553076.840851-.63063823"/><path id="Shape" d="m10.9882089 8.83184334c-.1051075-.42042548.1051053-.94595843.7357435-1.15617117"/><path id="Shape" d="m6.88909661 10.6186527c.10510527-.2102127.10510527-.5255329.21021274-.73574565"/><path id="Shape" d="m2.26449086 10.9338172c-.10510527.2102128-.31531801.4204255-.31531801.6306383"/><path id="Shape" d="m.68779112 11.1441462c-.04430064.0369173 0-.1051075.10510747-.1051075.21021274-.1051052.52553076-.3153202.63063822-.5255329"/><path id="Shape" d="m14.9822663 9.67272063c-.2102127.10510746-.3153202 0-.4204255-.10510528"/><path id="Shape" d="m14.8772115 10.1982141s-.1051053.1051053-.2102128.1051053"/><path id="Shape" d="m15.402705 10.7237076c-.1051053.1051074-.2102128.2102149-.3153181.2102149"/><path id="Shape" d="m18.4508303 10.9338172c.2102127-.1051074.315318-.3153202.4204255-.7357457"/><path id="Shape" d="m17.0844595 10.8287624c.315318-.1051075.5255308-.3153202.840851-.6306382"/><path id="Shape" d="m20.0273107 9.98788512c0-.21021274 0-.42042549.1051053-.63064042"/><path id="Shape" d="m27.8053159 10.9338172c-.2102127-.2102149-.2102127-.5255329.1051075-.7357457.2102127-.1051074.315318-.2102127.5255308-.31532017"/><path id="Shape" d="m21.3939008 7.2551436c-1.6817041-.73574569-1.5765967-1.68170412-2.9429828-1.57659665"/><path id="Shape" d="m28.8563029 10.5133786c.225.1051075 0 .4204277 0 .5255329"/><path id="Shape" d="m29.802235 10.5133786c-.1051053.3153202-.1051053.4204277-.1051053.7357457"/><path id="Shape" d="m21.7090653.4386423h-.840851"/><path id="Shape" d="m12.8800731 4.20701828c0 .21021274.3153202.63063822 1.1561712.63063822-.1051053 0-.2102128-.10510527-.2102128-.10510527"/><path id="Shape" d="m13.3005117 2.94592167c-.1051052.10510528-.2102127 0-.2102127 0-.2102127-.21021274.1051075-.63063822.4204277-.84085097-.3153202.10510528-.525533.10510528-.7357457.10510528-.2102127.63063822-.8408532.94595843-1.2612787.52553295-.1051052.42042548-.6306382.94595843-1.0510637.84085097-.4204254-.21021275-.52553291-.52553295-.4204254-.84085097-.52553299.63063822-1.15617122.21021274-1.36638396 0-.10510746-.21021274 0-.73574569.21021274-1.36638392"/></g><g id="Group" fill="#073163" transform="translate(1 .658)"><path id="Shape" d="m11.7786423 4.45375457c-.4204255-.21021274-.525533-.52553295-.4204255-.84085097-.1051075.21021274-.3153202.31531802-.5255329.31531802-.4204255.94595843-.94595847 1.7868094-1.57659669 1.7868094-.7357457.10510747-.63063823.84085316-.10510528.84085316 1.15616897.21021274 1.68170197-.21021274 2.62766477-2.10212961z"/><path id="Shape" d="m1.37316971 1.93112272c.31532021-.31531802.10510747-.63063823-.10510746-.7357457-.31531802-.10510527-.94595625 0-1.26127645.52553295.3153202-.10510527.63063822-.10510527.73574569.10510747.10510527.21021274.31531801.42042548.63063822.10510528z"/><path id="Shape" d="m1.89866319.03925849c.73574349 0 .94595843.10510527 1.0510637.42042548.10510747.21021274-.10510527.52553076-.31532021.52553076-.31531801 0-.63063822-.21021275-.52553075-.31531802.10510527-.21021274.10510527-.52553295-.21021274-.63063822z"/><path id="Shape" d="m4.0008564 1.72101305c.52553295.10510747.73574569-.21021274.42042767-.63063822-.10510746-.31532021-.42042767-.52553295-.94595843-.42042548.52553076.31531801 0 .84085096.52553076 1.0510637z"/><path id="Shape" d="m.11185379 3.50782245c.31531801.52553295.84085096.52553295 1.0510637.42042549.31532021-.10510528.42042549-.42042549.31532021-.63063823-.21021493-.31531801-.52553295-.42042548-.63064041 0-.21021275.42042549-.52553076.31532021-.7357435.21021274z"/><path id="Shape" d="m1.6883342 9.9192376c-.21021274-.42042549-.84085316-.42042549-1.36638391 0 .21021274-.10510747.63063822 0 .7357435.2102127.10510746.2102128.3153202.2102128.42042767.2102128.10510528-.1051075.31531802-.2102128.21021274-.4204255z"/><path id="Shape" d="m2.52921149 9.2886893c0-.52553296-.73574569-.63064042-1.15617118-.42042549.21021274 0 .52553295.21021274.52553295.42042549.10510528.21021274.31531802.31531801.42042549.31531801.21021274-.10510527.31531801-.21021274.21021274-.31531801z"/><path id="Shape" d="m1.47822454 11.1805535c-.63064041-.1051052-.94595843.6306404-.94595843 1.1561712.10510527-.315318.42042548-.5255308.7357435-.4204255.31532021 0 .42042767-.1051053.42042767-.3153202.10510528-.2102127 0-.315318-.21021274-.4204255z"/><path id="Shape" d="m1.58327937 12.9673629c.21021274.1051075.42042549-.1051052.52553295-.4204255 0-.2102127.42042549-.2102127.52553076-.1051052.21021494.1051052.21021494.5255307-.10510527.7357435-.21021274.1051074-.7357457.2102149-.94595844-.2102128z"/><path id="Shape" d="m16.1931384 9.81418277c-.2102128-.10510528-.7357435-.31531802-1.156169 0 .315318-.10510528.5255308.10510746.6306382.31532023 0 .2102127.315318.3153202.4204255.1051053.1051053-.1051053.2102127-.31531807.1051053-.42042553z"/><path id="Shape" d="m15.2472063 10.5500052c-.4204255-.2102127-.9459585.3153202-1.0510659.7357457.1051074-.1051075.5255329-.3153202.7357457-.3153202.2102127.1051075.4204254 0 .4204254-.2102127.1051075-.1051053.1051075-.2102128-.1051052-.2102128z"/><path id="Shape" d="m15.7726997 11.3906632c-.315318 0-.7357435.4204277-.7357435.8408531.1051053-.2102127.3153181-.3153202.5255308-.2102127.2102127 0 .5255329-.1051075.5255329-.3153202s-.1051074-.3153202-.3153202-.3153202z"/><path id="Shape" d="m16.7186319 12.2315405c-.2102128-.1051075-.525533 0-.525533.315318 0 .3153202 0 .6306382-.1051053.7357457.2102128-.2102128.4204255-.3153202.6306383-.4204255.1051074-.1051075.2102127-.4204255 0-.6306382z"/><path id="Shape" d="m28.5957493 11.2856084c-.2102127-.2102128-.5255329-.1051075-.6306404.1051052-.1051052.2102128-.2102127.7357457 0 1.1561712 0-.2102127.2102128-.5255308.4204277-.5255308.315318-.1051074.4204255-.5255329.2102127-.7357456z"/><path id="Shape" d="m29.2262977 11.706047c-.4204255.2102127-.4204255.9459584-.1051075 1.3663839 0-.2102127.1051075-.5255329.3153202-.6306382.315318 0 .4204255-.4204255.315318-.6306382-.2102127-.210215-.4204255-.1051075-.5255307-.1051075z"/><path id="Shape" d="m30.4876136 12.1264856c-.2102128-.1051052-.4204255.1051075-.4204255.3153202-.1051053.3153181.1051075.7357435.4204255.9459585 0-.210215.1051074-.4204277.2102127-.525533.3153202-.2102127.2102128-.6306382-.2102127-.7357457z"/><path id="Shape" d="m31.4335457 12.0214308c-.2102127 0-.4204255.315318-.2102127.6306382.1051052.2102128.3153202.315318.7357456.2102128-.1051074 0-.3153202-.3153202-.2102127-.4204255.1051053-.2102127 0-.4204255-.3153202-.4204255z"/></g></g><g id="star-link" transform="translate(1.556 17.107)"><path id="Star-1" d="m8.55425418 11.682141-4.44752392 3.321857 1.78491328-5.25635683-4.53363423-3.20333634 5.55066099.07324981 1.64558388-5.30162775 1.64558382 5.30162775 5.550661-.07324981-4.5336342 3.20333634 1.7849133 5.25635683z" fill="#4eab53"/><path id="Star-1" d="m8.55425418 12.169034-5.22100634 3.8995713 2.09533298-6.17050594-5.32209236-3.7604383 6.51599334.0859889 1.93177238-6.22364996 1.93177232 6.22364996 6.5159934-.0859889-5.3220924 3.7604383 2.095333 6.17050594zm0-.7994256-4.12523958 3.0811427 1.65557174-4.87546142-4.20511001-2.97121052 5.14843918.06794185 1.52633867-4.91745182 1.52633862 4.91745182 5.1484392-.06794185-4.20511 2.97121052 1.6555718 4.87546142z" fill="#fee94e"/><path id="Star-1" d="m28.2931576 11.682141-4.4475239 3.321857 1.7849132-5.25635683-4.5336342-3.20333634 5.550661.07324981 1.6455839-5.30162775 1.6455838 5.30162775 5.550661-.07324981-4.5336342 3.20333634 1.7849133 5.25635683z" fill="#4eab53"/><path id="Star-1" d="m28.2931576 12.169034-5.2210064 3.8995713 2.095333-6.17050594-5.3220923-3.7604383 6.5159933.0859889 1.9317724-6.22364996 1.9317723 6.22364996 6.5159934-.0859889-5.3220924 3.7604383 2.095333 6.17050594zm0-.7994256-4.1252396 3.0811427 1.6555717-4.87546142-4.20511-2.97121052 5.1484392.06794185 1.5263387-4.91745182 1.5263386 4.91745182 5.1484392-.06794185-4.20511 2.97121052 1.6555717 4.87546142z" fill="#fee94e"/><path id="Star-1" d="m18.4237059 23.0868408-4.4475239 3.321857 1.7849132-5.2563569-4.5336342-3.2033363 5.550661.0732498 1.6455839-5.3016278 1.6455838 5.3016278 5.550661-.0732498-4.5336342 3.2033363 1.7849133 5.2563569z" fill="#4eab53"/><path id="Star-1" d="m18.4237059 23.5737337-5.2210064 3.8995713 2.095333-6.1705059-5.32209234-3.7604383 6.51599334.0859889 1.9317724-6.22365 1.9317723 6.22365 6.5159934-.0859889-5.3220924 3.7604383 2.095333 6.1705059zm0-.7994256-4.1252396 3.0811428 1.6555717-4.8754615-4.20511-2.9712105 5.1484392.0679419 1.5263387-4.9174519 1.5263386 4.9174519 5.1484392-.0679419-4.20511 2.9712105 1.6555718 4.8754615z" fill="#fee94e"/></g><path id="Shape" d="m39.4784971.36579478.0000006 20.33809972c0 8.4009508-1.8706433 14.5036336-5.575107 19.0960398-3.1206719 3.8686821-7.3665346 6.6080365-13.9844061 9.4531242l.1245369-.0000001c-6.6395758-2.8543984-10.8976104-5.5902378-14.03730871-9.4535794-3.73704698-4.5983683-5.62730261-10.7026332-5.62730261-19.0955845l.00000001-20.33809972zm.3153186-.15765901v-.15765901h-.157659-.0000439-39.41486162-.15765901v.15765901 20.49575873c0 8.46142 1.91201928 14.635967 5.69792063 19.2944497 3.17825943 3.9107904 7.4752742 6.6716751 14.1574722 9.5443969l.0622685.0267697.0622684-.0267698c6.6608102-2.8635475 10.9459994-5.6282746 14.1052927-9.5448356 3.7529372-4.6524986 5.6450011-10.8250626 5.6450011-19.2940109z" fill="#000"/></g></g></g></g></g></svg>