<svg fill="none" height="512" viewBox="0 0 36 36" width="512" xmlns="http://www.w3.org/2000/svg"><g id="36 Multicolor / Flag / mc_36_flag_cyprus"><g id="mc_36_flag_Cyprus"><path id="Oval" d="m18 36c9.9411 0 18-8.0589 18-18 0-9.94113-8.0589-18-18-18-9.94113 0-18 8.05887-18 18 0 9.9411 8.05887 18 18 18z" fill="#f0f0f0"/><path id="Path" d="m28.174 15.6521h-2.348c-.0022 4.3213-3.5047 7.8238-7.826 7.826-4.3213-.0022-7.8238-3.5047-7.826-7.826h-2.34801c.00086 4.5493 3.02011 8.5459 7.39601 9.79-.468.89-.397 2.008.272 2.843l2.558-2.05 2.558 2.05c.675-.843.742-1.976.258-2.87 4.222-1.24 7.305-5.14 7.305-9.763z" fill="#6da544"/><path id="Path_2" d="m11.74 14.8701s0 3.913 3.913 3.913l.783.783h1.564s.783-2.348 2.348-2.348c0 0 0-1.565 1.565-1.565h2.348s-.783-3.13 3.13-5.478l-1.565-.78301s-5.478 3.91301-9.39 3.13001v1.565h-1.566l-.783-.783-2.348 1.565z" fill="#ffda44"/></g></g></svg>