<?xml version="1.0" encoding="UTF-8"?>
<!DOCTYPE svg PUBLIC "-//W3C//DTD SVG 1.1//EN" "http://www.w3.org/Graphics/SVG/1.1/DTD/svg11.dtd">
<svg xmlns="http://www.w3.org/2000/svg" version="1.1" width="64px" height="64px" style="shape-rendering:geometricPrecision; text-rendering:geometricPrecision; image-rendering:optimizeQuality; fill-rule:evenodd; clip-rule:evenodd" xmlns:xlink="http://www.w3.org/1999/xlink">
<g><path style="opacity:0.984" fill="#f8fbfc" d="M 22.5,-0.5 C 28.5,-0.5 34.5,-0.5 40.5,-0.5C 40.8417,0.338246 41.5084,0.67158 42.5,0.5C 42.5,21.1667 42.5,41.8333 42.5,62.5C 41.5084,62.3284 40.8417,62.6618 40.5,63.5C 34.5,63.5 28.5,63.5 22.5,63.5C 22.1583,62.6618 21.4916,62.3284 20.5,62.5C 20.5,41.8333 20.5,21.1667 20.5,0.5C 21.4916,0.67158 22.1583,0.338246 22.5,-0.5 Z"/></g>
<g><path style="opacity:0.945" fill="#4896cf" d="M 20.5,0.5 C 20.5,21.1667 20.5,41.8333 20.5,62.5C 10.0462,58.3814 3.04624,51.048 -0.5,40.5C -0.5,34.5 -0.5,28.5 -0.5,22.5C 3.04624,11.952 10.0462,4.61862 20.5,0.5 Z"/></g>
<g><path style="opacity:0.947" fill="#4896cf" d="M 42.5,0.5 C 52.9538,4.61862 59.9538,11.952 63.5,22.5C 63.5,28.5 63.5,34.5 63.5,40.5C 59.9538,51.048 52.9538,58.3814 42.5,62.5C 42.5,41.8333 42.5,21.1667 42.5,0.5 Z"/></g>
<g><path style="opacity:1" fill="#eede92" d="M 30.5,27.5 C 32.7409,28.2998 33.7409,29.9664 33.5,32.5C 32.1667,32.5 30.8333,32.5 29.5,32.5C 29.2155,30.5853 29.5489,28.9187 30.5,27.5 Z"/></g>
<g><path style="opacity:1" fill="#bccaaa" d="M 35.5,32.5 C 35.4894,34.0174 34.8228,35.1841 33.5,36C 34.0944,36.4643 34.7611,36.631 35.5,36.5C 33.7354,37.4614 31.7354,37.7947 29.5,37.5C 29.4431,36.391 29.1098,35.391 28.5,34.5C 30.9882,37.1123 32.6548,36.4457 33.5,32.5C 33.7409,29.9664 32.7409,28.2998 30.5,27.5C 30.5173,25.9719 31.184,25.4719 32.5,26C 34.4506,27.7342 35.4506,29.9009 35.5,32.5 Z"/></g>
<g><path style="opacity:1" fill="#96a57a" d="M 35.5,36.5 C 34.7611,36.631 34.0944,36.4643 33.5,36C 34.8228,35.1841 35.4894,34.0174 35.5,32.5C 36.807,30.7768 36.807,28.9435 35.5,27C 36.3317,26.3123 36.9984,26.479 37.5,27.5C 39.1171,31.089 38.4504,34.089 35.5,36.5 Z"/></g>
<g><path style="opacity:1" fill="#94a176" d="M 28.5,34.5 C 29.1098,35.391 29.4431,36.391 29.5,37.5C 28.5041,37.5858 27.6708,37.2524 27,36.5C 23.8862,33.2888 23.7196,29.9555 26.5,26.5C 27.5472,27.9223 27.5472,29.4223 26.5,31C 26.9783,32.3026 27.645,33.4693 28.5,34.5 Z"/></g>
</svg>
