<svg xmlns="http://www.w3.org/2000/svg" version="1.1" xmlns:xlink="http://www.w3.org/1999/xlink" width="512" height="512" x="0" y="0" viewBox="0 0 283.46 283.46" style="enable-background:new 0 0 512 512" xml:space="preserve" class=""><g><clipPath id="a"><path d="M141.732 6.231c74.836 0 135.503 60.667 135.503 135.51 0 74.836-60.667 135.503-135.503 135.503-74.837 0-135.504-60.667-135.504-135.503 0-74.842 60.668-135.51 135.504-135.51z" fill="#000000" opacity="1" data-original="#000000"></path></clipPath><path fill="#d6d4d1" d="M141.732 2.835c76.715 0 138.9 62.191 138.9 138.906 0 76.704-62.185 138.888-138.9 138.888-76.71 0-138.9-62.185-138.9-138.888 0-76.715 62.19-138.906 138.9-138.906z" opacity="1" data-original="#d6d4d1"></path><g clip-path="url(#a)"><path fill="#d8091b" d="M-61.466 185.742H345.07v91.457H-61.466z" opacity="1" data-original="#d8091b" class=""></path><path fill="#219f3a" d="M-61.454 6.173h406.5v91.474h-406.5z" opacity="1" data-original="#219f3a"></path><g fill="#fff"><path d="M309.799 84.704h24.159v1.868h-24.159z" fill="#ffffff" opacity="1" data-original="#ffffff" class=""></path><path d="M343.226 84.704v7.446h-1.845v-7.446h-1.867v7.446h-1.844v-7.446h-1.867v3.729h-7.423V94h5.578v-1.85h-3.71v-1.862h5.555V94h9.29v-9.296zM311.667 90.288h5.555V94h9.302v-5.567h-5.567v1.855h3.711v1.862h-5.555v-3.717h-9.314V94h1.868z" fill="#ffffff" opacity="1" data-original="#ffffff" class=""></path><path d="M313.522 92.15h1.856V94h-1.856zM328.333 97.659h-1.867v-1.792h-16.714v1.792h-1.843v-1.792h-16.691v1.792h-1.867v-1.792h-16.714v1.792h-1.844v-1.792h-16.712v1.792h-1.857v-1.792h-16.701v1.792h-1.867v-1.792h-16.691v1.792h-1.867v-1.792h-16.69v1.792h-1.867v-1.792H179.85v1.792h-1.867v-1.792h-16.69v1.792h-1.868v-1.792h-16.701v1.792h-1.849v-1.792h-16.72v1.792h-1.843v-1.792h-16.72v1.792h-1.85v-1.792H87.046v1.792h-1.867v-1.792H68.483v1.792h-1.85v-1.792H49.926v1.792h-1.868v-1.792H31.362v1.792h-1.861v-1.792H12.799v1.792h-1.861v-1.792H-5.77v1.792h-1.838v-1.792h-16.713v1.792h-1.85v-1.792h-16.708v1.792h-1.867v-1.792h-16.696l.023 91.649h16.702v-1.798h1.862v1.798h16.707v-1.798h1.838v1.798h16.713v-1.798h1.85v1.798h16.708v-1.798h1.855v1.798h16.697v-1.798h1.849v1.798h16.72v-1.798h1.844v1.798h16.719v-1.798h1.838v1.798H85.19v-1.798h1.868v1.798h16.696v-1.798h1.838v1.798h16.72v-1.798h1.843v1.798h16.72v-1.798h1.837v1.798h16.713v-1.798h1.868v1.798h16.69v-1.798h1.845v1.798h16.713v-1.798h1.855v1.798h16.702v-1.798h1.844v1.798h16.714v-1.798h1.867v1.798h16.689v-1.798h1.845v1.798h16.713v-1.798h1.855v1.798h16.703v-1.798h1.867v1.798h16.69v-1.798h1.844v1.798h16.714v-1.798h1.855v1.798H345l.023-91.649h-16.69zM272.684 84.704h24.137v1.868h-24.137z" fill="#ffffff" opacity="1" data-original="#ffffff" class=""></path><path d="M291.242 94h5.579v-1.85h-3.712v-1.862h5.556V94h9.29v-9.296h-1.856v7.446h-1.855v-7.446h-1.856v7.446h-1.856v-7.446h-1.867v3.729h-7.423zM274.551 90.288h5.556V94h9.291v-5.567h-5.579v1.855h3.711v1.862h-5.556v-3.717h-9.29V94h1.867z" fill="#ffffff" opacity="1" data-original="#ffffff" class=""></path><path d="M276.396 92.15h1.844V94h-1.844zM235.546 84.704h24.136v1.868h-24.136z" fill="#ffffff" opacity="1" data-original="#ffffff" class=""></path><path d="M254.115 94h5.567v-1.85h-3.711v-1.862h5.556V94h9.29v-9.296h-1.844v7.446h-1.868v-7.446h-1.844v7.446h-1.867v-7.446h-1.867v3.729h-7.412zM237.414 90.288h5.555V94h9.29v-5.567h-5.567v1.855h3.7v1.862h-5.556v-3.717h-9.29V94h1.868z" fill="#ffffff" opacity="1" data-original="#ffffff" class=""></path><path d="M239.257 92.15h1.845V94h-1.845zM198.419 84.704h24.125v1.868h-24.125z" fill="#ffffff" opacity="1" data-original="#ffffff" class=""></path><path d="M216.989 94h5.555v-1.85h-3.7v-1.862h5.568V94h9.278v-9.296h-1.856v7.446h-1.843v-7.446h-1.868v7.446h-1.856v-7.446h-1.855v3.729h-7.423zM200.275 90.288h5.567V94h9.28v-5.567h-5.556v1.855h3.699v1.862h-5.566v-3.717h-9.28V94h1.856z" fill="#ffffff" opacity="1" data-original="#ffffff" class=""></path><path d="M202.143 92.15h1.844V94h-1.844zM161.293 84.704h24.136v1.868h-24.136z" fill="#ffffff" opacity="1" data-original="#ffffff" class=""></path><path d="M179.85 94h5.567v-1.85h-3.699v-1.862h5.555V94h9.291v-9.296h-1.867v7.446h-1.845v-7.446h-1.855v7.446h-1.856v-7.446h-1.868v3.729h-7.423zM163.137 90.288h5.579V94h9.279v-5.567h-5.568v1.855h3.712v1.862h-5.567v-3.717h-9.279V94h1.844z" fill="#ffffff" opacity="1" data-original="#ffffff" class=""></path><path d="M165.004 92.15h1.845V94h-1.845zM124.155 84.704h24.136v1.868h-24.136z" fill="#ffffff" opacity="1" data-original="#ffffff" class=""></path><path d="M142.724 94h5.568v-1.85h-3.712v-1.862h5.567V94h9.278v-9.296h-1.855v7.446h-1.856v-7.446h-1.843v7.446h-1.869v-7.446h-1.855v3.729h-7.423zM126.017 90.288h5.561V94h9.297v-5.567h-5.573v1.855h3.694v1.862h-5.556v-3.717h-9.285V94h1.862z" fill="#ffffff" opacity="1" data-original="#ffffff" class=""></path><path d="M127.873 92.15h1.85V94h-1.85zM87.035 84.704h24.13v1.868h-24.13z" fill="#ffffff" opacity="1" data-original="#ffffff" class=""></path><path d="M105.592 94h5.561v-1.85h-3.705v-1.862h5.567V94h9.285v-9.296h-1.85v7.446h-1.88v-7.446h-1.838v7.446h-1.867v-7.446h-1.85v3.729h-7.423zM88.885 90.288h5.567V94h9.278v-5.567h-5.561v1.855h3.706v1.862h-5.567v-3.717h-9.273V94h1.85z" fill="#ffffff" opacity="1" data-original="#ffffff" class=""></path><path d="M90.723 92.15h1.868V94h-1.868zM49.902 84.704h24.125v1.868H49.902z" fill="#ffffff" opacity="1" data-original="#ffffff" class=""></path><path d="M68.46 94h5.567v-1.85h-3.7v-1.862h5.556V94h9.284v-9.296h-1.861v7.446H81.45v-7.446h-1.838v7.446h-1.868v-7.446h-1.861v3.729H68.46zM51.752 90.288h5.567V94h9.291v-5.567h-5.573v1.855h3.705v1.862h-5.567v-3.717h-9.273V94h1.85z" fill="#ffffff" opacity="1" data-original="#ffffff" class=""></path><path d="M53.602 92.15h1.856V94h-1.856zM12.764 84.704h24.142v1.868H12.764z" fill="#ffffff" opacity="1" data-original="#ffffff" class=""></path><path d="M31.339 94h5.556v-1.85h-3.706v-1.862h5.573V94h9.273v-9.296h-1.85v7.446h-1.868v-7.446h-1.838v7.446h-1.867v-7.446h-1.85v3.729h-7.423zM14.62 90.288h5.567V94h9.285v-5.567h-5.568v1.855h3.706v1.862h-5.555v-3.717h-9.291V94h1.856z" fill="#ffffff" opacity="1" data-original="#ffffff" class=""></path><path d="M16.47 92.15h1.855V94H16.47zM-24.38 84.704H-.238v1.868H-24.38z" fill="#ffffff" opacity="1" data-original="#ffffff" class=""></path><path d="M-5.805 94h5.567v-1.85h-3.717v-1.862h5.573V94h9.284v-9.296H9.035v7.446h-1.85v-7.446H5.347v7.446H3.468v-7.446h-1.85v3.729h-7.423zM-22.501 90.288h5.544V94h9.296v-5.567h-5.579v1.855h3.718v1.862h-5.556v-3.717h-9.302V94h1.879z" fill="#ffffff" opacity="1" data-original="#ffffff" class=""></path><path d="M-20.663 92.15h1.868V94h-1.868zM-61.5 84.704h24.13v1.868H-61.5z" fill="#ffffff" opacity="1" data-original="#ffffff" class=""></path><path d="M-42.926 94h5.556v-1.85h-3.717v-1.862h5.578V94h9.291v-9.296h-1.867v7.446h-1.851v-7.446h-1.867v7.446h-1.838v-7.446h-1.868v3.729h-7.417zM-59.645 90.288h5.567V94h9.273v-5.567h-5.555v1.855h3.705v1.862h-5.573v-3.717H-61.5V94h1.855z" fill="#ffffff" opacity="1" data-original="#ffffff" class=""></path><path d="M-57.795 92.15h1.861V94h-1.861zM309.799 189.383h24.124v1.867h-24.124z" fill="#ffffff" opacity="1" data-original="#ffffff" class=""></path><path d="M343.203 196.806h-1.856v-7.423h-1.856v7.423h-1.867v-7.423h-1.844v3.712h-7.423v5.578h5.566v-1.867h-3.722v-1.844h5.579v3.711h9.29v-9.29h-1.867zM320.933 194.962h3.712v1.844h-5.579v-3.711h-9.267v5.578h1.844v-3.711h5.556v3.711h9.301v-5.578h-5.567z" fill="#ffffff" opacity="1" data-original="#ffffff" class=""></path><path d="M313.51 196.806h1.845v1.867h-1.845zM272.661 189.383h24.137v1.867h-24.137z" fill="#ffffff" opacity="1" data-original="#ffffff" class=""></path><path d="M306.076 196.806h-1.856v-7.423h-1.867v7.423h-1.845v-7.423h-1.843v3.712h-7.423v5.578h5.555v-1.867h-3.712v-1.844h5.58v3.711h9.266v-9.29h-1.855zM283.795 194.962h3.712v1.844h-5.555v-3.711h-9.291v5.578h1.868v-3.711h5.554v3.711h9.292v-5.578h-5.58z" fill="#ffffff" opacity="1" data-original="#ffffff" class=""></path><path d="M276.373 196.806h1.867v1.867h-1.867zM235.546 189.383h24.124v1.867h-24.124z" fill="#ffffff" opacity="1" data-original="#ffffff" class=""></path><path d="M268.95 196.806h-1.857v-7.423h-1.855v7.423h-1.844v-7.423h-1.867v3.712h-7.424v5.578h5.567v-1.867h-3.722v-1.844h5.579v3.711h9.29v-9.29h-1.867zM246.68 194.962h3.712v1.844h-5.579v-3.711h-9.267v5.578h1.844v-3.711h5.579v3.711h9.279v-5.578h-5.568z" fill="#ffffff" opacity="1" data-original="#ffffff" class=""></path><path d="M239.257 196.806h1.845v1.867h-1.845zM198.408 189.383h24.137v1.867h-24.137z" fill="#ffffff" opacity="1" data-original="#ffffff" class=""></path><path d="M231.823 196.806h-1.856v-7.423H228.1v7.423h-1.845v-7.423H224.4v3.712h-7.435v5.578h5.579v-1.867h-3.711v-1.844h5.567v3.711h9.279v-9.29h-1.856zM209.542 194.962h3.711v1.844h-5.554v-3.711h-9.291v5.578h1.867v-3.711h5.556v3.711h9.291v-5.578h-5.58z" fill="#ffffff" opacity="1" data-original="#ffffff" class=""></path><path d="M202.12 196.806h1.867v1.867h-1.867zM161.293 189.383h24.136v1.867h-24.136z" fill="#ffffff" opacity="1" data-original="#ffffff" class=""></path><path d="M194.697 196.806h-1.857v-7.423h-1.855v7.423h-1.844v-7.423h-1.868v3.712h-7.423v5.578h5.567v-1.867h-3.699v-1.844h5.555v3.711h9.291v-9.29h-1.867zM172.427 194.962h3.712v1.844h-5.579v-3.711h-9.267v5.578h1.844v-3.711h5.579v3.711h9.267v-5.578h-5.556z" fill="#ffffff" opacity="1" data-original="#ffffff" class=""></path><path d="M165.004 196.806h1.845v1.867h-1.845zM124.155 189.383h24.136v1.867h-24.136z" fill="#ffffff" opacity="1" data-original="#ffffff" class=""></path><path d="M157.57 196.806h-1.856v-7.423h-1.867v7.423h-1.845v-7.423h-1.855v3.712h-7.435v5.578h5.58v-1.867h-3.712v-1.844h5.567v3.711h9.278v-9.29h-1.855zM135.29 194.962h3.706v1.844h-5.556v-3.711h-9.285v5.578h1.862v-3.711h5.561v3.711h9.297v-5.578h-5.585z" fill="#ffffff" opacity="1" data-original="#ffffff" class=""></path><path d="M127.873 196.806h1.862v1.867h-1.862zM87.046 189.383h24.13v1.867h-24.13z" fill="#ffffff" opacity="1" data-original="#ffffff" class=""></path><path d="M120.45 196.806h-1.868v-7.423h-1.85v7.423h-1.856v-7.423h-1.861v3.712h-7.423v5.578h5.573v-1.867h-3.706v-1.844h5.556v3.711h9.285v-9.29h-1.85zM98.169 194.962h3.718v1.844h-5.579v-3.711h-9.262v5.578h1.839v-3.711h5.578v3.711h9.267v-5.578h-5.561z" fill="#ffffff" opacity="1" data-original="#ffffff" class=""></path><path d="M90.752 196.806h1.838v1.867h-1.838zM49.902 189.383h24.136v1.867H49.902z" fill="#ffffff" opacity="1" data-original="#ffffff" class=""></path><path d="M83.317 196.806h-1.856v-7.423h-1.849v7.423h-1.868v-7.423h-1.849v3.712H68.46v5.578h5.579v-1.867h-3.712v-1.844h5.568v3.711h9.272v-9.29h-1.85zM61.037 194.962h3.705v1.844h-5.544v-3.711h-9.296v5.578h1.862v-3.711h5.555v3.711h9.303v-5.578h-5.585z" fill="#ffffff" opacity="1" data-original="#ffffff" class=""></path><path d="M53.614 196.806h1.868v1.867h-1.868zM12.776 189.383h24.142v1.867H12.776z" fill="#ffffff" opacity="1" data-original="#ffffff" class=""></path><path d="M46.197 196.806h-1.868v-7.423h-1.85v7.423h-1.855v-7.423h-1.851v3.712h-7.422v5.578h5.555v-1.867h-3.705v-1.844h5.572v3.711h9.273v-9.29h-1.849zM23.916 194.962h3.717v1.844h-5.578v-3.711h-9.279v5.578h1.855v-3.711h5.579v3.711h9.262v-5.578h-5.556z" fill="#ffffff" opacity="1" data-original="#ffffff" class=""></path><path d="M16.493 196.806h1.844v1.867h-1.844zM-24.356 189.383H-.214v1.867h-24.142z" fill="#ffffff" opacity="1" data-original="#ffffff" class=""></path><path d="M9.059 196.806H7.208v-7.423h-1.85v7.423H3.491v-7.423H1.642v3.712h-7.435v5.578h5.579v-1.867h-3.718v-1.844h5.574v3.711h9.284v-9.29H9.059zM-13.216 194.962h3.717v1.844h-5.556v-3.711h-9.301v5.578h1.878v-3.711h5.544v3.711h9.297v-5.578h-5.579z" fill="#ffffff" opacity="1" data-original="#ffffff" class=""></path><path d="M-20.639 196.806h1.867v1.867h-1.867zM-61.478 189.383h24.143v1.867h-24.143z" fill="#ffffff" opacity="1" data-original="#ffffff" class=""></path><path d="M-28.063 196.806h-1.849v-7.423h-1.867v7.423h-1.839v-7.423h-1.861v3.712h-7.423v5.578h5.555v-1.867h-3.717v-1.844h5.585v3.711h9.272v-9.29h-1.856zM-50.325 194.962h3.705v1.844h-5.584v-3.711h-9.274v5.578h1.856v-3.711h5.58v3.711h9.261v-5.578h-5.544z" fill="#ffffff" opacity="1" data-original="#ffffff" class=""></path><path d="M-57.76 196.806h1.838v1.867h-1.838z" fill="#ffffff" opacity="1" data-original="#ffffff" class=""></path></g><g fill="#d8091b"><path d="M175.474 137.82c-1.272-10.353-8.369-18.289-19.457-21.791-.046-.012-.093.012-.14.059-.023.047 0 .123.047.146.059.058 6.326 5.03 10.235 13.41 3.653 7.732 5.953 20.01-3.595 34.669-.023.047-.023.094.023.141.012.023.047.023.07.023h.081c8.908-5.463 14.031-16.177 12.736-26.657zM137.863 115.323c1.039 0 2.568-.309 3.945-1.803 1.371 1.494 2.889 1.803 3.927 1.803 1.786 0 3.56-.957 4.494-2.462.863-1.372.934-2.964.21-4.494a.146.146 0 0 0-.094-.07.14.14 0 0 0-.116.058c-1.354 2.439-2.872 3.683-4.506 3.683-2.171 0-3.81-2.235-3.822-2.247-.047-.058-.157-.058-.192 0-.023.023-1.687 2.247-3.846 2.247-1.64 0-3.157-1.243-4.505-3.683a.128.128 0 0 0-.1-.058c-.046 0-.093.035-.117.07-.729 1.529-.659 3.122.228 4.494.946 1.505 2.703 2.462 4.494 2.462z" fill="#d8091b" opacity="1" data-original="#d8091b" class=""></path><path d="M147.731 168.258c.863-.514 4.528-2.755 8.1-6.676 3.759-4.167 8.217-11.1 8.03-20.577-.957-18.341-10.727-24.153-10.819-24.212a.126.126 0 0 0-.151.023c-.023.035-.047.093 0 .146.046.058 4.364 6.466 5.485 15.377 1.05 8.176-.444 20.208-13.469 31.156l1.132-26.144v-19.386c0-.052-.035-.099-.105-.111-1.389-.344-4.02-3.367-4.043-3.39a.095.095 0 0 0-.082-.053c-.052 0-.076.012-.099.053-.023.023-2.661 3.046-4.062 3.39-.047.012-.093.059-.093.111v19.386l1.12 26.144c-13.025-10.948-14.519-22.98-13.468-31.156 1.149-8.911 5.462-15.307 5.509-15.377.023-.053.023-.111-.023-.146-.035-.047-.094-.047-.146-.023-.093.059-9.868 5.871-10.825 24.212-.169 9.477 4.278 16.41 8.053 20.577 3.577 3.921 7.219 6.162 8.094 6.676-1.068.49-4.902 1.938-12.693 1.938-.046 0-.099.047-.123.116 0 .047.023.094.087.117 3.151 1.097 6.379 1.657 9.606 1.657 3.384 0 5.678-.63 6.122-.759l2.818 3.724c.012 0 .023.023.023.023.023.023.047.023.087.023.035 0 .058 0 .082-.023l.023-.023 2.819-3.724c.443.151 2.73.759 6.115.759 3.233 0 6.466-.561 9.629-1.657a.124.124 0 0 0 .07-.14c0-.047-.059-.094-.129-.094-7.772.001-11.623-1.446-12.674-1.937z" fill="#d8091b" opacity="1" data-original="#d8091b" class=""></path><path d="M117.415 129.656c3.916-8.38 10.207-13.364 10.253-13.422.046-.023.058-.099.035-.146s-.093-.07-.146-.059c-11.088 3.501-18.178 11.438-19.444 21.791-1.29 10.48 3.828 21.194 12.739 26.646h.064a.118.118 0 0 0 .117-.117c0-.023-.012-.047-.035-.07-9.523-14.625-7.207-26.903-3.583-34.623z" fill="#d8091b" opacity="1" data-original="#d8091b" class=""></path></g></g></g></svg>