<?xml version="1.0" encoding="UTF-8"?>
<!-- Created with Inkscape (http://www.inkscape.org/) -->
<svg width="140.26mm" height="140.26mm" version="1.1" viewBox="0 0 140.26 140.26" xmlns="http://www.w3.org/2000/svg" xmlns:xlink="http://www.w3.org/1999/xlink">
 <g transform="translate(-19.614 -12.009)">
  <g transform="translate(960.17 655.77)">
   <g stroke="#000">
    <rect transform="scale(-1,1)" x="800.43" y="-643.63" width="140" height="140" fill="#ce0f25" stop-color="#000000" stroke-width=".26458" style="font-variation-settings:normal;paint-order:fill markers stroke"/>
    <path d="m-870.43-643.61c-2.8628 1.8581-4.5054 5.5195-4.5692 11.513-1.3999-1.1285-3.1804-1.987-4.6044-1.9379-5.0701 0.17563-5.8902 4.774-2.5135 7.4016 1.0022 0.57864 1.9917 0.69768 2.5306 1.4025 0.0092 0.0119 0.01842 0.02409 0.02842 0.03669 0.47564 0.64818 0.62981 1.5474 0.27751 2.8406 0.4552-0.40627 2.6359-0.16762 2.1916-3.0897l-0.00103 5.2e-4c-0.0229-0.05829-0.0468-0.11665-0.0739-0.17725-0.03589-0.07812-0.07589-0.1583-0.11989-0.2403-0.04412-0.08232-0.09199-0.16673-0.14469-0.25373-0.05266-0.08699-0.10993-0.17622-0.17053-0.26872-0.0611-0.09212-0.12626-0.18662-0.19586-0.28422-0.06195-0.08699-0.11736-0.16704-0.16536-0.24184-0.04784-0.0744-0.08974-0.14373-0.12454-0.20723-0.0174-0.0327-0.03313-0.06371-0.04703-0.09301-0.0139-0.0294-0.0268-0.05849-0.0372-0.08579-0.0104-0.0272-0.01939-0.0539-0.02739-0.0801-0.0083-0.0267-0.01361-0.05168-0.01861-0.07648-0.0053-0.0252-0.00944-0.04793-0.01033-0.07183-9.6e-4 -0.0239-9.6e-4 -0.04634 0-0.06924 1e-3 -0.0224 0.00378-0.04395 0.00878-0.06615 0.0048-0.0213 0.00957-0.04238 0.01757-0.06408 0.0073-0.0208 0.01636-0.04196 0.02636-0.06356 0.01-0.0208 0.02244-0.04186 0.03514-0.06356 0.0136-0.0211 0.02822-0.04198 0.04392-0.06408 0.0158-0.0217 0.03256-0.04345 0.05116-0.06615 0.0346-0.04147 0.06971-0.08057 0.10491-0.11627 0.03506-0.0358 0.07055-0.06825 0.10645-0.09715 0.03552-0.0293 0.07182-0.05505 0.10852-0.07855 0.03622-0.0232 0.07382-0.04324 0.11162-0.05994 0.037-0.0167 0.07531-0.03083 0.11421-0.04083 0.03892-0.0112 0.07752-0.01822 0.11782-0.02222 0.0198-0.00338 0.03996-0.00321 0.06046-0.00362 0.0194 0 0.03998-4.1e-4 0.06098 5.2e-4 0.04151 0.0026 0.08331 0.00757 0.12661 0.01757 0.04288 0.0094 0.08737 0.02139 0.13177 0.03669 0.04426 0.0153 0.09116 0.03413 0.13746 0.05633 0.04674 0.0222 0.09454 0.04786 0.14314 0.07596 0.04881 0.0288 0.09835 0.0605 0.14935 0.0956 0.05107 0.03563 0.10349 0.07283 0.15709 0.11473 0.05353 0.04139 0.10794 0.08729 0.16434 0.13539 0.05618 0.04838 0.11319 0.09973 0.17259 0.15503 0.05887 0.0551 0.11967 0.11388 0.18087 0.17518l0.89142 0.89142v0.95653 23.085 5.1e-4h9.1462v-24.042l0.8909-0.89142c0.06185-0.0618 0.12189-0.11988 0.18139-0.17518 0.05887-0.05503 0.11568-0.10693 0.17208-0.15503 0.05618-0.04829 0.11073-0.09319 0.16433-0.13539 0.05351-0.04133 0.1061-0.07963 0.1571-0.11473 0.05125-0.0352 0.10074-0.0675 0.14934-0.0956 0.04866-0.0294 0.09736-0.05376 0.14366-0.07596 0.04644-0.0223 0.09245-0.04113 0.13695-0.05633 0.04468-0.0153 0.08877-0.02669 0.13177-0.03669 0.0432-0.0086 0.08471-0.01457 0.12661-0.01757 0.0202-9.4e-4 0.04099-9.4e-4 0.06149-5.2e-4 0.0201 0 0.04026 6.2e-4 0.06046 0.00362 0.04002 0.0043 0.07893 0.01222 0.11783 0.02222 0.03811 0.0112 0.0764 0.02413 0.1142 0.04083 0.0372 0.0172 0.07441 0.03644 0.11111 0.05994 0.03644 0.0225 0.07313 0.04955 0.10903 0.07855 0.03574 0.0292 0.07074 0.06145 0.10594 0.09715 0.0351 0.03607 0.0702 0.07407 0.1049 0.11627 0.0187 0.0219 0.03598 0.04405 0.05168 0.06615 0.0161 0.0214 0.03071 0.04238 0.04341 0.06408 0.0128 0.0208 0.02514 0.04196 0.03514 0.06356 0.0103 0.0209 0.01784 0.04186 0.02584 0.06356 0.0079 0.0211 0.01308 0.04188 0.01808 0.06408 4e-3 0.0217 0.0078 0.04325 0.00879 0.06615 8.8e-4 0.0228 8.8e-4 0.04534 0 0.06924-2e-3 0.0239-0.00482 0.04693-0.00982 0.07183-5e-3 0.0251-0.0106 0.05068-0.0186 0.07648-7e-3 0.0254-0.01751 0.0529-0.02791 0.0801-0.0112 0.0273-0.02331 0.05649-0.03721 0.08579-0.0138 0.0306-0.02952 0.06121-0.04702 0.09301-0.03464 0.06393-0.07654 0.13243-0.12454 0.20723-0.04818 0.07442-0.10377 0.15484-0.16537 0.24184-0.06957 0.09773-0.13475 0.19172-0.19585 0.28422-0.06112 0.09212-0.11783 0.18172-0.17053 0.26872-0.05221 0.08699-0.10071 0.17173-0.14521 0.25373-0.04367 0.08231-0.08358 0.1619-0.11938 0.2403-0.0284 0.06056-0.05089 0.11845-0.07389 0.17725l-0.00104-5.2e-4c-0.44436 2.9221 1.7365 2.6835 2.1916 3.0897-0.35231-1.2932-0.19814-2.1925 0.2775-2.8406 0.0088-0.0127 0.01894-0.02509 0.02894-0.03669 0.53884-0.70482 1.5279-0.82386 2.5301-1.4025 3.3767-2.6276 2.5566-7.226-2.5135-7.4016-1.4241-0.04934-3.2045 0.80928-4.6044 1.9379-0.06413-5.9935-1.7064-9.6549-4.5692-11.513zm-56.77 56.277c-1.8844 0.02493-3.5477 1.5366-3.652 4.547-0.0491 1.424 0.80932 3.2045 1.9379 4.6044-5.9935 0.0638-9.6549 1.7064-11.513 4.5692 1.8581 2.8628 5.5195 4.5051 11.513 4.5692-1.1286 1.3999-1.9872 3.1803-1.9379 4.6044 0.17563 5.0701 4.774 5.8902 7.4016 2.5135 0.57864-1.0022 0.69768-1.9912 1.4025-2.5301 0.0116-0.01 0.02399-0.02014 0.03669-0.02894 0.64818-0.47564 1.5474-0.62981 2.8406-0.2775-0.40627-0.45514-0.16762-2.636-3.0897-2.1916l5.2e-4 0.00104c-0.0588 0.023-0.11669 0.04549-0.17725 0.07389-0.0784 0.0358-0.15799 0.07571-0.2403 0.11938-0.082 0.0445-0.16674 0.093-0.25373 0.14521-0.087 0.0527-0.1766 0.10941-0.26872 0.17053-0.0925 0.0611-0.18649 0.12628-0.28422 0.19585-0.087 0.0616-0.16742 0.11719-0.24184 0.16537-0.0748 0.048-0.1433 0.0899-0.20723 0.12454-0.0318 0.0175-0.06241 0.03322-0.09301 0.04702-0.0293 0.0139-0.05849 0.02601-0.08579 0.03721-0.0272 0.0104-0.05469 0.0209-0.08009 0.0279-0.0258 8e-3 -0.05139 0.01361-0.07649 0.01861-0.0249 5e-3 -0.04793 0.00782-0.07183 0.00982-0.0239 8.8e-4 -0.04644 8.8e-4 -0.06924 0-0.0229-9.9e-4 -0.04445-0.00479-0.06615-0.00879-0.0222-5e-3 -0.04298-0.01019-0.06408-0.01809-0.0217-8e-3 -0.04266-0.01553-0.06356-0.02583-0.0216-0.01-0.04276-0.02234-0.06356-0.03514-0.0217-0.0127-0.04268-0.02731-0.06408-0.04341-0.0221-0.0157-0.04425-0.03298-0.06615-0.05168-0.0422-0.0347-0.0802-0.0698-0.11627-0.1049-0.0357-0.0352-0.06795-0.0702-0.09715-0.10594-0.029-0.0359-0.05605-0.0726-0.07855-0.10903-0.0235-0.0367-0.04274-0.07391-0.05994-0.11111-0.0167-0.0378-0.02963-0.07609-0.04083-0.1142-0.01-0.0389-0.01792-0.07781-0.02222-0.11783-3e-3 -0.0202-0.00361-0.04036-0.00361-0.06046-4.2e-4 -0.0205-4.3e-4 -0.04129 5.1e-4 -0.06149 3e-3 -0.0419 0.00897-0.08341 0.01757-0.12661 0.01-0.043 0.02139-0.0871 0.03669-0.13178 0.0152-0.04449 0.03403-0.0905 0.05633-0.13694 0.0222-0.0463 0.04656-0.095 0.07596-0.14366 0.0281-0.0486 0.06041-0.09809 0.09561-0.14934 0.0351-0.051 0.07339-0.10359 0.11472-0.1571 0.0422-0.0536 0.0871-0.10815 0.13539-0.16433 0.0481-0.0564 0.1-0.11321 0.15503-0.17208 0.0553-0.0595 0.11338-0.11954 0.17518-0.18139l0.89142-0.8909h24.042v-9.1462h-5.1e-4 -23.085-0.95653l-0.89142-0.89142c-0.0613-0.0612-0.12008-0.122-0.17518-0.18087-0.0553-0.0594-0.10665-0.11642-0.15503-0.1726-0.0481-0.0564-0.094-0.1108-0.13539-0.16433-0.0419-0.0536-0.07909-0.10602-0.11472-0.15709-0.0351-0.051-0.06681-0.10054-0.09561-0.14935-0.0281-0.0486-0.05376-0.0964-0.07596-0.14314-0.0222-0.0463-0.04103-0.0932-0.05633-0.13746-0.0153-0.0444-0.02729-0.0889-0.03669-0.13178-0.01-0.0433-0.01497-0.08509-0.01757-0.1266-9.3e-4 -0.021-5.1e-4 -0.04158-5.1e-4 -0.06098 4.1e-4 -0.0205 2.3e-4 -0.04066 0.00361-0.06046 4e-3 -0.0403 0.01102-0.07891 0.02222-0.11783 0.01-0.0389 0.02413-0.0772 0.04083-0.1142 0.0167-0.0378 0.03674-0.0754 0.05994-0.11162 0.0235-0.0367 0.04925-0.073 0.07855-0.10852 0.0289-0.0359 0.06135-0.0714 0.09715-0.10646 0.0357-0.0352 0.0748-0.0703 0.11627-0.1049 0.0227-0.0186 0.04445-0.03536 0.06615-0.05116 0.0221-0.0157 0.04298-0.03032 0.06408-0.04392 0.0217-0.0127 0.04276-0.02514 0.06356-0.03514 0.0216-0.01 0.04276-0.01906 0.06356-0.02636 0.0217-8e-3 0.04278-0.01277 0.06408-0.01757 0.0222-5e-3 0.04375-0.00778 0.06615-0.00878 0.0229-9.6e-4 0.04534-9.6e-4 0.06924 0 0.0239 8.9e-4 0.04663 0.00452 0.07183 0.00982 0.0248 5e-3 0.04979 0.0103 0.07649 0.0186 0.0262 8e-3 0.05289 0.0175 0.08009 0.0279 0.0273 0.0104 0.05639 0.02331 0.08579 0.03721 0.0293 0.0139 0.06031 0.02963 0.09301 0.04703 0.0635 0.0348 0.13283 0.0767 0.20723 0.12454 0.0748 0.048 0.15485 0.10341 0.24184 0.16536 0.0976 0.0696 0.1921 0.13476 0.28422 0.19586 0.0925 0.0606 0.18173 0.11787 0.26872 0.17053 0.087 0.0527 0.17141 0.10057 0.25373 0.14469 0.082 0.044 0.16218 0.084 0.2403 0.11989 0.0606 0.0271 0.11896 0.051 0.17725 0.0739l-5.2e-4 0.00103c2.9221 0.44432 2.6835-1.7364 3.0897-2.1916-1.2932 0.3523-2.1925 0.19814-2.8406-0.2775-0.0126-0.01-0.02479-0.01922-0.03669-0.02842-0.70482-0.53887-0.82386-1.5284-1.4025-2.5306-1.0675-1.3718-2.4603-2.0505-3.7496-2.0335zm113.54 0c-1.2893-0.01706-2.6822 0.66169-3.7496 2.0335-0.57863 1.0022-0.69767 1.9917-1.4025 2.5306-0.0119 0.0092-0.02409 0.01842-0.03669 0.02842-0.64818 0.47564-1.5474 0.6298-2.8407 0.2775 0.40627 0.4552 0.16763 2.6359 3.0897 2.1916l-5.2e-4 -0.00103c0.05829-0.0229 0.11665-0.0468 0.17725-0.0739 0.07812-0.03589 0.1583-0.07589 0.2403-0.11989 0.08232-0.04412 0.16673-0.09199 0.25373-0.14469 0.08699-0.05266 0.17621-0.10993 0.26871-0.17053 0.09212-0.0611 0.18662-0.12626 0.28422-0.19586 0.08699-0.06195 0.16705-0.11736 0.24185-0.16536 0.0744-0.04784 0.14372-0.08974 0.20722-0.12454 0.0327-0.0174 0.06372-0.03313 0.09302-0.04703 0.0294-0.0139 0.05848-0.02681 0.08578-0.03721 0.0272-0.0104 0.0539-0.0199 0.0801-0.0279 0.0267-0.0083 0.05168-0.0136 0.07648-0.0186 0.0252-0.0053 0.04793-0.00893 0.07183-0.00982 0.0239-9.6e-4 0.04635-9.6e-4 0.06925 0 0.0224 1e-3 0.04395 0.00378 0.06615 0.00878 0.0213 0.0048 0.04237 0.00957 0.06407 0.01757 0.0208 0.0073 0.04197 0.01636 0.06357 0.02636 0.0208 0.01 0.04186 0.02244 0.06356 0.03514 0.0211 0.0136 0.04198 0.02822 0.06408 0.04392 0.0217 0.0158 0.04344 0.03256 0.06614 0.05116 0.04147 0.0346 0.08057 0.0697 0.11627 0.1049 0.0358 0.03506 0.06826 0.07056 0.09716 0.10646 0.0293 0.03552 0.05504 0.07182 0.07854 0.10852 0.0232 0.03622 0.04325 0.07382 0.05995 0.11162 0.0167 0.037 0.03082 0.0753 0.04082 0.1142 0.0112 0.03892 0.01822 0.07753 0.02222 0.11783 0.00338 0.0198 0.00373 0.03996 0.00414 0.06046 0 0.0194 4.1e-4 0.03998-5.2e-4 0.06098-0.0026 0.04151-0.00757 0.0833-0.01757 0.1266-0.0094 0.04288-0.02139 0.08738-0.03669 0.13178-0.0153 0.04426-0.03413 0.09116-0.05633 0.13746-0.0222 0.04674-0.04786 0.09454-0.07596 0.14314-0.0288 0.04881-0.0605 0.09835-0.0956 0.14935-0.03563 0.05107-0.07282 0.10349-0.11472 0.15709-0.04139 0.05353-0.0873 0.10793-0.1354 0.16433-0.04838 0.05618-0.09973 0.1132-0.15503 0.1726-0.05509 0.05887-0.11388 0.11967-0.17518 0.18087l-0.89142 0.89142h-0.95653-23.085-5.2e-4v9.1462h24.042l0.89142 0.8909c0.0618 0.06185 0.11989 0.12189 0.17518 0.18139 0.05503 0.05887 0.10693 0.11568 0.15503 0.17208 0.04829 0.05618 0.0932 0.11073 0.1354 0.16433 0.04133 0.05351 0.07962 0.1061 0.11472 0.1571 0.0352 0.05125 0.0675 0.10074 0.0956 0.14934 0.0294 0.04866 0.05376 0.09736 0.07596 0.14366 0.0223 0.04644 0.04113 0.09245 0.05633 0.13694 0.0153 0.04468 0.02669 0.08878 0.03669 0.13178 0.0086 0.0432 0.01457 0.08471 0.01757 0.12661 9.4e-4 0.0202 9.4e-4 0.04099 5.2e-4 0.06149 0 0.0201-0.00114 0.04026-0.00414 0.06046-0.0043 0.04002-0.01222 0.07893-0.02222 0.11783-0.0112 0.03811-0.02412 0.0764-0.04082 0.1142-0.0172 0.0372-0.03645 0.07441-0.05995 0.11111-0.0225 0.03643-0.04954 0.07313-0.07854 0.10903-0.0292 0.03574-0.06146 0.07074-0.09716 0.10594-0.03607 0.0351-0.07407 0.0702-0.11627 0.1049-0.0219 0.0187-0.04404 0.03598-0.06614 0.05168-0.0214 0.0161-0.04238 0.03071-0.06408 0.04341-0.0208 0.0128-0.04196 0.02514-0.06356 0.03514-0.0209 0.0103-0.04187 0.01783-0.06357 0.02583-0.0211 0.0079-0.04187 0.01309-0.06407 0.01809-0.0217 4e-3 -0.04325 0.0078-0.06615 0.00879-0.0228 8.8e-4 -0.04535 8.8e-4 -0.06925 0-0.0239-2e-3 -0.04693-0.00482-0.07183-0.00982-0.0251-5e-3 -0.05068-0.01061-0.07648-0.01861-0.0254-7e-3 -0.0529-0.0175-0.0801-0.0279-0.0273-0.0112-0.05648-0.02331-0.08578-0.03721-0.0306-0.0138-0.06122-0.02952-0.09302-0.04702-0.06393-0.03464-0.13242-0.07654-0.20722-0.12454-0.07442-0.04818-0.15485-0.10377-0.24185-0.16537-0.09773-0.06957-0.19172-0.13475-0.28422-0.19585-0.09212-0.06112-0.18171-0.11783-0.26871-0.17053-0.08699-0.05221-0.17173-0.10071-0.25373-0.14521-0.08231-0.04367-0.1619-0.08358-0.2403-0.11938-0.06056-0.0284-0.11845-0.05089-0.17725-0.07389l5.2e-4 -0.00104c-2.9221-0.44436-2.6835 1.7365-3.0897 2.1916 1.2932-0.35231 2.1925-0.19814 2.8407 0.2775 0.0127 0.0088 0.02509 0.01894 0.03669 0.02894 0.70482 0.53884 0.82386 1.5279 1.4025 2.5301 2.6276 3.3767 7.226 2.5566 7.4016-2.5135 0.04934-1.4241-0.80929-3.2045-1.9379-4.6044 5.9935-0.06413 9.6549-1.7064 11.513-4.5692-1.8581-2.8628-5.5195-4.5054-11.513-4.5692 1.1285-1.3999 1.987-3.1804 1.9379-4.6044-0.10428-3.0104-1.7676-4.5221-3.652-4.547zm-61.343 42.711v5.2e-4 23.085 0.95653l-0.89142 0.89142c-0.0612 0.0613-0.122 0.12008-0.18087 0.17518-0.0594 0.0553-0.11641 0.10665-0.17259 0.15503-0.0564 0.0481-0.11081 0.09401-0.16434 0.1354-0.0536 0.0419-0.10602 0.07909-0.15709 0.11472-0.051 0.0351-0.10054 0.0668-0.14935 0.0956-0.0486 0.0281-0.0964 0.05376-0.14314 0.07596-0.0463 0.0222-0.0932 0.04103-0.13746 0.05633-0.0444 0.0153-0.08889 0.02729-0.13177 0.03669-0.0433 0.01-0.0851 0.01497-0.12661 0.01757-0.021 9.3e-4 -0.04158 5.2e-4 -0.06098 5.2e-4 -0.0205-4.1e-4 -0.04066-7.6e-4 -0.06046-0.00414-0.0403-4e-3 -0.0789-0.01102-0.11782-0.02222-0.0389-0.01-0.07721-0.02412-0.11421-0.04082-0.0378-0.0167-0.0754-0.03675-0.11162-0.05995-0.0367-0.0235-0.073-0.04925-0.10852-0.07855-0.0359-0.0289-0.07139-0.06135-0.10645-0.09715-0.0352-0.0357-0.07031-0.0748-0.10491-0.11627-0.0186-0.0227-0.03536-0.04444-0.05116-0.06614-0.0157-0.0221-0.03032-0.04298-0.04392-0.06408-0.0127-0.0217-0.02514-0.04277-0.03514-0.06357-0.01-0.0216-0.01906-0.04276-0.02636-0.06356-8e-3 -0.0217-0.01277-0.04278-0.01757-0.06408-5e-3 -0.0222-0.00778-0.04374-0.00878-0.06614-9.6e-4 -0.0229-9.6e-4 -0.04535 0-0.06925 8.9e-4 -0.0239 0.00503-0.04663 0.01033-0.07183 5e-3 -0.0248 0.01031-0.04978 0.01861-0.07648 8e-3 -0.0262 0.01699-0.0529 0.02739-0.0801 0.0104-0.0273 0.0233-0.05638 0.0372-0.08578 0.0139-0.0293 0.02963-0.06032 0.04703-0.09302 0.0348-0.0635 0.0767-0.13282 0.12454-0.20722 0.048-0.0748 0.10341-0.15486 0.16536-0.24185 0.0696-0.0976 0.13476-0.1921 0.19586-0.28422 0.0606-0.0925 0.11787-0.18173 0.17053-0.26871 0.0527-0.087 0.10057-0.17142 0.14469-0.25374 0.044-0.082 0.084-0.16217 0.11989-0.24029 0.0271-0.0606 0.051-0.11896 0.0739-0.17725l0.00103 5.1e-4c0.44432-2.9221-1.7364-2.6835-2.1916-3.0897 0.3523 1.2932 0.19813 2.1925-0.27751 2.8406-0.01 0.0126-0.01922 0.02479-0.02842 0.03669-0.53887 0.70482-1.5284 0.82386-2.5306 1.4025-3.3767 2.6276-2.5566 7.226 2.5135 7.4016 1.424 0.0491 3.2045-0.80933 4.6044-1.9379 0.0638 5.9935 1.7064 9.6549 4.5692 11.513 2.8628-1.8581 4.5051-5.5195 4.5692-11.513 1.3999 1.1286 3.1803 1.9872 4.6044 1.9379 5.0701-0.17563 5.8902-4.774 2.5135-7.4016-1.0022-0.57864-1.9912-0.69768-2.5301-1.4025-0.01-0.0116-0.02014-0.02399-0.02894-0.03669-0.47564-0.64817-0.62981-1.5474-0.2775-2.8406-0.45514 0.40627-2.636 0.16763-2.1916 3.0897l0.00104-5.1e-4c0.023 0.0588 0.04549 0.11669 0.07389 0.17725 0.0358 0.0784 0.07571 0.15798 0.11938 0.24029 0.0445 0.082 0.093 0.16675 0.14521 0.25374 0.0527 0.08699 0.10941 0.17659 0.17053 0.26871 0.0611 0.0925 0.12628 0.18649 0.19585 0.28422 0.0616 0.087 0.11719 0.16743 0.16537 0.24185 0.048 0.0748 0.0899 0.14329 0.12454 0.20722 0.0175 0.0318 0.03322 0.06242 0.04702 0.09302 0.0139 0.0293 0.02601 0.05848 0.03721 0.08578 0.0104 0.0272 0.02091 0.0547 0.02791 0.0801 8e-3 0.0258 0.0136 0.05138 0.0186 0.07648 5e-3 0.0249 0.00782 0.04793 0.00982 0.07183 8.8e-4 0.0239 8.8e-4 0.04645 0 0.06925-9.9e-4 0.0229-0.00479 0.04444-0.00879 0.06614-5e-3 0.0222-0.01018 0.04298-0.01808 0.06408-8e-3 0.0217-0.01554 0.04266-0.02584 0.06356-0.01 0.0216-0.02234 0.04277-0.03514 0.06357-0.0127 0.0217-0.02731 0.04268-0.04341 0.06408-0.0157 0.0221-0.03298 0.04424-0.05168 0.06614-0.0347 0.0422-0.0698 0.0802-0.1049 0.11627-0.0352 0.0357-0.0702 0.06795-0.10594 0.09715-0.0359 0.029-0.07259 0.05605-0.10903 0.07855-0.0367 0.0235-0.07391 0.04275-0.11111 0.05995-0.0378 0.0167-0.07609 0.02962-0.1142 0.04082-0.0389 0.01-0.07781 0.01792-0.11783 0.02222-0.0202 3e-3 -0.04036 0.00414-0.06046 0.00414-0.0205 4.2e-4 -0.04129 4.2e-4 -0.06149-5.2e-4 -0.0419-3e-3 -0.08341-0.00897-0.12661-0.01757-0.043-0.01-0.08709-0.02139-0.13177-0.03669-0.0445-0.0152-0.09051-0.03403-0.13695-0.05633-0.0463-0.0222-0.095-0.04656-0.14366-0.07596-0.0486-0.0281-0.09809-0.0604-0.14934-0.0956-0.051-0.0351-0.10359-0.07339-0.1571-0.11472-0.0536-0.0422-0.10815-0.08711-0.16433-0.1354-0.0564-0.0481-0.11321-0.1-0.17208-0.15503-0.0595-0.0553-0.11954-0.11338-0.18139-0.17518l-0.8909-0.89142v-24.042h-9.1462z" fill="#008000" stop-color="#000000" stroke-width=".24609" style="-inkscape-stroke:none;font-variation-settings:normal;paint-order:fill markers stroke"/>
    <rect transform="scale(-1,1)" x="825.43" y="-618.63" width="90" height="90" fill="#fff" stop-color="#000000" stroke-width=".26458" style="font-variation-settings:normal;paint-order:fill markers stroke"/>
   </g>
   <g transform="matrix(-1 0 0 1 -1686.2 .067533)" stroke="#000" stroke-width=".26458">
    <g fill="#fc0">
     <path d="m-868.37-633.47 2.6329 9.8278-10.267-1.0614-4.8064 1.0614 2.6329-9.8278z" stop-color="#000000" style="font-variation-settings:normal;paint-order:fill markers stroke"/>
     <path d="m-878.24-638.79v5.2917h9.9167v-5.2917h-1.9833v2.6458h-1.9833v-2.6458h-1.9833v2.6458h-1.9833v-2.6458z" stop-color="#000000" style="font-variation-settings:normal;paint-order:fill markers stroke"/>
     <rect x="-881.36" y="-634.56" width="16.161" height="2.0201" stop-color="#000000" style="font-variation-settings:normal;paint-order:fill markers stroke"/>
     <path d="m-881.36-628.61-1.3312 4.9682h18.824l-1.3312-4.9682z" stop-color="#000000" style="font-variation-settings:normal;paint-order:fill markers stroke"/>
    </g>
    <g fill="#003278">
     <path d="m-873.28-628.61a2.8938 3.3306 0 0 0-2.8939 3.3306v1.6376h5.7878v-1.6376h-5.1e-4a2.8938 3.3306 0 0 0-2.8934-3.3306z" stop-color="#000000" style="font-variation-settings:normal;paint-order:fill markers stroke"/>
     <path d="m-870.59-632.01c-0.41591 0-0.75034 0.33494-0.75034 0.75085v0.60048c0 0.41591 0.33443 0.75086 0.75034 0.75086s0.75086-0.33495 0.75086-0.75086v-0.60048c0-0.41591-0.33495-0.75085-0.75086-0.75085z" stop-color="#000000" style="font-variation-settings:normal;paint-order:fill markers stroke"/>
     <path d="m-875.97-632.01c0.41591 0 0.75034 0.33494 0.75034 0.75085v0.60048c0 0.41591-0.33443 0.75086-0.75034 0.75086s-0.75086-0.33495-0.75086-0.75086v-0.60048c0-0.41591 0.33495-0.75085 0.75086-0.75085z" stop-color="#000000" style="font-variation-settings:normal;paint-order:fill markers stroke"/>
    </g>
   </g>
   <g transform="translate(-54.647 .067533)" stroke="#000" stroke-width=".26458">
    <g fill="#fc0">
     <path d="m-868.37-633.47 2.6329 9.8278-10.267-1.0614-4.8064 1.0614 2.6329-9.8278z" stop-color="#000000" style="font-variation-settings:normal;paint-order:fill markers stroke"/>
     <path d="m-878.24-638.79v5.2917h9.9167v-5.2917h-1.9833v2.6458h-1.9833v-2.6458h-1.9833v2.6458h-1.9833v-2.6458z" stop-color="#000000" style="font-variation-settings:normal;paint-order:fill markers stroke"/>
     <rect x="-881.36" y="-634.56" width="16.161" height="2.0201" stop-color="#000000" style="font-variation-settings:normal;paint-order:fill markers stroke"/>
     <path d="m-881.36-628.61-1.3312 4.9682h18.824l-1.3312-4.9682z" stop-color="#000000" style="font-variation-settings:normal;paint-order:fill markers stroke"/>
    </g>
    <g fill="#003278">
     <path d="m-873.28-628.61a2.8938 3.3306 0 0 0-2.8939 3.3306v1.6376h5.7878v-1.6376h-5.1e-4a2.8938 3.3306 0 0 0-2.8934-3.3306z" stop-color="#000000" style="font-variation-settings:normal;paint-order:fill markers stroke"/>
     <path d="m-870.59-632.01c-0.41591 0-0.75034 0.33494-0.75034 0.75085v0.60048c0 0.41591 0.33443 0.75086 0.75034 0.75086s0.75086-0.33495 0.75086-0.75086v-0.60048c0-0.41591-0.33495-0.75085-0.75086-0.75085z" stop-color="#000000" style="font-variation-settings:normal;paint-order:fill markers stroke"/>
     <path d="m-875.97-632.01c0.41591 0 0.75034 0.33494 0.75034 0.75085v0.60048c0 0.41591-0.33443 0.75086-0.75034 0.75086s-0.75086-0.33495-0.75086-0.75086v-0.60048c0-0.41591 0.33495-0.75085 0.75086-0.75085z" stop-color="#000000" style="font-variation-settings:normal;paint-order:fill markers stroke"/>
    </g>
   </g>
   <g transform="translate(-54.647 115.07)" stroke="#000" stroke-width=".26458">
    <g fill="#fc0">
     <path d="m-868.37-633.47 2.6329 9.8278-10.267-1.0614-4.8064 1.0614 2.6329-9.8278z" stop-color="#000000" style="font-variation-settings:normal;paint-order:fill markers stroke"/>
     <path d="m-878.24-638.79v5.2917h9.9167v-5.2917h-1.9833v2.6458h-1.9833v-2.6458h-1.9833v2.6458h-1.9833v-2.6458z" stop-color="#000000" style="font-variation-settings:normal;paint-order:fill markers stroke"/>
     <rect x="-881.36" y="-634.56" width="16.161" height="2.0201" stop-color="#000000" style="font-variation-settings:normal;paint-order:fill markers stroke"/>
     <path d="m-881.36-628.61-1.3312 4.9682h18.824l-1.3312-4.9682z" stop-color="#000000" style="font-variation-settings:normal;paint-order:fill markers stroke"/>
    </g>
    <g fill="#003278">
     <path d="m-873.28-628.61a2.8938 3.3306 0 0 0-2.8939 3.3306v1.6376h5.7878v-1.6376h-5.1e-4a2.8938 3.3306 0 0 0-2.8934-3.3306z" stop-color="#000000" style="font-variation-settings:normal;paint-order:fill markers stroke"/>
     <path d="m-870.59-632.01c-0.41591 0-0.75034 0.33494-0.75034 0.75085v0.60048c0 0.41591 0.33443 0.75086 0.75034 0.75086s0.75086-0.33495 0.75086-0.75086v-0.60048c0-0.41591-0.33495-0.75085-0.75086-0.75085z" stop-color="#000000" style="font-variation-settings:normal;paint-order:fill markers stroke"/>
     <path d="m-875.97-632.01c0.41591 0 0.75034 0.33494 0.75034 0.75085v0.60048c0 0.41591-0.33443 0.75086-0.75034 0.75086s-0.75086-0.33495-0.75086-0.75086v-0.60048c0-0.41591 0.33495-0.75085 0.75086-0.75085z" stop-color="#000000" style="font-variation-settings:normal;paint-order:fill markers stroke"/>
    </g>
   </g>
   <g transform="matrix(-1 0 0 1 -1686.2 115.07)" stroke="#000" stroke-width=".26458">
    <g fill="#fc0">
     <path d="m-868.37-633.47 2.6329 9.8278-10.267-1.0614-4.8064 1.0614 2.6329-9.8278z" stop-color="#000000" style="font-variation-settings:normal;paint-order:fill markers stroke"/>
     <path d="m-878.24-638.79v5.2917h9.9167v-5.2917h-1.9833v2.6458h-1.9833v-2.6458h-1.9833v2.6458h-1.9833v-2.6458z" stop-color="#000000" style="font-variation-settings:normal;paint-order:fill markers stroke"/>
     <rect x="-881.36" y="-634.56" width="16.161" height="2.0201" stop-color="#000000" style="font-variation-settings:normal;paint-order:fill markers stroke"/>
     <path d="m-881.36-628.61-1.3312 4.9682h18.824l-1.3312-4.9682z" stop-color="#000000" style="font-variation-settings:normal;paint-order:fill markers stroke"/>
    </g>
    <g fill="#003278">
     <path d="m-873.28-628.61a2.8938 3.3306 0 0 0-2.8939 3.3306v1.6376h5.7878v-1.6376h-5.1e-4a2.8938 3.3306 0 0 0-2.8934-3.3306z" stop-color="#000000" style="font-variation-settings:normal;paint-order:fill markers stroke"/>
     <path d="m-870.59-632.01c-0.41591 0-0.75034 0.33494-0.75034 0.75085v0.60048c0 0.41591 0.33443 0.75086 0.75034 0.75086s0.75086-0.33495 0.75086-0.75086v-0.60048c0-0.41591-0.33495-0.75085-0.75086-0.75085z" stop-color="#000000" style="font-variation-settings:normal;paint-order:fill markers stroke"/>
     <path d="m-875.97-632.01c0.41591 0 0.75034 0.33494 0.75034 0.75085v0.60048c0 0.41591-0.33443 0.75086-0.75034 0.75086s-0.75086-0.33495-0.75086-0.75086v-0.60048c0-0.41591 0.33495-0.75085 0.75086-0.75085z" stop-color="#000000" style="font-variation-settings:normal;paint-order:fill markers stroke"/>
    </g>
   </g>
   <g transform="translate(-25.897 .067533)" stroke="#000" stroke-width=".26458">
    <g fill="#fc0">
     <path d="m-868.37-633.47 2.6329 9.8278-10.267-1.0614-4.8064 1.0614 2.6329-9.8278z" stop-color="#000000" style="font-variation-settings:normal;paint-order:fill markers stroke"/>
     <path d="m-878.24-638.79v5.2917h9.9167v-5.2917h-1.9833v2.6458h-1.9833v-2.6458h-1.9833v2.6458h-1.9833v-2.6458z" stop-color="#000000" style="font-variation-settings:normal;paint-order:fill markers stroke"/>
     <rect x="-881.36" y="-634.56" width="16.161" height="2.0201" stop-color="#000000" style="font-variation-settings:normal;paint-order:fill markers stroke"/>
     <path d="m-881.36-628.61-1.3312 4.9682h18.824l-1.3312-4.9682z" stop-color="#000000" style="font-variation-settings:normal;paint-order:fill markers stroke"/>
    </g>
    <g fill="#003278">
     <path d="m-873.28-628.61a2.8938 3.3306 0 0 0-2.8939 3.3306v1.6376h5.7878v-1.6376h-5.1e-4a2.8938 3.3306 0 0 0-2.8934-3.3306z" stop-color="#000000" style="font-variation-settings:normal;paint-order:fill markers stroke"/>
     <path d="m-870.59-632.01c-0.41591 0-0.75034 0.33494-0.75034 0.75085v0.60048c0 0.41591 0.33443 0.75086 0.75034 0.75086s0.75086-0.33495 0.75086-0.75086v-0.60048c0-0.41591-0.33495-0.75085-0.75086-0.75085z" stop-color="#000000" style="font-variation-settings:normal;paint-order:fill markers stroke"/>
     <path d="m-875.97-632.01c0.41591 0 0.75034 0.33494 0.75034 0.75085v0.60048c0 0.41591-0.33443 0.75086-0.75034 0.75086s-0.75086-0.33495-0.75086-0.75086v-0.60048c0-0.41591 0.33495-0.75085 0.75086-0.75085z" stop-color="#000000" style="font-variation-settings:normal;paint-order:fill markers stroke"/>
    </g>
   </g>
   <g transform="matrix(-1 0 0 1 -1715 .067533)" stroke="#000" stroke-width=".26458">
    <g fill="#fc0">
     <path d="m-868.37-633.47 2.6329 9.8278-10.267-1.0614-4.8064 1.0614 2.6329-9.8278z" stop-color="#000000" style="font-variation-settings:normal;paint-order:fill markers stroke"/>
     <path d="m-878.24-638.79v5.2917h9.9167v-5.2917h-1.9833v2.6458h-1.9833v-2.6458h-1.9833v2.6458h-1.9833v-2.6458z" stop-color="#000000" style="font-variation-settings:normal;paint-order:fill markers stroke"/>
     <rect x="-881.36" y="-634.56" width="16.161" height="2.0201" stop-color="#000000" style="font-variation-settings:normal;paint-order:fill markers stroke"/>
     <path d="m-881.36-628.61-1.3312 4.9682h18.824l-1.3312-4.9682z" stop-color="#000000" style="font-variation-settings:normal;paint-order:fill markers stroke"/>
    </g>
    <g fill="#003278">
     <path d="m-873.28-628.61a2.8938 3.3306 0 0 0-2.8939 3.3306v1.6376h5.7878v-1.6376h-5.1e-4a2.8938 3.3306 0 0 0-2.8934-3.3306z" stop-color="#000000" style="font-variation-settings:normal;paint-order:fill markers stroke"/>
     <path d="m-870.59-632.01c-0.41591 0-0.75034 0.33494-0.75034 0.75085v0.60048c0 0.41591 0.33443 0.75086 0.75034 0.75086s0.75086-0.33495 0.75086-0.75086v-0.60048c0-0.41591-0.33495-0.75085-0.75086-0.75085z" stop-color="#000000" style="font-variation-settings:normal;paint-order:fill markers stroke"/>
     <path d="m-875.97-632.01c0.41591 0 0.75034 0.33494 0.75034 0.75085v0.60048c0 0.41591-0.33443 0.75086-0.75034 0.75086s-0.75086-0.33495-0.75086-0.75086v-0.60048c0-0.41591 0.33495-0.75085 0.75086-0.75085z" stop-color="#000000" style="font-variation-settings:normal;paint-order:fill markers stroke"/>
    </g>
   </g>
   <g transform="translate(-25.897 115.07)" stroke="#000" stroke-width=".26458">
    <g fill="#fc0">
     <path d="m-868.37-633.47 2.6329 9.8278-10.267-1.0614-4.8064 1.0614 2.6329-9.8278z" stop-color="#000000" style="font-variation-settings:normal;paint-order:fill markers stroke"/>
     <path d="m-878.24-638.79v5.2917h9.9167v-5.2917h-1.9833v2.6458h-1.9833v-2.6458h-1.9833v2.6458h-1.9833v-2.6458z" stop-color="#000000" style="font-variation-settings:normal;paint-order:fill markers stroke"/>
     <rect x="-881.36" y="-634.56" width="16.161" height="2.0201" stop-color="#000000" style="font-variation-settings:normal;paint-order:fill markers stroke"/>
     <path d="m-881.36-628.61-1.3312 4.9682h18.824l-1.3312-4.9682z" stop-color="#000000" style="font-variation-settings:normal;paint-order:fill markers stroke"/>
    </g>
    <g fill="#003278">
     <path d="m-873.28-628.61a2.8938 3.3306 0 0 0-2.8939 3.3306v1.6376h5.7878v-1.6376h-5.1e-4a2.8938 3.3306 0 0 0-2.8934-3.3306z" stop-color="#000000" style="font-variation-settings:normal;paint-order:fill markers stroke"/>
     <path d="m-870.59-632.01c-0.41591 0-0.75034 0.33494-0.75034 0.75085v0.60048c0 0.41591 0.33443 0.75086 0.75034 0.75086s0.75086-0.33495 0.75086-0.75086v-0.60048c0-0.41591-0.33495-0.75085-0.75086-0.75085z" stop-color="#000000" style="font-variation-settings:normal;paint-order:fill markers stroke"/>
     <path d="m-875.97-632.01c0.41591 0 0.75034 0.33494 0.75034 0.75085v0.60048c0 0.41591-0.33443 0.75086-0.75034 0.75086s-0.75086-0.33495-0.75086-0.75086v-0.60048c0-0.41591 0.33495-0.75085 0.75086-0.75085z" stop-color="#000000" style="font-variation-settings:normal;paint-order:fill markers stroke"/>
    </g>
   </g>
   <g transform="matrix(-1 0 0 1 -1715 115.07)" stroke="#000" stroke-width=".26458">
    <g fill="#fc0">
     <path d="m-868.37-633.47 2.6329 9.8278-10.267-1.0614-4.8064 1.0614 2.6329-9.8278z" stop-color="#000000" style="font-variation-settings:normal;paint-order:fill markers stroke"/>
     <path d="m-878.24-638.79v5.2917h9.9167v-5.2917h-1.9833v2.6458h-1.9833v-2.6458h-1.9833v2.6458h-1.9833v-2.6458z" stop-color="#000000" style="font-variation-settings:normal;paint-order:fill markers stroke"/>
     <rect x="-881.36" y="-634.56" width="16.161" height="2.0201" stop-color="#000000" style="font-variation-settings:normal;paint-order:fill markers stroke"/>
     <path d="m-881.36-628.61-1.3312 4.9682h18.824l-1.3312-4.9682z" stop-color="#000000" style="font-variation-settings:normal;paint-order:fill markers stroke"/>
    </g>
    <g fill="#003278">
     <path d="m-873.28-628.61a2.8938 3.3306 0 0 0-2.8939 3.3306v1.6376h5.7878v-1.6376h-5.1e-4a2.8938 3.3306 0 0 0-2.8934-3.3306z" stop-color="#000000" style="font-variation-settings:normal;paint-order:fill markers stroke"/>
     <path d="m-870.59-632.01c-0.41591 0-0.75034 0.33494-0.75034 0.75085v0.60048c0 0.41591 0.33443 0.75086 0.75034 0.75086s0.75086-0.33495 0.75086-0.75086v-0.60048c0-0.41591-0.33495-0.75085-0.75086-0.75085z" stop-color="#000000" style="font-variation-settings:normal;paint-order:fill markers stroke"/>
     <path d="m-875.97-632.01c0.41591 0 0.75034 0.33494 0.75034 0.75085v0.60048c0 0.41591-0.33443 0.75086-0.75034 0.75086s-0.75086-0.33495-0.75086-0.75086v-0.60048c0-0.41591 0.33495-0.75085 0.75086-0.75085z" stop-color="#000000" style="font-variation-settings:normal;paint-order:fill markers stroke"/>
    </g>
   </g>
   <g transform="matrix(-1 0 0 1 -1686.2 86.318)" stroke="#000" stroke-width=".26458">
    <g fill="#fc0">
     <path d="m-868.37-633.47 2.6329 9.8278-10.267-1.0614-4.8064 1.0614 2.6329-9.8278z" stop-color="#000000" style="font-variation-settings:normal;paint-order:fill markers stroke"/>
     <path d="m-878.24-638.79v5.2917h9.9167v-5.2917h-1.9833v2.6458h-1.9833v-2.6458h-1.9833v2.6458h-1.9833v-2.6458z" stop-color="#000000" style="font-variation-settings:normal;paint-order:fill markers stroke"/>
     <rect x="-881.36" y="-634.56" width="16.161" height="2.0201" stop-color="#000000" style="font-variation-settings:normal;paint-order:fill markers stroke"/>
     <path d="m-881.36-628.61-1.3312 4.9682h18.824l-1.3312-4.9682z" stop-color="#000000" style="font-variation-settings:normal;paint-order:fill markers stroke"/>
    </g>
    <g fill="#003278">
     <path d="m-873.28-628.61a2.8938 3.3306 0 0 0-2.8939 3.3306v1.6376h5.7878v-1.6376h-5.1e-4a2.8938 3.3306 0 0 0-2.8934-3.3306z" stop-color="#000000" style="font-variation-settings:normal;paint-order:fill markers stroke"/>
     <path d="m-870.59-632.01c-0.41591 0-0.75034 0.33494-0.75034 0.75085v0.60048c0 0.41591 0.33443 0.75086 0.75034 0.75086s0.75086-0.33495 0.75086-0.75086v-0.60048c0-0.41591-0.33495-0.75085-0.75086-0.75085z" stop-color="#000000" style="font-variation-settings:normal;paint-order:fill markers stroke"/>
     <path d="m-875.97-632.01c0.41591 0 0.75034 0.33494 0.75034 0.75085v0.60048c0 0.41591-0.33443 0.75086-0.75034 0.75086s-0.75086-0.33495-0.75086-0.75086v-0.60048c0-0.41591 0.33495-0.75085 0.75086-0.75085z" stop-color="#000000" style="font-variation-settings:normal;paint-order:fill markers stroke"/>
    </g>
   </g>
   <g transform="translate(-54.647 86.318)" stroke="#000" stroke-width=".26458">
    <g fill="#fc0">
     <path d="m-868.37-633.47 2.6329 9.8278-10.267-1.0614-4.8064 1.0614 2.6329-9.8278z" stop-color="#000000" style="font-variation-settings:normal;paint-order:fill markers stroke"/>
     <path d="m-878.24-638.79v5.2917h9.9167v-5.2917h-1.9833v2.6458h-1.9833v-2.6458h-1.9833v2.6458h-1.9833v-2.6458z" stop-color="#000000" style="font-variation-settings:normal;paint-order:fill markers stroke"/>
     <rect x="-881.36" y="-634.56" width="16.161" height="2.0201" stop-color="#000000" style="font-variation-settings:normal;paint-order:fill markers stroke"/>
     <path d="m-881.36-628.61-1.3312 4.9682h18.824l-1.3312-4.9682z" stop-color="#000000" style="font-variation-settings:normal;paint-order:fill markers stroke"/>
    </g>
    <g fill="#003278">
     <path d="m-873.28-628.61a2.8938 3.3306 0 0 0-2.8939 3.3306v1.6376h5.7878v-1.6376h-5.1e-4a2.8938 3.3306 0 0 0-2.8934-3.3306z" stop-color="#000000" style="font-variation-settings:normal;paint-order:fill markers stroke"/>
     <path d="m-870.59-632.01c-0.41591 0-0.75034 0.33494-0.75034 0.75085v0.60048c0 0.41591 0.33443 0.75086 0.75034 0.75086s0.75086-0.33495 0.75086-0.75086v-0.60048c0-0.41591-0.33495-0.75085-0.75086-0.75085z" stop-color="#000000" style="font-variation-settings:normal;paint-order:fill markers stroke"/>
     <path d="m-875.97-632.01c0.41591 0 0.75034 0.33494 0.75034 0.75085v0.60048c0 0.41591-0.33443 0.75086-0.75034 0.75086s-0.75086-0.33495-0.75086-0.75086v-0.60048c0-0.41591 0.33495-0.75085 0.75086-0.75085z" stop-color="#000000" style="font-variation-settings:normal;paint-order:fill markers stroke"/>
    </g>
   </g>
   <g transform="translate(-54.647 28.818)" stroke="#000" stroke-width=".26458">
    <g fill="#fc0">
     <path d="m-868.37-633.47 2.6329 9.8278-10.267-1.0614-4.8064 1.0614 2.6329-9.8278z" stop-color="#000000" style="font-variation-settings:normal;paint-order:fill markers stroke"/>
     <path d="m-878.24-638.79v5.2917h9.9167v-5.2917h-1.9833v2.6458h-1.9833v-2.6458h-1.9833v2.6458h-1.9833v-2.6458z" stop-color="#000000" style="font-variation-settings:normal;paint-order:fill markers stroke"/>
     <rect x="-881.36" y="-634.56" width="16.161" height="2.0201" stop-color="#000000" style="font-variation-settings:normal;paint-order:fill markers stroke"/>
     <path d="m-881.36-628.61-1.3312 4.9682h18.824l-1.3312-4.9682z" stop-color="#000000" style="font-variation-settings:normal;paint-order:fill markers stroke"/>
    </g>
    <g fill="#003278">
     <path d="m-873.28-628.61a2.8938 3.3306 0 0 0-2.8939 3.3306v1.6376h5.7878v-1.6376h-5.1e-4a2.8938 3.3306 0 0 0-2.8934-3.3306z" stop-color="#000000" style="font-variation-settings:normal;paint-order:fill markers stroke"/>
     <path d="m-870.59-632.01c-0.41591 0-0.75034 0.33494-0.75034 0.75085v0.60048c0 0.41591 0.33443 0.75086 0.75034 0.75086s0.75086-0.33495 0.75086-0.75086v-0.60048c0-0.41591-0.33495-0.75085-0.75086-0.75085z" stop-color="#000000" style="font-variation-settings:normal;paint-order:fill markers stroke"/>
     <path d="m-875.97-632.01c0.41591 0 0.75034 0.33494 0.75034 0.75085v0.60048c0 0.41591-0.33443 0.75086-0.75034 0.75086s-0.75086-0.33495-0.75086-0.75086v-0.60048c0-0.41591 0.33495-0.75085 0.75086-0.75085z" stop-color="#000000" style="font-variation-settings:normal;paint-order:fill markers stroke"/>
    </g>
   </g>
   <g transform="matrix(-1 0 0 1 -1686.2 28.818)" stroke="#000" stroke-width=".26458">
    <g fill="#fc0">
     <path d="m-868.37-633.47 2.6329 9.8278-10.267-1.0614-4.8064 1.0614 2.6329-9.8278z" stop-color="#000000" style="font-variation-settings:normal;paint-order:fill markers stroke"/>
     <path d="m-878.24-638.79v5.2917h9.9167v-5.2917h-1.9833v2.6458h-1.9833v-2.6458h-1.9833v2.6458h-1.9833v-2.6458z" stop-color="#000000" style="font-variation-settings:normal;paint-order:fill markers stroke"/>
     <rect x="-881.36" y="-634.56" width="16.161" height="2.0201" stop-color="#000000" style="font-variation-settings:normal;paint-order:fill markers stroke"/>
     <path d="m-881.36-628.61-1.3312 4.9682h18.824l-1.3312-4.9682z" stop-color="#000000" style="font-variation-settings:normal;paint-order:fill markers stroke"/>
    </g>
    <g fill="#003278">
     <path d="m-873.28-628.61a2.8938 3.3306 0 0 0-2.8939 3.3306v1.6376h5.7878v-1.6376h-5.1e-4a2.8938 3.3306 0 0 0-2.8934-3.3306z" stop-color="#000000" style="font-variation-settings:normal;paint-order:fill markers stroke"/>
     <path d="m-870.59-632.01c-0.41591 0-0.75034 0.33494-0.75034 0.75085v0.60048c0 0.41591 0.33443 0.75086 0.75034 0.75086s0.75086-0.33495 0.75086-0.75086v-0.60048c0-0.41591-0.33495-0.75085-0.75086-0.75085z" stop-color="#000000" style="font-variation-settings:normal;paint-order:fill markers stroke"/>
     <path d="m-875.97-632.01c0.41591 0 0.75034 0.33494 0.75034 0.75085v0.60048c0 0.41591-0.33443 0.75086-0.75034 0.75086s-0.75086-0.33495-0.75086-0.75086v-0.60048c0-0.41591 0.33495-0.75085 0.75086-0.75085z" stop-color="#000000" style="font-variation-settings:normal;paint-order:fill markers stroke"/>
    </g>
   </g>
   <g transform="matrix(.85168 0 0 .85168 -142.57 -192.15)">
    <g id="g51199" transform="matrix(.87656 0 0 .87656 -105.49 -55.292)">
     <path d="m-867.71-460.65c7.6363-2.9608 18.545-2.9608 26.182 0 0 11.843-4.3636 21.712-13.091 27.634-8.7272-5.9215-13.091-15.791-13.091-27.634z" fill="#003278" stop-color="#000000" stroke="#000" stroke-width=".31066" style="-inkscape-stroke:none;font-variation-settings:normal;paint-order:fill markers stroke"/>
     <g transform="matrix(.22024 0 0 .22024 -964.45 -505.09)" fill="#fff" stroke="#003380" stroke-width="1.333">
      <circle cx="463.73" cy="214.95" r="8.252" fill="#fff" stop-color="#000000" stroke="#000" stroke-width="1.4105" style="-inkscape-stroke:none;font-variation-settings:normal;paint-order:fill markers stroke"/>
      <circle cx="498.68" cy="214.95" r="8.252" fill="#fff" stop-color="#000000" stroke="#000" stroke-width="1.4105" style="-inkscape-stroke:none;font-variation-settings:normal;paint-order:fill markers stroke"/>
      <circle cx="533.63" cy="214.95" r="8.252" fill="#fff" stop-color="#000000" stroke="#000" stroke-width="1.4105" style="-inkscape-stroke:none;font-variation-settings:normal;paint-order:fill markers stroke"/>
      <circle cx="481.21" cy="237.28" r="8.252" fill="#fff" stop-color="#000000" stroke="#000" stroke-width="1.4105" style="-inkscape-stroke:none;font-variation-settings:normal;paint-order:fill markers stroke"/>
      <circle cx="516.16" cy="237.28" r="8.252" fill="#fff" stop-color="#000000" stroke="#000" stroke-width="1.4105" style="-inkscape-stroke:none;font-variation-settings:normal;paint-order:fill markers stroke"/>
      <g transform="matrix(.97081 0 0 .97081 13.277 53.799)">
       <circle cx="464" cy="212" r="8.5" fill="#fff" stop-color="#000000" stroke="#000" stroke-width="1.453" style="-inkscape-stroke:none;font-variation-settings:normal;paint-order:fill markers stroke"/>
       <circle cx="500" cy="212" r="8.5" fill="#fff" stop-color="#000000" stroke="#000" stroke-width="1.453" style="-inkscape-stroke:none;font-variation-settings:normal;paint-order:fill markers stroke"/>
       <circle cx="536" cy="212" r="8.5" fill="#fff" stop-color="#000000" stroke="#000" stroke-width="1.453" style="-inkscape-stroke:none;font-variation-settings:normal;paint-order:fill markers stroke"/>
       <circle cx="482" cy="235" r="8.5" fill="#fff" stop-color="#000000" stroke="#000" stroke-width="1.453" style="-inkscape-stroke:none;font-variation-settings:normal;paint-order:fill markers stroke"/>
       <circle cx="518" cy="235" r="8.5" fill="#fff" stop-color="#000000" stroke="#000" stroke-width="1.453" style="-inkscape-stroke:none;font-variation-settings:normal;paint-order:fill markers stroke"/>
      </g>
      <circle cx="498.68" cy="304.27" r="8.252" fill="#fff" stop-color="#000000" stroke="#000" stroke-width="1.4105" style="-inkscape-stroke:none;font-variation-settings:normal;paint-order:fill markers stroke"/>
     </g>
    </g>
    <use transform="rotate(90 -838.26 -431.57)" xlink:href="#g51199"/>
    <use transform="matrix(0 1 1 0 -439.4 406.69)" xlink:href="#g51199"/>
    <use transform="matrix(-1 0 0 1 -1709.2 32.723)" xlink:href="#g51199"/>
    <use transform="matrix(-1 0 0 1 -1709.2 -32.723)" xlink:href="#g51199"/>
   </g>
  </g>
 </g>
</svg>
