<svg id="svg5" height="32" viewBox="0 0 8.4666662 8.4666662" width="32" xmlns="http://www.w3.org/2000/svg" xmlns:inkscape="http://www.inkscape.org/namespaces/inkscape" xmlns:sodipodi="http://sodipodi.sourceforge.net/DTD/sodipodi-0.dtd" xmlns:svg="http://www.w3.org/2000/svg" inkscape:version="1.2.1 (9c6d41e410, 2022-07-14)" sodipodi:docname="Spainl Flag 5.svg"><linearGradient id="linearGradient2739" inkscape:swatch="solid"><stop id="stop2737" offset="0" stop-color="#0ecc24"/></linearGradient><linearGradient id="linearGradient2667" inkscape:swatch="solid"><stop id="stop2665" offset="0"/></linearGradient><g id="layer1" inkscape:label="Layer 1" inkscape:groupmode="layer"><g id="g224886" strokeWidth=".615" transform="matrix(1.625 0 0 1.625 -2.587 -2.338)"><g id="g342562" transform="matrix(.615 0 0 .615 1.592 1.439)"><path id="path74079" d="m4.233333.79374992a3.4395842 3.4395842 0 0 0 -3.43958305 3.43958308 3.4395842 3.4395842 0 0 0 3.43958305 3.4395832 3.4395842 3.4395842 0 0 0 3.4395832-3.4395832 3.4395842 3.4395842 0 0 0 -3.4395832-3.43958308z" fill="#ff2a2a"/><path id="path74081" d="m.99276874 3.0870851a3.4395842 3.4395842 0 0 0 -.19901879 1.1462479 3.4395842 3.4395842 0 0 0 .19901879 1.1462478h6.48112856a3.4395842 3.4395842 0 0 0 .1990189-1.1462478 3.4395842 3.4395842 0 0 0 -.1964997-1.1462479z" fill="#ffd42a"/><path id="path70801" d="m4.2333331 1.1906249a3.0427082 3.0427082 0 0 0 -2.8173989 1.896525h5.6358314a3.0427082 3.0427082 0 0 0 -2.8184325-1.896525z" fill="#d40000"/><path id="path74089" d="m1.4159342 5.3795163a3.0427082 3.0427082 0 0 0 2.8173989 1.896525 3.0427082 3.0427082 0 0 0 2.8173989-1.896525z" fill="#d40000"/><path id="path70803" d="m1.4159342 3.0871499a3.0427082 3.0427082 0 0 0 -.2253093 1.1461832 3.0427082 3.0427082 0 0 0 .2253093 1.1461832h5.6347978a3.0427082 3.0427082 0 0 0 .2253093-1.1461832 3.0427082 3.0427082 0 0 0 -.2242757-1.1461832z" fill="#fc0"/><g id="g342301" strokeLinecap="round" strokeLinejoin="round" strokeWidth=".573" transform="matrix(1.745 0 0 1.745 -1.224 -3.32)"><path id="path342193" d="m2.1667964 4.114103h.6493089l.0007733.4700411c.0002947.1790202-.1553068.3241452-.3468876.3241452-.1793017-.011474-.3147005-.1565987-.3024213-.3241452z" fill="#fff" strokeWidth=".106" sodipodi:nodetypes="ccsccc"/><path id="path342195" d="m2.1667964 4.114103h.3246599v.3329198h-.3246599z" fill="#d40000" strokeWidth=".076" sodipodi:nodetypes="ccccc"/><path id="path342197" d="m2.4914563 4.114103h.3246599v.3329198h-.3246599z" fill="#fff" strokeWidth=".076" sodipodi:nodetypes="ccccc"/><path id="path342199" d="m2.1668309 4.4470433.0007625.1371005v.042351c.00768.1026207.07012.1926203.1619623.2420782.092042-.049417.154741-.1393208.1624331-.242078l-.0007626-.1794517z" fill="#d40000" strokeWidth=".076" sodipodi:nodetypes="ccccccc"/><path id="path342201" d="m2.4916971 4.4470433c.0006071.059816.0005083.1196349.0007625.1794515.00743.099277.066046.1868918.1530167.2372652.1001232-.056098.166907-.1514725.1713787-.2714352-.0001268-.0476346-.0005092-.0970064-.0007626-.1452774z" fill="#d40000" strokeWidth=".076" sodipodi:nodetypes="cccccc"/><g id="g342207" strokeWidth=".573" transform="translate(0 -.05)"><path id="path342203" d="m2.2289272 4.2333333h.2003982a.02564482.03362126 0 0 1 .025645.033621v.1273112a.02564482.03362126 0 0 1 -.025645.0336215h-.2003982a.02564482.03362126 0 0 1 -.025645-.0336215v-.1273107a.02564482.03362126 0 0 1 .025645-.033621z" fill="#fc0" strokeWidth=".008"/><path id="path342205" d="m2.2771418 4.4278859h.1038451l.0001238-.075172c.000047-.028631-.024839-.051839-.055478-.051839-.028674.00183-.050332.025045-.048365.051839z" fill="#04a" strokeWidth=".106" sodipodi:nodetypes="ccsccc"/></g><path id="path342209" d="m1.7740025 4.8266471h.2742059a.01869586.01869586 0 0 1 .018696.018696v.048298a.01869586.01869586 0 0 1 -.018696.018696h-.2742059a.01869586.01869586 0 0 1 -.018696-.018696v-.048298a.01869586.01869586 0 0 1 .018696-.018696z" fill="#04a" strokeWidth=".008"/><path id="path342211" d="m1.8207422 4.7705595h.1807265a.01713787.01713787 0 0 1 .017138.017138v.038949h-.2150024v-.038949a.01713787.01713787 0 0 1 .017138-.017138z" fill="#ffe680" strokeWidth=".008"/><path id="path342213" d="m1.9900593 4.1144773h-.1576131v.6562907h.1576131z" fill="#fff" strokeWidth=".008"/><path id="path342215" d="m1.9089273 3.9992389c-.042455.00108-.076481.035833-.076481.078548v.03669h.1576131v-.03669c-.00465-.063223-.04813-.081177-.081132-.078548z" fill="#d40000" strokeWidth=".008" sodipodi:nodetypes="cscccc"/><path id="path342217" d="m2.6384611 4.1657316h.03065c.035826 0 .06467.026853.06467.06021v.1092429c0 .033356-.028842.060209-.06467.060209h-.03065c-.035827 0-.06467-.026853-.06467-.060209v-.1092433c0-.033356.028842-.06021.06467-.06021z" fill="#d40000" strokeWidth=".015"/><path id="path342219" d="m2.239758 4.0509453h.5177366l.0773813-.3039163-.1678841.1304007-.172583-.1304007-.1704729.1304007-.1751364-.1304007z" fill="#d40000" strokeWidth=".076" sodipodi:nodetypes="cccccccc"/><path id="path342221" d="m2.563104 4.4756189h.1961273l.0002336.1615053c.0000889.061512-.046911.1113751-.1047789.1113751-.054158-.00395-.095057-.053807-.091348-.1113751z" fill="#fc0" strokeWidth=".106" sodipodi:nodetypes="ccsccc"/><path id="path342223" d="m2.9353319 4.8266471h.2742059a.01869586.01869586 0 0 1 .018696.018696v.048298a.01869586.01869586 0 0 1 -.018696.018696h-.2742059a.01869586.01869586 0 0 1 -.018696-.018696v-.048298a.01869586.01869586 0 0 1 .018696-.018696z" fill="#04a" strokeWidth=".008"/><path id="path342225" d="m2.9820716 4.7705595h.1807265a.01713787.01713787 0 0 1 .017138.017138v.038949h-.2150024v-.038949a.01713787.01713787 0 0 1 .017138-.017138z" fill="#ffe680" strokeWidth=".008"/><path id="path342227" d="m3.1512287 4.1144773h-.1576131v.6562907h.1576131z" fill="#fff" strokeWidth=".008"/><g strokeWidth=".106"><path id="path342229" d="m2.1667927 4.4472735.00103.1369426v.042375c.00355.047432.018448.091976.042892.1312582v-.3105758z" fill="#ffe680"/><path id="path342231" d="m2.4473957 4.4472735v.3126424c.02346-.037028.039067-.07943.043925-.1240234v-.188619z" fill="#ffe680"/><path id="path342233" d="m2.3538614 4.4472735v.4066935c.015815-.010322.03038-.021933.043925-.034623v-.3720705z" fill="#ffe680"/><path id="path342235" d="m2.260327 4.4472735v.3710368c.01342.012762.028227.024217.043925.034623v-.40566z" fill="#ffe680"/></g><g id="g342241" strokeWidth=".117" transform="matrix(.911 0 0 .911 .798 .654)"><path id="path342237" d="m1.7600263 4.1116025h.1990481l.000237.1440928c.0000903.05488-.04761.099368-.1063397.099368-.054965-.00352-.096473-.048006-.092708-.099368z" fill="#d40000" sodipodi:nodetypes="ccsccc"/><path id="path342239" d="m1.781355 4.1376592h.1564414l.0001863.1132494c.0000709.043133-.03742.078098-.083578.078098-.043199-.00277-.075823-.03773-.072863-.078098z" fill="#04a" sodipodi:nodetypes="ccsccc"/></g><path id="path342243" d="m3.0701093 3.9992389c-.042455.00108-.076481.035833-.076481.078548v.03669h.1576131v-.03669c-.00465-.063223-.04813-.081177-.081132-.078548z" fill="#d40000" strokeWidth=".008" sodipodi:nodetypes="cscccc"/></g></g></g></g></svg>