<?xml version="1.0" encoding="UTF-8" standalone="no"?>
<svg
   xmlns:dc="http://purl.org/dc/elements/1.1/"
   xmlns:cc="http://creativecommons.org/ns#"
   xmlns:rdf="http://www.w3.org/1999/02/22-rdf-syntax-ns#"
   xmlns:svg="http://www.w3.org/2000/svg"
   xmlns="http://www.w3.org/2000/svg"
   viewBox="0 0 800 800"
   height="800"
   width="800"
   xml:space="preserve"
   id="svg2"
   version="1.1"><metadata
     id="metadata8"><rdf:RDF><cc:Work
         rdf:about=""><dc:format>image/svg+xml</dc:format><dc:type
           rdf:resource="http://purl.org/dc/dcmitype/StillImage" /></cc:Work></rdf:RDF></metadata><defs
     id="defs6"><clipPath
       id="clipPath18"
       clipPathUnits="userSpaceOnUse"><path
         id="path16"
         d="M 300,600 C 134.314,600 0,465.685 0,300 v 0 C 0,134.314 134.314,0 300,0 v 0 c 165.685,0 300,134.314 300,300 v 0 c 0,165.685 -134.315,300 -300,300 z" /></clipPath></defs><g
     transform="matrix(1.3333333,0,0,-1.3333333,0,800)"
     id="g10"><g
       id="g12"><g
         clip-path="url(#clipPath18)"
         id="g14"><path
           id="path20"
           style="fill:#cf142b;fill-opacity:1;fill-rule:nonzero;stroke:none"
           d="M -150,0 H 750 V 200 H -150 Z" /><path
           id="path22"
           style="fill:#00247d;fill-opacity:1;fill-rule:nonzero;stroke:none"
           d="M -150,200 H 750 V 400 H -150 Z" /><path
           id="path24"
           style="fill:#ffcc00;fill-opacity:1;fill-rule:nonzero;stroke:none"
           d="M -150,400 H 750 V 600 H -150 Z" /><g
           transform="translate(106.9712,249.709)"
           id="g26"><path
             id="path28"
             style="fill:#ffffff;fill-opacity:1;fill-rule:nonzero;stroke:none"
             d="M 0,0 14.418,-11.046 8.37,-28.172 23.332,-17.873 37.75,-28.92 32.577,-11.509 47.538,-1.207 29.38,-0.744 24.208,16.664 18.159,-0.46 Z" /></g><g
           transform="translate(142.6777,312.0278)"
           id="g30"><path
             id="path32"
             style="fill:#ffffff;fill-opacity:1;fill-rule:nonzero;stroke:none"
             d="m 0,0 9.587,-15.426 -11.708,-13.887 17.633,4.351 9.588,-15.426 1.312,18.113 17.635,4.352 -16.824,6.845 1.311,18.118 -11.71,-13.885 z" /></g><g
           transform="translate(185.249,330.7666)"
           id="g34"><path
             id="path36"
             style="fill:#ffffff;fill-opacity:1;fill-rule:nonzero;stroke:none"
             d="m 0,0 18.06,-1.934 3.741,-17.774 7.42,16.579 18.062,-1.933 -13.475,12.179 7.42,16.58 L 25.479,14.646 12.005,26.825 15.747,9.052 Z" /></g><g
           transform="translate(244.0605,361.0103)"
           id="g38"><path
             id="path40"
             style="fill:#ffffff;fill-opacity:1;fill-rule:nonzero;stroke:none"
             d="M 0,0 16.34,-7.937 13.843,-25.926 26.438,-12.839 42.776,-20.774 34.221,-4.751 46.817,8.335 28.935,5.151 20.379,21.173 17.882,3.183 Z" /></g><g
           transform="translate(309.1826,369.002)"
           id="g42"><path
             id="path44"
             style="fill:#ffffff;fill-opacity:1;fill-rule:nonzero;stroke:none"
             d="M 0,0 12.617,-13.066 4.09,-29.104 20.415,-21.141 33.033,-34.207 30.505,-16.22 46.83,-8.258 28.943,-5.104 26.415,12.884 17.888,-3.154 Z" /></g><g
           transform="translate(373.4014,353.8213)"
           id="g46"><path
             id="path48"
             style="fill:#ffffff;fill-opacity:1;fill-rule:nonzero;stroke:none"
             d="m 0,0 7.388,-16.593 -13.497,-12.154 18.046,1.897 7.407,-16.591 3.775,17.767 18.065,1.899 -15.731,9.081 3.776,17.767 -13.498,-12.154 z" /></g><g
           transform="translate(413.2568,293.6875)"
           id="g50"><path
             id="path52"
             style="fill:#ffffff;fill-opacity:1;fill-rule:nonzero;stroke:none"
             d="m 0,0 17.648,-4.295 1.37,-18.112 9.539,15.458 17.647,-4.296 L 34.452,2.604 43.99,18.061 27.187,11.163 15.435,25.01 16.804,6.898 Z" /></g><g
           transform="translate(445.0508,249.084)"
           id="g54"><path
             id="path56"
             style="fill:#ffffff;fill-opacity:1;fill-rule:nonzero;stroke:none"
             d="M 0,0 14.878,-10.418 9.567,-27.788 24.073,-16.856 38.952,-27.275 33.039,-10.101 47.544,0.83 29.384,0.514 23.471,17.687 18.16,0.317 Z" /></g></g></g></g></svg>