<svg width="25" height="25" viewBox="0 0 25 25" fill="none" xmlns="http://www.w3.org/2000/svg">
<path d="M17.186 0.781504C16.6663 0.781489 16.6626 1.54631 17.1889 1.5635C20.2244 1.5635 22.8153 3.74139 23.3425 6.73086C23.8696 9.72035 22.1798 12.6527 19.3273 13.691C16.5287 14.7096 13.4093 13.608 11.8593 11.0833L12.546 11.2672C13.055 11.4117 13.2613 10.641 12.7481 10.5119L11.1476 10.0824C10.8985 10.0254 10.7178 10.1816 10.6692 10.3593L10.2397 11.9592C10.0952 12.4683 10.8659 12.6746 10.995 12.1613L11.1804 11.4678C12.9149 14.3262 16.4377 15.571 19.5928 14.4226C22.7966 13.2565 24.7035 9.95433 24.1115 6.59659C23.5081 3.11227 20.4275 0.753081 17.186 0.781504ZM17.2662 3.81423C14.8932 3.81423 12.9695 5.73796 12.9695 8.111C12.9695 10.484 14.8932 12.4077 17.2662 12.4077C19.6391 12.4077 21.5628 10.484 21.5628 8.111C21.5628 5.73796 19.6391 3.81423 17.2662 3.81423ZM17.6583 5.19893V5.53765C18.3169 5.69216 18.7514 6.19724 18.9445 6.80792C19.1002 7.30572 18.3533 7.53917 18.1976 7.04138C18.0414 6.54713 17.7189 6.29123 17.2516 6.27311C16.7194 6.27754 16.3087 6.68073 16.3087 7.18861C16.3087 7.38754 16.3565 7.48484 16.5124 7.56093C16.6682 7.63696 16.9697 7.67919 17.3066 7.71426C17.6434 7.7494 18.0184 7.7779 18.3677 7.94849C18.7172 8.1191 19.0048 8.46047 19.0048 9.02267C19.0048 9.83157 18.422 10.5175 17.6583 10.6843V11.0131C17.6701 11.5456 16.8652 11.5456 16.8771 11.0131V10.6767C16.1143 10.4841 15.7767 9.93872 15.5939 9.42016C15.406 8.90908 16.1959 8.65795 16.3377 9.18366C16.4896 9.65201 16.8067 9.91827 17.2806 9.93666C17.8113 9.93223 18.2266 9.52754 18.2266 9.02573C18.2266 8.81741 18.1742 8.72799 18.0183 8.6519C17.8625 8.57586 17.5625 8.53216 17.2257 8.49703C16.8889 8.46189 16.5189 8.43561 16.1691 8.26587C15.8175 8.09524 15.5275 7.75668 15.5275 7.18861C15.5275 6.37867 16.1103 5.69899 16.8771 5.52775V5.19893C16.893 4.93915 17.0788 4.80908 17.2654 4.80908C17.4519 4.80908 17.6392 4.93915 17.6583 5.19893ZM9.34712 14.8444C8.74122 14.8444 7.66247 15.2529 6.80591 15.663C6.63831 15.7432 6.53997 15.7979 6.39471 15.8705C6.54633 16.1482 6.64036 16.4617 6.64036 16.799V22.0647C7.1378 21.978 7.64241 21.8984 8.2043 21.877C8.68718 21.877 9.58978 22.5613 10.1764 22.9756C11.0123 23.5657 11.9127 24.2184 12.8892 24.2184C13.1832 24.2184 13.4784 24.1217 13.8673 23.9765C16.0042 23.1776 20.5116 20.6276 23.1372 19.0916C23.8016 18.7241 24.0199 17.8733 23.6446 17.2232C23.2844 16.5994 22.5534 16.4475 21.8426 16.6899L16.9379 18.3397C16.9731 18.6588 16.9159 18.9896 16.7442 19.2872C16.3147 20.031 15.3541 20.3365 14.6103 19.9071L12.24 18.54C11.75 18.2898 12.1724 17.5634 12.6321 17.8656L14.9994 19.2319C15.3801 19.4517 15.8469 19.3273 16.0667 18.9466C16.2865 18.566 16.1613 18.0998 15.7806 17.8801C14.0375 16.8736 10.943 14.8444 9.34712 14.8444ZM1.95535 15.6256C1.29782 15.6256 0.78125 16.1573 0.78125 16.7998V22.2661C0.78125 22.9059 1.29817 23.4394 1.94772 23.4394H4.68887C5.4021 23.4394 5.85916 22.8334 5.85916 22.2653V16.799C5.85916 16.1426 5.32818 15.6256 4.68964 15.6256H1.95535ZM2.73579 21.095C2.95152 21.095 3.12639 21.2699 3.12639 21.4856C3.12639 21.7013 2.95152 21.8762 2.73579 21.8762C2.52007 21.8762 2.34519 21.7013 2.34519 21.4856C2.34519 21.2699 2.52007 21.095 2.73579 21.095Z" fill="#004346"/>
</svg>
