<svg width="21" height="23" viewBox="0 0 21 23" fill="none" xmlns="http://www.w3.org/2000/svg">
<path d="M19.2501 4.9375L11.5417 0.5625C10.8126 0.145833 9.87508 0.145833 9.14591 0.5625L1.43758 4.9375C0.708415 5.35417 0.291748 6.1875 0.291748 7.02083V15.875C0.291748 16.7083 0.708415 17.5417 1.43758 17.9583L9.14591 22.4375C9.56258 22.6458 9.97925 22.75 10.3959 22.75C10.8126 22.75 11.2292 22.6458 11.5417 22.4375L19.2501 17.9583C19.9792 17.5417 20.3959 16.7083 20.3959 15.875V7.02083C20.3959 6.1875 19.9792 5.35417 19.2501 4.9375ZM8.00008 14.5208C8.00008 15.0417 7.58341 15.4583 7.06258 15.4583H6.12508C5.60425 15.4583 5.18758 15.0417 5.18758 14.5208V13.6875C5.18758 13.1667 5.60425 12.75 6.12508 12.75H6.95842C7.47925 12.75 7.89591 13.1667 7.89591 13.6875V14.5208H8.00008ZM8.00008 11.1875C8.00008 11.7083 7.58341 12.125 7.06258 12.125H6.12508C5.60425 12.125 5.18758 11.7083 5.18758 11.1875V10.3542C5.18758 9.83333 5.60425 9.41667 6.12508 9.41667H6.95842C7.47925 9.41667 7.89591 9.83333 7.89591 10.3542V11.1875H8.00008ZM8.00008 7.75C8.00008 8.27083 7.58341 8.6875 7.06258 8.6875H6.12508C5.70842 8.6875 5.29175 8.27083 5.29175 7.75V6.91667C5.29175 6.39583 5.70841 5.97917 6.22925 5.97917H7.06258C7.58341 5.97917 8.00008 6.39583 8.00008 6.91667V7.75ZM10.3959 18.8958C9.66675 18.8958 9.04175 18.2708 9.04175 17.5417C9.04175 16.8125 9.66675 16.1875 10.3959 16.1875C11.1251 16.1875 11.7501 16.8125 11.7501 17.5417C11.7501 18.2708 11.1251 18.8958 10.3959 18.8958ZM11.7501 14.5208C11.7501 15.0417 11.3334 15.4583 10.8126 15.4583H9.97925C9.45842 15.4583 9.04175 15.0417 9.04175 14.5208V13.6875C9.04175 13.1667 9.45842 12.75 9.97925 12.75H10.8126C11.3334 12.75 11.7501 13.1667 11.7501 13.6875V14.5208ZM11.7501 11.1875C11.7501 11.7083 11.3334 12.125 10.8126 12.125H9.97925C9.45842 12.125 9.04175 11.7083 9.04175 11.1875V10.3542C9.04175 9.83333 9.45842 9.41667 9.97925 9.41667H10.8126C11.3334 9.41667 11.7501 9.83333 11.7501 10.3542V11.1875ZM11.7501 7.75C11.7501 8.27083 11.3334 8.6875 10.8126 8.6875H9.97925C9.45842 8.6875 9.04175 8.27083 9.04175 7.75V6.91667C9.04175 6.39583 9.45842 5.97917 9.97925 5.97917H10.8126C11.3334 5.97917 11.7501 6.39583 11.7501 6.91667V7.75ZM15.5001 14.5208C15.5001 15.0417 15.0834 15.4583 14.5626 15.4583H13.7292C13.2084 15.4583 12.7917 15.0417 12.7917 14.5208V13.6875C12.7917 13.1667 13.2084 12.75 13.7292 12.75H14.5626C15.0834 12.75 15.5001 13.1667 15.5001 13.6875V14.5208ZM15.5001 11.1875C15.5001 11.7083 15.0834 12.125 14.5626 12.125H13.7292C13.2084 12.125 12.7917 11.7083 12.7917 11.1875V10.3542C12.7917 9.83333 13.2084 9.41667 13.7292 9.41667H14.5626C15.0834 9.41667 15.5001 9.83333 15.5001 10.3542V11.1875ZM15.5001 7.75C15.5001 8.27083 15.0834 8.6875 14.5626 8.6875H13.7292C13.2084 8.6875 12.7917 8.27083 12.7917 7.75V6.91667C12.7917 6.39583 13.2084 5.97917 13.7292 5.97917H14.5626C15.0834 5.97917 15.5001 6.39583 15.5001 6.91667V7.75Z" fill="#004346"/>
</svg>
