<svg width="23" height="25" viewBox="0 0 23 25" fill="none" xmlns="http://www.w3.org/2000/svg">
<path d="M22.3573 3.49886C22.3124 3.17652 22.0805 2.91138 21.767 2.82424L11.7191 0.029902C11.5758 -0.00996732 11.4245 -0.00996732 11.2812 0.029902L1.23323 2.82424C0.919726 2.91138 0.687809 3.17642 0.642928 3.49886C0.58465 3.91792 -0.744871 13.8194 2.66526 18.7452C6.07136 23.665 11.0961 24.9258 11.3083 24.9771C11.3714 24.9923 11.4356 24.9998 11.5001 24.9998C11.5646 24.9998 11.6289 24.9922 11.6919 24.9771C11.9043 24.9258 16.929 23.665 20.335 18.7452C23.7451 13.8196 22.4156 3.91803 22.3573 3.49886ZM17.9797 9.27946L11.126 16.1332C10.9666 16.2926 10.7574 16.3725 10.5484 16.3725C10.3393 16.3725 10.1302 16.2928 9.97071 16.1332L5.73312 11.8956C5.57986 11.7424 5.4938 11.5346 5.4938 11.3179C5.4938 11.1013 5.57997 10.8934 5.73312 10.7402L6.57452 9.89886C6.89358 9.5799 7.4109 9.57979 7.72986 9.89886L10.5484 12.7174L15.983 7.28263C16.1362 7.12936 16.344 7.0433 16.5607 7.0433C16.7773 7.0433 16.9852 7.12936 17.1384 7.28263L17.9797 8.12402C18.2988 8.44308 18.2988 8.9604 17.9797 9.27946Z" fill="#004346"/>
</svg>
