<svg fill="none" height="512" viewBox="0 0 36 36" width="512" xmlns="http://www.w3.org/2000/svg"><g id="36 Multicolor / Flag / mc_36_flag_andorra"><g id="mc_36_flag_Andorra"><path id="Path" d="m10.174 34.214c2.4402 1.1792 5.1159 1.7898 7.826 1.786 2.7101.0038 5.3858-.6068 7.826-1.786l1.564-16.214-1.564-16.21398c-2.4402-1.179136-5.1159-1.78977055-7.826-1.78600267-2.7101-.00376788-5.3858.60686667-7.826 1.78600267l-1.564 16.21398 1.565 16.214z" fill="#ffda44"/><path id="Path_2" d="m25.826 34.2131c6.021-2.911 10.174-9.077 10.174-16.213s-4.153-13.30199-10.174-16.21299v32.42699z" fill="#d80027"/><path id="Path_3" d="m10.174 34.2131v-32.42599c-6.021 2.911-10.174 9.07699-10.174 16.21299s4.153 13.302 10.174 16.213z" fill="#0052b4"/><g id="Group" fill="#d80027"><path id="Path_4" d="m18 24.26v-6.26h4.696v2.348c0 .408-.783 1.902-2.714 3.13-.732.465-1.49.615-1.98.783z"/><path id="Path_5" d="m13.304 13.304h4.696v4.696h-4.696z"/></g><path id="Shape" clip-rule="evenodd" d="m18.783 10.175c.865 0 1.565.701 1.565 1.565h.001 3.913v7.826c0 2.914-2.314 4.599-4.128 5.472.135.233.215.502.215.79 0 .865-.701 1.565-1.565 1.565-.286 0-.553-.077-.783-.21-.231.132-.498.21-.783.21-.865 0-1.565-.701-1.565-1.565 0-.29.079-.558.215-.79-1.814-.874-4.128-2.559-4.128-5.472v-7.826h3.912c0-.865.701-1.565 1.565-1.565.286 0 .553.077.783.21.231-.132.498-.21.783-.21zm1.198 12.268c1.932-1.227 1.932-2.469 1.932-2.877h.002v-5.478h-7.826v5.478c0 .407 0 1.649 1.932 2.877.73.465 1.488.767 1.98.935.49-.168 1.248-.47 1.98-.935z" fill="#ff9811" fill-rule="evenodd"/></g></g></svg>