<svg id="svg2" height="512" width="512" xmlns="http://www.w3.org/2000/svg" xmlns:xlink="http://www.w3.org/1999/xlink" xmlns:cc="http://creativecommons.org/ns#" xmlns:dc="http://purl.org/dc/elements/1.1/" xmlns:inkscape="http://www.inkscape.org/namespaces/inkscape" xmlns:rdf="http://www.w3.org/1999/02/22-rdf-syntax-ns#" xmlns:sodipodi="http://sodipodi.sourceforge.net/DTD/sodipodi-0.dtd" xmlns:svg="http://www.w3.org/2000/svg"><defs id="defs4"><path id="pt" d="m0-.5.16245985.5h-.3249197z" fill="#fff" transform="scale(.062)"/><g id="star"><use id="use8" height="650" transform="matrix(-.809 -.588 .588 -.809 0 0)" width="1235" xlink:href="#pt"/><use id="use10" height="650" transform="matrix(.309 -.951 .951 .309 0 0)" width="1235" xlink:href="#pt"/><use id="use12" height="650" width="1235" xlink:href="#pt"/><use id="use14" height="650" transform="matrix(.309 .951 -.951 .309 0 0)" width="1235" xlink:href="#pt"/><use id="use16" height="650" transform="matrix(-.809 .588 -.588 -.809 0 0)" width="1235" xlink:href="#pt"/></g><g id="s5"><use id="use19" height="650" width="1235" x="-.252" xlink:href="#star"/><use id="use21" height="650" width="1235" x="-.126" xlink:href="#star"/><use id="use23" height="650" width="1235" xlink:href="#star"/><use id="use25" height="650" width="1235" x=".126" xlink:href="#star"/><use id="use27" height="650" width="1235" x=".252" xlink:href="#star"/></g><g id="s6"><use id="use30" height="650" width="1235" x="-.063" xlink:href="#s5"/><use id="use32" height="650" width="1235" x=".315" xlink:href="#star"/></g><g id="x4"><use id="use35" height="650" width="1235" xlink:href="#s6"/><use id="use37" height="650" width="1235" xlink:href="#s5" y=".054"/><use id="use39" height="650" width="1235" xlink:href="#s6" y=".108"/><use id="use41" height="650" width="1235" xlink:href="#s5" y=".162"/></g><g id="u"><use id="use44" height="650" width="1235" xlink:href="#x4" y="-.216"/><use id="use46" height="650" width="1235" xlink:href="#x4"/><use id="use48" height="650" width="1235" xlink:href="#s6" y=".216"/></g><path id="stripe" d="m0 0h1235v50h-1235z" fill="#b22234"/><linearGradient id="linearGradient3908" gradientUnits="userSpaceOnUse" x1="-.344" x2=".344" y1="-.003" y2="-.003"><stop id="stop3904" offset="0" stop-color="#2c3c51"/><stop id="stop3906" offset="1" stop-color="#2c3c51" stop-opacity="0"/></linearGradient><path id="star-6" d="m0-50.0808 29.4368 90.597-77.0665-55.992h95.2594l-77.0665 55.993z" fill="#ffce00" transform="matrix(.809 .588 -.588 .809 0 0)"/><clipPath id="c"><path id="path7" d="m0 0v150h700v150h-100zm0 300v100h300v-400h300z"/></clipPath><path id="Star5" d="m0-9 2.351141 5.763932 6.2083676.4549151-4.7552825 4.0172209 1.4858412 6.0450849-5.2900673-3.2811529-5.2900673 3.2811529 1.4858412-6.0450849-4.7552825-4.0172209 6.2083676-.4549151z"/><path id="Star7" d="m0-9 1.735535 5.3961245 5.3009483-2.0075327-3.1367717 4.72132446 4.8746396 2.89277214-5.6470253.4912708.7776278 5.6147606-3.9049537-4.1087198-3.9049537 4.1087198.7776278-5.6147606-5.6470253-.4912708 4.8746396-2.89277214-3.1367717-4.72132446 5.3009483 2.0075327z"/><g id="Pentagram"><g id="Arm" transform="translate(0 -.325)"><path id="path14" d="m0 0v.5l1-.5z"/><path id="path16" d="m0 0v-.5l1 .5z" transform="matrix(.809 -.588 .588 .809 .191 .588)"/></g><use id="use18" transform="scale(-1 1)" xlink:href="#Arm"/><use id="use20" transform="matrix(.309 .951 -.951 .309 0 0)" xlink:href="#Arm"/><use id="use22" transform="matrix(.309 -.951 .951 .309 0 0)" xlink:href="#Arm"/><use id="use24" transform="matrix(-.309 .951 .951 .309 0 0)" xlink:href="#Arm"/></g><clipPath id="Diagonals"><path id="path10" d="m0 0 300 150h-300zm300 0h300l-300 150zm0 150h300v150zm0 0v150h-300z"/></clipPath><clipPath id="Canton"><path id="path7-1" d="m0 0h600v300h-600z"/></clipPath><linearGradient id="grad1" x1="826.45" x2="786.124" xlink:href="#gradbase" y1="419.932" y2="396.11"/><linearGradient id="gradbase" gradientUnits="userSpaceOnUse"><stop id="stop7" offset="0" stop-color="#a43907" stop-opacity=".996"/><stop id="stop9" offset="1" stop-color="#fff"/></linearGradient><linearGradient id="grad2" x1="851.569" x2="763.033" xlink:href="#gradbase" y1="436.067" y2="419.673"/><linearGradient id="grad3" x1="1016.15" x2="974.919" xlink:href="#gradbase" y1="398.539" y2="400.941"/><linearGradient id="grad4" x1="1033.335" x2="945.904" xlink:href="#gradbase" y1="421.219" y2="428.645"/><linearGradient id="grad5" x1="1023.357" x2="776.646" xlink:href="#gradbase" y1="445.132" y2="445.132"/><linearGradient id="grad6" x1="783.43" x2="1144.088" xlink:href="#gradbase" y1="462.503" y2="465.421"/><linearGradient id="grad7" x1="1032.128" x2="1002.941" xlink:href="#gradbase" y1="442.287" y2="444.033"/><linearGradient id="grad8" x1="775.747" x2="803.908" xlink:href="#gradbase" y1="471.718" y2="476.185"/><linearGradient id="grad9" x1="803.177" x2="755.308" xlink:href="#gradbase" y1="466.888" y2="440.32"/><clipPath id="clipPath5778"><path id="rect5780" d="m930.011-79.228h480v480h-480z"/></clipPath><clipPath id="clipPath7710"><rect id="rect7712" height="480" ry="48" width="480" x="16" y="16"/></clipPath><clipPath id="clipPath8725"><path id="path8727" d="m-360 118a208 208 0 1 1 -416 0 208 208 0 1 1 416 0z" transform="matrix(1.154 0 0 1.154 911.385 119.846)"/></clipPath></defs><g id="g8703" clip-path="url(#clipPath8725)"><g id="g5881" transform="translate(998.581 143.592)"><path id="rect4257" d="m-982.581-127.592h480v480h-480z" fill="#2980b9"/><g id="g5764" clip-path="url(#clipPath5778)" transform="matrix(.5 0 0 .5 -1447.587 -87.978)"><path id="rect5713" d="m930.011-79.228h480v480h-480z" fill="#2980b9"/><path id="rect5715" d="m664.139 581.006h99v720h-99z" fill="#fff" transform="matrix(.707 -.707 .707 .707 0 0)"/><path id="rect5748" d="m891.506-1073.639h99v720h-99z" fill="#fff" transform="matrix(.707 .707 -.707 .707 0 0)"/><path id="rect5717" d="m697.139 581.006h33v720h-33z" fill="#e32d3c" transform="matrix(.707 -.707 .707 .707 0 0)"/><path id="rect5750" d="m924.506-1073.639h33v720h-33z" fill="#e32d3c" transform="matrix(.707 .707 -.707 .707 0 0)"/><path id="rect5725" d="m111.272-1410.011h99v480h-99z" fill="#fff" transform="rotate(90)"/><g id="g5739" transform="matrix(0 1 -1 0 1330.783 -1009.239)"><path id="rect5735" d="m111.272-1410.011h99v480h-99z" fill="#fff" transform="rotate(90)"/><path id="rect5737" d="m144.272-1410.011h33v480h-33z" fill="#e32d3c" transform="rotate(90)"/></g><path id="rect5727" d="m144.272-1410.011h33v480h-33z" fill="#e32d3c" transform="rotate(90)"/></g></g></g><g id="g19" transform="matrix(.629 0 0 .629 -197.767 35.717)"><path id="path21" d="m780.583 154.039c0 148.827 11.8732 201.675 52.6064 242.479 40.7332 40.8042 56.1659 47.2313 67.5231 53.4827 13.1015-7.21148 28.1971-15.1341 65.1152-52.0521 36.513-36.515 54.173-89.15 54.173-246.452-26.559 11.3712-39.7859 15.1175-63.0119 15.0513-17.202 1.68548-43.7399-9.33789-59.6086-16.5484-10.371 6.60246-25.4152 14.4763-52.4514 15.3604-31.2252 1.30952-41.1191-3.73522-64.3451-11.3217z" fill="#cc3"/><path id="path23" d="m787.775 163.438c0 46.0434-2.72184 108.794 7.00639 145.1 9.77001 36.4622 12.0129 41.8034 19.3596 54.5282l171.206-1.27105c10.576-18.3181 11.1098-29.6647 18.95261-58.9348 7.8148-29.1649 9.7886-94.177 10.0167-142.6-17.21601 8.72445-39.76131 14.9075-61.64361 12.1948-17.5423-1.2754-33.7513-5.09258-52.6268-15.2637-16.374 9.35261-22.0822 13.6217-49.1184 14.7138-21.0507.98975-38.1018 2.61503-63.1522-8.46789z" fill="#fff"/><path id="path25" d="m814.51 362.056c12.1849 24.4477 69.6325 71.3032 86.433 81.0029 19.168-11.0667 69.8476-57.368 83.9727-81.0029h-170.406z" fill="#9cf"/><path id="path27" d="m904.221 231.606c5.41355 12.1396 22.7699 25.5448 27.5414 32.1145-6.07314 6.56934-7.28706 5.85387-6.49064 18.0587 10.5604-10.534 10.7499-11.6322 17.5423-10.0346 14.8794 14.1555 2.66292 44.5571-9.63422 51.1666-12.2936 7.05101-10.0622-.24417-28.4886 8.59299 8.44836 6.88711 18.237-1.01015 26.2362 1.10047 4.34697 4.91697-2.06648 13.8779 1.31216 22.317 7.06953-.6489 6.22049-14.2559 7.86595-19.1896 5.16445-18.0757 36.2143-30.6826 37.7931-47.2631 6.54677-2.93012 13.09-.9165 21.0507 3.34487-3.96455-15.5336-17.0792-15.3664-20.5946-20.2178-8.36767-12.1907-15.7845-26.0981-33.6566-29.7059-13.5672-2.73878-12.5532.82385-21.2472-4.83-5.41355-4.01853-21.8612-11.6181-19.2298-5.45416z" fill="#f90"/><path id="path29" d="m860.839 283.106c8.72935-10.2344 13.0534-31.1272 16.9171-38.2184 8.92956 2.05041 8.83312 3.40792 19.7799-2.96497-14.7027-3.98084-15.8096-3.62755-17.5012-10.0994 6.17695-19.1553 40.0786-23.0599 51.953-15.7817 12.2822 7.06894 4.4742 8.596 21.2779 20.0001 2.44044-10.3389-9.45634-14.9009-11.2359-22.6298 2.52932-5.96126 13.8358-4.74122 20.084-11.5316-3.90439-5.6561-16.127 1.41619-21.4712 2.33396-19.1762 4.09085-45.373-16.1931-61.4875-9.77821-5.77578-4.14976-6.96507-10.606-6.73193-19.3072-12.5539 10.5985-6.27225 21.5753-9.12921 26.805-7.39678 12.7485-16.8297 25.4974-11.8265 42.248 3.79803 12.7158 6.62838 10.1968 5.44639 20.1666-1.19785 6.44061-.56211 23.8553 3.92513 18.7577z" fill="#f90"/><path id="path31" d="m931.763 290.302c-13.7027-1.82835-34.6943 5.45107-43.0585 5.96673-2.77851-8.34642-1.51002-8.96995-12.8934-14.605 4.03197 14.0554 4.9217 14.7758-.0129 19.5038-20.3904 4.86884-41.4321-20.7724-41.0411-34.2257-.008-13.6779 5.40195-8.09713 6.94685-27.7067-10.5433 3.35691-8.48447 15.4235-14.502 20.8735-6.65962 1.01994-11.4131-8.83635-20.7407-10.4218-3.05765 6.11145 9.61345 12.4257 13.2018 16.3114 13.5917 13.53 8.93457 45.397 23.0288 55.2268-.7374 6.85915-5.91783 11.1692-13.8492 15.48 16.0079 4.76053 22.612-6.04289 28.7845-6.41709 15.2702-.5594 31.594.5423 44.0424-12.2046 9.45-9.67656 5.72467-10.6828 15.2857-14.8756 6.40117-2.35427 21.7049-11.8813 14.8078-12.9056z" fill="#f90"/><g fill="#fff"><circle id="circle33" cx="266.239" cy="122.104" r=".806" transform="matrix(3.508 0 0 3.345 6.331 -163.011)"/><circle id="circle35" cx="266.239" cy="122.104" r=".806" transform="matrix(-1.639 -2.957 3.102 -1.563 914.323 1224.328)"/><circle id="circle37" cx="266.239" cy="122.104" r=".806" transform="matrix(-1.807 2.867 -3.007 -1.723 1749.003 -240.213)"/></g></g></svg>