<svg xmlns="http://www.w3.org/2000/svg" version="1.1" xmlns:xlink="http://www.w3.org/1999/xlink" width="512" height="512" x="0" y="0" viewBox="0 0 36 36" style="enable-background:new 0 0 512 512" xml:space="preserve" class=""><g><path fill="#ffda44" d="M18 36c9.941 0 18-8.059 18-18S27.941 0 18 0 0 8.059 0 18s8.059 18 18 18z" opacity="1" data-original="#ffda44" class=""></path><path fill="#338af3" fill-rule="evenodd" d="M34.88 11.74H10.957L5.273 5.273A17.94 17.94 0 0 1 18 0c7.74 0 14.337 4.885 16.88 11.74zm0 12.52H10.956l.001.001-5.684 6.466A17.94 17.94 0 0 0 18 36c7.74 0 14.337-4.885 16.88-11.74z" clip-rule="evenodd" opacity="1" data-original="#338af3"></path><path fill="#3d3d3d" d="M5.272 5.272c-7.03 7.03-7.03 18.426 0 25.456L18 18z" opacity="1" data-original="#3d3d3d" class=""></path></g></svg>

