<?xml version="1.0" encoding="UTF-8"?>
<svg width="317.5mm" height="158.75mm" version="1.1" viewBox="0 0 317.5 158.75" xmlns="http://www.w3.org/2000/svg">
<g transform="translate(65.48 -60.712)">
<rect x="-65.48" y="60.712" width="317.5" height="158.75" fill="#fff" stop-color="#000000"/>
<g fill="#cf142b">
<path d="m-65.48 124.21v31.75h142.87v63.5h31.75v-63.5h142.88v-31.75h-142.88v-63.5h-31.75v63.5h-142.87" stop-color="#000000"/>
<path d="m-65.48 71.296v-10.583h21.167l105.83 52.917h-42.333z" stop-color="#000000"/>
<path d="m252.02 71.296v-10.583h-21.167l-105.83 52.917h42.333z" stop-color="#000000"/>
<path d="m-65.48 208.88v10.583h21.167l105.83-52.917h-42.333z" stop-color="#000000"/>
<path d="m252.02 208.88v10.583h-21.167l-105.83-52.917h42.333z" stop-color="#000000"/>
</g>
<path d="m105.97 212.85h-25.4l6.6146-6.6146v-132.29l-6.6146-6.6146h25.4l-6.6146 6.6146v132.29l6.6146 6.6146" fill="#ffd605" stop-color="#000000"/>
<path d="m20.509 152.79v-25.4l6.6146 6.6146h132.29l6.6146-6.6146v25.4l-6.6146-6.6146h-132.29l-6.6146 6.6146" fill="#ffd605" stop-color="#000000"/>
</g>
</svg>
