<?xml version="1.0" encoding="UTF-8"?>
<svg version="1.1" viewBox="0 0 1600 1200" width="1280" height="1280" xmlns="http://www.w3.org/2000/svg">
<path transform="translate(770,60)" d="m0 0h60l44 4 35 6 29 7 34 10 32 12 27 12 24 12 24 14 16 10 16 11 19 14 16 13 14 12 16 15 18 18 7 8 9 10 9 11 12 15 10 14 16 24 12 20 13 24 12 25 11 27 12 36 8 29 7 34 5 35 3 37v41l-3 37-5 36-8 38-10 35-10 28-11 26-12 25-10 19-15 25-8 12-12 17-13 17-11 13-9 11-16 17-20 20-8 7-15 13-14 11-16 12-24 16-21 13-26 14-32 15-31 12-28 9-26 7-34 7-27 4-30 3-13 1h-46l-34-3-29-4-36-7-34-9-30-10-27-11-26-12-27-14-23-14-15-10-14-10-17-13-13-11-11-9-7-7-8-7-19-19-7-8-11-12-9-11-14-18-12-17-10-15-12-20-10-18-14-28-12-29-10-28-10-35-7-32-5-33-3-30v-73l4-38 5-30 7-31 10-34 9-25 11-26 12-25 10-19 10-17 13-20 12-17 12-16 11-13 9-11 7-7 7-8 24-24 8-7 14-12 15-12 18-13 13-9 19-12 26-15 28-14 31-13 31-11 28-8 36-8 34-5z" fill="#FCE05C"/>
<path transform="translate(770,60)" d="m0 0h60l44 4 35 6 29 7 34 10 32 12 27 12 24 12 24 14 16 10 16 11 19 14 16 13 14 12 16 15 18 18 7 8 9 10 9 11 12 15 10 14 16 24 12 20 13 24 12 25 11 27 12 36 8 29 7 34 5 35 3 37v41l-3 37-5 36-8 38-10 35-10 28-11 26-12 25-10 19-15 25-8 12-12 17-13 17-11 13-9 11-16 17-20 20-8 7-15 13-14 11-16 12-24 16-21 13-26 14-32 15-31 12-28 9-26 7-34 7-27 4-30 3-13 1h-46l-34-3-29-4-36-7-34-9-30-10-27-11-26-12-27-14-23-14-15-10-14-10-17-13-13-11-11-9-7-7-8-7-19-19-7-8-11-12-9-11-14-18-12-17-10-15-12-20-10-18-14-28-12-29-10-28-10-35-7-32-5-33-3-30v-73l4-38 5-30 7-31 10-34 9-25 11-26 12-25 10-19 10-17 13-20 12-17 12-16 11-13 9-11 7-7 7-8 24-24 8-7 14-12 15-12 18-13 13-9 19-12 26-15 28-14 31-13 31-11 28-8 36-8 34-5zm240 48-7 8-5 5-17 16-7 7-7 8-30 30-7 6-5 6-8 7-9 9-7 8-591 591-2 1 1 7 16 33 14 24 9 15 15 22 12 16 8 10 11 13 12 13 9 10 20 20 8 7 10 9 14 11 18 14 13 9h2v2l11 6 9 6h2v2l6 3 13 7h2v2l42 20 13 5 8 4 20 7 29 9 24 6 21 4 37 6 26 2 7 1h45l32-2 33-4 39-7 37-10 16-5 30-11 27-12 19-9 22-12 24-15 16-11 12-9 13-10 13-11 10-9 8-7 32-32 7-8 11-13 13-17 13-18 16-25 15-26 14-28 12-28 11-30 7-24 6-24 5-26 5-37 3-33v-39l-4-44-6-39-7-33-8-28-12-34-9-22-4-8-4-9-10-21-6-9-9-16-12-19-12-17-14-18-8-10-13-15-14-15-21-21-8-7-14-12-15-12-18-13-24-16-20-12-22-12-28-13z" fill="#65BE8E"/>
<path transform="translate(1287,381)" d="m0 0h2l8 19 11 30 8 26 7 29 4 20 5 34 4 44v39l-4 42-6 39-5 23-7 27-11 33-12 29-16 33-11 20-11 18-16 24-14 19-11 13-9 11-6 5-7 3-6 2-14 2-5-5h-6l-1-1-21 4-10 1-21 3-29 8-30 8-53 12-29 6-37 6-48 6-27 2-29 1h-53l-30-2-39-4-32-5h-6l3-5 618-618z" fill="#E43429"/>
<path transform="translate(391,732)" d="m0 0h3v10l6-1 5 4 3 5 2 11 9 14 4 8 3 5 3 2 3 5 4 3 3 5 10 12 11 3 3 5 7 11 5 6 6 2 7 2 9 6 12 9 15 10 7 5 10 5 10 6 9 4 5 3 16 8 15 6 12 6 5 3 9 2 6 6 17 2 27 8 9 3 2 2 10 1 1 2-8 1 4 6v2h-8l4 6 2 2h4v-6h9l1-4 2 1h3l5-3 6-3 10-6 2-1-2 4-62 62v2l16 2 37 5 33 3 19 1h53l29-1 36-3 46-6 40-7 37-8 43-10 40-11 16-4 18-2h3l15-3 12-2 1 1h6l5 5 13-2 10-3 3-1 1-2-1 4-37 37-8 7-13 11-17 13-16 12-20 13-20 12-20 11-28 13-19 8-27 10-16 5-37 10-39 7-33 4-32 2h-45l-41-4-36-6-38-9-29-9-12-4-9-4-16-6-16-8-23-11-7-3v-2l-6-2-9-5-6-3v-2l-5-2-14-9-3-1v-2l-5-2-19-14-16-13-10-8-13-12-8-7-21-21-7-8-11-12-9-11-13-17-12-17-13-20-15-26-14-27-6-14v-4l8-7 54-54 6-3h2v3h3l1-8 7-2 2 1z" fill="#FCEA8A"/>
<path transform="translate(770,60)" d="m0 0h60l44 4 35 6 29 7 34 10 32 12 27 12 24 12 24 14 16 10 16 11 19 14 16 13 14 12 16 15 18 18 7 8 9 10 9 11 12 15 10 14 16 24 12 20 13 24 12 25 11 27 12 36 8 29 7 34 5 35 3 37v41l-3 37-5 36-8 38-10 35-10 28-11 26-12 25-10 19-15 25-8 12-12 17-13 17-11 13-9 11-16 17-20 20-8 7-15 13-14 11-16 12-24 16-21 13-26 14-32 15-31 12-28 9-26 7-34 7-27 4-30 3-13 1h-46l-34-3-29-4-36-7-34-9-30-10-27-11-26-12-27-14-23-14-15-10-14-10-17-13-13-11-11-9-7-7-8-7-19-19-7-8-11-12-9-11-14-18-12-17-10-15-12-20-10-18-14-28-12-29-10-28-10-35-7-32-5-33-3-30v-73l4-38 5-30 7-31 10-34 9-25 11-26 12-25 10-19 10-17 13-20 12-17 12-16 11-13 9-11 7-7 7-8 24-24 8-7 14-12 15-12 18-13 13-9 19-12 26-15 28-14 31-13 31-11 28-8 36-8 34-5zm-2 13-32 3-32 5-30 7-25 7-31 11-29 13-21 11-23 14-11 8-12 9-9 7-14 12-20 20-9 11-13 17-9 14-9 16-8 16-6 15-6 21-4 19-3 29 1 25 3 20 5 22 7 21 9 20 9 17 14 21 10 13 9 10 7 8 13 13 8 7 11 8 4-2 12 1v-2h2l1 4v2l-4 7 3-1 5-4 16-11h3l-2 4-248 248-2 1 1 7 16 33 14 24 9 15 15 22 12 16 8 10 11 13 12 13 9 10 20 20 8 7 10 9 14 11 18 14 13 9h2v2l11 6 9 6h2v2l6 3 13 7h2v2l42 20 13 5 8 4 20 7 29 9 24 6 21 4 37 6 26 2 7 1h45l32-2 33-4 39-7 37-10 16-5 30-11 27-12 19-9 22-12 24-15 16-11 12-9 13-10 13-11 10-9 8-7 32-32 7-8 11-13 13-17 13-18 16-25 15-26 14-28 12-28 11-30 7-24 6-24 5-26 5-37 3-33v-39l-4-44-6-39-7-33-8-28-12-34-9-22-4-8-4-9-10-21-6-9-9-16-12-19-12-17-14-18-8-10-13-15-14-15-21-21-8-7-14-12-15-12-18-13-24-16-20-12-22-12-28-13-5 1-5 6-6-1-21-9-25-9-28-8-31-7-40-6-26-2z" fill="#139853"/>
<path transform="translate(1e3 117)" d="m0 0 5 1 22 11 23 14 16 11 14 11 11 9 13 12 16 16 9 11 10 13 10 15 10 18 8 17 9 27 4 16 3 21 1 12v28l-3 25-5 21-7 20h-6l-4-3-20 6-19 2h-10l-10-4-5-6-8-4-2-3 7-3-4-3-4-1h-33l-18 1-8 4-12 2-18 5-19 4-14 1-6 3-4 1-23 1-10 3-9-2-10-2-3-5v-2l-4-2-4-8-7-2h-27l-17 3-29 4-17 3-9 1-17 4-2-1-1 5-5 1-2-2h2v-2l-21 1-10 2-11 2-15 5-8 2h-15l-7 2-14 9-10 7-4 1 6-7 257-257 7-8 9-9 6-5 6-7 8-7 30-30 7-8 10-10 8-7z" fill="#FCEA8B"/>
<path transform="translate(1197,956)" d="m0 0 1 3-38 38-8 7-13 11-17 13-16 12-20 13-20 12-20 11-28 13-19 8-27 10-16 5-37 10-39 7-33 4-32 2h-45l-41-4-36-6-38-9-29-9-12-4-9-4-16-6-8-4 1-4 81-81h7l32 5 39 4 30 2h53l29-1 36-3 46-6 40-7 37-8 43-10 40-11 16-4 18-2h3l15-3 12-2 1 1h6l5 5 13-2 10-3 3-1z" fill="#F29790"/>
<path transform="translate(330,368)" d="m0 0 1 2h3l-1 13-4 10-2 20-3 8-1 17-1 8-1 9-2 15-1 9-2 10v6l2-2 2 4 2-2h4l2-3v7h2l1-3 1 5h3l2 12 2 16 2 8v11l2 7 2 4 3 15 2 4 2 8 3 8 3 11 2 4 7 18 4 12 9 17 6 8 5 5 4 9 3 12 3 6v3l5-1v2l5 2 3 4-104 104h-2l-1 2-6-14-7-18-10-31-8-32-4-20-5-34-2-23-1-18v-40l3-44 6-39 6-28 8-29 12-35 11-26 3 1 3-4h4l5-9h3z" fill="#16C471"/>
<path transform="translate(421,295)" d="m0 0 1 3-3 6h-2l1 8-2 17-3 29 1 25 3 20 5 22 7 21 9 20 9 17 14 21 10 13 9 10 7 8 12 12 8 7 11 8 4-2 11 1 3-1 2 3v3l-4 6 8-6 11-7 3-1 1-2 4 1-2 4-120 120-3-1 1-3-2-4-6 1-7 1-2-6v-14l1-1v-6h-2l-4-16-2-4h-3l-3-6v-2l-3-1-3-5-4-10-4-8-3-9-2-7-7-15-2-6v-7l-2-5v-6l-3-5v-8l-3-10-2-5v-6l-1-3 1-7-1-5v-14l1-3-1-10v-16l-1-4 2-7-1-5h-3l-1-7-4 4v-7l5-19 3-5 4-15 5-12v-6l3-3 2-5 4-5 4-11h2l2-11h2l1-5 7-11 5-5 4-5 2-2 3-4z" fill="#009148"/>
<path transform="translate(1197,956)" d="m0 0 1 3-38 38-8 7-13 11-17 13-3 2-4-2v2l-10 4-9 1-16-2-24-1-31 1-24 2-9 1-34 1h-16l-17 1h-76l-15 1-39-1h-31l-14-1h-21l-14-1h-41l-17-3-8-3h-9l6-7 9-9 3-5 6-5 11 1 36 5 41 4 19 1h53l29-1 36-3 46-6 40-7 37-8 43-10 40-11 16-4 18-2h3l15-3 12-2 1 1h6l5 5 13-2 10-3 3-1z" fill="#F67872"/>
<path transform="translate(610,1057)" d="m0 0v3l-19 19 11-3v2l3-1 7 2h17l5-1h70l13 2 42 2h6v2h53l14-1h6l4-1 9 1 1-1 11-1h21l11-1h36l27 2 18 2v1l14 3h13l14-3 13-4 8-4 3 1-25 12-27 11-25 9-42 11-25 5-32 5-30 3-20 1h-45l-41-4-36-6-38-9-29-9-12-4-9-4-16-6-8-4 1-4z" fill="#EDA59A"/>
<path transform="translate(770,60)" d="m0 0h60l44 4 35 6 29 7 34 10 32 12 27 12 24 12 24 14 16 10 16 11 19 14 16 13 14 12 16 15 18 18 7 8 9 10 9 11 12 15 10 14 16 24 12 20 13 24 12 25 11 27 12 36 8 29 7 34 5 35 3 37v41l-3 37-5 36-8 38-10 35-10 28-11 26-12 25-10 19-15 25-8 12-12 17-13 17-11 13-9 11-16 17-20 20-8 7-15 13-14 11-16 12-24 16-21 13-26 14-32 15-31 12-28 9-26 7-34 7-27 4-30 3-13 1h-46l-34-3-29-4-36-7-34-9-30-10-27-11-26-12-27-14-23-14-15-10-14-10-17-13-13-11-11-9-7-7-8-7-19-19-7-8-11-12-9-11-14-18-12-17-10-15-12-20-10-18-14-28-12-29-10-28-10-35-7-32-5-33-3-30v-73l4-38 5-30 7-31 10-34 9-25 11-26 12-25 10-19 10-17 13-20 12-17 12-16 11-13 9-11 7-7 7-8 24-24 8-7 14-12 15-12 18-13 13-9 19-12 26-15 28-14 31-13 31-11 28-8 36-8 34-5zm-8 4-27 3-6 1v1h-8l-33 6-14 3-4 1-29 8-32 11-24 10-18 8-19 10-22 12-23 15-12 8-14 10-14 11-13 11-14 12-33 33-7 8-12 14-13 17-13 18-10 15-13 21-12 22-3 6-1 6-2 1-3 10-3 3-12 28-13 38-9 34-6 31-4 28-3 44v40l2 29 3 27 5 31 8 32 5 17 10 30 9 22 13 28 11 21 16 27 8 12 12 17 9 12 8 10 11 13 12 13 9 10 20 20 8 7 10 9 14 11 18 14 13 9h2v2l11 6 9 6h2v2l6 3 13 7h2v2l42 20 13 5 8 4 20 7 29 9 24 6 21 4 37 6 26 2 7 1h45l32-2 33-4 39-7 37-10 16-5 30-11 27-12 19-9 22-12 24-15 16-11 12-9 13-10 13-11 10-9 8-7 32-32 7-8 11-13 13-17 13-18 16-25 15-26 14-28 12-28 11-30 7-24 6-24 5-26 5-37 3-33v-39l-4-44-6-39-7-33-8-28-12-34-9-22-4-8-4-9-10-21-6-9-9-16-12-19-12-17-14-18-8-10-13-15-14-15-21-21-8-7-14-12-15-12-18-13-24-16-20-12-22-12-28-13-10-2-6-3h-2v-2l-13-4-11-4h-3v-2l-12-3h-3v-2l-10-2-3-2h-6l-4-2-12-3-3-1-6-1-14-1-1-2-1 1-10-1v-2h-13v-2l-16-1-4-1-8-1-14-1z" fill="#63655A"/>
<path transform="translate(330,368)" d="m0 0 1 2h3l-1 13-4 10-2 20-3 8-1 17-1 8-1 9-2 15-1 9-2 10v6l2-2 2 4 2-2h4l2-3v7h2l1-3 1 5h3l2 12 2 16 2 8v11l2 7 2 4 3 15 2 4 2 8 3 8 3 11 2 4 7 18 4 12 9 17 6 8 5 5 4 9 3 12 3 6v3l5-1v2l5 2 3 4-25 25-16-4-7-10-3-10-3-6-7-10v-2l-3-1-5-8-7-13-3-9-2-8-4-12-3-5-4-21-4-13-2-12-2-11-1-7-1-3v-14l1-5-1-5v-34l-2 3-2 12-6 3h-2v7l-1 5-2 7h-2l-1 4-2 1-3 7-2-1-1 2h-2l-1 2-2-9-2 2-2-1-2 4h-3l-1 2h-2l-1 8-1 7-1 28v13l1 25 2 22 3 21 3 16v9h-1l-5-29-3-27-2-29v-40l3-44 6-39 6-28 8-29 12-35 11-26 3 1 3-4h4l5-9h3z" fill="#65BE8E"/>
<path transform="translate(655,1012)" d="m0 0v3l-14 14h8l8 3 17 3h48l14 1h15l22 1h34l28 1 22-1h74l15-1h18l29-1 9-1 28-2 30-1 20 1 19 2 8-2 5-2h3v-2l4 2-13 10-20 13-3-1-7 3-7 1h-28l-7-1-49 1-21 1h-13l-27 1h-39l-6 1h-113l-26-1-21-1-54-2-23-1-9-2h-10l-6 1 6-7 10-10 3-5z" fill="#F6867F"/>
<path transform="translate(1197,956)" d="m0 0 1 3-38 38-8 7-13 11-1-2-7 4-7 3-8 3h-7l-3-2-6-3-1-2-9-3h-24v-1h-9l-20-3-19-1-5-1h-38l-9 1h-10l-5 1h-3l1-3 21-4 18-4-3-2 49-11 36-9 36-10 21-3 4-1h4l14-2 10-2 1 1h6l5 5 13-2 10-3 3-1z" fill="#E46B60"/>
<path transform="translate(684,1103)" d="m0 0h15l6 1h23l11 1h107l19 1h34l4-1 4 1 10-1 9 1 8 2v2l9-2h7l8-1 7-2 14-2-1 2-14 5-42 11-25 5-32 5-30 3-20 1h-45l-41-4-36-6-38-9-17-5v-3h20l5-2 8-1h8z" fill="#E8B1A2"/>
<path transform="translate(312,506)" d="m0 0h1v38l1 5-1 7v11l2 4v8l2 8 2 12 5 17 4 20 2 2 4 12 5 17 7 13 5 8 4 4 7 10 5 15 4 5 2 4 15 4-2 4-20 20-8 1-2-1v-2h-5l-5-9-5-13-4-6-3-5-1-5-4-4-7-18-4-7-4-10-9-24-3-12-3-13-3-9-3-8-2-9-3-12-3-7-1-16-1-5 1-2h2l1-3 3-2 3-7 4-2 1-10 1-1 1-7 6-2 2-8 1-6z" fill="#0EB564"/>
<path transform="translate(1158,958)" d="m0 0 2 1h6l2 2 2 4-6 3-8 3-10 4-6 2-6 3h-5v2l-13 4-9 3-16 4-9 3-7 2-8 2h-10v2l-15 2-5 2-19 2-5-1h-38l-9 1h-10l-5 1h-3l1-3 21-4 18-4-3-2 49-11 36-9 36-10 21-3 4-1h4l14-2z" fill="#F26058"/>
<path transform="translate(556,556)" d="m0 0 5 1-2 4-20 20-7-6-11-8-9-7h3l5 2 2-2 11 1 3-1 2 3v3l-4 6 8-6 11-7 3-1z" fill="#1D9C5A"/>
<path transform="translate(729,1134)" d="m0 0h15l21 2 29 2h16l1-1 39-2 4 1-7 2-25 2h-46l-34-3-13-2z" fill="#E13D31"/>
<path transform="translate(512,559)" d="m0 0 5 2h4l1-1 11 1 3-1 2 3v3l-4 7-2 2-11-8-9-7z" fill="#139853"/>
<path transform="translate(729,1134)" d="m0 0h15l21 2 15 1 1 3-30-2-18-2z" fill="#D94D3F"/>
<path transform="translate(682,1007)" d="m0 0h8l29 4 33 3v1h-13l-21-2h-12l-7-2-13-2z" fill="#EE635A"/>
<path transform="translate(351,766)" d="m0 0 2 1-43 43h-2l-1 2-1-4 5-2z" fill="#66BF8F"/>
<path transform="translate(684,949)" d="m0 0 7 1 2 5-1 4-5-1-5-6v-2z" fill="#FDE15D"/>
<path transform="translate(847,1135)" d="m0 0h7l-2 2-17 2h-4v-2l2-1z" fill="#D34F3F"/>
<path transform="translate(633,1034)" d="m0 0v3l-15 15-2 3-3-1z" fill="#F4928A"/>
<path transform="translate(421,299)" d="m0 0 1 4-4 15h-1v-14l1-2h2z" fill="#129752"/>
<path transform="translate(994,994)" d="m0 0h8l-3 3-10 1-4-2z" fill="#EA685F"/>
<path transform="translate(1100,1041)" d="m0 0 2 1-11 8-6 3v-3l14-8z" fill="#EF857D"/>
<path transform="translate(980,997)" d="m0 0h9l-1 2-9 2h-5l1-3z" fill="#F5746D"/>
<path transform="translate(767,1137)" d="m0 0h13l1 3-14-1z" fill="#DC483A"/>
<path transform="translate(729,1134)" d="m0 0h15l1 3-16-2z" fill="#CB584A"/>
<path transform="translate(625,1105)" d="m0 0 10 1 2 4-11-3z" fill="#E99B8E"/>
</svg>
