<?xml version="1.0" encoding="UTF-8"?>
<!DOCTYPE svg PUBLIC "-//W3C//DTD SVG 1.1//EN" "http://www.w3.org/Graphics/SVG/1.1/DTD/svg11.dtd">
<svg xmlns="http://www.w3.org/2000/svg" version="1.1" width="64px" height="48px" style="shape-rendering:geometricPrecision; text-rendering:geometricPrecision; image-rendering:optimizeQuality; fill-rule:evenodd; clip-rule:evenodd" xmlns:xlink="http://www.w3.org/1999/xlink">
<g><path style="opacity:0.015" fill="#060607" d="M 30.5,-0.5 C 31.1667,-0.5 31.8333,-0.5 32.5,-0.5C 49.4921,2.77271 56.6588,13.106 54,30.5C 48.6711,43.9172 38.8378,49.0839 24.5,46C 9.81091,39.6083 4.97758,28.775 10,13.5C 14.5882,5.39134 21.4216,0.724671 30.5,-0.5 Z"/></g>
<g><path style="opacity:1" fill="#f9f9f9" d="M 48.5,9.5 C 49.8897,10.8993 50.8897,12.5659 51.5,14.5C 38.1667,15.8333 24.8333,15.8333 11.5,14.5C 11.427,12.9731 12.0937,11.9731 13.5,11.5C 24.984,9.59223 36.6507,8.92557 48.5,9.5 Z"/></g>
<g><path style="opacity:1" fill="#c9cfdc" d="M 15.5,8.5 C 16.5,8.5 17.5,8.5 18.5,8.5C 27.1667,8.5 35.8333,8.5 44.5,8.5C 45.5,8.5 46.5,8.5 47.5,8.5C 48.1667,8.5 48.5,8.83333 48.5,9.5C 36.6507,8.92557 24.984,9.59223 13.5,11.5C 13.427,9.97306 14.0937,8.97306 15.5,8.5 Z"/></g>
<g><path style="opacity:1" fill="#879bc0" d="M 39.5,3.5 C 40.4916,3.32842 41.1583,3.66175 41.5,4.5C 42.5,5.83333 43.5,7.16667 44.5,8.5C 35.8333,8.5 27.1667,8.5 18.5,8.5C 19.8333,6.83333 21.1667,5.16667 22.5,3.5C 28.1749,2.2317 33.8416,2.2317 39.5,3.5 Z"/></g>
<g><path style="opacity:0.788" fill="#354b74" d="M 22.5,3.5 C 21.1667,5.16667 19.8333,6.83333 18.5,8.5C 17.5,8.5 16.5,8.5 15.5,8.5C 17.2964,6.10001 19.6298,4.43334 22.5,3.5 Z"/></g>
<g><path style="opacity:0.624" fill="#33486e" d="M 41.5,4.5 C 44.1979,4.8449 46.1979,6.17823 47.5,8.5C 46.5,8.5 45.5,8.5 44.5,8.5C 43.5,7.16667 42.5,5.83333 41.5,4.5 Z"/></g>
<g><path style="opacity:0.835" fill="#435472" d="M 39.5,3.5 C 33.8416,2.2317 28.1749,2.2317 22.5,3.5C 25.1864,2.00919 28.1864,1.34252 31.5,1.5C 34.5267,1.28653 37.1934,1.9532 39.5,3.5 Z"/></g>
<g><path style="opacity:1" fill="#e8b8bd" d="M 11.5,14.5 C 24.8333,15.8333 38.1667,15.8333 51.5,14.5C 52.3382,14.8417 52.6716,15.5084 52.5,16.5C 52.1667,16.5 51.8333,16.5 51.5,16.5C 49.8333,16.5 48.1667,16.5 46.5,16.5C 36.5,16.5 26.5,16.5 16.5,16.5C 14.5,16.5 12.5,16.5 10.5,16.5C 10.3284,15.5084 10.6618,14.8417 11.5,14.5 Z"/></g>
<g><path style="opacity:1" fill="#d1182c" d="M 10.5,16.5 C 12.5,16.5 14.5,16.5 16.5,16.5C 17.1534,17.8068 17.8201,19.1401 18.5,20.5C 26.8134,21.6651 35.1467,21.8317 43.5,21C 44.8825,19.7292 45.8825,18.2292 46.5,16.5C 48.1667,16.5 49.8333,16.5 51.5,16.5C 51.5,21.1667 51.5,25.8333 51.5,30.5C 37.8333,30.5 24.1667,30.5 10.5,30.5C 9.22163,25.8018 9.22163,21.1352 10.5,16.5 Z"/></g>
<g><path style="opacity:1" fill="#d73c4d" d="M 16.5,16.5 C 26.5,16.5 36.5,16.5 46.5,16.5C 45.8825,18.2292 44.8825,19.7292 43.5,21C 35.1467,21.8317 26.8134,21.6651 18.5,20.5C 17.8201,19.1401 17.1534,17.8068 16.5,16.5 Z"/></g>
<g><path style="opacity:1" fill="#ba3946" d="M 51.5,16.5 C 51.8333,16.5 52.1667,16.5 52.5,16.5C 53.1009,18.578 53.4343,20.7446 53.5,23C 53.7001,25.8655 53.0334,28.3655 51.5,30.5C 51.5,25.8333 51.5,21.1667 51.5,16.5 Z"/></g>
<g><path style="opacity:1" fill="#f9eced" d="M 10.5,30.5 C 24.1667,30.5 37.8333,30.5 51.5,30.5C 51.3122,33.2061 50.3122,35.5395 48.5,37.5C 36.7828,37.7913 25.1162,37.458 13.5,36.5C 12.5,34.5 11.5,32.5 10.5,30.5 Z"/></g>
<g><path style="opacity:1" fill="#c7d2ea" d="M 13.5,36.5 C 25.1162,37.458 36.7828,37.7913 48.5,37.5C 48.1583,38.3382 47.4916,38.6716 46.5,38.5C 44.8333,38.5 43.1667,38.5 41.5,38.5C 34.8333,38.5 28.1667,38.5 21.5,38.5C 20.1667,38.5 18.8333,38.5 17.5,38.5C 16.8333,38.5 16.1667,38.5 15.5,38.5C 14.5,38.1667 13.8333,37.5 13.5,36.5 Z"/></g>
<g><path style="opacity:1" fill="#4f7fdf" d="M 17.5,38.5 C 18.8333,38.5 20.1667,38.5 21.5,38.5C 25.0543,39.9844 28.8877,40.6511 33,40.5C 35.5,40.3333 38,40.1667 40.5,40C 41.056,39.6174 41.3893,39.1174 41.5,38.5C 43.1667,38.5 44.8333,38.5 46.5,38.5C 45.8333,39.8333 44.8333,40.8333 43.5,41.5C 36.825,41.6663 30.1583,41.4996 23.5,41C 21.0261,40.9633 19.0261,40.13 17.5,38.5 Z"/></g>
<g><path style="opacity:1" fill="#215cd5" d="M 21.5,38.5 C 28.1667,38.5 34.8333,38.5 41.5,38.5C 41.3893,39.1174 41.056,39.6174 40.5,40C 38,40.1667 35.5,40.3333 33,40.5C 28.8877,40.6511 25.0543,39.9844 21.5,38.5 Z"/></g>
<g><path style="opacity:1" fill="#7b9bdc" d="M 15.5,38.5 C 16.1667,38.5 16.8333,38.5 17.5,38.5C 19.0261,40.13 21.0261,40.9633 23.5,41C 30.1583,41.4996 36.825,41.6663 43.5,41.5C 42.4863,42.6737 41.153,43.3404 39.5,43.5C 33.8333,44.8333 28.1667,44.8333 22.5,43.5C 19.6298,42.5667 17.2964,40.9 15.5,38.5 Z"/></g>
<g><path style="opacity:0.608" fill="#73829f" d="M 22.5,43.5 C 28.1667,44.8333 33.8333,44.8333 39.5,43.5C 36.9831,44.973 34.1498,45.6397 31,45.5C 27.8502,45.6397 25.0169,44.973 22.5,43.5 Z"/></g>
</svg>
