<svg width="23" height="23" viewBox="0 0 23 23" fill="none" xmlns="http://www.w3.org/2000/svg">
<g clip-path="url(#clip0_1438_1957)">
<path d="M11.5 22.5C17.8513 22.5 23 17.5751 23 11.5C23 5.42487 17.8513 0.5 11.5 0.5C5.14873 0.5 0 5.42487 0 11.5C0 17.5751 5.14873 22.5 11.5 22.5Z" fill="#0052B4"/>
<path d="M11.4991 4.8042L11.8714 5.90029H13.0762L12.1015 6.57769L12.4738 7.67378L11.4991 6.99634L10.5243 7.67378L10.8966 6.57769L9.92188 5.90029H11.1267L11.4991 4.8042Z" fill="#FFDA44"/>
<path d="M6.55098 6.7653L7.62461 7.28849L8.47656 6.47363L8.28802 7.61188L9.36161 8.13511L8.17158 8.3154L7.98309 9.45373L7.43607 8.42682L6.24609 8.60716L7.09804 7.79226L6.55098 6.7653Z" fill="#FFDA44"/>
<path d="M4.5 11.4998L5.64591 11.1437V9.99121L6.35406 10.9236L7.50002 10.5675L6.79173 11.4998L7.50002 12.4322L6.35406 12.0761L5.64591 13.0085V11.856L4.5 11.4998Z" fill="#FFDA44"/>
<path d="M6.55098 16.2343L7.09799 15.2073L6.24609 14.3924L7.43612 14.5728L7.98304 13.5459L8.17158 14.6842L9.36156 14.8645L8.28811 15.3877L8.47655 16.526L7.62461 15.7111L6.55098 16.2343Z" fill="#FFDA44"/>
<path d="M11.4991 18.1957L11.1267 17.0996H9.92188L10.8967 16.4222L10.5243 15.3262L11.4991 16.0035L12.4738 15.3262L12.1015 16.4222L13.0762 17.0996H11.8714L11.4991 18.1957Z" fill="#FFDA44"/>
<path d="M16.4492 16.2343L15.3756 15.7111L14.5236 16.526L14.7122 15.3877L13.6387 14.8645L14.8287 14.6842L15.0171 13.5459L15.5641 14.5728L16.7541 14.3924L15.9022 15.2074L16.4492 16.2343Z" fill="#FFDA44"/>
<path d="M18.4999 11.4998L17.354 11.856V13.0085L16.6458 12.0761L15.5 12.4322L16.2082 11.4998L15.5 10.5675L16.6459 10.9236L17.354 9.99121V11.1437L18.4999 11.4998Z" fill="#FFDA44"/>
<path d="M16.4492 6.76526L15.9022 7.79222L16.7541 8.60712L15.5641 8.42673L15.0171 9.45364L14.8287 8.31536L13.6387 8.13502L14.7122 7.61183L14.5236 6.47363L15.3757 7.28849L16.4492 6.76526Z" fill="#FFDA44"/>
</g>
<defs>
<clipPath id="clip0_1438_1957">
<rect width="23" height="22" fill="white" transform="translate(0 0.5)"/>
</clipPath>
</defs>
</svg>
