<svg xmlns="http://www.w3.org/2000/svg" version="1.1" xmlns:xlink="http://www.w3.org/1999/xlink" width="512" height="512" x="0" y="0" viewBox="0 0 512 512" style="enable-background:new 0 0 512 512" xml:space="preserve" class=""><g><g data-name="Flags"><circle cx="256" cy="256" r="256" fill="#2196f3" opacity="1" data-original="#2196f3"></circle><circle cx="256" cy="256" r="211.69" fill="#0d47a1" opacity="1" data-original="#0d47a1"></circle><g fill="#fff"><path d="M417.42 425.45S349.18 486.67 256 486.67 94.58 425.45 94.58 425.45s68.24 72.52 161.42 72.52 161.42-72.52 161.42-72.52zM417.42 86.55S349.18 25.33 256 25.33 94.58 86.55 94.58 86.55 162.82 14.03 256 14.03s161.42 72.52 161.42 72.52z" fill="#ffffff" opacity="1" data-original="#ffffff" class=""></path></g><rect width="373.98" height="373.98" x="69.01" y="69.01" fill="#1eb53a" data-name="Shape 01" rx="186.99" opacity="1" data-original="#1eb53a"></rect><path fill="#ce1126" d="M442.99 256c0 21.86-3.75 42.84-10.64 62.33H79.65c-6.89-19.49-10.64-40.47-10.64-62.33s3.75-42.84 10.64-62.34h352.7c6.89 19.49 10.64 40.48 10.64 62.34z" opacity="1" data-original="#ce1126" class=""></path><path fill="#ffffff" d="M442.99 256.01c0 18.39-2.65 36.14-7.59 52.92H76.6c-4.94-16.78-7.59-34.53-7.59-52.92s2.65-36.14 7.59-52.92h358.8c4.94 16.78 7.59 34.53 7.59 52.92z" opacity="1" data-original="#ffffff" class=""></path><path fill="#0099b5" d="M432.35 193.67H79.65c9.39-26.57 24.62-50.38 44.13-69.89C157.63 89.94 204.37 69.01 256 69.01s98.38 20.93 132.22 54.77c19.51 19.51 34.74 43.32 44.13 69.89z" opacity="1" data-original="#0099b5"></path><g fill="#fff"><path d="M202.76 183.41c-2.15.38-4.39.58-6.65.58-22.05 0-39.93-17.88-39.93-39.93s17.88-39.93 39.93-39.93c2.26 0 4.5.2 6.65.58-18.88 3.15-33.27 19.56-33.27 39.35s14.4 36.2 33.27 39.35z" fill="#ffffff" opacity="1" data-original="#ffffff" class=""></path><path d="m276.17 109.65 4.7 3.41-1.8 5.52 4.7-3.41 4.69 3.41-1.79-5.52 4.69-3.41h-5.8l-1.79-5.51-1.79 5.51z" data-name="12" fill="#ffffff" opacity="1" data-original="#ffffff" class=""></path><path d="m308.11 109.65 4.7 3.41-1.79 5.52 4.69-3.41 4.69 3.41-1.79-5.52 4.69-3.41h-5.8l-1.79-5.51-1.79 5.51z" data-name="11" fill="#ffffff" opacity="1" data-original="#ffffff" class=""></path><path d="m340.06 109.65 4.69 3.41-1.79 5.52 4.69-3.41 4.69 3.41-1.79-5.52 4.7-3.41h-5.81l-1.79-5.51-1.79 5.51z" data-name="10" fill="#ffffff" opacity="1" data-original="#ffffff" class=""></path><path d="m276.74 141.58 4.7 3.41-1.8 5.52 4.7-3.41 4.69 3.41-1.79-5.52 4.69-3.41h-5.8l-1.79-5.51-1.8 5.51z" data-name="9" fill="#ffffff" opacity="1" data-original="#ffffff" class=""></path><path d="m308.68 141.58 4.7 3.41-1.8 5.52 4.7-3.41 4.69 3.41-1.79-5.52 4.69-3.41h-5.8l-1.79-5.51-1.79 5.51z" data-name="8" fill="#ffffff" opacity="1" data-original="#ffffff" class=""></path><path d="m340.62 141.58 4.7 3.41-1.79 5.52 4.69-3.41 4.69 3.41-1.79-5.52 4.69-3.41h-5.8l-1.79-5.51-1.79 5.51z" data-name="7" fill="#ffffff" opacity="1" data-original="#ffffff" class=""></path><path d="m244.8 141.58 4.69 3.41-1.79 5.52 4.7-3.41 4.69 3.41-1.79-5.52 4.69-3.41h-5.8l-1.79-5.51-1.8 5.51z" data-name="6" fill="#ffffff" opacity="1" data-original="#ffffff" class=""></path><path d="m276.35 173.54 4.7 3.41-1.8 5.51 4.7-3.41 4.69 3.41-1.79-5.51 4.69-3.41h-5.8l-1.79-5.52-1.8 5.52z" data-name="5" fill="#ffffff" opacity="1" data-original="#ffffff" class=""></path><path d="m308.29 173.54 4.7 3.41-1.8 5.51 4.7-3.41 4.69 3.41-1.79-5.51 4.69-3.41h-5.8l-1.79-5.52-1.79 5.52z" data-name="4" fill="#ffffff" opacity="1" data-original="#ffffff" class=""></path><path d="m340.23 173.54 4.7 3.41-1.79 5.51 4.69-3.41 4.69 3.41-1.79-5.51 4.69-3.41h-5.8l-1.79-5.52-1.79 5.52z" data-name="3" fill="#ffffff" opacity="1" data-original="#ffffff" class=""></path><path d="m244.41 173.54 4.69 3.41-1.79 5.51 4.7-3.41 4.69 3.41-1.79-5.51 4.69-3.41h-5.8l-1.79-5.52-1.8 5.52z" data-name="2" fill="#ffffff" opacity="1" data-original="#ffffff" class=""></path><path d="m212.47 173.54 4.69 3.41-1.79 5.51 4.69-3.41 4.7 3.41-1.8-5.51 4.7-3.41h-5.8l-1.8-5.52-1.79 5.52z" data-name="1" fill="#ffffff" opacity="1" data-original="#ffffff" class=""></path></g></g></g></svg>