<svg height="512" viewBox="0 0 512 512" width="512" xmlns="http://www.w3.org/2000/svg" xmlns:xlink="http://www.w3.org/1999/xlink"><linearGradient id="linear-gradient" gradientUnits="userSpaceOnUse" x1="69.23" x2="427.15" y1="69.23" y2="427.15"><stop offset="0" stop-opacity="0"/><stop offset="1" stop-opacity=".3"/></linearGradient><g id="Layer_2" data-name="Layer 2"><g id="Guadeloupe"><circle cx="256" cy="256" fill="#fff" r="256"/><path d="m511.47 239.4v33.2c-6.68 104.4-75.94 191.78-170.67 225v-483.22c94.73 33.24 163.99 120.62 170.67 225.02z" fill="#d50817"/><path d="m170.13 14.76v482.48c-98.36-35.01-169.02-128.5-170.13-238.64 0-.86 0-1.74 0-2.6 0-111.26 71-205.95 170.13-241.24z" fill="#080863"/><path d="m256 0c-141.38 0-256 114.62-256 256s114.62 256 256 256 256-114.62 256-256-114.62-256-256-256zm-62.53 332.47c-81.3 0-147.2-66.15-147.2-147.74s65.9-147.73 147.2-147.73 147.2 66.14 147.2 147.73-65.91 147.74-147.2 147.74z" fill="url(#linear-gradient)"/></g></g></svg>