<?xml version="1.0" encoding="UTF-8"?>
<!DOCTYPE svg PUBLIC "-//W3C//DTD SVG 1.1//EN" "http://www.w3.org/Graphics/SVG/1.1/DTD/svg11.dtd">
<svg xmlns="http://www.w3.org/2000/svg" version="1.1" width="64px" height="64px" style="shape-rendering:geometricPrecision; text-rendering:geometricPrecision; image-rendering:optimizeQuality; fill-rule:evenodd; clip-rule:evenodd" xmlns:xlink="http://www.w3.org/1999/xlink">
<g><path style="opacity:0.985" fill="#b7213d" d="M 22.5,-0.5 C 28.5,-0.5 34.5,-0.5 40.5,-0.5C 42.2608,0.312714 43.9275,1.31271 45.5,2.5C 36.1667,2.5 26.8333,2.5 17.5,2.5C 19.0725,1.31271 20.7392,0.312714 22.5,-0.5 Z"/></g>
<g><path style="opacity:0.999" fill="#0b2878" d="M 17.5,2.5 C 26.8333,2.5 36.1667,2.5 45.5,2.5C 54.2528,6.66053 60.2528,13.3272 63.5,22.5C 63.5,28.5 63.5,34.5 63.5,40.5C 60.2528,49.6728 54.2528,56.3395 45.5,60.5C 36.1667,60.5 26.8333,60.5 17.5,60.5C 8.74724,56.3395 2.74724,49.6728 -0.5,40.5C -0.5,34.5 -0.5,28.5 -0.5,22.5C 2.74724,13.3272 8.74724,6.66053 17.5,2.5 Z"/></g>
<g><path style="opacity:1" fill="#e91c1b" d="M 30.5,14.5 C 46.1642,25.2238 46.4975,36.5571 31.5,48.5C 22.1789,42.3701 19.3456,34.0368 23,23.5C 25.3347,20.3347 27.8347,17.3347 30.5,14.5 Z"/></g>
<g><path style="opacity:1" fill="#8cd6eb" d="M 35.5,20.5 C 34.5041,20.4142 33.6708,20.7476 33,21.5C 31.456,18.7364 30.2893,18.9031 29.5,22C 28.0993,22.4101 26.766,22.9101 25.5,23.5C 26.7341,20.5927 28.7341,18.2593 31.5,16.5C 33.188,17.5213 34.5213,18.8546 35.5,20.5 Z"/></g>
<g><path style="opacity:1" fill="#3ca966" d="M 35.5,20.5 C 34.0474,21.8249 34.3808,22.6582 36.5,23C 34.0087,23.6259 34.0087,24.4593 36.5,25.5C 34.9136,24.9727 33.5802,25.6394 32.5,27.5C 31.8333,23.5 31.1667,23.5 30.5,27.5C 29.0158,25.9263 27.3492,24.593 25.5,23.5C 26.766,22.9101 28.0993,22.4101 29.5,22C 30.2893,18.9031 31.456,18.7364 33,21.5C 33.6708,20.7476 34.5041,20.4142 35.5,20.5 Z"/></g>
<g><path style="opacity:1" fill="#95d4f0" d="M 35.5,20.5 C 40.1198,24.6833 41.4531,29.6833 39.5,35.5C 37.1667,35.5 34.8333,35.5 32.5,35.5C 32.3505,34.448 32.5172,33.448 33,32.5C 34.3561,33.3802 35.8561,33.7135 37.5,33.5C 37.5,32.5 37.5,31.5 37.5,30.5C 34.139,32.4837 32.4723,31.4837 32.5,27.5C 33.5802,25.6394 34.9136,24.9727 36.5,25.5C 34.0087,24.4593 34.0087,23.6259 36.5,23C 34.3808,22.6582 34.0474,21.8249 35.5,20.5 Z"/></g>
<g><path style="opacity:1" fill="#98cfe8" d="M 25.5,23.5 C 27.3492,24.593 29.0158,25.9263 30.5,27.5C 30.5,28.5 30.5,29.5 30.5,30.5C 24.1184,30.7718 23.9518,31.7718 30,33.5C 30.3333,33.1667 30.6667,32.8333 31,32.5C 31.5791,33.9285 31.4124,35.2618 30.5,36.5C 30.5,37.5 30.5,38.5 30.5,39.5C 29.1667,39.5 27.8333,39.5 26.5,39.5C 26.5,38.5 26.5,37.5 26.5,36.5C 25.5,36.5 24.5,36.5 23.5,36.5C 21.8023,31.7343 22.4689,27.401 25.5,23.5 Z"/></g>
<g><path style="opacity:1" fill="#aa968a" d="M 32.5,27.5 C 32.4723,31.4837 34.139,32.4837 37.5,30.5C 37.5,31.5 37.5,32.5 37.5,33.5C 35.8561,33.7135 34.3561,33.3802 33,32.5C 32.5172,33.448 32.3505,34.448 32.5,35.5C 34.8333,35.5 37.1667,35.5 39.5,35.5C 39.5,35.8333 39.5,36.1667 39.5,36.5C 36.3243,36.892 33.3243,36.892 30.5,36.5C 31.4124,35.2618 31.5791,33.9285 31,32.5C 30.6667,32.8333 30.3333,33.1667 30,33.5C 23.9518,31.7718 24.1184,30.7718 30.5,30.5C 30.5,29.5 30.5,28.5 30.5,27.5C 31.1667,23.5 31.8333,23.5 32.5,27.5 Z"/></g>
<g><path style="opacity:1" fill="#3d88ce" d="M 23.5,36.5 C 24.5,36.5 25.5,36.5 26.5,36.5C 26.5,37.5 26.5,38.5 26.5,39.5C 27.8333,39.5 29.1667,39.5 30.5,39.5C 30.5,38.5 30.5,37.5 30.5,36.5C 33.3243,36.892 36.3243,36.892 39.5,36.5C 39.573,38.0269 38.9063,39.0269 37.5,39.5C 36.2022,38.8843 35.2022,38.8843 34.5,39.5C 32.5,39.8333 30.5,40.1667 28.5,40.5C 27.5,40.5 26.5,40.5 25.5,40.5C 24.3995,39.3951 23.7329,38.0618 23.5,36.5 Z"/></g>
<g><path style="opacity:1" fill="#e9c95b" d="M 25.5,40.5 C 26.5,40.5 27.5,40.5 28.5,40.5C 28.1667,41.1667 27.8333,41.8333 27.5,42.5C 26.5,42.1667 25.8333,41.5 25.5,40.5 Z"/></g>
<g><path style="opacity:1" fill="#6aa6b2" d="M 34.5,39.5 C 33.9694,42.7794 31.9694,44.1128 28.5,43.5C 27.8333,43.5 27.5,43.1667 27.5,42.5C 27.8333,41.8333 28.1667,41.1667 28.5,40.5C 30.5,40.1667 32.5,39.8333 34.5,39.5 Z"/></g>
<g><path style="opacity:1" fill="#efcd4f" d="M 37.5,39.5 C 36.2659,42.4073 34.2659,44.7407 31.5,46.5C 30.1451,45.8118 29.1451,44.8118 28.5,43.5C 31.9694,44.1128 33.9694,42.7794 34.5,39.5C 35.2022,38.8843 36.2022,38.8843 37.5,39.5 Z"/></g>
<g><path style="opacity:0.591" fill="#be213b" d="M 17.5,60.5 C 26.8333,60.5 36.1667,60.5 45.5,60.5C 43.9275,61.6873 42.2608,62.6873 40.5,63.5C 34.5,63.5 28.5,63.5 22.5,63.5C 20.7392,62.6873 19.0725,61.6873 17.5,60.5 Z"/></g>
</svg>
