<svg id="svg2" height="512" width="512" xmlns="http://www.w3.org/2000/svg" xmlns:xlink="http://www.w3.org/1999/xlink" xmlns:cc="http://creativecommons.org/ns#" xmlns:dc="http://purl.org/dc/elements/1.1/" xmlns:inkscape="http://www.inkscape.org/namespaces/inkscape" xmlns:rdf="http://www.w3.org/1999/02/22-rdf-syntax-ns#" xmlns:sodipodi="http://sodipodi.sourceforge.net/DTD/sodipodi-0.dtd" xmlns:svg="http://www.w3.org/2000/svg"><clipPath id="clipPath3531"><rect id="rect3533" height="480" ry="48" width="480" x="16" y="556.362"/></clipPath><clipPath id="clipPath3923"><path id="path3925" d="m-360 118a208 208 0 1 1 -416 0 208 208 0 1 1 416 0z" transform="matrix(1.154 0 0 1.154 911.385 660.208)"/></clipPath><radialGradient id="radialGradient3928" cx="-492.954" cy="196.832" gradientTransform="matrix(.869 -.512 .508 .862 -164.453 -225.11)" gradientUnits="userSpaceOnUse" r="232.335"><stop id="stop3808" offset="0" stop-color="#fefefe"/><stop id="stop3810" offset="1" stop-color="#fff" stop-opacity="0"/></radialGradient><g id="layer1" transform="translate(0 -540.362)"><g id="g3513" clip-path="url(#clipPath3923)"><g id="g4033"><path id="rect3924" d="m16 556.36218v240 240.00002h240 240v-240.00002-240h-240z" fill="#fff"/><path id="rect3787" d="m206.5 556.362h99v480h-99z" fill="#e32d3c"/><path id="rect4031" d="m746.862-496h99v480h-99z" fill="#e32d3c" transform="rotate(90)"/><g id="g3010" transform="matrix(18.228 0 0 18.169 256 796.362)"><path id="arm" d="m-9 2 1-1h9v-2h-9l-1-1z" fill="#f9dd16"/><use id="use9" height="1052.362" transform="rotate(90)" width="744.094" xlink:href="#arm"/><use id="use11" height="1052.362" transform="rotate(-90)" width="744.094" xlink:href="#arm"/><use id="use13" height="1052.362" transform="scale(-1)" width="744.094" xlink:href="#arm"/></g></g></g><path id="path3036" d="m-260.61935 196.83241a232.33508 232.33508 0 1 1 -464.67017 0 232.33508 232.33508 0 1 1 464.67017 0z" fill="url(#radialGradient3928)" opacity=".75" transform="matrix(1.033 0 0 1.033 765.217 593.036)"/></g></svg>