<svg height="180" viewBox="0 0 180 180" width="180" xmlns="http://www.w3.org/2000/svg" xmlns:sketch="http://www.bohemiancoding.com/sketch/ns"><g id="Page-1" fill="none" fill-rule="evenodd"><g id="circle_iraq"><path id="Rectangle-3-copy-2" d="m174.873467 120h-169.75245717c12.35471617 34.955772 45.69086397 60 84.87622837 60 39.1853648 0 72.5215118-25.044228 84.8762248-60z" fill="#262626"/><path id="Rectangle-3-copy-3" d="m5.12100983 120h169.75245717c3.316438-9.383367 5.121009-19.480937 5.121009-30s-1.804571-20.6166327-5.121013-30.0000004l-169.75245317.0000004c-3.31643875 9.3833673-5.12100983 19.480937-5.12100983 30s1.80457108 20.616633 5.12101363 30z" fill="#fff"/><path id="Rectangle-3" d="m5.12100983 60h169.75245717c-12.354717-34.9557725-45.690864-60-84.8762288-60-39.1853644 0-72.5215122 25.0442275-84.87622457 59.9999996z" fill="#ca4638"/><g id="path4318-+-path4320" fill="#479951" transform="translate(21 66)"><path id="path4318" d="m14.742091 47.2420909-1.742091-1.757909 1.7579089-1.7420909 1.7579091-1.742091 1.742091 1.757909 1.742091 1.757909-1.757909 1.7420909-1.7579091 1.7420911-1.7399818-1.7610726zm-11.31137621-.5709313c-.6159656-.2305026-1.61561348-.9899933-2.27098429-1.7239905-1.23504213-1.3840787-1.51606348-2.0299113-.68648018-1.5752792 1.2371161.6787615 3.68749778 1.1195848 4.55959722.8221619 3.21670924-1.1004648 3.94777953-5.499137 1.37918223-8.2896011-.50397185-.5470457-.91668954-1.1833182-.91668954-1.413821 0-.2305027.53611821-.6617659 1.19045204-.9581266.91668954-.4153299 1.36466452-.8678376 1.95159471-1.9714889.59522601-1.120647.83995309-1.3649587 1.12615933-1.1217093.40856979.3473475 1.78878899 3.7209729 1.78878899 4.3731788 0 .3441608.4987869.4195788 2.7562905.4195788h2.7562905l-.4303463-1.0579757c-.2364313-.5810369-.6263354-1.3638964-.8658776-1.7388618-.3878302-.6075925-.3899042-.7148771-.0176286-.9868067.2291724-.1678314.992389-.7180638 1.6964978-1.2226205.7030719-.5045568 1.3605167-1.1387049 1.4590296-1.4095721.2436902-.671326 1.7680495-2.6077616 2.0511447-2.6077616.1254746 0 .2291724 2.0299114.2291724 4.5112681v4.5112681h34.4080044v-12.9251494l-.9571318-.6065304-.9571317-.6065302-.9695755.7573662-.9695754.7573662v9.2381677h-14.4513411c-7.9494819 0-14.452378-.0509868-14.452378-.1125959 0-.0987868 7.1914502-10.0475828 8.0708085-11.1661054.1825083-.2326272.6346312-.8667753 1.0037957-1.4095721.3691646-.5427967.745588-1.0505402.8347682-1.1280826.0912542-.0775424.4635297-.5852857.8306203-1.1280825.3660537-.5427968.7932891-1.1355182.9498729-1.3160963.1565839-.1816405 2.7614754-3.7581508 5.7894544-7.94862703 3.0279791-4.1904762 5.5955395-7.62677292 5.7075332-7.63633294.1109568-.00956002.2685776.33247632.3504989.7584284.4541969 2.36026315.8026218 3.6816706 1.1624536 4.40823226.4604188.92944655.1908042 1.27679401-1.0255723 1.3150341-.5755235.01805782-1.9018198 1.6857505-8.1205836 10.21328991-4.0877717 5.6053595-7.4735086 10.2918945-7.5243205 10.4151126-.050812.1232181 3.6346118.2241294 8.1890241.2241294h8.2813153l.004148-3.0315892c.0020739-1.6666304.0954021-3.1622426.2063588-3.3226386.5195266-.7499306 5.9947763-4.6684773 6.3763846-4.5643793.2374683.0647957 1.7016828 1.1079003 3.2540406 2.3177742l2.8216201 2.2009295v18.8077495h-47.8151075l-.4801212 1.8185285c-.5765605 2.179685-1.5191745 3.7517774-2.785326 4.6397972-1.20289579.8285353-3.9094113 1.0622247-5.49598936.4673789 0 0 1.58657806.5948458 0 0zm59.56928521-22.5673736c0-10.4085567.0972097-14.95561729.3217974-15.09062503.1765416-.10584607.9441627.43850519 1.7050795 1.20966933.7609168.7711642 2.1173824 2.0099953 3.0157336 2.7519978 1.4168026 1.1729473 1.564293 1.3889597 1.1274083 1.6460143-1.4603794.8575692-1.4235067.5875538-1.4235067 10.482001v9.2971729h2.839192c2.5207465 0 2.9866824-.0831648 4.1520806-.7441627 1.4469712-.819767 1.5430635-.7117608.8268407.924533-.2681645.6102351-.5676149 1.8199044-.6681766 2.6871941l-.181011 1.5768904-5.8582776.0777645-5.8571602.0777644v-14.9048545z"/><path id="path4320" d="m93.1303425 34.5025655c.1472977-3.9969208.5722355-5.3532581 2.0812417-6.6405941 1.1614262-.9907338 2.8230286-1.460354 4.7463758-1.3398593l1.440126.0906284.086895-1.6354317c.109149-2.0720961-.083716-2.8115418-.792652-3.0309039-.8509355-.2626166-.677145-1.1215272.353938-1.7466575.504415-.3058711 1.74002-1.3656061 2.744611-2.35531 1.004592-.989704 1.926527-1.7991808 2.047332-1.7991808s.220416 3.9516066.220416 8.7816914v8.7827213h3.952664v-9.0370989c0-7.8496602-.058283-9.0937417-.444012-9.468614-.24373-.2368697-.561639-.431515-.705757-.431515-.633699 0-.185447-1.09887.654891-1.608655.505476-.3058711 1.733662-1.3594268 2.731895-2.3419217.997173-.98249489 1.919108-1.72297058 2.047332-1.64573042.128223.07724016.233132 5.62823312.233132 12.33679862v12.1967364h3.952665v-24.97740847l-.705757-.59629405c-.387849-.32749828-.705758-.74562503-.705758-.92791181s.878488-1.0206 1.951959-1.86406255c1.073472-.84346257 2.22536-1.90628719 2.560225-2.36354895 1.441186-1.9680793 1.417872-2.26159191 1.417872 17.14422623v17.9753303h-29.999977l.1801482-3.5015539zm7.8696575-2.5025656v-1.9999999h-1.1206434c-1.5045577 0-2.8793566 1.4064665-2.8793566 2.9468822v1.0531178h4v-1.9976906zm25.001115-7.4000833c0-10.06113.096931-14.4572843.321989-14.5872865.177148-.10192175.945911.4243271 1.706875 1.1700198.762077.7456925 2.119109 1.9427528 3.017113 2.6603649 1.418311 1.1336191 1.566492 1.3426627 1.128632 1.5912269-1.461763.828894-1.424996.5688896-1.424996 10.1328912v8.987832h2.900128c2.630504 0 3.004858-.0665612 4.030988-.7176122.622809-.3941666 1.204395-.6489709 1.293526-.5657695.089132.0832014-.071305.6864115-.357641 1.3405826-.286337.6541711-.603868 1.8751517-.705256 2.7134059l-.184948 1.5246657-5.863762.0748814-5.863763.0748812v-14.4042434zm-22.480605-14.98720146c-.537243-.20540424-1.154502-.56963851-1.370543-.80848066-.331491-.36542849-.166888-.4012548 1.03791-.22092899 2.164978.32243691 3.492084-.06090475 4.699168-1.36140023l1.061914-1.14166545 1.475706.54694852c.811581.3009411 1.65974.47290745 1.886069.38214742.585253-.23525951 1.646024-1.99194348 1.539717-2.5508341-.129167-.68189433.469803-.577998.840158.1444995.726995 1.41872234.120023 3.2183979-1.26881 3.76654063-.680127.26869741-1.337394.27586267-2.439315.02985526-1.353397-.30332952-1.575153-.27108584-2.168408.30930058-1.325963 1.30168968-3.3492 1.64801078-5.292422.90760016 0 0 1.943222.74041062 0 0zm4.914819-5.77249179c-.759937-.3936497-2.363854-2.41132915-2.424223-3.05303211-.053267-.55003109.075757-.71809615.590667-.774717.901982-.09796306 1.318645.35769997 2.012295 2.20102315.568178 1.50988929.508993 1.98622342-.177555 1.62672596 0 0 .686548.35949746 0 0z"/></g></g><g id="Group"><g id="circle_"/></g></g></svg>