<svg id="Layer_1" enable-background="new 0 0 100 100" height="512" viewBox="0 0 100 100" width="512" xmlns="http://www.w3.org/2000/svg"><g><path d="m50 20.044c-16.518 0-29.956 13.438-29.956 29.956s13.439 29.956 29.956 29.956 29.956-13.438 29.956-29.956-13.438-29.956-29.956-29.956z" fill="#00afca"/><g><g id="sun_5_" transform="translate(1080.472 420)"><circle cx="-1030.452" cy="-374.172" fill="#f5c546" r="8.036"/><g id="r16_11_"><g id="r4_47_"><path id="r_191_" d="m-1030.452-383.304c.478-.006.657-.305.657-.663 0-.478-.657-2.753-.657-2.753s-.657 2.276-.657 2.753c0 .359.179.663.657.663z" fill="#f5c546"/><g transform="rotate(90)"><path id="r_190_" d="m-1021.32-374.172c.006.478.305.657.663.657.478 0 2.753-.657 2.753-.657s-2.276-.657-2.753-.657c-.359 0-.663.18-.663.657z" fill="#f5c546"/></g><g transform="scale(-1)"><path id="r_189_" d="m-1030.452-365.04c-.478.006-.657.305-.657.663 0 .478.657 2.753.657 2.753s.657-2.276.657-2.753c0-.358-.179-.663-.657-.663z" fill="#f5c546"/></g><g transform="matrix(0 -1 1 0 0 0)"><path id="r_188_" d="m-1039.584-374.172c-.006-.478-.305-.657-.663-.657-.478 0-2.753.657-2.753.657s2.276.657 2.753.657c.358 0 .663-.179.663-.657z" fill="#f5c546"/></g></g><g transform="matrix(.924 .383 -.383 .924 0 0)"><g id="r4_46_"><path id="r_187_" d="m-1026.958-382.609c.444.177.724-.03.861-.361.183-.441.447-2.795.447-2.795s-1.478 1.851-1.661 2.292c-.137.332-.088.682.353.864z" fill="#f5c546"/><g transform="rotate(90)"><path id="r_186_" d="m-1022.015-370.677c-.177.444.03.724.361.861.441.183 2.795.447 2.795.447s-1.851-1.478-2.292-1.661c-.332-.137-.682-.088-.864.353z" fill="#f5c546"/></g><g transform="scale(-1)"><path id="r_185_" d="m-1033.947-365.735c-.444-.177-.724.03-.861.361-.183.441-.447 2.795-.447 2.795s1.478-1.851 1.661-2.292c.137-.331.089-.681-.353-.864z" fill="#f5c546"/></g><g transform="matrix(0 -1 1 0 0 0)"><path id="r_184_" d="m-1038.889-377.666c.177-.444-.03-.724-.361-.861-.442-.183-2.795-.447-2.795-.447s1.851 1.478 2.292 1.661c.331.137.681.088.864-.353z" fill="#f5c546"/></g></g></g><g transform="matrix(.707 .707 -.707 .707 0 0)"><g id="r4_45_"><path id="r_183_" d="m-1023.995-380.629c.342.334.68.249.933-.004.338-.338 1.482-2.411 1.482-2.411s-2.074 1.145-2.411 1.482c-.253.253-.342.595-.004.933z" fill="#f5c546"/><g transform="rotate(90)"><path id="r_182_" d="m-1023.995-367.714c-.334.342-.249.68.004.933.338.338 2.411 1.482 2.411 1.482s-1.144-2.074-1.482-2.411c-.253-.253-.595-.342-.933-.004z" fill="#f5c546"/></g><g transform="scale(-1)"><path id="r_181_" d="m-1036.91-367.714c-.342-.334-.68-.249-.933.004-.338.338-1.482 2.411-1.482 2.411s2.074-1.145 2.411-1.482c.253-.253.342-.595.004-.933z" fill="#f5c546"/></g><g transform="matrix(0 -1 1 0 0 0)"><path id="r_180_" d="m-1036.91-380.629c.334-.342.249-.68-.004-.933-.338-.338-2.411-1.482-2.411-1.482s1.145 2.074 1.482 2.411c.253.253.596.342.933.004z" fill="#f5c546"/></g></g></g><g transform="matrix(.383 .924 -.924 .383 0 0)"><g id="r4_44_"><path id="r_179_" d="m-1022.015-377.666c.188.439.533.49.864.353.441-.183 2.292-1.661 2.292-1.661s-2.354.264-2.795.447c-.331.137-.544.419-.361.861z" fill="#f5c546"/><g transform="rotate(90)"><path id="r_178_" d="m-1026.958-365.735c-.439.188-.49.533-.353.864.183.441 1.661 2.292 1.661 2.292s-.264-2.354-.447-2.795c-.137-.331-.419-.544-.861-.361z" fill="#f5c546"/></g><g transform="scale(-1)"><path id="r_177_" d="m-1038.889-370.677c-.188-.439-.533-.49-.864-.353-.441.183-2.292 1.661-2.292 1.661s2.354-.264 2.795-.447c.331-.137.544-.42.361-.861z" fill="#f5c546"/></g><g transform="matrix(0 -1 1 0 0 0)"><path id="r_176_" d="m-1033.947-382.609c.439-.188.49-.533.353-.864-.183-.441-1.661-2.292-1.661-2.292s.264 2.354.447 2.795c.137.331.42.544.861.361z" fill="#f5c546"/></g></g></g></g><g transform="matrix(.981 .195 -.195 .981 0 0)"><g id="r16_10_"><g id="r4_43_"><path id="r_175_" d="m-1028.671-383.128c.47.087.704-.171.774-.522.093-.469-.107-2.829-.107-2.829s-1.088 2.104-1.182 2.572c-.07.352.047.686.515.779z" fill="#f5c546"/><g transform="rotate(90)"><path id="r_174_" d="m-1021.496-372.39c-.087.47.171.704.522.774.469.093 2.829-.107 2.829-.107s-2.104-1.088-2.572-1.182c-.352-.07-.686.046-.779.515z" fill="#f5c546"/></g><g transform="scale(-1)"><path id="r_173_" d="m-1032.234-365.215c-.47-.087-.704.171-.774.522-.093.469.107 2.829.107 2.829s1.088-2.104 1.182-2.572c.07-.352-.046-.686-.515-.779z" fill="#f5c546"/></g><g transform="matrix(0 -1 1 0 0 0)"><path id="r_172_" d="m-1039.409-375.953c.087-.47-.171-.704-.522-.774-.469-.093-2.829.107-2.829.107s2.104 1.088 2.572 1.182c.352.07.686-.047.779-.515z" fill="#f5c546"/></g></g><g transform="matrix(.924 .383 -.383 .924 0 0)"><g id="r4_42_"><path id="r_171_" d="m-1025.379-381.765c.401.26.715.112.915-.186.266-.397.983-2.654.983-2.654s-1.81 1.527-2.076 1.924c-.199.298-.219.651.178.916z" fill="#f5c546"/><g transform="rotate(90)"><path id="r_170_" d="m-1022.859-369.098c-.26.401-.112.715.186.915.397.265 2.654.983 2.654.983s-1.527-1.81-1.924-2.076c-.298-.199-.651-.219-.916.178z" fill="#f5c546"/></g><g transform="scale(-1)"><path id="r_169_" d="m-1035.526-366.579c-.401-.26-.716-.112-.915.186-.265.397-.983 2.654-.983 2.654s1.811-1.527 2.076-1.924c.199-.297.219-.65-.178-.916z" fill="#f5c546"/></g><g transform="matrix(0 -1 1 0 0 0)"><path id="r_168_" d="m-1038.045-379.245c.26-.401.112-.715-.186-.915-.397-.265-2.654-.983-2.654-.983s1.527 1.81 1.924 2.076c.297.199.65.219.916-.178z" fill="#f5c546"/></g></g></g><g transform="matrix(.707 .707 -.707 .707 0 0)"><g id="r4_41_"><path id="r_167_" d="m-1022.859-379.245c.27.394.618.377.916.178.397-.265 1.924-2.076 1.924-2.076s-2.257.718-2.654.983c-.298.199-.452.518-.186.915z" fill="#f5c546"/><g transform="rotate(90)"><path id="r_166_" d="m-1025.379-366.579c-.394.27-.377.618-.178.916.266.397 2.076 1.924 2.076 1.924s-.718-2.257-.983-2.654c-.199-.297-.518-.451-.915-.186z" fill="#f5c546"/></g><g transform="scale(-1)"><path id="r_165_" d="m-1038.045-369.098c-.271-.394-.618-.377-.916-.178-.397.265-1.924 2.076-1.924 2.076s2.257-.718 2.654-.983c.297-.2.451-.518.186-.915z" fill="#f5c546"/></g><g transform="matrix(0 -1 1 0 0 0)"><path id="r_164_" d="m-1035.526-381.765c.394-.27.377-.618.178-.916-.265-.397-2.076-1.924-2.076-1.924s.718 2.257.983 2.654c.2.298.518.452.915.186z" fill="#f5c546"/></g></g></g><g transform="matrix(.383 .924 -.924 .383 0 0)"><g id="r4_40_"><path id="r_163_" d="m-1021.496-375.953c.099.467.427.585.778.515.469-.093 2.572-1.182 2.572-1.182s-2.36-.2-2.829-.107c-.35.07-.614.305-.521.774z" fill="#f5c546"/><g transform="rotate(90)"><path id="r_162_" d="m-1028.671-365.215c-.467.099-.585.427-.515.778.093.469 1.182 2.572 1.182 2.572s.2-2.36.107-2.829c-.07-.35-.305-.614-.774-.521z" fill="#f5c546"/></g><g transform="scale(-1)"><path id="r_161_" d="m-1039.409-372.39c-.099-.467-.427-.585-.778-.515-.469.093-2.572 1.182-2.572 1.182s2.36.2 2.829.107c.351-.07.614-.305.521-.774z" fill="#f5c546"/></g><g transform="matrix(0 -1 1 0 0 0)"><path id="r_160_" d="m-1032.234-383.128c.468-.099.585-.427.515-.778-.093-.469-1.182-2.572-1.182-2.572s-.2 2.36-.107 2.829c.07.35.305.614.774.521z" fill="#f5c546"/></g></g></g></g></g></g><g id="bird_5_"><g fill="#f5c546"><path d="m48.586 63.236c-.215.012-.424.04-.629.106-.281.038-.549.135-.828.181l-.111.018-.187.018c.012.052.02.104.02.155 0 .054-.006.106-.02.149-.012.042-.05.094-.08.125-.04.044-.082.082-.131.106-.048.024-.102.034-.155.038-.054.002-.109 0-.161-.02-.054-.018-.104-.052-.149-.092-.056.014-.113.024-.167.03-.056.006-.108.006-.157 0-.056-.016-.113-.034-.167-.056s-.106-.05-.155-.082c-.203.119-.43.233-.553.442-.07.096-.084.205-.1.319-.01.139.026.287.086.416.022.038.04-.137.108-.161.113-.094.255-.161.398-.199.121-.062.106.004.056.1-.012.05-.08.239.012.143.404-.179.852-.215 1.288-.249.633-.066 1.268-.08 1.903-.088.597.008 1.195.016 1.792.038.285.008.571.072.852.024.068-.018.173-.022.213-.062-.127-.074-.277-.076-.418-.094h-1.139c-.317-.032-.647-.036-.946-.155-.08-.032-.153-.108-.229-.026-.113.04-.235.068-.354.076-.209.016-.418-.028-.611-.106.139-.193.307-.362.46-.542-.123-.02-.243-.046-.366-.076.212-.147.414-.316.625-.476z"/><path d="m57.887 65.3c-.433.26-.763-.201-1.125-.339-.258.14-.282.61-.524.832-.289.329-.643-.092-.616-.416-.345.291-.52.951-1.078.863-.265-.216-.461-.669-.663-.153-.165.252-.604.611-.831.23-.07-.336-.239-.732-.422-.198-.126.378-.529.656-.919.49-.213-.174.171-.82-.101-.774-.406.269-.642.935-1.209.882-.22-.247.134-.666-.108-.94-.285.366-.601.901-1.094.94-.238-.193.009-.747-.143-.829-.506.303-1.039.844-1.675.675.248-.948 1.284-1.281 2.154-1.355 1.498-.184 3.075.154 4.517-.386.233-.142.797-.343.596-.672-.178-.26.463-.158.525-.461-.038-.384.294-.331.619-.365 1.456-.063 2.894.244 4.346.296.11.707-.675 1.204-1.307.985-.302.049-.754-.694-.665-.153-.061.284-.018.658-.277.848m-12.387-1.449c.337.309.573-.058.888-.192 1.057-.363 1.979-.999 2.887-1.633.551-.456 1.028-1.047 1.768-1.195 1.443-.436 2.976-.383 4.425-.786 1.103-1.51 2.976-2.049 4.545-2.916.352-.109.488-.399.601-.72.599-.945 1.415-1.783 2.38-2.356.457-.249 1.001-.393 1.518-.279-.037.616-.39 1.161-.817 1.587.349-.008.649-.228 1.001-.216.121.632-.561.962-.924 1.356.202.047.977.106.555.308-.538.373-1.152.63-1.649 1.063.458.082.51.18.044.345-.252.171-.737.231-.784.564.346.213-.159.424-.354.493-.373.087-.764.249-.269.532-.187.283-.589.343-.917.315.1.321.244.68-.173.821-.933.705-2.028 1.219-3.201 1.336 1.465.113 2.975-.159 4.227-.956.165-.195 1.032-.406.547-.57-.228-.095-.718-.2-.751-.375.678-.418 1.533-.27 2.262-.518.019-.236-.555-.17-.769-.224-.51-.042-.48-.172.012-.22.622-.165 1.327-.197 1.851-.603-.426-.197-.963-.024-1.417-.185.771-.337 1.681-.371 2.373-.878.315-.351-.404-.241-.613-.233-.427.074-.624-.13-.139-.308.828-.611 1.877-1.008 2.459-1.893.138-.198.324-.795-.115-.581-.578.192-1.087.842-1.746.641 1.298-1.006 2.533-2.151 3.42-3.544.046-.402-.584-.445-.748-.13-.834.804-1.589 1.752-2.656 2.256 1.023-.987 1.868-2.156 2.606-3.367.158-.36.583-.794.353-1.193-.372-.308-.837-.026-1.03.342-.648.846-1.141 1.834-1.974 2.523.73-1.393 1.485-2.876 1.504-4.482-.002-.331-.069-.818-.518-.756-.356.064-.272.597-.418.866-.323 1.098-.475 2.286-1.138 3.247.149-.892.41-1.822.21-2.722-.094-.403-.744-.229-.66.169-.777 3.934-3.416 7.374-6.868 9.364-1.581.894-3.346 1.471-5.142 1.732-.483.106-1.006.044-1.468.208-1.119.858-1.796 2.294-3.213 2.743-.635.316-1.463.38-1.917.97-.041.079-.05.167-.048.25"/><path d="m49.74 59.861c-.209.379-.332.816-.601 1.156-.809-.736-1.981-.712-3.007-.761-.847-.045-1.768-.123-2.423-.727-.689-.565-1.252-1.297-2.022-1.756-.703-.191-1.411-.43-1.977-.912-1.208-.984-1.899-2.445-3.079-3.46-.225-.221-.49-.393-.742-.581-.239.058-.131.575-.424.312-.159-.113-.558-.124-.594.034.361.475.722 1.018.772 1.626-.246.025-.684-.052-.806.04.327.49.746.924 1.222 1.27-.228.037-.678.017-.766.109.472.385.979.778 1.597.877.127.167-.185.489.077.632.152.062.654.166.308.339-.237.16-.149.532.154.524.192.098.622.122.656.291-.17.173-.699.378-.249.54.42.233.9.385 1.38.401-.241.203-.538.318-.786.508 1.108.65 2.336 1.077 3.55 1.488.483.161.972.312 1.473.407-1.455-.084-2.862-.515-4.188-1.105-.687-.301-1.379-.592-2.083-.852.309-.161.666-.2.986-.339-.665-.133-1.391-.177-1.975-.542.09-.16.429-.167.617-.249.353-.085.572-.187.074-.218-.502-.136-1.078-.075-1.52-.378.028-.182.491-.118.68-.197.237-.041.501-.075.691-.235-.776-.322-1.791-.094-2.399-.779-.14-.261.435-.051.599-.094.416 0 .864.132 1.261-.036-1.131-.496-2.342-.961-3.205-1.88-.096-.148-.383-.551-.151-.601.671.089 1.157.821 1.875.707.095-.129-.417-.339-.545-.523-1.047-.898-2.063-1.873-2.797-3.05-.05-.393.567-.452.73-.148.801.771 1.524 1.671 2.521 2.197.354.172-.203-.203-.277-.339-.921-1.07-1.799-2.2-2.442-3.46-.115-.227-.306-.638.039-.759.345-.173.687.063.862.359.677.854 1.176 1.87 2.02 2.582-.719-1.395-1.487-2.864-1.505-4.469.017-.311.037-.782.459-.769.354-.054.298.4.415.616.349 1.179.501 2.456 1.202 3.497-.155-.875-.382-1.776-.231-2.665.035-.292.364-.38.578-.204.173.425.21.949.368 1.403.899 3.077 2.919 5.783 5.551 7.599 2.168 1.487 4.74 2.374 7.365 2.529.237.023.475.03.712.045"/><circle cx="46.408" cy="63.799" r=".141"/></g><g><circle cx="46.396" cy="63.776" fill="#f5c546" r=".058"/><path d="m46.396 63.875c-.055 0-.1-.045-.1-.099s.045-.099.1-.099c.054 0 .099.045.099.099s-.045.099-.099.099zm0-.115c-.009 0-.016.007-.016.016 0 .018.032.018.032 0-.001-.009-.007-.016-.016-.016z" fill="#4bacc6"/></g></g></g></g></svg>