<svg height="182" viewBox="0 0 182 182" width="182" xmlns="http://www.w3.org/2000/svg" xmlns:sketch="http://www.bohemiancoding.com/sketch/ns"><g id="Asia-Pacific" fill="none" fill-rule="evenodd"><g id="Macau" transform="translate(1 -799)"><g transform="translate(0 800)"><circle id="Oval-17" cx="90" cy="90" fill="#479951" r="90"/><g id="macau" transform="translate(41.4 33)"><path id="path3370" d="m48.6 0-2.36562 7.31629621h-7.66876l6.20313 4.52211709-2.36875 7.3131602 6.2-4.5158451 6.2 4.5158451-2.36875-7.3131602 6.20313-4.52211709h-7.66876zm-30.25625 12.8356624 1.55313 5.0897337-4.34688 3.0513315 5.30312.0940801 1.55 5.0897337 1.72813-5.0332857 5.30313.0909441-4.23438-3.2018596 1.725-5.0332856-4.34688 3.0544674zm60.5125 0-4.23437 3.2018596-4.34688-3.0544674 1.725 5.0332856-4.23438 3.2018596 5.30313-.0909441 1.72813 5.0332857 1.55-5.0897337 5.30312-.0940801-4.34688-3.0513315zm-70.55937 16.8152509-2.24063 4.8231734-5.2625-.6491527 3.87813 3.6283561-2.24063 4.8263094 4.6375-2.5809309 3.87813 3.628356-1.00938-5.2245818 4.63438-2.5809309-5.2625-.6460167zm80.60624 0-1.0125 5.2245819-5.2625.6460167 4.63438 2.5809309-1.00938 5.2245818 3.87813-3.628356 4.6375 2.5809309-2.24063-4.8263094 3.87813-3.6283561-5.2625.6491527zm0 0" fill="#fbd116"/><path id="path3169" d="m48.6 25.3295004c-6.88736 5.9728464-11.25 14.8010776-11.25 24.6458517 0 6.696078 2.0174 12.920751 5.475 18.0978814-4.24621-5.5045212-6.775-12.4093546-6.775-19.9042194 0-4.9784081 1.11628-9.6966965 3.10938-13.9175836-1.37651-1.4598082-2.42214-3.2371725-3.0125-5.2120379-2.67118 4.7311134-4.19688 10.1962433-4.19688 16.018706 0 7.2424501 2.36022 13.9334633 6.35 19.3428697-6.94832-7.309671-16.74627-11.8666383-27.6-11.8666373-.58322 0-1.16381.0147377-1.74062.040768 1.0921 1.0214832 2.00883 2.2286448 2.7 3.571908 10.79634.01652 20.543 4.5440802 27.475 11.8007863-6.62028-5.5489901-15.14093-8.890576-24.43438-8.890575-5.19365 0-10.145241 1.0432726-14.659375 2.9321633 4.637985 12.2985879 16.485705 21.0519916 30.359375 21.0519916.89834 0 1.78889-.0405723 2.66875-.1128961-1.8721.3375845-3.80033.5143046-5.76875.5143046-8.75323 0-16.69867-3.4842655-22.5375-9.1445863-1.215417.4692967-2.518888.7623349-3.878125.84358 5.947015 6.7503253 14.637925 11.0105133 24.315625 11.0105133 9.19236 0 17.49443-3.8426931 23.4-10.0132542 5.90557 6.1705611 14.20765 10.0132542 23.4 10.0132542 9.67771 0 18.36861-4.260188 24.31562-11.0105133-1.35922-.0812451-2.66269-.3742833-3.87812-.84358-5.83882 5.6603208-13.78426 9.1445863-22.5375 9.1445863-1.96841 0-3.89665-.1767201-5.76875-.5143046.87985.0723238 1.77042.1128961 2.66875.1128961 13.87368 0 25.72139-8.7534037 30.35938-21.0519916-4.51415-1.8888907-9.46572-2.9321633-14.65938-2.9321633-9.29344-.000001-17.8141 3.3415849-24.43438 8.890575 6.932-7.2567061 16.67866-11.7842663 27.475-11.8007863.69117-1.3432632 1.6079-2.5504248 2.7-3.571908-.57681-.0260303-1.15739-.040768-1.74062-.040768-10.85372-.000001-20.65167 4.5569663-27.6 11.8666373 3.98979-5.4094064 6.35-12.1004196 6.35-19.3428697 0-5.8224627-1.5257-11.2875926-4.19688-16.018706-.59036 1.9748654-1.63599 3.7522297-3.0125 5.2120379 1.9931 4.2208871 3.10938 8.9391755 3.10938 13.9175836 0 7.4948648-2.52878 14.3996982-6.775 19.9042194 3.45761-5.1771304 5.475-11.4018034 5.475-18.0978814 0-9.8447741-4.36264-18.6730053-11.25-24.6458517 0 0 6.88736 5.9728464 0 0zm0 54.3218581c-5.8257 5.5815845-13.71575 9.009733-22.4 9.009733h-25.253125c.744465 1.0978923 1.524579 2.1692113 2.340625 3.2112677h24.4125c7.96028 0 15.25242-2.8820826 20.9-7.6612617 5.64758 4.7791791 12.93973 7.6612617 20.9 7.6612617h24.4125c.81606-1.0420564 1.59616-2.1133754 2.34062-3.2112677h-25.25312c-8.68424 0-16.57429-3.4281485-22.4-9.009733 0 0 5.82571 5.5815845 0 0zm-42.5125 15.5326204c.49651.5446209 1.00508 1.08016 1.52188 1.6056338h81.98124c.51679-.5254738 1.02537-1.0610129 1.52188-1.6056338zm5.05938 4.9172531c1.01323.871428 2.05576 1.708585 3.12812 2.508803h34.325 34.325c1.07237-.800218 2.11489-1.637375 3.12812-2.508803h-37.45312zm6.775 5.017606c1.8576 1.176127 3.78551 2.250416 5.77812 3.211268h24.9 24.9c1.99262-.960852 3.92052-2.035141 5.77812-3.211268h-30.67812zm9.43437 4.816901c6.57472 2.622081 13.74178 4.064261 21.24375 4.064261s14.66902-1.44218 21.24375-4.064261h-21.24375zm0 0" fill="#fff"/></g></g></g></g></svg>