<svg xmlns="http://www.w3.org/2000/svg" version="1.1" xmlns:xlink="http://www.w3.org/1999/xlink" width="512" height="512" x="0" y="0" viewBox="0 0 512 512" style="enable-background:new 0 0 512 512" xml:space="preserve" class=""><g><g fill-rule="evenodd" clip-rule="evenodd"><path fill="#e92b2b" d="M255.833 480h.334C379.802 479.91 480 379.656 480 256c0-123.712-100.288-224-224-224S32 132.288 32 256c0 123.656 100.198 223.91 223.833 224z" opacity="1" data-original="#e92b2b"></path><path fill="#1d1d1d" d="M465.887 177.6H46.094C77.874 92.555 159.86 32 255.99 32c96.13 0 178.117 60.555 209.896 145.6z" opacity="1" data-original="#1d1d1d" class=""></path><path fill="#32ab45" d="M255.139 479.998h1.704c95.763-.356 177.36-60.805 209.045-145.6H46.094c31.685 84.795 113.282 145.244 209.045 145.6z" opacity="1" data-original="#32ab45"></path></g><path fill="#e92b2b" d="m269.547 93.823-13.455-39.425-13.298 38.968-34.648-24.31 13.177 39.518-43.713-3.776 30.536 28-36.146 22.4h168l-35.05-22.4 29.46-28-43.04 3.776 13.58-38.894z" opacity="1" data-original="#e92b2b"></path></g></svg>