<?xml version="1.0" encoding="UTF-8" standalone="no"?>
<!-- Created with Inkscape (http://www.inkscape.org/) -->

<svg
   xmlns:dc="http://purl.org/dc/elements/1.1/"
   xmlns:cc="http://creativecommons.org/ns#"
   xmlns:rdf="http://www.w3.org/1999/02/22-rdf-syntax-ns#"
   xmlns:svg="http://www.w3.org/2000/svg"
   xmlns="http://www.w3.org/2000/svg"
   xmlns:sodipodi="http://sodipodi.sourceforge.net/DTD/sodipodi-0.dtd"
   xmlns:inkscape="http://www.inkscape.org/namespaces/inkscape"
   width="3000"
   height="2000"
   viewBox="0 0 793.74998 529.16668"
   version="1.1"
   id="svg8"
   inkscape:version="0.92.2 (5c3e80d, 2017-08-06)"
   sodipodi:docname="Flag of Rhodes.svg">
  <defs
     id="defs2" />
  <sodipodi:namedview
     id="base"
     pagecolor="#ffffff"
     bordercolor="#666666"
     borderopacity="1.0"
     inkscape:pageopacity="0.0"
     inkscape:pageshadow="2"
     inkscape:zoom="0.175"
     inkscape:cx="2062.7886"
     inkscape:cy="839.09599"
     inkscape:document-units="px"
     inkscape:current-layer="layer1-8"
     showgrid="false"
     units="px"
     inkscape:window-width="1280"
     inkscape:window-height="737"
     inkscape:window-x="-8"
     inkscape:window-y="-8"
     inkscape:window-maximized="1">
    <inkscape:grid
       type="xygrid"
       id="grid815" />
  </sodipodi:namedview>
  <metadata
     id="metadata5">
    <rdf:RDF>
      <cc:Work
         rdf:about="">
        <dc:format>image/svg+xml</dc:format>
        <dc:type
           rdf:resource="http://purl.org/dc/dcmitype/StillImage" />
        <dc:title></dc:title>
      </cc:Work>
    </rdf:RDF>
  </metadata>
  <g
     inkscape:label="Layer 1"
     inkscape:groupmode="layer"
     id="layer1"
     transform="translate(0,232.16668)">
    <rect
       y="-232.16669"
       x="0"
       height="529.16669"
       width="793.75"
       id="rect1081"
       style="opacity:1;fill:#7699c1;fill-opacity:1;fill-rule:evenodd;stroke:none;stroke-width:0.183;stroke-linecap:butt;stroke-linejoin:miter;stroke-miterlimit:4;stroke-dasharray:none;stroke-dashoffset:0;stroke-opacity:1;paint-order:stroke fill markers" />
    <g
       transform="matrix(7.1544212,0,0,7.1544212,170.80708,-1919.2258)"
       id="layer1-8"
       inkscape:label="Layer 1"
       style="fill:#ffffff">
      <g
         transform="matrix(1.7679849,0,0,-1.7679849,23.922913,248.36611)"
         id="g3096"
         style="fill:#ffffff">
        <path
           inkscape:connector-curvature="0"
           id="path3098"
           style="fill:#ffffff;fill-opacity:1;fill-rule:nonzero;stroke:none"
           d="M 0,0 C 0.001,-0.644 0.232,-1.183 0.636,-1.478 1.409,-2.039 2.569,-1.771 3.026,-0.904 3.374,-0.243 3.351,0.442 3.019,1.1 2.717,1.7 2.062,1.984 1.417,1.84 0.49,1.633 -0.001,0.995 0,0 M 2.351,2.789 C 2.517,2.727 2.686,2.672 2.849,2.602 3.716,2.229 4.13,1.521 4.271,0.632 4.389,-0.125 4.235,-0.837 3.813,-1.479 3.354,-2.176 2.681,-2.526 1.872,-2.65 1.239,-2.747 0.636,-2.662 0.089,-2.321 c -0.695,0.433 -1.047,1.09 -1.12,1.885 -0.087,0.941 0.174,1.781 0.876,2.445 0.383,0.36 0.843,0.582 1.356,0.698 0.079,0.017 0.153,0.055 0.23,0.082 z" />
      </g>
      <g
         transform="matrix(1.7679849,0,0,-1.7679849,67.585598,278.08436)"
         id="g3100"
         style="fill:#ffffff">
        <path
           inkscape:connector-curvature="0"
           id="path3102"
           style="fill:#ffffff;fill-opacity:1;fill-rule:nonzero;stroke:none"
           d="M 0,0 C -0.002,0.861 -0.595,1.559 -1.312,1.691 -2.145,1.843 -2.779,1.491 -3.281,0.866 -3.6,0.469 -3.727,0.006 -3.574,-0.505 -3.287,-1.458 -2.191,-1.961 -1.288,-1.541 -0.564,-1.204 -0.062,-0.685 0,0 M 1.041,-0.108 C 0.982,-0.339 0.953,-0.585 0.859,-0.802 0.425,-1.815 -0.364,-2.4 -1.431,-2.612 c -1.548,-0.311 -3.073,1.027 -3.207,2.46 -0.061,0.651 0.148,1.243 0.576,1.736 0.654,0.753 1.476,1.144 2.489,1.073 0.567,-0.041 1.065,-0.26 1.507,-0.606 C 0.45,1.644 0.828,1.138 0.973,0.484 0.999,0.371 1.019,0.257 1.041,0.143 Z" />
      </g>
      <g
         transform="matrix(1.7679849,0,0,-1.7679849,8.9192584,249.27787)"
         id="g3112"
         style="fill:#ffffff">
        <path
           inkscape:connector-curvature="0"
           id="path3114"
           style="fill:#ffffff;fill-opacity:1;fill-rule:nonzero;stroke:none"
           d="m 0,0 c 0.7,-0.458 1.399,-0.915 2.098,-1.372 0.298,-0.194 0.594,-0.387 0.895,-0.58 0.061,-0.039 0.129,-0.069 0.242,-0.127 V 1.482 C 3.26,1.496 3.284,1.509 3.308,1.523 4.712,0.368 6.116,-0.786 7.538,-1.957 7.331,-2.233 7.13,-2.5 6.921,-2.778 5.989,-1.987 5.075,-1.211 4.161,-0.436 4.138,-0.446 4.113,-0.457 4.089,-0.466 V -3.751 C 4.065,-3.763 4.042,-3.773 4.019,-3.785 3.149,-3.218 2.28,-2.652 1.411,-2.084 1.396,-2.093 1.38,-2.104 1.366,-2.112 1.608,-3.236 1.852,-4.361 2.103,-5.524 1.772,-5.58 1.45,-5.634 1.128,-5.688 1.003,-5.034 0.886,-4.394 0.757,-3.756 0.517,-2.578 0.271,-1.402 0.028,-0.225 0.014,-0.153 0.009,-0.075 0,0" />
      </g>
      <g
         transform="matrix(1.7679849,0,0,-1.7679849,55.610149,261.93083)"
         id="g3116"
         style="fill:#ffffff">
        <path
           inkscape:connector-curvature="0"
           id="path3118"
           style="fill:#ffffff;fill-opacity:1;fill-rule:nonzero;stroke:none"
           d="M 0,0 C 0.502,0.018 1.031,0.344 1.439,0.878 2.021,1.641 1.871,2.547 1.086,3.097 0.434,3.552 -0.396,3.5 -1.084,2.966 -1.518,2.63 -1.811,2.208 -1.842,1.653 -1.894,0.77 -1.113,0 0,0 m 0.355,-0.951 c -1.876,-0.062 -3.296,1.383 -3.207,2.768 0.053,0.847 0.467,1.486 1.141,1.971 1.672,1.201 3.647,0.35 4.336,-1.206 C 2.934,1.889 2.881,1.191 2.49,0.543 1.906,-0.423 1.028,-0.909 0.355,-0.951" />
      </g>
      <g
         transform="matrix(1.7679849,0,0,-1.7679849,0.61273502,274.67797)"
         id="g3120"
         style="fill:#ffffff">
        <path
           inkscape:connector-curvature="0"
           id="path3122"
           style="fill:#ffffff;fill-opacity:1;fill-rule:nonzero;stroke:none"
           d="M 0,0 C 0.332,0.935 0.645,1.814 0.97,2.733 -0.09,2.573 -1.08,2.423 -2.115,2.268 -1.396,1.497 -0.717,0.768 0,0 M 2.377,3.976 C 1.699,2.053 1.025,0.142 0.346,-1.79 c -1.42,1.564 -2.819,3.102 -4.216,4.64 0.009,0.026 0.018,0.051 0.027,0.078 2.073,0.349 4.146,0.697 6.22,1.048" />
      </g>
      <g
         transform="matrix(1.7679849,0,0,-1.7679849,59.857551,271.14628)"
         id="g3124"
         style="fill:#ffffff">
        <path
           inkscape:connector-curvature="0"
           id="path3126"
           style="fill:#ffffff;fill-opacity:1;fill-rule:nonzero;stroke:none"
           d="M 0,0 C 0.637,0.87 1.229,1.678 1.846,2.521 0.797,2.553 -0.196,2.585 -1.25,2.618 -0.824,1.728 -0.426,0.892 0,0 M 3.537,3.286 C 2.324,1.571 1.109,-0.144 -0.109,-1.868 -0.992,-0.036 -1.865,1.772 -2.763,3.635 -0.646,3.541 1.434,3.449 3.514,3.356 3.521,3.333 3.529,3.31 3.537,3.286" />
      </g>
      <g
         transform="matrix(1.7679849,0,0,-1.7679849,-1.996094,261.07971)"
         id="g3128"
         style="fill:#ffffff">
        <path
           inkscape:connector-curvature="0"
           id="path3130"
           style="fill:#ffffff;fill-opacity:1;fill-rule:nonzero;stroke:none"
           d="M 0,0 C 0.211,0.272 0.427,0.551 0.647,0.835 1.024,0.53 1.385,0.238 1.747,-0.052 1.903,-0.18 2.063,-0.303 2.22,-0.431 2.298,-0.496 2.36,-0.504 2.426,-0.409 2.897,0.264 3.373,0.934 3.847,1.606 3.858,1.622 3.86,1.644 3.874,1.687 3.393,2.043 2.911,2.409 2.419,2.761 2.282,2.857 2.243,2.922 2.367,3.064 2.558,3.284 2.726,3.523 2.895,3.741 4.257,2.674 5.607,1.618 6.979,0.543 6.774,0.279 6.56,0 6.341,-0.284 5.745,0.197 5.163,0.666 4.562,1.153 4.327,0.824 4.107,0.521 3.892,0.215 3.642,-0.137 3.402,-0.498 3.142,-0.84 3.024,-0.994 3.036,-1.075 3.19,-1.187 3.654,-1.52 4.107,-1.868 4.564,-2.21 4.614,-2.247 4.66,-2.291 4.735,-2.354 4.528,-2.624 4.323,-2.892 4.113,-3.167 2.738,-2.109 1.378,-1.062 0,0" />
      </g>
      <g
         transform="matrix(1.7679849,0,0,-1.7679849,47.483419,249.4642)"
         id="g3132"
         style="fill:#ffffff">
        <path
           inkscape:connector-curvature="0"
           id="path3134"
           style="fill:#ffffff;fill-opacity:1;fill-rule:nonzero;stroke:none"
           d="M 0,0 C -0.319,-0.502 -0.6,-0.944 -0.913,-1.438 -0.208,-1.58 0.44,-1.652 1.093,-1.699 1.101,-1.679 1.108,-1.66 1.118,-1.642 0.757,-1.11 0.396,-0.58 0,0 m -2.394,-3.702 c -0.237,0.187 -0.459,0.364 -0.697,0.553 0.29,0.454 0.574,0.897 0.856,1.344 0.666,1.053 1.33,2.106 1.996,3.16 0.025,0.041 0.052,0.082 0.079,0.122 0.089,0.129 0.174,0.119 0.259,-0.004 0.08,-0.115 0.164,-0.224 0.243,-0.34 0.851,-1.247 1.701,-2.497 2.552,-3.745 0.044,-0.066 0.078,-0.14 0.152,-0.276 -0.332,0.029 -0.605,0.041 -0.873,0.075 -1.027,0.134 -2.058,0.242 -3.074,0.425 -0.454,0.082 -0.713,-0.025 -0.897,-0.426 -0.072,-0.155 -0.192,-0.289 -0.289,-0.434 -0.098,-0.143 -0.194,-0.288 -0.307,-0.454" />
      </g>
      <g
         transform="matrix(1.7679849,0,0,-1.7679849,36.687229,248.4706)"
         id="g3136"
         style="fill:#ffffff">
        <path
           inkscape:connector-curvature="0"
           id="path3138"
           style="fill:#ffffff;fill-opacity:1;fill-rule:nonzero;stroke:none"
           d="M 0,0 C -0.213,0.231 -0.404,0.441 -0.6,0.648 -0.961,1.034 -1.321,1.424 -1.691,1.8 -1.822,1.933 -1.852,2.068 -1.787,2.265 -0.488,2.346 0.819,2.427 2.16,2.509 2.176,2.192 2.191,1.891 2.209,1.559 1.434,1.537 0.68,1.515 -0.106,1.493 -0.06,1.429 -0.035,1.383 0,1.347 0.411,0.92 0.824,0.496 1.236,0.071 1.445,-0.146 1.427,-0.265 1.16,-0.409 0.577,-0.723 -0.006,-1.037 -0.588,-1.352 -0.616,-1.366 -0.643,-1.388 -0.713,-1.434 0.111,-1.713 0.896,-1.979 1.705,-2.254 1.602,-2.544 1.498,-2.837 1.388,-3.143 c -0.442,0.164 -0.867,0.317 -1.286,0.477 -0.834,0.314 -1.668,0.63 -2.499,0.95 -0.066,0.026 -0.166,0.103 -0.16,0.14 0.018,0.097 0.063,0.226 0.137,0.269 0.546,0.308 1.102,0.598 1.654,0.895 C -0.52,-0.28 -0.276,-0.147 0,0" />
      </g>
      <g
         transform="matrix(1.7679849,0,0,-1.7679849,64.868018,287.15998)"
         id="g3140"
         style="fill:#ffffff">
        <path
           inkscape:connector-curvature="0"
           id="path3142"
           style="fill:#ffffff;fill-opacity:1;fill-rule:nonzero;stroke:none"
           d="M 0,0 C 0.069,-0.052 0.119,-0.095 0.176,-0.131 0.701,-0.485 1.227,-0.841 1.758,-1.186 1.871,-1.261 1.916,-1.339 1.911,-1.473 1.9,-1.778 1.908,-2.083 1.908,-2.389 1.887,-2.396 1.864,-2.403 1.843,-2.411 c -0.14,0.097 -0.281,0.192 -0.419,0.291 -0.738,0.536 -1.473,1.077 -2.216,1.604 -0.112,0.079 -0.265,0.123 -0.403,0.136 -0.559,0.055 -1.121,0.089 -1.694,0.133 v 1.084 c 0.293,-0.033 0.567,-0.064 0.84,-0.093 0.354,-0.037 0.705,-0.08 1.059,-0.1 0.109,-0.007 0.234,0.029 0.334,0.081 0.843,0.431 1.682,0.872 2.523,1.31 C 1.908,2.056 1.953,2.073 1.992,2.089 1.992,1.723 1.997,1.366 1.986,1.01 1.986,0.972 1.906,0.926 1.855,0.901 1.264,0.622 0.671,0.347 0.078,0.069 0.061,0.061 0.047,0.042 0,0" />
      </g>
      <g
         transform="matrix(1.7679849,0,0,-1.7679849,8.9192584,249.27787)"
         id="g3144"
         style="fill:#ffffff">
        <path
           inkscape:connector-curvature="0"
           id="path3146"
           style="fill:#ffffff;fill-opacity:1;fill-rule:nonzero;stroke:none"
           d="m 0,0 c -0.007,0.005 -0.014,0.011 -0.021,0.016 0.004,0 0.01,0.002 0.013,0 C -0.005,0.012 -0.003,0.005 0,0" />
      </g>
      <g
         transform="matrix(1.7679849,0,0,-1.7679849,10.716597,285.57071)"
         id="g3148"
         style="fill:#ffffff">
        <path
           inkscape:connector-curvature="0"
           id="path3150"
           style="fill:#ffffff;fill-opacity:1;fill-rule:nonzero;stroke:none"
           d="M 0,0 0.012,-0.007 V 0.007 Z M 3.155,-3.268 C 3.4,-3.3 3.644,-3.34 3.891,-3.361 4.26,-3.393 4.465,-3.202 4.482,-2.802 4.094,-3.133 3.664,-3.31 3.155,-3.268 M 1.299,0.951 C 1.537,0.928 1.772,0.897 2.009,0.882 2.221,0.871 2.304,0.966 2.281,1.175 2.274,1.241 2.256,1.306 2.248,1.347 1.93,1.214 1.619,1.086 1.299,0.951 M 20.342,0.133 c -0.006,0.025 -0.014,0.05 -0.02,0.076 -0.426,0.046 -0.85,0.092 -1.295,0.14 0.038,-0.124 0.063,-0.239 0.109,-0.347 0.108,-0.249 0.266,-0.331 0.518,-0.229 0.239,0.099 0.459,0.24 0.688,0.36 M 9.73,1.692 C 9.577,1.751 9.359,1.775 9.258,1.894 9.156,2.012 9.17,2.229 9.127,2.432 8.863,2.303 8.582,2.167 8.275,2.018 9.055,1.563 9.447,1.488 9.73,1.692 m -6.644,9.462 c 0.127,0.046 0.254,0.089 0.377,0.142 0.133,0.059 0.255,0.152 0.392,0.191 0.192,0.054 0.397,0.108 0.589,0.095 C 4.896,11.547 5.205,11.224 5.217,10.771 5.227,10.382 5.184,9.992 5.173,9.603 5.167,9.412 5.187,9.221 5.384,9.096 5.137,9.442 5.258,9.795 5.319,10.158 5.363,10.421 5.362,10.703 5.325,10.968 5.232,11.645 4.82,11.908 4.139,11.8 3.697,11.73 3.408,11.429 3.086,11.154 m 13.402,-0.301 c 0.078,-0.122 0.151,-0.249 0.234,-0.368 0.245,-0.354 0.743,-0.599 1.035,-0.475 0.38,0.158 0.665,0.432 0.782,0.84 0.035,0.118 0.025,0.249 0.035,0.349 -0.332,-0.212 -0.629,-0.468 -0.973,-0.604 -0.391,-0.155 -0.748,0.099 -1.113,0.258 M 15.598,2.972 C 15.585,2.988 15.572,3.005 15.561,3.021 15.412,2.895 15.254,2.777 15.121,2.632 15.07,2.577 15.046,2.454 15.068,2.379 15.176,2.02 15.479,1.808 15.871,1.795 c 0.481,-0.016 0.857,0.19 0.994,0.546 0.019,0.045 0.039,0.095 0.039,0.138 0,0.044 -0.015,0.106 -0.045,0.122 -0.275,0.151 -0.556,0.295 -0.838,0.441 -0.066,-0.195 -0.134,-0.329 -0.154,-0.469 -0.012,-0.083 0.03,-0.226 0.091,-0.257 0.067,-0.033 0.186,0.025 0.279,0.053 0.027,0.008 0.036,0.069 0.064,0.078 0.077,0.027 0.195,0.08 0.229,0.05 0.054,-0.051 0.091,-0.174 0.068,-0.242 -0.09,-0.246 -0.435,-0.394 -0.701,-0.32 -0.297,0.083 -0.458,0.327 -0.404,0.635 0.024,0.136 0.07,0.267 0.105,0.402 m -2.512,8.455 c 0.017,-0.011 0.033,-0.02 0.049,-0.031 0.028,0.047 0.053,0.097 0.084,0.141 0.182,0.269 0.338,0.565 0.554,0.805 0.429,0.476 0.858,0.526 1.391,0.17 0.299,-0.202 0.557,-0.46 0.838,-0.689 0.318,-0.258 0.62,-0.542 0.965,-0.759 0.425,-0.267 0.812,-0.143 1.131,0.331 -0.108,-0.057 -0.178,-0.096 -0.247,-0.132 -0.556,-0.297 -1.072,-0.16 -1.402,0.377 -0.08,0.129 -0.142,0.271 -0.217,0.403 -0.298,0.531 -0.728,0.893 -1.334,1.02 -0.282,0.059 -0.556,0.046 -0.804,-0.118 C 13.54,12.58 13.316,12 13.086,11.427 m 9.709,-15.302 c 0.027,0 0.053,0 0.08,10e-4 -0.024,0.281 -0.029,0.564 -0.083,0.838 -0.019,0.094 -0.167,0.241 -0.242,0.233 -0.379,-0.042 -0.729,0.068 -1.09,0.137 -0.159,0.031 -0.362,0.017 -0.497,-0.06 -0.298,-0.169 -0.553,-0.411 -0.848,-0.587 -0.431,-0.259 -0.709,-0.65 -1.003,-1.046 0.21,0.024 0.408,0.086 0.609,0.11 0.568,0.069 0.934,0.397 1.222,0.867 0.362,0.59 1.256,0.58 1.623,-0.01 0.095,-0.15 0.155,-0.322 0.229,-0.483 m -8.662,14.639 c 0.408,0.079 0.782,0.054 1.128,-0.125 0.52,-0.269 0.99,-0.593 1.391,-1.044 0.619,-0.697 1.227,-0.706 1.773,0.147 0.044,0.07 0.079,0.148 0.111,0.224 0.019,0.044 0.022,0.093 0.036,0.16 C 18.398,9.992 18.258,9.866 18.1,9.767 17.804,9.58 17.485,9.551 17.162,9.699 c -0.357,0.161 -0.643,0.397 -0.853,0.74 -0.136,0.222 -0.311,0.434 -0.508,0.603 -0.528,0.451 -1.354,0.316 -1.668,-0.278 m 4.578,-14.975 c 0.282,0.326 0.56,0.648 0.846,0.981 -0.346,0.232 -0.328,0.594 -0.339,0.934 h -0.916 c -0.269,-0.887 -0.536,-1.767 -0.794,-2.616 0.4,0.068 0.818,0.141 1.25,0.216 -0.172,0.121 -0.356,0.231 -0.514,0.37 -0.052,0.047 -0.037,0.166 -0.055,0.251 0.086,0.013 0.179,0.055 0.256,0.035 0.088,-0.025 0.163,-0.103 0.266,-0.171 M 6.523,-4.246 C 6.254,-5.188 5.41,-5.407 4.636,-5.712 c 0.221,-0.612 0.686,-0.945 1.256,-1.152 0.128,-0.046 0.295,-0.039 0.427,0 0.435,0.126 0.849,0.366 1.29,0.158 -0.359,0.815 -0.718,1.628 -1.086,2.46 M 6.262,4.027 C 5.811,3.834 5.625,3.445 5.594,2.949 5.559,2.373 5.527,1.793 5.461,1.219 5.381,0.536 5.17,-0.088 4.539,-0.481 4.495,-0.51 4.48,-0.597 4.469,-0.659 4.42,-0.891 4.404,-1.132 4.328,-1.351 4.156,-1.843 3.745,-2.062 3.234,-1.958 2.969,-1.903 2.705,-1.834 2.441,-1.77 c -0.185,0.047 -0.37,0.093 -0.511,0.13 0.154,-0.261 0.302,-0.54 0.476,-0.801 0.088,-0.132 0.203,-0.291 0.34,-0.342 0.522,-0.19 1.039,-0.171 1.462,0.238 0.223,0.215 0.407,0.473 0.587,0.726 0.096,0.135 0.129,0.312 0.215,0.45 0.037,0.062 0.14,0.084 0.212,0.122 C 5.264,-1.323 5.334,-1.398 5.338,-1.478 5.344,-1.562 5.297,-1.656 5.252,-1.733 5.03,-2.105 4.86,-2.492 4.852,-2.937 4.85,-3.025 4.809,-3.113 4.773,-3.196 4.613,-3.579 4.336,-3.757 3.922,-3.733 3.756,-3.725 3.59,-3.698 3.424,-3.675 3.307,-3.661 3.188,-3.646 3.073,-3.619 2.38,-3.446 1.855,-3.7 1.418,-4.233 1.186,-4.514 1.089,-4.816 1.187,-5.164 1.278,-5.483 1.381,-5.803 1.51,-6.111 1.654,-6.46 1.613,-6.759 1.364,-7.04 1.244,-7.175 1.136,-7.319 1.024,-7.463 0.98,-7.521 0.947,-7.587 0.896,-7.674 c 0.1,0 0.163,-0.002 0.225,0 0.475,0.016 0.69,0.268 0.647,0.737 -0.038,0.388 -0.067,0.777 -0.082,1.166 -0.02,0.447 0.063,0.86 0.399,1.191 0.171,0.167 0.324,0.204 0.52,0.069 0.155,-0.108 0.306,-0.228 0.428,-0.365 0.496,-0.562 1.07,-0.729 1.758,-0.382 0.014,0.006 0.027,0.008 0.04,0.012 0.753,0.223 1.298,0.661 1.481,1.461 0.026,0.115 0.04,0.243 0.018,0.358 C 6.168,-2.588 5.974,-1.753 5.838,-0.909 5.74,-0.304 5.783,0.3 6.098,0.858 6.139,0.934 6.119,1.086 6.068,1.164 5.798,1.566 5.739,2.012 5.838,2.466 5.953,2.994 6.119,3.509 6.262,4.027 M 7.537,1.966 C 7.703,2.069 7.863,2.182 8.036,2.271 8.355,2.44 8.676,2.61 9.007,2.75 9.479,2.949 9.961,2.913 10.396,2.656 10.725,2.465 11.015,2.211 11.316,1.978 11.426,1.895 11.49,1.776 11.367,1.659 11.253,1.552 11.154,1.625 11.06,1.716 10.916,1.852 10.764,1.981 10.607,2.119 10.318,1.63 9.996,1.213 9.4,1.239 8.891,1.26 8.371,1.322 8.064,1.852 7.574,1.48 7.008,1.341 6.33,1.436 6.594,1.086 6.498,0.81 6.35,0.508 6.249,0.303 6.2,0.057 6.186,-0.174 6.131,-0.963 6.293,-1.73 6.473,-2.489 c 0.361,-1.518 0.82,-2.999 1.7,-4.313 1.006,-1.5 2.354,-2.335 4.22,-2.202 0.652,0.046 1.296,0.098 1.857,0.478 0.828,0.562 1.561,1.223 2.068,2.095 1.036,1.783 1.604,3.714 1.821,5.756 0.05,0.485 0.007,0.946 -0.332,1.337 -0.065,0.071 -0.101,0.166 -0.147,0.251 -0.15,0.276 -0.172,0.555 -0.016,0.838 0.024,0.047 0.04,0.137 0.014,0.163 C 17.535,2.049 17.396,2.17 17.25,2.308 17.016,1.701 16.57,1.465 15.984,1.435 c -0.607,-0.03 -1.025,0.242 -1.273,0.8 -0.264,-0.116 -0.504,-0.089 -0.703,0.103 -0.049,0.047 -0.072,0.18 -0.041,0.233 0.03,0.051 0.184,0.095 0.221,0.065 0.232,-0.193 0.373,-0.058 0.525,0.109 0.314,0.345 0.629,0.693 1.157,0.682 C 15.347,3.61 14.777,3.385 14.403,2.855 14.326,2.745 14.244,2.636 14.102,2.724 c -0.159,0.097 -0.081,0.225 -0.004,0.342 0.437,0.663 1.213,0.937 2.021,0.707 0.68,-0.195 1.241,-0.592 1.756,-1.061 0.055,-0.051 0.11,-0.099 0.184,-0.164 0.17,0.477 0.193,0.948 0.097,1.401 C 18.08,4.311 17.902,4.652 17.762,5 17.624,5.342 17.434,5.669 17.35,6.021 17.291,6.266 17.178,6.362 16.971,6.417 16.896,6.437 16.823,6.46 16.749,6.478 15.911,6.684 15.106,6.979 14.381,7.449 13.877,7.774 13.361,7.803 12.827,7.581 12.151,7.303 11.442,7.187 10.724,7.185 10.057,7.181 9.549,6.887 9.091,6.456 9.012,6.381 8.936,6.29 8.894,6.191 8.523,5.328 7.859,4.775 7.035,4.381 6.957,4.346 6.86,4.292 6.832,4.223 6.622,3.694 6.41,3.165 6.234,2.623 6.144,2.343 6.135,2.041 6.203,1.775 H 6.764 C 6.51,2.375 6.639,2.839 7.156,3.201 7.221,3.246 7.369,3.249 7.428,3.203 7.536,3.118 7.479,3.007 7.385,2.922 7.309,2.852 7.229,2.78 7.163,2.701 7.025,2.535 6.926,2.356 7.051,2.081 7.209,2.26 7.365,2.407 7.486,2.579 7.947,3.231 8.472,3.82 9.223,4.136 10.063,4.489 10.893,4.523 11.636,3.887 11.949,3.619 12.145,3.26 12.289,2.879 12.65,1.93 12.722,0.94 12.693,-0.062 12.689,-0.195 12.643,-0.309 12.49,-0.298 12.334,-0.287 12.329,-0.163 12.324,-0.034 12.303,0.496 12.301,1.027 12.24,1.551 12.162,2.234 11.99,2.896 11.547,3.449 11.253,3.814 10.868,3.983 10.4,4.002 9.625,4.033 9,3.706 8.481,3.177 8.128,2.815 7.83,2.4 7.506,2.007 L 7.441,1.978 C 7.443,1.97 7.445,1.961 7.447,1.954 7.478,1.958 7.508,1.963 7.537,1.966 M 9.866,1.779 c 0.145,0.165 0.29,0.331 0.435,0.496 C 10.289,2.301 10.277,2.326 10.266,2.353 10.03,2.412 9.795,2.471 9.545,2.535 9.545,2.425 9.548,2.364 9.544,2.305 9.539,2.247 9.527,2.188 9.519,2.13 9.896,2.054 9.898,2.053 9.852,1.794 9.843,1.782 9.834,1.77 9.824,1.755 Z M 23.09,1.483 C 23.057,1.476 23.023,1.467 22.99,1.458 22.548,1.334 22.391,1.458 22.385,1.929 22.381,2.095 22.381,2.265 22.354,2.43 22.306,2.72 22.175,2.964 21.856,3.032 21.521,3.105 21.257,2.972 21.053,2.707 20.981,2.613 20.924,2.505 20.845,2.419 20.288,1.823 19.66,1.719 19.074,2.383 18.987,2.482 18.91,2.59 18.832,2.697 c -0.07,0.097 -0.081,0.201 0.025,0.276 0.115,0.08 0.206,0.029 0.284,-0.075 0.091,-0.122 0.183,-0.248 0.291,-0.356 0.324,-0.321 0.613,-0.347 0.957,-0.042 0.209,0.182 0.369,0.42 0.553,0.638 h -1.333 c -0.058,0.104 -0.113,0.202 -0.178,0.322 0.183,0.013 0.368,0.033 0.554,0.04 0.299,0.011 0.599,0.016 0.898,0.023 0.22,0.006 0.369,0.123 0.461,0.309 0.065,0.131 0.121,0.268 0.152,0.409 0.064,0.282 0.108,0.567 0.163,0.87 C 21.539,5.193 21.451,5.102 21.383,5.007 21.203,4.76 21.035,4.501 20.855,4.255 20.652,3.979 20.379,3.792 20.034,3.771 19.787,3.757 19.535,3.789 19.288,3.825 18.873,3.887 18.585,3.664 18.562,3.248 18.554,3.09 18.531,2.929 18.496,2.772 18.451,2.566 18.39,2.361 18.351,2.217 18.719,1.993 19.072,1.801 19.4,1.572 19.883,1.239 20.566,1.323 20.902,1.8 c 0.09,0.126 0.147,0.283 0.186,0.435 0.089,0.353 0.377,0.591 0.703,0.557 C 22.082,2.763 22.297,2.485 22.287,2.119 22.283,1.971 22.234,1.82 22.194,1.674 22.141,1.482 22.199,1.296 22.363,1.177 c 0.164,-0.118 0.319,-0.072 0.461,0.039 0.075,0.059 0.136,0.137 0.203,0.207 0.02,0.021 0.04,0.043 0.06,0.064 0.001,-0.001 0.001,-0.003 0.003,-0.004 M -0.576,-3.298 c 0.01,-0.015 0.02,-0.03 0.031,-0.044 0.098,-0.115 0.188,-0.242 0.297,-0.345 0.377,-0.351 0.752,-0.229 0.863,0.278 0.023,0.099 0.016,0.206 0.014,0.31 0,0.208 -0.02,0.416 -0.008,0.623 0.032,0.581 0.282,0.833 0.863,0.889 0.112,-0.019 0.221,-0.037 0.332,-0.055 0.003,0.014 0.006,0.029 0.009,0.045 -0.111,0.023 -0.222,0.047 -0.335,0.071 -0.292,0.068 -0.58,0.128 -0.877,0 -0.308,-0.134 -0.359,-0.249 -0.301,-0.58 0.067,-0.376 0.126,-0.755 0.129,-1.134 0,-0.373 -0.289,-0.506 -0.606,-0.31 -0.118,0.071 -0.226,0.16 -0.337,0.241 -0.016,0.013 -0.029,0.028 -0.045,0.041 -0.014,0.006 -0.027,0.014 -0.043,0.022 0.004,-0.018 0.009,-0.034 0.014,-0.052 M 12.537,7.895 C 12.365,7.854 12.273,7.923 12.203,8.088 11.818,8.978 11.08,9.446 10.193,9.714 9.872,9.809 9.563,9.708 9.313,9.494 8.727,8.99 8.148,8.478 7.748,7.796 7.35,7.12 6.297,6.646 5.539,6.822 5.262,6.887 5.01,7.05 4.717,7.181 4.471,6.898 4.109,6.915 3.721,6.962 3.045,7.043 2.416,6.898 1.887,6.443 1.57,6.172 1.418,5.806 1.373,5.398 1.329,5.001 1.369,4.611 1.469,4.22 1.578,3.784 1.631,3.332 1.7,2.886 1.713,2.813 1.696,2.733 1.684,2.658 1.611,2.249 1.34,2.022 1.002,2.083 0.699,2.14 0.441,2.565 0.514,2.905 0.536,3.013 0.6,3.113 0.621,3.22 0.656,3.401 0.692,3.585 0.693,3.768 0.693,3.923 0.58,4.035 0.422,4.03 0.234,4.023 0.047,3.979 -0.15,3.909 0.111,3.881 0.295,3.769 0.317,3.517 0.338,3.301 0.332,3.073 0.287,2.861 0.238,2.632 0.105,2.422 0.055,2.195 -0.051,1.707 0.153,1.427 0.65,1.366 0.848,1.345 1.055,1.34 1.252,1.365 1.966,1.454 2.383,1.924 2.41,2.645 2.429,3.128 2.32,3.582 2.121,4.022 2.002,4.287 1.891,4.559 1.814,4.84 1.721,5.182 1.836,5.469 2.127,5.684 2.245,5.768 2.348,5.875 2.465,5.961 2.898,6.285 3.434,6.178 3.701,5.708 3.737,5.644 3.725,5.508 3.679,5.454 3.598,5.358 3.491,5.399 3.412,5.494 3.363,5.552 3.318,5.619 3.258,5.661 3.186,5.713 3.101,5.776 3.02,5.779 2.662,5.789 2.486,5.477 2.254,5.287 2.164,5.213 2.162,4.972 2.195,4.825 2.244,4.605 2.353,4.396 2.449,4.187 2.706,3.632 2.832,3.056 2.754,2.442 2.709,2.079 2.628,1.866 2.397,1.542 2.474,1.476 2.578,1.424 2.613,1.341 2.654,1.246 2.652,1.123 2.641,1.015 2.609,0.717 2.407,0.534 2.111,0.526 1.555,0.514 1.019,0.629 0.485,0.781 0.281,0.838 0.062,0.854 -0.15,0.863 -0.344,0.87 -0.443,0.762 -0.47,0.556 -0.525,0.127 -0.588,-0.296 -0.479,-0.728 c 0.034,-0.135 -0.009,-0.29 -0.017,-0.435 -0.02,-0.036 -0.04,-0.07 -0.061,-0.107 -0.265,-0.175 -0.496,0.012 -0.785,0.118 0.334,-0.314 0.582,-0.34 0.786,-0.118 0.031,0.023 0.062,0.049 0.093,0.075 0.215,0.256 0.249,0.544 0.168,0.862 -0.045,0.173 -0.09,0.354 -0.09,0.53 0.002,0.282 0.235,0.403 0.461,0.237 0.174,-0.125 0.322,-0.288 0.466,-0.447 0.722,-0.801 1.655,-0.893 2.523,-0.242 0.034,0.025 0.066,0.05 0.099,0.077 0.1,0.083 0.221,0.107 0.283,-0.015 0.032,-0.065 0,-0.213 -0.054,-0.264 C 3.059,-0.755 2.665,-0.948 2.22,-1.015 1.471,-1.129 0.822,-0.958 0.336,-0.334 0.252,-0.228 0.151,-0.133 0.014,-0.056 0.031,-0.122 0.049,-0.19 0.066,-0.258 c 0.116,-0.483 0.018,-0.918 -0.33,-1.274 -0.26,-0.267 -0.585,-0.327 -0.923,-0.175 -0.372,0.167 -0.667,0.43 -0.725,0.854 -0.023,0.165 0.047,0.349 0.101,0.517 0.016,0.05 0.127,0.101 0.188,0.094 0.059,-0.005 0.158,-0.087 0.157,-0.133 -0.005,-0.255 0.191,-0.334 0.356,-0.441 0.08,-0.052 0.164,-0.095 0.293,-0.171 -0.022,0.165 -0.026,0.287 -0.054,0.402 -0.115,0.478 0.004,0.944 0.088,1.407 0.047,0.26 0.285,0.378 0.722,0.426 -0.055,0.085 -0.116,0.157 -0.157,0.238 -0.213,0.425 -0.111,0.837 0.054,1.25 0.074,0.183 0.107,0.382 0.148,0.577 C -0.005,3.36 -0.037,3.416 -0.062,3.522 -0.216,3.377 -0.332,3.251 -0.467,3.148 -0.532,3.097 -0.632,3.086 -0.716,3.06 c -0.026,0.09 -0.089,0.188 -0.073,0.272 0.029,0.155 0.105,0.301 0.16,0.452 0.204,0.556 0.517,0.627 1.139,0.6 C 0.789,4.37 0.967,4.187 1.037,3.918 1.115,3.619 1.098,3.325 0.947,3.046 0.855,2.875 0.817,2.707 0.961,2.542 1.088,2.397 1.225,2.419 1.289,2.603 1.318,2.688 1.342,2.784 1.329,2.871 1.262,3.309 1.206,3.752 1.1,4.182 0.975,4.687 0.939,5.188 1.053,5.691 1.248,6.56 1.928,7.156 2.904,7.295 3.223,7.341 3.553,7.308 3.879,7.309 3.963,7.309 4.045,7.294 4.129,7.298 4.441,7.315 4.51,7.453 4.36,7.716 4.263,7.892 4.199,8.087 4.11,8.267 4,8.49 3.898,8.723 3.754,8.922 3.611,9.121 3.496,9.105 3.383,8.881 3.279,8.677 3.214,8.455 3.125,8.243 2.92,7.746 2.52,7.476 1.988,7.476 1.254,7.476 0.635,8.119 0.654,8.853 0.656,8.941 0.613,9.03 0.592,9.119 0.508,9.079 0.412,9.053 0.344,8.994 0.249,8.913 0.148,8.806 0.041,8.907 -0.027,8.972 -0.062,9.12 -0.041,9.217 0.012,9.47 0.16,9.675 0.379,9.819 0.787,10.086 1.305,9.935 1.498,9.486 1.551,9.36 1.572,9.219 1.617,9.088 1.67,8.938 1.713,8.778 1.797,8.646 1.936,8.43 2.188,8.455 2.284,8.694 2.369,8.908 2.416,9.134 2.497,9.349 2.568,9.538 2.645,9.728 2.751,9.897 3.06,10.382 3.557,10.48 4.002,10.116 4.233,9.927 4.419,9.671 4.586,9.42 4.793,9.108 4.953,8.763 5.144,8.439 5.355,8.082 5.674,7.972 6.053,8.072 5.804,8.254 5.547,8.445 5.289,8.632 4.852,8.947 4.764,9.388 4.813,9.892 c 0.031,0.298 0.052,0.599 0.031,0.893 -0.025,0.324 -0.319,0.511 -0.636,0.43 -0.161,-0.04 -0.322,-0.1 -0.463,-0.187 -0.581,-0.357 -1.181,-0.24 -1.778,-0.075 -0.064,0.017 -0.133,0.14 -0.135,0.216 -0.001,0.046 0.129,0.146 0.186,0.137 0.49,-0.079 0.845,0.178 1.189,0.455 0.257,0.209 0.541,0.342 0.863,0.396 C 5.053,12.323 5.671,11.822 5.709,10.8 5.722,10.463 5.67,10.12 5.611,9.785 5.553,9.442 5.914,8.972 6.259,8.992 6.302,8.994 6.352,9.046 6.379,9.088 6.51,9.289 6.508,9.509 6.456,9.732 6.437,9.813 6.412,9.897 6.369,9.967 c -0.39,0.641 -0.324,1.284 -0.015,1.935 0.234,0.494 0.234,0.514 -0.215,0.807 -0.528,0.348 -0.528,0.871 -0.481,1.396 0.022,0.227 0.132,0.454 0.235,0.664 0.037,0.072 0.174,0.093 0.265,0.137 0.033,-0.095 0.084,-0.188 0.099,-0.286 0.046,-0.305 0.072,-0.615 0.122,-0.919 0.008,-0.041 0.109,-0.096 0.167,-0.096 0.479,0.002 0.755,-0.192 0.843,-0.666 0.068,-0.368 0.086,-0.747 0.127,-1.12 0.014,-0.132 0.033,-0.262 0.054,-0.433 0.107,0.072 0.187,0.129 0.26,0.178 -0.074,0.23 -0.137,0.443 -0.21,0.653 -0.097,0.277 -0.054,0.537 0.09,0.783 0.104,0.179 0.219,0.355 0.337,0.526 0.115,0.166 0.322,0.214 0.48,0.118 0.151,-0.088 0.144,-0.231 0.119,-0.436 -0.029,-0.245 0.026,-0.5 0.047,-0.79 0.151,0.082 0.248,0.132 0.342,0.188 0.74,0.445 1.528,0.489 2.362,0.342 0.546,-0.097 0.936,-0.366 1.221,-0.822 0.068,-0.105 0.126,-0.215 0.202,-0.345 0.063,0.13 0.104,0.254 0.173,0.359 0.198,0.3 0.375,0.625 0.619,0.885 0.456,0.485 1.03,0.533 1.64,0.32 0.637,-0.22 1.066,-0.664 1.37,-1.248 0.067,-0.13 0.134,-0.262 0.223,-0.378 0.19,-0.248 0.438,-0.312 0.723,-0.182 0.138,0.062 0.278,0.14 0.387,0.242 0.41,0.381 0.915,0.518 1.447,0.586 0.194,0.025 0.39,0.031 0.584,0.035 0.142,0.002 0.308,-0.003 0.313,-0.193 0.006,-0.193 -0.16,-0.206 -0.301,-0.206 -0.428,0 -0.78,-0.176 -1.102,-0.437 C 19.032,10.853 19.108,10.152 18.72,9.492 18.71,9.476 18.7,9.459 18.689,9.44 18.682,9.431 18.676,9.42 18.668,9.412 c 0.008,0 0.014,-0.002 0.02,-0.002 -10e-4,0.01 -10e-4,0.022 -10e-4,0.032 0.021,0.002 0.043,0.004 0.065,0.006 0.114,0.11 0.235,0.214 0.344,0.331 0.155,0.169 0.287,0.361 0.456,0.516 0.503,0.456 1.233,0.343 1.571,-0.246 C 21.254,9.82 21.339,9.566 21.449,9.325 21.511,9.191 21.569,9.054 21.772,9.121 21.815,9.135 21.918,9.078 21.937,9.03 21.959,8.972 21.945,8.876 21.908,8.82 21.729,8.557 21.367,8.523 21.121,8.752 20.934,8.927 20.764,9.124 20.576,9.299 20.375,9.486 20.258,9.453 20.172,9.188 20.148,9.115 20.129,9.042 20.115,8.967 20.055,8.652 19.998,8.339 19.939,8.03 h 0.649 c 0.633,-10e-4 0.856,-0.173 1.021,-0.792 0.015,-0.051 0.034,-0.101 0.051,-0.155 0.125,0.076 0.233,0.156 0.352,0.208 0.228,0.097 0.427,10e-4 0.485,-0.239 C 22.584,6.693 22.509,6.359 22.281,6.069 22.133,5.879 21.932,5.851 21.697,5.971 21.328,6.161 20.963,6.36 20.596,6.555 20.572,6.567 20.546,6.573 20.45,6.611 20.502,6.361 20.52,6.149 20.588,5.955 20.762,5.454 20.636,5.016 20.318,4.63 20.033,4.281 19.381,4.244 19.016,4.521 18.922,4.591 18.83,4.699 18.729,4.711 18.652,4.719 18.562,4.599 18.479,4.537 18.457,4.521 18.432,4.511 18.4,4.493 c 0.045,-0.155 0.088,-0.307 0.143,-0.494 0.344,0.278 0.725,0.198 1.111,0.135 0.427,-0.07 0.76,0.09 0.998,0.457 0.159,0.246 0.319,0.493 0.508,0.715 0.223,0.26 0.525,0.275 0.761,0.077 C 22.044,5.278 22.09,5.151 22.049,4.991 21.99,4.757 21.951,4.518 21.881,4.287 21.793,3.998 21.685,3.715 21.582,3.425 c 0.377,0.01 0.742,-0.094 0.973,-0.476 0.213,-0.356 0.194,-0.757 0.199,-1.174 0.259,0.1 0.334,0.297 0.364,0.514 0.018,0.129 -0.011,0.266 0.011,0.395 0.012,0.068 0.078,0.171 0.127,0.177 0.068,0.007 0.18,-0.046 0.211,-0.106 C 23.82,2.095 23.646,1.364 23.045,0.921 22.732,0.692 22.42,0.68 22.138,0.887 21.852,1.098 21.744,1.455 21.85,1.799 21.889,1.928 21.918,2.071 21.908,2.203 21.902,2.28 21.818,2.398 21.752,2.412 21.682,2.425 21.583,2.347 21.512,2.29 21.475,2.26 21.461,2.192 21.449,2.14 21.173,0.876 19.822,0.782 19.151,1.301 18.928,1.474 18.672,1.607 18.416,1.729 18.322,1.775 18.156,1.773 18.08,1.717 17.941,1.612 17.853,1.443 17.922,1.252 c 0.049,-0.135 0.103,-0.28 0.194,-0.388 0.413,-0.5 0.448,-1.077 0.378,-1.681 -0.043,-0.358 -0.09,-0.716 -0.142,-1.132 0.31,0.017 0.611,-0.002 0.895,0.06 0.433,0.091 0.858,0.23 1.279,0.367 0.205,0.067 0.335,0.217 0.396,0.446 0.101,0.381 0.355,0.621 0.758,0.685 0.213,0.034 0.37,-0.036 0.47,-0.227 0.048,-0.092 0.09,-0.187 0.133,-0.282 0.143,-0.316 0.43,-0.459 0.807,-0.405 0.338,0.049 0.507,0.233 0.556,0.602 v 0.053 l -0.029,-0.026 c -0.162,-0.091 -0.316,-0.205 -0.489,-0.265 -0.298,-0.106 -0.515,-0.007 -0.657,0.278 -0.075,0.148 -0.13,0.307 -0.185,0.464 -0.065,0.19 -0.192,0.309 -0.382,0.352 -0.441,0.102 -0.859,0.114 -1.246,-0.203 -0.24,-0.195 -0.513,-0.366 -0.796,-0.491 -0.518,-0.232 -0.936,-0.021 -1.113,0.519 -0.03,0.091 -0.056,0.188 -0.064,0.284 -0.021,0.244 -0.056,0.476 -0.228,0.672 -0.082,0.094 -0.111,0.225 0.023,0.309 0.146,0.092 0.225,-0.009 0.293,-0.13 0.168,-0.298 0.428,-0.441 0.768,-0.465 0.299,-0.021 0.609,-0.019 0.887,-0.113 0.207,-0.071 0.359,-0.052 0.558,-0.003 0.412,0.101 0.842,0.097 1.22,-0.116 0.167,-0.095 0.29,-0.286 0.405,-0.453 0.076,-0.112 0.098,-0.26 0.151,-0.388 0.086,-0.202 0.152,-0.225 0.358,-0.137 0.347,0.148 0.429,0.417 0.239,0.741 -0.039,0.066 -0.045,0.211 -0.002,0.249 0.051,0.045 0.17,0.023 0.258,0.013 0.036,-0.003 0.07,-0.044 0.102,-0.071 0.344,-0.305 0.433,-0.973 0.202,-1.485 -0.184,-0.403 -0.622,-0.617 -1.116,-0.557 -0.435,0.054 -0.734,0.267 -0.889,0.687 -0.099,0.269 -0.294,0.299 -0.488,0.08 -0.074,-0.087 -0.144,-0.199 -0.164,-0.31 -0.061,-0.307 -0.259,-0.496 -0.522,-0.609 -0.312,-0.134 -0.636,-0.248 -0.963,-0.342 -0.144,-0.04 -0.195,-0.104 -0.192,-0.237 0,-0.008 -0.005,-0.015 -0.003,-0.021 0.053,-0.159 0.062,-0.39 0.171,-0.455 0.112,-0.069 0.337,-0.008 0.485,0.059 0.158,0.07 0.295,0.203 0.42,0.329 0.229,0.232 0.513,0.257 0.796,0.201 0.39,-0.077 0.771,-0.173 1.175,-0.152 0.227,0.011 0.387,-0.154 0.473,-0.36 0.177,-0.43 0.172,-0.873 0.033,-1.309 -0.093,-0.287 -0.38,-0.334 -0.569,-0.097 -0.087,0.112 -0.142,0.253 -0.193,0.388 -0.168,0.443 -0.459,0.593 -0.912,0.453 -0.049,-0.017 -0.096,-0.054 -0.134,-0.092 -0.034,-0.033 -0.056,-0.081 -0.081,-0.121 -0.321,-0.524 -0.717,-0.941 -1.377,-1.008 -0.176,-0.019 -0.344,-0.087 -0.515,-0.131 -10e-4,-0.021 -0.002,-0.039 -0.003,-0.059 0.407,-0.061 0.813,-0.16 1.219,-0.17 0.389,-0.011 0.803,0.577 0.73,0.951 -0.008,0.041 -0.029,0.092 -0.015,0.123 0.042,0.086 0.088,0.214 0.156,0.23 0.069,0.016 0.225,-0.07 0.237,-0.132 0.042,-0.228 0.097,-0.478 0.045,-0.694 -0.205,-0.861 -0.729,-1.508 -1.463,-1.984 -0.147,-0.093 -0.335,-0.15 -0.51,-0.168 -0.519,-0.056 -1.04,-0.081 -1.561,-0.124 -0.128,-0.011 -0.279,-0.011 -0.38,-0.076 -0.502,-0.33 -0.984,-0.686 -1.279,-1.236 -0.071,-0.132 -0.038,-0.224 0.07,-0.271 0.048,-0.022 0.142,0.05 0.208,0.091 0.032,0.02 0.036,0.087 0.067,0.101 0.08,0.036 0.168,0.053 0.252,0.078 0.02,-0.086 0.082,-0.187 0.055,-0.251 -0.096,-0.225 -0.243,-0.415 -0.516,-0.432 -0.197,-0.012 -0.482,0.215 -0.557,0.448 -0.023,0.07 -0.009,0.168 0.022,0.238 0.314,0.726 0.898,1.196 1.556,1.58 0.151,0.086 0.362,0.081 0.546,0.097 0.472,0.041 0.945,0.056 1.414,0.105 0.421,0.044 0.73,0.295 0.994,0.605 0.111,0.13 0.214,0.266 0.312,0.417 -0.472,-0.19 -0.914,-0.013 -1.36,0.072 -0.642,0.126 -1.275,0.113 -1.898,-0.092 -0.299,-0.1 -0.508,-0.269 -0.643,-0.573 -0.562,-1.247 -1.448,-2.222 -2.585,-2.974 -0.5,-0.33 -1.057,-0.491 -1.654,-0.523 -0.732,-0.041 -1.461,-0.076 -2.178,0.141 C 9.557,-8.87 8.741,-8.188 8.078,-7.303 7.994,-7.192 7.895,-7.161 7.768,-7.112 7.287,-6.929 6.861,-7.071 6.41,-7.21 6.193,-7.275 5.916,-7.257 5.7,-7.181 5.09,-6.966 4.604,-6.579 4.338,-5.964 4.288,-5.849 4.237,-5.802 4.095,-5.808 3.682,-5.831 3.34,-5.648 3.039,-5.378 2.826,-5.189 2.619,-4.994 2.412,-4.802 2.041,-5.087 2.036,-5.474 2.054,-5.859 2.07,-6.241 2.105,-6.624 2.137,-7.007 2.176,-7.471 2.011,-7.781 1.572,-7.936 1.356,-8.012 1.107,-8.039 0.879,-8.028 c -0.311,0.02 -0.441,0.266 -0.291,0.54 0.11,0.206 0.252,0.403 0.411,0.575 0.22,0.238 0.269,0.462 0.134,0.771 -0.145,0.33 -0.24,0.682 -0.324,1.034 -0.085,0.349 -0.01,0.69 0.224,0.963 0.217,0.252 0.442,0.52 0.719,0.69 0.269,0.167 0.609,0.218 0.881,0.307 C 2.299,-3.066 2.127,-2.755 1.984,-2.414 1.947,-2.324 1.895,-2.241 1.842,-2.16 1.738,-2 1.6,-1.922 1.398,-1.958 1.183,-2 1.031,-2.107 1.008,-2.331 0.986,-2.545 0.989,-2.762 0.992,-2.978 0.998,-3.249 1.01,-3.517 0.869,-3.77 0.574,-4.308 0.07,-4.423 -0.402,-4.038 c -0.461,0.376 -0.77,0.846 -0.771,1.465 -10e-4,0.09 0.085,0.182 0.13,0.274 0.086,-0.044 0.193,-0.069 0.25,-0.138 0.252,-0.299 0.498,-0.599 0.898,-0.852 -0.018,0.249 -0.021,0.444 -0.05,0.636 -0.03,0.199 -0.082,0.395 -0.127,0.592 -0.067,0.297 0.02,0.543 0.267,0.715 0.348,0.241 0.733,0.33 1.153,0.225 0.588,-0.147 1.173,-0.294 1.763,-0.436 0.596,-0.144 0.84,0.017 0.959,0.619 0.016,0.088 0.019,0.179 0.029,0.262 C 4.076,-0.662 4.066,-0.647 4.054,-0.647 3.68,-0.64 3.641,-0.562 3.832,-0.23 4.174,0.364 4.232,1.008 4.152,1.672 4.115,1.991 4.071,2.31 4.021,2.625 3.947,3.088 4.107,3.441 4.454,3.756 4.713,3.99 4.933,4.277 5.135,4.562 5.436,4.996 5.883,5.143 6.357,5.241 6.409,5.251 6.539,5.137 6.535,5.09 6.528,5.018 6.451,4.921 6.38,4.888 6.156,4.78 5.914,4.709 5.691,4.6 5.594,4.551 5.521,4.442 5.447,4.355 5.211,4.073 5.01,3.755 4.738,3.516 4.433,3.25 4.334,2.962 4.392,2.577 4.463,2.088 4.548,1.594 4.537,1.104 4.527,0.694 4.39,0.287 4.31,-0.12 4.309,-0.136 4.307,-0.152 4.305,-0.168 c 0.014,0.005 0.029,0.012 0.043,0.018 0.349,0.178 0.543,0.489 0.623,0.848 0.101,0.453 0.154,0.918 0.209,1.381 0.041,0.365 0.045,0.736 0.08,1.105 0.043,0.455 0.247,0.826 0.651,1.06 0.276,0.159 0.564,0.301 0.857,0.428 0.795,0.343 1.43,0.85 1.789,1.663 0.054,0.126 0.139,0.244 0.236,0.341 0.504,0.497 1.07,0.84 1.816,0.868 0.545,0.02 1.089,0.137 1.631,0.222 0.105,0.015 0.201,0.081 0.301,0.122 0.047,0.011 0.096,0.018 0.141,0.033 0.658,0.249 1.284,0.234 1.896,-0.161 0.629,-0.408 1.321,-0.682 2.049,-0.868 0.248,-0.064 0.501,-0.135 0.728,-0.246 0.127,-0.065 0.283,-0.213 0.299,-0.34 0.073,-0.542 0.391,-0.971 0.59,-1.461 0.346,0.331 0.569,0.334 0.936,0.028 0.01,-0.01 0.019,-0.021 0.031,-0.029 0.278,-0.216 0.712,-0.18 0.893,0.099 0.177,0.275 0.266,0.571 0.136,0.909 -0.072,0.185 -0.101,0.39 -0.119,0.589 -0.016,0.182 0.012,0.372 0.195,0.476 0.19,0.108 0.36,0.011 0.528,-0.081 0.334,-0.182 0.671,-0.361 1.011,-0.53 0.043,-0.02 0.146,0 0.169,0.038 0.115,0.174 0.165,0.37 0.119,0.616 C 22.029,6.875 21.945,6.805 21.854,6.745 21.634,6.599 21.43,6.657 21.329,6.901 21.285,7.011 21.28,7.139 21.225,7.238 21.147,7.378 21.057,7.589 20.939,7.614 20.29,7.756 19.562,7.697 19.156,7.046 18.982,6.77 18.899,6.437 18.758,6.136 18.723,6.061 18.62,5.967 18.548,5.966 c -0.14,-0.004 -0.174,0.12 -0.145,0.245 0.125,0.538 0.322,1.053 0.767,1.403 0.295,0.233 0.418,0.521 0.484,0.865 0.062,0.306 0.11,0.618 0.209,0.913 0.139,0.411 0.524,0.51 0.871,0.253 0.073,-0.053 0.141,-0.109 0.212,-0.166 0.011,-0.007 0.021,-0.016 0.031,-0.023 -0.005,0.013 -0.01,0.027 -0.014,0.04 -0.037,0.099 -0.064,0.201 -0.111,0.293 -0.248,0.48 -0.735,0.557 -1.118,0.174 C 19.637,9.866 19.541,9.761 19.463,9.648 19.15,9.193 18.707,8.952 18.191,8.787 17.443,8.547 16.846,8.806 16.376,9.351 16.014,9.772 15.578,10.063 15.101,10.31 14.84,10.443 14.559,10.48 14.268,10.411 13.746,10.287 13.36,9.968 13.027,9.57 12.945,9.473 12.85,9.421 12.74,9.509 c -0.113,0.089 -0.088,0.201 0.002,0.29 0.209,0.204 0.427,0.399 0.634,0.604 0.104,0.105 0.224,0.208 0.289,0.337 0.427,0.819 0.981,1.076 1.88,0.854 0.039,-0.011 0.082,-0.007 0.123,-0.009 0.009,0.019 0.018,0.036 0.025,0.054 -0.255,0.198 -0.502,0.412 -0.771,0.592 -0.322,0.219 -0.563,0.211 -0.818,-0.082 -0.247,-0.285 -0.444,-0.62 -0.627,-0.951 -0.088,-0.156 -0.147,-0.295 -0.358,-0.259 0.008,-0.045 0.006,-0.074 0.014,-0.1 0.041,-0.135 0.068,-0.28 -0.112,-0.323 -0.179,-0.041 -0.205,0.106 -0.244,0.24 -0.076,0.261 -0.156,0.521 -0.257,0.773 -0.252,0.624 -0.661,1.034 -1.39,1.089 -0.526,0.042 -1.042,0.1 -1.532,-0.152 C 9.337,12.334 9.08,12.193 8.824,12.051 8.592,11.922 8.459,11.977 8.401,12.235 8.338,12.512 8.275,12.788 8.214,13.064 7.857,12.697 7.848,12.247 8.186,11.781 c 0.171,0.048 0.342,0.121 0.519,0.141 0.559,0.063 1.121,0.145 1.682,0.139 0.281,-0.002 0.598,-0.124 0.832,-0.289 0.441,-0.31 0.836,-0.687 1.245,-1.044 0.097,-0.083 0.141,-0.206 0.022,-0.307 -0.117,-0.098 -0.218,-0.031 -0.302,0.072 -0.032,0.037 -0.063,0.076 -0.1,0.106 -0.37,0.304 -0.732,0.621 -1.116,0.905 -0.228,0.169 -0.505,0.224 -0.794,0.213 C 9.334,11.688 8.502,11.651 7.791,11.098 7.555,10.915 7.312,11.025 7.229,11.317 7.183,11.477 7.166,11.646 7.148,11.811 7.112,12.137 7.094,12.464 7.051,12.789 7.028,12.97 6.977,13.159 6.767,13.212 6.647,13.243 6.516,13.217 6.395,13.243 6.281,13.267 6.176,13.325 6.066,13.367 6.107,13.25 6.173,13.162 6.251,13.09 6.328,13.021 6.42,12.968 6.504,12.906 6.889,12.621 6.957,12.372 6.77,11.928 6.693,11.742 6.607,11.559 6.542,11.369 6.42,11.01 6.439,10.657 6.604,10.312 6.711,10.082 6.796,9.84 6.891,9.604 6.922,9.663 6.967,9.739 7.005,9.82 7.61,11.067 8.902,11.739 10.271,11.503 11.17,11.348 11.756,10.75 12.256,10.049 12.291,10 12.262,9.839 12.221,9.819 12.152,9.787 12.049,9.824 11.965,9.847 11.934,9.855 11.919,9.915 11.891,9.943 11.616,10.22 11.357,10.515 11.063,10.765 10.585,11.171 10.02,11.166 9.422,11.124 8.435,11.055 7.807,10.524 7.355,9.708 7.223,9.463 7.105,9.209 6.953,8.977 6.689,8.576 6.452,8.513 6.006,8.685 5.924,8.718 5.842,8.749 5.759,8.782 5.749,8.76 5.739,8.74 5.729,8.719 5.865,8.641 5.993,8.546 6.136,8.49 6.501,8.348 6.823,8.441 7.057,8.752 c 0.242,0.325 0.47,0.658 0.707,0.987 0.484,0.674 1.152,0.988 1.97,0.999 0.473,0.006 0.926,-0.103 1.369,-0.263 0.122,-0.042 0.23,-0.102 0.18,-0.253 -0.055,-0.167 -0.184,-0.125 -0.312,-0.089 -0.268,0.075 -0.535,0.163 -0.809,0.203 C 9.313,10.458 8.584,10.248 8.061,9.521 7.898,9.294 7.744,9.061 7.576,8.841 7.395,8.602 7.218,8.357 7.008,8.146 6.276,7.417 5.241,7.545 4.719,8.423 4.555,8.697 4.432,8.997 4.253,9.262 4.104,9.484 3.926,9.698 3.72,9.863 3.49,10.047 3.25,9.988 3.092,9.743 2.979,9.568 2.9,9.372 2.826,9.178 2.744,8.965 2.703,8.734 2.61,8.523 2.406,8.059 1.824,7.99 1.523,8.399 1.412,8.552 1.352,8.746 1.281,8.926 1.229,9.061 1.213,9.211 1.157,9.344 1.059,9.578 0.879,9.63 0.602,9.508 0.98,9.427 1.036,9.161 1.025,8.854 1.024,8.833 1.022,8.813 1.022,8.792 1.021,8.396 1.238,8.14 1.561,7.959 1.875,7.784 2.215,7.78 2.485,8.004 2.66,8.147 2.752,8.396 2.867,8.604 2.981,8.811 3.053,9.043 3.189,9.23 3.363,9.466 3.644,9.492 3.874,9.31 4.008,9.205 4.127,9.066 4.213,8.92 4.321,8.736 4.394,8.529 4.474,8.33 4.693,7.775 5.003,7.292 5.635,7.179 6.378,7.046 6.99,7.38 7.395,7.956 7.805,8.54 8.273,9.05 8.788,9.532 c 0.71,0.661 1.237,0.729 2.109,0.312 0.724,-0.344 1.304,-0.83 1.628,-1.577 0.045,-0.105 0.01,-0.246 0.012,-0.372"
           sodipodi:nodetypes="ccccccccccccccccccccccccccccccccccccccccccccccccscccccccccccccccccccccccccccccccccccccccccccccccccccccccccccccccccccccccccscccccccccccccccccccccccccccccccccccccccccccccccccccccccccccccccccccccccccccccccccccccccccccccccccccccccccccccccccccccccccccccccccccccccccccccccccccccccccccccccccccccccccccccccccccccccccccccccccccccccccccccccccccccccccccccccccccccccccccccccccccccccccccccccccccccccccccccsccccccccccccccccccccccccccccccccccccccccccccccccccccccccccccccccsccccccccccccccccccccccccccccccccccccccccccccccccccccccccccccccccccccccccccccccccccccccccccccccccccccccsccccccccccccccccccccccccccccccccccccccccccccccccccccccccccccccccccccccccccccccsccccccccccccccccccccccccccccccccccccccccccccccccccccccccccccccscccccccccccccccccccccccccccccccccccccccccccccccccccccccccccccccccccccccccccccccccccccccccccccccccc" />
      </g>
      <g
         transform="matrix(1.7679849,0,0,-1.7679849,19.877586,275.26834)"
         id="g3152"
         style="fill:#ffffff">
        <path
           inkscape:connector-curvature="0"
           id="path3154"
           style="fill:#ffffff;fill-opacity:1;fill-rule:nonzero;stroke:none"
           d="M 0,0 C 0.186,-0.024 0.375,-0.034 0.557,-0.075 1.033,-0.184 1.488,-0.122 1.92,0.087 2.083,0.168 2.227,0.3 2.359,0.428 2.847,0.894 3.308,1.392 3.814,1.835 4.416,2.362 5.18,2.465 5.943,2.514 6.01,2.519 6.084,2.403 6.154,2.343 6.086,2.279 6.024,2.177 5.946,2.161 5.654,2.101 5.354,2.079 5.061,2.024 4.656,1.947 4.283,1.787 3.98,1.507 3.551,1.107 3.109,0.718 2.729,0.279 2.157,-0.383 1.441,-0.563 0.624,-0.456 0.263,-0.408 -0.089,-0.33 -0.451,-0.429 -0.739,-0.506 -0.973,-0.654 -1.131,-0.914 -1.207,-1.038 -1.293,-1.157 -1.379,-1.275 -1.903,-2 -1.926,-2.756 -1.518,-3.537 c 0.095,-0.178 0.221,-0.34 0.303,-0.523 0.031,-0.066 -0.019,-0.169 -0.033,-0.257 -0.087,0.019 -0.217,0.005 -0.254,0.056 -0.492,0.707 -0.832,1.459 -0.59,2.348 0.155,0.572 0.495,1.046 0.882,1.475 C -0.898,-0.095 -0.459,-0.004 0,0" />
      </g>
      <g
         transform="matrix(1.7679849,0,0,-1.7679849,13.340807,288.37635)"
         id="g3232"
         style="fill:#ffffff">
        <path
           inkscape:connector-curvature="0"
           id="path3234"
           style="fill:#ffffff;fill-opacity:1;fill-rule:nonzero;stroke:none"
           d="M 0,0 C 0.002,0.021 0.004,0.04 0.006,0.061 0.118,0.037 0.229,0.013 0.341,-0.01 0.338,-0.026 0.335,-0.041 0.332,-0.055 0.221,-0.037 0.111,-0.019 0,0" />
      </g>
      <g
         transform="matrix(1.5457558,0,0,-1.5457558,23.574164,264.41719)"
         id="g3236"
         style="fill:#ffffff" />
      <g
         transform="matrix(1.5457558,0,0,-1.5457558,23.213387,264.06845)"
         id="g3244"
         style="fill:#ffffff" />
      <g
         transform="matrix(1.7679849,0,0,-1.7679849,51.362918,282.99213)"
         id="g3248"
         style="fill:#ffffff">
        <path
           inkscape:connector-curvature="0"
           id="path3250"
           style="fill:#ffffff;fill-opacity:1;fill-rule:nonzero;stroke:none"
           d="M 0,0 C 0.033,0.008 0.066,0.018 0.1,0.025 L 0.097,0.027 C 0.077,0.007 0.057,-0.014 0.037,-0.036 0.025,-0.023 0.013,-0.012 0,0" />
      </g>
      <g
         transform="matrix(1.7679849,0,0,-1.7679849,24.042069,282.09435)"
         id="g3252"
         style="fill:#ffffff">
        <path
           inkscape:connector-curvature="0"
           id="path3254"
           style="fill:#ffffff;fill-opacity:1;fill-rule:nonzero;stroke:none"
           d="M 0,0 C -0.029,-0.003 -0.06,-0.008 -0.09,-0.012 -0.092,-0.005 -0.094,0.003 -0.096,0.012 -0.073,0.021 -0.052,0.03 -0.03,0.041 -0.02,0.027 -0.01,0.014 0,0" />
      </g>
      <g
         transform="matrix(1.7679849,0,0,-1.7679849,47.778683,268.78176)"
         id="g3256"
         style="fill:#ffffff">
        <path
           inkscape:connector-curvature="0"
           id="path3258"
           style="fill:#ffffff;fill-opacity:1;fill-rule:nonzero;stroke:none"
           d="m 0,0 c 0.004,-0.013 0.009,-0.027 0.014,-0.041 -0.01,0.008 -0.021,0.017 -0.031,0.024 L 0,0" />
      </g>
      <g
         transform="matrix(1.7679849,0,0,-1.7679849,43.869664,268.86645)"
         id="g3260"
         style="fill:#ffffff">
        <path
           inkscape:connector-curvature="0"
           id="path3262"
           style="fill:#ffffff;fill-opacity:1;fill-rule:nonzero;stroke:none"
           d="m 0,0 c -0.021,-0.002 -0.044,-0.004 -0.065,-0.006 l 0.003,-0.002 c 0.01,0.019 0.02,0.036 0.03,0.052 C -0.021,0.03 -0.011,0.015 0,0" />
      </g>
      <g
         transform="matrix(1.7679849,0,0,-1.7679849,10.716597,285.57071)"
         id="g3268"
         style="fill:#ffffff">
        <path
           inkscape:connector-curvature="0"
           id="path3270"
           style="fill:#ffffff;fill-opacity:1;fill-rule:nonzero;stroke:none"
           d="M 0,0 0.012,0.007 V -0.007 Z" />
      </g>
      <g
         transform="matrix(1.7679849,0,0,-1.7679849,18.40309,285.83662)"
         id="g3272"
         style="fill:#ffffff">
        <path
           inkscape:connector-curvature="0"
           id="path3274"
           style="fill:#ffffff;fill-opacity:1;fill-rule:nonzero;stroke:none"
           d="m 0,0 c -0.014,-0.005 -0.028,-0.012 -0.043,-0.018 0.002,0.017 0.004,0.032 0.005,0.049 C -0.026,0.021 -0.014,0.01 0,0" />
      </g>
      <g
         transform="matrix(1.7679849,0,0,-1.7679849,52.471263,286.76552)"
         id="g3276"
         style="fill:#ffffff">
        <path
           inkscape:connector-curvature="0"
           id="path3278"
           style="fill:#ffffff;fill-opacity:1;fill-rule:nonzero;stroke:none"
           d="M 0,0 C 0.01,0.009 0.02,0.019 0.029,0.026 0.029,0.009 0.028,-0.009 0.027,-0.027 0.019,-0.018 0.01,-0.009 0,0" />
      </g>
      <g
         transform="matrix(1.5457558,0,0,-1.5457558,42.927801,260.32339)"
         id="g3280"
         style="fill:#ffffff" />
      <g
         transform="matrix(1.5457558,0,0,-1.5457558,23.625487,264.36741)"
         id="g3288"
         style="fill:#ffffff" />
      <g
         transform="matrix(1.5457558,0,0,-1.5457558,23.403516,264.2006)"
         id="g3292"
         style="fill:#ffffff" />
      <g
         transform="matrix(1.5457558,0,0,-1.5457558,23.204273,264.07524)"
         id="g3296"
         style="fill:#ffffff" />
      <g
         transform="matrix(1.7679849,0,0,-1.7679849,9.6978824,291.40121)"
         id="g3300"
         style="fill:#ffffff">
        <path
           inkscape:connector-curvature="0"
           id="path3302"
           style="fill:#ffffff;fill-opacity:1;fill-rule:nonzero;stroke:none"
           d="M 0,0 C -0.005,0.018 -0.01,0.034 -0.014,0.052 0.002,0.044 0.016,0.036 0.029,0.03 0.02,0.02 0.01,0.01 0,0" />
      </g>
      <g
         transform="matrix(1.7679849,0,0,-1.7679849,9.7530414,291.47899)"
         id="g3304"
         style="fill:#ffffff">
        <path
           inkscape:connector-curvature="0"
           id="path3306"
           style="fill:#ffffff;fill-opacity:1;fill-rule:nonzero;stroke:none"
           d="m 0,0 c -0.011,0.014 -0.021,0.029 -0.031,0.044 0.01,0.01 0.019,0.02 0.029,0.029 C 0.014,0.061 0.027,0.045 0.043,0.033 0.028,0.021 0.014,0.011 0,0" />
      </g>
      <g
         transform="matrix(1.7679849,0,0,-1.7679849,28.158122,282.42581)"
         id="g3308"
         style="fill:#ffffff">
        <path
           inkscape:connector-curvature="0"
           id="path3310"
           style="fill:#ffffff;fill-opacity:1;fill-rule:nonzero;stroke:none"
           d="m 0,0 -0.041,-0.024 c 0.01,0.015 0.019,0.027 0.027,0.039 C -0.009,0.01 -0.004,0.005 0,0" />
      </g>
      <g
         transform="matrix(1.7679849,0,0,-1.7679849,51.539012,282.94808)"
         id="g3312"
         style="fill:#ffffff">
        <path
           inkscape:connector-curvature="0"
           id="path3314"
           style="fill:#ffffff;fill-opacity:1;fill-rule:nonzero;stroke:none"
           d="M 0,0 C -0.002,0.001 -0.002,0.002 -0.003,0.003 -0.003,0.002 0,0 0,0" />
      </g>
      <g
         transform="matrix(1.5457558,0,0,-1.5457558,23.397487,264.20586)"
         id="g3316"
         style="fill:#ffffff" />
      <g
         transform="matrix(1.7679849,0,0,-1.7679849,43.754041,268.87668)"
         id="g3320"
         style="fill:#ffffff">
        <path
           inkscape:connector-curvature="0"
           id="path3322"
           style="fill:#ffffff;fill-opacity:1;fill-rule:nonzero;stroke:none"
           d="m 0,0 c 0,-0.011 0.001,-0.022 0.002,-0.033 -0.007,0 -0.013,0.002 -0.021,0.003 0.008,0.008 0.014,0.018 0.022,0.028 z" />
      </g>
      <g
         transform="matrix(1.7679849,0,0,-1.7679849,35.561556,289.05487)"
         id="g3324"
         style="fill:#ffffff">
        <path
           inkscape:connector-curvature="0"
           id="path3326"
           style="fill:#ffffff;fill-opacity:1;fill-rule:nonzero;stroke:none"
           d="M 0,0 C 0.09,-0.077 0.158,-0.159 0.246,-0.209 0.307,-0.244 0.428,-0.266 0.46,-0.233 0.51,-0.184 0.547,-0.064 0.52,-0.005 0.456,0.132 0.343,0.255 0.535,0.364 0.656,0.433 0.793,0.326 0.879,0.111 0.973,-0.119 0.903,-0.374 0.707,-0.525 0.507,-0.68 0.251,-0.683 0.048,-0.534 c -0.034,0.025 -0.066,0.053 -0.11,0.09 -0.203,-0.329 -0.508,-0.456 -0.879,-0.447 -0.37,0.008 -0.676,0.149 -0.918,0.442 -0.088,-0.059 -0.164,-0.117 -0.247,-0.164 -0.23,-0.13 -0.507,-0.084 -0.691,0.108 -0.148,0.152 -0.182,0.444 -0.043,0.641 0.041,0.059 0.163,0.099 0.238,0.087 C -2.561,0.215 -2.514,0.082 -2.516,0.007 -2.52,-0.1 -2.62,-0.23 -2.47,-0.281 c 0.082,-0.028 0.212,0.02 0.293,0.073 0.277,0.19 0.413,0.186 0.653,-0.063 0.224,-0.234 0.504,-0.303 0.803,-0.226 0.123,0.032 0.229,0.159 0.326,0.257 0.083,0.082 0.142,0.186 0.225,0.297 0.008,-0.01 -0.032,0.02 -0.029,0.045 0.054,0.412 -0.371,0.637 -0.394,1.027 -0.019,0.373 -0.052,0.752 -0.124,1.12 -0.224,1.145 -0.07,2.293 -0.06,3.44 0.002,0.387 0.215,0.647 0.56,0.781 C 0.416,6.715 1.07,6.788 1.729,6.587 2.506,6.351 3.186,5.928 3.836,5.455 3.939,5.376 3.988,5.28 3.9,5.168 3.813,5.055 3.714,5.101 3.607,5.166 3.088,5.476 2.574,5.798 2.039,6.082 1.436,6.401 0.792,6.386 0.146,6.215 -0.295,6.098 -0.408,5.951 -0.418,5.493 -0.436,4.727 -0.488,3.959 -0.454,3.195 -0.424,2.5 -0.301,1.812 -0.209,1.121 -0.197,1.023 -0.128,0.933 -0.078,0.843 -0.018,0.735 0.065,0.635 0.111,0.521 0.19,0.332 0.206,0.142 0,0" />
      </g>
      <g
         transform="matrix(1.7679849,0,0,-1.7679849,36.640552,293.70966)"
         id="g3328"
         style="fill:#ffffff">
        <path
           inkscape:connector-curvature="0"
           id="path3330"
           style="fill:#ffffff;fill-opacity:1;fill-rule:nonzero;stroke:none"
           d="m 0,0 c -0.357,0.215 -0.667,0.418 -1.079,0.133 -0.338,-0.235 -0.733,-0.186 -1.104,-0.036 -0.204,0.082 -0.386,0.039 -0.552,-0.07 -0.154,-0.1 -0.289,-0.229 -0.471,-0.376 0.264,-0.075 0.498,-0.158 0.738,-0.207 0.524,-0.106 1.037,0.037 1.551,0.094 C -0.573,-0.426 -0.292,-0.215 0,0 m -3.326,0.059 c 0.084,0.057 0.175,0.108 0.253,0.171 0.293,0.244 0.619,0.353 0.986,0.215 0.352,-0.134 0.684,-0.123 0.997,0.08 0.314,0.208 0.617,0.162 0.921,-0.017 0.035,-0.021 0.074,-0.039 0.111,-0.059 -0.088,0.177 -0.21,0.312 -0.323,0.456 C -0.514,1.071 -0.643,1.113 -0.835,0.973 -1.23,0.689 -1.657,0.66 -2.095,0.883 -2.138,0.906 -2.187,0.916 -2.229,0.938 -2.448,1.049 -2.651,1.002 -2.796,0.828 -2.994,0.591 -3.163,0.328 -3.343,0.076 -3.353,0.067 -3.361,0.058 -3.37,0.05 Z m 1.284,-1.024 c -0.572,0.01 -1.035,0.172 -1.488,0.382 -0.098,0.046 -0.214,0.049 -0.315,0.087 -0.078,0.031 -0.179,0.075 -0.207,0.141 -0.028,0.063 0,0.178 0.045,0.243 0.203,0.29 0.416,0.572 0.633,0.851 0.094,0.121 0.197,0.236 0.306,0.344 0.287,0.281 0.615,0.365 0.993,0.189 0.082,-0.037 0.168,-0.067 0.252,-0.102 0.225,-0.096 0.447,-0.089 0.661,0.037 0.022,0.013 0.048,0.027 0.073,0.04 0.549,0.296 0.672,0.274 1.075,-0.201 C 0.202,0.79 0.427,0.541 0.626,0.272 0.692,0.183 0.737,0.039 0.719,-0.066 0.694,-0.212 0.547,-0.186 0.425,-0.184 0.365,-0.183 0.297,-0.231 0.246,-0.273 -0.242,-0.667 -0.788,-0.892 -1.425,-0.895 -1.652,-0.896 -1.88,-0.946 -2.042,-0.965" />
      </g>
      <g
         transform="matrix(1.7679849,0,0,-1.7679849,37.253519,268.34755)"
         id="g3332"
         style="fill:#ffffff">
        <path
           inkscape:connector-curvature="0"
           id="path3334"
           style="fill:#ffffff;fill-opacity:1;fill-rule:nonzero;stroke:none"
           d="M 0,0 C 0.271,-0.075 0.562,-0.111 0.814,-0.233 1.457,-0.542 2.001,-0.982 2.382,-1.6 2.628,-1.996 3.021,-2.145 3.471,-2.03 3.545,-2.011 3.684,-2.059 3.724,-2.12 3.801,-2.242 3.697,-2.32 3.588,-2.372 3.152,-2.573 2.41,-2.353 2.146,-1.907 c -0.273,0.465 -0.649,0.812 -1.08,1.115 -0.728,0.51 -1.393,0.515 -2.126,0.011 -0.108,-0.074 -0.208,-0.094 -0.29,0.018 -0.085,0.118 -0.02,0.209 0.079,0.285 C -0.899,-0.197 -0.482,-0.043 0,0" />
      </g>
      <g
         transform="matrix(1.7679849,0,0,-1.7679849,42.906303,274.23068)"
         id="g3336"
         style="fill:#ffffff">
        <path
           inkscape:connector-curvature="0"
           id="path3338"
           style="fill:#ffffff;fill-opacity:1;fill-rule:nonzero;stroke:none"
           d="m 0,0 c -0.093,-0.105 -0.162,-0.184 -0.245,-0.278 -0.049,0.067 -0.116,0.168 -0.194,0.265 -0.112,0.138 -0.23,0.277 -0.35,0.411 -0.145,0.163 -0.328,0.234 -0.544,0.209 -0.292,-0.035 -0.544,0.046 -0.786,0.212 -0.785,0.544 -1.619,0.983 -2.576,1.139 -0.127,0.021 -0.21,0.089 -0.18,0.23 0.031,0.147 0.148,0.15 0.266,0.126 0.595,-0.122 1.179,-0.282 1.711,-0.589 0.367,-0.211 0.722,-0.444 1.089,-0.659 0.094,-0.052 0.213,-0.103 0.312,-0.09 0.538,0.073 0.909,-0.184 1.214,-0.582 C -0.178,0.256 -0.08,0.112 0,0" />
      </g>
      <g
         transform="matrix(1.7679849,0,0,-1.7679849,30.760055,293.60517)"
         id="g3348"
         style="fill:#ffffff">
        <path
           inkscape:connector-curvature="0"
           id="path3350"
           style="fill:#ffffff;fill-opacity:1;fill-rule:nonzero;stroke:none"
           d="m 0,0 -0.044,-0.009 c 0.009,0.008 0.018,0.017 0.027,0.026 C -0.013,0.011 -0.005,0.005 0,0" />
      </g>
    </g>
  </g>
</svg>
