<svg height="180" viewBox="0 0 180 180" width="180" xmlns="http://www.w3.org/2000/svg" xmlns:sketch="http://www.bohemiancoding.com/sketch/ns"><g id="Page-1" fill="none" fill-rule="evenodd"><g id="Flat"><g id="Slice"/><g id="circle_saint_lucia"><path id="Rectangle-40-copy-2" d="m90.0027574 180c49.7041066 0 89.9972426-40.29437 89.9972426-90 0-49.7056299-40.293136-90-89.9972426-90-49.704107 0-89.99724251 40.2943701-89.99724251 90 0 49.70563 40.29313551 90 89.99724251 90z" fill="#4086cd" transform="matrix(1 0 0 -1 0 180)"/><path id="Rectangle-40-copy-3" d="m43.9944851 20h91.9999999l-45.9999999 125z" fill="#fff" transform="matrix(1 0 0 -1 0 165)"/><path id="Triangle-copy" d="m60 130h60l-30-81.4921875z" fill="#000"/><path id="Triangle" d="m44 144.996094h92l-46-40.996094z" fill="#e5b731"/></g></g></g><path id="gloss" d="m172.049394 127.038954c-14.120249 31.23033-45.547081 52.961046-82.049394 52.961046-49.7056275 0-90-40.294373-90-90 0-26.6311514 11.5667983-50.5607322 29.9506062-67.038954-5.1074555 11.2963583-7.9506062 23.8356294-7.9506062 37.038954 0 49.705627 40.2943725 90 90 90 23.074476 0 44.120802-8.683543 60.049394-22.961046z" opacity=".2"/></svg>