<?xml version="1.0" encoding="UTF-8"?>
<!DOCTYPE svg PUBLIC "-//W3C//DTD SVG 1.1//EN" "http://www.w3.org/Graphics/SVG/1.1/DTD/svg11.dtd">
<svg xmlns="http://www.w3.org/2000/svg" version="1.1" width="64px" height="64px" style="shape-rendering:geometricPrecision; text-rendering:geometricPrecision; image-rendering:optimizeQuality; fill-rule:evenodd; clip-rule:evenodd" xmlns:xlink="http://www.w3.org/1999/xlink">
<g><path style="opacity:0.925" fill="#de4030" d="M 23.5,-0.5 C 25.8333,-0.5 28.1667,-0.5 30.5,-0.5C 24.0526,3.2257 17.3859,6.7257 10.5,10C 9.25057,10.7401 8.25057,10.5735 7.5,9.5C 8.26231,7.73758 9.59565,6.73758 11.5,6.5C 15.8178,5.00778 19.8178,3.00778 23.5,0.5C 23.5,0.166667 23.5,-0.166667 23.5,-0.5 Z"/></g>
<g><path style="opacity:0.977" fill="#012169" d="M 31.5,-0.5 C 34.1667,-0.5 36.8333,-0.5 39.5,-0.5C 49.1088,2.46902 56.1088,8.46902 60.5,17.5C 49.1646,21.6937 46.3313,29.3603 52,40.5C 54.3575,43.0912 57.1908,44.7579 60.5,45.5C 56.1088,54.531 49.1088,60.531 39.5,63.5C 34.1667,63.5 28.8333,63.5 23.5,63.5C 11.1667,59.8333 3.16667,51.8333 -0.5,39.5C -0.5,36.8333 -0.5,34.1667 -0.5,31.5C 0.5,31.5 1.5,31.5 2.5,31.5C 2.83333,31.5 3.16667,31.5 3.5,31.5C 5.23711,28.992 6.07044,25.992 6,22.5C 13.4605,27.6567 21.6272,30.6567 30.5,31.5C 31.404,30.791 31.7373,29.791 31.5,28.5C 28.322,25.7417 24.6553,23.7417 20.5,22.5C 24.1667,21.8333 27.8333,21.1667 31.5,20.5C 31.5,20.1667 31.5,19.8333 31.5,19.5C 31.5,19.1667 31.5,18.8333 31.5,18.5C 31.5,16.5 31.5,14.5 31.5,12.5C 31.5,11.8333 31.5,11.1667 31.5,10.5C 27.8333,9.83333 24.1667,9.16667 20.5,8.5C 23.9302,7.28623 27.2635,5.78623 30.5,4C 31.3802,2.64387 31.7135,1.14387 31.5,-0.5 Z"/></g>
<g><path style="opacity:0.985" fill="#f6e8e8" d="M 30.5,-0.5 C 30.8333,-0.5 31.1667,-0.5 31.5,-0.5C 31.7135,1.14387 31.3802,2.64387 30.5,4C 27.2635,5.78623 23.9302,7.28623 20.5,8.5C 19.7109,8.78281 19.0442,9.28281 18.5,10C 22.8206,10.499 27.1539,10.6657 31.5,10.5C 31.5,11.1667 31.5,11.8333 31.5,12.5C 22.8333,12.5 14.1667,12.5 5.5,12.5C 5.93205,11.2905 6.59872,10.2905 7.5,9.5C 8.25057,10.5735 9.25057,10.7401 10.5,10C 17.3859,6.7257 24.0526,3.2257 30.5,-0.5 Z"/></g>
<g><path style="opacity:1" fill="#e3d1d6" d="M 23.5,0.5 C 19.8178,3.00778 15.8178,5.00778 11.5,6.5C 14.65,2.92492 18.65,0.924917 23.5,0.5 Z"/></g>
<g><path style="opacity:1" fill="#8190b4" d="M 20.5,8.5 C 24.1667,9.16667 27.8333,9.83333 31.5,10.5C 27.1539,10.6657 22.8206,10.499 18.5,10C 19.0442,9.28281 19.7109,8.78281 20.5,8.5 Z"/></g>
<g><path style="opacity:0.961" fill="#d9291b" d="M 5.5,12.5 C 14.1667,12.5 22.8333,12.5 31.5,12.5C 31.5,14.5 31.5,16.5 31.5,18.5C 21.8333,18.5 12.1667,18.5 2.5,18.5C 2.5,22.8333 2.5,27.1667 2.5,31.5C 1.5,31.5 0.5,31.5 -0.5,31.5C -0.5,28.8333 -0.5,26.1667 -0.5,23.5C 0.703954,19.4273 2.70395,15.7607 5.5,12.5 Z"/></g>
<g><path style="opacity:0.954" fill="#f6f5f7" d="M 60.5,17.5 C 61.7972,19.3713 62.7972,21.3713 63.5,23.5C 63.5,24.1667 63.5,24.8333 63.5,25.5C 63.1667,25.5 62.8333,25.5 62.5,25.5C 59.5444,24.0007 57.211,24.834 55.5,28C 56.3081,28.3076 56.9747,28.8076 57.5,29.5C 56.3112,30.4287 54.9778,30.762 53.5,30.5C 53.5,31.5 53.5,32.5 53.5,33.5C 54.8333,33.5 56.1667,33.5 57.5,33.5C 57.9299,35.2872 57.9299,36.9539 57.5,38.5C 59.5286,37.1565 61.5286,35.8231 63.5,34.5C 63.5,36.1667 63.5,37.8333 63.5,39.5C 62.7972,41.6287 61.7972,43.6287 60.5,45.5C 57.1908,44.7579 54.3575,43.0912 52,40.5C 46.3313,29.3603 49.1646,21.6937 60.5,17.5 Z"/></g>
<g><path style="opacity:1" fill="#f5c8c4" d="M 31.5,18.5 C 31.5,18.8333 31.5,19.1667 31.5,19.5C 22.1667,19.5 12.8333,19.5 3.5,19.5C 3.5,23.5 3.5,27.5 3.5,31.5C 3.16667,31.5 2.83333,31.5 2.5,31.5C 2.5,27.1667 2.5,22.8333 2.5,18.5C 12.1667,18.5 21.8333,18.5 31.5,18.5 Z"/></g>
<g><path style="opacity:1" fill="#eeedf1" d="M 31.5,19.5 C 31.5,19.8333 31.5,20.1667 31.5,20.5C 27.1539,20.3343 22.8206,20.501 18.5,21C 19.056,21.3826 19.3893,21.8826 19.5,22.5C 16.6812,20.9029 13.6812,20.4029 10.5,21C 17.1017,24.7991 23.7684,28.2991 30.5,31.5C 21.6272,30.6567 13.4605,27.6567 6,22.5C 6.07044,25.992 5.23711,28.992 3.5,31.5C 3.5,27.5 3.5,23.5 3.5,19.5C 12.8333,19.5 22.1667,19.5 31.5,19.5 Z"/></g>
<g><path style="opacity:1" fill="#8190b4" d="M 31.5,20.5 C 27.8333,21.1667 24.1667,21.8333 20.5,22.5C 20.1667,22.5 19.8333,22.5 19.5,22.5C 19.3893,21.8826 19.056,21.3826 18.5,21C 22.8206,20.501 27.1539,20.3343 31.5,20.5 Z"/></g>
<g><path style="opacity:1" fill="#df4333" d="M 19.5,22.5 C 23.1822,25.0078 27.1822,27.0078 31.5,28.5C 31.7373,29.791 31.404,30.791 30.5,31.5C 23.7684,28.2991 17.1017,24.7991 10.5,21C 13.6812,20.4029 16.6812,20.9029 19.5,22.5 Z"/></g>
<g><path style="opacity:1" fill="#d2bfc9" d="M 19.5,22.5 C 19.8333,22.5 20.1667,22.5 20.5,22.5C 24.6553,23.7417 28.322,25.7417 31.5,28.5C 27.1822,27.0078 23.1822,25.0078 19.5,22.5 Z"/></g>
<g><path style="opacity:1" fill="#1e0703" d="M 62.5,25.5 C 62.8333,25.5 63.1667,25.5 63.5,25.5C 63.5,27.1667 63.5,28.8333 63.5,30.5C 63.1667,30.5 62.8333,30.5 62.5,30.5C 59.9521,28.7044 59.9521,27.0378 62.5,25.5 Z"/></g>
<g><path style="opacity:1" fill="#5e1c18" d="M 62.5,25.5 C 59.9521,27.0378 59.9521,28.7044 62.5,30.5C 61.6302,33.5149 59.9635,34.5149 57.5,33.5C 56.1667,33.5 54.8333,33.5 53.5,33.5C 53.5,32.5 53.5,31.5 53.5,30.5C 54.9778,30.762 56.3112,30.4287 57.5,29.5C 56.9747,28.8076 56.3081,28.3076 55.5,28C 57.211,24.834 59.5444,24.0007 62.5,25.5 Z"/></g>
<g><path style="opacity:1" fill="#b63226" d="M 62.5,30.5 C 62.8333,30.5 63.1667,30.5 63.5,30.5C 63.5,31.8333 63.5,33.1667 63.5,34.5C 61.5286,35.8231 59.5286,37.1565 57.5,38.5C 57.9299,36.9539 57.9299,35.2872 57.5,33.5C 59.9635,34.5149 61.6302,33.5149 62.5,30.5 Z"/></g>
</svg>
