<svg fill="none" height="512" viewBox="0 0 36 36" width="512" xmlns="http://www.w3.org/2000/svg"><g id="36 Multicolor / Flag / mc_36_flag_tunisia"><g id="mc_36_flag_Tunisia"><path id="Oval" d="m18 36c9.9411 0 18-8.0589 18-18 0-9.94113-8.0589-18-18-18-9.94113 0-18 8.05887-18 18 0 9.9411 8.05887 18 18 18z" fill="#d80027"/><path id="Oval_2" d="m18 26.6091c4.7546 0 8.609-3.8544 8.609-8.609s-3.8544-8.60899-8.609-8.60899-8.60901 3.85439-8.60901 8.60899 3.85441 8.609 8.60901 8.609z" fill="#f0f0f0"/><path id="Shape" clip-rule="evenodd" d="m14.87 18c.0072 2.8049 2.2821 5.0754 5.087 5.077l-.001.009c.8451.0013 1.6771-.2091 2.42-.612-1.1682 1.1458-2.7397 1.7868-4.376 1.785-2.2365 0-4.3031-1.1931-5.4213-3.13-1.1183-1.9368-1.1183-4.3231 0-6.26 1.1182-1.9368 3.1848-3.13 5.4213-3.13 1.6351-.0049 3.2068.6321 4.377 1.774-.72-.38-1.544-.6-2.42-.6-2.8088.0017-5.0854 2.2783-5.087 5.087zm5.667-1.265-1.477-2.035-.02 2.514-2.392.776 2.4.778-.002 2.514 1.48-2.033 2.4.778-1.477-2.035 1.48-2.033z" fill="#d80027" fill-rule="evenodd"/></g></g></svg>