<svg xmlns="http://www.w3.org/2000/svg" version="1.1" xmlns:xlink="http://www.w3.org/1999/xlink" width="512" height="512" x="0" y="0" viewBox="0 0 1000 1000" style="enable-background:new 0 0 512 512" xml:space="preserve" class=""><g><clipPath id="a"><circle cx="500" cy="500" r="500" fill="#000000" opacity="1" data-original="#000000" class=""></circle></clipPath><path d="M-250 0h1500v1000H-250z" clip-path="url(#a)" fill="#000000" opacity="1" data-original="#000000" class=""></path><path fill="#fcdc04" d="M-250 166.667h1500v166.667H-250z" clip-path="url(#a)" opacity="1" data-original="#fcdc04" class=""></path><path fill="#d90000" d="M-250 333.333h1500V500H-250z" clip-path="url(#a)" opacity="1" data-original="#d90000" class=""></path><path fill="#fcdc04" d="M-250 666.667h1500v166.666H-250z" clip-path="url(#a)" opacity="1" data-original="#fcdc04" class=""></path><path fill="#d90000" d="M-250 833.333h1500V1000H-250z" clip-path="url(#a)" opacity="1" data-original="#d90000" class=""></path><circle cx="500" cy="500" r="155.835" fill="#ffffff" clip-path="url(#a)" opacity="1" data-original="#ffffff" class=""></circle><path fill="#d90000" d="m472.533 380.648-10.106-18.613c3.898-3.906 10.464-6.917 20.923-6.917 0 .708-1.066 20.394-1.066 20.394z" clip-path="url(#a)" opacity="1" data-original="#d90000" class=""></path><path d="m472.193 381.769-10.795-19.882.438-.44c4.675-4.685 12.114-7.161 21.513-7.161h.833v.833c0 .71-.958 18.421-1.067 20.439l-.025.472zm-8.732-19.575 9.412 17.333 8.604-4.531c.366-6.766.869-16.174 1.004-19.037-8.239.141-14.786 2.287-19.02 6.235z" clip-path="url(#a)" fill="#000000" opacity="1" data-original="#000000" class=""></path><path fill="#fcdc04" d="m482.284 375.684 1.425-20.565s20.922-1.238 32.266 12.411c.18-.179-11.173 15.958-11.173 15.958z" clip-path="url(#a)" opacity="1" data-original="#fcdc04" class=""></path><path d="m505.121 384.481-23.713-8.219 1.521-21.932.731-.044c.005.003 21.316-1.292 32.956 12.709.359.635.359.635-11.133 16.971zm-21.962-9.376 21.323 7.39c3.818-5.431 9.106-12.961 10.461-14.923-9.766-11.307-26.72-11.707-30.456-11.645z" clip-path="url(#a)" fill="#000000" opacity="1" data-original="#000000" class=""></path><path fill="#d90000" d="m505.159 383.308 10.278-15.958c6.918 7.274 9.758 12.411 10.815 20.215.18.179-16.309 4.076-16.309 3.897.001-.17-4.604-7.974-4.784-8.154z" clip-path="url(#a)" opacity="1" data-original="#d90000" class=""></path><path d="M509.969 392.301h-.834l-.019-.644c-.526-1.002-4.248-7.329-4.614-7.837l-.472-.475.43-.489 10.852-16.849.73.768c7.095 7.462 9.897 12.646 10.999 20.398l.195.196-.212.52c-.422 1.022-16.902 4.412-17.055 4.412zm-3.835-8.968c.935 1.51 3.312 5.421 4.252 7.227 2.399-.462 12.409-2.845 14.946-3.557-1.048-6.875-3.605-11.674-9.771-18.305z" clip-path="url(#a)" fill="#000000" opacity="1" data-original="#000000" class=""></path><path d="M477.677 646.785s19.327-22.159 56.917-17.374c-5.681-9.221-23.942-8.154-23.942-8.154s-5.672-43.083-1.236-45.215c4.427-2.124 23.226.179 23.226.179 2.482 0 6.738-6.738 3.369-10.994-3.369-4.257-13.298-20.565-9.221-23.755 4.077-3.198 26.237 1.766 26.237 1.766l-62.589-80.135s-6.379-30.144 6.389-44.686c15.421-12.769 13.825-26.595 13.297-26.416-2.133-14.005-23.405-24.113-37.77-11.174-8.51 10.286-2.839 18.084-2.839 18.084s-22.338 6.029-23.226 9.936c-.887 3.898 25.18-.708 25.18-.708l-2.484 17.903s-50.708 46.102-11.88 85.995c.358-.179 1.245-1.774 1.245-1.774s13.655 16.846 28.011 20.565c13.477 13.834 12.239 11.702 12.239 11.702s2.653 21.81.179 26.066c-3.377-1.066-37.769-2.304-42.913-.358-4.612 1.424-22.338.537-17.911 29.436 3.369-7.797 6.389-14.714 6.389-14.714s-.538 10.457 3.718 14.185c-.708-10.994 4.077-18.44 4.077-18.44s.888 12.061 3.548 13.826c2.662 1.774 2.662-19.499 17.375-17.725 14.724 1.774 25.359 1.237 25.359 1.237s4.964 41.666 3.369 45.572c-10.644-2.49-35.994 1.059-37.59 7.446 14.894-.887 21.811.879 21.811.879s-12.061 10.644-8.334 16.845z" clip-path="url(#a)" fill="#000000" opacity="1" data-original="#000000" class=""></path><path d="m477.553 648.195-.59-.98c-3.321-5.525 4.217-13.762 7.287-16.765-2.011-.327-5.99-.806-12.037-.806-2.524 0-5.204.084-7.963.248l-1.133.067.275-1.101c1.448-5.794 18.178-8.879 29.699-8.879 3.119 0 5.89.225 8.082.649.663-4.832-1.629-28.001-3.487-43.726-.708.021-1.881.047-3.45.047-4.709 0-12.222-.228-21.272-1.318-9.379-1.129-12.435 8.036-14.213 13.403-.948 2.858-1.47 4.431-2.754 4.431-.268 0-.526-.081-.77-.244-2.142-1.422-3.189-7.678-3.643-11.594-1.316 3-3.135 8.526-2.689 15.462l.128 2.002-1.51-1.322c-2.811-2.462-3.68-7.455-3.932-10.975a5630.788 5630.788 0 0 0-4.86 11.206l-1.149 2.661-.439-2.864c-4.008-26.162 9.753-28.688 16.368-29.903.854-.156 1.582-.287 2.121-.454 2.305-.874 9.779-1.06 15.633-1.06 10.634 0 23.384.608 27.05 1.255 1.415-3.931.364-17.297-.469-24.482-1.074-.76-3.809-3.268-11.909-11.581-12.605-3.383-24.381-16.292-27.462-19.879-.582.885-.862 1.025-.987 1.087l-.544.272-.425-.436c-10.251-10.533-15.248-22.466-14.851-35.469.808-26.452 23.997-49.106 26.543-51.515l2.288-16.483c-3.317.554-13.089 2.094-19.234 2.094-3.976 0-5.014-.663-5.476-1.241a1.562 1.562 0 0 1-.301-1.344c.883-3.885 17.385-8.77 22.786-10.271-1.258-2.537-3.592-9.583 3.451-18.094 4.576-4.134 10.049-6.272 15.915-6.272 11.248 0 21.616 7.85 23.273 17.56l.123.285c.686 1.9 1.074 14.987-13.665 27.19-11.74 13.386-6.641 41.147-6.143 43.687l63.901 81.814-2.273-.509c-.124-.028-12.679-2.819-20.434-2.819-3.449 0-4.678.562-5.105.896-.34.266-.541.701-.616 1.332-.582 4.883 6.819 17.265 9.976 21.25 1.739 2.197 1.898 5.329.423 8.377-.956 1.975-2.702 3.969-4.445 3.969-.189-.019-8.938-1.08-15.781-1.08-4.446 0-6.308.445-7.085.817-2.372 1.142-1.021 23.369 1.605 43.604.271-.006.606-.01.999-.01 5.302 0 18.149.836 22.925 8.588l.914 1.483-1.729-.221a82.694 82.694 0 0 0-10.362-.669c-29.978 0-45.666 17.589-45.822 17.766zm-5.34-20.216c9.377 0 13.819 1.106 14.004 1.153l1.525.391-1.18 1.042c-2.977 2.631-9.839 10.018-8.61 14.74 3.796-3.737 19.513-17.403 46.175-17.403 2.83 0 5.729.154 8.643.46-5.219-5.827-16.758-6.31-20.39-6.31-1.042 0-1.666.037-1.679.037l-.772.045-.103-.77c-1.349-10.246-5.391-43.852-.771-46.073 1.377-.661 3.929-.982 7.805-.982 6.947 0 15.794 1.074 15.883 1.084.61-.006 1.939-1.164 2.843-3.033.445-.922 1.747-4.12-.229-6.616-2.301-2.905-11.047-16.419-10.325-22.481.131-1.078.548-1.902 1.245-2.447 1.072-.841 3.078-1.249 6.133-1.249 6.01 0 14.536 1.57 18.555 2.384l-61.302-78.486-.04-.188c-.265-1.249-6.318-30.722 6.578-45.408 12.774-10.59 13.713-21.831 13.381-24.804l-.132.044-.15-.982c-1.38-9.063-11.103-16.436-21.673-16.436-5.446 0-10.535 1.991-14.715 5.757-7.882 9.54-2.936 16.677-2.721 16.976l.701.978-1.16.315c-10.739 2.899-22.138 7.174-22.629 9.314h.001c.031 0 .596.549 4.15.549 7.187 0 19.943-2.238 20.07-2.262l1.128-.199-2.682 19.337-.224.204c-.253.231-25.399 23.413-26.223 50.55-.374 12.259 4.25 23.552 13.741 33.583.168-.267.375-.606.557-.934l.599-1.078.776.958c.135.167 13.652 16.677 27.573 20.282l.226.059.163.167c9.907 10.17 11.63 11.473 11.923 11.627l-.284.537.723-.299.189.325-.051.255.044.361-.003.003c.534 4.63 2.338 21.936-.001 25.96l-.334.575-.637-.199c-1.857-.586-15.417-1.343-27.275-1.343-7.962 0-13.463.353-15.092.969-.66.205-1.449.35-2.362.519-6.289 1.153-17.768 3.262-15.41 25.037 2.855-6.594 5.191-11.947 5.191-11.947l1.596.377c-.004.085-.341 7.371 1.981 11.633.071-9.713 4.095-16.093 4.281-16.382l1.349-2.1.183 2.488c.343 4.643 1.481 11.542 2.985 13.033.341-.533.818-1.976 1.211-3.164 1.928-5.814 5.231-15.845 15.995-14.534 8.968 1.08 16.41 1.309 21.073 1.309 2.638 0 4.133-.075 4.145-.075l.777-.039.091.773c.511 4.286 4.943 41.994 3.313 45.985l-.269.657-.691-.16c-2.179-.511-5.122-.779-8.512-.779-11.035 0-24.396 2.765-27.484 6.502 2.283-.116 4.5-.172 6.61-.172z" clip-path="url(#a)" fill="#000000" opacity="1" data-original="#000000" class=""></path><g fill="#9ca69c"><path d="M483.649 419.434s-36.897 40.675-20.979 71.793c.845-4.337.479-7.065 1.008-6.894-.885-.526 4.583 3.744 4.167 2.915.115-2.246-1.667-7.073-1.667-7.073 1.667.417 3.327.831 4.996 1.246-.978-1.798-1.946-3.604-2.913-5.405 2.352.278 4.71.555 7.071.832 0 0-2.498-6.659-1.669-6.659.84 0 5.828.417 5.828.417-10.489-18.831-.593-34.464 4.158-51.172z" clip-path="url(#a)" fill="#9ca69c" opacity="1" data-original="#9ca69c"></path><path d="m463.028 493.754-1.099-2.147c-15.996-31.269 20.731-72.321 21.103-72.732l1.419.788c-.978 3.438-2.186 6.871-3.354 10.191-4.65 13.212-9.042 25.692-.877 40.348l.761 1.366-1.559-.13a289.378 289.378 0 0 0-5.039-.381c.211 1.122.98 3.503 1.73 5.5l.48 1.281-6.841-.806a851.464 851.464 0 0 0 2.155 3.993l.904 1.664-5.349-1.333c.51 1.585 1.226 4.093 1.221 5.706l.115.229-.47.884-.503.016c-.635 0-2.466-1.373-3.681-2.345l-.019.276c-.08 1.208-.202 3.031-.638 5.267zm18.616-70.626c-7.807 9.743-29.705 40.316-19.378 65.235.104-.934.157-1.73.198-2.355.042-.631.076-1.131.157-1.516l-.607-.647.95-.223.072-.167.78-.002.29.163-.171.377.282-.236c.271.274 1.647 1.337 2.687 2.074-.305-1.858-1.131-4.357-1.506-5.369l-.545-1.48 4.689 1.171c-.625-1.16-1.25-2.321-1.872-3.48l-.897-1.673 7.312.862c-1.848-5.172-1.424-5.784-1.212-6.089l.248-.359.544-.058c.573 0 2.813.171 4.374.295-7.523-14.749-2.945-27.759 1.486-40.353.713-2.025 1.44-4.091 2.119-6.17zM496.469 384.554s1.952 14.006-5.673 18.083c-1.238.885-6.029 2.481-5.323 5.32.888 3.898 3.021 3.192 6.031 2.484 7.983-1.424 17.204-18.441 4.965-25.887z" clip-path="url(#a)" fill="#9ca69c" opacity="1" data-original="#9ca69c"></path><path d="M488.392 411.83c-1.973 0-3.159-1.172-3.732-3.687-.708-2.847 2.579-4.549 4.542-5.566.466-.24.864-.441 1.109-.616 7.113-3.812 5.351-17.157 5.333-17.292l-.241-1.738 1.499.911c5.01 3.049 7.162 7.963 6.064 13.839-1.213 6.484-6.396 12.704-11.316 13.582l-.362.087c-1.035.247-2.014.48-2.896.48zm9.074-25.569c.258 4.058.14 13.681-6.277 17.111-.198.152-.667.399-1.22.685-2.066 1.07-4.052 2.236-3.688 3.7.507 2.222 1.32 2.407 2.111 2.407.686 0 1.531-.202 2.51-.435l.411-.098c4.277-.765 8.936-6.488 10.016-12.257.508-2.717.598-7.557-3.863-11.113z" clip-path="url(#a)" fill="#9ca69c" opacity="1" data-original="#9ca69c"></path></g><path fill="#ffffff" d="M483 396.663a3 3 0 1 1-5.997.01 3 3 0 0 1 5.997-.01z" clip-path="url(#a)" opacity="1" data-original="#ffffff" class=""></path><path fill="#d90000" d="M470.939 408.308c-1.954 1.596-12.23 12.239-2.133 16.138 10.466-2.839 7.627-4.783 9.938-7.096.056-4.785-5.209-6.021-7.805-9.042z" clip-path="url(#a)" opacity="1" data-original="#d90000" class=""></path><path d="m468.76 425.321-.254-.099c-2.842-1.097-4.468-2.811-4.832-5.092-.809-5.065 5.207-11.216 6.738-12.467l.63-.515.529.616c.798.93 1.89 1.688 3.043 2.49 2.347 1.63 5.006 3.478 4.962 7.105l-.004.339-.239.24c-.523.522-.719 1.018-.946 1.593-.826 2.084-1.982 3.715-9.364 5.718zm2.128-15.856c-2.094 1.968-6.137 6.839-5.568 10.403.257 1.614 1.415 2.827 3.535 3.7 6.894-1.901 7.447-3.298 7.982-4.65.229-.576.483-1.22 1.068-1.89-.116-2.538-2.035-3.871-4.242-5.405-.956-.665-1.939-1.348-2.775-2.158z" clip-path="url(#a)" fill="#000000" opacity="1" data-original="#000000" class=""></path><path fill="#9ca69c" d="M493.277 508.846c-.527 2.304-2.839 10.817.358 17.375 8.863-3.728 12.94-2.661 15.96-.708-7.276-5.85-10.108-8.333-16.318-16.667z" clip-path="url(#a)" opacity="1" data-original="#9ca69c"></path><path fill="#9ca69c" d="m493.231 527.295-.345-.708c-3.14-6.441-1.244-14.451-.53-17.464l.511-2.222 1.078 1.446c6.215 8.342 9.009 10.756 16.172 16.516l-.975 1.35c-1.184-.766-2.887-1.645-5.572-1.645-2.594 0-5.738.792-9.612 2.422zm.455-16.521c-.723 3.288-1.729 9.328.376 14.37 4.542-1.829 8.146-2.507 11.13-2.148-4.332-3.623-7.084-6.406-11.506-12.222z" clip-path="url(#a)" opacity="1" data-original="#9ca69c"></path><path fill="#ffffff" d="m508.528 549.089.529 19.864s6.917 1.237 10.107 0c3.191-1.245-.178-13.834-10.636-19.864z" clip-path="url(#a)" opacity="1" data-original="#ffffff" class=""></path><path fill="#ffffff" d="M515.127 570.337c-3.034 0-6.088-.541-6.216-.563l-.669-.12-.586-22.029 1.289.742c8.385 4.836 12.529 14.016 12.189 18.512-.148 1.974-1.109 2.633-1.667 2.853-1.038.402-2.497.605-4.34.605zm-5.256-2.098c1.052.157 3.187.432 5.256.432 1.636 0 2.893-.167 3.737-.495.327-.128.549-.646.608-1.424.291-3.837-3.136-11.507-10.069-16.14z" clip-path="url(#a)" opacity="1" data-original="#ffffff" class=""></path><path fill="#9ca69c" d="M558.708 551.579s-12.769-30.852-45.395-38.656-28.37-42.554-25.708-44.686c1.415-3.01 2.482-7.625 11.881-3.189 9.392 4.435 52.653 26.243 58.862 27.302 6.211 1.067.888 59.937.36 59.229z" clip-path="url(#a)" opacity="1" data-original="#9ca69c"></path><path d="M558.718 552.419h-.417l-.261-.342c-.229-.484-13.104-30.733-44.92-38.345-18.451-4.412-24.932-16.994-27.12-26.771-1.939-8.666-.802-17.346.911-19.21l.266-.589c.893-2.018 2.117-4.784 5.914-4.784 1.812 0 4.02.627 6.752 1.917 2.136 1.009 6.024 2.917 10.832 5.274 16.134 7.916 43.136 21.162 47.815 21.959 5.749.988 3.43 35.579 2.166 50.407-.892 10.484-1.033 10.484-1.938 10.484zm-65.627-88.374c-2.713 0-3.528 1.841-4.391 3.791l-.574 1.052c-.87.777-2.68 9.139-.253 18.745 2.251 8.909 8.527 20.386 25.634 24.48 27.279 6.524 40.969 29.24 44.814 36.731 1.188-10.295 4.028-49.209.355-55.202-.248-.406-.421-.464-.468-.472-4.537-.773-26.332-11.344-48.269-22.105-4.797-2.353-8.677-4.256-10.809-5.264-2.469-1.165-4.501-1.756-6.039-1.756z" clip-path="url(#a)" fill="#000000" opacity="1" data-original="#000000" class=""></path><path fill="#d90000" d="M527.678 512.744c-.537.358 43.619 26.066 30.313 48.226 12.598-8.333 8.513-22.867 8.513-22.867s10.286 26.773-14.714 39.893c2.661 2.303 4.436 1.773 4.436 1.773l-4.256 4.257s-1.953 3.189 14.893-4.973c-4.614 3.728-4.965 6.389-4.965 6.389s1.237 3.548 12.231-6.03c-8.862 9.578-10.815 14.542-10.815 14.363 23.935-2.132 76.066-79.964-16.487-103.021 4.964 5.145 4.256 4.436 4.256 4.436z" clip-path="url(#a)" opacity="1" data-original="#d90000" class=""></path><path d="m561.501 594.773.979-1.273v-.488l.317-.028c1.258-2.358 3.115-5.085 5.45-8.024-2.085 1.302-3.766 1.957-5.021 1.957-1.648 0-2.073-1.078-2.116-1.2l-.065-.188.027-.195c.026-.203.25-1.503 1.781-3.471-5.267 2.396-8.709 3.609-10.26 3.609-.678 0-1.141-.218-1.383-.651-.249-.441-.139-.926.049-1.23l3.116-3.14c-.866-.252-1.927-.783-3.131-1.825l-.924-.799 1.083-.57c15.346-8.052 17.102-21.228 16.257-29.98-.718 4.725-3.024 10.297-9.21 14.391l-1.174-1.125c5.082-8.466 4.321-23.267-28.176-45.705-2.224-1.534-2.267-1.564-2.263-2.09l.005-.441.372-.254 22.621-16.969c-.579-.604-1.649-1.718-3.611-3.749l-2.016-2.089 2.817.702c21.096 5.255 56.083 19.3 53.371 54.317-.883 11.407-6.04 23.853-14.146 34.144-7.264 9.218-15.837 15.368-22.489 16.159l-.031.039-.435.008zm12.081-15.991 1.159 1.194c-4.365 4.72-7.82 9.172-9.875 12.709 12.474-2.793 32.023-24.696 33.87-48.551 1.889-24.369-15.58-42.7-49.262-51.831.766.798 1.305 1.37 1.681 1.79l.005-.005.512.512-.046.049c.415.529.359.659.26.896l-.214.506-.354.002-22.28 16.71c.296.207.647.449 1.01.7 24.735 17.079 34.89 32.071 30.253 44.631 8.562-8.037 5.437-19.642 5.401-19.768l1.579-.525c.104.271 9.955 26.791-13.965 40.311 1.599 1.052 2.689.852 2.691.852l2.871-.688-5.363 5.38c1.729-.368 5.294-1.628 12.982-5.355l.887 1.4c-3.275 2.645-4.272 4.699-4.558 5.499.585.163 3.204.161 10.756-6.418z" clip-path="url(#a)" fill="#000000" opacity="1" data-original="#000000" class=""></path><path fill="#ffffff" d="M529.631 505.119c6.021 4.256 8.154 5.672 8.862 7.804-5.502-1.245-10.466-.887-10.466-.887s-11.873-11.344-14.006-12.231c-1.595 0-10.815-5.85-10.815-5.85-4.606-2.313-8.862-18.271 8.154-13.657 17.554 8.333 20.036 9.042 20.036 9.042 6.975 2.19 13.948 4.377 20.923 6.559l12.061 13.477s-21.452-10.635-24.113-10.814c5.852 4.784 9.221 11.344 9.221 11.344-6.804-1.947-12.713-3.721-19.857-4.787z" clip-path="url(#a)" opacity="1" data-original="#ffffff" class=""></path><path d="m539.748 514.062-1.438-.327c-3.339-.755-6.472-.914-8.513-.914-1.058 0-1.694.045-1.711.047l-.368.024-.267-.254c-4.457-4.259-11.997-11.184-13.657-12.022-2.049-.333-8.911-4.611-11.033-5.958-2.671-1.336-5.264-6.823-4.269-11.026.443-1.868 1.998-5 7.437-5 1.64 0 3.542.29 5.649.861 17.198 8.15 19.944 9.014 20.055 9.046 6.988 2.194 13.961 4.381 20.935 6.563l.22.069L565 508.819l-.99 1.303c-6.105-3.027-15.236-7.394-20.294-9.501 4.099 4.254 6.396 8.677 6.512 8.903l.879 1.711-3.36-.962c-5.089-1.461-9.613-2.757-14.645-3.718 3.922 2.798 5.529 4.141 6.183 6.106zm-9.951-2.907c1.752 0 4.277.112 7.064.594-1.066-1.257-3.099-2.693-6.806-5.31l-.905-.641.603-1.504c6.498.969 11.851 2.482 17.975 4.238-1.392-2.238-4.158-6.195-7.987-9.328l-2.021-1.652 2.603.176c2.115.143 14.151 5.88 20.581 9.011l-9.052-10.115c-6.901-2.159-13.805-4.324-20.705-6.49-.084-.023-2.727-.816-20.144-9.084-1.827-.482-3.581-.753-5.074-.753-3.273 0-5.229 1.251-5.815 3.719-.797 3.367 1.31 8.11 3.467 9.193 4.346 2.752 9.527 5.711 10.447 5.762l.312.064c2.1.873 11.951 10.197 14.002 12.148.312-.011.81-.028 1.455-.028zM446.119 409.904s20.564-4.964 23.046-4.256" clip-path="url(#a)" fill="#000000" opacity="1" data-original="#000000" class=""></path><path fill="#ffffff" d="m446.314 410.714-.391-1.62c3.469-.838 20.902-4.984 23.47-4.248l-.458 1.603c-1.474-.426-12.754 1.884-22.621 4.265z" clip-path="url(#a)" opacity="1" data-original="#ffffff" class=""></path></g></svg>